<svg xmlns="http://www.w3.org/2000/svg" xmlns:xlink="http://www.w3.org/1999/xlink" width="124.605" height="125.948" viewBox="0 0 124.605 125.948">
  <defs>
    <clipPath id="clip-path">
      <rect id="Rectangle_400938" data-name="Rectangle 400938" width="117.278" height="117.278" fill="none"/>
    </clipPath>
    <clipPath id="clip-path-2">
      <path id="Path_873460" data-name="Path 873460" d="M0,1.307A1.349,1.349,0,0,0,1.389,2.613,1.349,1.349,0,0,0,2.778,1.307,1.349,1.349,0,0,0,1.389,0,1.349,1.349,0,0,0,0,1.307" transform="translate(0)" fill="#34054d"/>
    </clipPath>
    <clipPath id="clip-path-3">
      <path id="Path_873466" data-name="Path 873466" d="M0,1.307A1.349,1.349,0,0,0,1.39,2.613,1.349,1.349,0,0,0,2.778,1.307,1.349,1.349,0,0,0,1.39,0,1.349,1.349,0,0,0,0,1.307" fill="#34054d"/>
    </clipPath>
    <clipPath id="clip-path-4">
      <path id="Path_873467" data-name="Path 873467" d="M0,1.306A1.349,1.349,0,0,0,1.389,2.612,1.349,1.349,0,0,0,2.778,1.306,1.349,1.349,0,0,0,1.389,0,1.349,1.349,0,0,0,0,1.306" transform="translate(0 0)" fill="#34054d"/>
    </clipPath>
    <clipPath id="clip-path-5">
      <path id="Path_873468" data-name="Path 873468" d="M0,1.306A1.349,1.349,0,0,0,1.39,2.612,1.349,1.349,0,0,0,2.778,1.306,1.349,1.349,0,0,0,1.39,0,1.349,1.349,0,0,0,0,1.306" transform="translate(0 0)" fill="#34054d"/>
    </clipPath>
    <clipPath id="clip-path-6">
      <path id="Path_873469" data-name="Path 873469" d="M0,1.306A1.349,1.349,0,0,0,1.389,2.612,1.349,1.349,0,0,0,2.777,1.306,1.349,1.349,0,0,0,1.389,0,1.349,1.349,0,0,0,0,1.306" transform="translate(0 0)" fill="#34054d"/>
    </clipPath>
    <clipPath id="clip-path-9">
      <path id="Path_873473" data-name="Path 873473" d="M0,1.306A1.349,1.349,0,0,0,1.39,2.612,1.348,1.348,0,0,0,2.778,1.306,1.349,1.349,0,0,0,1.39,0,1.349,1.349,0,0,0,0,1.306" transform="translate(0 0)" fill="#34054d"/>
    </clipPath>
    <clipPath id="clip-path-22">
      <rect id="Rectangle_401492" data-name="Rectangle 401492" width="63.051" height="63.052" transform="translate(0 0)" fill="#fff" stroke="#707070" stroke-width="1"/>
    </clipPath>
  </defs>
  <g id="Group_1102317" data-name="Group 1102317" transform="translate(23060.281 3818.28)">
    <g id="Group_1100237" data-name="Group 1100237" transform="translate(-23054.037 -3797.84)">
      <g id="Group_1099505" data-name="Group 1099505" transform="translate(1.808 8.418)">
        <g id="Group_1099504" data-name="Group 1099504" transform="translate(0)" clip-path="url(#clip-path-2)">
          <rect id="Rectangle_401140" data-name="Rectangle 401140" width="2.777" height="2.613" transform="translate(0)" fill="#34054d"/>
        </g>
      </g>
      <g id="Group_1099517" data-name="Group 1099517" transform="translate(37.056 8.418)">
        <g id="Group_1099516" data-name="Group 1099516" transform="translate(0)" clip-path="url(#clip-path-3)">
          <rect id="Rectangle_401146" data-name="Rectangle 401146" width="2.778" height="2.613" transform="translate(0 0)" fill="#34054d"/>
        </g>
      </g>
      <g id="Group_1099519" data-name="Group 1099519" transform="translate(30.194 8.418)">
        <g id="Group_1099518" data-name="Group 1099518" transform="translate(0 0)" clip-path="url(#clip-path-4)">
          <rect id="Rectangle_401147" data-name="Rectangle 401147" width="2.778" height="2.612" transform="translate(0 0)" fill="#34054d"/>
        </g>
      </g>
      <g id="Group_1099521" data-name="Group 1099521" transform="translate(23.332 8.418)">
        <g id="Group_1099520" data-name="Group 1099520" transform="translate(0 0)" clip-path="url(#clip-path-5)">
          <rect id="Rectangle_401148" data-name="Rectangle 401148" width="2.778" height="2.612" transform="translate(0 0)" fill="#34054d"/>
        </g>
      </g>
      <g id="Group_1099523" data-name="Group 1099523" transform="translate(16.47 8.418)">
        <g id="Group_1099522" data-name="Group 1099522" transform="translate(0 0)" clip-path="url(#clip-path-6)">
          <rect id="Rectangle_401149" data-name="Rectangle 401149" width="2.777" height="2.612" transform="translate(0 0)" fill="#34054d"/>
        </g>
      </g>
      <g id="Group_1099525" data-name="Group 1099525" transform="translate(34.311 0)">
        <g id="Group_1099524" data-name="Group 1099524" clip-path="url(#clip-path-4)">
          <rect id="Rectangle_401150" data-name="Rectangle 401150" width="2.778" height="2.612" transform="translate(0 0)" fill="#34054d"/>
        </g>
      </g>
      <g id="Group_1099529" data-name="Group 1099529" transform="translate(27.448 0)">
        <g id="Group_1099528" data-name="Group 1099528" transform="translate(0)" clip-path="url(#clip-path-5)">
          <rect id="Rectangle_401152" data-name="Rectangle 401152" width="2.778" height="2.612" transform="translate(0 0)" fill="#34054d"/>
        </g>
      </g>
      <g id="Group_1099531" data-name="Group 1099531" transform="translate(13.724 0)">
        <g id="Group_1099530" data-name="Group 1099530" transform="translate(0)" clip-path="url(#clip-path-9)">
          <rect id="Rectangle_401153" data-name="Rectangle 401153" width="2.777" height="2.612" transform="translate(0 0)" fill="#34054d"/>
        </g>
      </g>
      <g id="Group_1099533" data-name="Group 1099533" transform="translate(6.862 0)">
        <g id="Group_1099532" data-name="Group 1099532" clip-path="url(#clip-path-4)">
          <rect id="Rectangle_401154" data-name="Rectangle 401154" width="2.778" height="2.612" transform="translate(0 0)" fill="#34054d"/>
        </g>
      </g>
      <g id="Group_1099535" data-name="Group 1099535" transform="translate(0 0)">
        <g id="Group_1099534" data-name="Group 1099534" transform="translate(0)" clip-path="url(#clip-path-5)">
          <rect id="Rectangle_401155" data-name="Rectangle 401155" width="2.778" height="2.612" transform="translate(0 0)" fill="#34054d"/>
        </g>
      </g>
    </g>
    <g id="Group_1100238" data-name="Group 1100238" transform="translate(-22980.652 -3724.455)">
      <g id="Group_1099505-2" data-name="Group 1099505" transform="translate(1.808 8.418)">
        <g id="Group_1099504-2" data-name="Group 1099504" transform="translate(0)" clip-path="url(#clip-path-2)">
          <rect id="Rectangle_401140-2" data-name="Rectangle 401140" width="2.777" height="2.613" transform="translate(0)" fill="#34054d"/>
        </g>
      </g>
      <g id="Group_1099517-2" data-name="Group 1099517" transform="translate(37.056 8.418)">
        <g id="Group_1099516-2" data-name="Group 1099516" transform="translate(0)" clip-path="url(#clip-path-3)">
          <rect id="Rectangle_401146-2" data-name="Rectangle 401146" width="2.778" height="2.613" transform="translate(0 0)" fill="#34054d"/>
        </g>
      </g>
      <g id="Group_1099519-2" data-name="Group 1099519" transform="translate(30.194 8.418)">
        <g id="Group_1099518-2" data-name="Group 1099518" transform="translate(0 0)" clip-path="url(#clip-path-4)">
          <rect id="Rectangle_401147-2" data-name="Rectangle 401147" width="2.778" height="2.612" transform="translate(0 0)" fill="#34054d"/>
        </g>
      </g>
      <g id="Group_1099521-2" data-name="Group 1099521" transform="translate(23.332 8.418)">
        <g id="Group_1099520-2" data-name="Group 1099520" transform="translate(0 0)" clip-path="url(#clip-path-5)">
          <rect id="Rectangle_401148-2" data-name="Rectangle 401148" width="2.778" height="2.612" transform="translate(0 0)" fill="#34054d"/>
        </g>
      </g>
      <g id="Group_1099523-2" data-name="Group 1099523" transform="translate(16.47 8.418)">
        <g id="Group_1099522-2" data-name="Group 1099522" transform="translate(0 0)" clip-path="url(#clip-path-6)">
          <rect id="Rectangle_401149-2" data-name="Rectangle 401149" width="2.777" height="2.612" transform="translate(0 0)" fill="#34054d"/>
        </g>
      </g>
      <g id="Group_1099525-2" data-name="Group 1099525" transform="translate(34.311 0)">
        <g id="Group_1099524-2" data-name="Group 1099524" clip-path="url(#clip-path-4)">
          <rect id="Rectangle_401150-2" data-name="Rectangle 401150" width="2.778" height="2.612" transform="translate(0 0)" fill="#34054d"/>
        </g>
      </g>
      <g id="Group_1099529-2" data-name="Group 1099529" transform="translate(27.448 0)">
        <g id="Group_1099528-2" data-name="Group 1099528" transform="translate(0)" clip-path="url(#clip-path-5)">
          <rect id="Rectangle_401152-2" data-name="Rectangle 401152" width="2.778" height="2.612" transform="translate(0 0)" fill="#34054d"/>
        </g>
      </g>
      <g id="Group_1099531-2" data-name="Group 1099531" transform="translate(13.724 0)">
        <g id="Group_1099530-2" data-name="Group 1099530" transform="translate(0)" clip-path="url(#clip-path-9)">
          <rect id="Rectangle_401153-2" data-name="Rectangle 401153" width="2.777" height="2.612" transform="translate(0 0)" fill="#34054d"/>
        </g>
      </g>
      <g id="Group_1099533-2" data-name="Group 1099533" transform="translate(6.862 0)">
        <g id="Group_1099532-2" data-name="Group 1099532" clip-path="url(#clip-path-4)">
          <rect id="Rectangle_401154-2" data-name="Rectangle 401154" width="2.778" height="2.612" transform="translate(0 0)" fill="#34054d"/>
        </g>
      </g>
      <g id="Group_1099535-2" data-name="Group 1099535" transform="translate(0 0)">
        <g id="Group_1099534-2" data-name="Group 1099534" transform="translate(0)" clip-path="url(#clip-path-5)">
          <rect id="Rectangle_401155-2" data-name="Rectangle 401155" width="2.778" height="2.612" transform="translate(0 0)" fill="#34054d"/>
        </g>
      </g>
    </g>
    <path id="Path_873784" data-name="Path 873784" d="M83.8,18.565A18.62,18.62,0,0,0,65.231,0H18.566A18.62,18.62,0,0,0,0,18.566V65.231A18.62,18.62,0,0,0,18.565,83.8H65.231A18.62,18.62,0,0,0,83.8,65.23Z" transform="translate(-22994.928 -3692.332) rotate(-135)" fill="#bfa9fe"/>
    <path id="Path_873785" data-name="Path 873785" d="M86.438,19.15A19.206,19.206,0,0,0,67.287,0H19.151A19.207,19.207,0,0,0,0,19.151V67.287a19.206,19.206,0,0,0,19.15,19.15H67.287A19.207,19.207,0,0,0,86.437,67.286Z" transform="translate(-22999.16 -3696.04) rotate(-135)" fill="#34054d"/>
    <g id="Mask_Group_1098697" data-name="Mask Group 1098697" transform="translate(-23031.146 -3787.541)" clip-path="url(#clip-path-22)">
      <g id="Group_1109574" data-name="Group 1109574" transform="translate(-2390.21 -128.982)">
        <path id="Path_883339" data-name="Path 883339" d="M2417.72,168.4l-1.675,1.933c.294.394,1.341.847.5,1.688-.779.781-1.287-.215-2.062-.57-.755.791-1.541,1.646-2.359,2.467q-5.273,5.291-10.573,10.557a1.011,1.011,0,0,0-.292,1.271,3.57,3.57,0,0,1-1.438,4.276,3.633,3.633,0,1,1-.727-6.463.9.9,0,0,0,1.134-.171q8-8.043,16.034-16.051a4.152,4.152,0,0,0,.328-.419,9.45,9.45,0,0,1,.035-11.737c-.909-.686-1.351-1.949-2.74-2.075-.185-.017-.366-.365-.5-.588a6.832,6.832,0,0,0-.719-1.28c-2.14-2.2-4.32-4.371-6.52-6.585a7.661,7.661,0,0,1-5.046,1.535,7.319,7.319,0,0,1-1.974-14.217,7.181,7.181,0,0,1,6.892,1.092c.5.366.957.811.474,1.448s-1,.322-1.517-.054a5.583,5.583,0,0,0-8.888,3.3,5.385,5.385,0,0,0,2.227,5.669,5.6,5.6,0,0,0,8.805-5.268,1.819,1.819,0,0,0-.049-.272c-.15-.636.007-1.141.707-1.244.661-.1.937.371,1.014.94a7.515,7.515,0,0,1-.933,5.063c-.157.26-.322.516-.475.762l7.071,7.022c.564.05,1.2-.072,1.529.192.257.208.126.893.183,1.541l1.7,1.781c3.914-2.757,7.821-2.773,11.821.046,1.248-1.276,2.487-2.552,3.737-3.816,1.168-1.18,2.337-2.359,3.532-3.511a.925.925,0,0,0,.234-1.257,4.55,4.55,0,1,1,5.52,2.428,4.715,4.715,0,0,1-3.415-.209,1.055,1.055,0,0,0-.926.088c-1.432,1.346-2.816,2.744-4.256,4.167.289.39.533.73.788,1.061.374.484.589,1.007.023,1.457s-1.021.12-1.389-.378c-.2-.265-.412-.514-.63-.785l-2.043,1.993a9.4,9.4,0,0,1,1.531,9.022l9.071,4.367a6.969,6.969,0,0,1,3.513-2.573,6.347,6.347,0,0,1,4.744.393c.557.275,1.207.587.823,1.373s-.986.478-1.573.194a4.662,4.662,0,1,0-4.081,8.383,4.41,4.41,0,0,0,4.781-.511,4.468,4.468,0,0,0,1.79-4.465c-.1-.648-.457-1.456.545-1.639,1.035-.189,1.078.714,1.172,1.393a6.134,6.134,0,0,1-2.535,6.144,6.007,6.007,0,0,1-6.69.541,6.084,6.084,0,0,1-3.475-5.837c.005-.578.112-1.154.184-1.847l-4.829-2.327c-.436.627-.813,1.221-1.243,1.774-.328.423-.764.665-1.27.262a.855.855,0,0,1-.112-1.3c.329-.467.652-.939,1.03-1.483l-2.562-1.249c-.186.232-.359.436-.519.65a9.286,9.286,0,0,1-5.881,3.657c-.243.047-.6.345-.618.554-.075.755-.03,1.523-.03,2.387.448-.049.8-.066,1.152-.131.594-.111,1.09.023,1.226.65.155.712-.347.987-.948,1.094-.447.08-.9.118-1.43.184a20.444,20.444,0,0,0,.038,2.532c.032.26.478.544.793.679a4.568,4.568,0,1,1-6.142,5.348,4.477,4.477,0,0,1,2.659-5.278,1.216,1.216,0,0,0,.906-1.4c-.044-1.906-.031-3.813-.005-5.719.008-.576-.139-.782-.76-.965C2420.672,169.639,2419.282,169,2417.72,168.4Zm13.472-7.254a7.441,7.441,0,1,0-7.517,7.365A7.431,7.431,0,0,0,2431.193,161.142Zm-4.63,21.2a2.811,2.811,0,0,0-5.622-.077,2.812,2.812,0,1,0,5.622.077Zm17.584-38.792a2.824,2.824,0,0,0-5.645-.145,2.806,2.806,0,0,0,2.788,2.913A2.837,2.837,0,0,0,2444.147,143.551Zm-44.381,43.389a1.912,1.912,0,0,0-1.865-1.887,1.946,1.946,0,0,0-1.951,1.91,2.007,2.007,0,0,0,1.882,1.907A1.949,1.949,0,0,0,2399.766,186.94Z" transform="translate(0 0)" fill="#fff"/>
        <path id="Path_883340" data-name="Path 883340" d="M2619.8,295.016a10.889,10.889,0,0,1-.494,2.147c-.144.309-.668.442-1.021.654-.207-.359-.563-.71-.585-1.08a8.716,8.716,0,0,1,.281-1.614c.086-.62.341-1.165,1.014-.986C2619.359,294.232,2619.6,294.778,2619.8,295.016Z" transform="translate(-182.258 -132.579)" fill="#fff"/>
        <path id="Path_883341" data-name="Path 883341" d="M2481.152,286.421c0,.245.09.545-.02.723-.2.324-.5.777-.786.8a1.131,1.131,0,0,1-.857-.682,4.126,4.126,0,0,1-.07-1.816c.061-.313.572-.8.8-.758.331.06.661.483.854.829.131.234.025.6.025.905Z" transform="translate(-69.432 -124.899)" fill="#fff"/>
        <path id="Path_883342" data-name="Path 883342" d="M2551.993,218.574a2.232,2.232,0,0,1-.933-.114c-.315-.174-.719-.583-.7-.858a1.171,1.171,0,0,1,.792-.775,6.28,6.28,0,0,1,1.642.088c.581.047,1.006.377.839.937-.1.319-.6.54-.95.748C2552.555,218.677,2552.328,218.593,2551.993,218.574Z" transform="translate(-127.343 -69.531)" fill="#fff"/>
        <path id="Path_883343" data-name="Path 883343" d="M2582.978,347.717c-.334-.326-.714-.529-.779-.807a1.125,1.125,0,0,1,.3-.936,5.521,5.521,0,0,1,1.556-.936,1.062,1.062,0,0,1,.957.19c.184.2.258.826.11.957A23.511,23.511,0,0,1,2582.978,347.717Z" transform="translate(-153.293 -174.083)" fill="#fff"/>
        <path id="Path_883344" data-name="Path 883344" d="M2524.324,218.929c.252.236.667.443.707.706a1.165,1.165,0,0,1-.38.989,5.926,5.926,0,0,1-1.9.664,1.011,1.011,0,0,1-.833-.507,1,1,0,0,1,.256-.938A16.958,16.958,0,0,1,2524.324,218.929Z" transform="translate(-104.124 -71.274)" fill="#fff"/>
        <path id="Path_883345" data-name="Path 883345" d="M2618.846,268.172c-.236.222-.484.641-.78.68a1.132,1.132,0,0,1-.931-.5,4.416,4.416,0,0,1-.453-1.765.814.814,0,0,1,1.568-.413A11.07,11.07,0,0,1,2618.846,268.172Z" transform="translate(-181.429 -109.377)" fill="#fff"/>
        <path id="Path_883346" data-name="Path 883346" d="M2527.966,355.159a13.434,13.434,0,0,1-2.109-.758,1.067,1.067,0,0,1-.319-.994,1.1,1.1,0,0,1,.912-.512,5.142,5.142,0,0,1,1.816.569,1.114,1.114,0,0,1,.439.949C2528.652,354.7,2528.222,354.918,2527.966,355.159Z" transform="translate(-107.075 -180.522)" fill="#fff"/>
        <path id="Path_883347" data-name="Path 883347" d="M2581.791,224.512c.015.712-.526,1.138-1.119.9a7.3,7.3,0,0,1-1.692-.92,1.047,1.047,0,0,1-.272-.947c.1-.262.622-.619.812-.547a13.811,13.811,0,0,1,2.1,1.1C2581.74,224.171,2581.756,224.422,2581.791,224.512Z" transform="translate(-150.435 -74.581)" fill="#fff"/>
        <path id="Path_883348" data-name="Path 883348" d="M2485.4,310.916c.471.541.865.818,1,1.189.253.689,1.115,1.338.4,2.143a1.126,1.126,0,0,1-1.076.05,7.156,7.156,0,0,1-1.038-2.1C2484.61,311.928,2485.057,311.5,2485.4,310.916Z" transform="translate(-73.778 -146.29)" fill="#fff"/>
        <path id="Path_883349" data-name="Path 883349" d="M2485.251,255.674c.206.281.679.655.619.893a7.662,7.662,0,0,1-.943,2.252c-.314.485-1.36.162-1.265-.358a12.545,12.545,0,0,1,.983-2.576C2484.685,255.792,2484.92,255.783,2485.251,255.674Z" transform="translate(-72.944 -101.24)" fill="#fff"/>
      </g>
    </g>
  </g>
</svg>
