<svg xmlns="http://www.w3.org/2000/svg" width="107" height="107" viewBox="0 0 107 107">
  <g id="Group_1110139" data-name="Group 1110139" transform="translate(-285 -4981.431)">
    <g id="Grupo_156312" data-name="Grupo 156312" transform="translate(-3.668 532.994)">
      <path id="Elipse_5845" data-name="Elipse 5845" d="M53.5,0A53.5,53.5,0,1,1,0,53.5,53.5,53.5,0,0,1,53.5,0Z" transform="translate(288.668 4448.437)" fill="#065564"/>
    </g>
    <g id="Group_1098919" data-name="Group 1098919" transform="translate(-101.527 -1035.635)">
      <path id="Path_873216" data-name="Path 873216" d="M0,0H63.184V63.186H0Z" transform="translate(408.527 6040.213)" fill="none"/>
      <g id="Group_1109589" data-name="Group 1109589" transform="translate(-2352.063 5870.094)">
        <path id="Path_883396" data-name="Path 883396" d="M2774.088,190.148c1.425-.5,2.7-.944,3.981-1.4a35.341,35.341,0,0,1,4.843-1.675,8.482,8.482,0,0,0,4.044-2.178c2.653-2.277,5.552-4.267,8.348-6.379.266-.2.511-.428.841-.706a8.856,8.856,0,0,1-4.916-4.9,6.456,6.456,0,0,1,.053-4.694,6.721,6.721,0,0,1,7.576-4.123c3.667.727,6.125,4.131,6.052,8.512.329,0,.657,0,.985,0a8.132,8.132,0,0,1,4.757,1.355c3.45,2.305,6.923,4.58,10.294,7a11.462,11.462,0,0,1,5.021,9.654c.049,14.9.026,29.791.021,44.687,0,1.414-.484,1.806-2.136,1.806q-21.143,0-42.287,0c-1.333,0-2.667,0-4,0-1.707-.008-2.1-.391-2.1-2.072q-.007-7.543,0-15.086V218.4a31.45,31.45,0,0,1-3.325,1.952c-1.554.676-1.972,1.724-1.915,3.373.131,3.805.048,7.618.038,11.427,0,1.535-.425,1.943-1.985,1.952-1.943.01-3.886.016-5.829,0-1.388-.013-1.834-.47-1.842-1.87-.012-2.21.009-4.419-.009-6.629-.008-.969.32-1.662,1.367-1.753.892-.078,1.427.6,1.437,1.778.015,1.819,0,3.638,0,5.53h4.056v-1.2c0-3.619.041-7.239-.018-10.857a3.571,3.571,0,0,1,1.97-3.443c2.144-1.232,4.245-2.539,6.379-3.791,1.451-.852,2.456-.278,2.47,1.408.018,2.169,0,4.337,0,6.755,1.355-.538,2.579-.995,3.769-1.527.177-.079.273-.512.275-.783.019-2.666.07-5.335-.007-8a3.825,3.825,0,0,0-6.114-3.184c-1.723,1.121-3.437,2.26-5.094,3.475a4.872,4.872,0,0,1-3.377,1.054c-1.362-.095-2.736-.021-4.315-.021,0,.85-.013,1.632,0,2.413.02.96-.443,1.6-1.379,1.611s-1.425-.609-1.424-1.572c.007-5.791-.052-11.582.045-17.371.042-2.539,1.55-4.3,3.843-5.55a6.8,6.8,0,0,1-3.391-4.92,8.058,8.058,0,0,1,.991-5.613,6.754,6.754,0,0,1,8.037-2.6C2773.587,181.731,2774.932,184.9,2774.088,190.148Zm49.042,18.378h-1.2c-3.923,0-7.846-.028-11.767.029a3.339,3.339,0,0,0-1.846.633c-4.156,3.15-8.261,6.366-12.4,9.534a8.572,8.572,0,0,1-1.962,1.126q-7.292,2.956-14.616,5.833a1.387,1.387,0,0,0-1.093,1.553c.074,1.9.09,3.811,0,5.71-.054,1.1.351,1.314,1.36,1.312q21.136-.044,42.272,0c1.032,0,1.351-.256,1.344-1.326-.046-7.731-.024-15.462-.027-23.192C2823.188,209.369,2823.153,209,2823.13,208.526Zm-11.8-2.979c.025-.245.068-.465.068-.686q0-5.2,0-10.393a5.052,5.052,0,0,0-2.322-4.336c-1.5-1.046-3.042-2.024-4.523-3.09a1.59,1.59,0,0,0-1.771-.145c-3.042,1.294-6.091,2.575-9.175,3.764-1.643.633-3.176,1.7-5.079,1.5-.124-.013-.28.2-.41.326a24.7,24.7,0,0,1-2.4,2.214c-3.292,2.328-6.639,4.578-9.956,6.871-.332.23-.838.537-.857.834-.089,1.448-.04,2.905-.04,4.464.516-.211.828-.343,1.142-.466a6.672,6.672,0,0,1,7.911,2.346,6.889,6.889,0,0,1,1.213,4.195c-.034,2.382-.009,4.765-.009,7.358,2.084-.837,4-1.533,5.856-2.375a23,23,0,0,0,4.162-2.27q5.329-3.926,10.484-8.086c1.563-1.257,3.108-2.3,5.232-1.935A1.542,1.542,0,0,0,2811.333,205.547Zm-47.929-.572c0,1.789.008,3.578,0,5.367,0,.514.058.867.719.882,2.546.056,5.086.259,7.154-1.769a1.967,1.967,0,0,0,.773-1.6c-.044-1.94.029-3.884-.033-5.823a2.282,2.282,0,0,1,1.144-2.168c3.876-2.621,7.72-5.288,11.577-7.938.619-.425,1.24-.874.8-1.749s-1.189-.637-1.888-.388q-8.641,3.081-17.277,6.177a3.893,3.893,0,0,0-2.959,4.212C2763.394,201.777,2763.4,203.376,2763.4,204.975Zm53.768-23.173c-2.65-1.793-5.155-3.512-7.686-5.191a5.793,5.793,0,0,0-7.116.167c-1.17.851-2.311,1.741-3.466,2.612q-5.062,3.816-10.122,7.633c-.9.679-1.084,1.674-.335,2.032a2.218,2.218,0,0,0,1.592-.042q6.411-2.553,12.778-5.215a2.29,2.29,0,0,1,2.444.268c1.4.993,2.841,1.914,4.242,2.9a.909.909,0,0,0,1.3-.015C2812.856,185.257,2814.942,183.6,2817.173,181.8Zm-2.843,23.856a19.192,19.192,0,0,1,1.953.012c.961.1,1.228-.275,1.212-1.219-.055-3.123-.024-6.247-.019-9.37,0-1.419.435-2.062,1.374-2.077.963-.016,1.423.631,1.427,2.028.005,1.447,0,2.895,0,4.342v6.2h2.912V204.26c0-3.314.015-6.628-.007-9.942a44.133,44.133,0,0,0-.167-4.789,8.791,8.791,0,0,0-3.416-6l-7.119,5.738c1.637,2.723,1.849,3.5,1.849,6.608C2814.33,199.07,2814.33,202.264,2814.33,205.658Zm-42.746-18.481c0-2.568-1.545-4.305-3.847-4.314-2.283-.009-3.914,1.771-3.918,4.278,0,2.526,1.6,4.307,3.882,4.317C2770,191.468,2771.58,189.728,2771.584,187.177Zm30.432-15.812a4.788,4.788,0,0,0-4.427-4.533,3.792,3.792,0,0,0-3.866,3.8,4.774,4.774,0,0,0,4.426,4.529A3.786,3.786,0,0,0,2802.016,171.365Z" transform="translate(0 0)" fill="#fff"/>
        <path id="Path_883397" data-name="Path 883397" d="M2761.894,417.5a1.309,1.309,0,0,1-1.167-1.452,1.323,1.323,0,0,1,1.54-1.288,1.289,1.289,0,0,1,1.21,1.5A1.365,1.365,0,0,1,2761.894,417.5Z" transform="translate(-0.105 -193.448)" fill="#fff"/>
        <path id="Path_883398" data-name="Path 883398" d="M2993.163,386.867c-.747,0-1.352.046-1.947-.011a1.379,1.379,0,0,1-1.4-1.383,1.328,1.328,0,0,1,1.342-1.424,26.3,26.3,0,0,1,3.419-.01,1.366,1.366,0,0,1,1.379,1.509c0,2.245.009,4.49,0,6.735a1.3,1.3,0,0,1-1.367,1.487c-.987.009-1.42-.6-1.423-1.545C2993.159,390.517,2993.163,388.809,2993.163,386.867Z" transform="translate(-176.828 -169.724)" fill="#fff"/>
        <path id="Path_883399" data-name="Path 883399" d="M3005.934,438.951a1.384,1.384,0,0,1,1.386,1.393,1.341,1.341,0,0,1-1.443,1.412,1.3,1.3,0,0,1-1.311-1.425C3004.579,439.45,3005.133,439.068,3005.934,438.951Z" transform="translate(-188.206 -212.123)" fill="#fff"/>
      </g>
    </g>
  </g>
</svg>
