<svg xmlns="http://www.w3.org/2000/svg" xmlns:xlink="http://www.w3.org/1999/xlink" width="124.605" height="125.948" viewBox="0 0 124.605 125.948">
  <defs>
    <clipPath id="clip-path">
      <rect id="Rectangle_400938" data-name="Rectangle 400938" width="117.278" height="117.278" fill="none"/>
    </clipPath>
    <clipPath id="clip-path-2">
      <path id="Path_873460" data-name="Path 873460" d="M0,1.307A1.349,1.349,0,0,0,1.389,2.613,1.349,1.349,0,0,0,2.778,1.307,1.349,1.349,0,0,0,1.389,0,1.349,1.349,0,0,0,0,1.307" transform="translate(0)" fill="#34054d"/>
    </clipPath>
    <clipPath id="clip-path-3">
      <path id="Path_873466" data-name="Path 873466" d="M0,1.307A1.349,1.349,0,0,0,1.39,2.613,1.349,1.349,0,0,0,2.778,1.307,1.349,1.349,0,0,0,1.39,0,1.349,1.349,0,0,0,0,1.307" fill="#34054d"/>
    </clipPath>
    <clipPath id="clip-path-4">
      <path id="Path_873467" data-name="Path 873467" d="M0,1.306A1.349,1.349,0,0,0,1.389,2.612,1.349,1.349,0,0,0,2.778,1.306,1.349,1.349,0,0,0,1.389,0,1.349,1.349,0,0,0,0,1.306" transform="translate(0 0)" fill="#34054d"/>
    </clipPath>
    <clipPath id="clip-path-5">
      <path id="Path_873468" data-name="Path 873468" d="M0,1.306A1.349,1.349,0,0,0,1.39,2.612,1.349,1.349,0,0,0,2.778,1.306,1.349,1.349,0,0,0,1.39,0,1.349,1.349,0,0,0,0,1.306" transform="translate(0 0)" fill="#34054d"/>
    </clipPath>
    <clipPath id="clip-path-6">
      <path id="Path_873469" data-name="Path 873469" d="M0,1.306A1.349,1.349,0,0,0,1.389,2.612,1.349,1.349,0,0,0,2.777,1.306,1.349,1.349,0,0,0,1.389,0,1.349,1.349,0,0,0,0,1.306" transform="translate(0 0)" fill="#34054d"/>
    </clipPath>
    <clipPath id="clip-path-9">
      <path id="Path_873473" data-name="Path 873473" d="M0,1.306A1.349,1.349,0,0,0,1.39,2.612,1.348,1.348,0,0,0,2.778,1.306,1.349,1.349,0,0,0,1.39,0,1.349,1.349,0,0,0,0,1.306" transform="translate(0 0)" fill="#34054d"/>
    </clipPath>
    <clipPath id="clip-path-22">
      <rect id="Rectangle_401492" data-name="Rectangle 401492" width="63.051" height="63.052" transform="translate(-0.424 0.013)" fill="#34054d" stroke="#707070" stroke-width="1"/>
    </clipPath>
  </defs>
  <g id="Group_1102667" data-name="Group 1102667" transform="translate(23060.281 3818.28)">
    <g id="Group_1100237" data-name="Group 1100237" transform="translate(-23054.037 -3797.84)">
      <g id="Group_1099505" data-name="Group 1099505" transform="translate(1.808 8.418)">
        <g id="Group_1099504" data-name="Group 1099504" transform="translate(0)" clip-path="url(#clip-path-2)">
          <rect id="Rectangle_401140" data-name="Rectangle 401140" width="2.777" height="2.613" transform="translate(0)" fill="#34054d"/>
        </g>
      </g>
      <g id="Group_1099517" data-name="Group 1099517" transform="translate(37.056 8.418)">
        <g id="Group_1099516" data-name="Group 1099516" transform="translate(0)" clip-path="url(#clip-path-3)">
          <rect id="Rectangle_401146" data-name="Rectangle 401146" width="2.778" height="2.613" transform="translate(0 0)" fill="#34054d"/>
        </g>
      </g>
      <g id="Group_1099519" data-name="Group 1099519" transform="translate(30.194 8.418)">
        <g id="Group_1099518" data-name="Group 1099518" transform="translate(0 0)" clip-path="url(#clip-path-4)">
          <rect id="Rectangle_401147" data-name="Rectangle 401147" width="2.778" height="2.612" transform="translate(0 0)" fill="#34054d"/>
        </g>
      </g>
      <g id="Group_1099521" data-name="Group 1099521" transform="translate(23.332 8.418)">
        <g id="Group_1099520" data-name="Group 1099520" transform="translate(0 0)" clip-path="url(#clip-path-5)">
          <rect id="Rectangle_401148" data-name="Rectangle 401148" width="2.778" height="2.612" transform="translate(0 0)" fill="#34054d"/>
        </g>
      </g>
      <g id="Group_1099523" data-name="Group 1099523" transform="translate(16.47 8.418)">
        <g id="Group_1099522" data-name="Group 1099522" transform="translate(0 0)" clip-path="url(#clip-path-6)">
          <rect id="Rectangle_401149" data-name="Rectangle 401149" width="2.777" height="2.612" transform="translate(0 0)" fill="#34054d"/>
        </g>
      </g>
      <g id="Group_1099525" data-name="Group 1099525" transform="translate(34.311 0)">
        <g id="Group_1099524" data-name="Group 1099524" clip-path="url(#clip-path-4)">
          <rect id="Rectangle_401150" data-name="Rectangle 401150" width="2.778" height="2.612" transform="translate(0 0)" fill="#34054d"/>
        </g>
      </g>
      <g id="Group_1099529" data-name="Group 1099529" transform="translate(27.448 0)">
        <g id="Group_1099528" data-name="Group 1099528" transform="translate(0)" clip-path="url(#clip-path-5)">
          <rect id="Rectangle_401152" data-name="Rectangle 401152" width="2.778" height="2.612" transform="translate(0 0)" fill="#34054d"/>
        </g>
      </g>
      <g id="Group_1099531" data-name="Group 1099531" transform="translate(13.724 0)">
        <g id="Group_1099530" data-name="Group 1099530" transform="translate(0)" clip-path="url(#clip-path-9)">
          <rect id="Rectangle_401153" data-name="Rectangle 401153" width="2.777" height="2.612" transform="translate(0 0)" fill="#34054d"/>
        </g>
      </g>
      <g id="Group_1099533" data-name="Group 1099533" transform="translate(6.862 0)">
        <g id="Group_1099532" data-name="Group 1099532" clip-path="url(#clip-path-4)">
          <rect id="Rectangle_401154" data-name="Rectangle 401154" width="2.778" height="2.612" transform="translate(0 0)" fill="#34054d"/>
        </g>
      </g>
      <g id="Group_1099535" data-name="Group 1099535" transform="translate(0 0)">
        <g id="Group_1099534" data-name="Group 1099534" transform="translate(0)" clip-path="url(#clip-path-5)">
          <rect id="Rectangle_401155" data-name="Rectangle 401155" width="2.778" height="2.612" transform="translate(0 0)" fill="#34054d"/>
        </g>
      </g>
    </g>
    <g id="Group_1100238" data-name="Group 1100238" transform="translate(-22980.652 -3724.455)">
      <g id="Group_1099505-2" data-name="Group 1099505" transform="translate(1.808 8.418)">
        <g id="Group_1099504-2" data-name="Group 1099504" transform="translate(0)" clip-path="url(#clip-path-2)">
          <rect id="Rectangle_401140-2" data-name="Rectangle 401140" width="2.777" height="2.613" transform="translate(0)" fill="#34054d"/>
        </g>
      </g>
      <g id="Group_1099517-2" data-name="Group 1099517" transform="translate(37.056 8.418)">
        <g id="Group_1099516-2" data-name="Group 1099516" transform="translate(0)" clip-path="url(#clip-path-3)">
          <rect id="Rectangle_401146-2" data-name="Rectangle 401146" width="2.778" height="2.613" transform="translate(0 0)" fill="#34054d"/>
        </g>
      </g>
      <g id="Group_1099519-2" data-name="Group 1099519" transform="translate(30.194 8.418)">
        <g id="Group_1099518-2" data-name="Group 1099518" transform="translate(0 0)" clip-path="url(#clip-path-4)">
          <rect id="Rectangle_401147-2" data-name="Rectangle 401147" width="2.778" height="2.612" transform="translate(0 0)" fill="#34054d"/>
        </g>
      </g>
      <g id="Group_1099521-2" data-name="Group 1099521" transform="translate(23.332 8.418)">
        <g id="Group_1099520-2" data-name="Group 1099520" transform="translate(0 0)" clip-path="url(#clip-path-5)">
          <rect id="Rectangle_401148-2" data-name="Rectangle 401148" width="2.778" height="2.612" transform="translate(0 0)" fill="#34054d"/>
        </g>
      </g>
      <g id="Group_1099523-2" data-name="Group 1099523" transform="translate(16.47 8.418)">
        <g id="Group_1099522-2" data-name="Group 1099522" transform="translate(0 0)" clip-path="url(#clip-path-6)">
          <rect id="Rectangle_401149-2" data-name="Rectangle 401149" width="2.777" height="2.612" transform="translate(0 0)" fill="#34054d"/>
        </g>
      </g>
      <g id="Group_1099525-2" data-name="Group 1099525" transform="translate(34.311 0)">
        <g id="Group_1099524-2" data-name="Group 1099524" clip-path="url(#clip-path-4)">
          <rect id="Rectangle_401150-2" data-name="Rectangle 401150" width="2.778" height="2.612" transform="translate(0 0)" fill="#34054d"/>
        </g>
      </g>
      <g id="Group_1099529-2" data-name="Group 1099529" transform="translate(27.448 0)">
        <g id="Group_1099528-2" data-name="Group 1099528" transform="translate(0)" clip-path="url(#clip-path-5)">
          <rect id="Rectangle_401152-2" data-name="Rectangle 401152" width="2.778" height="2.612" transform="translate(0 0)" fill="#34054d"/>
        </g>
      </g>
      <g id="Group_1099531-2" data-name="Group 1099531" transform="translate(13.724 0)">
        <g id="Group_1099530-2" data-name="Group 1099530" transform="translate(0)" clip-path="url(#clip-path-9)">
          <rect id="Rectangle_401153-2" data-name="Rectangle 401153" width="2.777" height="2.612" transform="translate(0 0)" fill="#34054d"/>
        </g>
      </g>
      <g id="Group_1099533-2" data-name="Group 1099533" transform="translate(6.862 0)">
        <g id="Group_1099532-2" data-name="Group 1099532" clip-path="url(#clip-path-4)">
          <rect id="Rectangle_401154-2" data-name="Rectangle 401154" width="2.778" height="2.612" transform="translate(0 0)" fill="#34054d"/>
        </g>
      </g>
      <g id="Group_1099535-2" data-name="Group 1099535" transform="translate(0 0)">
        <g id="Group_1099534-2" data-name="Group 1099534" transform="translate(0)" clip-path="url(#clip-path-5)">
          <rect id="Rectangle_401155-2" data-name="Rectangle 401155" width="2.778" height="2.612" transform="translate(0 0)" fill="#34054d"/>
        </g>
      </g>
    </g>
    <path id="Path_873784" data-name="Path 873784" d="M83.8,18.565A18.62,18.62,0,0,0,65.231,0H18.566A18.62,18.62,0,0,0,0,18.566V65.231A18.62,18.62,0,0,0,18.565,83.8H65.231A18.62,18.62,0,0,0,83.8,65.23Z" transform="translate(-22994.928 -3692.332) rotate(-135)" fill="#4b0d6b"/>
    <path id="Path_873785" data-name="Path 873785" d="M86.438,19.15A19.206,19.206,0,0,0,67.287,0H19.151A19.207,19.207,0,0,0,0,19.151V67.287a19.206,19.206,0,0,0,19.15,19.15H67.287A19.207,19.207,0,0,0,86.437,67.286Z" transform="translate(-22999.16 -3696.04) rotate(-135)" fill="#d7c9fe"/>
    <g id="Mask_Group_1098697" data-name="Mask Group 1098697" transform="translate(-23031.146 -3787.541)" clip-path="url(#clip-path-22)">
      <g id="Group_1109582" data-name="Group 1109582" transform="translate(-2389.774 -142.355)">
        <path id="Path_883379" data-name="Path 883379" d="M2449.5,163.829a21.759,21.759,0,0,0-41.244-4.9c-.027.057-.052.114-.076.171-.151.348-.194.453-.529.445-1.732-.041-3.493-.046-5.2-.051-.846,0-1.692,0-2.538-.011a.792.792,0,0,1-.191-.039q0-.5,0-1c0-1.369-.008-2.663.028-3.972a.907.907,0,0,1,.373-.379,3.322,3.322,0,1,0-4.579-3.845,3.234,3.234,0,0,0,1.878,3.816c.338.15.371.259.368.662-.007.733,0,1.476,0,2.2,0,1,.006,2.034-.014,3.049a1.436,1.436,0,0,0,.342,1.1,1.5,1.5,0,0,0,1.111.359c1.5-.009,3.024,0,4.5.016q.992.009,1.984.015c.451,0,.9,0,1.348,0h.14l-.935,5.3h-1.221c-2.145,0-4.363,0-6.553-.023a1.04,1.04,0,0,1-.246-.315,3.311,3.311,0,1,0-3.835,4.515,3.252,3.252,0,0,0,3.792-1.915c.142-.312.242-.352.577-.344,1.414.035,2.851.045,4.24.054l.251,0c.791.005,1.581,0,2.338,0h.644l.959,5.424h-.584q-1.062.007-2.124.016c-1.711.014-3.48.029-5.219.02a1.572,1.572,0,0,0-1.166.372,1.472,1.472,0,0,0-.344,1.135c.024.926.02,1.872.016,2.786,0,.743-.006,1.511.006,2.268.008.5-.056.679-.493.879a3.149,3.149,0,0,0-1.66,1.781,3.27,3.27,0,0,0,.11,2.527,3.3,3.3,0,0,0,6.227-.613,3.3,3.3,0,0,0-1.635-3.655l-.167-.092a3.093,3.093,0,0,1-.407-.247c-.043-1.4-.039-2.8-.035-4.274q0-.475,0-.957h1.23c2.381,0,4.628,0,6.892.014a.4.4,0,0,1,.178.129c.762,1.358,1.5,2.706,2.281,4.133l.516.942-1.842,2.08a1.258,1.258,0,0,0-.807-.292,1.408,1.408,0,0,0-1,.571c-3.385,3.879-7.037,8.022-11.162,12.667a1.48,1.48,0,0,0-.454,1.044,1.529,1.529,0,0,0,.613.994c1.3,1.116,2.61,2.273,3.875,3.391q.821.726,1.644,1.45c.481.423.816.639,1.132.639.352,0,.681-.266,1.162-.812q1.491-1.69,2.979-3.381c2.558-2.9,5.2-5.907,7.819-8.845a1.887,1.887,0,0,0,.637-1.354,1.278,1.278,0,0,0-.369-.759l1.927-2.178.373.2.331.179a21.339,21.339,0,0,0,13.792,2.372,21.684,21.684,0,0,0,18.013-25.474Zm-1.527,4.178a19.8,19.8,0,0,1-19.822,19.637h-.1a19.892,19.892,0,0,1-19.753-19.959,19.789,19.789,0,0,1,19.758-19.679h.079a19.851,19.851,0,0,1,19.834,20Zm-34.4,19.47-3.128-2.764,1.74-1.98,3.135,2.76Zm-.4,2.236-10.44,11.856-4.9-4.31,10.441-11.857Zm-14.422-37.268h0a1.332,1.332,0,0,1-.946-.405,1.4,1.4,0,0,1-.411-.986,1.324,1.324,0,0,1,.393-.949,1.37,1.37,0,0,1,.968-.379h.029a1.334,1.334,0,0,1,.956.4,1.394,1.394,0,0,1-.985,2.321Zm-2.215,15.321a1.293,1.293,0,0,1-1.334,1.3,1.436,1.436,0,0,1-1.005-.419,1.3,1.3,0,0,1-.4-.928,1.352,1.352,0,0,1,.418-.946,1.4,1.4,0,0,1,.971-.412h.017a1.336,1.336,0,0,1,.955.412A1.361,1.361,0,0,1,2396.541,167.767Zm2.231,18.153h-.019a1.362,1.362,0,0,1-.969-.385,1.327,1.327,0,0,1-.388-.957,1.4,1.4,0,0,1,.424-.985,1.325,1.325,0,0,1,.93-.4h.017a1.374,1.374,0,0,1,1.327,1.338,1.355,1.355,0,0,1-.358.99,1.339,1.339,0,0,1-.963.393Z" transform="translate(0)" fill="#34054d"/>
        <path id="Path_883380" data-name="Path 883380" d="M2503.336,163a18.537,18.537,0,1,0-.146,37.074h.054a18.537,18.537,0,0,0,.092-37.074Zm-.11,35.105h-.019a16.61,16.61,0,0,1-16.548-16.625,16.517,16.517,0,0,1,16.6-16.507h.061a16.614,16.614,0,0,1,16.535,16.573,16.593,16.593,0,0,1-16.63,16.559Z" transform="translate(-75.12 -13.717)" fill="#34054d"/>
        <path id="Path_883381" data-name="Path 883381" d="M2537.75,221.963l.038-.427-.429.013c-.077,0-.157,0-.236-.006a1.677,1.677,0,0,0-.742.08,1.712,1.712,0,0,0-.585.467c-.055.059-.108.118-.166.172l-3.117,2.911-3.454-3.155c-.651-.595-1.012-.922-1.448-.859s-.684.472-1.132,1.215l-3,4.961c-.1-.138-.186-.261-.271-.387q-.716-1.069-1.43-2.14c-1.25-1.873-2.542-3.809-3.828-5.705a3.149,3.149,0,0,0-.647-.648c-.093-.076-.187-.152-.273-.232l-.288-.266-.258.294c-.073.084-.156.166-.245.253a2.7,2.7,0,0,0-.576.723c-1.709,3.528-3.428,7.123-5.091,10.6l-1.014,2.118c-.025.055-.056.11-.086.165a1.5,1.5,0,0,0-.238.687,1.139,1.139,0,0,0,.5.958.721.721,0,0,0,.337.074,1.169,1.169,0,0,0,.746-.275,2.007,2.007,0,0,0,.431-.689c.024-.055.048-.109.073-.162q1.419-2.952,2.835-5.906,1.284-2.675,2.568-5.349c.063-.131.129-.26.2-.4.112.157.212.3.309.446q.948,1.422,1.894,2.846,1.64,2.469,3.287,4.935c.349.522.669.87,1.094.87h.017c.436-.01.75-.38,1.085-.934q.831-1.368,1.656-2.74.749-1.243,1.5-2.483c.065-.107.139-.211.222-.324l.642.585c.685.625,1.346,1.227,2,1.833.183.168.343.32.485.454,1.272,1.2,1.5,1.2,2.755.018.155-.147.333-.315.539-.5,1.04-.956,2.115-1.943,3.126-2.967a1.1,1.1,0,0,0,.207-.856A2.362,2.362,0,0,1,2537.75,221.963Z" transform="translate(-94.962 -58.186)" fill="#34054d"/>
      </g>
    </g>
  </g>
</svg>
