<svg xmlns="http://www.w3.org/2000/svg" width="107" height="107" viewBox="0 0 107 107">
  <g id="Group_1110137" data-name="Group 1110137" transform="translate(-285 -4710.001)">
    <g id="Grupo_156312" data-name="Grupo 156312" transform="translate(-3.668 261.564)">
      <path id="Elipse_5845" data-name="Elipse 5845" d="M53.5,0A53.5,53.5,0,1,1,0,53.5,53.5,53.5,0,0,1,53.5,0Z" transform="translate(288.668 4448.437)" fill="#065564"/>
    </g>
    <g id="Group_1098917" data-name="Group 1098917" transform="translate(-101.527 -1308.486)">
      <path id="Path_873216" data-name="Path 873216" d="M0,0H63.184V63.186H0Z" transform="translate(408.527 6040.213)" fill="none"/>
      <g id="Group_1109587" data-name="Group 1109587" transform="translate(-1973.274 5871.497)">
        <path id="Path_883385" data-name="Path 883385" d="M2421.871,219.278a29.073,29.073,0,0,1-14.1-4.147c-.7-.422-1.1-.383-1.581.211a9.855,9.855,0,0,1-1.177,1.184,2.965,2.965,0,0,0-1.253,2.9,3.906,3.906,0,0,1-1.122,2.744q-5.6,5.818-11.4,11.438a7.876,7.876,0,1,1-11.132-11.144c3.748-3.861,7.589-7.633,11.4-11.429a3.8,3.8,0,0,1,3.673-1.077,1.24,1.24,0,0,0,.954-.26c.926-.855,2.275-1.653,2.538-2.7.225-.9-.794-2.128-1.31-3.189a27.223,27.223,0,1,1,31.385,14.33C2426.515,218.728,2424.167,218.906,2421.871,219.278Zm24.382-27.415a24.429,24.429,0,1,0-24.409,24.435A24.353,24.353,0,0,0,2446.252,191.863Zm-51.26,33.809-6.972-7.012c-2.077,2.035-4.315,4.046-6.332,6.259a5.049,5.049,0,0,0,7.094,7.1C2391,230,2392.987,227.742,2394.992,225.672Zm2.417-2.115c1.086-1.1,2.25-2.189,3.276-3.394a1.477,1.477,0,0,0-.021-1.435c-1.823-1.946-3.713-3.83-5.65-5.663a1.416,1.416,0,0,0-1.355-.146c-1.246,1.08-2.383,2.286-3.456,3.347Zm4.215-7.983,2.668-2.473-3.57-3.6-2.632,2.505Z" fill="#fff"/>
        <path id="Path_883386" data-name="Path 883386" d="M2484.612,215.872a20.3,20.3,0,1,1,20.241,20.325A20.25,20.25,0,0,1,2484.612,215.872Zm37.775.086a17.512,17.512,0,0,0-35.022-.187,17.512,17.512,0,1,0,35.022.187Z" transform="translate(-83.053 -24.053)" fill="#fff"/>
        <path id="Path_883387" data-name="Path 883387" d="M2525.71,262.117a11.5,11.5,0,0,1-7.447-2.49c-1.961-1.52-3.832-3.165-5.66-4.844a3.283,3.283,0,0,1-.04-4.868,65.416,65.416,0,0,1,5.854-4.954,12.248,12.248,0,0,1,14.917.087,67.168,67.168,0,0,1,5.664,4.838,3.349,3.349,0,0,1-.109,5.035c-1.593,1.444-3.212,2.865-4.885,4.214A12.426,12.426,0,0,1,2525.71,262.117Zm.053-2.745a9.819,9.819,0,0,0,6.073-2.1c1.706-1.364,3.329-2.833,4.99-4.254.552-.472.52-.923-.017-1.386-1.573-1.354-3.079-2.794-4.722-4.055a9.7,9.7,0,0,0-12.511-.03c-1.678,1.275-3.206,2.747-4.813,4.117-.568.484-.513.913.021,1.371,1.573,1.353,3.106,2.755,4.717,4.062A9.936,9.936,0,0,0,2525.763,259.372Z" transform="translate(-103.955 -60.472)" fill="#fff"/>
        <path id="Path_883388" data-name="Path 883388" d="M2561.043,276.248a4.2,4.2,0,0,1-.022-8.4,4.283,4.283,0,0,1,4.249,4.258A4.231,4.231,0,0,1,2561.043,276.248Zm1.4-4.02a1.4,1.4,0,0,0-1.389-1.551,1.342,1.342,0,0,0-1.363,1.415,1.384,1.384,0,0,0,2.752.137Z" transform="translate(-139.219 -80.193)" fill="#fff"/>
      </g>
    </g>
  </g>
</svg>
