<svg xmlns="http://www.w3.org/2000/svg" width="295" height="211.584" viewBox="0 0 295 211.584">
  <g id="Group_1110123" data-name="Group 1110123" transform="translate(-639.901 -331.342)">
    <g id="Group_1107918" data-name="Group 1107918" transform="translate(698.03 331.342)">
      <g id="Group_1107874" data-name="Group 1107874" transform="translate(0 0)">
        <rect id="Rectangle_404257" data-name="Rectangle 404257" width="199.691" height="132.209" rx="54.501" transform="translate(0.108 0.455)" fill="#d8e0f5"/>
        <rect id="Rectangle_404258" data-name="Rectangle 404258" width="179.541" height="100.947" rx="40.84" transform="translate(9.624 24.34)" fill="#e4e9f7"/>
        <path id="Path_882477" data-name="Path 882477" d="M1567.018,331.342H1379.923c-3.479,0-6.3,3.844-6.3,8.585v12.065h199.691V339.927C1573.316,335.186,1570.5,331.342,1567.018,331.342Z" transform="translate(-1373.625 -331.342)" fill="#4b0d6b"/>
        <circle id="Ellipse_11820" data-name="Ellipse 11820" cx="3.114" cy="3.114" r="3.114" transform="translate(161.906 8.394) rotate(-45)" fill="#f9d274"/>
        <circle id="Ellipse_11821" data-name="Ellipse 11821" cx="3.114" cy="3.114" r="3.114" transform="translate(173.685 6.749) rotate(-23.08)" fill="#e5685e"/>
        <circle id="Ellipse_11822" data-name="Ellipse 11822" cx="3.114" cy="3.114" r="3.114" transform="translate(185.146 6.749) rotate(-23.08)" fill="#6c6c96"/>
        <g id="Group_1107873" data-name="Group 1107873" transform="translate(69.838 5.199)">
          <path id="Path_882478" data-name="Path 882478" d="M2256.292,407.83a1.053,1.053,0,0,1-1-1.627l3.617-7.785a1.987,1.987,0,0,1,.639-.828,1.519,1.519,0,0,1,.886-.261,1.5,1.5,0,0,1,.872.261,1.988,1.988,0,0,1,.639.828l3.617,7.785a1.149,1.149,0,0,1,.029,1.169,1.071,1.071,0,0,1-.959.458,1.355,1.355,0,0,1-.893-.262,2.21,2.21,0,0,1-.559-.842l-.465-1.1h-4.575l-.465,1.1a2.686,2.686,0,0,1-.538.842A1.185,1.185,0,0,1,2256.292,407.83Zm4.111-7.582-1.395,3.326h2.818l-1.395-3.326Z" transform="translate(-2255.131 -397.3)" fill="#fff"/>
          <path id="Path_882479" data-name="Path 882479" d="M2404.964,407.83a1.337,1.337,0,0,1-.988-.349,1.378,1.378,0,0,1-.348-1.017v-7.771a1.379,1.379,0,0,1,.348-1.017,1.574,1.574,0,0,1,1.976,0,1.378,1.378,0,0,1,.349,1.017v7.771a1.4,1.4,0,0,1-.342,1.017A1.331,1.331,0,0,1,2404.964,407.83Z" transform="translate(-2391.863 -397.3)" fill="#fff"/>
          <path id="Path_882480" data-name="Path 882480" d="M2515.391,407.522a6.1,6.1,0,0,1-2.919-.654,4.48,4.48,0,0,1-1.866-1.845,6.323,6.323,0,0,1,0-5.57,4.493,4.493,0,0,1,1.866-1.837,6.1,6.1,0,0,1,2.919-.654,6.68,6.68,0,0,1,1.387.153,4.579,4.579,0,0,1,1.271.457,1.254,1.254,0,0,1,.567.552,1.21,1.21,0,0,1,.116.683,1.273,1.273,0,0,1-.254.625,1.016,1.016,0,0,1-.53.37.936.936,0,0,1-.7-.094,3.946,3.946,0,0,0-1.758-.421,2.588,2.588,0,0,0-2.033.763,3.863,3.863,0,0,0,0,4.386,2.588,2.588,0,0,0,2.033.763,3.951,3.951,0,0,0,1.67-.392,1.2,1.2,0,0,1,.777-.1,1.046,1.046,0,0,1,.56.349,1.2,1.2,0,0,1,.269.6,1.214,1.214,0,0,1-.094.675,1.112,1.112,0,0,1-.537.537,4.369,4.369,0,0,1-1.257.479A6.54,6.54,0,0,1,2515.391,407.522Z" transform="translate(-2489.77 -396.963)" fill="#fff"/>
          <path id="Path_882481" data-name="Path 882481" d="M2640.727,407.83a1.336,1.336,0,0,1-.988-.349,1.377,1.377,0,0,1-.349-1.017v-7.771a1.378,1.378,0,0,1,.349-1.017,1.573,1.573,0,0,1,1.975,0,1.378,1.378,0,0,1,.349,1.017v2.716h4.227v-2.716a1.378,1.378,0,0,1,.348-1.017,1.336,1.336,0,0,1,.988-.349,1.31,1.31,0,0,1,.98.349,1.4,1.4,0,0,1,.342,1.017v7.771a1.4,1.4,0,0,1-.342,1.017,1.31,1.31,0,0,1-.98.349,1.331,1.331,0,0,1-.995-.349,1.394,1.394,0,0,1-.341-1.017V403.6h-4.227v2.861a1.4,1.4,0,0,1-.341,1.017A1.332,1.332,0,0,1,2640.727,407.83Z" transform="translate(-2608.948 -397.3)" fill="#fff"/>
          <path id="Path_882482" data-name="Path 882482" d="M2776.036,407.83a1.053,1.053,0,0,1-1-1.627l3.617-7.785a1.986,1.986,0,0,1,.639-.828,1.516,1.516,0,0,1,.886-.261,1.494,1.494,0,0,1,.872.261,1.99,1.99,0,0,1,.639.828l3.617,7.785a1.149,1.149,0,0,1,.029,1.169,1.071,1.071,0,0,1-.959.458,1.354,1.354,0,0,1-.893-.262,2.207,2.207,0,0,1-.56-.842l-.464-1.1h-4.576l-.465,1.1a2.686,2.686,0,0,1-.537.842A1.187,1.187,0,0,1,2776.036,407.83Zm4.11-7.582-1.395,3.326h2.818l-1.395-3.326Z" transform="translate(-2733.697 -397.3)" fill="#fff"/>
          <path id="Path_882483" data-name="Path 882483" d="M2901.326,409.35a1.336,1.336,0,0,1-.988-.349,1.356,1.356,0,0,1-.349-1v-6.841h-2.28a1.089,1.089,0,1,1,0-2.179h7.233a1.089,1.089,0,1,1,0,2.179h-2.281V408a1.376,1.376,0,0,1-.341,1A1.332,1.332,0,0,1,2901.326,409.35Z" transform="translate(-2845.784 -398.819)" fill="#fff"/>
        </g>
      </g>
      <g id="Group_1107879" data-name="Group 1107879" transform="translate(15.287 27.789)">
        <circle id="Ellipse_11823" data-name="Ellipse 11823" cx="16.061" cy="16.061" r="16.061" fill="#bfa9fe"/>
        <rect id="Rectangle_404259" data-name="Rectangle 404259" width="60.958" height="18.251" rx="9.125" transform="translate(36.867 1.825)" fill="#6ceaff"/>
        <path id="Path_882484" data-name="Path 882484" d="M1684.253,737.913s1.028-5.551,1.028-7.2-.822-3.7-2.673-2.878c-1.1.487-1.645-3.289-5.756-2.673s-2.056,2.878-3.084,2.673-3.906-.822-4.729,1.85.617,8.223.617,8.223l15-1.781Z" transform="translate(-1660.688 -721.691)" fill="#772225"/>
        <path id="Path_882485" data-name="Path 882485" d="M1972.061,890.479l-6.95,3.941,5.84-7.3Z" transform="translate(-1933.537 -870.876)" fill="#cedb81"/>
        <rect id="Rectangle_404260" data-name="Rectangle 404260" width="13.426" height="17.475" rx="6.713" transform="translate(22.948 24.856) rotate(180)" fill="#f4a25e"/>
        <circle id="Ellipse_11824" data-name="Ellipse 11824" cx="2.056" cy="2.056" r="2.056" transform="matrix(0.479, -0.878, 0.878, 0.479, 20.158, 17.04)" fill="#f4a25e"/>
        <circle id="Ellipse_11825" data-name="Ellipse 11825" cx="2.056" cy="2.056" r="2.056" transform="translate(6.705 14.687) rotate(-13.134)" fill="#f4a25e"/>
        <path id="Path_882486" data-name="Path 882486" d="M1751.894,772.784s-.411,1.233-1.028.822.617-3.084-1.028-4.729-6.184-.822-6.792-2.878,8.026-.617,8.849,1.439,0,5.345,0,5.345Z" transform="translate(-1729.036 -758.433)" fill="#772225"/>
        <path id="Path_882487" data-name="Path 882487" d="M1681.294,776.7s1.091.411,1.091-.617,4.6-2.985,3.84-5.3-2.812-1.283-4.251.568S1680.615,775.876,1681.294,776.7Z" transform="translate(-1671.772 -762.532)" fill="#772225"/>
        <g id="Group_1107878" data-name="Group 1107878" transform="translate(40.791 6.308)">
          <g id="Group_1107875" data-name="Group 1107875">
            <rect id="Rectangle_404261" data-name="Rectangle 404261" width="53.11" height="0.528" fill="#fffdff"/>
          </g>
          <g id="Group_1107876" data-name="Group 1107876" transform="translate(0 4.38)">
            <rect id="Rectangle_404262" data-name="Rectangle 404262" width="53.11" height="0.528" fill="#fffdff"/>
          </g>
          <g id="Group_1107877" data-name="Group 1107877" transform="translate(0 8.758)">
            <rect id="Rectangle_404263" data-name="Rectangle 404263" width="53.11" height="0.528" fill="#fffdff"/>
          </g>
        </g>
      </g>
      <g id="Group_1107883" data-name="Group 1107883" transform="translate(16.317 77.981)">
        <circle id="Ellipse_11826" data-name="Ellipse 11826" cx="16.061" cy="16.061" r="16.061" fill="#bfa9fe"/>
        <rect id="Rectangle_404264" data-name="Rectangle 404264" width="60.958" height="18.251" rx="9.125" transform="translate(36.867 1.825)" fill="#6ceaff"/>
        <g id="Group_1107882" data-name="Group 1107882" transform="translate(40.791 8.625)">
          <g id="Group_1107880" data-name="Group 1107880">
            <rect id="Rectangle_404265" data-name="Rectangle 404265" width="53.11" height="0.528" fill="#fffdff"/>
          </g>
          <g id="Group_1107881" data-name="Group 1107881" transform="translate(0 4.38)">
            <rect id="Rectangle_404266" data-name="Rectangle 404266" width="53.11" height="0.528" fill="#fffdff"/>
          </g>
        </g>
        <path id="Path_882488" data-name="Path 882488" d="M1697.254,1371.448s1.028-5.551,1.028-7.2-.823-3.7-2.673-2.878c-1.1.487-1.645-3.289-5.756-2.673s-2.056,2.878-3.084,2.673-3.906-.822-4.729,1.85.617,8.223.617,8.223l15-1.781Z" transform="translate(-1673.689 -1355.226)" fill="#772225"/>
        <path id="Path_882489" data-name="Path 882489" d="M1985.062,1524.014l-6.95,3.941,5.84-7.3Z" transform="translate(-1946.537 -1504.412)" fill="#cedb81"/>
        <rect id="Rectangle_404267" data-name="Rectangle 404267" width="13.426" height="17.475" rx="6.713" transform="translate(22.948 24.856) rotate(180)" fill="#f4a25e"/>
        <circle id="Ellipse_11827" data-name="Ellipse 11827" cx="2.056" cy="2.056" r="2.056" transform="translate(20.892 14.166)" fill="#f4a25e"/>
        <circle id="Ellipse_11828" data-name="Ellipse 11828" cx="2.056" cy="2.056" r="2.056" transform="translate(6.989 13.651)" fill="#f4a25e"/>
        <path id="Path_882490" data-name="Path 882490" d="M1764.9,1406.319s-.411,1.234-1.028.822.617-3.084-1.028-4.729-6.184-.822-6.793-2.878,8.026-.617,8.849,1.439,0,5.345,0,5.345Z" transform="translate(-1742.037 -1391.968)" fill="#772225"/>
        <path id="Path_882491" data-name="Path 882491" d="M1692.67,1403.733s1.091.411,1.091-.617,4.6-2.985,3.84-5.3-2.812-1.283-4.251.568S1691.991,1402.911,1692.67,1403.733Z" transform="translate(-1683.277 -1390.082)" fill="#772225"/>
      </g>
      <g id="Group_1107886" data-name="Group 1107886" transform="translate(82.354 101.654)">
        <rect id="Rectangle_404268" data-name="Rectangle 404268" width="53.615" height="16.972" rx="8.486" transform="translate(53.615 20.197) rotate(180)" fill="#fff"/>
        <path id="Path_882492" data-name="Path 882492" d="M3075.814,1618.1l4.662-3.665-3.917,6.789Z" transform="translate(-3023.311 -1614.434)" fill="#fff"/>
        <g id="Group_1107885" data-name="Group 1107885" transform="translate(3.498 8.871)">
          <g id="Group_1107884" data-name="Group 1107884">
            <path id="Path_882493" data-name="Path 882493" d="M2458.593,1751.207a2.93,2.93,0,0,1-.609-.067,1.73,1.73,0,0,1-.569-.228.28.28,0,0,1-.14-.167.268.268,0,0,1,.013-.187.228.228,0,0,1,.335-.1,2.181,2.181,0,0,0,.5.2,1.958,1.958,0,0,0,.476.06.929.929,0,0,0,.536-.127.4.4,0,0,0,.181-.341.329.329,0,0,0-.12-.271.882.882,0,0,0-.362-.151l-.636-.127q-.843-.174-.844-.87a.872.872,0,0,1,.368-.736,1.574,1.574,0,0,1,.964-.275,1.809,1.809,0,0,1,1.038.294.258.258,0,0,1,.127.164.259.259,0,0,1-.164.3.262.262,0,0,1-.211-.027,1.666,1.666,0,0,0-.4-.177,1.423,1.423,0,0,0-.388-.057.9.9,0,0,0-.529.13.412.412,0,0,0-.181.351q0,.335.442.429l.636.127a1.342,1.342,0,0,1,.659.295.729.729,0,0,1,.224.562.853.853,0,0,1-.368.733A1.642,1.642,0,0,1,2458.593,1751.207Z" transform="translate(-2457.264 -1746.123)" fill="#221a18"/>
            <path id="Path_882494" data-name="Path 882494" d="M2499.829,1751.207a1.344,1.344,0,0,1-.609-.134,1.107,1.107,0,0,1-.425-.362.886.886,0,0,1-.157-.516.826.826,0,0,1,.185-.569,1.116,1.116,0,0,1,.609-.3,5.554,5.554,0,0,1,1.148-.094h.228v-.174a.777.777,0,0,0-.161-.549.711.711,0,0,0-.529-.167,1.973,1.973,0,0,0-.445.053,2.082,2.082,0,0,0-.479.181.256.256,0,0,1-.231.02.249.249,0,0,1-.124-.147.3.3,0,0,1,.007-.207.284.284,0,0,1,.167-.161,2.947,2.947,0,0,1,.582-.2,2.539,2.539,0,0,1,.542-.063,1.143,1.143,0,0,1,1.312,1.312v1.721q0,.342-.315.342t-.321-.342v-.248a.956.956,0,0,1-.375.442A1.118,1.118,0,0,1,2499.829,1751.207Zm.134-.482a.8.8,0,0,0,.6-.255.9.9,0,0,0,.241-.643v-.181h-.221a4.895,4.895,0,0,0-.767.047.763.763,0,0,0-.4.157.4.4,0,0,0-.117.3.528.528,0,0,0,.174.412A.692.692,0,0,0,2499.963,1750.725Z" transform="translate(-2495.359 -1746.123)" fill="#221a18"/>
            <path id="Path_882495" data-name="Path 882495" d="M2546.925,1734.477a.991.991,0,0,1-.787-.3,1.3,1.3,0,0,1-.265-.884v-3.3a.3.3,0,0,1,.335-.342.3.3,0,0,1,.342.342v3.26q0,.663.536.663a.775.775,0,0,0,.107-.007.655.655,0,0,1,.094-.007.114.114,0,0,1,.114.044.413.413,0,0,1,.033.2.28.28,0,0,1-.255.315q-.067.007-.13.01C2547.007,1734.476,2546.965,1734.477,2546.925,1734.477Z" transform="translate(-2538.854 -1729.393)" fill="#221a18"/>
            <path id="Path_882496" data-name="Path 882496" d="M2572.664,1751.362q-1.185,0-1.185-1.319v-1.714a.3.3,0,0,1,.335-.342.3.3,0,0,1,.341.342v1.72a.882.882,0,0,0,.161.582.636.636,0,0,0,.509.188.808.808,0,0,0,.619-.254.959.959,0,0,0,.238-.683v-1.553a.3.3,0,0,1,.342-.342.3.3,0,0,1,.334.342v2.678q0,.342-.328.342t-.328-.342v-.228a1.087,1.087,0,0,1-.429.435A1.241,1.241,0,0,1,2572.664,1751.362Z" transform="translate(-2562.43 -1746.279)" fill="#221a18"/>
            <path id="Path_882497" data-name="Path 882497" d="M2615.294,1739.923a1.215,1.215,0,0,1-.917-.315,1.265,1.265,0,0,1-.3-.91v-1.58h-.4q-.281,0-.281-.261t.281-.261h.4v-.69a.338.338,0,1,1,.676,0v.69h.783c.187,0,.281.087.281.261s-.094.261-.281.261h-.783v1.526a.82.82,0,0,0,.15.536.607.607,0,0,0,.492.181.8.8,0,0,0,.207-.023.973.973,0,0,1,.154-.03.157.157,0,0,1,.12.05.286.286,0,0,1,.047.191.468.468,0,0,1-.037.191.192.192,0,0,1-.13.11.935.935,0,0,1-.218.054A1.722,1.722,0,0,1,2615.294,1739.923Z" transform="translate(-2601.023 -1734.84)" fill="#221a18"/>
            <path id="Path_882498" data-name="Path 882498" d="M2648.537,1731.648a.269.269,0,0,1-.345.191.273.273,0,0,1-.161-.12.277.277,0,0,1-.017-.231l1.573-4.874a.261.261,0,0,1,.141-.177.3.3,0,0,1,.2-.013.275.275,0,0,1,.161.121.265.265,0,0,1,.017.224Z" transform="translate(-2632.887 -1726.41)" fill="#221a18"/>
            <path id="Path_882499" data-name="Path 882499" d="M2674.095,1751.207a1.7,1.7,0,0,1-.867-.211,1.446,1.446,0,0,1-.566-.6,1.936,1.936,0,0,1-.2-.907,1.671,1.671,0,0,1,.442-1.225,1.6,1.6,0,0,1,1.192-.448,1.872,1.872,0,0,1,.492.07,1.457,1.457,0,0,1,.479.231.244.244,0,0,1,.124.171.294.294,0,0,1-.033.194.247.247,0,0,1-.144.12.268.268,0,0,1-.214-.037,1.124,1.124,0,0,0-.649-.214.916.916,0,0,0-.733.3,1.255,1.255,0,0,0-.258.847,1.31,1.31,0,0,0,.258.86.9.9,0,0,0,.733.311,1.132,1.132,0,0,0,.649-.208.252.252,0,0,1,.211-.033.234.234,0,0,1,.134.124.317.317,0,0,1,.027.194.245.245,0,0,1-.124.171,1.412,1.412,0,0,1-.465.221A1.878,1.878,0,0,1,2674.095,1751.207Z" transform="translate(-2655.412 -1746.123)" fill="#221a18"/>
            <path id="Path_882500" data-name="Path 882500" d="M2713.7,1730.5a.447.447,0,0,1-.311-.1.36.36,0,0,1-.11-.281q0-.382.422-.381t.422.381Q2714.119,1730.5,2713.7,1730.5Zm0,4.037q-.335,0-.335-.368v-2.611q0-.362.335-.361t.341.361v2.611Q2714.038,1734.535,2713.7,1734.535Z" transform="translate(-2692.992 -1729.472)" fill="#221a18"/>
            <path id="Path_882501" data-name="Path 882501" d="M2734.241,1751.207a1.346,1.346,0,0,1-.609-.134,1.106,1.106,0,0,1-.425-.362.886.886,0,0,1-.157-.516.827.827,0,0,1,.184-.569,1.116,1.116,0,0,1,.609-.3,5.553,5.553,0,0,1,1.148-.094h.228v-.174a.776.776,0,0,0-.161-.549.71.71,0,0,0-.529-.167,1.971,1.971,0,0,0-.445.053,2.082,2.082,0,0,0-.479.181.256.256,0,0,1-.231.02.248.248,0,0,1-.124-.147.305.305,0,0,1,.007-.207.286.286,0,0,1,.167-.161,2.954,2.954,0,0,1,.583-.2,2.536,2.536,0,0,1,.542-.063,1.143,1.143,0,0,1,1.312,1.312v1.721q0,.342-.315.342t-.321-.342v-.248a.957.957,0,0,1-.375.442A1.117,1.117,0,0,1,2734.241,1751.207Zm.134-.482a.8.8,0,0,0,.6-.255.9.9,0,0,0,.241-.643v-.181H2735a4.893,4.893,0,0,0-.767.047.762.762,0,0,0-.4.157.4.4,0,0,0-.117.3.528.528,0,0,0,.174.412A.692.692,0,0,0,2734.375,1750.725Z" transform="translate(-2711.2 -1746.123)" fill="#221a18"/>
            <path id="Path_882502" data-name="Path 882502" d="M2779.45,1751.207a1.692,1.692,0,0,1-.857-.208,1.414,1.414,0,0,1-.559-.586,2.152,2.152,0,0,1,0-1.8,1.417,1.417,0,0,1,.559-.586,1.7,1.7,0,0,1,.857-.207,1.666,1.666,0,0,1,.844.207,1.438,1.438,0,0,1,.563.586,2.119,2.119,0,0,1,0,1.8,1.435,1.435,0,0,1-.562.586A1.664,1.664,0,0,1,2779.45,1751.207Zm0-.522a.833.833,0,0,0,.669-.3,1.316,1.316,0,0,0,.254-.87,1.3,1.3,0,0,0-.254-.867.909.909,0,0,0-1.346,0,1.3,1.3,0,0,0-.254.867,1.314,1.314,0,0,0,.254.87A.841.841,0,0,0,2779.45,1750.684Z" transform="translate(-2752.439 -1746.123)" fill="#221a18"/>
            <path id="Path_882503" data-name="Path 882503" d="M2821.685,1731.648a.269.269,0,0,1-.345.191.273.273,0,0,1-.161-.12.278.278,0,0,1-.017-.231l1.573-4.874a.26.26,0,0,1,.141-.177.3.3,0,0,1,.2-.013.274.274,0,0,1,.161.121.265.265,0,0,1,.017.224Z" transform="translate(-2792.318 -1726.41)" fill="#221a18"/>
            <path id="Path_882504" data-name="Path 882504" d="M2853.293,1734.464a.3.3,0,0,1-.334-.341v-4.131a.338.338,0,1,1,.676,0v1.667a1.087,1.087,0,0,1,.452-.425,1.393,1.393,0,0,1,.639-.144q1.159,0,1.158,1.312v1.721a.338.338,0,1,1-.676,0v-1.68a.946.946,0,0,0-.164-.616.635.635,0,0,0-.512-.194.858.858,0,0,0-.653.258.948.948,0,0,0-.244.68v1.553A.3.3,0,0,1,2853.293,1734.464Z" transform="translate(-2821.61 -1729.393)" fill="#221a18"/>
            <path id="Path_882505" data-name="Path 882505" d="M2900.91,1751.207a1.732,1.732,0,0,1-1.265-.452,1.649,1.649,0,0,1-.462-1.235,1.864,1.864,0,0,1,.2-.887,1.5,1.5,0,0,1,.566-.6,1.6,1.6,0,0,1,.83-.214,1.358,1.358,0,0,1,1.064.432,1.713,1.713,0,0,1,.388,1.188q0,.228-.268.228h-2.129a.969.969,0,0,0,1.078,1.018,1.905,1.905,0,0,0,.422-.05,1.329,1.329,0,0,0,.428-.184.348.348,0,0,1,.244-.057.214.214,0,0,1,.151.114.268.268,0,0,1,.017.2.337.337,0,0,1-.157.191,1.666,1.666,0,0,1-.532.231A2.363,2.363,0,0,1,2900.91,1751.207Zm-.1-2.912a.879.879,0,0,0-.67.261,1.191,1.191,0,0,0-.3.7h1.828a1.113,1.113,0,0,0-.241-.706A.778.778,0,0,0,2900.81,1748.294Z" transform="translate(-2864.172 -1746.123)" fill="#221a18"/>
            <path id="Path_882506" data-name="Path 882506" d="M2948.063,1734.477a.993.993,0,0,1-.787-.3,1.3,1.3,0,0,1-.264-.884v-3.3a.3.3,0,0,1,.334-.342.3.3,0,0,1,.342.342v3.26q0,.663.536.663a.775.775,0,0,0,.107-.007.654.654,0,0,1,.094-.007.114.114,0,0,1,.114.044.417.417,0,0,1,.033.2.28.28,0,0,1-.254.315c-.045,0-.088.008-.131.01S2948.1,1734.477,2948.063,1734.477Z" transform="translate(-2908.211 -1729.393)" fill="#221a18"/>
            <path id="Path_882507" data-name="Path 882507" d="M2973.921,1734.477a.992.992,0,0,1-.787-.3,1.3,1.3,0,0,1-.265-.884v-3.3a.338.338,0,1,1,.676,0v3.26q0,.663.536.663a.778.778,0,0,0,.107-.007.649.649,0,0,1,.094-.007.114.114,0,0,1,.114.044.413.413,0,0,1,.033.2.28.28,0,0,1-.254.315c-.045,0-.088.008-.131.01S2973.961,1734.477,2973.921,1734.477Z" transform="translate(-2932.021 -1729.393)" fill="#221a18"/>
            <path id="Path_882508" data-name="Path 882508" d="M2997.469,1751.207a1.692,1.692,0,0,1-.857-.208,1.414,1.414,0,0,1-.559-.586,2.152,2.152,0,0,1,0-1.8,1.417,1.417,0,0,1,.559-.586,1.7,1.7,0,0,1,.857-.207,1.666,1.666,0,0,1,.844.207,1.439,1.439,0,0,1,.563.586,2.119,2.119,0,0,1,0,1.8,1.437,1.437,0,0,1-.562.586A1.664,1.664,0,0,1,2997.469,1751.207Zm0-.522a.833.833,0,0,0,.669-.3,1.314,1.314,0,0,0,.254-.87,1.3,1.3,0,0,0-.254-.867.909.909,0,0,0-1.346,0,1.3,1.3,0,0,0-.254.867,1.314,1.314,0,0,0,.254.87A.841.841,0,0,0,2997.469,1750.684Z" transform="translate(-2953.186 -1746.123)" fill="#221a18"/>
          </g>
        </g>
      </g>
      <g id="Group_1107895" data-name="Group 1107895" transform="translate(140.526 25.12)">
        <rect id="Rectangle_404269" data-name="Rectangle 404269" width="37.976" height="19.16" rx="9.58" transform="translate(37.976 19.16) rotate(180)" fill="#fff"/>
        <g id="Group_1107890" data-name="Group 1107890" transform="translate(19.507 2.466)">
          <path id="Path_882509" data-name="Path 882509" d="M3518.34,706.274a.506.506,0,1,1-.65-.3A.506.506,0,0,1,3518.34,706.274Z" transform="translate(-3507.554 -703.851)" fill="#221a18"/>
          <path id="Path_882510" data-name="Path 882510" d="M3429.537,789.923a.506.506,0,1,1-.649-.3A.506.506,0,0,1,3429.537,789.923Z" transform="translate(-3425.786 -780.874)" fill="#221a18"/>
          <circle id="Ellipse_11829" data-name="Ellipse 11829" cx="1.18" cy="1.18" r="1.18" transform="matrix(0.999, -0.04, 0.04, 0.999, 5.559, 5.143)" fill="#e5685e"/>
          <g id="Group_1107887" data-name="Group 1107887" transform="translate(2.708)">
            <path id="Path_882511" data-name="Path 882511" d="M3428.612,691.979a.734.734,0,0,1-.464-.152c-1.033-.806.176-4.371,1.942-7.352,1.614-2.724,3.47-4.7,4.618-4.917a.8.8,0,0,1,.669.132c1.033.806-.176,4.371-1.942,7.352-1.614,2.724-3.469,4.7-4.618,4.916A1.1,1.1,0,0,1,3428.612,691.979Zm6.3-12.176a.842.842,0,0,0-.156.016c-1.061.2-2.887,2.171-4.439,4.792-2.078,3.508-2.716,6.456-2.007,7.009a.543.543,0,0,0,.457.081c1.062-.2,2.887-2.171,4.44-4.792,2.078-3.508,2.716-6.456,2.007-7.009A.473.473,0,0,0,3434.912,679.8Z" transform="translate(-3427.767 -679.538)" fill="#221a18"/>
          </g>
          <g id="Group_1107888" data-name="Group 1107888" transform="translate(0.194 2.724)">
            <path id="Path_882512" data-name="Path 882512" d="M3407.646,721.015a15.69,15.69,0,0,1-5.653-1.552c-3.2-1.426-6.3-3.643-5.933-4.887a.776.776,0,0,1,.454-.483c1.054-.487,3.741.066,6.686,1.377,3.2,1.426,6.3,3.643,5.933,4.887a.775.775,0,0,1-.454.483A2.522,2.522,0,0,1,3407.646,721.015Zm-10.1-6.836a2.251,2.251,0,0,0-.919.153.518.518,0,0,0-.311.318c-.25.852,2.016,2.893,5.786,4.571,2.835,1.262,5.495,1.829,6.469,1.378a.52.52,0,0,0,.312-.318c.25-.853-2.016-2.893-5.787-4.572A15.625,15.625,0,0,0,3397.545,714.179Z" transform="translate(-3396.032 -713.918)" fill="#221a18"/>
          </g>
          <g id="Group_1107889" data-name="Group 1107889" transform="translate(0 2.996)">
            <path id="Path_882513" data-name="Path 882513" d="M3395.248,724.067c-.777,0-1.344-.163-1.566-.536a.777.777,0,0,1-.045-.661c.36-1.1,2.595-2.7,5.56-3.961,3.224-1.376,6.956-2.133,7.619-1.02a.778.778,0,0,1,.045.661c-.36,1.1-2.595,2.7-5.56,3.961A17.665,17.665,0,0,1,3395.248,724.067Zm9.99-6.451a16.766,16.766,0,0,0-5.938,1.535c-2.854,1.218-5.08,2.78-5.413,3.8a.519.519,0,0,0,.021.444c.454.763,3.491.492,7.288-1.127,2.854-1.218,5.08-2.78,5.413-3.8a.519.519,0,0,0-.021-.444C3406.429,717.756,3405.953,717.616,3405.238,717.616Z" transform="translate(-3393.585 -717.352)" fill="#221a18"/>
          </g>
        </g>
        <path id="Path_882514" data-name="Path 882514" d="M3375.126,890.243l1.594,5.56,2.222-5.56Z" transform="translate(-3357.082 -871.083)" fill="#fff"/>
        <g id="Group_1107894" data-name="Group 1107894" transform="translate(4.635 2.961)">
          <g id="Group_1107891" data-name="Group 1107891" transform="translate(0.306 6.307)">
            <path id="Path_882515" data-name="Path 882515" d="M3211.544,771.652l-1.813-3.117,1.792-3.128,3.605-.012,1.813,3.116-1.792,3.129Zm-1.508-3.118,1.66,2.853,3.3-.011,1.641-2.864-1.66-2.853-3.3.011Z" transform="translate(-3209.731 -765.395)" fill="#221a18"/>
          </g>
          <g id="Group_1107892" data-name="Group 1107892" transform="translate(0.286 0.299)">
            <path id="Path_882516" data-name="Path 882516" d="M3211.292,695.813l-1.813-3.117,1.792-3.129,3.606-.012,1.813,3.117L3214.9,695.8Zm-1.508-3.118,1.66,2.853,3.3-.011,1.641-2.864-1.66-2.853-3.3.011Z" transform="translate(-3209.479 -689.556)" fill="#221a18"/>
          </g>
          <g id="Group_1107893" data-name="Group 1107893" transform="translate(5.476 3.32)">
            <path id="Path_882517" data-name="Path 882517" d="M3276.8,733.947l-1.813-3.116,1.792-3.129,3.606-.012,1.813,3.117-1.792,3.129Zm-1.508-3.117,1.66,2.853,3.3-.011,1.641-2.864-1.66-2.853-3.3.011Z" transform="translate(-3274.985 -727.69)" fill="#221a18"/>
          </g>
          <path id="Path_882518" data-name="Path 882518" d="M3299.229,800.131a.389.389,0,1,1-.39-.389A.389.389,0,0,1,3299.229,800.131Z" transform="translate(-3291.115 -790.714)" fill="#e5685e"/>
          <path id="Path_882519" data-name="Path 882519" d="M3272.071,761.167a.414.414,0,1,1-.415-.414A.415.415,0,0,1,3272.071,761.167Z" transform="translate(-3266.062 -754.813)" fill="#e5685e"/>
          <path id="Path_882520" data-name="Path 882520" d="M3228.485,761.167a.414.414,0,1,1-.414-.414A.414.414,0,0,1,3228.485,761.167Z" transform="translate(-3225.929 -754.813)" fill="#e5685e"/>
          <path id="Path_882521" data-name="Path 882521" d="M3206.692,724.554a.414.414,0,1,1-.415-.414A.414.414,0,0,1,3206.692,724.554Z" transform="translate(-3205.863 -721.101)" fill="#e5685e"/>
          <path id="Path_882522" data-name="Path 882522" d="M3228.485,686.2a.414.414,0,1,1-.414-.414A.414.414,0,0,1,3228.485,686.2Z" transform="translate(-3225.929 -685.784)" fill="#e5685e"/>
          <path id="Path_882523" data-name="Path 882523" d="M3272.071,686.2a.414.414,0,1,1-.415-.414A.415.415,0,0,1,3272.071,686.2Z" transform="translate(-3266.062 -685.784)" fill="#e5685e"/>
          <path id="Path_882524" data-name="Path 882524" d="M3294.736,723.682a.414.414,0,1,1-.415-.414A.414.414,0,0,1,3294.736,723.682Z" transform="translate(-3286.932 -720.298)" fill="#e5685e"/>
          <path id="Path_882525" data-name="Path 882525" d="M3294.736,723.682a.414.414,0,1,1-.415-.414A.414.414,0,0,1,3294.736,723.682Z" transform="translate(-3286.932 -720.298)" fill="#e5685e"/>
          <path id="Path_882526" data-name="Path 882526" d="M3340.174,728.887a.389.389,0,1,1-.389-.389A.389.389,0,0,1,3340.174,728.887Z" transform="translate(-3328.816 -725.114)" fill="#e5685e"/>
          <path id="Path_882527" data-name="Path 882527" d="M3340.174,800.131a.389.389,0,1,1-.389-.389A.389.389,0,0,1,3340.174,800.131Z" transform="translate(-3328.816 -790.714)" fill="#e5685e"/>
          <path id="Path_882528" data-name="Path 882528" d="M3272.071,837.006a.414.414,0,1,1-.415-.414A.415.415,0,0,1,3272.071,837.006Z" transform="translate(-3266.062 -824.644)" fill="#e5685e"/>
          <path id="Path_882529" data-name="Path 882529" d="M3228.485,837.878a.414.414,0,1,1-.414-.414A.414.414,0,0,1,3228.485,837.878Z" transform="translate(-3225.929 -825.447)" fill="#e5685e"/>
          <path id="Path_882530" data-name="Path 882530" d="M3206.692,800.394a.414.414,0,1,1-.415-.414A.414.414,0,0,1,3206.692,800.394Z" transform="translate(-3205.863 -790.933)" fill="#e5685e"/>
          <path id="Path_882531" data-name="Path 882531" d="M3359.324,761.83a.389.389,0,1,1-.389-.389A.389.389,0,0,1,3359.324,761.83Z" transform="translate(-3346.449 -755.447)" fill="#e5685e"/>
        </g>
      </g>
      <g id="Group_1107908" data-name="Group 1107908" transform="translate(96.364 55.228)">
        <rect id="Rectangle_404270" data-name="Rectangle 404270" width="38.643" height="16.435" rx="8.218" transform="translate(38.643 16.435) rotate(180)" fill="#fff"/>
        <path id="Path_882532" data-name="Path 882532" d="M3064.549,1195.354l4.372,3.549-3.674-6.574Z" transform="translate(-3026.948 -1179.344)" fill="#fff"/>
        <g id="Group_1107896" data-name="Group 1107896" transform="translate(17.438 3.978)">
          <path id="Path_882533" data-name="Path 882533" d="M2816.324,1079.19h-6a.265.265,0,1,1,0-.529h6a.265.265,0,1,1,0,.529Z" transform="translate(-2810.062 -1078.661)"/>
        </g>
        <g id="Group_1107897" data-name="Group 1107897" transform="translate(20.79 1.685)">
          <path id="Path_882534" data-name="Path 882534" d="M2852.693,1052.539a.264.264,0,0,1-.231-.393c.027-.242-.024-1.253-.093-2.144a.265.265,0,1,1,.528-.041c.177,2.3.082,2.4,0,2.489A.286.286,0,0,1,2852.693,1052.539Zm0-.529h0Z" transform="translate(-2852.368 -1049.717)"/>
        </g>
        <g id="Group_1107898" data-name="Group 1107898" transform="translate(17.438 4.331)">
          <path id="Path_882535" data-name="Path 882535" d="M2810.326,1089.641a.265.265,0,0,1-.111-.5c.048-.022,4.842-2.287,5.855-5.831a.264.264,0,1,1,.508.146c-1.079,3.777-5.935,6.069-6.141,6.165A.264.264,0,0,1,2810.326,1089.641Z" transform="translate(-2810.061 -1083.114)"/>
        </g>
        <g id="Group_1107899" data-name="Group 1107899" transform="translate(18.673 5.919)">
          <path id="Path_882536" data-name="Path 882536" d="M2829.616,1108.094a.261.261,0,0,1-.118-.028c-2.174-1.087-3.759-4.393-3.825-4.534a.265.265,0,1,1,.478-.226c.015.032,1.574,3.282,3.584,4.287a.265.265,0,0,1-.119.5Z" transform="translate(-2825.647 -1103.155)"/>
        </g>
        <g id="Group_1107900" data-name="Group 1107900" transform="translate(22.907 4.508)">
          <path id="Path_882537" data-name="Path 882537" d="M2879.356,1094.694a.264.264,0,0,1-.236-.382l4.41-8.82a.264.264,0,1,1,.472.236l-4.41,8.82A.265.265,0,0,1,2879.356,1094.694Z" transform="translate(-2879.092 -1085.345)"/>
        </g>
        <g id="Group_1107906" data-name="Group 1107906" transform="translate(5.018 2.415)">
          <g id="Group_1107901" data-name="Group 1107901" transform="translate(0 0.047)">
            <path id="Path_882538" data-name="Path 882538" d="M2658.635,1070.207a5.346,5.346,0,1,1,5.346-5.346A5.352,5.352,0,0,1,2658.635,1070.207Zm0-10.429a5.082,5.082,0,1,0,5.082,5.082A5.088,5.088,0,0,0,2658.635,1059.778Z" transform="translate(-2653.289 -1059.514)" fill="#221a18"/>
          </g>
          <g id="Group_1107902" data-name="Group 1107902" transform="translate(0.132 5.283)">
            <rect id="Rectangle_404271" data-name="Rectangle 404271" width="10.429" height="0.264" fill="#221a18"/>
          </g>
          <g id="Group_1107903" data-name="Group 1107903" transform="translate(2.305)">
            <path id="Path_882539" data-name="Path 882539" d="M2685.446,1069.667l-.034-.01c-.03-.009-2.988-.951-3.024-5.318s2.993-5.354,3.024-5.364l.171-.053v.08c.567.182,3.3,1.277,3.185,5.339-.132,4.5-3.255,5.309-3.286,5.317Zm.136-10.386v10.07c.627-.223,2.811-1.266,2.921-5.017C2688.613,1060.607,2686.233,1059.51,2685.582,1059.28Zm-.264.012c-.624.267-2.7,1.428-2.666,5.044s2.053,4.742,2.666,5Z" transform="translate(-2682.387 -1058.922)" fill="#221a18"/>
          </g>
          <g id="Group_1107904" data-name="Group 1107904" transform="translate(1.01 7.245)">
            <path id="Path_882540" data-name="Path 882540" d="M2666.206,1151.654l-.163-.208c.627-.491,1.891-1.077,4.35-1.077h.008c2.5,0,3.728.563,4.315,1.034l-.166.206c-.454-.364-1.6-.975-4.149-.976h-.008C2668.009,1150.633,2666.8,1151.188,2666.206,1151.654Z" transform="translate(-2666.043 -1150.369)" fill="#221a18"/>
          </g>
          <g id="Group_1107905" data-name="Group 1107905" transform="translate(1.039 2.292)">
            <path id="Path_882541" data-name="Path 882541" d="M2670.731,1089.105a7.322,7.322,0,0,1-4.322-1.034l.154-.214a7.071,7.071,0,0,0,4.167.984h.007c2.555,0,3.7-.611,4.15-.975l.165.206c-.587.471-1.812,1.032-4.315,1.033Z" transform="translate(-2666.409 -1087.857)" fill="#221a18"/>
          </g>
        </g>
        <g id="Group_1107907" data-name="Group 1107907" transform="translate(26.041 6.559)">
          <path id="Path_882542" data-name="Path 882542" d="M2919.062,1117.714a.4.4,0,0,1-.374-.176.443.443,0,0,1,.014-.428l2.442-5.479a.693.693,0,0,1,.225-.3.536.536,0,0,1,.315-.094.529.529,0,0,1,.3.094.681.681,0,0,1,.23.3l2.442,5.479a.475.475,0,0,1,.022.432.37.37,0,0,1-.356.171.473.473,0,0,1-.315-.1.821.821,0,0,1-.207-.306l-.523-1.208h-3.217l-.514,1.208a.842.842,0,0,1-.2.311A.422.422,0,0,1,2919.062,1117.714Zm2.6-5.38-1.271,3.01h2.568l-1.28-3.01Z" transform="translate(-2918.639 -1111.234)"/>
        </g>
      </g>
      <g id="Group_1107917" data-name="Group 1107917" transform="translate(140.096 54.222)">
        <path id="Path_882543" data-name="Path 882543" d="M3154.612,1354.826s-5.664-1.862-8.845,5.318c-4.232,9.552-4.876,13.719-2.328,14.965,2.413,1.18,10.57-5.7,13.9-12.388C3160.842,1355.706,3154.612,1354.826,3154.612,1354.826Z" transform="translate(-3141.937 -1327.762)" fill="#858393"/>
        <path id="Path_882544" data-name="Path 882544" d="M3149.1,1371.524a23.977,23.977,0,0,1-7.024,9.188c-.561-2.2.62-6.3,3.694-13.237a9.137,9.137,0,0,1,4.336-4.9C3150.941,1364.016,3150.875,1367.363,3149.1,1371.524Z" transform="translate(-3141.943 -1335.093)" fill="#fff"/>
        <path id="Path_882545" data-name="Path 882545" d="M3245.734,1346.745s12.777-.687,10.9,12.239-7.73,27.062-15.964,27.047-15.2-16.2-16.521-28.972S3242.256,1346.319,3245.734,1346.745Z" transform="translate(-3217.579 -1320.174)" fill="#fff"/>
        <path id="Path_882546" data-name="Path 882546" d="M3239,1351.47c4.1-6.491,17.62-5.066,20.466-4.718,0,0,4.976-.267,8.262,2.674-.011,0-4.241.135-7.6,7.22S3240.683,1367.3,3239,1351.47Z" transform="translate(-3231.309 -1320.181)" fill="#858393"/>
        <path id="Path_882547" data-name="Path 882547" d="M3567.061,1415.8s4.693-3.874,10.454,5.823,7.065,14.042,4.5,15.719c-2.427,1.588-12.312-4.954-16.281-11.977S3567.061,1415.8,3567.061,1415.8Z" transform="translate(-3530.802 -1383.403)" fill="#858393"/>
        <circle id="Ellipse_11830" data-name="Ellipse 11830" cx="5.041" cy="5.041" r="5.041" transform="translate(3.048 4.494)" fill="#858393"/>
        <path id="Path_882548" data-name="Path 882548" d="M3206.976,1028.919c-.162,7.448,7.162,13.571,17.633,13.8s19.09-5.626,19.252-13.075-8.2-13.67-18.667-13.9S3207.138,1021.471,3206.976,1028.919Z" transform="translate(-3201.821 -1015.74)" fill="#fff"/>
        <path id="Path_882549" data-name="Path 882549" d="M3206.976,1088.875a11.654,11.654,0,0,1,3.567-8.021s24.188-.062,23.143,9.438-22.184,6.432-24.663,5.24A11.174,11.174,0,0,1,3206.976,1088.875Z" transform="translate(-3201.821 -1075.696)" fill="#464649"/>
        <path id="Path_882550" data-name="Path 882550" d="M3635.53,1417.534c1.805.515,4.113,2.162,6.625,6.39,4.248,7.15,6.072,11.391,5.71,13.8C3647.865,1437.721,3629.98,1424.67,3635.53,1417.534Z" transform="translate(-3595.441 -1385.702)" fill="#fff"/>
        <circle id="Ellipse_11831" data-name="Ellipse 11831" cx="5.873" cy="5.873" r="5.873" transform="translate(31.151 12.775) rotate(-45)" fill="#858393"/>
        <g id="Group_1107909" data-name="Group 1107909" transform="translate(33.192 35.748)">
          <path id="Path_882551" data-name="Path 882551" d="M3577.933,1485.6c-1.045,0-4.05-.5-9.373-5.162-6.607-5.786-8.333-11.3-7.45-13.363a.2.2,0,0,1,.364.156c-.342.8-.287,2.523.9,4.956a25.969,25.969,0,0,0,6.451,7.953c6.439,5.639,9.411,5.045,9.44,5.039a.2.2,0,0,1,.092.385A1.916,1.916,0,0,1,3577.933,1485.6Z" transform="translate(-3560.896 -1466.955)"/>
        </g>
        <g id="Group_1107910" data-name="Group 1107910" transform="translate(32.161 45.679)">
          <path id="Path_882552" data-name="Path 882552" d="M3548.08,1605.925a.2.2,0,0,1-.158-.317c2.937-3.909,5.351-13.066,5.375-13.158a.2.2,0,1,1,.383.1c-.1.379-2.458,9.325-5.441,13.3A.2.2,0,0,1,3548.08,1605.925Z" transform="translate(-3547.882 -1592.302)"/>
        </g>
        <g id="Group_1107911" data-name="Group 1107911" transform="translate(8.352 34.796)">
          <path id="Path_882553" data-name="Path 882553" d="M3257.225,1462.84a10.1,10.1,0,0,1-9.857-7.326.2.2,0,1,1,.386-.087,9.8,9.8,0,0,0,11.246,6.887,11.923,11.923,0,0,0,9.4-7.243.2.2,0,0,1,.375.13,11.425,11.425,0,0,1-2.051,3.355,12.2,12.2,0,0,1-7.672,4.151A12.908,12.908,0,0,1,3257.225,1462.84Z" transform="translate(-3247.363 -1454.937)"/>
        </g>
        <g id="Group_1107912" data-name="Group 1107912" transform="translate(6.762 19.274)">
          <path id="Path_882554" data-name="Path 882554" d="M3243.1,1266.951a24.509,24.509,0,0,1-5.518-.644c-3.231-.767-7.635-2.6-10.267-6.987a.2.2,0,1,1,.34-.2c2.559,4.263,6.855,6.052,10.007,6.8a23.137,23.137,0,0,0,6.323.613.2.2,0,0,1,.212.183.2.2,0,0,1-.183.212C3244.006,1266.928,3243.672,1266.951,3243.1,1266.951Z" transform="translate(-3227.288 -1259.021)"/>
        </g>
        <g id="Group_1107913" data-name="Group 1107913" transform="translate(4.961 1.843)">
          <path id="Path_882555" data-name="Path 882555" d="M3204.762,1050.9a.2.2,0,0,1-.2-.191,11.406,11.406,0,0,1,3.974-8.746,17.836,17.836,0,0,1,4.171-2.945.2.2,0,0,1,.169.358c-.082.039-8.186,3.959-7.918,11.318a.2.2,0,0,1-.191.205Z" transform="translate(-3204.558 -1038.999)"/>
        </g>
        <g id="Group_1107914" data-name="Group 1107914" transform="translate(23.814 61.624)">
          <path id="Path_882556" data-name="Path 882556" d="M3442.723,1797.976a.2.2,0,0,1-.022-.395,9.212,9.212,0,0,0,6.234-3.922.2.2,0,1,1,.337.209,9.442,9.442,0,0,1-6.526,4.106Z" transform="translate(-3442.526 -1793.566)"/>
        </g>
        <g id="Group_1107915" data-name="Group 1107915" transform="translate(33.303 8.183)">
          <path id="Path_882557" data-name="Path 882557" d="M3568.517,1129.665a6.7,6.7,0,0,1-3.9-1.33,5.389,5.389,0,0,1-2.314-4.923c.131-2.084,1.2-3.852,2.15-4.357a.2.2,0,0,1,.185.35c-.839.444-1.819,2.112-1.94,4.031a4.964,4.964,0,0,0,2.147,4.574,5.741,5.741,0,0,0,6.751.331.2.2,0,1,1,.242.313A5.9,5.9,0,0,1,3568.517,1129.665Z" transform="translate(-3562.288 -1119.032)"/>
        </g>
        <g id="Group_1107916" data-name="Group 1107916" transform="translate(5.318 6.81)">
          <path id="Path_882558" data-name="Path 882558" d="M3223.668,1115.225l-.787-6.77-.518,2.138-1.3-5.644-2.623,9.717-1.166-10.167-.969,3.591-4.05-.539-.168-.73-1.26,5.523-.272-5.016-1.5-.3.1-.518,1.9.385.09,1.661.934-4.1.6,2.619,3.229.43,1.568-5.812,1.166,10.167,2.453-9.09,1.272,5.522.688-2.842.71,6.114,1.357-7.726.9,5.6,5.383.6-.059.525-5.782-.647-.468-2.9Z" transform="translate(-3209.061 -1101.694)" fill="#fff"/>
        </g>
      </g>
    </g>
    <g id="Group_1107922" data-name="Group 1107922" transform="translate(718.51 389.533)">
      <g id="Group_1107919" data-name="Group 1107919" transform="translate(0 74.299)">
        <path id="Path_882559" data-name="Path 882559" d="M1758.467,2055.3l-.5,0a.264.264,0,0,1,0-.528l.531,0c.7,0,1.4-.012,2.1-.036a.259.259,0,0,1,.273.255.264.264,0,0,1-.255.273C1759.906,2055.284,1759.184,2055.294,1758.467,2055.3Zm-3.658-.113h-.016c-.88-.054-1.769-.128-2.643-.221a.264.264,0,0,1,.056-.525c.866.092,1.748.166,2.619.219a.264.264,0,0,1-.016.528Zm8.969-.113a.264.264,0,0,1-.022-.527c.394-.034.79-.072,1.178-.112.479-.05.964-.1,1.439-.161a.264.264,0,1,1,.063.524c-.478.057-.965.112-1.447.162-.391.041-.791.079-1.188.113Zm-14.74-.525a.278.278,0,0,1-.042,0c-.869-.14-1.747-.3-2.608-.48a.264.264,0,1,1,.107-.517c.854.177,1.723.337,2.585.475a.264.264,0,0,1-.042.525Zm20.5-.179a.264.264,0,0,1-.04-.525c.875-.136,1.747-.285,2.593-.445a.264.264,0,0,1,.1.519c-.851.16-1.729.311-2.609.447A.259.259,0,0,1,1769.541,2054.366Zm-26.184-1.027a.275.275,0,0,1-.068-.009c-.852-.227-1.709-.475-2.547-.74a.264.264,0,1,1,.159-.5c.831.262,1.68.509,2.524.733a.264.264,0,0,1-.068.52Zm31.883-.071a.264.264,0,0,1-.06-.521c.865-.2,1.722-.422,2.546-.651a.264.264,0,0,1,.141.509c-.831.231-1.694.452-2.567.656A.271.271,0,0,1,1775.24,2053.267Zm5.582-1.586a.264.264,0,0,1-.085-.514c.841-.286,1.669-.592,2.461-.909a.264.264,0,1,1,.2.49c-.8.321-1.638.63-2.488.919A.258.258,0,0,1,1780.822,2051.681Zm-42.994-.119a.263.263,0,0,1-.094-.017c-.827-.314-1.654-.651-2.458-1a.264.264,0,0,1,.211-.485c.8.347,1.615.68,2.434.991a.264.264,0,0,1-.094.511Zm48.363-2.076a.264.264,0,0,1-.116-.5c.8-.389,1.574-.8,2.313-1.229a.264.264,0,1,1,.264.457c-.749.433-1.538.852-2.345,1.246A.261.261,0,0,1,1786.19,2049.486Zm-53.676-.269a.265.265,0,0,1-.119-.028c-.789-.4-1.575-.825-2.336-1.262a.264.264,0,0,1,.263-.458c.753.432,1.531.852,2.312,1.249a.264.264,0,0,1-.12.5Zm58.668-2.677a.264.264,0,0,1-.153-.479c.719-.512,1.412-1.053,2.06-1.608a.264.264,0,0,1,.344.4c-.66.565-1.365,1.116-2.1,1.637A.262.262,0,0,1,1791.182,2046.54Zm-63.69-.241a.262.262,0,0,1-.146-.044c-.742-.491-1.473-1-2.173-1.527a.264.264,0,1,1,.316-.423c.692.517,1.415,1.024,2.149,1.51a.264.264,0,0,1-.146.484Zm-4.631-3.5a.263.263,0,0,1-.173-.064c-.677-.587-1.333-1.195-1.951-1.807a.264.264,0,0,1,.372-.375c.609.6,1.256,1.2,1.925,1.783a.264.264,0,0,1-.173.464Zm72.679-.07a.264.264,0,0,1-.194-.443,24.876,24.876,0,0,0,1.667-2.007.264.264,0,0,1,.424.316,25.454,25.454,0,0,1-1.7,2.049A.263.263,0,0,1,1795.541,2042.725Zm-76.765-4.055a.263.263,0,0,1-.2-.094c-.585-.7-1.13-1.409-1.621-2.114a.264.264,0,1,1,.434-.3c.482.693,1.018,1.391,1.592,2.077a.264.264,0,0,1-.2.433Zm80.17-.629a.26.26,0,0,1-.128-.034.264.264,0,0,1-.1-.359,24.082,24.082,0,0,0,1.146-2.344.264.264,0,1,1,.486.206,24.639,24.639,0,0,1-1.171,2.4A.264.264,0,0,1,1798.946,2038.041Zm-110.4-1.414a.264.264,0,0,1,0-.528c.867,0,1.754-.014,2.637-.03a.264.264,0,0,1,.009.528c-.885.016-1.775.026-2.644.03Zm-3.169-.012c-.884-.01-1.773-.028-2.647-.051a.264.264,0,0,1,.007-.528h.007c.871.023,1.758.04,2.636.05a.264.264,0,0,1,0,.528Zm8.978-.1a.264.264,0,0,1-.009-.528c.875-.029,1.761-.064,2.635-.1a.264.264,0,1,1,.024.528c-.876.04-1.765.076-2.642.105Zm-14.783-.063h-.012c-.881-.039-1.77-.086-2.641-.138a.264.264,0,1,1,.031-.527c.868.052,1.754.1,2.633.138a.264.264,0,0,1-.011.528Zm20.586-.211a.264.264,0,0,1-.016-.527c.867-.052,1.753-.111,2.632-.175a.264.264,0,0,1,.038.527c-.881.063-1.769.122-2.638.175Zm-26.384-.148h-.021c-.882-.07-1.769-.149-2.635-.233a.264.264,0,0,1,.051-.526c.863.084,1.746.162,2.625.232a.264.264,0,0,1-.021.527Zm32.178-.276a.264.264,0,0,1-.022-.527c.859-.074,1.743-.154,2.627-.24a.264.264,0,0,1,.051.526c-.886.085-1.772.166-2.633.24Zm-37.958-.3-.031,0c-.875-.1-1.758-.217-2.624-.336a.264.264,0,1,1,.072-.523c.863.119,1.743.231,2.614.334a.264.264,0,0,1-.031.526Zm43.74-.27a.264.264,0,0,1-.029-.527c.87-.1,1.752-.2,2.621-.3a.264.264,0,0,1,.063.524c-.871.1-1.755.206-2.626.3Zm-49.493-.533a.282.282,0,0,1-.042,0c-.874-.141-1.751-.292-2.607-.449a.264.264,0,0,1,.095-.52c.853.156,1.727.307,2.6.447a.264.264,0,0,1-.042.525Zm55.2-.423a.264.264,0,0,1-.087-.514,17.89,17.89,0,0,0,2.39-1.02.264.264,0,0,1,.244.468,18.428,18.428,0,0,1-2.461,1.05A.265.265,0,0,1,1717.445,2034.3Zm-1.914-.432a.264.264,0,0,1-.235-.143,18.366,18.366,0,0,1-1.052-2.461.264.264,0,0,1,.5-.17,17.908,17.908,0,0,0,1.022,2.39.264.264,0,0,1-.235.385Zm-59-.2a.246.246,0,0,1-.055-.006c-.866-.182-1.735-.375-2.583-.575a.264.264,0,1,1,.121-.514c.844.2,1.709.391,2.571.572a.264.264,0,0,1-.054.523Zm144.623-.977a.264.264,0,0,1-.254-.336c.233-.824.43-1.681.586-2.547a.264.264,0,1,1,.52.094c-.159.883-.36,1.756-.6,2.6A.264.264,0,0,1,1801.153,2032.685Zm-150.274-.366a.264.264,0,0,1-.068-.009c-.859-.229-1.716-.47-2.549-.716a.264.264,0,1,1,.15-.507c.828.245,1.681.485,2.535.712a.264.264,0,0,1-.068.519Zm71.594-.845a.264.264,0,0,1-.179-.458,7.812,7.812,0,0,0,1.583-1.988.264.264,0,0,1,.464.253,8.342,8.342,0,0,1-1.689,2.124A.263.263,0,0,1,1722.473,2031.473Zm-77.158-.819a.262.262,0,0,1-.083-.014c-.846-.283-1.687-.578-2.5-.879a.264.264,0,1,1,.183-.5c.807.3,1.642.592,2.483.873a.264.264,0,0,1-.084.515Zm-5.438-2.04a.266.266,0,0,1-.1-.021c-.834-.351-1.649-.714-2.422-1.079a.264.264,0,1,1,.225-.478c.767.362,1.575.722,2.4,1.07a.264.264,0,0,1-.1.508Zm73.949-.261a.264.264,0,0,1-.263-.242c-.024-.292-.037-.584-.037-.867a9.1,9.1,0,0,1,.182-1.835.264.264,0,1,1,.517.107,8.548,8.548,0,0,0-.171,1.729c0,.268.012.545.035.823a.264.264,0,0,1-.241.285Zm88.312-1.384h-.019a.265.265,0,0,1-.245-.282c.056-.77.084-1.563.084-2.358q0-.13,0-.26a.264.264,0,1,1,.528,0q0,.132,0,.264c0,.808-.029,1.614-.085,2.4A.264.264,0,0,1,1802.137,2026.97Zm-77.233-.585a.264.264,0,0,1-.264-.264v-.019a6.08,6.08,0,0,0-.515-2.442.264.264,0,1,1,.484-.211,6.6,6.6,0,0,1,.559,2.653v.019A.264.264,0,0,1,1724.9,2026.385Zm-90.262-.284a.261.261,0,0,1-.128-.033,23.256,23.256,0,0,1-2.281-1.4.264.264,0,1,1,.313-.425,23.358,23.358,0,0,0,2.224,1.363.264.264,0,0,1-.128.5Zm80.572-3.263a.264.264,0,0,1-.218-.413,6.916,6.916,0,0,1,1.912-1.944.264.264,0,1,1,.288.443,6.394,6.394,0,0,0-1.764,1.8A.264.264,0,0,1,1715.213,2022.838Zm7.245-1.509a.262.262,0,0,1-.163-.056,4.822,4.822,0,0,0-2.262-1,.264.264,0,1,1,.075-.523,5.351,5.351,0,0,1,2.513,1.109.264.264,0,0,1-.163.472Zm79.6-.163a.264.264,0,0,1-.263-.24c-.079-.852-.189-1.729-.327-2.6a.264.264,0,1,1,.521-.082c.14.887.251,1.774.332,2.637a.264.264,0,0,1-.238.288Zm-.932-5.733a.264.264,0,0,1-.257-.205c-.193-.841-.413-1.7-.655-2.545a.264.264,0,1,1,.508-.145c.245.856.468,1.722.662,2.572a.264.264,0,0,1-.2.316A.25.25,0,0,1,1801.126,2015.432Zm-1.62-5.58a.264.264,0,0,1-.249-.177c-.292-.831-.606-1.658-.933-2.459a.264.264,0,1,1,.489-.2c.331.809.648,1.644.943,2.483a.265.265,0,0,1-.249.352Zm-2.239-5.366a.264.264,0,0,1-.236-.146c-.1-.191-.15-.291-.15-.293a.264.264,0,1,1,.466-.25s.056.1.157.306a.264.264,0,0,1-.236.382Z" transform="translate(-1632.125 -2003.658)" fill="#464649"/>
      </g>
      <g id="Group_1107920" data-name="Group 1107920" transform="translate(134.333 2.192)">
        <path id="Path_882560" data-name="Path 882560" d="M3365.7,1202.368c-.751,0-1.515-.016-2.268-.049a.264.264,0,1,1,.023-.528c.873.038,1.755.053,2.626.047a.264.264,0,0,1,0,.528Zm3.548-.123a.264.264,0,0,1-.018-.527c.876-.061,1.755-.147,2.614-.254a.264.264,0,0,1,.065.524c-.868.108-1.757.195-2.643.257Zm-8.966-.157h-.027c-.876-.09-1.763-.2-2.634-.338a.264.264,0,1,1,.08-.522c.862.132,1.74.245,2.608.334a.264.264,0,0,1-.027.527Zm14.722-.6a.264.264,0,0,1-.051-.523c.865-.17,1.726-.367,2.558-.585a.264.264,0,0,1,.134.511c-.842.221-1.713.42-2.589.592A.261.261,0,0,1,3375.006,1201.489Zm-20.46-.313a.283.283,0,0,1-.056-.006c-.868-.188-1.737-.4-2.583-.63a.264.264,0,0,1,.138-.51c.837.228,1.7.437,2.556.623a.264.264,0,0,1-.055.522Zm26.063-1.2a.264.264,0,0,1-.088-.513c.835-.294,1.654-.617,2.437-.961a.264.264,0,1,1,.212.484c-.794.349-1.626.678-2.474.976A.262.262,0,0,1,3380.609,1199.974Zm-31.662-.354a.261.261,0,0,1-.086-.014c-.843-.29-1.679-.6-2.486-.935a.264.264,0,0,1,.2-.489c.8.327,1.625.638,2.458.924a.264.264,0,0,1-.086.514Zm36.957-2.017a.264.264,0,0,1-.125-.5c.775-.416,1.543-.854,2.282-1.3a.264.264,0,1,1,.273.452c-.747.451-1.522.892-2.305,1.313A.262.262,0,0,1,3385.9,1197.6Zm-42.315-.222a.262.262,0,0,1-.118-.028c-.8-.4-1.586-.828-2.336-1.269a.264.264,0,0,1,.268-.455c.739.435,1.514.857,2.3,1.252a.264.264,0,0,1-.119.5Zm47.268-2.8a.264.264,0,0,1-.151-.481c.72-.5,1.432-1.022,2.116-1.554a.264.264,0,0,1,.325.417c-.691.538-1.411,1.067-2.139,1.571A.262.262,0,0,1,3390.856,1194.577Zm-52.244-.183a.266.266,0,0,1-.154-.049c-.729-.524-1.435-1.075-2.1-1.64a.264.264,0,0,1,.343-.4c.651.555,1.345,1.1,2.062,1.613a.264.264,0,0,1-.154.479Zm56.8-3.409a.264.264,0,0,1-.176-.461c.652-.584,1.292-1.192,1.9-1.807a.264.264,0,1,1,.375.372c-.617.623-1.265,1.238-1.925,1.829A.263.263,0,0,1,3395.415,1190.984Zm-61.174-.4a.264.264,0,0,1-.193-.083,26.081,26.081,0,0,1-1.721-2.035.264.264,0,1,1,.421-.319,25.454,25.454,0,0,0,1.686,1.993.264.264,0,0,1-.193.445Zm65.234-3.746a.264.264,0,0,1-.2-.436c.567-.664,1.121-1.352,1.643-2.045a.264.264,0,1,1,.422.317c-.529.7-1.088,1.4-1.663,2.071A.264.264,0,0,1,3399.475,1186.837Zm-68.68-.908a.265.265,0,0,1-.23-.134,22.415,22.415,0,0,1-1.173-2.395.264.264,0,0,1,.487-.2,21.956,21.956,0,0,0,1.146,2.338.264.264,0,0,1-.229.394Zm72.14-3.751a.264.264,0,0,1-.222-.406c.47-.734.921-1.492,1.342-2.253a.264.264,0,0,1,.462.256c-.427.772-.884,1.539-1.36,2.282A.263.263,0,0,1,3402.935,1182.178Zm-74.3-1.615a.264.264,0,0,1-.255-.2,22.151,22.151,0,0,1-.5-2.62.264.264,0,1,1,.523-.067,21.705,21.705,0,0,0,.487,2.557.264.264,0,0,1-.191.321A.27.27,0,0,1,3328.633,1180.563Zm77.078-3.482a.264.264,0,0,1-.24-.374c.361-.792.7-1.606,1.013-2.42a.264.264,0,1,1,.493.188c-.314.824-.659,1.649-1.025,2.451A.264.264,0,0,1,3405.711,1177.081Zm-77.755-2.263a.264.264,0,0,1-.264-.266,25.607,25.607,0,0,1,.166-2.662.264.264,0,1,1,.525.06,25.091,25.091,0,0,0-.163,2.607A.264.264,0,0,1,3327.956,1174.818Zm79.79-3.173a.252.252,0,0,1-.075-.011.264.264,0,0,1-.178-.328c.247-.833.471-1.686.666-2.537a.264.264,0,0,1,.515.118c-.2.862-.424,1.726-.674,2.57A.265.265,0,0,1,3407.746,1171.645Zm-79.087-2.583a.256.256,0,0,1-.059-.007.265.265,0,0,1-.2-.316c.194-.845.431-1.709.7-2.567a.264.264,0,0,1,.5.16c-.269.845-.5,1.695-.692,2.525A.264.264,0,0,1,3328.658,1169.062Zm80.349-3.084a.276.276,0,0,1-.04,0,.264.264,0,0,1-.222-.3c.13-.86.235-1.736.312-2.605a.264.264,0,1,1,.526.047c-.077.88-.184,1.767-.315,2.638A.264.264,0,0,1,3409.007,1165.978Zm.474-5.786a.265.265,0,0,1-.264-.268q0-.291,0-.58c0-.68-.017-1.368-.049-2.044a.264.264,0,0,1,.251-.277.268.268,0,0,1,.276.251c.033.685.05,1.381.05,2.069q0,.293,0,.587A.264.264,0,0,1,3409.481,1160.193Zm-.317-5.8a.264.264,0,0,1-.262-.232c-.108-.867-.244-1.739-.4-2.59a.264.264,0,1,1,.519-.1c.163.863.3,1.745.41,2.624a.264.264,0,0,1-.229.294Zm-1.117-5.694a.265.265,0,0,1-.255-.2c-.229-.844-.488-1.688-.771-2.506a.264.264,0,1,1,.5-.172c.287.83.55,1.685.783,2.541a.265.265,0,0,1-.255.333Zm-1.937-5.472a.264.264,0,0,1-.241-.157c-.357-.8-.745-1.594-1.152-2.353a.264.264,0,1,1,.465-.25c.414.77.808,1.574,1.17,2.389a.264.264,0,0,1-.242.371Zm-15.993-4.863a.254.254,0,0,1-.046,0,4.932,4.932,0,0,1-1.828-.711,5.722,5.722,0,0,1-.646-.485.264.264,0,0,1,.347-.4,5.158,5.158,0,0,0,.586.44,4.409,4.409,0,0,0,1.633.635.264.264,0,0,1-.046.524Zm13.2-.222a.264.264,0,0,1-.219-.117c-.492-.732-1.014-1.44-1.552-2.107a.264.264,0,1,1,.411-.332c.548.678,1.08,1.4,1.58,2.144a.264.264,0,0,1-.219.411Zm-10.075-.065a.264.264,0,0,1-.082-.515,10.4,10.4,0,0,0,2.318-1.106.264.264,0,1,1,.281.447,10.931,10.931,0,0,1-2.437,1.162A.264.264,0,0,1,3393.24,1138.082Zm4.853-3.1a.264.264,0,0,1-.185-.453c.413-.4.814-.835,1.2-1.293-.523-.526-1.044-1.016-1.553-1.461a.264.264,0,0,1,.348-.4c.5.442,1.022.928,1.542,1.447q.1-.12.19-.243a.264.264,0,0,1,.419.322c-.078.1-.156.2-.235.3l.01.011a.264.264,0,0,1-.346.4c-.387.458-.79.891-1.205,1.3A.263.263,0,0,1,3398.093,1134.978Zm-11.993-.387a.263.263,0,0,1-.253-.191,6.167,6.167,0,0,1-.245-1.722,5.984,5.984,0,0,1,.085-1.01.264.264,0,1,1,.521.089,5.49,5.49,0,0,0-.077.921,5.632,5.632,0,0,0,.223,1.575.264.264,0,0,1-.254.338Zm15.478-4.236a.264.264,0,0,1-.231-.392,22.339,22.339,0,0,0,1.126-2.353.264.264,0,0,1,.489.2,22.882,22.882,0,0,1-1.153,2.409A.265.265,0,0,1,3401.578,1130.354Zm-6.366-.438a.264.264,0,0,1-.143-.042,12.739,12.739,0,0,0-2.291-1.19.264.264,0,0,1,.19-.493,13.3,13.3,0,0,1,2.387,1.239.264.264,0,0,1-.143.486Zm-7.818-.693a.264.264,0,0,1-.177-.46,4.356,4.356,0,0,1,2.532-1.094.264.264,0,1,1,.053.526,3.837,3.837,0,0,0-2.232.961A.262.262,0,0,1,3387.394,1129.224Zm16.32-4.256a.265.265,0,0,1-.256-.33,23.969,23.969,0,0,0,.515-2.559.264.264,0,1,1,.522.076,24.633,24.633,0,0,1-.525,2.616A.265.265,0,0,1,3403.714,1124.968Zm.774-5.743a.266.266,0,0,1-.265-.269q0-.217,0-.436c0-.719-.031-1.451-.093-2.175a.264.264,0,0,1,.527-.044c.062.74.094,1.486.094,2.22q0,.224,0,.445A.265.265,0,0,1,3404.488,1119.225Zm-.54-5.774a.264.264,0,0,1-.258-.212c-.171-.841-.384-1.694-.635-2.536a.27.27,0,0,1-.011-.077.264.264,0,0,1,.519-.069c.255.856.472,1.723.645,2.578a.264.264,0,0,1-.207.311A.253.253,0,0,1,3403.948,1113.451Zm-1.689-5.548a.264.264,0,0,1-.245-.164c-.336-.821-.706-1.618-1.1-2.369a.264.264,0,1,1,.468-.246c.4.766.78,1.578,1.122,2.415a.264.264,0,0,1-.244.364Zm-2.761-5.092a.264.264,0,0,1-.216-.111,21.307,21.307,0,0,0-1.631-2.03.264.264,0,1,1,.39-.356,21.627,21.627,0,0,1,1.672,2.081.264.264,0,0,1-.215.417Zm-3.961-4.218a.264.264,0,0,1-.165-.058,19.418,19.418,0,0,0-2.139-1.481.264.264,0,1,1,.271-.454,19.928,19.928,0,0,1,2.2,1.521.264.264,0,0,1-.165.471Zm-5.006-2.9a.26.26,0,0,1-.1-.019,21.655,21.655,0,0,0-2.475-.821.264.264,0,0,1,.136-.51,22.172,22.172,0,0,1,2.536.841.264.264,0,0,1-.1.509Zm-14.028-1.173a.264.264,0,0,1-.062-.521,20.092,20.092,0,0,1,2.651-.386.264.264,0,1,1,.046.526,20.051,20.051,0,0,0-2.575.374A.258.258,0,0,1,3376.5,1094.517Zm8.414-.268-.034,0c-.852-.11-1.729-.178-2.607-.2a.264.264,0,1,1,.015-.528c.9.025,1.792.1,2.66.208a.264.264,0,0,1-.034.526Z" transform="translate(-3327.692 -1093.516)" fill="#464649"/>
      </g>
      <g id="Group_1107921" data-name="Group 1107921" transform="translate(167.944 0)">
        <path id="Path_882561" data-name="Path 882561" d="M3755.5,1070.524l13.79-4.682-.534,2.633Z" transform="translate(-3755.221 -1065.842)" fill="#464649"/>
        <path id="Path_882562" data-name="Path 882562" d="M3751.933,1110.528l13.323-1.84,1.849,5.016Z" transform="translate(-3751.933 -1105.293)" fill="#464649"/>
      </g>
    </g>
    <g id="Group_1107945" data-name="Group 1107945" transform="translate(639.901 364.146)">
      <g id="Group_1107927" data-name="Group 1107927" transform="translate(24.01)">
        <g id="Group_1107923" data-name="Group 1107923" transform="translate(6.957)">
          <path id="Path_882563" data-name="Path 882563" d="M1037.25,772.368h-.013c-1.819-.007-3.487-1.472-4.7-4.125a23.005,23.005,0,0,1-1.762-9.384c.029-7.552,2.905-13.459,6.55-13.459h.013c1.819.007,3.487,1.472,4.7,4.125a25.363,25.363,0,0,1-.071,18.754C1040.739,770.917,1039.064,772.368,1037.25,772.368Zm.077-25.875c-2.933,0-5.432,5.661-5.457,12.371a21.9,21.9,0,0,0,1.663,8.926c1.009,2.21,2.361,3.481,3.709,3.486h.008c1.345,0,2.7-1.26,3.727-3.458a24.3,24.3,0,0,0,.068-17.839c-1.009-2.21-2.36-3.481-3.708-3.486Z" transform="translate(-1030.777 -745.401)" fill="#dadfe0"/>
        </g>
        <g id="Group_1107924" data-name="Group 1107924" transform="translate(2.836 2.872)">
          <path id="Path_882564" data-name="Path 882564" d="M995.933,802.87c-3.063,0-7.323-2.19-11.146-6a23.007,23.007,0,0,1-5.371-7.894c-1.013-2.735-.864-4.95.421-6.238,2.578-2.585,8.791-.428,14.145,4.911a23,23,0,0,1,5.371,7.894c1.013,2.735.864,4.95-.421,6.238A4.091,4.091,0,0,1,995.933,802.87Zm-13.106-20.139a3.025,3.025,0,0,0-2.217.777c-.952.955-1.014,2.809-.17,5.087a21.9,21.9,0,0,0,5.118,7.5c4.756,4.743,10.526,6.993,12.6,4.913.952-.955,1.014-2.809.17-5.087a21.907,21.907,0,0,0-5.118-7.5C989.662,784.883,985.549,782.732,982.828,782.732Z" transform="translate(-978.752 -781.646)" fill="#dadfe0"/>
        </g>
        <g id="Group_1107925" data-name="Group 1107925" transform="translate(2.836 2.869)">
          <path id="Path_882565" data-name="Path 882565" d="M982.837,802.842a4.089,4.089,0,0,1-3-1.091c-1.284-1.288-1.434-3.5-.421-6.238A25.365,25.365,0,0,1,992.7,782.271c2.737-1.005,4.952-.85,6.236.438s1.434,3.5.421,6.238a23,23,0,0,1-5.371,7.894C990.16,800.652,985.9,802.842,982.837,802.842Zm13.093-20.129a8.467,8.467,0,0,0-2.857.583,24.3,24.3,0,0,0-12.632,12.6c-.844,2.278-.782,4.132.17,5.087a3.026,3.026,0,0,0,2.217.777c2.721,0,6.834-2.151,10.383-5.69a21.907,21.907,0,0,0,5.118-7.5c.844-2.278.782-4.132-.17-5.087A3.055,3.055,0,0,0,995.93,782.713Z" transform="translate(-978.752 -781.615)" fill="#dadfe0"/>
        </g>
        <g id="Group_1107926" data-name="Group 1107926" transform="translate(0 6.939)">
          <path id="Path_882566" data-name="Path 882566" d="M955.2,846.074a21.843,21.843,0,0,1-7.881-1.325c-2.711-1.074-4.259-2.666-4.359-4.482-.2-3.646,5.557-6.825,13.107-7.239a23.01,23.01,0,0,1,9.461,1.281c2.711,1.074,4.259,2.666,4.359,4.482.2,3.645-5.557,6.825-13.107,7.239C956.253,846.059,955.725,846.074,955.2,846.074Zm2.454-12q-.755,0-1.527.042c-6.707.368-12.237,3.156-12.076,6.089.074,1.346,1.412,2.631,3.67,3.526a21.912,21.912,0,0,0,9,1.206c6.707-.368,12.237-3.156,12.076-6.089-.074-1.346-1.411-2.631-3.67-3.526A20.735,20.735,0,0,0,957.658,834.076Z" transform="translate(-942.959 -832.984)" fill="#dadfe0"/>
        </g>
        <path id="Path_882567" data-name="Path 882567" d="M1090.4,891.4a2.132,2.132,0,1,1,2.131,2.164A2.148,2.148,0,0,1,1090.4,891.4Z" transform="translate(-1078.714 -877.836)" fill="#dadfe0"/>
        <path id="Path_882568" data-name="Path 882568" d="M1213.927,1013a1.205,1.205,0,1,1,1.205,1.223A1.215,1.215,0,0,1,1213.927,1013Z" transform="translate(-1192.459 -990.673)" fill="#dadfe0"/>
        <path id="Path_882569" data-name="Path 882569" d="M979.566,785.776A1.205,1.205,0,1,1,980.771,787,1.215,1.215,0,0,1,979.566,785.776Z" transform="translate(-976.666 -781.451)" fill="#dadfe0"/>
        <path id="Path_882570" data-name="Path 882570" d="M1169.93,872.106a1.452,1.452,0,1,1,1.452,1.474A1.463,1.463,0,0,1,1169.93,872.106Z" transform="translate(-1151.948 -860.711)" fill="#dadfe0"/>
        <path id="Path_882571" data-name="Path 882571" d="M973.972,961.645a1.206,1.206,0,1,1,1.205,1.223A1.214,1.214,0,0,1,973.972,961.645Z" transform="translate(-971.515 -943.387)" fill="#dadfe0"/>
      </g>
      <g id="Group_1107930" data-name="Group 1107930" transform="translate(32.785 35.369)">
        <path id="Path_882572" data-name="Path 882572" d="M1055,1260.86l17.081,2.158-1.282,10.149-17.081-2.159Z" transform="translate(-1053.718 -1255.391)" fill="#dadfe0"/>
        <path id="Path_882573" data-name="Path 882573" d="M1069.205,1238.6l6.683.845,1.555,2.626L1068.9,1241Z" transform="translate(-1067.7 -1234.899)" fill="#dadfe0"/>
        <g id="Group_1107928" data-name="Group 1107928" transform="translate(1.223 1.062)">
          <path id="Path_882574" data-name="Path 882574" d="M1080.615,1218.06a.333.333,0,0,1-.128-.044l-11.213-6.718a.2.2,0,0,1-.069-.307l5.084-5.663a.273.273,0,0,1,.175-.083.336.336,0,0,1,.2.045l11.212,6.717a.2.2,0,0,1,.07.308l-5.084,5.663a.271.271,0,0,1-.175.083A.349.349,0,0,1,1080.615,1218.06Zm-10.805-6.972,10.763,6.448,4.774-5.318-10.763-6.448Z" transform="translate(-1069.157 -1205.244)" fill="#dadfe0"/>
        </g>
        <g id="Group_1107929" data-name="Group 1107929" transform="translate(7.695)">
          <path id="Path_882575" data-name="Path 882575" d="M1160.882,1199.8l-7-7.437-2.7,1.581-.338-.359,2.916-1.706a.3.3,0,0,1,.2-.036.311.311,0,0,1,.182.09l7.164,7.616Z" transform="translate(-1150.847 -1191.836)" fill="#dadfe0"/>
        </g>
      </g>
      <path id="Path_882576" data-name="Path 882576" d="M641.662,1528.65a9.1,9.1,0,0,0,11.693,2.32l6.654,8.834a.292.292,0,0,0,.408.057l1.729-1.3a.292.292,0,0,0,.058-.408l-6.654-8.833a9.024,9.024,0,1,0-13.888-.667Zm13.2-9.94a7.207,7.207,0,1,1-9.939-1.223A7.082,7.082,0,0,1,654.857,1518.71Z" transform="translate(-639.901 -1453.041)" fill="#dadfe0"/>
      <g id="Group_1107934" data-name="Group 1107934" transform="translate(96.676 136.289)">
        <g id="Group_1107931" data-name="Group 1107931" transform="translate(16.53)">
          <path id="Path_882577" data-name="Path 882577" d="M2069.835,2471.566c-1.012-2.46-1.547-5.335-.331-5.835s2.859,1.919,3.871,4.379,1.547,5.335.331,5.835S2070.847,2474.025,2069.835,2471.566Zm2.833-1.165c-1.194-2.9-2.555-4.093-2.873-3.962s-.447,1.934.748,4.837,2.554,4.093,2.872,3.962S2073.862,2473.3,2072.668,2470.4Z" transform="translate(-2068.803 -2465.664)" fill="#dadfe0"/>
        </g>
        <g id="Group_1107932" data-name="Group 1107932" transform="translate(9.639 3.148)">
          <path id="Path_882578" data-name="Path 882578" d="M1982.5,2511.279c-1.144-2.78-.5-3.651-.364-3.8a.379.379,0,0,1,.174-.1c2.486-.693,6.331-1.785,6.733-1.955a.383.383,0,0,1,.3.706c-.544.229-5.57,1.636-6.671,1.943-.086.237-.235,1.033.539,2.915s1.373,2.176,1.524,2.223l6.135-3.265a.383.383,0,0,1,.36.676l-6.226,3.313a.371.371,0,0,1-.082.032,1.056,1.056,0,0,1-.9-.293A6.018,6.018,0,0,1,1982.5,2511.279Z" transform="translate(-1981.834 -2505.394)" fill="#dadfe0"/>
        </g>
        <g id="Group_1107933" data-name="Group 1107933" transform="translate(7.059 1.85)">
          <path id="Path_882579" data-name="Path 882579" d="M1950.648,2496.819c-1.388-3.374-2.013-7.111-.522-7.725.951-.391,2.274.689,3.63,2.965a.383.383,0,1,1-.657.392c-1.317-2.21-2.325-2.795-2.681-2.648-.264.109-.473.785-.346,2.051a19.878,19.878,0,0,0,3.661,8.9c.8.989,1.424,1.322,1.688,1.213.438-.18.637-1.435.042-3.766a.383.383,0,1,1,.741-.189c.665,2.6.49,4.259-.493,4.663C1954.222,2503.288,1952.036,2500.193,1950.648,2496.819Z" transform="translate(-1949.266 -2489.016)" fill="#dadfe0"/>
        </g>
        <path id="Path_882580" data-name="Path 882580" d="M1868.479,2575.77l-8.317,4.4,8.993-2.424Z" transform="translate(-1860.163 -2567.047)" fill="#dadfe0"/>
        <path id="Path_882581" data-name="Path 882581" d="M2049.415,2513.881l-2.361,6.174,4-2.079Z" transform="translate(-2032.247 -2510.061)" fill="#dadfe0"/>
      </g>
      <g id="Group_1107938" data-name="Group 1107938" transform="translate(100.916 106.944)">
        <g id="Group_1107935" data-name="Group 1107935">
          <path id="Path_882582" data-name="Path 882582" d="M1939.077,2106.117h-.045l-24.82-1.926a.578.578,0,0,1-.2-1.1l16.291-7.776a.572.572,0,0,1,.311-.053l19.6,2.1a.579.579,0,0,1,.265,1.052l-11.07,7.6A.578.578,0,0,1,1939.077,2106.117Zm-22.619-2.913,22.461,1.742,9.613-6.6-17.882-1.919Z" transform="translate(-1913.679 -2095.259)" fill="#dadfe0"/>
        </g>
        <path id="Path_882583" data-name="Path 882583" d="M2028.977,2189.156l-.072,3.908,16.485,1.344,4.727-2.532-.5-4.469-4.516,3Z" transform="translate(-2019.776 -2180.105)" fill="#dadfe0"/>
        <g id="Group_1107936" data-name="Group 1107936" transform="translate(0.097 7.714)">
          <path id="Path_882584" data-name="Path 882584" d="M1915.983,2202.146a.568.568,0,0,1-.114-.011.579.579,0,0,1-.454-.68,10.9,10.9,0,0,0-.394-5.641,4.217,4.217,0,0,1,.1-2.247c.253-.755.472-.846.589-.894a.59.59,0,0,1,.489.016.668.668,0,0,1,.321.829l0,.01a.579.579,0,0,1-.319.468,3.114,3.114,0,0,0-.065,1.485,11.96,11.96,0,0,1,.42,6.2A.578.578,0,0,1,1915.983,2202.146Z" transform="translate(-1914.909 -2192.627)" fill="#dadfe0"/>
        </g>
        <g id="Group_1107937" data-name="Group 1107937" transform="translate(17.187 4.247)">
          <path id="Path_882585" data-name="Path 882585" d="M2133.3,2151.554c-.038,0-1.976-.028-2.523-.834a.892.892,0,0,1-.084-.854c.3-.737,1.863-1.079,2.379-.983a.608.608,0,0,1,.492.509.838.838,0,0,1-.463.794.579.579,0,0,1-.672-.1,3.574,3.574,0,0,0-.382.119,5.306,5.306,0,0,0,1.237.2.578.578,0,1,1,.016,1.157Z" transform="translate(-2130.618 -2148.867)" fill="#dadfe0"/>
        </g>
      </g>
      <path id="Path_882586" data-name="Path 882586" d="M2842.688,2037.32l6.281-6.664,12.861,12.122-6.992-.1.71,6.767Z" transform="translate(-2668.17 -1928.831)" fill="#dadfe0"/>
      <g id="Group_1107939" data-name="Group 1107939" transform="translate(128.812 141.546)">
        <path id="Path_882587" data-name="Path 882587" d="M2274.47,2549.376a8.681,8.681,0,1,1,8.681-8.681A8.691,8.691,0,0,1,2274.47,2549.376Zm0-15.909a7.229,7.229,0,1,0,7.229,7.228A7.237,7.237,0,0,0,2274.47,2533.467Z" transform="translate(-2265.789 -2532.014)" fill="#dadfe0"/>
        <path id="Path_882588" data-name="Path 882588" d="M2282.425,2634.293h-15.909a.726.726,0,1,1,0-1.452h15.909a.726.726,0,1,1,0,1.452Z" transform="translate(-2265.789 -2624.852)" fill="#dadfe0"/>
        <path id="Path_882589" data-name="Path 882589" d="M2315.376,2549.374a.727.727,0,0,1-.235-.039c-.422-.136-4.9-1.745-4.962-8.6-.059-6.91,4.587-8.56,4.965-8.682a.724.724,0,0,1,.4-.019l.01,0a6.959,6.959,0,0,1,2.825,1.62c1.241,1.15,2.7,3.314,2.587,7.094-.208,7.079-4.956,8.486-5.389,8.6A.731.731,0,0,1,2315.376,2549.374Zm.726-15.562v13.744c1.226-.69,3.279-2.491,3.407-6.851C2319.639,2536.317,2317.4,2534.5,2316.1,2533.812Zm-1.452.1c-1.184.778-3.053,2.664-3.018,6.808.035,4.123,1.857,5.985,3.018,6.754Z" transform="translate(-2306.663 -2532.012)" fill="#dadfe0"/>
        <path id="Path_882590" data-name="Path 882590" d="M2285,2673.669a.726.726,0,0,1-.448-1.3c1.022-.8,3.059-1.755,6.959-1.755h.012c3.97,0,5.95.922,6.911,1.693a.726.726,0,1,1-.909,1.133c-.638-.512-2.267-1.372-6-1.374h-.012c-3.67,0-5.374.905-6.064,1.446A.723.723,0,0,1,2285,2673.669Z" transform="translate(-2282.809 -2659.635)" fill="#dadfe0"/>
        <path id="Path_882591" data-name="Path 882591" d="M2291.948,2577.763c-3.977,0-6.03-1.05-6.9-1.676a.726.726,0,1,1,.848-1.179c.728.524,2.482,1.4,6.051,1.4h.011c3.737,0,5.365-.86,6-1.372a.726.726,0,1,1,.909,1.133c-.96.771-2.939,1.689-6.911,1.691Z" transform="translate(-2283.244 -2571.384)" fill="#dadfe0"/>
      </g>
      <g id="Group_1107940" data-name="Group 1107940" transform="translate(180.859 127.269)">
        <path id="Path_882592" data-name="Path 882592" d="M2955.424,2364.179h-31.909a.789.789,0,0,1-.789-.789v-10.8a.789.789,0,0,1,.789-.789h31.909a.789.789,0,0,1,.789.789v10.8A.789.789,0,0,1,2955.424,2364.179ZM2924.3,2362.6h30.332v-9.221H2924.3Z" transform="translate(-2922.726 -2351.803)" fill="#dadfe0"/>
        <path id="Path_882593" data-name="Path 882593" d="M2960.088,2393.016h-5.945a.789.789,0,0,1-.789-.789v-5.945a.789.789,0,0,1,.789-.789h5.945a.789.789,0,0,1,.789.789v5.945A.789.789,0,0,1,2960.088,2393.016Zm-5.156-1.577h4.368v-4.368h-4.368Z" transform="translate(-2950.928 -2382.825)" fill="#dadfe0"/>
        <path id="Path_882594" data-name="Path 882594" d="M3075.19,2428.419h-18.442a.789.789,0,0,1,0-1.577h18.442a.789.789,0,0,1,0,1.577Z" transform="translate(-3045.404 -2420.897)" fill="#dadfe0"/>
        <path id="Path_882595" data-name="Path 882595" d="M2971.278,2403.645a.424.424,0,0,1-.361-.2l-2.184-3.519a.425.425,0,0,1,.722-.448l2.184,3.519a.424.424,0,0,1-.137.585A.419.419,0,0,1,2971.278,2403.645Z" transform="translate(-2965.029 -2395.516)" fill="#dadfe0"/>
        <path id="Path_882596" data-name="Path 882596" d="M2996.658,2378.264a.425.425,0,0,1-.344-.673l4.125-5.7a.425.425,0,1,1,.688.5l-4.125,5.7A.424.424,0,0,1,2996.658,2378.264Z" transform="translate(-2990.41 -2370.135)" fill="#dadfe0"/>
      </g>
      <g id="Group_1107941" data-name="Group 1107941" transform="translate(146.642 104.363)">
        <path id="Path_882597" data-name="Path 882597" d="M2497.633,2062.691a7.04,7.04,0,0,0-1.512.167l-.311.872a.9.9,0,0,1-1.254.519l-.8-.381a6.717,6.717,0,0,0-1.791,1.77l.388.817a.9.9,0,0,1-.521,1.254l-.873.311a6.282,6.282,0,0,0,0,2.494l.873.311a.9.9,0,0,1,.521,1.254l-.388.817a6.719,6.719,0,0,0,1.791,1.77l.8-.382a.9.9,0,0,1,1.254.519l.311.875a7.01,7.01,0,0,0,1.512.165,7.087,7.087,0,0,0,.948-.065l.346-.974a.9.9,0,0,1,1.254-.519l1.106.528a6.752,6.752,0,0,0,1.691-1.483l-.593-1.249a.9.9,0,0,1,.519-1.254l1.441-.511a6.289,6.289,0,0,0,0-2.093l-1.441-.512a.9.9,0,0,1-.519-1.254l.593-1.25a6.755,6.755,0,0,0-1.691-1.481l-1.106.525a.9.9,0,0,1-1.254-.519l-.346-.973A7.087,7.087,0,0,0,2497.633,2062.691Zm0,4.8a1.776,1.776,0,1,1-1.868,1.774A1.824,1.824,0,0,1,2497.633,2067.492Z" transform="translate(-2490.833 -2062.691)" fill="#dadfe0"/>
      </g>
      <g id="Group_1107942" data-name="Group 1107942" transform="translate(220.586 108.193)">
        <path id="Path_882598" data-name="Path 882598" d="M3428.987,2111.024a4.993,4.993,0,0,0-1.072.118l-.22.618a.635.635,0,0,1-.889.368l-.568-.27a4.761,4.761,0,0,0-1.269,1.254l.275.579a.635.635,0,0,1-.369.888l-.619.22a4.452,4.452,0,0,0,0,1.768l.619.22a.635.635,0,0,1,.369.889l-.275.579a4.768,4.768,0,0,0,1.269,1.254l.568-.271a.634.634,0,0,1,.889.368l.22.62a4.977,4.977,0,0,0,1.072.117,5.031,5.031,0,0,0,.671-.046l.246-.691a.634.634,0,0,1,.889-.368l.784.374a4.786,4.786,0,0,0,1.2-1.051l-.421-.885a.634.634,0,0,1,.368-.889l1.022-.363a4.465,4.465,0,0,0,0-1.483l-1.022-.363a.634.634,0,0,1-.368-.888l.421-.886a4.783,4.783,0,0,0-1.2-1.05l-.784.372a.635.635,0,0,1-.889-.368l-.246-.689A5.031,5.031,0,0,0,3428.987,2111.024Zm0,3.4a1.259,1.259,0,1,1-1.324,1.258A1.293,1.293,0,0,1,3428.987,2114.427Z" transform="translate(-3424.167 -2111.024)" fill="#dadfe0"/>
      </g>
      <g id="Group_1107944" data-name="Group 1107944" transform="translate(10.99 34.718)">
        <path id="Path_882599" data-name="Path 882599" d="M779.98,1218.443a1.367,1.367,0,0,0-1.367,1.368v9.166a1.366,1.366,0,0,0,1.367,1.367h9.127a1.366,1.366,0,0,0,1.367-1.367v-9.166a1.367,1.367,0,0,0-1.367-1.368Zm.859,1.12h7.408a1.111,1.111,0,0,1,1.111,1.111v7.44a1.11,1.11,0,0,1-1.111,1.11h-7.408a1.11,1.11,0,0,1-1.11-1.11v-7.44A1.111,1.111,0,0,1,780.839,1219.563Z" transform="translate(-778.613 -1215.684)" fill="#dadfe0"/>
        <g id="Group_1107943" data-name="Group 1107943" transform="translate(2.474)">
          <path id="Path_882600" data-name="Path 882600" d="M813.08,1196.443a.538.538,0,0,1-.455-.251l-2.706-4.3a.538.538,0,1,1,.91-.573l2.2,3.493,5.467-10.9a.538.538,0,1,1,.961.482l-5.895,11.752a.538.538,0,0,1-.454.3Z" transform="translate(-809.836 -1183.617)" fill="#dadfe0"/>
        </g>
      </g>
    </g>
    <g id="Group_1107957" data-name="Group 1107957" transform="translate(650.667 421.904)">
      <path id="Path_882601" data-name="Path 882601" d="M818.674,2260.35l-8.4-9.567-14.839,3.9s-.5,7.029,18.593,13.668Z" transform="translate(-793.882 -2189.275)" fill="#6b4d6f"/>
      <path id="Path_882602" data-name="Path 882602" d="M1380.7,2497.233s2.538,13.277-25.969,29.678l-12.1-6.992Z" transform="translate(-1297.718 -2416.2)" fill="#221a18"/>
      <path id="Path_882603" data-name="Path 882603" d="M780.666,2563.774s2.538,14.644,18.761,24.2l10.136-.769Z" transform="translate(-780.281 -2477.469)" fill="#5d5b72"/>
      <path id="Path_882604" data-name="Path 882604" d="M795.219,1873.842s-1.953-32.217,32.607-37.1l-12.106,24.016-5.662,8.786Z" transform="translate(-793.662 -1808.039)" fill="#6b4d6f"/>
      <path id="Path_882605" data-name="Path 882605" d="M882.592,2220.715l-10.739.82,10.739,2.538Z" transform="translate(-864.243 -2161.589)" fill="#221a18"/>
      <path id="Path_882606" data-name="Path 882606" d="M1453.248,1881.869s2.75-32.849-31.81-37.731l11.309,24.649,5.662,8.786Z" transform="translate(-1370.287 -1814.847)" fill="#6b4d6f"/>
      <path id="Path_882607" data-name="Path 882607" d="M1529.672,2275.728l8.4-9.568,14.839,3.905s.5,7.029-18.593,13.668Z" transform="translate(-1469.946 -2203.434)" fill="#6b4d6f"/>
      <path id="Path_882608" data-name="Path 882608" d="M1608.741,2242.7l10.739.82-10.739,2.538Z" transform="translate(-1542.75 -2181.831)" fill="#221a18"/>
      <path id="Path_882609" data-name="Path 882609" d="M1065.855,1882.383l-42.565.781s-6.943-38.878,0-47.837c6.053-7.81,36.936-5.3,38.855-.391C1067.027,1847.433,1065.855,1882.383,1065.855,1882.383Z" transform="translate(-1000.841 -1802.131)" fill="#6b4d6f"/>
      <g id="Group_1107946" data-name="Group 1107946" transform="translate(18.99 33.374)">
        <path id="Path_882610" data-name="Path 882610" d="M1019.118,1919.218l-.528-.006c.192-16.322-3.065-23.244-3.1-23.312l.475-.231C1016,1895.738,1019.311,1902.749,1019.118,1919.218Z" transform="translate(-1015.492 -1895.669)" fill="#432b47"/>
      </g>
      <g id="Group_1107947" data-name="Group 1107947" transform="translate(58.528 31.843)">
        <path id="Path_882611" data-name="Path 882611" d="M1514.559,1901.422c-.193-16.451,2.586-24.984,2.614-25.068l.5.167c-.028.084-2.779,8.545-2.587,24.9Z" transform="translate(-1514.549 -1876.354)" fill="#432b47"/>
      </g>
      <path id="Path_882612" data-name="Path 882612" d="M982.756,2130.876l51.547-3.319.487,6.386Z" transform="translate(-966.36 -2075.812)" fill="#221a18"/>
      <path id="Path_882613" data-name="Path 882613" d="M1084.836,2726.466l-14.41,9.3,7.479,7.114,19.225-8.642Z" transform="translate(-1047.084 -2627.272)" fill="#fec0a4"/>
      <path id="Path_882614" data-name="Path 882614" d="M1030.134,2485.87l48.52,1.642-30.918,17.42Z" transform="translate(-1009.985 -2405.737)" fill="#221a18"/>
      <path id="Path_882615" data-name="Path 882615" d="M1204.651,1778.768l-.391,5.076s-.781,6.248,6.248,6.248c6.443,0,5.077-7.224,5.077-7.224l-.2-5.272Z" transform="translate(-1170.292 -1753.577)" fill="#f4b184"/>
      <path id="Path_882616" data-name="Path 882616" d="M1545.025,2300.1l1.661,10.93-5.095,3.823Z" transform="translate(-1480.922 -2234.682)" fill="#221a18"/>
      <path id="Path_882617" data-name="Path 882617" d="M1007.4,2171.406c.391-.2,46.665-1.953,46.665-1.953v1.953Z" transform="translate(-989.052 -2114.389)" fill="#221a18"/>
      <path id="Path_882618" data-name="Path 882618" d="M1114.466,1491.609s-1.305-7.342-.49-9.137,1.632.163,2.121-.652-.163-3.426,2.611-5.221,4.079-.163,5.384-.979a12.562,12.562,0,0,1,6.2-1.142c2.121.326,4.079,1.631,3.263,4.079-.825,2.477,2.448-.163,3.426,3.753a26.455,26.455,0,0,1,.326,9.3Z" transform="translate(-1086.938 -1474.424)" fill="#9e633b"/>
      <path id="Path_882619" data-name="Path 882619" d="M1376.995,1651.512s4.923-.781,4.753,3.294c-.163,3.916-4.895,2.611-4.895,2.611Z" transform="translate(-1329.234 -1637.427)" fill="#f4b184"/>
      <path id="Path_882620" data-name="Path 882620" d="M1220.317,1807.49l-10.827.551v.687c.428,1.127,1.73,3.28,5.467,3.423a5.34,5.34,0,0,0,5.41-3.3Z" transform="translate(-1175.131 -1781.103)" fill="#221a18"/>
      <path id="Path_882621" data-name="Path 882621" d="M1150.556,1530.761s-1.161,10.827,3.375,15.735c1.383,1.5,3.459,2.148,6.053,2.148,3.773,0,6.036-1.46,7.344-3.606,2.878-4.722,1.135-12.768.686-15.909C1168.014,1529.13,1157.408,1516.24,1150.556,1530.761Z" transform="translate(-1120.743 -1519.939)" fill="#f4b184"/>
      <path id="Path_882622" data-name="Path 882622" d="M1109.089,1658.465s-4.575-.812-4.405,3.263c.163,3.916,4.895,2.61,4.895,2.61Z" transform="translate(-1078.623 -1643.824)" fill="#f4b184"/>
      <path id="Path_882623" data-name="Path 882623" d="M1142.314,1521.244a2.179,2.179,0,0,0,1.015-1.724c.163-1.305,0-2.121,1.305-2.611s4.895-.838,4.895-3.263c0-1.958,3.1-1.632,4.732-1.142s3.566,2.283,3.916.816c.428-1.8-5.221-4.895-7.669-4.242s-8.158,3.589-8.811,7.505S1142.314,1521.244,1142.314,1521.244Z" transform="translate(-1112.538 -1506.251)" fill="#9e633b"/>
      <path id="Path_882624" data-name="Path 882624" d="M1031.509,2197.125l-46.277.2a.5.5,0,0,1-.517-.468l-1.959-26.9a.5.5,0,0,1,.515-.5h51.3a.5.5,0,0,1,.515.511l-3.061,26.7A.5.5,0,0,1,1031.509,2197.125Z" transform="translate(-966.36 -2114.389)" fill="#f1e9e6"/>
      <path id="Path_882625" data-name="Path 882625" d="M920.116,2819.145s-6.065.881-10.491-.594c-3.63-1.21-9.574.594-9.574,7.89,0,6.4,4.676,6.475,8.938,5.655s5.678-3.138,9.12-3.466,4.142-.9,5.29-2.371S925.525,2820.456,920.116,2819.145Z" transform="translate(-890.207 -2711.742)" fill="#464649"/>
      <path id="Path_882626" data-name="Path 882626" d="M1190.148,2414.858s14.548-11.191,26.218-19.426a87.969,87.969,0,0,0,8.074-6.111c8.829-7.453,21.227.03,13.71,12.853-7.6,12.965-40.417,23.681-40.417,24.211S1190.148,2414.858,1190.148,2414.858Z" transform="translate(-1157.321 -2314.113)" fill="#5d5b72"/>
      <path id="Path_882627" data-name="Path 882627" d="M1302.215,2793.3l12.246,3.091,3.038-8.428-9.231-4.389Z" transform="translate(-1260.509 -2679.861)" fill="#f4b184"/>
      <path id="Path_882628" data-name="Path 882628" d="M828.018,2429.47c-13.365-9.374-19.223-15.622-27.923-22.933-4.758-4-7.126-5.809-9.719-7.1-8.983-4.481-20.147,6.4-11.4,17.755,10.476,13.6,41.479,24.077,41.729,24.579C820.912,2442.182,828.018,2429.47,828.018,2429.47Z" transform="translate(-775.803 -2325.2)" fill="#858393"/>
      <path id="Path_882629" data-name="Path 882629" d="M908.993,2818.394c-3.647-.816-8.942,1.176-8.942,8.063,0,5.621,3.337,6.409,7.036,5.963a3.987,3.987,0,0,1-3.206-2.5c-.335-1.019.912-.912.73-4.2-.078-1.408-1.277-2.554-.547-4.013A5.827,5.827,0,0,1,908.993,2818.394Z" transform="translate(-890.207 -2711.759)" fill="#221a18"/>
      <path id="Path_882630" data-name="Path 882630" d="M1418.627,2822.726s6.073.823,10.484-.694c3.619-1.245,9.579.5,9.649,7.8.061,6.4-4.614,6.519-8.884,5.74s-5.708-3.083-9.153-3.379-4.151-.856-5.312-2.321S1413.23,2824.089,1418.627,2822.726Z" transform="translate(-1363.886 -2714.928)" fill="#464649"/>
      <path id="Path_882631" data-name="Path 882631" d="M1607.039,2821.869c3.639-.851,8.953,1.091,9.019,7.978.054,5.62-3.276,6.441-6.979,6.03a5.966,5.966,0,0,0,3.894-3.152c.413-1-1.373-.971-1.48-4.075-.1-2.923,1.546-2.5,1.148-3.4C1611.125,2821.808,1607.039,2821.869,1607.039,2821.869Z" transform="translate(-1541.184 -2714.944)" fill="#221a18"/>
      <g id="Group_1107948" data-name="Group 1107948" transform="translate(32.64 29.283)">
        <path id="Path_882632" data-name="Path 882632" d="M1195.459,1853.589c-2.916,0-5.043-.842-6.32-2.5-2.152-2.8-1.107-6.858-1.062-7.03l.51.135c-.01.04-1.022,3.986.972,6.575,1.172,1.522,3.157,2.294,5.9,2.294,2.713,0,4.637-.755,5.719-2.244,1.878-2.583.616-6.571.6-6.611l.5-.163c.057.174,1.359,4.28-.676,7.083C1200.42,1852.76,1198.351,1853.589,1195.459,1853.589Z" transform="translate(-1187.784 -1844.043)" fill="#432b47"/>
      </g>
      <circle id="Ellipse_11832" data-name="Ellipse 11832" cx="3.807" cy="3.807" r="3.807" transform="translate(38.752 65.193)" fill="#c4c0bf"/>
      <path id="Path_882633" data-name="Path 882633" d="M1361.973,2815.846l3.1-9.695-5.251,9.109Z" transform="translate(-1313.556 -2700.644)" fill="#221a18"/>
      <path id="Path_882634" data-name="Path 882634" d="M1210.313,1677.089c-.036.677.314,1.246.782,1.271s.916-.5.913-1.181c0-.7-.4-.667-.867-.692S1210.349,1676.411,1210.313,1677.089Z" transform="translate(-1175.886 -1660.467)"/>
      <g id="Group_1107949" data-name="Group 1107949" transform="translate(33.705 15.694)">
        <path id="Path_882635" data-name="Path 882635" d="M1201.492,1673.493a.264.264,0,0,1-.147-.484,2.809,2.809,0,0,1,2.811-.208.264.264,0,0,1-.251.464,2.281,2.281,0,0,0-2.267.183A.262.262,0,0,1,1201.492,1673.493Z" transform="translate(-1201.228 -1672.519)"/>
      </g>
      <g id="Group_1107950" data-name="Group 1107950" transform="translate(28.042 17.116)">
        <path id="Path_882636" data-name="Path 882636" d="M1130.021,1692.754a.264.264,0,0,1-.169-.467l.9-.75-.877-.585a.264.264,0,1,1,.293-.439l1.172.781a.264.264,0,0,1,.023.423l-1.172.976A.263.263,0,0,1,1130.021,1692.754Z" transform="translate(-1129.757 -1690.468)"/>
      </g>
      <g id="Group_1107951" data-name="Group 1107951" transform="translate(49.243 15.888)">
        <path id="Path_882637" data-name="Path 882637" d="M1398.789,1677.252a.262.262,0,0,1-.169-.061l-1.171-.976a.264.264,0,0,1,.022-.423l1.172-.781a.264.264,0,0,1,.293.44l-.877.585.9.75a.264.264,0,0,1-.169.467Z" transform="translate(-1397.354 -1674.966)"/>
      </g>
      <path id="Path_882638" data-name="Path 882638" d="M1311.6,1675.019c.04.74-.308,1.36-.776,1.385s-.919-.554-.919-1.294c0-.768.4-.726.864-.751S1311.562,1674.279,1311.6,1675.019Z" transform="translate(-1267.592 -1658.507)"/>
      <g id="Group_1107952" data-name="Group 1107952" transform="translate(41.662 15.525)">
        <path id="Path_882639" data-name="Path 882639" d="M1304.467,1671.359a.263.263,0,0,1-.146-.044,2.282,2.282,0,0,0-2.267-.183.264.264,0,0,1-.251-.464,2.809,2.809,0,0,1,2.811.208.264.264,0,0,1-.147.484Z" transform="translate(-1301.665 -1670.384)"/>
      </g>
      <path id="Path_882640" data-name="Path 882640" d="M1196.37,1643.936s3.2-2.189,3.905-.781C1200.861,1644.327,1196.37,1643.936,1196.37,1643.936Z" transform="translate(-1163.05 -1629.353)"/>
      <path id="Path_882641" data-name="Path 882641" d="M1304.824,1635.039s-3.905-2.343-4.3-.586c-.133.6.781.781,1.953.586A8.407,8.407,0,0,1,1304.824,1635.039Z" transform="translate(-1258.944 -1621.173)"/>
      <g id="Group_1107953" data-name="Group 1107953" transform="translate(38.195 19.459)">
        <path id="Path_882642" data-name="Path 882642" d="M1259.132,1720.834a2.328,2.328,0,0,1-1.092-.3.264.264,0,0,1,.271-.453,1.446,1.446,0,0,0,1.464.016.264.264,0,1,1,.317.422A1.565,1.565,0,0,1,1259.132,1720.834Z" transform="translate(-1257.912 -1720.044)"/>
      </g>
      <path id="Path_882643" data-name="Path 882643" d="M1239.414,1769.68a43.743,43.743,0,0,0,5.169,0,.215.215,0,0,1,.228.241,2.443,2.443,0,0,1-2.62,2.253,2.723,2.723,0,0,1-3-2.234A.215.215,0,0,1,1239.414,1769.68Z" transform="translate(-1202.473 -1746.284)" fill="#fff"/>
      <g id="Group_1107954" data-name="Group 1107954" transform="translate(39.562 94.241)">
        <path id="Path_882644" data-name="Path 882644" d="M1287.728,2673.655a.264.264,0,0,1-.137-.039c-3.489-2.132-12.24-9.126-12.328-9.2a.264.264,0,0,1,.33-.412c.088.07,8.813,7.043,12.274,9.158a.264.264,0,0,1-.138.49Z" transform="translate(-1275.163 -2663.95)" fill="#221a18"/>
      </g>
      <g id="Group_1107955" data-name="Group 1107955" transform="translate(53.272 71.686)">
        <path id="Path_882645" data-name="Path 882645" d="M1448.473,2393.1a.264.264,0,0,1-.152-.48c1.794-1.257,3.648-2.7,5.612-4.219,7.4-5.743,15.06-11.682,19.846-8.013a.264.264,0,1,1-.322.419c-4.463-3.422-11.955,2.39-19.2,8.011-1.969,1.527-3.828,2.97-5.633,4.234A.263.263,0,0,1,1448.473,2393.1Z" transform="translate(-1448.208 -2379.257)" fill="#221a18"/>
      </g>
      <g id="Group_1107956" data-name="Group 1107956" transform="translate(6.352 96.038)">
        <path id="Path_882646" data-name="Path 882646" d="M875.061,2698.84a.263.263,0,0,1-.115-.027,114.386,114.386,0,0,1-16.925-10.588,7.392,7.392,0,0,0-1.491-1.03,3.538,3.538,0,0,0,.341.683.264.264,0,1,1-.446.283c-.461-.727-.568-1.209-.317-1.433.27-.241.724-.141,2.245,1.086a113.693,113.693,0,0,0,16.824,10.524.264.264,0,0,1-.116.5Z" transform="translate(-855.976 -2686.624)" fill="#221a18"/>
      </g>
    </g>
  </g>
</svg>
