<svg xmlns="http://www.w3.org/2000/svg" width="62.504" height="62.504" viewBox="0 0 62.504 62.504">
  <g id="Group_1108012" data-name="Group 1108012" transform="translate(-279.528 -1198.868)">
    <g id="Group_1072053" data-name="Group 1072053" transform="translate(279.528 1198.868)">
      <circle id="Ellipse_4742" data-name="Ellipse 4742" cx="31.252" cy="31.252" r="31.252" transform="translate(0)" fill="#ffb12d"/>
    </g>
    <g id="Group_1108003" data-name="Group 1108003" transform="translate(-1090.614 904.952)">
      <path id="Path_882726" data-name="Path 882726" d="M1402.065,339.8c-2.528,0-5.065.125-7.584-.029a7.806,7.806,0,0,1-7.295-7.726q-.087-7.154,0-14.309a7.845,7.845,0,0,1,7.7-7.762q7.23-.124,14.464,0a7.826,7.826,0,0,1,7.691,7.712q.113,7.2,0,14.41a7.883,7.883,0,0,1-7.843,7.728c-2.376.043-4.754.008-7.131.008Zm2.891-22.279a1.454,1.454,0,0,0-1.126-1.614,1.415,1.415,0,0,0-1.572.907,4.479,4.479,0,0,0-.142.639q-1.013,5.248-2.024,10.5c-.279,1.453-.575,2.9-.816,4.362a1.36,1.36,0,0,0,1.163,1.57,1.409,1.409,0,0,0,1.573-1.11c.183-.872.343-1.748.512-2.623q.89-4.6,1.779-9.208C1404.533,319.756,1404.758,318.566,1404.956,317.524Zm-13.755,6.5a1.524,1.524,0,0,0,.008,1.738,1.4,1.4,0,0,0,.145.181c1.155,1.2,2.343,2.372,3.529,3.544a1.407,1.407,0,1,0,1.973-1.992c-.661-.672-1.334-1.332-2-2-.444-.45-.442-.747.008-1.2.687-.694,1.391-1.371,2.067-2.076a1.4,1.4,0,1,0-1.985-1.972c-1.226,1.2-2.444,2.414-3.637,3.649A1.141,1.141,0,0,0,1391.2,324.023Zm21.8,1.766a1.542,1.542,0,0,0,0-1.789,1.4,1.4,0,0,0-.131-.159c-1.156-1.2-2.343-2.372-3.529-3.543a1.406,1.406,0,1,0-1.963,2c.638.648,1.285,1.286,1.925,1.932.531.536.528.8-.016,1.348-.641.645-1.29,1.282-1.927,1.931a1.4,1.4,0,1,0,1.961,2c1.2-1.183,2.4-2.367,3.565-3.579A1.287,1.287,0,0,0,1413,325.789Z" transform="translate(0)" fill="#34054d"/>
    </g>
  </g>
</svg>
