<svg xmlns="http://www.w3.org/2000/svg" xmlns:xlink="http://www.w3.org/1999/xlink" width="98.579" height="98.578" viewBox="0 0 98.579 98.578">
  <defs>
    <clipPath id="clip-path">
      <rect id="Rectangle_401223" data-name="Rectangle 401223" width="98.579" height="98.578" transform="translate(0)" fill="#bfa9fe"/>
    </clipPath>
    <clipPath id="clip-path-2">
      <rect id="Rectangle_401223-2" data-name="Rectangle 401223" width="88.117" height="88.116" fill="#d7c9fe"/>
    </clipPath>
  </defs>
  <g id="Group_1107702" data-name="Group 1107702" transform="translate(-401.464 -1615.097)">
    <g id="Group_1100172" data-name="Group 1100172" transform="translate(-519.869 1204.092)">
      <g id="Group_1099654" data-name="Group 1099654" transform="translate(921.333 411.006)">
        <g id="Group_1099652" data-name="Group 1099652" transform="translate(0 0)" clip-path="url(#clip-path)">
          <path id="Path_873521" data-name="Path 873521" d="M98.579,76.737a21.9,21.9,0,0,1-21.84,21.84H21.84A21.9,21.9,0,0,1,0,76.737V21.84A21.9,21.9,0,0,1,21.84,0h54.9a21.9,21.9,0,0,1,21.84,21.841Z" transform="translate(0)" fill="#bfa9fe"/>
        </g>
      </g>
      <g id="Group_1099659" data-name="Group 1099659" transform="translate(926.103 416.728)">
        <g id="Group_1099652-2" data-name="Group 1099652" transform="translate(0 0)" clip-path="url(#clip-path-2)">
          <path id="Path_873521-2" data-name="Path 873521" d="M88.117,68.594A19.58,19.58,0,0,1,68.595,88.116H19.523A19.58,19.58,0,0,1,0,68.594V19.522A19.58,19.58,0,0,1,19.523,0H68.595A19.58,19.58,0,0,1,88.117,19.523Z" fill="#d7c9fe"/>
        </g>
      </g>
    </g>
    <g id="Group_1100171" data-name="Group 1100171" transform="translate(417.406 1630.901)">
      <rect id="Rectangle_401104" data-name="Rectangle 401104" width="68" height="69" transform="translate(-2.406 -0.372)" fill="none"/>
      <g id="Group_1107748" data-name="Group 1107748" transform="translate(-798.414 -363.242)">
        <path id="Path_882317" data-name="Path 882317" d="M983.485,578.3c0,.98-.527,1.774-1.176,1.774H955.657c-.649,0-1.176-.794-1.176-1.774V558.194c0-.98.526-1.775,1.176-1.775h26.653c.649,0,1.176.795,1.176,1.775Z" transform="translate(-127.283 -150.806)" fill="#ffc9dd"/>
        <path id="Path_882318" data-name="Path 882318" d="M1084.939,458.35l.2-.966-1.3-.936a3.833,3.833,0,0,0-.153-.816l.933-1.231-.544-.821-1.562.256a3.782,3.782,0,0,0-.709-.482l-.208-1.514-.966-.2-.922,1.282a3.842,3.842,0,0,0-.842.165l-1.219-.925-.822.544.258,1.575a3.766,3.766,0,0,0-.461.692l-1.537.211-.2.966,1.32.948a3.765,3.765,0,0,0,.155.777l-.954,1.257.546.822,1.625-.266a3.845,3.845,0,0,0,.635.426l.217,1.58.966.2.964-1.341a3.807,3.807,0,0,0,.751-.144l1.269.963.822-.545-.264-1.611a3.829,3.829,0,0,0,.447-.654Zm-5.369.583a2.236,2.236,0,1,1,2.637-1.747A2.236,2.236,0,0,1,1079.57,458.934Z" transform="translate(-228.864 -88.775)" fill="#a01f4e"/>
        <path id="Path_882319" data-name="Path 882319" d="M1108.024,504.517l.763-1.024-1.01-1.817a4.974,4.974,0,0,0,.273-1.041l1.773-.926-.184-1.264-1.971-.562a4.88,4.88,0,0,0-.566-.956l.594-1.889-1.024-.763-1.788.994A4.872,4.872,0,0,0,1103.8,495l-.918-1.758-1.264.184-.567,1.989a4.912,4.912,0,0,0-.921.557l-1.919-.6-.762,1.024,1.023,1.84a4.875,4.875,0,0,0-.246,1l-1.812.947.185,1.263,2.052.586a4.947,4.947,0,0,0,.51.85l-.618,1.972,1.023.763,1.87-1.04a4.826,4.826,0,0,0,.959.246l.956,1.829,1.263-.185.581-2.034a4.919,4.919,0,0,0,.885-.519Zm-6.615-2.281a2.9,2.9,0,1,1,4.055-.592A2.9,2.9,0,0,1,1101.409,502.236Z" transform="translate(-246.05 -121.975)" fill="#a01f4e"/>
        <g id="Group_1107747" data-name="Group 1107747" transform="translate(795.008 367.389)">
          <path id="Path_882320" data-name="Path 882320" d="M818.626,408.882q5.668,7.759,11.831,15.138l-.62.108a1.71,1.71,0,0,0,1.6-.506,13.933,13.933,0,0,0,1.151,8.144c-8.744.759-17.537,1.52-26.288.827q0-3.749.008-7.5l4.221-.357-4.408-8.7.579.435a10.444,10.444,0,0,1-5.535-7.2,10.332,10.332,0,0,1,2.85-8.542,136.16,136.16,0,0,0,5.377-17.475,7.782,7.782,0,0,1,1.924-10.105,7.089,7.089,0,0,1,9.854,2.057q-.282-.656-.561-1.312l24.485,5.311-1.082-.323a7.067,7.067,0,0,1,5.783-.633,5.518,5.518,0,0,1,3.639,4.382,4.54,4.54,0,0,1-2.876,4.744l.388,9-5.763.97q.251-5.146-.01-10.3a3.87,3.87,0,0,1-2.539-2.9c.184.32.369.639.553.959l-22.014-.982c.244-.472.491-.945.735-1.417a4.932,4.932,0,0,1-3.333,4.043q.315-.351.634-.7a52.849,52.849,0,0,0-4.616,15.119,6.246,6.246,0,0,1,3.514,4.9,21.244,21.244,0,0,1,.515,2.808Z" transform="translate(-799.833 -370.985)" fill="#7a19ad"/>
          <path id="Path_882321" data-name="Path 882321" d="M984.455,590.632h3.375l-1.7-5.054-1.677,5.054Zm4.126,2.253H983.7l-.928,2.782h-2.957l5.026-13.5h2.578l5.054,13.5h-2.959l-.937-2.782Z" transform="translate(-942.513 -538.745)" fill="#a01f4e"/>
          <path id="Path_882322" data-name="Path 882322" d="M1052.43,595.668h-2.781v-13.5h2.781v13.5Z" transform="translate(-998.248 -538.745)" fill="#a01f4e"/>
          <path id="Path_882324" data-name="Path 882324" d="M859.458,394.555A1.244,1.244,0,1,0,860.7,395.8a1.247,1.247,0,0,0-1.243-1.244Zm0,4.534a3.29,3.29,0,1,1,3.288-3.29,3.293,3.293,0,0,1-3.288,3.29Z" transform="translate(-843.823 -387.371)" fill="#64118f"/>
          <path id="Path_882325" data-name="Path 882325" d="M830,535.44a1.244,1.244,0,1,0,1.245,1.244A1.245,1.245,0,0,0,830,535.44Zm0,4.534a3.29,3.29,0,1,1,3.29-3.29,3.293,3.293,0,0,1-3.29,3.29Z" transform="translate(-820.309 -499.818)" fill="#64118f"/>
          <path id="Path_882326" data-name="Path 882326" d="M852.8,396.824l-3.052-4.01a1.022,1.022,0,0,0-.807-.4l-1.685-.01-.193-8.291a6.111,6.111,0,1,0-9.76-4.024l-19.411-.31a8.429,8.429,0,1,0-14.558-.1l-5.577,17.464c-.01.032-.013.065-.02.1a9.676,9.676,0,0,0,2.751,15.454.983.983,0,0,0,.047.114l3.9,7.336h-2.945a1.023,1.023,0,0,0-1.023,1.023v7.717a1.023,1.023,0,0,0,1.023,1.023h28.667a1.023,1.023,0,0,0,0-2.046H802.511v-5.672h24.14a3.212,3.212,0,0,0-.03-2.607l-12.279-16.533a9.663,9.663,0,0,0-2.89-6.019c.007-.023.016-.045.02-.068l2.862-13.9a8.455,8.455,0,0,0,1.886-1.263l21.75.347A6.143,6.143,0,0,0,839.509,384l-.1,8.349-.992-.006a1.049,1.049,0,0,0-.824.408l-3.108,4.13a1.022,1.022,0,0,0-.055,1.149l2.61,4.262a1.023,1.023,0,1,0,1.744-1.069l-2.247-3.669,2.38-3.163,1.2.007a1.017,1.017,0,0,0,.286.049h.012a1.015,1.015,0,0,0,.286-.045l7.722.047,2.307,3.032-2.483,3.757a1.022,1.022,0,1,0,1.706,1.128l2.885-4.363A1.023,1.023,0,0,0,852.8,396.824ZM810.644,369.1a6.382,6.382,0,1,1-6.383,6.382A6.389,6.389,0,0,1,810.644,369.1Zm-7.4,44.44a9.689,9.689,0,0,0,10.882-7.359l10.364,13.954H806.749Zm9.1-9.579a7.643,7.643,0,1,1-7.644-7.643A7.653,7.653,0,0,1,812.341,403.961Zm-2.687-8.32a9.671,9.671,0,0,0-9.14-.417l4.348-13.617a8.39,8.39,0,0,0,7.234,2.176Zm33.7-20.442a4.062,4.062,0,1,1-4.063,4.062A4.067,4.067,0,0,1,843.354,375.2Zm-1.811,9.9a6.1,6.1,0,0,0,3.5.035l.169,7.257-3.755-.023Z" transform="translate(-795.008 -367.055)" fill="#64118f"/>
          <path id="Path_882323" data-name="Path 882323" d="M951.607,552.31a2.878,2.878,0,0,0-2.874,2.875v16a2.878,2.878,0,0,0,2.874,2.875h21.948a2.878,2.878,0,0,0,2.874-2.875v-16a2.878,2.878,0,0,0-2.874-2.875ZM973.555,576.1H951.607a4.925,4.925,0,0,1-4.919-4.92v-16a4.925,4.925,0,0,1,4.919-4.92h21.948a4.927,4.927,0,0,1,4.921,4.92v16a4.927,4.927,0,0,1-4.921,4.92Z" transform="translate(-916.071 -513.282)" fill="#a01f4e"/>
        </g>
      </g>
    </g>
  </g>
</svg>
