<svg xmlns="http://www.w3.org/2000/svg" xmlns:xlink="http://www.w3.org/1999/xlink" width="124.605" height="125.948" viewBox="0 0 124.605 125.948">
  <defs>
    <clipPath id="clip-path">
      <rect id="Rectangle_400938" data-name="Rectangle 400938" width="117.278" height="117.278" fill="none"/>
    </clipPath>
    <clipPath id="clip-path-2">
      <path id="Path_873460" data-name="Path 873460" d="M0,1.307A1.349,1.349,0,0,0,1.389,2.613,1.349,1.349,0,0,0,2.778,1.307,1.349,1.349,0,0,0,1.389,0,1.349,1.349,0,0,0,0,1.307" transform="translate(0)" fill="#34054d"/>
    </clipPath>
    <clipPath id="clip-path-3">
      <path id="Path_873466" data-name="Path 873466" d="M0,1.307A1.349,1.349,0,0,0,1.39,2.613,1.349,1.349,0,0,0,2.778,1.307,1.349,1.349,0,0,0,1.39,0,1.349,1.349,0,0,0,0,1.307" fill="#34054d"/>
    </clipPath>
    <clipPath id="clip-path-4">
      <path id="Path_873467" data-name="Path 873467" d="M0,1.306A1.349,1.349,0,0,0,1.389,2.612,1.349,1.349,0,0,0,2.778,1.306,1.349,1.349,0,0,0,1.389,0,1.349,1.349,0,0,0,0,1.306" transform="translate(0 0)" fill="#34054d"/>
    </clipPath>
    <clipPath id="clip-path-5">
      <path id="Path_873468" data-name="Path 873468" d="M0,1.306A1.349,1.349,0,0,0,1.39,2.612,1.349,1.349,0,0,0,2.778,1.306,1.349,1.349,0,0,0,1.39,0,1.349,1.349,0,0,0,0,1.306" transform="translate(0 0)" fill="#34054d"/>
    </clipPath>
    <clipPath id="clip-path-6">
      <path id="Path_873469" data-name="Path 873469" d="M0,1.306A1.349,1.349,0,0,0,1.389,2.612,1.349,1.349,0,0,0,2.777,1.306,1.349,1.349,0,0,0,1.389,0,1.349,1.349,0,0,0,0,1.306" transform="translate(0 0)" fill="#34054d"/>
    </clipPath>
    <clipPath id="clip-path-9">
      <path id="Path_873473" data-name="Path 873473" d="M0,1.306A1.349,1.349,0,0,0,1.39,2.612,1.348,1.348,0,0,0,2.778,1.306,1.349,1.349,0,0,0,1.39,0,1.349,1.349,0,0,0,0,1.306" transform="translate(0 0)" fill="#34054d"/>
    </clipPath>
    <clipPath id="clip-path-22">
      <rect id="Rectangle_401492" data-name="Rectangle 401492" width="63.051" height="63.052" transform="translate(0 0)" fill="#fff" stroke="#707070" stroke-width="1"/>
    </clipPath>
  </defs>
  <g id="Group_1109716" data-name="Group 1109716" transform="translate(23060.281 3818.28)">
    <g id="Group_1100237" data-name="Group 1100237" transform="translate(-23054.037 -3797.84)">
      <g id="Group_1099505" data-name="Group 1099505" transform="translate(1.808 8.418)">
        <g id="Group_1099504" data-name="Group 1099504" transform="translate(0)" clip-path="url(#clip-path-2)">
          <rect id="Rectangle_401140" data-name="Rectangle 401140" width="2.777" height="2.613" transform="translate(0)" fill="#34054d"/>
        </g>
      </g>
      <g id="Group_1099517" data-name="Group 1099517" transform="translate(37.056 8.418)">
        <g id="Group_1099516" data-name="Group 1099516" transform="translate(0)" clip-path="url(#clip-path-3)">
          <rect id="Rectangle_401146" data-name="Rectangle 401146" width="2.778" height="2.613" transform="translate(0 0)" fill="#34054d"/>
        </g>
      </g>
      <g id="Group_1099519" data-name="Group 1099519" transform="translate(30.194 8.418)">
        <g id="Group_1099518" data-name="Group 1099518" transform="translate(0 0)" clip-path="url(#clip-path-4)">
          <rect id="Rectangle_401147" data-name="Rectangle 401147" width="2.778" height="2.612" transform="translate(0 0)" fill="#34054d"/>
        </g>
      </g>
      <g id="Group_1099521" data-name="Group 1099521" transform="translate(23.332 8.418)">
        <g id="Group_1099520" data-name="Group 1099520" transform="translate(0 0)" clip-path="url(#clip-path-5)">
          <rect id="Rectangle_401148" data-name="Rectangle 401148" width="2.778" height="2.612" transform="translate(0 0)" fill="#34054d"/>
        </g>
      </g>
      <g id="Group_1099523" data-name="Group 1099523" transform="translate(16.47 8.418)">
        <g id="Group_1099522" data-name="Group 1099522" transform="translate(0 0)" clip-path="url(#clip-path-6)">
          <rect id="Rectangle_401149" data-name="Rectangle 401149" width="2.777" height="2.612" transform="translate(0 0)" fill="#34054d"/>
        </g>
      </g>
      <g id="Group_1099525" data-name="Group 1099525" transform="translate(34.311 0)">
        <g id="Group_1099524" data-name="Group 1099524" clip-path="url(#clip-path-4)">
          <rect id="Rectangle_401150" data-name="Rectangle 401150" width="2.778" height="2.612" transform="translate(0 0)" fill="#34054d"/>
        </g>
      </g>
      <g id="Group_1099529" data-name="Group 1099529" transform="translate(27.448 0)">
        <g id="Group_1099528" data-name="Group 1099528" transform="translate(0)" clip-path="url(#clip-path-5)">
          <rect id="Rectangle_401152" data-name="Rectangle 401152" width="2.778" height="2.612" transform="translate(0 0)" fill="#34054d"/>
        </g>
      </g>
      <g id="Group_1099531" data-name="Group 1099531" transform="translate(13.724 0)">
        <g id="Group_1099530" data-name="Group 1099530" transform="translate(0)" clip-path="url(#clip-path-9)">
          <rect id="Rectangle_401153" data-name="Rectangle 401153" width="2.777" height="2.612" transform="translate(0 0)" fill="#34054d"/>
        </g>
      </g>
      <g id="Group_1099533" data-name="Group 1099533" transform="translate(6.862 0)">
        <g id="Group_1099532" data-name="Group 1099532" clip-path="url(#clip-path-4)">
          <rect id="Rectangle_401154" data-name="Rectangle 401154" width="2.778" height="2.612" transform="translate(0 0)" fill="#34054d"/>
        </g>
      </g>
      <g id="Group_1099535" data-name="Group 1099535" transform="translate(0 0)">
        <g id="Group_1099534" data-name="Group 1099534" transform="translate(0)" clip-path="url(#clip-path-5)">
          <rect id="Rectangle_401155" data-name="Rectangle 401155" width="2.778" height="2.612" transform="translate(0 0)" fill="#34054d"/>
        </g>
      </g>
    </g>
    <g id="Group_1100238" data-name="Group 1100238" transform="translate(-22980.652 -3724.455)">
      <g id="Group_1099505-2" data-name="Group 1099505" transform="translate(1.808 8.418)">
        <g id="Group_1099504-2" data-name="Group 1099504" transform="translate(0)" clip-path="url(#clip-path-2)">
          <rect id="Rectangle_401140-2" data-name="Rectangle 401140" width="2.777" height="2.613" transform="translate(0)" fill="#34054d"/>
        </g>
      </g>
      <g id="Group_1099517-2" data-name="Group 1099517" transform="translate(37.056 8.418)">
        <g id="Group_1099516-2" data-name="Group 1099516" transform="translate(0)" clip-path="url(#clip-path-3)">
          <rect id="Rectangle_401146-2" data-name="Rectangle 401146" width="2.778" height="2.613" transform="translate(0 0)" fill="#34054d"/>
        </g>
      </g>
      <g id="Group_1099519-2" data-name="Group 1099519" transform="translate(30.194 8.418)">
        <g id="Group_1099518-2" data-name="Group 1099518" transform="translate(0 0)" clip-path="url(#clip-path-4)">
          <rect id="Rectangle_401147-2" data-name="Rectangle 401147" width="2.778" height="2.612" transform="translate(0 0)" fill="#34054d"/>
        </g>
      </g>
      <g id="Group_1099521-2" data-name="Group 1099521" transform="translate(23.332 8.418)">
        <g id="Group_1099520-2" data-name="Group 1099520" transform="translate(0 0)" clip-path="url(#clip-path-5)">
          <rect id="Rectangle_401148-2" data-name="Rectangle 401148" width="2.778" height="2.612" transform="translate(0 0)" fill="#34054d"/>
        </g>
      </g>
      <g id="Group_1099523-2" data-name="Group 1099523" transform="translate(16.47 8.418)">
        <g id="Group_1099522-2" data-name="Group 1099522" transform="translate(0 0)" clip-path="url(#clip-path-6)">
          <rect id="Rectangle_401149-2" data-name="Rectangle 401149" width="2.777" height="2.612" transform="translate(0 0)" fill="#34054d"/>
        </g>
      </g>
      <g id="Group_1099525-2" data-name="Group 1099525" transform="translate(34.311 0)">
        <g id="Group_1099524-2" data-name="Group 1099524" clip-path="url(#clip-path-4)">
          <rect id="Rectangle_401150-2" data-name="Rectangle 401150" width="2.778" height="2.612" transform="translate(0 0)" fill="#34054d"/>
        </g>
      </g>
      <g id="Group_1099529-2" data-name="Group 1099529" transform="translate(27.448 0)">
        <g id="Group_1099528-2" data-name="Group 1099528" transform="translate(0)" clip-path="url(#clip-path-5)">
          <rect id="Rectangle_401152-2" data-name="Rectangle 401152" width="2.778" height="2.612" transform="translate(0 0)" fill="#34054d"/>
        </g>
      </g>
      <g id="Group_1099531-2" data-name="Group 1099531" transform="translate(13.724 0)">
        <g id="Group_1099530-2" data-name="Group 1099530" transform="translate(0)" clip-path="url(#clip-path-9)">
          <rect id="Rectangle_401153-2" data-name="Rectangle 401153" width="2.777" height="2.612" transform="translate(0 0)" fill="#34054d"/>
        </g>
      </g>
      <g id="Group_1099533-2" data-name="Group 1099533" transform="translate(6.862 0)">
        <g id="Group_1099532-2" data-name="Group 1099532" clip-path="url(#clip-path-4)">
          <rect id="Rectangle_401154-2" data-name="Rectangle 401154" width="2.778" height="2.612" transform="translate(0 0)" fill="#34054d"/>
        </g>
      </g>
      <g id="Group_1099535-2" data-name="Group 1099535" transform="translate(0 0)">
        <g id="Group_1099534-2" data-name="Group 1099534" transform="translate(0)" clip-path="url(#clip-path-5)">
          <rect id="Rectangle_401155-2" data-name="Rectangle 401155" width="2.778" height="2.612" transform="translate(0 0)" fill="#34054d"/>
        </g>
      </g>
    </g>
    <path id="Path_873784" data-name="Path 873784" d="M83.8,18.565A18.62,18.62,0,0,0,65.231,0H18.566A18.62,18.62,0,0,0,0,18.566V65.231A18.62,18.62,0,0,0,18.565,83.8H65.231A18.62,18.62,0,0,0,83.8,65.23Z" transform="translate(-22994.928 -3692.332) rotate(-135)" fill="#bfa9fe"/>
    <path id="Path_873785" data-name="Path 873785" d="M86.438,19.15A19.206,19.206,0,0,0,67.287,0H19.151A19.207,19.207,0,0,0,0,19.151V67.287a19.206,19.206,0,0,0,19.15,19.15H67.287A19.207,19.207,0,0,0,86.437,67.286Z" transform="translate(-22999.16 -3696.04) rotate(-135)" fill="#34054d"/>
    <g id="Mask_Group_1098697" data-name="Mask Group 1098697" transform="translate(-23031.146 -3787.541)" clip-path="url(#clip-path-22)">
      <g id="Group_1109573" data-name="Group 1109573" transform="translate(-2414.618 -147.276)">
        <path id="Path_883336" data-name="Path 883336" d="M2444.636,184.9a12.211,12.211,0,0,1-6.708,2.825v6.2c2.039,0,4.024,0,6.009,0,1.524,0,1.65.127,1.651,1.657q0,5.328,0,10.657c0,1.248-.235,1.491-1.46,1.493q-6.823.008-13.646,0c-1.2,0-1.43-.23-1.431-1.409q-.007-5.516,0-11.031c0-1.181.184-1.361,1.357-1.365,1.865-.007,3.731,0,5.675,0v-5.965L2430.2,185.9c-2.229,2.249-4.638,4.681-7.05,7.111-.768.774-1.526,1.558-2.317,2.309a2.174,2.174,0,1,1-3.025-3.112q4.378-4.41,8.783-8.793c.24-.24.519-.442.808-.686a11.838,11.838,0,0,1-1.684-9.571,11.4,11.4,0,0,1,3.69-5.933c4.253-3.664,9.054-3.7,15.343-.048,1.583-1.612,3.084-3.384,4.836-4.856a5.93,5.93,0,0,0,2.33-5.651,47.671,47.671,0,0,1-.037-5.511c.006-.976.3-1.283,1.288-1.285q7.01-.015,14.02,0c.976,0,1.273.31,1.276,1.309q.017,5.609,0,11.218c0,.989-.3,1.272-1.3,1.273-4.673.006-9.346-.006-14.019.012-.744,0-1.187-.274-1.313-.977l-5.666,5.774c.636,1.359,1.343,2.86,2.037,4.365a3.094,3.094,0,0,1,.175.627c.383,1.728.382,1.728,2.125,1.728s3.491-.041,5.233.018c.808.027,1-.263.973-1.015-.053-1.432-.026-2.866-.011-4.3.011-1.046.221-1.256,1.283-1.258q6.963-.012,13.926,0c1.113,0,1.327.211,1.329,1.312q.014,5.562,0,11.124c0,1.105-.217,1.319-1.322,1.32q-6.963.011-13.926,0c-1.1,0-1.283-.207-1.292-1.345-.01-1.334,0-2.667,0-4.062h-7.905a32.054,32.054,0,0,1-1.007,3.436,33.038,33.038,0,0,1-1.714,3.2l5.776,5.607c.1-.678.743-.8,1.521-.8,4.549.014,9.1,0,13.646.01,1.192,0,1.45.253,1.452,1.411q.011,5.469,0,10.938c0,1.184-.256,1.45-1.413,1.452q-6.87.012-13.74,0c-1.191,0-1.433-.251-1.435-1.421,0-2.649.009-5.3-.016-7.946a1.57,1.57,0,0,0-.312-1C2449.293,189.564,2447,187.278,2444.636,184.9Zm.706-8.809a8.323,8.323,0,1,0-8.308,8.318A8.271,8.271,0,0,0,2445.342,176.095Zm22.065-4.933c-.776,0-1.551,0-2.326,0-.594,0-1.058.2-1.056.892,0,.639.461.86,1,.868,1.582.023,3.166.06,4.742-.035.347-.021.663-.563.993-.865-.341-.287-.651-.756-1.031-.822A13.831,13.831,0,0,0,2467.407,171.162Zm-27.736,27.072c.776,0,1.552.007,2.329,0,.6-.007,1.07-.249,1.075-.9.005-.668-.5-.885-1.08-.889q-2.282-.018-4.564,0c-.585,0-1.078.221-1.071.9s.482.886,1.076.892C2438.18,198.24,2438.926,198.234,2439.671,198.234Zm18.136-2.037c.839,0,1.677-.011,2.516,0,.592.01,1.01-.249,1.017-.836s-.381-.871-.985-.868q-2.47.014-4.939,0c-.591,0-1.008.249-1.019.837s.393.871.987.866C2456.192,196.191,2457,196.2,2457.807,196.2Zm-.035-38.521c.841,0,1.681,0,2.521,0,.618,0,1.06-.292,1.041-.932-.018-.6-.459-.827-1.037-.824q-2.428.01-4.856,0c-.573,0-1.022.215-1.042.818-.021.644.425.929,1.038.936C2456.216,157.683,2456.994,157.675,2457.772,157.675Zm4.948,16.986q-1.259,0-2.519,0c-.583,0-1,.258-1,.858s.39.877.98.877h4.946c.578,0,.99-.239,1-.855s-.4-.874-.975-.878C2464.338,174.657,2463.53,174.662,2462.72,174.662Zm-27.705,27.024c.808,0,1.616,0,2.424,0,.557,0,.991-.188,1.009-.835s-.388-.9-.946-.908q-2.516-.031-5.033,0c-.569.008-1.035.354-.89.927a1.333,1.333,0,0,0,.926.778A18.7,18.7,0,0,0,2435.015,201.686Zm27.543-10.707c-.747,0-1.494,0-2.241,0-.6,0-1.088.213-1.1.87-.012.674.491.872,1.084.873,1.525,0,3.05.005,4.575,0,.594,0,1.066-.2,1.039-.9-.024-.641-.47-.827-1.023-.834C2464.114,190.973,2463.336,190.98,2462.558,190.979Zm-.018-36.84v0c.809,0,1.618,0,2.427,0,.584,0,1.057-.273.912-.876a1.271,1.271,0,0,0-.894-.789,47.675,47.675,0,0,0-4.851,0c-.325.017-.625.525-.936.806.3.285.58.764.92.817A15.953,15.953,0,0,0,2462.54,154.139Zm5.222,25.756v0a10.525,10.525,0,0,0,2.043-.038c.358-.072.638-.529.953-.812-.3-.3-.578-.84-.895-.862a28.9,28.9,0,0,0-4.094,0c-.3.021-.721.563-.766.907-.029.228.481.7.809.762A10.256,10.256,0,0,0,2467.762,179.9ZM2463,161.165v-.009a10.041,10.041,0,0,0,2.042-.041c.337-.071.817-.57.808-.863a1.2,1.2,0,0,0-.841-.835,25.368,25.368,0,0,0-3.909,0c-.35.028-.659.567-.987.872.34.292.642.744,1.03.839A8.009,8.009,0,0,0,2463,161.165Zm.154,36.808v0c-.683,0-1.366-.01-2.049,0-.572.011-1.058.295-.947.874a1.29,1.29,0,0,0,.882.842,27.8,27.8,0,0,0,4,0c.311-.023.585-.557.876-.855-.3-.286-.56-.739-.907-.819A8.4,8.4,0,0,0,2463.158,197.973Zm-23.016,7.2h1.956c.583,0,1.055-.281.947-.861a1.261,1.261,0,0,0-.887-.8,28.943,28.943,0,0,0-4,0c-.316.022-.6.535-.9.823.307.279.58.725.93.8A9.747,9.747,0,0,0,2440.142,205.169Zm16.54-44.012v0a4.239,4.239,0,0,0,1.379-.035c.36-.131.613-.557.913-.853-.3-.3-.579-.8-.915-.846a10.806,10.806,0,0,0-2.772,0c-.334.044-.607.557-.908.855.3.294.561.717.924.848A4.273,4.273,0,0,0,2456.682,161.157Zm4.781,18.74a4.264,4.264,0,0,0,1.385-.035,1.43,1.43,0,0,0,.836-.868c.043-.222-.463-.769-.765-.8a12.261,12.261,0,0,0-2.877,0c-.318.04-.573.579-.857.89a3.784,3.784,0,0,0,.983.788A4.006,4.006,0,0,0,2461.463,179.9Zm-4.745,18.085a5.246,5.246,0,0,0-1.484.035c-.335.1-.8.528-.793.8a1.159,1.159,0,0,0,.756.852,13.567,13.567,0,0,0,2.979,0,1.153,1.153,0,0,0,.738-.864c0-.278-.466-.684-.805-.8A4.564,4.564,0,0,0,2456.718,197.982Zm-22.923,7.178a5.081,5.081,0,0,0,1.476-.036,1.29,1.29,0,0,0,.768-.833c.039-.224-.418-.748-.688-.774a16.846,16.846,0,0,0-3.059,0c-.273.024-.733.526-.7.755a1.259,1.259,0,0,0,.732.853A5,5,0,0,0,2433.795,205.161Zm27.165-33.99v-.009c-.249,0-.5,0-.745,0-.574,0-.99.258-1.018.852-.03.619.416.878.965.905a5.858,5.858,0,0,0,1.756-.055,1.181,1.181,0,0,0,.745-.843c-.007-.289-.454-.643-.787-.825C2461.638,171.066,2461.27,171.171,2460.96,171.171Zm-27.737,27.049c.341,0,.742.113,1.009-.029.331-.175.757-.558.76-.855s-.429-.671-.759-.848a2.153,2.153,0,0,0-1.009-.049c-.688.025-1.533-.182-1.681.85C2431.45,197.953,2431.988,198.234,2433.223,198.22Zm22.923-5.517v.013c.279,0,.557.009.835,0,.531-.022.909-.251.918-.827.009-.617-.378-.886-.95-.9a6.466,6.466,0,0,0-1.753.049,1.2,1.2,0,0,0-.757.842c0,.271.46.625.793.8C2455.474,192.806,2455.838,192.7,2456.147,192.7Zm-.2-38.565c.458,0,.824.105,1.062-.025a4.719,4.719,0,0,0,.9-.835,4.937,4.937,0,0,0-.926-.814,2.016,2.016,0,0,0-.914-.026c-.683.023-1.634-.207-1.653.822C2454.4,154.381,2455.4,154.092,2455.95,154.138Zm13.3,22.248.139.224a8.081,8.081,0,0,0,1.306-.9c.092-.09-.163-.806-.317-.828a8.306,8.306,0,0,0-2.156-.029c-.17.02-.446.6-.374.822.091.287.461.521.759.694C2468.773,176.463,2469.035,176.386,2469.253,176.386ZM2441.645,201.7v-.028c.217,0,.49.083.64-.017.3-.2.732-.491.75-.767a1.094,1.094,0,0,0-.616-.866,3.388,3.388,0,0,0-1.646.012,1.012,1.012,0,0,0-.584.807c.045.3.423.6.725.805C2441.09,201.761,2441.4,201.686,2441.645,201.7Zm22.831-45.835c-.364.074-.806.044-1.051.249a1.126,1.126,0,0,0-.306.95c.176.694.819.615,1.374.615s1.2.073,1.365-.627a1.13,1.13,0,0,0-.324-.944C2465.286,155.9,2464.846,155.935,2464.476,155.862Zm.01,38.638c-.477.062-1.286-.23-1.406.746-.031.252.188.755.332.771a9.846,9.846,0,0,0,2.172-.011c.139-.016.335-.522.309-.782C2465.815,194.445,2465.185,194.494,2464.486,194.5Z" transform="translate(0 0)" fill="#fff"/>
        <path id="Path_883337" data-name="Path 883337" d="M2507.876,267.126c-.177-.876.2-1.413,1.282-1.576a1.57,1.57,0,0,0,1.238-1.9,1.69,1.69,0,0,0-3.35.422c.01.186.133.406.067.547a9.042,9.042,0,0,1-.622,1c-.349-.225-.871-.37-1.017-.689a3.232,3.232,0,0,1,1.014-3.616,3.457,3.457,0,0,1,5.642,3.253,3.542,3.542,0,0,1-1.905,2.513,1.221,1.221,0,0,0-.609.757c-.071.62-.281,1.07-.931,1.04-.667-.03-.836-.546-.809-1.141C2507.882,267.586,2507.876,267.43,2507.876,267.126Z" transform="translate(-71.714 -89.953)" fill="#fff"/>
        <path id="Path_883338" data-name="Path 883338" d="M2519.475,310.89c-.273-.349-.722-.672-.779-1.054a.8.8,0,0,1,.953-.963,1.4,1.4,0,0,1,.913.912c.047.325-.422.725-.664,1.092Z" transform="translate(-82.633 -129.272)" fill="#fff"/>
      </g>
    </g>
  </g>
</svg>
