<svg xmlns="http://www.w3.org/2000/svg" xmlns:xlink="http://www.w3.org/1999/xlink" width="98.579" height="98.578" viewBox="0 0 98.579 98.578">
  <defs>
    <clipPath id="clip-path">
      <rect id="Rectangle_401223" data-name="Rectangle 401223" width="98.579" height="98.578" transform="translate(0)" fill="#bfa9fe"/>
    </clipPath>
    <clipPath id="clip-path-2">
      <rect id="Rectangle_401223-2" data-name="Rectangle 401223" width="88.117" height="88.116" fill="#d7c9fe"/>
    </clipPath>
  </defs>
  <g id="Group_1109959" data-name="Group 1109959" transform="translate(-753.421 -1615.528)">
    <g id="Group_1102150" data-name="Group 1102150" transform="translate(-167.912 1204.523)">
      <g id="Group_1099654" data-name="Group 1099654" transform="translate(921.333 411.006)">
        <g id="Group_1099652" data-name="Group 1099652" transform="translate(0 0)" clip-path="url(#clip-path)">
          <path id="Path_873521" data-name="Path 873521" d="M98.579,76.737a21.9,21.9,0,0,1-21.84,21.84H21.84A21.9,21.9,0,0,1,0,76.737V21.84A21.9,21.9,0,0,1,21.84,0h54.9a21.9,21.9,0,0,1,21.84,21.841Z" transform="translate(0)" fill="#bfa9fe"/>
        </g>
      </g>
      <g id="Group_1099659" data-name="Group 1099659" transform="translate(926.103 416.728)">
        <g id="Group_1099652-2" data-name="Group 1099652" transform="translate(0 0)" clip-path="url(#clip-path-2)">
          <path id="Path_873521-2" data-name="Path 873521" d="M88.117,68.594A19.58,19.58,0,0,1,68.595,88.116H19.523A19.58,19.58,0,0,1,0,68.594V19.522A19.58,19.58,0,0,1,19.523,0H68.595A19.58,19.58,0,0,1,88.117,19.523Z" fill="#d7c9fe"/>
        </g>
      </g>
    </g>
    <g id="Group_1102151" data-name="Group 1102151" transform="translate(774.55 1610.368)">
      <rect id="Rectangle_401104" data-name="Rectangle 401104" width="68" height="69" transform="translate(-6.127 19.16)" fill="none"/>
      <g id="Group_1109978" data-name="Group 1109978" transform="translate(146.522 -28.011)">
        <path id="Path_884224" data-name="Path 884224" d="M-145.042,83.509h52.717V49.255h-52.717V83.509Z" fill="#f9f9fb" fill-rule="evenodd"/>
        <path id="Path_884225" data-name="Path 884225" d="M-144,50.611V80.749h50.152V50.611Zm-1.522-2.761h53.2a1.242,1.242,0,0,1,1.238,1.238V82.271a1.242,1.242,0,0,1-1.238,1.238h-53.2a1.242,1.242,0,0,1-1.239-1.238V49.088a1.242,1.242,0,0,1,1.239-1.238Z" fill="#65002f" fill-rule="evenodd"/>
        <path id="Path_884226" data-name="Path 884226" d="M-138.021,74.753l5.622-7.861.154-.216.237.119,7.864,3.932,10.224-3.821.173-.065.139.121,7.073,6.108,4.972-9.359.55.292-5.155,9.7-.183.345-.3-.256-7.23-6.243-10.177,3.8-.126.047-.121-.06-7.748-3.874-5.467,7.645-.506-.361Z" fill="#3f4448" fill-rule="evenodd"/>
        <path id="Path_884227" data-name="Path 884227" d="M-137.768,77.027a2.1,2.1,0,0,0,2.094-2.093,2.1,2.1,0,0,0-2.094-2.1,2.1,2.1,0,0,0-2.094,2.1,2.1,2.1,0,0,0,2.094,2.093Z" fill="#2993b3" fill-rule="evenodd"/>
        <path id="Path_884228" data-name="Path 884228" d="M-137.768,75.814a.881.881,0,0,0,.88-.88.882.882,0,0,0-.88-.881.882.882,0,0,0-.88.881.881.881,0,0,0,.88.88Z" fill="#fff" fill-rule="evenodd"/>
        <path id="Path_884229" data-name="Path 884229" d="M-132.145,69.167a2.1,2.1,0,0,0,2.093-2.094,2.1,2.1,0,0,0-2.093-2.094,2.1,2.1,0,0,0-2.1,2.094,2.1,2.1,0,0,0,2.1,2.094Z" fill="#2993b3" fill-rule="evenodd"/>
        <path id="Path_884230" data-name="Path 884230" d="M-132.146,67.954a.882.882,0,0,0,.88-.881.882.882,0,0,0-.88-.881.882.882,0,0,0-.88.881.882.882,0,0,0,.88.881Z" fill="#fff" fill-rule="evenodd"/>
        <path id="Path_884231" data-name="Path 884231" d="M-124.161,73.16a2.1,2.1,0,0,0,2.1-2.1,2.1,2.1,0,0,0-2.1-2.094,2.1,2.1,0,0,0-2.094,2.094,2.1,2.1,0,0,0,2.094,2.1Z" fill="#2993b3" fill-rule="evenodd"/>
        <path id="Path_884232" data-name="Path 884232" d="M-124.161,71.946a.883.883,0,0,0,.881-.881.883.883,0,0,0-.881-.88.883.883,0,0,0-.881.88.884.884,0,0,0,.881.881Z" fill="#fff" fill-rule="evenodd"/>
        <path id="Path_884233" data-name="Path 884233" d="M-113.812,69.292a2.1,2.1,0,0,0,2.094-2.094,2.1,2.1,0,0,0-2.094-2.094A2.1,2.1,0,0,0-115.9,67.2a2.1,2.1,0,0,0,2.093,2.094Z" fill="#2993b3" fill-rule="evenodd"/>
        <path id="Path_884234" data-name="Path 884234" d="M-113.812,68.078a.882.882,0,0,0,.881-.88.882.882,0,0,0-.881-.881.882.882,0,0,0-.88.881.881.881,0,0,0,.88.88Z" fill="#fff" fill-rule="evenodd"/>
        <path id="Path_884235" data-name="Path 884235" d="M-106.442,75.655a2.1,2.1,0,0,0,2.093-2.094,2.1,2.1,0,0,0-2.093-2.094,2.1,2.1,0,0,0-2.1,2.094,2.1,2.1,0,0,0,2.1,2.094Z" fill="#2993b3" fill-rule="evenodd"/>
        <path id="Path_884236" data-name="Path 884236" d="M-106.442,74.442a.883.883,0,0,0,.88-.881.883.883,0,0,0-.88-.881.882.882,0,0,0-.881.881.882.882,0,0,0,.881.881Z" fill="#fff" fill-rule="evenodd"/>
        <path id="Path_884237" data-name="Path 884237" d="M-101.205,66.461a2.1,2.1,0,0,0,2.094-2.094,2.1,2.1,0,0,0-2.094-2.094,2.1,2.1,0,0,0-2.1,2.094,2.1,2.1,0,0,0,2.1,2.094Z" fill="#2993b3" fill-rule="evenodd"/>
        <path id="Path_884238" data-name="Path 884238" d="M-101.206,65.248a.883.883,0,0,0,.881-.881.882.882,0,0,0-.881-.88.882.882,0,0,0-.88.88.883.883,0,0,0,.88.881Z" fill="#fff" fill-rule="evenodd"/>
        <path id="Path_884239" data-name="Path 884239" d="M-129.034,54.392V53.265h-11.92v1.127Z" fill="#b5dee9" fill-rule="evenodd"/>
        <path id="Path_884240" data-name="Path 884240" d="M-137,56.392V55.264h-3.957v1.127Z" fill="#b5dee9" fill-rule="evenodd"/>
        <path id="Path_884241" data-name="Path 884241" d="M-129.034,58.365V57.237h-11.92v1.128Z" fill="#b5dee9" fill-rule="evenodd"/>
        <path id="Path_884242" data-name="Path 884242" d="M-129.034,60.364V59.237h-11.92v1.128Z" fill="#b5dee9" fill-rule="evenodd"/>
        <path id="Path_884243" data-name="Path 884243" d="M-113.2,54.392V53.265h-14.585v1.127Z" fill="#b5dee9" fill-rule="evenodd"/>
        <path id="Path_884244" data-name="Path 884244" d="M-113.2,56.392V55.264h-14.585v1.127Z" fill="#b5dee9" fill-rule="evenodd"/>
        <path id="Path_884245" data-name="Path 884245" d="M-113.2,60.364V59.237h-14.585v1.128Z" fill="#b5dee9" fill-rule="evenodd"/>
        <path id="Path_884246" data-name="Path 884246" d="M-97.03,54.392V53.265h-14.585v1.127Z" fill="#b5dee9" fill-rule="evenodd"/>
        <path id="Path_884247" data-name="Path 884247" d="M-97.03,56.392V55.264h-14.585v1.127Z" fill="#b5dee9" fill-rule="evenodd"/>
        <path id="Path_884248" data-name="Path 884248" d="M-97.03,58.365V57.237h-14.585v1.128Z" fill="#b5dee9" fill-rule="evenodd"/>
        <path id="Path_884249" data-name="Path 884249" d="M-97.03,60.364V59.237h-14.585v1.128Z" fill="#b5dee9" fill-rule="evenodd"/>
        <g id="Group_1109979" data-name="Group 1109979" transform="translate(-21.12 32.072)">
          <path id="Path_884250" data-name="Path 884250" d="M-103.121,45.778a9.3,9.3,0,0,0-.8,13.12,9.3,9.3,0,0,0,13.12.8,9.294,9.294,0,0,0,.8-13.12,9.3,9.3,0,0,0-13.12-.8Z" fill="#6ceaff" fill-rule="evenodd"/>
          <path id="Path_884251" data-name="Path 884251" d="M-88.248,50.965a8.9,8.9,0,0,0-10.486-6.939,8.9,8.9,0,0,0-6.94,10.487,8.9,8.9,0,0,0,10.487,6.938,8.9,8.9,0,0,0,6.939-10.486Zm3.016-.614a11.969,11.969,0,0,1-9.341,14.116,11.968,11.968,0,0,1-14.116-9.34,11.969,11.969,0,0,1,9.34-14.117,11.971,11.971,0,0,1,14.117,9.341Z" fill="#623645" fill-rule="evenodd"/>
          <path id="Path_884252" data-name="Path 884252" d="M-89.408,59.063-91.6,61l4.112,4.646,2.194-1.942-4.111-4.646Z" fill="#623645" fill-rule="evenodd"/>
          <path id="Path_884253" data-name="Path 884253" d="M-87.612,63.3h0a3.4,3.4,0,0,0-.292,4.783L-75.343,82.28a3.4,3.4,0,0,0,4.783.291h0a3.4,3.4,0,0,0,.292-4.782L-82.83,63.594a3.4,3.4,0,0,0-4.782-.292Z" fill="#e2af00" fill-rule="evenodd"/>
          <path id="Path_884254" data-name="Path 884254" d="M-75.342,82.28a3.4,3.4,0,0,0,4.782.292h0a3.4,3.4,0,0,0,.292-4.781l-5.074,4.49ZM-86.928,69.189l5.075-4.491,10.609,11.988-5.075,4.49L-86.928,69.189Zm-.684-5.887h0a3.4,3.4,0,0,0-.292,4.782l5.074-4.491a3.4,3.4,0,0,0-4.782-.292Z" fill="#623645" fill-rule="evenodd"/>
          <path id="Path_884255" data-name="Path 884255" d="M-92.967,49.594a1.019,1.019,0,0,0,1.425.211,1.019,1.019,0,0,0,.211-1.425,7.744,7.744,0,0,0-.709-.828,7.325,7.325,0,0,0-4.487-2.174,6.76,6.76,0,0,0-4.716,1.277,6.986,6.986,0,0,0-.726.623,1.017,1.017,0,0,0-.014,1.437,1.016,1.016,0,0,0,1.437.014,4.8,4.8,0,0,1,.517-.438,4.733,4.733,0,0,1,3.3-.9,5.288,5.288,0,0,1,3.238,1.58,5.964,5.964,0,0,1,.524.619Z" fill="#fff" fill-rule="evenodd"/>
        </g>
        <path id="Path_884256" data-name="Path 884256" d="M-129.034,56.392V55.264h-4.005v1.127Z" fill="#b5dee9" fill-rule="evenodd"/>
        <path id="Path_884257" data-name="Path 884257" d="M-133.469,56.392V55.264h-3.145v1.127Z" fill="#cccad0" fill-rule="evenodd"/>
        <path id="Path_884258" data-name="Path 884258" d="M-123.828,58.365V57.237h-3.957v1.128Z" fill="#b5dee9" fill-rule="evenodd"/>
        <path id="Path_884259" data-name="Path 884259" d="M-113.2,58.365V57.237h-6.669v1.128Z" fill="#b5dee9" fill-rule="evenodd"/>
        <path id="Path_884260" data-name="Path 884260" d="M-120.3,58.365V57.237h-3.144v1.128Z" fill="#cccad0" fill-rule="evenodd"/>
      </g>
    </g>
  </g>
</svg>
