<svg xmlns="http://www.w3.org/2000/svg" xmlns:xlink="http://www.w3.org/1999/xlink" width="98.578" height="98.578" viewBox="0 0 98.578 98.578">
  <defs>
    <clipPath id="clip-path">
      <rect id="Rectangle_401223" data-name="Rectangle 401223" width="98.579" height="98.578" transform="translate(0)" fill="#bfa9fe"/>
    </clipPath>
    <clipPath id="clip-path-2">
      <rect id="Rectangle_401223-2" data-name="Rectangle 401223" width="88.117" height="88.116" fill="#d7c9fe"/>
    </clipPath>
  </defs>
  <g id="Group_1109963" data-name="Group 1109963" transform="translate(-1104.797 -1615.097)">
    <g id="Group_1102154" data-name="Group 1102154" transform="translate(183.463 1204.092)">
      <g id="Group_1099654" data-name="Group 1099654" transform="translate(921.333 411.006)">
        <g id="Group_1099652" data-name="Group 1099652" transform="translate(0 0)" clip-path="url(#clip-path)">
          <path id="Path_873521" data-name="Path 873521" d="M98.579,76.737a21.9,21.9,0,0,1-21.84,21.84H21.84A21.9,21.9,0,0,1,0,76.737V21.84A21.9,21.9,0,0,1,21.84,0h54.9a21.9,21.9,0,0,1,21.84,21.841Z" transform="translate(0)" fill="#bfa9fe"/>
        </g>
      </g>
      <g id="Group_1099659" data-name="Group 1099659" transform="translate(926.103 416.728)">
        <g id="Group_1099652-2" data-name="Group 1099652" transform="translate(0 0)" clip-path="url(#clip-path-2)">
          <path id="Path_873521-2" data-name="Path 873521" d="M88.117,68.594A19.58,19.58,0,0,1,68.595,88.116H19.523A19.58,19.58,0,0,1,0,68.594V19.522A19.58,19.58,0,0,1,19.523,0H68.595A19.58,19.58,0,0,1,88.117,19.523Z" fill="#d7c9fe"/>
        </g>
      </g>
    </g>
    <g id="Group_1102155" data-name="Group 1102155" transform="translate(1120.738 1626.901)">
      <rect id="Rectangle_401104" data-name="Rectangle 401104" width="68" height="69" transform="translate(0.684 3.627)" fill="none"/>
      <g id="Group_1110006" data-name="Group 1110006" transform="translate(536.729 41.074)">
        <path id="Path_884315" data-name="Path 884315" d="M-489.25,84.583h22.656l.859,1.3v.649h-24.374v-.649l.859-1.3Z" transform="translate(-24.123 -60.933)" fill="#805c69" fill-rule="evenodd"/>
        <path id="Path_884316" data-name="Path 884316" d="M-483.915,65.536h18.492v9.044h-18.492V65.536Z" transform="translate(-27.376 -50.931)" fill="#805c69" fill-rule="evenodd"/>
        <path id="Path_884317" data-name="Path 884317" d="M-478.253,74.581l-5.662-5.663V65.536h18.492v9.044Z" transform="translate(-27.376 -50.931)" fill="#623645" fill-rule="evenodd"/>
        <path id="Path_884318" data-name="Path 884318" d="M-533.632-31.447h63.173a2.419,2.419,0,0,1,2.414,2.414V15.573a2.418,2.418,0,0,1-2.414,2.414h-63.173a2.418,2.418,0,0,1-2.413-2.414V-29.033a2.418,2.418,0,0,1,2.413-2.414Z" transform="translate(0 0)" fill="#94868a" fill-rule="evenodd"/>
        <path id="Path_884319" data-name="Path 884319" d="M-532.646-29.568h63.173a1.526,1.526,0,0,1,1.522,1.521V13.709h-66.217V-28.047a1.526,1.526,0,0,1,1.522-1.521Z" transform="translate(-0.986 -0.987)" fill="#f9f9fb" fill-rule="evenodd"/>
        <path id="Path_884320" data-name="Path 884320" d="M-528.774-23.154h61.095V14.162h-61.095V-23.154Z" transform="translate(-3.818 -4.355)" fill="#b5dee9" fill-rule="evenodd"/>
        <path id="Path_884321" data-name="Path 884321" d="M-528.773-23.154h61.094v6.572h-61.094v-6.572Z" transform="translate(-3.819 -4.355)" fill="#16abbe" fill-rule="evenodd"/>
        <path id="Path_884322" data-name="Path 884322" d="M-511.179,19.388H-468.2V-4.136h-42.982V19.388Z" transform="translate(-13.058 -14.342)" fill="#f9f9fb" fill-rule="evenodd"/>
        <path id="Path_884323" data-name="Path 884323" d="M-534.168,61.57h66.217v2.851a1.526,1.526,0,0,1-1.522,1.522h-63.173a1.526,1.526,0,0,1-1.522-1.522V61.57Z" transform="translate(-0.986 -48.848)" fill="#94868a" fill-rule="evenodd"/>
        <path id="Path_884324" data-name="Path 884324" d="M-422.981,42.149l.8-.451-1.823-3.219,2.194-1.244-3.458-2.562-3.348-2.481-.061-.109.007.068-.055-.04.061.109.407,4.147.42,4.283,2.243-1.27,1.823,3.219.8-.45Z" transform="translate(-56.356 -33.363)" fill="#623645" fill-rule="evenodd"/>
        <g id="Group_1110005" data-name="Group 1110005" transform="translate(-519.877 -16.776)">
          <path id="Path_884325" data-name="Path 884325" d="M-491.34,8.535v2.681l-7.34,3.044,7.34,3.08v2.685L-502,15.419V13.09l10.657-4.555Z" transform="translate(501.997 -4.22)" fill="#623645"/>
          <path id="Path_884326" data-name="Path 884326" d="M-453.077,8.109l11.032,4.768v2.411L-453.077,20V17.248l7.6-3.172-7.6-3.169v-2.8Z" transform="translate(476.307 -3.996)" fill="#623645"/>
          <path id="Path_884327" data-name="Path 884327" d="M-465.734-.552l-6.7,20.12Z" transform="translate(486.469 0.552)" fill="#623645" stroke="#623645" stroke-miterlimit="10" stroke-width="6"/>
        </g>
      </g>
    </g>
  </g>
</svg>
