<svg xmlns="http://www.w3.org/2000/svg" width="99.96" height="99.96" viewBox="0 0 99.96 99.96">
  <g id="Group_1110144" data-name="Group 1110144" transform="translate(-750.207 -7029)">
    <path id="Path_884362" data-name="Path 884362" d="M49.98,0A49.98,49.98,0,1,1,0,49.98,49.98,49.98,0,0,1,49.98,0Z" transform="translate(750.207 7029)" fill="#f3f9ff"/>
    <g id="Group_1110071" data-name="Group 1110071" transform="translate(348.07 1002.531)">
      <rect id="Rectangle_401104" data-name="Rectangle 401104" width="67.887" height="67.887" transform="translate(418.137 6042.469)" fill="none"/>
      <g id="Group_1110081" data-name="Group 1110081" transform="translate(-178.287 5265.122)">
        <path id="Path_884377" data-name="Path 884377" d="M864.147,1007.273v4.085c-.023.137-.055.273-.068.411a26.454,26.454,0,0,1-2.656,9.477,6.7,6.7,0,0,1-6.681,4.242q-11.5-.005-23.005,0a1.438,1.438,0,0,0-.383.011c-.087.025-.215.124-.217.193-.017.587-.01,1.175-.01,1.816h.574q7.457,0,14.913-.007c.329,0,.441.076.438.425q-.026,2.716-.005,5.433a6.893,6.893,0,0,1-1.724,4.815,10.69,10.69,0,0,1-4.188,2.8,26.75,26.75,0,0,1-17.266.935,15.939,15.939,0,0,1-5.639-2.578,6.882,6.882,0,0,1-3.029-5.579c-.021-5.151-.009-10.3,0-15.452a7.3,7.3,0,0,1,.724-3.246,7.951,7.951,0,0,1,7.527-4.771c5.15-.043,10.3-.013,15.452-.01a9.677,9.677,0,0,0,3.1-.514,10.231,10.231,0,0,0,7.006-9.747c0-2.171.008-4.342-.007-6.512,0-.341.1-.434.434-.432,1.914.016,3.828,0,5.741.013a7.536,7.536,0,0,1,1.263.12,6.952,6.952,0,0,1,5.071,3.991,27.063,27.063,0,0,1,2.256,7.337C863.948,1005.434,864.024,1006.358,864.147,1007.273Zm-27.054,27.287a3.025,3.025,0,1,0,2.979-3A3.02,3.02,0,0,0,837.093,1034.56Z" transform="translate(-200.981 -199.097)" fill="#81489f"/>
        <path id="Path_884378" data-name="Path 884378" d="M597.424,814.439v-8.42a.516.516,0,0,1,.024-.155c.015-.047.029-.093.039-.141.325-1.478.593-2.972,1-4.429a9.511,9.511,0,0,1,1.068-2.5,9.722,9.722,0,0,1,8.678-4.808c6.1-.018,12.2,0,18.3,0,1.053,0,2.106-.017,3.159.009.37.009.469-.117.444-.46s-.005-.693-.006-1.04c0-.521,0-.522-.521-.522H614.732a.522.522,0,0,1-.522-.521c0-.169,0-.33,0-.492.024-2.285-.015-4.572.091-6.853a5.739,5.739,0,0,1,3.9-5.41,24.3,24.3,0,0,1,2.788-.868c.775-.2,1.573-.317,2.362-.468a.519.519,0,0,1,.1-.009h13.222a.5.5,0,0,1,.124.015,2.675,2.675,0,0,0,.348.077,10.672,10.672,0,0,1,4.478,1.288,8.508,8.508,0,0,1,4.422,7.4c.094,4.929.024,9.861.025,14.792a7.8,7.8,0,0,1-.64,3.342,7.882,7.882,0,0,1-7.607,4.917c-5.123.022-10.247,0-15.371.008a9.837,9.837,0,0,0-5.8,1.775,10.01,10.01,0,0,0-4.417,8.572q-.013,3.217.006,6.433c0,.337-.087.439-.43.435-1.669-.017-3.339-.009-5.008-.007a7.882,7.882,0,0,1-3.332-.674,8.414,8.414,0,0,1-4.1-4.276,25.213,25.213,0,0,1-1.8-6.274c-.039-.206-.087-.41-.132-.615A.526.526,0,0,1,597.424,814.439Zm26.821-29.577A3.024,3.024,0,1,0,621.2,787.9,3.038,3.038,0,0,0,624.245,784.862Z" transform="translate(0 0)" fill="#34054d"/>
        <path id="Path_884379" data-name="Path 884379" d="M1169.247,1650.384l-.539-.071.137.315-.1.037c-.049-.142-.162-.3-.126-.421a.41.41,0,0,1,.351-.2c.127.024.228.19.341.294Z" transform="translate(-527.167 -805.43)" fill="#34054d"/>
      </g>
    </g>
  </g>
</svg>
