<svg xmlns="http://www.w3.org/2000/svg" xmlns:xlink="http://www.w3.org/1999/xlink" width="99" height="99" viewBox="0 0 99 99">
  <defs>
    <clipPath id="clip-path">
      <rect id="Rectangle_401223" data-name="Rectangle 401223" width="99" height="99" transform="translate(0)" fill="#065564"/>
    </clipPath>
    <clipPath id="clip-path-2">
      <rect id="Rectangle_401223-2" data-name="Rectangle 401223" width="88.539" height="88.539" fill="#f3f9ff"/>
    </clipPath>
  </defs>
  <g id="Group_1109551" data-name="Group 1109551" transform="translate(-619.921 -5755.398)">
    <g id="Group_1100724" data-name="Group 1100724" transform="translate(619.921 5755.398)">
      <g id="Group_1099654" data-name="Group 1099654" transform="translate(0 0)">
        <g id="Group_1099652" data-name="Group 1099652" clip-path="url(#clip-path)">
          <path id="Path_873521" data-name="Path 873521" d="M99,77.066A22,22,0,0,1,77.066,99H21.934A22,22,0,0,1,0,77.066V21.933A22,22,0,0,1,21.934,0H77.066A22,22,0,0,1,99,21.934Z" transform="translate(0)" fill="#bfa9fe"/>
        </g>
      </g>
      <g id="Group_1099659" data-name="Group 1099659" transform="translate(4.77 5.723)">
        <g id="Group_1099652-2" data-name="Group 1099652" transform="translate(0 0)" clip-path="url(#clip-path-2)">
          <path id="Path_873521-2" data-name="Path 873521" d="M88.539,68.922A19.674,19.674,0,0,1,68.923,88.539H19.616A19.674,19.674,0,0,1,0,68.922V19.616A19.674,19.674,0,0,1,19.616,0H68.923A19.674,19.674,0,0,1,88.539,19.616Z" fill="#f3f9ff"/>
        </g>
      </g>
    </g>
    <g id="Group_1100725" data-name="Group 1100725" transform="translate(636.343 5771.293)">
      <rect id="Rectangle_401104" data-name="Rectangle 401104" width="68" height="69" transform="translate(-0.422 -0.895)" fill="none"/>
      <g id="Group_1109850" data-name="Group 1109850" transform="translate(-18.885 453.876)">
        <path id="Path_883908" data-name="Path 883908" d="M114.6-341.675a7.887,7.887,0,0,1-1.69-1.3,23.093,23.093,0,0,1-1.727-2.933,1.927,1.927,0,0,1,.831-2.891c1.744-.684,2.085-1.912,1.868-3.513a1.308,1.308,0,0,0-.439-.8c-.461-.351-1.006-.588-1.5-.9a2.06,2.06,0,0,1-.775-2.875c.533-1,1.106-1.986,1.7-2.953a2.1,2.1,0,0,1,2.879-.792.764.764,0,0,1,.16.09,2.451,2.451,0,0,0,3.484.1c.582-.445.922-.78.842-1.5a7.846,7.846,0,0,1,0-1.2,2.087,2.087,0,0,1,2.049-2.179,31.989,31.989,0,0,1,3.592,0,2.088,2.088,0,0,1,2.04,2.1.3.3,0,0,1,0,.092c-.456,1.822.548,2.762,2.064,3.355a1.308,1.308,0,0,0,.9,0c.533-.227,1.008-.584,1.527-.849a2.076,2.076,0,0,1,2.822.726q.928,1.482,1.75,3.03a2.072,2.072,0,0,1-.789,2.874.312.312,0,0,1-.08.045c-1.842.513-2.05,1.908-1.851,3.491a1.167,1.167,0,0,0,.4.725c.466.346,1,.593,1.5.9a2.074,2.074,0,0,1,.8,2.94c-.537,1-1.106,1.986-1.706,2.949a2.094,2.094,0,0,1-2.813.774.327.327,0,0,1-.082-.041,2.579,2.579,0,0,0-3.851.034,1.789,1.789,0,0,0-.562.9,8.592,8.592,0,0,0-.027,1.47,2.155,2.155,0,0,1-2.284,2.337c-1.043.039-2.09.039-3.134,0a2.156,2.156,0,0,1-2.269-2.352c-.055-2.3-.048-2.31-2.184-3.285a1.281,1.281,0,0,0-.9.141C116.349-342.6,115.58-342.18,114.6-341.675Zm21-14.134c-.333-.585-.6-1.064-.878-1.541-1.111-1.929-1.111-1.929-3.006-.883-1.726.952-5.253-.791-5.554-2.749a3.9,3.9,0,0,1-.026-.551,10.139,10.139,0,0,1,0-1.105c.069-.695-.149-1.038-.914-.958-.547.057-1.1.006-1.657.012-1.714.018-1.6-.211-1.529,1.5a3.358,3.358,0,0,1-1.879,3.231c-1.8,1.184-3.294,1.234-4.92-.07-.486-.39-.808-.217-1.081.3-.418.785-.859,1.56-1.329,2.315-.275.442-.232.786.246.953,2.254.789,2.767,2.434,2.584,4.648a2.835,2.835,0,0,1-1.468,2.617c-1.719.948-1.7.98-.709,2.707,1.065,1.854,1.065,1.854,2.959.8,1.774-.983,5.332.825,5.558,2.84a8.232,8.232,0,0,1,.013,1.565c-.056.7.153,1.047.917.956a10.957,10.957,0,0,1,1.289-.009c1.906,0,1.863,0,1.939-1.871a2.8,2.8,0,0,1,.541-1.859,15.892,15.892,0,0,1,3.282-1.957,2.1,2.1,0,0,1,1.409.174c.757.287,1.649,1.137,2.155.934.642-.258.97-1.324,1.406-2.058.741-1.248.769-1.331-.515-1.947-1.469-.7-1.878-1.739-1.957-3.361-.1-2.075.581-3.344,2.441-4.1A3.153,3.153,0,0,0,135.6-355.809Z" transform="translate(-72.1 -68.836)" fill="#34054d"/>
        <path id="Path_883909" data-name="Path 883909" d="M214.321-215.871c-2.674,1.545-4.407,1.514-5.812-.005a3.739,3.739,0,0,1-.278-4.749,3.139,3.139,0,0,1,2.883-1.514,20.828,20.828,0,0,1,3.215.873c.008-.119.041-.411.042-.7.006-1.352,0-2.7,0-4.055,0-1.227.208-1.423,1.467-1.426,1.443,0,2.887.02,4.33-.008a2.017,2.017,0,0,1,2.139,1.111,2.179,2.179,0,0,1-.427,2.388,2,2,0,0,0,1.175,3.325,1.922,1.922,0,0,0,2.055-.911,1.988,1.988,0,0,0-.108-2.328,4.275,4.275,0,0,1-.666-1.085,1.918,1.918,0,0,1,1.858-2.478c1.719-.044,3.44-.014,5.16-.011.722,0,1.057.375,1.057,1.093,0,4.946.008,9.892-.01,14.838a1.97,1.97,0,0,1-2.079,2.1c-4.945.02-9.89.006-14.835.012a.98.98,0,0,1-1.119-1.129q.007-2.166,0-4.332C214.37-215.16,214.343-215.453,214.321-215.871Zm11.695-9.768c1.479,3.041,1.41,4.577-.194,5.914a3.6,3.6,0,0,1-4.662.093,4.742,4.742,0,0,1-1.38-2,3.94,3.94,0,0,1,1.171-3.991h-4.824c0,.407,0,.741,0,1.074,0,1.075.037,2.153-.015,3.226a1.909,1.909,0,0,1-2.5,1.918,3.917,3.917,0,0,1-1.09-.651,2.028,2.028,0,0,0-2.75.275,2.019,2.019,0,0,0-.006,2.691,2.018,2.018,0,0,0,2.745.284c.176-.122.323-.36.507-.386a7.473,7.473,0,0,1,2.572-.218c.794.181.525,1.13.536,1.779.023,1.466.007,2.933.007,4.45.381.024.65.056.919.056,4.209,0,8.419-.016,12.627.018.815.007,1.053-.255,1.046-1.057-.033-4.21-.015-8.42-.018-12.63,0-.268-.033-.537-.054-.849Z" transform="translate(-150.93 -181.321)" fill="#34054d"/>
        <path id="Path_883910" data-name="Path 883910" d="M40.506-437.954c0,1.594.006,3.251,0,4.908-.005,1.12-.234,1.346-1.359,1.351-1.475.007-2.951-.018-4.426.009a2.027,2.027,0,0,1-2.147-1.1,2.135,2.135,0,0,1,.419-2.389,1.941,1.941,0,0,0,.132-2.541,2.083,2.083,0,0,0-2.392-.711,2,2,0,0,0-1.25,2.139,2.972,2.972,0,0,0,.581,1.218,2.041,2.041,0,0,1,.36,2.227,1.91,1.91,0,0,1-1.929,1.152c-1.6,0-3.2.008-4.795,0-.982-.008-1.23-.269-1.231-1.285q-.007-7.24,0-14.48a2.038,2.038,0,0,1,2.287-2.271q7.238-.012,14.477,0c1,0,1.263.258,1.27,1.247.012,1.683,0,3.367,0,5.249,2.364-1.645,4.526-1.889,6.274.542a3.6,3.6,0,0,1-.4,4.513A3.152,3.152,0,0,1,43.514-437,21.906,21.906,0,0,1,40.506-437.954Zm-11.615,4.435c-1.488-2.718-1.467-4.342-.014-5.734a3.585,3.585,0,0,1,4.567-.45,5.027,5.027,0,0,1,1.563,1.964c.662,1.519.036,2.9-1.055,4.233h4.8c0-1.4,0-2.74,0-4.083a1.968,1.968,0,0,1,1.118-2.048,2.132,2.132,0,0,1,2.316.383,1.991,1.991,0,0,0,2.89-.078,2.018,2.018,0,0,0,.013-2.76,2.068,2.068,0,0,0-2.9-.121,3.006,3.006,0,0,1-1.122.577,1.923,1.923,0,0,1-2.3-2.084c-.034-1.4-.007-2.806-.007-4.233a5.68,5.68,0,0,0-.572-.07c-4.4,0-8.791.01-13.186-.016-.763,0-.831.383-.829.983.013,4.273.006,8.547.01,12.82,0,.236.045.472.07.716Z" transform="translate(0 -0.027)" fill="#34054d"/>
        <path id="Path_883911" data-name="Path 883911" d="M24.233-256.16c-.022.412-.049.682-.049.953,0,4.179.019,8.359-.019,12.538-.008.843.231,1.2,1.094,1.1a2.515,2.515,0,0,1,1.184.032,1.329,1.329,0,0,1,.77.8,1.038,1.038,0,0,1-.645.8A10.062,10.062,0,0,1,24-239.962a1.861,1.861,0,0,1-1.521-1.939c-.017-4.978-.007-9.957-.011-14.935,0-.79.426-1.085,1.166-1.08,1.413.01,2.826,0,4.24,0h1.1c-1.654-2.368-1.89-4.527.537-6.277a3.6,3.6,0,0,1,4.511.4,3.154,3.154,0,0,1,1.185,2.863,22,22,0,0,1-.953,3.015h1.854c1.106,0,2.212,0,3.318,0,.659,0,1.072.293,1.077.979.013,1.782.064,3.567-.019,5.346a1.949,1.949,0,0,1-3.154,1.423,4.894,4.894,0,0,0-1.176-.687,1.942,1.942,0,0,0-2.213.917A2.136,2.136,0,0,0,34.1-247.6a1.972,1.972,0,0,0,2.324.584,6.213,6.213,0,0,0,.912-.608,1.945,1.945,0,0,1,3.144,1.431c.083,1.778.032,3.564.02,5.346a.887.887,0,0,1-.982.974q-4.47.009-8.941,0c-.575,0-.95-.27-.937-.888.013-.637.432-.818.995-.818q3.5,0,7.005,0H38.7v-4.732c-2.377,1.606-4.586,1.86-6.287-.753a3.564,3.564,0,0,1,.533-4.417c1.39-1.475,2.7-1.493,5.817.008V-256.1c-.386-.02-.709-.048-1.033-.05-1.137-.009-2.274.016-3.41-.021a1.806,1.806,0,0,1-1.758-1.126,2.248,2.248,0,0,1,.278-2.178,3.44,3.44,0,0,0,.64-1.738,1.808,1.808,0,0,0-1.5-1.753,1.872,1.872,0,0,0-2.054.69,1.927,1.927,0,0,0-.176,2.318,2.8,2.8,0,0,0,.328.444,1.95,1.95,0,0,1,.348,2.221,1.951,1.951,0,0,1-1.947,1.134C27.094-256.149,25.715-256.16,24.233-256.16Z" transform="translate(-0.007 -150.858)" fill="#34054d"/>
        <path id="Path_883912" data-name="Path 883912" d="M250.944-431.719h-4.067c-2.172,0-2.172,0-2.172-2.2,0-1.229.017-2.459-.005-3.688a1.961,1.961,0,0,1,1.108-2.05,2.1,2.1,0,0,1,2.315.37,1.981,1.981,0,0,0,2.885-.065,2.084,2.084,0,0,0,.033-2.767,2.019,2.019,0,0,0-2.895-.107,2.048,2.048,0,0,1-2.292.421,2.016,2.016,0,0,1-1.154-2.115c.02-1.506,0-3.012.008-4.518.006-1.07.247-1.319,1.287-1.323,2.089-.007,4.179,0,6.268-.006.637,0,1.244.085,1.243.872,0,.8-.63.849-1.255.845-1.6-.009-3.2,0-4.793,0h-.943v4.731c2.4-1.611,4.611-1.852,6.3.775a3.6,3.6,0,0,1-.694,4.543c-1.452,1.371-3.129,1.341-5.55-.169v4.7c1.337,0,2.708-.024,4.077.006,1.529.033,2.355.93,2.125,2.333a2.9,2.9,0,0,1-.562,1.124,2.057,2.057,0,0,0,.163,2.9,2.021,2.021,0,0,0,2.691.008,2,2,0,0,0,.165-2.885,2.093,2.093,0,0,1-.425-2.375,2.082,2.082,0,0,1,2.149-1.113c1.317,0,2.633,0,4.017,0,.024-.353.059-.62.059-.888,0-4.21-.022-8.421.022-12.631.009-.889-.308-1.117-1.125-1.071-1.011.057-2.027.008-3.041.013-.563,0-1-.186-1.01-.809-.014-.664.424-.9,1.029-.9,1.29,0,2.582-.028,3.871.013a1.9,1.9,0,0,1,1.942,1.847c.037,5.071.024,10.142.018,15.212,0,.695-.433.969-1.084.969-1.444,0-2.888,0-4.332,0-.3,0-.594.025-1.057.046,1.59,2.257,1.864,4.365-.421,6.14a3.606,3.606,0,0,1-4.525-.2,3.156,3.156,0,0,1-1.307-2.9A21.831,21.831,0,0,1,250.944-431.719Z" transform="translate(-181.261)" fill="#34054d"/>
        <path id="Path_883913" data-name="Path 883913" d="M193.429-403.287c-.5-.026-1.472.218-1.444-.884.025-1.012.958-.8,1.637-.818.305-.009.674-.1.9.031a1.62,1.62,0,0,1,.8.874c.038.214-.456.6-.784.773C194.3-403.187,193.94-403.287,193.429-403.287Z" transform="translate(-138.265 -36.492)" fill="#34054d"/>
        <path id="Path_883914" data-name="Path 883914" d="M68.847-315.594a2.455,2.455,0,0,1-.028.994c-.152.306-.551.73-.782.7a1.216,1.216,0,0,1-.832-.749,4.23,4.23,0,0,1,0-1.815c.069-.315.568-.8.78-.759.334.068.648.483.855.821.122.2.022.536.022.811Z" transform="translate(-36.411 -108.104)" fill="#34054d"/>
        <path id="Path_883915" data-name="Path 883915" d="M288.254-278.74c.016-.52-.189-1.441.834-1.453s.862.9.872,1.588c0,.306.1.666-.027.9a4.855,4.855,0,0,1-.817.91,4.65,4.65,0,0,1-.837-.884C288.149-277.91,288.254-278.274,288.254-278.74Z" transform="translate(-216.753 -138.311)" fill="#34054d"/>
        <path id="Path_883916" data-name="Path 883916" d="M156.576-183.867a2.451,2.451,0,0,1,.994.028c.306.152.73.551.7.782a1.216,1.216,0,0,1-.748.832,4.226,4.226,0,0,1-1.815,0c-.315-.069-.8-.568-.759-.781.067-.333.483-.648.821-.855.2-.122.536-.022.811-.022Z" transform="translate(-108.053 -216.836)" fill="#34054d"/>
        <path id="Path_883917" data-name="Path 883917" d="M223.456-403.137c-.65.035-1.17-.147-1.157-.87s.561-.844,1.174-.844,1.173.114,1.183.837C224.667-403.235,224.087-403.091,223.456-403.137Z" transform="translate(-162.991 -36.637)" fill="#34054d"/>
        <path id="Path_883918" data-name="Path 883918" d="M69.046-341.055c.043.68-.125,1.211-.848,1.21s-.863-.536-.863-1.157c0-.65.125-1.231.91-1.2C68.965-342.172,69.1-341.617,69.046-341.055Z" transform="translate(-36.599 -87.736)" fill="#34054d"/>
        <path id="Path_883919" data-name="Path 883919" d="M288.39-248.7c-.039-.641.136-1.166.859-1.159s.855.548.855,1.165-.108,1.174-.829,1.192C288.5-247.481,288.343-248.056,288.39-248.7Z" transform="translate(-216.89 -163.054)" fill="#34054d"/>
        <path id="Path_883920" data-name="Path 883920" d="M131.167-183.762c.665-.032,1.177.16,1.153.883s-.579.83-1.187.832-1.169-.134-1.169-.852C129.963-183.678,130.552-183.809,131.167-183.762Z" transform="translate(-87.68 -216.956)" fill="#34054d"/>
        <path id="Path_883921" data-name="Path 883921" d="M186.2-183.751c.637-.039,1.162.136,1.158.858s-.545.856-1.163.856-1.173-.1-1.193-.827C184.981-183.646,185.557-183.8,186.2-183.751Z" transform="translate(-132.571 -216.966)" fill="#34054d"/>
        <path id="Path_883922" data-name="Path 883922" d="M168.422-403.138c-.66.034-1.172-.16-1.151-.881s.574-.834,1.184-.834,1.17.129,1.172.848C169.63-403.225,169.043-403.091,168.422-403.138Z" transform="translate(-118.108 -36.636)" fill="#34054d"/>
        <path id="Path_883923" data-name="Path 883923" d="M290.083-303.743c.034.594-.084,1.163-.806,1.194-.783.034-.914-.537-.911-1.194,0-.62.129-1.158.854-1.162S290.114-304.38,290.083-303.743Z" transform="translate(-216.877 -118.156)" fill="#34054d"/>
        <path id="Path_883924" data-name="Path 883924" d="M69.048-285.963c.039.644-.143,1.165-.864,1.156s-.85-.554-.85-1.17.111-1.172.834-1.187C68.949-287.179,69.094-286.6,69.048-285.963Z" transform="translate(-36.598 -132.626)" fill="#34054d"/>
        <path id="Path_883925" data-name="Path 883925" d="M153-312.432a6.594,6.594,0,0,1-6.578-6.738,6.593,6.593,0,0,1,6.736-6.578,6.588,6.588,0,0,1,6.577,6.737A6.593,6.593,0,0,1,153-312.432Zm.036-11.628a5.051,5.051,0,0,0-4.926,4.966,5.053,5.053,0,0,0,5.012,4.974,5.052,5.052,0,0,0,4.925-4.967A5.049,5.049,0,0,0,153.037-324.06Z" transform="translate(-101.104 -101.155)" fill="#34054d"/>
        <path id="Path_883926" data-name="Path 883926" d="M168.643-306.629a3.2,3.2,0,0,1,3.16,3.081,3.2,3.2,0,0,1-3.15,3.184,3.2,3.2,0,0,1-3.114-3.129A3.2,3.2,0,0,1,168.643-306.629Zm1.387,3.117a1.339,1.339,0,0,0-1.329-1.343,1.339,1.339,0,0,0-1.389,1.374,1.344,1.344,0,0,0,1.42,1.344A1.342,1.342,0,0,0,170.03-303.512Z" transform="translate(-116.696 -116.75)" fill="#34054d"/>
      </g>
    </g>
  </g>
</svg>
