<svg xmlns="http://www.w3.org/2000/svg" xmlns:xlink="http://www.w3.org/1999/xlink" width="113.138" height="113.138" viewBox="0 0 113.138 113.138">
  <defs>
    <radialGradient id="radial-gradient" cx="0.5" cy="0.5" r="1.091" gradientTransform="translate(9.246 -112.844) scale(0.435 0.435)" gradientUnits="objectBoundingBox">
      <stop offset="0" stop-color="#9f80ff"/>
      <stop offset="0.998" stop-color="#21056a" stop-opacity="0"/>
    </radialGradient>
    <linearGradient id="linear-gradient" y1="0.5" x2="1" y2="0.5" gradientUnits="objectBoundingBox">
      <stop offset="0" stop-color="#374ded"/>
      <stop offset="1" stop-color="#6e50ff"/>
    </linearGradient>
  </defs>
  <g id="Group_1107489" data-name="Group 1107489" transform="translate(208.965 1221.552)">
    <ellipse id="Ellipse_11545" data-name="Ellipse 11545" cx="23.608" cy="10.269" rx="23.608" ry="10.269" transform="translate(-175.899 -1200.963)" opacity="0.9" fill="url(#radial-gradient)" style="mix-blend-mode: lighten;isolation: isolate"/>
    <g id="Group_1102404" data-name="Group 1102404">
      <circle id="Ellipse_11543" data-name="Ellipse 11543" cx="41.247" cy="41.247" r="41.247" transform="translate(-193.66 -1206.248)" opacity="0.3" fill="url(#linear-gradient)"/>
      <circle id="Ellipse_11544" data-name="Ellipse 11544" cx="45.523" cy="45.523" r="45.523" transform="matrix(0.973, -0.23, 0.23, 0.973, -207.16, -1198.829)" fill="none" stroke="#a01f4e" stroke-miterlimit="10" stroke-width="3"/>
      <g id="Group_1107488" data-name="Group 1107488" transform="translate(-1050.431 -1363.306)">
        <path id="Path_881819" data-name="Path 881819" d="M880.22,417.91c0,1.373,0,2.745,0,4.118,0,1.09-.286,1.368-1.338,1.353a10.165,10.165,0,0,1-9.669-9.632c-.021-1.077.251-1.372,1.315-1.374q4.164-.009,8.327,0c1.122,0,1.362.255,1.366,1.419C880.223,415.164,880.22,416.537,880.22,417.91Zm-1.877-3.657h-7.136c.1,3.562,3.795,7.224,7.136,7.091Z" transform="translate(-0.359 -196.228)" fill="#fff"/>
        <path id="Path_881820" data-name="Path 881820" d="M909.175,267.864c0-1.435.013-2.87-.005-4.3-.011-.852.383-1.223,1.225-1.207,1.068.021,2.137,0,3.205.006a.952.952,0,0,1,1.081,1.063q0,4.441,0,8.883a.953.953,0,0,1-1.081,1.064c-1.068,0-2.137-.014-3.2.006-.841.016-1.236-.355-1.225-1.207C909.188,270.734,909.175,269.3,909.175,267.864Zm3.6,3.63v-7.242h-1.7v7.242Z" transform="translate(-32.989 -73.731)" fill="#fff"/>
        <path id="Path_881821" data-name="Path 881821" d="M874.692,272.412c0,1.282-.013,2.564,0,3.846.012.849-.379,1.226-1.222,1.21-1.037-.02-2.076-.015-3.113,0-.794.01-1.183-.347-1.181-1.155q.012-3.891,0-7.783a1.01,1.01,0,0,1,1.174-1.162c1.007.013,2.014,0,3.022,0,1.033.007,1.307.273,1.314,1.287C874.7,269.909,874.693,271.161,874.692,272.412Zm-3.605-3.161v6.33H872.8v-6.33Z" transform="translate(-0.335 -77.824)" fill="#fff"/>
        <path id="Path_881822" data-name="Path 881822" d="M1104.175,237.77c0-1.4.013-2.809,0-4.213-.011-.853.387-1.212,1.228-1.2,1.954.018,3.908.013,5.862,0,.8,0,1.18.354,1.178,1.159q-.011,4.351,0,8.7c0,.807-.385,1.162-1.18,1.158-1.954-.011-3.908-.015-5.862,0-.841.007-1.235-.356-1.225-1.208C1104.188,240.7,1104.175,239.235,1104.175,237.77Zm1.9-3.53v7.215h4.468V234.24Z" transform="translate(-192.218 -49.232)" fill="#fff"/>
        <path id="Path_881823" data-name="Path 881823" d="M1058.494,194.2c-2.626,0-5.253-.006-7.879,0-.679,0-1.288-.129-1.275-.941s.64-.908,1.309-.907q7.833.012,15.666,0c.665,0,1.305.081,1.32.9.015.878-.656.956-1.354.953C1063.685,194.2,1061.09,194.2,1058.494,194.2Z" transform="translate(-147.446 -16.575)" fill="#fff"/>
        <path id="Path_881824" data-name="Path 881824" d="M1058.286,214.205c-2.626,0-5.253-.005-7.879,0-.578,0-1.04-.147-1.174-.771s.342-1.064,1.139-1.069c2.26-.012,4.519,0,6.779,0,2.993,0,5.985,0,8.978,0,.681,0,1.385.024,1.4.905s-.67.945-1.364.942C1063.538,214.2,1060.912,214.205,1058.286,214.205Z" transform="translate(-147.34 -32.909)" fill="#fff"/>
        <path id="Path_881825" data-name="Path 881825" d="M1053.525,232.369c.946,0,1.891.009,2.837,0,.665-.008,1.188.2,1.177.946-.01.686-.5.9-1.133.9q-2.974-.01-5.948,0c-.63,0-1.123-.213-1.131-.9-.009-.745.515-.952,1.179-.944C1051.512,232.378,1052.518,232.369,1053.525,232.369Z" transform="translate(-147.435 -49.244)" fill="#fff"/>
        <path id="Path_881826" data-name="Path 881826" d="M1053.411,254.223h-3.02c-.643,0-1.094-.27-1.076-.954.016-.63.452-.885,1.054-.885q3.065,0,6.131,0c.606,0,1.025.277,1.032.906s-.4.923-1.01.927C1055.486,254.228,1054.448,254.222,1053.411,254.223Z" transform="translate(-147.426 -65.591)" fill="#fff"/>
        <path id="Path_881827" data-name="Path 881827" d="M1006.218,303.423a11.008,11.008,0,1,1-10.888-11.036A11.009,11.009,0,0,1,1006.218,303.423Zm-10.946,9.139a9.166,9.166,0,1,0-9.228-9.173A9.205,9.205,0,0,0,995.273,312.562Z" transform="translate(-94.257 -98.255)" fill="#fff"/>
        <path id="Path_881828" data-name="Path 881828" d="M1004.19,348.774c-.047-.645.1-1.219.846-1.272s.948.462,1.005,1.13a5.463,5.463,0,0,0,5.237,5.249c.664.056,1.186.252,1.142.994s-.614.877-1.26.863A7.41,7.41,0,0,1,1004.19,348.774Z" transform="translate(-110.571 -143.257)" fill="#fff"/>
        <path id="Path_881829" data-name="Path 881829" d="M940.665,224.2a2.9,2.9,0,0,0-.494-1.071,12.025,12.025,0,0,0-1.1-1.375c-2.744-2.785-5.521-5.537-8.285-8.3-.192-.192-.372-.4-.519-.556.513-1.255.975-2.473,1.523-3.652a1.078,1.078,0,0,1,.829-.412c2.2-.034,4.4.012,6.6-.044.458-.012.6-.023,1.362-.039v-36.1a.585.585,0,0,0-.588-.586c-5.193.026-16.318.059-23.612.06-1.267,0-1.484.218-1.484,1.49q0,7.7,0,15.409c0,1.683,0,1.684-1.639,2.105-.041.011-.1-.04-.19-.081q0-4.606,0-9.243c0-1.2-.234-1.421-1.457-1.425-.887,0-1.773,0-2.66,0-.775,0-1.133.117-1.286.547v13.211a10.444,10.444,0,0,0-1.9,2.225c-.012-.249-.028-.42-.028-.591,0-2.568,0-5.136,0-7.7,0-.972-.287-1.256-1.246-1.266-1.039-.011-2.079-.006-3.118,0-1.123,0-1.017.794-1.028,2.184-.025,3.2-.025,5.618-.022,8.81,0,1.31.077,1.863,1.042,1.855.849-.007,1.7,0,2.561,0l-1,4.236c-.828-.175-1.6-.374-2.379-.5a10.135,10.135,0,0,0-11.315,9.684c0,.948.289,1.246,1.262,1.25,2.293.009,4.586,0,6.879,0h1.029c0,2.594,0,5.066,0,7.538,0,1.477.279,1.767,1.708,1.609a10.076,10.076,0,0,0,8.346-5.77c.129-.255.252-.512.395-.8a14.8,14.8,0,0,0,8.8,2.929,15.077,15.077,0,0,0,8.933-2.981,6.866,6.866,0,0,0,.581.784q4.271,4.289,8.56,8.561a2.7,2.7,0,0,0,3.859.325,5.8,5.8,0,0,0,.876-1.176,1.544,1.544,0,0,0,.246-.609A1.309,1.309,0,0,0,940.665,224.2Zm-36.827-26.474h-1.723v-9.047h1.723Zm12.968-23.7h21.881V206.9h-6.439l.115-1.76c1.14,0,2.234-.009,3.327,0,.662.007,1.2-.188,1.192-.935s-.56-.92-1.216-.912c-1.126.014-2.252,0-3.422,0l-.349-1.829c1.293,0,2.511-.01,3.729,0,.688.008,1.279-.152,1.257-.962-.016-.6-.387-.814-.867-.87h-3.407l-.083,0a3.342,3.342,0,0,1-.6,0h-.733c-.035-.117-.1-.288-.175-.479a1.679,1.679,0,0,1-.262-.62l-.007-.02c-.17-.392-.321-.723-.321-.723,1.783,0,3.451-.009,5.12,0,.663.005,1.309-.072,1.332-.886.024-.879-.644-.967-1.345-.962-1.926.012-3.852.017-5.777-.009a1.473,1.473,0,0,1-.9-.287c-1.229-1.083-2.42-2.21-3.619-3.317a3.055,3.055,0,0,1,.437-.042c.638.006,1.119-.235,1.115-.922,0-.75-.543-.93-1.2-.925-1.681.011-3.363,0-5.044,0h-3.742Zm-7.336,8.234h1.751v7.88c0,1.833,0,1.833-1.751,2.743ZM890.907,212.4a6.6,6.6,0,0,1,1.681-4.077l4.086,4.077Zm16.186,3.619a8.015,8.015,0,0,1-6.873,5.485c0-2.38-.041-4.758.02-7.133a2.8,2.8,0,0,0-.95-2.33c-1.717-1.6-3.36-3.289-5.084-4.992a7.884,7.884,0,0,1,8.418-1.166.911.911,0,0,1,.38.635,15.029,15.029,0,0,0,3.934,8.687A1.016,1.016,0,0,1,907.093,216.018Zm10.523,1.958a12.837,12.837,0,1,1,12.863-12.882A12.874,12.874,0,0,1,917.616,217.976Zm20.854,7.044a.873.873,0,0,1-1.369-.056c-3.066-3.052-6.125-6.109-9.264-9.242l1.287-1.4c.913.944,1.765,1.847,2.639,2.726q3.127,3.145,6.271,6.274c.108.108.216.215.323.324C938.775,224.077,938.914,224.559,938.471,225.021Z" transform="translate(-16.691 0)" fill="#fff"/>
        <path id="Path_881830" data-name="Path 881830" d="M896.332,173.611c-.012-.809-.47-.99-.788-1-1.043-.041-1.9-.017-2.921-.007a.761.761,0,0,0-.778.9.662.662,0,0,0,.182.376.864.864,0,0,0,.634.264h.993l-.216.283c.017,0-1.1,1.451-1.629,2.115a1.351,1.351,0,0,1-1.9.407,2.881,2.881,0,0,0-5.391,2.022c-.008.046-.015.094-.027.138l-1.383,1.582a1.793,1.793,0,0,1-.253.1,2.877,2.877,0,0,0-3.9,1.731l-.013.01h-2.773l-.065-.045a2.879,2.879,0,0,0-5.362,2.1,1.667,1.667,0,0,1-.068.216l-1.437,1.643c-.025.027-.051.052-.075.079s-.058.068-.085.1l-.121.138a.948.948,0,0,0,.109,1.267,1,1,0,0,0,1.346.019l.007-.007.9-1.024c.123-.124.236-.247.384-.413a1.069,1.069,0,0,1,.637-.39,2.879,2.879,0,0,0,3.763-1.576l.005,0h2.812a1.375,1.375,0,0,1,.249.171,2.892,2.892,0,0,0,.757.886,2.648,2.648,0,0,0,2.664.473,3.077,3.077,0,0,0,.441-.192c.032-.017.064-.035.1-.053s.09-.053.133-.081l.07-.046a2.65,2.65,0,0,0,.928-1.059,2.853,2.853,0,0,0,.159-2.25l.021-.108L885.631,181a1.69,1.69,0,0,1,.664-.229,2.87,2.87,0,0,0,3.648-1.678,1.3,1.3,0,0,1,.875-.119,2.13,2.13,0,0,0,2.306-1.091c.151-.235.485-.663.485-.663l1.462-1.838v1.12a.555.555,0,0,0,.566.567h.005c.678-.05.73-.679.731-1.268C896.376,174.933,896.346,174.568,896.332,173.611ZM873.7,184.852a1.334,1.334,0,1,1,1.048-1.047A1.336,1.336,0,0,1,873.7,184.852Zm8.26-.129A1.334,1.334,0,1,1,883,183.675,1.336,1.336,0,0,1,881.956,184.723Zm5.562-5.353a1.334,1.334,0,1,1,1.048-1.048A1.336,1.336,0,0,1,887.517,179.37Z" transform="translate(0 -0.43)" fill="#fff"/>
      </g>
    </g>
  </g>
</svg>
