<svg xmlns="http://www.w3.org/2000/svg" xmlns:xlink="http://www.w3.org/1999/xlink" width="98.579" height="98.578" viewBox="0 0 98.579 98.578">
  <defs>
    <clipPath id="clip-path">
      <rect id="Rectangle_401223" data-name="Rectangle 401223" width="98.579" height="98.578" transform="translate(0)" fill="#bfa9fe"/>
    </clipPath>
    <clipPath id="clip-path-2">
      <rect id="Rectangle_401223-2" data-name="Rectangle 401223" width="88.117" height="88.116" fill="#d7c9fe"/>
    </clipPath>
  </defs>
  <g id="Group_1107710" data-name="Group 1107710" transform="translate(-401.464 -1615.098)">
    <g id="Group_1100172" data-name="Group 1100172" transform="translate(-519.869 1204.092)">
      <g id="Group_1099654" data-name="Group 1099654" transform="translate(921.333 411.006)">
        <g id="Group_1099652" data-name="Group 1099652" transform="translate(0 0)" clip-path="url(#clip-path)">
          <path id="Path_873521" data-name="Path 873521" d="M98.579,76.737a21.9,21.9,0,0,1-21.84,21.84H21.84A21.9,21.9,0,0,1,0,76.737V21.84A21.9,21.9,0,0,1,21.84,0h54.9a21.9,21.9,0,0,1,21.84,21.841Z" transform="translate(0)" fill="#bfa9fe"/>
        </g>
      </g>
      <g id="Group_1099659" data-name="Group 1099659" transform="translate(926.103 416.728)">
        <g id="Group_1099652-2" data-name="Group 1099652" transform="translate(0 0)" clip-path="url(#clip-path-2)">
          <path id="Path_873521-2" data-name="Path 873521" d="M88.117,68.594A19.58,19.58,0,0,1,68.595,88.116H19.523A19.58,19.58,0,0,1,0,68.594V19.522A19.58,19.58,0,0,1,19.523,0H68.595A19.58,19.58,0,0,1,88.117,19.523Z" fill="#d7c9fe"/>
        </g>
      </g>
    </g>
    <g id="Group_1100171" data-name="Group 1100171" transform="translate(417.406 1630.901)">
      <rect id="Rectangle_401104" data-name="Rectangle 401104" width="68" height="69" transform="translate(0.059 -0.804)" fill="none"/>
      <g id="Group_1107730" data-name="Group 1107730" transform="translate(177.956 -261.445)">
        <path id="Path_882251" data-name="Path 882251" d="M-168.834,292.962l-15.8,44.579h81.465l-15.85-44.465Z" transform="translate(0 -8.005)" fill="#66af8d"/>
        <path id="Path_882252" data-name="Path 882252" d="M-151.491,292.962l-15,44.579,10.972.094,7.717-44.641Z" transform="translate(-8.262 -8.005)" fill="#eaae4e"/>
        <path id="Path_882253" data-name="Path 882253" d="M-81.1,292.962l15,44.579-10.972.094-7.717-44.641Z" transform="translate(-45.478 -8.005)" fill="#eaae4e"/>
        <path id="Path_882254" data-name="Path 882254" d="M-118.066,292.939l-4.658,44.6,17.308.105-6.3-44.667Z" transform="translate(-28.199 -8)" fill="#eaae4e"/>
        <g id="Group_1107717" data-name="Group 1107717" transform="translate(-169.727 305.401)">
          <g id="Group_1107716" data-name="Group 1107716" transform="translate(0 0)">
            <path id="Path_882255" data-name="Path 882255" d="M-153.427,323.36h-1.766c-1.141,0-2.067-1.323-2.067-2.955h1.765c1.142,0,2.067,1.323,2.067,2.955Z" transform="translate(157.26 -319.494)" fill="#367f5a"/>
            <path id="Path_882256" data-name="Path 882256" d="M-153.427,331h-1.766c-1.141,0-2.067-1.323-2.067-2.955h1.765c1.142,0,2.067,1.323,2.067,2.955Z" transform="translate(157.26 -321.189)" fill="#367f5a"/>
            <path id="Path_882257" data-name="Path 882257" d="M-148.438,327.206h1.766c1.142,0,2.067-1.323,2.067-2.955h-1.766c-1.142,0-2.067,1.323-2.067,2.955Z" transform="translate(153.241 -320.347)" fill="#367f5a"/>
            <rect id="Rectangle_404145" data-name="Rectangle 404145" width="0.515" height="13.718" transform="translate(4.058)" fill="#367f5a"/>
          </g>
        </g>
        <g id="Group_1107719" data-name="Group 1107719" transform="translate(-165.154 288.811)">
          <g id="Group_1107718" data-name="Group 1107718">
            <path id="Path_882258" data-name="Path 882258" d="M-145.028,302.041h-1.766c-1.142,0-2.067-1.323-2.067-2.955h1.766c1.142,0,2.067,1.323,2.067,2.955Z" transform="translate(148.861 -298.175)" fill="#367f5a"/>
            <path id="Path_882259" data-name="Path 882259" d="M-145.028,309.684h-1.766c-1.142,0-2.067-1.323-2.067-2.955h1.766c1.142,0,2.067,1.323,2.067,2.955Z" transform="translate(148.861 -299.87)" fill="#367f5a"/>
            <path id="Path_882260" data-name="Path 882260" d="M-140.038,305.887h1.765c1.142,0,2.067-1.323,2.067-2.955h-1.765c-1.142,0-2.067,1.323-2.067,2.955Z" transform="translate(144.842 -299.028)" fill="#367f5a"/>
            <rect id="Rectangle_404146" data-name="Rectangle 404146" width="0.515" height="13.718" transform="translate(4.058)" fill="#367f5a"/>
          </g>
        </g>
        <g id="Group_1107721" data-name="Group 1107721" transform="translate(-146.587 300.931)">
          <g id="Group_1107720" data-name="Group 1107720" transform="translate(0 0)">
            <path id="Path_882261" data-name="Path 882261" d="M-110.928,317.616h-1.765c-1.142,0-2.067-1.323-2.067-2.955H-113c1.142,0,2.067,1.323,2.067,2.955Z" transform="translate(114.761 -313.75)" fill="#367f5a"/>
            <path id="Path_882262" data-name="Path 882262" d="M-110.928,325.259h-1.765c-1.142,0-2.067-1.323-2.067-2.955H-113c1.142,0,2.067,1.323,2.067,2.955Z" transform="translate(114.761 -315.445)" fill="#367f5a"/>
            <path id="Path_882263" data-name="Path 882263" d="M-105.938,321.462h1.765c1.142,0,2.067-1.323,2.067-2.955h-1.765c-1.142,0-2.067,1.323-2.067,2.955Z" transform="translate(110.742 -314.603)" fill="#367f5a"/>
            <rect id="Rectangle_404147" data-name="Rectangle 404147" width="0.515" height="13.718" transform="translate(4.058)" fill="#367f5a"/>
          </g>
        </g>
        <g id="Group_1107723" data-name="Group 1107723" transform="translate(-129.001 287.334)">
          <g id="Group_1107722" data-name="Group 1107722" transform="translate(0)">
            <path id="Path_882264" data-name="Path 882264" d="M-78.63,300.142H-80.4c-1.142,0-2.067-1.322-2.067-2.954H-80.7c1.142,0,2.067,1.323,2.067,2.954Z" transform="translate(82.463 -296.276)" fill="#367f5a"/>
            <path id="Path_882265" data-name="Path 882265" d="M-78.63,307.785H-80.4c-1.142,0-2.067-1.323-2.067-2.955H-80.7c1.142,0,2.067,1.323,2.067,2.955Z" transform="translate(82.463 -297.971)" fill="#367f5a"/>
            <path id="Path_882266" data-name="Path 882266" d="M-73.641,303.988h1.766c1.142,0,2.067-1.323,2.067-2.955h-1.766c-1.142,0-2.067,1.323-2.067,2.955Z" transform="translate(78.444 -297.129)" fill="#367f5a"/>
            <rect id="Rectangle_404148" data-name="Rectangle 404148" width="0.515" height="13.718" transform="translate(4.058)" fill="#367f5a"/>
          </g>
        </g>
        <g id="Group_1107725" data-name="Group 1107725" transform="translate(-124.683 305.401)">
          <g id="Group_1107724" data-name="Group 1107724" transform="translate(0 0)">
            <path id="Path_882267" data-name="Path 882267" d="M-70.7,323.36h-1.765c-1.142,0-2.067-1.323-2.067-2.955h1.765c1.142,0,2.067,1.323,2.067,2.955Z" transform="translate(74.532 -319.494)" fill="#367f5a"/>
            <path id="Path_882268" data-name="Path 882268" d="M-70.7,331h-1.765c-1.142,0-2.067-1.323-2.067-2.955h1.765c1.142,0,2.067,1.323,2.067,2.955Z" transform="translate(74.532 -321.189)" fill="#367f5a"/>
            <path id="Path_882269" data-name="Path 882269" d="M-65.71,327.206h1.766c1.142,0,2.067-1.323,2.067-2.955h-1.766c-1.142,0-2.067,1.323-2.067,2.955Z" transform="translate(70.513 -320.347)" fill="#367f5a"/>
            <rect id="Rectangle_404149" data-name="Rectangle 404149" width="0.515" height="13.718" transform="translate(4.058)" fill="#367f5a"/>
          </g>
        </g>
        <rect id="Rectangle_404150" data-name="Rectangle 404150" width="2.033" height="13.413" transform="translate(-127.39 271.608)" fill="#b5591c"/>
        <path id="Path_882270" data-name="Path 882270" d="M-70.934,268.665a5.2,5.2,0,0,0-4.412-5c0-.032.005-.064.005-.1a5.289,5.289,0,0,0-5.461-5.1,5.815,5.815,0,0,0-.93.079,2.262,2.262,0,0,0-2.235-1.675,2.222,2.222,0,0,0-2.295,2.142,2.089,2.089,0,0,0,.926,1.711,4.846,4.846,0,0,0-.926,2.841,4.781,4.781,0,0,0,.246,1.518,5.246,5.246,0,0,0-4.936,5.074,5.289,5.289,0,0,0,5.461,5.1c.138,0,.273-.01.409-.019a6.041,6.041,0,0,0,5.052,2.63,5.851,5.851,0,0,0,5.845-4.542A5.1,5.1,0,0,0-70.934,268.665Z" transform="translate(-46.142)" fill="#66af8d"/>
        <g id="Group_1107729" data-name="Group 1107729" transform="translate(-161.442 267.37)">
          <path id="Path_882271" data-name="Path 882271" d="M-119.173,274.428h2.077l-.488-3.588a2.362,2.362,0,0,0-.05-.253l0-.01a3.229,3.229,0,0,0-2.48-2.29l-.926-.1v-1.826a.4.4,0,0,0-.178-.328V264.89l-.905-.886v2.026a.4.4,0,0,0-.179.329v1.685l-2.342-.261-2.618-6.867a1.4,1.4,0,0,0-1.222-.83h-7.76a1.025,1.025,0,0,0-1,.881l-.736,6.617-1.475.4a1.341,1.341,0,0,0-.928,1.124l-.34,5.312h1.38v.005h-1.38v.877a.891.891,0,0,0,.905.876h.906a4.9,4.9,0,0,0,4.453,2.808,4.9,4.9,0,0,0,4.453-2.808h5.73a2.839,2.839,0,0,0,2.869,2.808,2.84,2.84,0,0,0,2.869-2.808H-118a.891.891,0,0,0,.905-.876v-.877Zm-10.407,0v0l5.929,0v0Z" transform="translate(141.444 -259.385)" fill="gray" opacity="0.7" style="mix-blend-mode: multiply;isolation: isolate"/>
          <g id="Group_1107728" data-name="Group 1107728" transform="translate(0)">
            <path id="Path_882272" data-name="Path 882272" d="M-108.026,268.149v-2.026l.905.886v1.14a.4.4,0,0,1,.178.328V270.4a.418.418,0,0,1-.422.414h-.418a.418.418,0,0,1-.422-.414v-1.919A.4.4,0,0,1-108.026,268.149Z" transform="translate(126.629 -262.205)" fill="#54575d"/>
            <path id="Path_882273" data-name="Path 882273" d="M-140.775,266.673l1.475-.4.736-6.616a1.024,1.024,0,0,1,1-.881h7.76a1.4,1.4,0,0,1,1.222.83l2.618,6.867,4.53.505a3.2,3.2,0,0,1,2.532,2.552l.488,3.588-23.632-.006.34-5.313A1.341,1.341,0,0,1-140.775,266.673Z" transform="translate(142.043 -258.771)" fill="#a01f4e"/>
            <path id="Path_882274" data-name="Path 882274" d="M-141.138,287.435h21.822a.891.891,0,0,0,.905-.876v-.876h-23.632v.876A.891.891,0,0,0-141.138,287.435Z" transform="translate(142.043 -271.34)" fill="#60450c"/>
            <path id="Path_882275" data-name="Path 882275" d="M-134.625,260.524a.134.134,0,0,1,.1-.091h7.76a.523.523,0,0,1,.374.254l2.5,6.557h-11.484Z" transform="translate(139.005 -259.547)" fill="#7ad3ff"/>
            <path id="Path_882276" data-name="Path 882276" d="M-119.611,275.274a.36.36,0,0,0,.364.357h.924a.361.361,0,0,0,.364-.357h0a.36.36,0,0,0-.364-.357h-.924a.36.36,0,0,0-.364.357Z" transform="translate(131.825 -266.312)" fill="#60450c"/>
            <path id="Path_882277" data-name="Path 882277" d="M-114.516,280.5a.223.223,0,0,0,.226-.222v-5.138a.224.224,0,0,0-.226-.222.224.224,0,0,0-.227.222v5.138A.224.224,0,0,0-114.516,280.5Z" transform="translate(129.608 -266.312)" fill="#60450c"/>
            <g id="Group_1107726" data-name="Group 1107726" transform="translate(16.447 13.288)">
              <path id="Path_882278" data-name="Path 882278" d="M-111.836,286.511a2.839,2.839,0,0,0,2.868,2.808,2.839,2.839,0,0,0,2.869-2.808,2.839,2.839,0,0,0-2.869-2.809A2.839,2.839,0,0,0-111.836,286.511Z" transform="translate(111.836 -283.702)" fill="#54575d"/>
              <path id="Path_882279" data-name="Path 882279" d="M-109.532,287.588a1.6,1.6,0,0,0,1.614,1.579,1.6,1.6,0,0,0,1.614-1.579,1.6,1.6,0,0,0-1.614-1.58A1.6,1.6,0,0,0-109.532,287.588Z" transform="translate(110.786 -284.779)" fill="#d6e5ff"/>
            </g>
            <g id="Group_1107727" data-name="Group 1107727" transform="translate(1.368 9.318)">
              <path id="Path_882280" data-name="Path 882280" d="M-139.531,281.048a4.846,4.846,0,0,0,4.9,4.793,4.846,4.846,0,0,0,4.9-4.793,4.846,4.846,0,0,0-4.9-4.793A4.846,4.846,0,0,0-139.531,281.048Z" transform="translate(139.531 -276.255)" fill="#54575d"/>
              <path id="Path_882281" data-name="Path 882281" d="M-135.6,282.886a2.727,2.727,0,0,0,2.755,2.7,2.726,2.726,0,0,0,2.754-2.7,2.725,2.725,0,0,0-2.754-2.7A2.726,2.726,0,0,0-135.6,282.886Z" transform="translate(137.739 -278.093)" fill="#d6e5ff"/>
            </g>
            <path id="Path_882282" data-name="Path 882282" d="M-104.438,278.757l.238-.953a.719.719,0,0,1,.555-.494l1.511-.215a2.706,2.706,0,0,1,.358.989l.15,1.1h-2.468A.334.334,0,0,1-104.438,278.757Z" transform="translate(124.919 -267.329)" fill="#ff5320"/>
          </g>
        </g>
      </g>
    </g>
  </g>
</svg>
