<svg xmlns="http://www.w3.org/2000/svg" xmlns:xlink="http://www.w3.org/1999/xlink" width="98.579" height="98.578" viewBox="0 0 98.579 98.578">
  <defs>
    <clipPath id="clip-path">
      <rect id="Rectangle_401223" data-name="Rectangle 401223" width="98.579" height="98.578" transform="translate(0)" fill="#bfa9fe"/>
    </clipPath>
    <clipPath id="clip-path-2">
      <rect id="Rectangle_401223-2" data-name="Rectangle 401223" width="88.117" height="88.116" fill="#d7c9fe"/>
    </clipPath>
  </defs>
  <g id="Group_1107703" data-name="Group 1107703" transform="translate(-753.296 -1615.097)">
    <g id="Group_1102150" data-name="Group 1102150" transform="translate(-168.037 1204.092)">
      <g id="Group_1099654" data-name="Group 1099654" transform="translate(921.333 411.006)">
        <g id="Group_1099652" data-name="Group 1099652" transform="translate(0 0)" clip-path="url(#clip-path)">
          <path id="Path_873521" data-name="Path 873521" d="M98.579,76.737a21.9,21.9,0,0,1-21.84,21.84H21.84A21.9,21.9,0,0,1,0,76.737V21.84A21.9,21.9,0,0,1,21.84,0h54.9a21.9,21.9,0,0,1,21.84,21.841Z" transform="translate(0)" fill="#bfa9fe"/>
        </g>
      </g>
      <g id="Group_1099659" data-name="Group 1099659" transform="translate(926.103 416.728)">
        <g id="Group_1099652-2" data-name="Group 1099652" transform="translate(0 0)" clip-path="url(#clip-path-2)">
          <path id="Path_873521-2" data-name="Path 873521" d="M88.117,68.594A19.58,19.58,0,0,1,68.595,88.116H19.523A19.58,19.58,0,0,1,0,68.594V19.522A19.58,19.58,0,0,1,19.523,0H68.595A19.58,19.58,0,0,1,88.117,19.523Z" fill="#d7c9fe"/>
        </g>
      </g>
    </g>
    <g id="Group_1102151" data-name="Group 1102151" transform="translate(769.238 1630.901)">
      <rect id="Rectangle_401104" data-name="Rectangle 401104" width="68" height="69" transform="translate(-0.238 -0.372)" fill="none"/>
      <g id="Group_1107746" data-name="Group 1107746" transform="translate(-31.773 53.656)">
        <path id="Path_882298" data-name="Path 882298" d="M94.206-5.43l1.931-9.524-1.931-.391v-11.19l.991-.331L87.443-50.028,40.321-34.253l.581,1.739a15.156,15.156,0,0,0-6.065,15.33A15.136,15.136,0,0,0,43.675-6.273L42.583-.889l48.7,9.874L94.114-4.966h.092Z" transform="translate(2.156 2.156)" fill="#bfbaba" opacity="0.7" style="mix-blend-mode: multiply;isolation: isolate"/>
        <g id="Group_1107745" data-name="Group 1107745" transform="translate(33.535 -51.028)">
          <g id="Group_1107742" data-name="Group 1107742" transform="translate(5.786)">
            <g id="Group_1107739" data-name="Group 1107739" transform="translate(2.263 25.2)">
              <path id="Path_882299" data-name="Path 882299" d="M40.939-43.042,36.086-19.1l48.7,9.874,4.853-23.938ZM83.776-17.4c-1.246-.322-5.576-1.843-7.479,4.263l-31.531-6.4c.543-5.51-2.862-6.248-4.569-6.7L42.018-35.2c1.707.243,5.017.893,6.709-4.08L81.321-32.67c-.357,4.926,2.559,5.734,4.276,6.28Z" transform="translate(-36.086 43.042)" fill="#3fba6b"/>
              <path id="Path_882300" data-name="Path 882300" d="M78.513-35.241,45.919-41.849c-1.691,4.973-5,4.323-6.709,4.08L37.389-28.8c1.707.451,5.112,1.19,4.569,6.7l31.531,6.4c1.9-6.106,6.232-4.585,7.479-4.263l1.821-8.99C81.072-29.508,78.156-30.315,78.513-35.241Zm-31.253,7a2.994,2.994,0,0,1-2.341-3.534,3,3,0,0,1,3.534-2.345,3,3,0,0,1,2.341,3.534A3,3,0,0,1,47.26-28.242Zm11.243,6.9h0a7.532,7.532,0,0,1-5.885-8.877A7.531,7.531,0,0,1,61.5-36.1h0a7.532,7.532,0,0,1,5.882,8.88A7.529,7.529,0,0,1,58.5-21.338Zm14.43-1.7a3,3,0,0,1-2.345-3.534,3,3,0,0,1,3.537-2.345,3,3,0,0,1,2.341,3.537A2.994,2.994,0,0,1,72.933-23.039Z" transform="translate(-33.277 45.614)" fill="#fff"/>
              <path id="Path_882301" data-name="Path 882301" d="M50.3-31.831a2.994,2.994,0,0,0,3.534-2.341,3,3,0,0,0-2.341-3.537,3,3,0,0,0-3.537,2.345A3,3,0,0,0,50.3-31.831Z" transform="translate(-10.639 54.406)" fill="#55d18a"/>
              <path id="Path_882302" data-name="Path 882302" d="M42.158-33.48a3,3,0,0,0,3.534-2.345,3,3,0,0,0-2.341-3.534,3,3,0,0,0-3.534,2.345A2.994,2.994,0,0,0,42.158-33.48Z" transform="translate(-28.176 50.852)" fill="#55d18a"/>
              <path id="Path_882303" data-name="Path 882303" d="M51.2-39.923h0a7.531,7.531,0,0,0-8.88,5.885A7.532,7.532,0,0,0,48.2-25.161h0a7.529,7.529,0,0,0,8.877-5.882A7.532,7.532,0,0,0,51.2-39.923Z" transform="translate(-22.978 49.437)" fill="#3fba6b"/>
            </g>
            <g id="Group_1107740" data-name="Group 1107740" transform="translate(4.194 20.638)">
              <path id="Path_882304" data-name="Path 882304" d="M36.7-44.488v24.424H86.389V-44.488ZM83.776-27.871c-1.284-.066-5.828-.7-6.482,5.664H45.12c-.565-5.51-4.045-5.557-5.806-5.661v-9.148c1.723-.1,5.1-.12,5.765-5.33H78.336c.628,4.9,3.648,5.109,5.44,5.3Z" transform="translate(-36.698 44.488)" fill="#55d18a"/>
              <path id="Path_882305" data-name="Path 882305" d="M76.549-43.809H43.292c-.669,5.21-4.042,5.232-5.765,5.33v9.148c1.761.1,5.241.151,5.806,5.661H75.508c.653-6.362,5.2-5.731,6.482-5.664v-9.173C80.2-38.7,77.177-38.912,76.549-43.809Zm-29.24,13.07a3,3,0,0,1-3-3,3,3,0,0,1,3-3,3,3,0,0,1,3,3A3,3,0,0,1,47.309-30.739ZM59.7-26.21h0a7.531,7.531,0,0,1-7.532-7.529A7.531,7.531,0,0,1,59.7-41.269h0A7.528,7.528,0,0,1,67.23-33.74,7.528,7.528,0,0,1,59.7-26.21Zm13.8-4.531a3,3,0,0,1-2.995-3,3,3,0,0,1,2.995-3,3,3,0,0,1,3,3A3,3,0,0,1,73.5-30.742Z" transform="translate(-34.911 45.952)" fill="#fff"/>
              <path id="Path_882306" data-name="Path 882306" d="M50.974-35.57a3,3,0,0,0,3-3,3,3,0,0,0-3-3,3,3,0,0,0-2.995,3A3,3,0,0,0,50.974-35.57Z" transform="translate(-12.381 50.78)" fill="#55d18a"/>
              <path id="Path_882307" data-name="Path 882307" d="M42.675-35.567a3,3,0,0,0,3-3,3,3,0,0,0-3-3,3,3,0,0,0-3,3A3,3,0,0,0,42.675-35.567Z" transform="translate(-30.277 50.78)" fill="#55d18a"/>
              <path id="Path_882308" data-name="Path 882308" d="M49.7-43h0a7.531,7.531,0,0,0-7.532,7.529A7.531,7.531,0,0,0,49.7-27.946h0a7.528,7.528,0,0,0,7.529-7.529A7.528,7.528,0,0,0,49.7-43Z" transform="translate(-24.909 47.687)" fill="#55d18a"/>
            </g>
            <g id="Group_1107741" data-name="Group 1107741">
              <path id="Path_882309" data-name="Path 882309" d="M35.369-35.253l7.753,23.162L90.245-27.866,82.491-51.028Zm49.918.817c-1.24.344-5.753,1.186-4.348,7.428L65.95-21.99l-15.519,5.2c-2.285-5.046-5.6-3.989-7.305-3.528L40.219-29c1.6-.641,4.8-1.732,3.777-6.885l15.56-5.207L75.533-46.44c2.152,4.449,5.084,3.692,6.841,3.307Z" transform="translate(-35.369 51.028)" fill="#4cba7b"/>
              <path id="Path_882310" data-name="Path 882310" d="M72.22-49.574,40.683-39.015c1.019,5.153-2.174,6.245-3.777,6.885l2.906,8.675c1.7-.461,5.021-1.518,7.305,3.528L77.626-30.142c-1.4-6.242,3.108-7.084,4.348-7.428l-2.913-8.7C77.3-45.882,74.372-45.125,72.22-49.574ZM48.642-27.9a3,3,0,0,1-3.8-1.89,3,3,0,0,1,1.89-3.8,3,3,0,0,1,3.8,1.893A3,3,0,0,1,48.642-27.9Zm13.19.366h0A7.533,7.533,0,0,1,52.3-32.285a7.532,7.532,0,0,1,4.752-9.533h0a7.533,7.533,0,0,1,9.53,4.752A7.529,7.529,0,0,1,61.832-27.532Zm11.65-8.681a3,3,0,0,1-3.8-1.89,3,3,0,0,1,1.893-3.8,3,3,0,0,1,3.8,1.89A3,3,0,0,1,73.482-36.213Z" transform="translate(-32.056 54.162)" fill="#fff"/>
              <path id="Path_882311" data-name="Path 882311" d="M51.2-41.349a3,3,0,0,0,1.893-3.8,3,3,0,0,0-3.8-1.89,3,3,0,0,0-1.893,3.8A3,3,0,0,0,51.2-41.349Z" transform="translate(-9.77 59.298)" fill="#4cba7b"/>
              <path id="Path_882312" data-name="Path 882312" d="M43.324-38.714a3,3,0,0,0,1.893-3.793,3,3,0,0,0-3.8-1.893,3,3,0,0,0-1.89,3.8A3,3,0,0,0,43.324-38.714Z" transform="translate(-26.739 64.978)" fill="#4cba7b"/>
              <path id="Path_882313" data-name="Path 882313" d="M46.8-46.849h0a7.532,7.532,0,0,0-4.752,9.533,7.533,7.533,0,0,0,9.533,4.752h0A7.529,7.529,0,0,0,56.333-42.1,7.533,7.533,0,0,0,46.8-46.849Z" transform="translate(-21.808 59.194)" fill="#4cba7b"/>
            </g>
          </g>
          <g id="Group_1107744" data-name="Group 1107744" transform="translate(0 14.688)">
            <g id="Group_1107743" data-name="Group 1107743">
              <path id="Path_882314" data-name="Path 882314" d="M63.556-34.2A15.158,15.158,0,0,1,51.688-16.35,15.159,15.159,0,0,1,33.837-28.218,15.162,15.162,0,0,1,45.705-46.072,15.155,15.155,0,0,1,63.556-34.2Z" transform="translate(-33.535 46.374)" fill="#ffe133"/>
              <path id="Path_882315" data-name="Path 882315" d="M59.6-35.359A12.778,12.778,0,0,1,49.6-20.307,12.78,12.78,0,0,1,34.543-30.313a12.78,12.78,0,0,1,10.01-15.052A12.778,12.778,0,0,1,59.6-35.359Z" transform="translate(-31.912 47.999)" fill="#eab242"/>
            </g>
            <path id="Path_882316" data-name="Path 882316" d="M48.388-33.89c-.622-2.913-3.866-2.685-3.866-2.685-.442.082-.846.136-1.215.17L42.4-40.9a1.629,1.629,0,0,1,1.565,1.893l2.717-.546S46.943-44,41.856-43.6l-.073-.372a.959.959,0,0,0-1.136-.735.955.955,0,0,0-.767,1.117l.063.319c-4.317,1.142-3.806,4.011-3.424,5.62.369,1.565,1.092,3.5,5.26,3.506l.906,4.494c-1.764-.271-1.8-2.518-1.8-2.518l-3.127.631c.167,1.474.811,4.178,5.289,3.689l.155.757a.952.952,0,0,0,1.136.732.958.958,0,0,0,.764-1.117l-.145-.729C48.038-29,49.1-30.557,48.388-33.89Zm-9.044-4.187A2.174,2.174,0,0,1,40.5-40.532l.814,4.049C39.483-36.865,39.344-38.077,39.344-38.077Zm5.248,8.063-.83-4.131C46.53-33.792,46.555-31.059,44.592-30.015Z" transform="translate(-27.629 49.931)" fill="#ffe133"/>
          </g>
        </g>
      </g>
    </g>
  </g>
</svg>
