<svg xmlns="http://www.w3.org/2000/svg" xmlns:xlink="http://www.w3.org/1999/xlink" width="124.605" height="125.948" viewBox="0 0 124.605 125.948">
  <defs>
    <clipPath id="clip-path">
      <rect id="Rectangle_400938" data-name="Rectangle 400938" width="117.278" height="117.278" fill="none"/>
    </clipPath>
    <clipPath id="clip-path-2">
      <path id="Path_873460" data-name="Path 873460" d="M0,1.307A1.349,1.349,0,0,0,1.389,2.613,1.349,1.349,0,0,0,2.778,1.307,1.349,1.349,0,0,0,1.389,0,1.349,1.349,0,0,0,0,1.307" transform="translate(0)" fill="#34054d"/>
    </clipPath>
    <clipPath id="clip-path-3">
      <path id="Path_873466" data-name="Path 873466" d="M0,1.307A1.349,1.349,0,0,0,1.39,2.613,1.349,1.349,0,0,0,2.778,1.307,1.349,1.349,0,0,0,1.39,0,1.349,1.349,0,0,0,0,1.307" fill="#34054d"/>
    </clipPath>
    <clipPath id="clip-path-4">
      <path id="Path_873467" data-name="Path 873467" d="M0,1.306A1.349,1.349,0,0,0,1.389,2.612,1.349,1.349,0,0,0,2.778,1.306,1.349,1.349,0,0,0,1.389,0,1.349,1.349,0,0,0,0,1.306" transform="translate(0 0)" fill="#34054d"/>
    </clipPath>
    <clipPath id="clip-path-5">
      <path id="Path_873468" data-name="Path 873468" d="M0,1.306A1.349,1.349,0,0,0,1.39,2.612,1.349,1.349,0,0,0,2.778,1.306,1.349,1.349,0,0,0,1.39,0,1.349,1.349,0,0,0,0,1.306" transform="translate(0 0)" fill="#34054d"/>
    </clipPath>
    <clipPath id="clip-path-6">
      <path id="Path_873469" data-name="Path 873469" d="M0,1.306A1.349,1.349,0,0,0,1.389,2.612,1.349,1.349,0,0,0,2.777,1.306,1.349,1.349,0,0,0,1.389,0,1.349,1.349,0,0,0,0,1.306" transform="translate(0 0)" fill="#34054d"/>
    </clipPath>
    <clipPath id="clip-path-9">
      <path id="Path_873473" data-name="Path 873473" d="M0,1.306A1.349,1.349,0,0,0,1.39,2.612,1.348,1.348,0,0,0,2.778,1.306,1.349,1.349,0,0,0,1.39,0,1.349,1.349,0,0,0,0,1.306" transform="translate(0 0)" fill="#34054d"/>
    </clipPath>
    <clipPath id="clip-path-22">
      <rect id="Rectangle_401492" data-name="Rectangle 401492" width="63.051" height="63.052" transform="translate(0 0)" fill="#fff" stroke="#707070" stroke-width="1"/>
    </clipPath>
  </defs>
  <g id="Group_1109577" data-name="Group 1109577" transform="translate(23060.281 3818.28)">
    <g id="Group_1100237" data-name="Group 1100237" transform="translate(-23054.037 -3797.84)">
      <g id="Group_1099505" data-name="Group 1099505" transform="translate(1.808 8.418)">
        <g id="Group_1099504" data-name="Group 1099504" transform="translate(0)" clip-path="url(#clip-path-2)">
          <rect id="Rectangle_401140" data-name="Rectangle 401140" width="2.777" height="2.613" transform="translate(0)" fill="#34054d"/>
        </g>
      </g>
      <g id="Group_1099517" data-name="Group 1099517" transform="translate(37.056 8.418)">
        <g id="Group_1099516" data-name="Group 1099516" transform="translate(0)" clip-path="url(#clip-path-3)">
          <rect id="Rectangle_401146" data-name="Rectangle 401146" width="2.778" height="2.613" transform="translate(0 0)" fill="#34054d"/>
        </g>
      </g>
      <g id="Group_1099519" data-name="Group 1099519" transform="translate(30.194 8.418)">
        <g id="Group_1099518" data-name="Group 1099518" transform="translate(0 0)" clip-path="url(#clip-path-4)">
          <rect id="Rectangle_401147" data-name="Rectangle 401147" width="2.778" height="2.612" transform="translate(0 0)" fill="#34054d"/>
        </g>
      </g>
      <g id="Group_1099521" data-name="Group 1099521" transform="translate(23.332 8.418)">
        <g id="Group_1099520" data-name="Group 1099520" transform="translate(0 0)" clip-path="url(#clip-path-5)">
          <rect id="Rectangle_401148" data-name="Rectangle 401148" width="2.778" height="2.612" transform="translate(0 0)" fill="#34054d"/>
        </g>
      </g>
      <g id="Group_1099523" data-name="Group 1099523" transform="translate(16.47 8.418)">
        <g id="Group_1099522" data-name="Group 1099522" transform="translate(0 0)" clip-path="url(#clip-path-6)">
          <rect id="Rectangle_401149" data-name="Rectangle 401149" width="2.777" height="2.612" transform="translate(0 0)" fill="#34054d"/>
        </g>
      </g>
      <g id="Group_1099525" data-name="Group 1099525" transform="translate(34.311 0)">
        <g id="Group_1099524" data-name="Group 1099524" clip-path="url(#clip-path-4)">
          <rect id="Rectangle_401150" data-name="Rectangle 401150" width="2.778" height="2.612" transform="translate(0 0)" fill="#34054d"/>
        </g>
      </g>
      <g id="Group_1099529" data-name="Group 1099529" transform="translate(27.448 0)">
        <g id="Group_1099528" data-name="Group 1099528" transform="translate(0)" clip-path="url(#clip-path-5)">
          <rect id="Rectangle_401152" data-name="Rectangle 401152" width="2.778" height="2.612" transform="translate(0 0)" fill="#34054d"/>
        </g>
      </g>
      <g id="Group_1099531" data-name="Group 1099531" transform="translate(13.724 0)">
        <g id="Group_1099530" data-name="Group 1099530" transform="translate(0)" clip-path="url(#clip-path-9)">
          <rect id="Rectangle_401153" data-name="Rectangle 401153" width="2.777" height="2.612" transform="translate(0 0)" fill="#34054d"/>
        </g>
      </g>
      <g id="Group_1099533" data-name="Group 1099533" transform="translate(6.862 0)">
        <g id="Group_1099532" data-name="Group 1099532" clip-path="url(#clip-path-4)">
          <rect id="Rectangle_401154" data-name="Rectangle 401154" width="2.778" height="2.612" transform="translate(0 0)" fill="#34054d"/>
        </g>
      </g>
      <g id="Group_1099535" data-name="Group 1099535" transform="translate(0 0)">
        <g id="Group_1099534" data-name="Group 1099534" transform="translate(0)" clip-path="url(#clip-path-5)">
          <rect id="Rectangle_401155" data-name="Rectangle 401155" width="2.778" height="2.612" transform="translate(0 0)" fill="#34054d"/>
        </g>
      </g>
    </g>
    <g id="Group_1100238" data-name="Group 1100238" transform="translate(-22980.652 -3724.455)">
      <g id="Group_1099505-2" data-name="Group 1099505" transform="translate(1.808 8.418)">
        <g id="Group_1099504-2" data-name="Group 1099504" transform="translate(0)" clip-path="url(#clip-path-2)">
          <rect id="Rectangle_401140-2" data-name="Rectangle 401140" width="2.777" height="2.613" transform="translate(0)" fill="#34054d"/>
        </g>
      </g>
      <g id="Group_1099517-2" data-name="Group 1099517" transform="translate(37.056 8.418)">
        <g id="Group_1099516-2" data-name="Group 1099516" transform="translate(0)" clip-path="url(#clip-path-3)">
          <rect id="Rectangle_401146-2" data-name="Rectangle 401146" width="2.778" height="2.613" transform="translate(0 0)" fill="#34054d"/>
        </g>
      </g>
      <g id="Group_1099519-2" data-name="Group 1099519" transform="translate(30.194 8.418)">
        <g id="Group_1099518-2" data-name="Group 1099518" transform="translate(0 0)" clip-path="url(#clip-path-4)">
          <rect id="Rectangle_401147-2" data-name="Rectangle 401147" width="2.778" height="2.612" transform="translate(0 0)" fill="#34054d"/>
        </g>
      </g>
      <g id="Group_1099521-2" data-name="Group 1099521" transform="translate(23.332 8.418)">
        <g id="Group_1099520-2" data-name="Group 1099520" transform="translate(0 0)" clip-path="url(#clip-path-5)">
          <rect id="Rectangle_401148-2" data-name="Rectangle 401148" width="2.778" height="2.612" transform="translate(0 0)" fill="#34054d"/>
        </g>
      </g>
      <g id="Group_1099523-2" data-name="Group 1099523" transform="translate(16.47 8.418)">
        <g id="Group_1099522-2" data-name="Group 1099522" transform="translate(0 0)" clip-path="url(#clip-path-6)">
          <rect id="Rectangle_401149-2" data-name="Rectangle 401149" width="2.777" height="2.612" transform="translate(0 0)" fill="#34054d"/>
        </g>
      </g>
      <g id="Group_1099525-2" data-name="Group 1099525" transform="translate(34.311 0)">
        <g id="Group_1099524-2" data-name="Group 1099524" clip-path="url(#clip-path-4)">
          <rect id="Rectangle_401150-2" data-name="Rectangle 401150" width="2.778" height="2.612" transform="translate(0 0)" fill="#34054d"/>
        </g>
      </g>
      <g id="Group_1099529-2" data-name="Group 1099529" transform="translate(27.448 0)">
        <g id="Group_1099528-2" data-name="Group 1099528" transform="translate(0)" clip-path="url(#clip-path-5)">
          <rect id="Rectangle_401152-2" data-name="Rectangle 401152" width="2.778" height="2.612" transform="translate(0 0)" fill="#34054d"/>
        </g>
      </g>
      <g id="Group_1099531-2" data-name="Group 1099531" transform="translate(13.724 0)">
        <g id="Group_1099530-2" data-name="Group 1099530" transform="translate(0)" clip-path="url(#clip-path-9)">
          <rect id="Rectangle_401153-2" data-name="Rectangle 401153" width="2.777" height="2.612" transform="translate(0 0)" fill="#34054d"/>
        </g>
      </g>
      <g id="Group_1099533-2" data-name="Group 1099533" transform="translate(6.862 0)">
        <g id="Group_1099532-2" data-name="Group 1099532" clip-path="url(#clip-path-4)">
          <rect id="Rectangle_401154-2" data-name="Rectangle 401154" width="2.778" height="2.612" transform="translate(0 0)" fill="#34054d"/>
        </g>
      </g>
      <g id="Group_1099535-2" data-name="Group 1099535" transform="translate(0 0)">
        <g id="Group_1099534-2" data-name="Group 1099534" transform="translate(0)" clip-path="url(#clip-path-5)">
          <rect id="Rectangle_401155-2" data-name="Rectangle 401155" width="2.778" height="2.612" transform="translate(0 0)" fill="#34054d"/>
        </g>
      </g>
    </g>
    <path id="Path_873784" data-name="Path 873784" d="M83.8,18.565A18.62,18.62,0,0,0,65.231,0H18.566A18.62,18.62,0,0,0,0,18.566V65.231A18.62,18.62,0,0,0,18.565,83.8H65.231A18.62,18.62,0,0,0,83.8,65.23Z" transform="translate(-22994.928 -3692.332) rotate(-135)" fill="#bfa9fe"/>
    <path id="Path_873785" data-name="Path 873785" d="M86.438,19.15A19.206,19.206,0,0,0,67.287,0H19.151A19.207,19.207,0,0,0,0,19.151V67.287a19.206,19.206,0,0,0,19.15,19.15H67.287A19.207,19.207,0,0,0,86.437,67.286Z" transform="translate(-22999.16 -3696.04) rotate(-135)" fill="#34054d"/>
    <g id="Mask_Group_1098697" data-name="Mask Group 1098697" transform="translate(-23031.146 -3787.541)" clip-path="url(#clip-path-22)">
      <g id="Group_1109580" data-name="Group 1109580" transform="translate(-2727.377 -159.021)">
        <path id="Path_883367" data-name="Path 883367" d="M2773.444,186.7q1.807-6,3.61-12.01c.04-.134.107-.331.047-.414-.783-1.074.022-2.028.219-3.023.037-.186.143-.453.286-.509,1.156-.451,1.067-1.6,1.38-2.486.534-1.519,1.459-2.065,2.966-1.614,1.125.337,2.253.668,3.376,1.01a2.031,2.031,0,0,1,1.488,2.662c-.124.471-.249.944-.41,1.4a1.483,1.483,0,0,0,.041,1.445c.371.6-.47,2.85-1.052,3.271a1.72,1.72,0,0,0-.636.8q-4.593,15.141-9.127,30.3c-.322,1.079-1.2,1.648-1.787,2.472a3.25,3.25,0,0,0-.576,1.425c-.1.764,0,1.549-.034,2.323a2.027,2.027,0,0,1-2.183,2.138q-18.525.01-37.051,0a2.034,2.034,0,0,1-2.19-2.217q-.009-24.3,0-48.6a2.061,2.061,0,0,1,2.247-2.255q14.734-.009,29.468.016a1.778,1.778,0,0,1,1.125.462q4.039,3.941,8,7.96a2.259,2.259,0,0,1,.549,1.435c.041,4.366.024,8.733.024,13.1v.908Zm-1.491,25.423c-.607.577-1.1,1.087-1.637,1.538-.26.217-.68.51-.906.429-.25-.09-.451-.55-.515-.88-.373-1.913-.732-3.831-1.024-5.758a5.367,5.367,0,0,1,0-2.179c.941-3.337,2-6.641,2.969-9.97a18.124,18.124,0,0,0,1.078-4.483c.127-5.741.052-11.486.049-17.23,0-.3-.026-.6-.042-.951-2.221,0-4.343.011-6.465,0a2,2,0,0,1-2.127-2.091c-.022-.717,0-1.436,0-2.154,0-1.425,0-2.851,0-4.354h-28.694c-1.495,0-1.6.106-1.6,1.628q0,23.693,0,47.385c0,1.5.117,1.621,1.612,1.621q17.874,0,35.749,0a2.116,2.116,0,0,0,.85-.046c.275-.13.626-.4.672-.654A11.13,11.13,0,0,0,2771.953,212.121Zm2.478-4.871,9.323-31.013-5.387-1.6-9.325,31.015Zm-3.881-35.829-5.979-6.15c0,1.686-.006,3.433,0,5.181a.856.856,0,0,0,.947.97C2767.3,171.421,2769.077,171.422,2770.55,171.422Zm9.026-.744,5.373,1.591c.246-.821.475-1.555.686-2.293a.822.822,0,0,0-.618-1.127c-1.2-.364-2.415-.707-3.619-1.072a.822.822,0,0,0-1.142.587C2780.013,169.092,2779.82,169.838,2779.576,170.678Zm-1.086.955-.475,1.612,6.791,2.023.49-1.6Zm-9.439,35.316a16.619,16.619,0,0,1,.279,1.69c.051.919.434,1.5,1.4,1.563.394.026.919.171,1.162-.02a18.64,18.64,0,0,0,1.807-1.851Z" transform="translate(0)" fill="#eed" stroke="#fff" stroke-width="0.5"/>
        <path id="Path_883368" data-name="Path 883368" d="M2878.885,234.778a26.439,26.439,0,0,1-.449,3.651c-.609,2.338-2.8,3.7-5.437,3.557a4.866,4.866,0,0,1-4.611-4.054,27.7,27.7,0,0,1-.042-6,5.02,5.02,0,0,1,5.389-4.287,5.168,5.168,0,0,1,4.95,4.537,22.9,22.9,0,0,1,.016,2.58Zm-9.413.024h.012c0,.773-.046,1.55.009,2.319a4,4,0,0,0,7.94.217,30.618,30.618,0,0,0,.016-4.976,3.912,3.912,0,0,0-4.162-3.509,3.962,3.962,0,0,0-3.807,3.714C2869.431,233.31,2869.472,234.057,2869.472,234.8Z" transform="translate(-112.895 -53.659)" fill="#eed" stroke="#fff" stroke-width="0.5"/>
        <path id="Path_883369" data-name="Path 883369" d="M2796.605,234.78c0-.718-.026-1.437,0-2.153a5.265,5.265,0,0,1,10.521.131c.022,1.349.027,2.7,0,4.049a5.261,5.261,0,0,1-10.518.127C2796.576,236.217,2796.606,235.5,2796.605,234.78Zm1.228.034h.012c0,.745-.035,1.493.007,2.236a3.9,3.9,0,0,0,3.616,3.722,3.747,3.747,0,0,0,4.251-3.038,22.044,22.044,0,0,0,.106-5.472,3.9,3.9,0,0,0-4.422-3.4,4.026,4.026,0,0,0-3.568,4.144C2797.828,233.609,2797.833,234.212,2797.833,234.814Z" transform="translate(-53.625 -53.656)" fill="#eed" stroke="#fff" stroke-width="0.5"/>
        <path id="Path_883370" data-name="Path 883370" d="M2866.678,326.552c.175-1.984.222-2.006,1.9-.952,1.14.717,2.286,1.424,3.418,2.153.749.482.733.907-.046,1.4q-1.956,1.247-3.926,2.472c-.924.574-1.251.381-1.285-.735-.006-.193-.021-.386-.038-.667-1.648,0-3.247,0-4.845,0-1.042,0-1.156-.1-1.145-1.124.029-2.7-.412-2.432,2.4-2.445q1.677-.008,3.353-.023A.844.844,0,0,0,2866.678,326.552Zm4.091,1.888-2.8-1.748c.053,1.023-.431,1.289-1.233,1.216-.426-.039-.858-.007-1.287-.007h-3.482v1.108c1.544,0,3.028.014,4.511-.006.8-.011,1.594-.083,1.53,1.147.267-.156.44-.251.607-.356C2869.293,329.371,2869.969,328.944,2870.769,328.44Z" transform="translate(-106.686 -134.163)" fill="#eed" stroke="#fff" stroke-width="0.5"/>
        <path id="Path_883371" data-name="Path 883371" d="M2761.3,383.472a1.888,1.888,0,0,0,.116-.335c.152-1.676.148-1.679-1.519-1.679a22.39,22.39,0,0,1-2.406-.031c-.3-.033-.571-.392-.855-.6.288-.2.566-.566.865-.584,1.143-.069,2.294-.056,3.44-.018a1.592,1.592,0,0,1,1.724,1.805c.016,1.406.019,2.812,0,4.217A1.59,1.59,0,0,1,2760.97,388c-1.175.04-2.354.046-3.527-.018-.279-.015-.539-.369-.808-.568.272-.224.531-.62.818-.64,1.085-.078,2.179-.054,3.268-.029,1.009.023.639-.719.71-1.216.08-.558-.092-.847-.736-.815-.944.047-1.893.028-2.839,0-.483-.012-1.177.168-1.2-.6s.668-.632,1.159-.639C2758.988,383.461,2760.157,383.472,2761.3,383.472Z" transform="translate(-20.552 -179.921)" fill="#eed" stroke="#fff" stroke-width="0.5"/>
        <path id="Path_883372" data-name="Path 883372" d="M2831.119,381.784c-.9,0-1.806,0-2.709,0a2,2,0,0,1-.843-.072.9.9,0,0,1-.427-.63c-.011-.154.3-.473.47-.477a27.756,27.756,0,0,1,3.69.04,1.44,1.44,0,0,1,.864,2.243c-1.27,1.733-2.6,3.421-3.955,5.092-.143.177-.581.117-.881.167,0-.327-.135-.752.021-.965,1.1-1.5,2.26-2.961,3.4-4.436.169-.219.322-.45.483-.675Z" transform="translate(-78.907 -180.227)" fill="#eed" stroke="#fff" stroke-width="0.5"/>
        <path id="Path_883373" data-name="Path 883373" d="M2760.649,285.13a2.318,2.318,0,0,1,2.42-2.425,2.442,2.442,0,1,1-.035,4.884A2.318,2.318,0,0,1,2760.649,285.13Zm2.454,1.24a1.226,1.226,0,1,0-1.24-1.151A1.173,1.173,0,0,0,2763.1,286.369Z" transform="translate(-23.873 -99.232)" fill="#eed" stroke="#fff" stroke-width="0.5"/>
        <path id="Path_883374" data-name="Path 883374" d="M2811.02,384.53c0-1-.047-2,.029-3,.023-.294.4-.561.61-.84.206.284.583.563.591.852q.078,3,0,6c-.008.294-.393.577-.6.865-.209-.293-.574-.573-.6-.88C2810.971,386.534,2811.02,385.53,2811.02,384.53Z" transform="translate(-65.553 -180.335)" fill="#eed" stroke="#fff" stroke-width="0.5"/>
        <path id="Path_883375" data-name="Path 883375" d="M2797.793,414.2c.178.258.662.72.576.885a4.645,4.645,0,0,1-1.066,1.061c-.186-.216-.564-.484-.522-.638C2796.915,415.018,2796.814,414.3,2797.793,414.2Z" transform="translate(-53.777 -208.071)" fill="#eed" stroke="#fff" stroke-width="0.5"/>
        <path id="Path_883376" data-name="Path 883376" d="M2888.17,246.908c0,.659.026,1.32-.006,1.978a2.729,2.729,0,0,1-5.447.1,36.8,36.8,0,0,1,0-4.3,2.729,2.729,0,0,1,5.445.153C2888.2,245.53,2888.17,246.22,2888.17,246.908Zm-1.207-.031h0c0-.629.028-1.26-.007-1.888a1.5,1.5,0,0,0-1.5-1.548,1.421,1.421,0,0,0-1.475,1.464c-.057,1.313-.059,2.632,0,3.946a1.4,1.4,0,0,0,1.57,1.44,1.451,1.451,0,0,0,1.416-1.526C2886.984,248.136,2886.963,247.506,2886.963,246.876Z" transform="translate(-124.857 -65.709)" fill="#eed" stroke="#fff" stroke-width="0.5"/>
        <path id="Path_883377" data-name="Path 883377" d="M2816.732,246.873c0,.716.025,1.434-.005,2.148a2.539,2.539,0,0,1-2.383,2.478c-1.5.123-2.794-.649-2.922-2.031a28.7,28.7,0,0,1-.009-5.136,2.544,2.544,0,0,1,2.814-2.106,2.668,2.668,0,0,1,2.5,2.582c.022.687,0,1.375,0,2.063Zm-4.157.017h-.008q0,.987,0,1.973a1.293,1.293,0,0,0,.014.171,1.4,1.4,0,0,0,1.464,1.273,1.383,1.383,0,0,0,1.464-1.274c.048-1.4.045-2.8,0-4.2a1.432,1.432,0,0,0-1.472-1.378,1.408,1.408,0,0,0-1.455,1.379C2812.541,245.516,2812.574,246.2,2812.574,246.89Z" transform="translate(-65.798 -65.722)" fill="#eed" stroke="#fff" stroke-width="0.5"/>
      </g>
    </g>
  </g>
</svg>
