<svg xmlns="http://www.w3.org/2000/svg" xmlns:xlink="http://www.w3.org/1999/xlink" width="98.579" height="98.578" viewBox="0 0 98.579 98.578">
  <defs>
    <clipPath id="clip-path">
      <rect id="Rectangle_401223" data-name="Rectangle 401223" width="98.579" height="98.578" transform="translate(0)" fill="#bfa9fe"/>
    </clipPath>
    <clipPath id="clip-path-2">
      <rect id="Rectangle_401223-2" data-name="Rectangle 401223" width="88.117" height="88.116" fill="#d7c9fe"/>
    </clipPath>
  </defs>
  <g id="Group_1110149" data-name="Group 1110149" transform="translate(-753.297 -1615.098)">
    <g id="Group_1102150" data-name="Group 1102150" transform="translate(-168.037 1204.092)">
      <g id="Group_1099654" data-name="Group 1099654" transform="translate(921.333 411.006)">
        <g id="Group_1099652" data-name="Group 1099652" transform="translate(0 0)" clip-path="url(#clip-path)">
          <path id="Path_873521" data-name="Path 873521" d="M98.579,76.737a21.9,21.9,0,0,1-21.84,21.84H21.84A21.9,21.9,0,0,1,0,76.737V21.84A21.9,21.9,0,0,1,21.84,0h54.9a21.9,21.9,0,0,1,21.84,21.841Z" transform="translate(0)" fill="#bfa9fe"/>
        </g>
      </g>
      <g id="Group_1099659" data-name="Group 1099659" transform="translate(926.103 416.728)">
        <g id="Group_1099652-2" data-name="Group 1099652" transform="translate(0 0)" clip-path="url(#clip-path-2)">
          <path id="Path_873521-2" data-name="Path 873521" d="M88.117,68.594A19.58,19.58,0,0,1,68.595,88.116H19.523A19.58,19.58,0,0,1,0,68.594V19.522A19.58,19.58,0,0,1,19.523,0H68.595A19.58,19.58,0,0,1,88.117,19.523Z" fill="#d7c9fe"/>
        </g>
      </g>
    </g>
    <g id="Group_1102151" data-name="Group 1102151" transform="translate(769.238 1630.901)">
      <rect id="Rectangle_401104" data-name="Rectangle 401104" width="68" height="69" transform="translate(-0.238 -0.372)" fill="none"/>
      <g id="Group_1110288" data-name="Group 1110288" transform="translate(-572.01 -86.937)">
        <g id="Group_1110259" data-name="Group 1110259" transform="translate(571.772 86.564)">
          <g id="Group_1110258" data-name="Group 1110258">
            <g id="Group_1110189" data-name="Group 1110189" transform="translate(0 16.16)">
              <g id="Group_1110188" data-name="Group 1110188">
                <g id="Group_1110153" data-name="Group 1110153" transform="translate(1.904)">
                  <g id="Group_1110151" data-name="Group 1110151" transform="translate(0.827 0.492)">
                    <path id="Path_884641" data-name="Path 884641" d="M584.538,103.269l-2.454-2.436H574v-.666h8.358l2.454,2.434c.879,0,4.616-.02,4.9,0l-.05.666c-.206-.015-3.093-.009-4.983,0Z" transform="translate(-574.003 -100.167)" fill="#116772"/>
                  </g>
                  <g id="Group_1110152" data-name="Group 1110152">
                    <path id="Path_884642" data-name="Path 884642" d="M574.155,99.765a.828.828,0,0,0-.828.825h0a.827.827,0,0,0,.828.824h0a.828.828,0,0,0,.832-.824h0a.829.829,0,0,0-.832-.825Z" transform="translate(-573.327 -99.765)" fill="#116772"/>
                  </g>
                </g>
                <g id="Group_1110156" data-name="Group 1110156" transform="translate(5.173 2.847)">
                  <g id="Group_1110154" data-name="Group 1110154" transform="translate(0.83 0.49)">
                    <path id="Path_884643" data-name="Path 884643" d="M583.939,105.594l-2.454-2.435h-4.808v-.668h5.086l2.454,2.435c.879,0,4.616-.021,4.9,0l-.05.666c-.206-.016-3.093-.007-4.983,0Z" transform="translate(-576.676 -102.491)" fill="#116772"/>
                  </g>
                  <g id="Group_1110155" data-name="Group 1110155">
                    <path id="Path_884644" data-name="Path 884644" d="M576.828,102.091a.826.826,0,0,0-.83.823h0a.827.827,0,0,0,.83.824h0a.827.827,0,0,0,.829-.824h0a.826.826,0,0,0-.829-.823Z" transform="translate(-575.998 -102.091)" fill="#116772"/>
                  </g>
                </g>
                <g id="Group_1110159" data-name="Group 1110159" transform="translate(2.421 8.839)">
                  <g id="Group_1110157" data-name="Group 1110157" transform="translate(0.829 0.49)">
                    <path id="Path_884645" data-name="Path 884645" d="M581.69,110.488l-2.453-2.435h-4.81v-.667h5.09l2.452,2.436c1.336,0,8.328-.022,8.614,0l-.051.665.026-.333-.023.333c-.247-.015-5.34-.006-8.7,0Z" transform="translate(-574.427 -107.386)" fill="#116772"/>
                  </g>
                  <g id="Group_1110158" data-name="Group 1110158">
                    <path id="Path_884646" data-name="Path 884646" d="M574.579,106.986a.827.827,0,0,0-.829.824h0a.827.827,0,0,0,.829.824h0a.827.827,0,0,0,.831-.824h0a.827.827,0,0,0-.831-.824Z" transform="translate(-573.75 -106.986)" fill="#116772"/>
                  </g>
                </g>
                <g id="Group_1110162" data-name="Group 1110162" transform="translate(0.594 13.693)">
                  <g id="Group_1110160" data-name="Group 1110160" transform="translate(0.452 0.488)">
                    <path id="Path_884647" data-name="Path 884647" d="M583.124,113.63h-3.607l-1.624-1.613h-5.267v-.668h5.545l1.623,1.614h3.05l1.34-1.329h5.3v.668h-5.021Z" transform="translate(-572.627 -111.35)" fill="#116772"/>
                  </g>
                  <g id="Group_1110161" data-name="Group 1110161">
                    <path id="Path_884648" data-name="Path 884648" d="M573.086,110.951a.826.826,0,0,0-.829.821h0a.826.826,0,0,0,.829.825h0a.827.827,0,0,0,.831-.825h0a.828.828,0,0,0-.831-.821Z" transform="translate(-572.257 -110.951)" fill="#116772"/>
                  </g>
                </g>
                <g id="Group_1110165" data-name="Group 1110165" transform="translate(11.408 16.937)">
                  <g id="Group_1110163" data-name="Group 1110163" transform="translate(0.83 0.454)">
                    <rect id="Rectangle_404802" data-name="Rectangle 404802" width="22.542" height="0.666" fill="#116772"/>
                  </g>
                  <g id="Group_1110164" data-name="Group 1110164">
                    <path id="Path_884649" data-name="Path 884649" d="M581.921,113.6a.827.827,0,0,0-.83.823h0a.828.828,0,0,0,.83.825h0a.829.829,0,0,0,.83-.825h0a.828.828,0,0,0-.83-.823Z" transform="translate(-581.091 -113.601)" fill="#116772"/>
                  </g>
                </g>
                <g id="Group_1110172" data-name="Group 1110172" transform="translate(6.849 4.888)">
                  <g id="Group_1110168" data-name="Group 1110168">
                    <g id="Group_1110166" data-name="Group 1110166" transform="translate(0.587 0.49)">
                      <path id="Path_884650" data-name="Path 884650" d="M583.691,107.855l-3.054-3.03h-2.791v-.667h3.071l3.25,3.226Z" transform="translate(-577.846 -104.158)" fill="#116772"/>
                    </g>
                    <g id="Group_1110167" data-name="Group 1110167">
                      <path id="Path_884651" data-name="Path 884651" d="M578.2,103.758a.827.827,0,0,0-.831.823h0a.827.827,0,0,0,.831.824h0a.826.826,0,0,0,.83-.824h0a.826.826,0,0,0-.83-.823Z" transform="translate(-577.367 -103.758)" fill="#116772"/>
                    </g>
                  </g>
                  <g id="Group_1110171" data-name="Group 1110171" transform="translate(2.392 3.246)">
                    <g id="Group_1110169" data-name="Group 1110169" transform="translate(0.829 0.488)">
                      <rect id="Rectangle_404803" data-name="Rectangle 404803" width="19.907" height="0.669" fill="#116772"/>
                    </g>
                    <g id="Group_1110170" data-name="Group 1110170">
                      <path id="Path_884652" data-name="Path 884652" d="M580.15,106.41a.827.827,0,0,0-.829.823h0a.828.828,0,0,0,.829.825h0a.828.828,0,0,0,.831-.825h0a.826.826,0,0,0-.831-.823Z" transform="translate(-579.321 -106.41)" fill="#116772"/>
                    </g>
                  </g>
                </g>
                <g id="Group_1110175" data-name="Group 1110175" transform="translate(11.176 27.761)">
                  <g id="Group_1110173" data-name="Group 1110173" transform="translate(0.829 0.433)">
                    <path id="Path_884653" data-name="Path 884653" d="M590.4,124.3h-6.034l-.843-.837h-1.941V122.8h2.22l.844.838H590.4Z" transform="translate(-581.579 -122.797)" fill="#116772"/>
                  </g>
                  <g id="Group_1110174" data-name="Group 1110174">
                    <path id="Path_884654" data-name="Path 884654" d="M581.731,124.091a.827.827,0,0,1-.829-.825h0a.827.827,0,0,1,.829-.823h0a.826.826,0,0,1,.83.823h0a.827.827,0,0,1-.83.825Z" transform="translate(-580.902 -122.443)" fill="#116772"/>
                  </g>
                </g>
                <g id="Group_1110178" data-name="Group 1110178" transform="translate(8.292 25.642)">
                  <g id="Group_1110176" data-name="Group 1110176" transform="translate(0.829 0.488)">
                    <rect id="Rectangle_404804" data-name="Rectangle 404804" width="22.542" height="0.668" fill="#116772"/>
                  </g>
                  <g id="Group_1110177" data-name="Group 1110177">
                    <path id="Path_884655" data-name="Path 884655" d="M579.375,120.712a.825.825,0,0,0-.829.823h0a.823.823,0,0,0,.829.823h0a.825.825,0,0,0,.831-.823h0a.827.827,0,0,0-.831-.823Z" transform="translate(-578.546 -120.712)" fill="#116772"/>
                  </g>
                </g>
                <g id="Group_1110181" data-name="Group 1110181" transform="translate(0 21.569)">
                  <g id="Group_1110179" data-name="Group 1110179" transform="translate(0.828)">
                    <path id="Path_884656" data-name="Path 884656" d="M577.525,120.08h-5.076v-.668h4.8l2.043-2.028h4.464l1.684,1.673h2.926v.666h-3.206l-1.682-1.671h-3.908Z" transform="translate(-572.448 -117.385)" fill="#116772"/>
                  </g>
                  <g id="Group_1110180" data-name="Group 1110180" transform="translate(0 1.539)">
                    <path id="Path_884657" data-name="Path 884657" d="M572.6,118.642a.825.825,0,0,0-.828.823h0a.824.824,0,0,0,.828.824h0a.828.828,0,0,0,.832-.824h0a.828.828,0,0,0-.832-.823Z" transform="translate(-571.772 -118.642)" fill="#116772"/>
                  </g>
                </g>
                <g id="Group_1110184" data-name="Group 1110184" transform="translate(2.731 19.799)">
                  <g id="Group_1110182" data-name="Group 1110182" transform="translate(0.636 0.491)">
                    <rect id="Rectangle_404805" data-name="Rectangle 404805" width="30.554" height="0.668" fill="#116772"/>
                  </g>
                  <g id="Group_1110183" data-name="Group 1110183">
                    <path id="Path_884658" data-name="Path 884658" d="M574.835,115.939a.829.829,0,0,0-.832.825h0a.827.827,0,0,0,.832.823h0a.826.826,0,0,0,.829-.823h0a.829.829,0,0,0-.829-.825Z" transform="translate(-574.003 -115.939)" fill="#116772"/>
                  </g>
                </g>
                <g id="Group_1110187" data-name="Group 1110187" transform="translate(3.563 29.169)">
                  <g id="Group_1110185" data-name="Group 1110185" transform="translate(0.829 0.49)">
                    <path id="Path_884659" data-name="Path 884659" d="M590.176,126.934H582.8l-2.29-2.273H575.36v-.668h5.43l2.289,2.273h7.1Z" transform="translate(-575.36 -123.993)" fill="#116772"/>
                  </g>
                  <g id="Group_1110186" data-name="Group 1110186">
                    <path id="Path_884660" data-name="Path 884660" d="M575.512,123.593a.826.826,0,0,0-.829.824h0a.826.826,0,0,0,.829.824h0a.825.825,0,0,0,.829-.824h0a.825.825,0,0,0-.829-.824Z" transform="translate(-574.683 -123.593)" fill="#116772"/>
                  </g>
                </g>
              </g>
            </g>
            <g id="Group_1110223" data-name="Group 1110223" transform="translate(18.781)">
              <g id="Group_1110192" data-name="Group 1110192" transform="translate(26.354 5.134)">
                <g id="Group_1110190" data-name="Group 1110190" transform="translate(0 0.824)">
                  <path id="Path_884661" data-name="Path 884661" d="M609.316,103.774l-.671-.049c.016-.2.011-3.069,0-4.947l0-.138,2.456-2.435V91.431h.673v5.05l-2.453,2.435C609.322,99.788,609.338,103.5,609.316,103.774Z" transform="translate(-608.643 -91.431)" fill="#116772"/>
                </g>
                <g id="Group_1110191" data-name="Group 1110191" transform="translate(1.962)">
                  <path id="Path_884662" data-name="Path 884662" d="M611.906,91.582a.827.827,0,0,0-.83-.824h0a.826.826,0,0,0-.83.824h0a.826.826,0,0,0,.83.824h0a.827.827,0,0,0,.83-.824Z" transform="translate(-610.246 -90.758)" fill="#116772"/>
                </g>
              </g>
              <g id="Group_1110195" data-name="Group 1110195" transform="translate(23.377 2.123)">
                <g id="Group_1110193" data-name="Group 1110193" transform="translate(0 0.823)">
                  <path id="Path_884663" data-name="Path 884663" d="M606.883,104.536l-.67-.048c.017-.262.009-3.879,0-6.248l0-.138,3.1-3.075V88.97h.673V95.3l-3.1,3.07C606.889,99.407,606.91,104.187,606.883,104.536Z" transform="translate(-606.211 -88.97)" fill="#116772"/>
                </g>
                <g id="Group_1110194" data-name="Group 1110194" transform="translate(2.604)">
                  <path id="Path_884664" data-name="Path 884664" d="M610,89.121a.825.825,0,0,0-.829-.823h0a.824.824,0,0,0-.829.823h0a.824.824,0,0,0,.829.823h0a.825.825,0,0,0,.829-.823Z" transform="translate(-608.338 -88.298)" fill="#116772"/>
                </g>
              </g>
              <g id="Group_1110198" data-name="Group 1110198" transform="translate(19.557)">
                <g id="Group_1110196" data-name="Group 1110196" transform="translate(0.494 0.823)">
                  <path id="Path_884665" data-name="Path 884665" d="M604.524,104.881h-.673V101.7l1.684-1.669V96.151l-2.042-2.027V87.237h.671v6.61l2.044,2.029v4.43l-1.684,1.671Z" transform="translate(-603.494 -87.237)" fill="#116772"/>
                </g>
                <g id="Group_1110197" data-name="Group 1110197">
                  <path id="Path_884666" data-name="Path 884666" d="M603.09,87.388a.827.827,0,0,1,.829-.824h0a.828.828,0,0,1,.832.824h0a.829.829,0,0,1-.832.824h0a.828.828,0,0,1-.829-.824Z" transform="translate(-603.09 -86.564)" fill="#116772"/>
                </g>
              </g>
              <g id="Group_1110201" data-name="Group 1110201" transform="translate(14.828 3.537)">
                <g id="Group_1110199" data-name="Group 1110199" transform="translate(0 0.581)">
                  <path id="Path_884667" data-name="Path 884667" d="M599.7,96.2l-.476-.472,3.054-3.03V89.927h.674v3.047Z" transform="translate(-599.227 -89.927)" fill="#116772"/>
                </g>
                <g id="Group_1110200" data-name="Group 1110200" transform="translate(2.56)">
                  <path id="Path_884668" data-name="Path 884668" d="M602.978,90.276a.826.826,0,0,0-.829-.823h0a.826.826,0,0,0-.83.823h0a.826.826,0,0,0,.83.823h0a.826.826,0,0,0,.829-.823Z" transform="translate(-601.319 -89.453)" fill="#116772"/>
                </g>
              </g>
              <g id="Group_1110204" data-name="Group 1110204" transform="translate(17.04 10.656)">
                <g id="Group_1110202" data-name="Group 1110202" transform="translate(0.533 0.823)">
                  <rect id="Rectangle_404806" data-name="Rectangle 404806" width="0.672" height="22.374" fill="#116772"/>
                </g>
                <g id="Group_1110203" data-name="Group 1110203">
                  <path id="Path_884669" data-name="Path 884669" d="M602.693,96.093a.824.824,0,0,0-.826-.824h0a.828.828,0,0,0-.832.824h0a.827.827,0,0,0,.832.823h0a.824.824,0,0,0,.826-.823Z" transform="translate(-601.034 -95.269)" fill="#116772"/>
                </g>
              </g>
              <g id="Group_1110207" data-name="Group 1110207" transform="translate(14.119 5.91)">
                <g id="Group_1110205" data-name="Group 1110205" transform="translate(0.493 0.823)">
                  <rect id="Rectangle_404807" data-name="Rectangle 404807" width="0.672" height="19.759" fill="#116772"/>
                </g>
                <g id="Group_1110206" data-name="Group 1110206">
                  <path id="Path_884670" data-name="Path 884670" d="M600.308,92.216a.828.828,0,0,0-.832-.824h0a.826.826,0,0,0-.827.824h0a.825.825,0,0,0,.827.823h0a.828.828,0,0,0,.832-.823Z" transform="translate(-598.648 -91.392)" fill="#116772"/>
                </g>
              </g>
              <g id="Group_1110210" data-name="Group 1110210" transform="translate(2.924 11.093)">
                <g id="Group_1110208" data-name="Group 1110208" transform="translate(0 0.823)">
                  <path id="Path_884671" data-name="Path 884671" d="M590.174,105.051H589.5v-5.99l.842-.839V96.3h.673v2.2l-.843.838Z" transform="translate(-589.503 -96.298)" fill="#116772"/>
                </g>
                <g id="Group_1110209" data-name="Group 1110209" transform="translate(0.292)">
                  <path id="Path_884672" data-name="Path 884672" d="M589.741,96.449a.826.826,0,0,1,.829-.823h0a.825.825,0,0,1,.829.823h0a.825.825,0,0,1-.829.824h0a.826.826,0,0,1-.829-.824Z" transform="translate(-589.741 -95.626)" fill="#116772"/>
                </g>
              </g>
              <g id="Group_1110213" data-name="Group 1110213" transform="translate(5.352 8.23)">
                <g id="Group_1110211" data-name="Group 1110211" transform="translate(0.491 0.823)">
                  <rect id="Rectangle_404808" data-name="Rectangle 404808" width="0.675" height="22.376" fill="#116772"/>
                </g>
                <g id="Group_1110212" data-name="Group 1110212">
                  <path id="Path_884673" data-name="Path 884673" d="M593.145,94.11a.826.826,0,0,0-.829-.823h0a.827.827,0,0,0-.83.823h0a.827.827,0,0,0,.83.825h0a.826.826,0,0,0,.829-.825Z" transform="translate(-591.486 -93.287)" fill="#116772"/>
                </g>
              </g>
              <g id="Group_1110216" data-name="Group 1110216" transform="translate(7.906)">
                <g id="Group_1110214" data-name="Group 1110214" transform="translate(0.492 0.823)">
                  <path id="Path_884674" data-name="Path 884674" d="M595,103.031h-.672V99.85l1.683-1.671V94.3l-2.042-2.028V87.237h.671V92l2.044,2.029v4.43L595,100.127Z" transform="translate(-593.974 -87.237)" fill="#116772"/>
                </g>
                <g id="Group_1110215" data-name="Group 1110215">
                  <path id="Path_884675" data-name="Path 884675" d="M595.228,87.388a.825.825,0,0,0-.829-.824h0a.825.825,0,0,0-.827.824h0a.826.826,0,0,0,.827.824h0a.827.827,0,0,0,.829-.824Z" transform="translate(-593.572 -86.564)" fill="#116772"/>
                </g>
              </g>
              <g id="Group_1110219" data-name="Group 1110219" transform="translate(11.236 2.713)">
                <g id="Group_1110217" data-name="Group 1110217" transform="translate(0.492 0.63)">
                  <rect id="Rectangle_404809" data-name="Rectangle 404809" width="0.673" height="30.325" fill="#116772"/>
                </g>
                <g id="Group_1110218" data-name="Group 1110218">
                  <path id="Path_884676" data-name="Path 884676" d="M597.952,89.6a.826.826,0,0,0-.83-.824h0a.826.826,0,0,0-.829.824h0a.825.825,0,0,0,.829.823h0a.825.825,0,0,0,.83-.823Z" transform="translate(-596.293 -88.78)" fill="#116772"/>
                </g>
              </g>
              <g id="Group_1110222" data-name="Group 1110222" transform="translate(0 3.537)">
                <g id="Group_1110220" data-name="Group 1110220" transform="translate(0 0.823)">
                  <path id="Path_884677" data-name="Path 884677" d="M587.786,104.831h-.672V97.51l2.289-2.273V90.125h.673v5.389l-2.291,2.272Z" transform="translate(-587.114 -90.125)" fill="#116772"/>
                </g>
                <g id="Group_1110221" data-name="Group 1110221" transform="translate(1.797)">
                  <path id="Path_884678" data-name="Path 884678" d="M590.239,90.276a.825.825,0,0,0-.83-.823h0a.824.824,0,0,0-.828.823h0a.824.824,0,0,0,.828.823h0a.825.825,0,0,0,.83-.823Z" transform="translate(-588.582 -89.453)" fill="#116772"/>
                </g>
              </g>
            </g>
            <g id="Group_1110289" data-name="Group 1110289" transform="translate(48.757 68.595) rotate(180)">
              <g id="Group_1110192-2" data-name="Group 1110192" transform="translate(26.354 5.134)">
                <g id="Group_1110190-2" data-name="Group 1110190" transform="translate(0 0.824)">
                  <path id="Path_884661-2" data-name="Path 884661" d="M609.316,103.774l-.671-.049c.016-.2.011-3.069,0-4.947l0-.138,2.456-2.435V91.431h.673v5.05l-2.453,2.435C609.322,99.788,609.338,103.5,609.316,103.774Z" transform="translate(-608.643 -91.431)" fill="#116772"/>
                </g>
                <g id="Group_1110191-2" data-name="Group 1110191" transform="translate(1.962)">
                  <path id="Path_884662-2" data-name="Path 884662" d="M611.906,91.582a.827.827,0,0,0-.83-.824h0a.826.826,0,0,0-.83.824h0a.826.826,0,0,0,.83.824h0a.827.827,0,0,0,.83-.824Z" transform="translate(-610.246 -90.758)" fill="#116772"/>
                </g>
              </g>
              <g id="Group_1110195-2" data-name="Group 1110195" transform="translate(23.377 2.123)">
                <g id="Group_1110193-2" data-name="Group 1110193" transform="translate(0 0.823)">
                  <path id="Path_884663-2" data-name="Path 884663" d="M606.883,104.536l-.67-.048c.017-.262.009-3.879,0-6.248l0-.138,3.1-3.075V88.97h.673V95.3l-3.1,3.07C606.889,99.407,606.91,104.187,606.883,104.536Z" transform="translate(-606.211 -88.97)" fill="#116772"/>
                </g>
                <g id="Group_1110194-2" data-name="Group 1110194" transform="translate(2.604)">
                  <path id="Path_884664-2" data-name="Path 884664" d="M610,89.121a.825.825,0,0,0-.829-.823h0a.824.824,0,0,0-.829.823h0a.824.824,0,0,0,.829.823h0a.825.825,0,0,0,.829-.823Z" transform="translate(-608.338 -88.298)" fill="#116772"/>
                </g>
              </g>
              <g id="Group_1110198-2" data-name="Group 1110198" transform="translate(19.557)">
                <g id="Group_1110196-2" data-name="Group 1110196" transform="translate(0.494 0.823)">
                  <path id="Path_884665-2" data-name="Path 884665" d="M604.524,104.881h-.673V101.7l1.684-1.669V96.151l-2.042-2.027V87.237h.671v6.61l2.044,2.029v4.43l-1.684,1.671Z" transform="translate(-603.494 -87.237)" fill="#116772"/>
                </g>
                <g id="Group_1110197-2" data-name="Group 1110197">
                  <path id="Path_884666-2" data-name="Path 884666" d="M603.09,87.388a.827.827,0,0,1,.829-.824h0a.828.828,0,0,1,.832.824h0a.829.829,0,0,1-.832.824h0a.828.828,0,0,1-.829-.824Z" transform="translate(-603.09 -86.564)" fill="#116772"/>
                </g>
              </g>
              <g id="Group_1110201-2" data-name="Group 1110201" transform="translate(14.828 3.537)">
                <g id="Group_1110199-2" data-name="Group 1110199" transform="translate(0 0.581)">
                  <path id="Path_884667-2" data-name="Path 884667" d="M599.7,96.2l-.476-.472,3.054-3.03V89.927h.674v3.047Z" transform="translate(-599.227 -89.927)" fill="#116772"/>
                </g>
                <g id="Group_1110200-2" data-name="Group 1110200" transform="translate(2.56)">
                  <path id="Path_884668-2" data-name="Path 884668" d="M602.978,90.276a.826.826,0,0,0-.829-.823h0a.826.826,0,0,0-.83.823h0a.826.826,0,0,0,.83.823h0a.826.826,0,0,0,.829-.823Z" transform="translate(-601.319 -89.453)" fill="#116772"/>
                </g>
              </g>
              <g id="Group_1110204-2" data-name="Group 1110204" transform="translate(17.04 10.656)">
                <g id="Group_1110202-2" data-name="Group 1110202" transform="translate(0.533 0.823)">
                  <rect id="Rectangle_404806-2" data-name="Rectangle 404806" width="0.672" height="22.374" fill="#116772"/>
                </g>
                <g id="Group_1110203-2" data-name="Group 1110203">
                  <path id="Path_884669-2" data-name="Path 884669" d="M602.693,96.093a.824.824,0,0,0-.826-.824h0a.828.828,0,0,0-.832.824h0a.827.827,0,0,0,.832.823h0a.824.824,0,0,0,.826-.823Z" transform="translate(-601.034 -95.269)" fill="#116772"/>
                </g>
              </g>
              <g id="Group_1110207-2" data-name="Group 1110207" transform="translate(14.119 5.91)">
                <g id="Group_1110205-2" data-name="Group 1110205" transform="translate(0.493 0.823)">
                  <rect id="Rectangle_404807-2" data-name="Rectangle 404807" width="0.672" height="19.759" fill="#116772"/>
                </g>
                <g id="Group_1110206-2" data-name="Group 1110206">
                  <path id="Path_884670-2" data-name="Path 884670" d="M600.308,92.216a.828.828,0,0,0-.832-.824h0a.826.826,0,0,0-.827.824h0a.825.825,0,0,0,.827.823h0a.828.828,0,0,0,.832-.823Z" transform="translate(-598.648 -91.392)" fill="#116772"/>
                </g>
              </g>
              <g id="Group_1110210-2" data-name="Group 1110210" transform="translate(2.924 11.093)">
                <g id="Group_1110208-2" data-name="Group 1110208" transform="translate(0 0.823)">
                  <path id="Path_884671-2" data-name="Path 884671" d="M590.174,105.051H589.5v-5.99l.842-.839V96.3h.673v2.2l-.843.838Z" transform="translate(-589.503 -96.298)" fill="#116772"/>
                </g>
                <g id="Group_1110209-2" data-name="Group 1110209" transform="translate(0.292)">
                  <path id="Path_884672-2" data-name="Path 884672" d="M589.741,96.449a.826.826,0,0,1,.829-.823h0a.825.825,0,0,1,.829.823h0a.825.825,0,0,1-.829.824h0a.826.826,0,0,1-.829-.824Z" transform="translate(-589.741 -95.626)" fill="#116772"/>
                </g>
              </g>
              <g id="Group_1110213-2" data-name="Group 1110213" transform="translate(5.352 8.23)">
                <g id="Group_1110211-2" data-name="Group 1110211" transform="translate(0.491 0.823)">
                  <rect id="Rectangle_404808-2" data-name="Rectangle 404808" width="0.675" height="22.376" fill="#116772"/>
                </g>
                <g id="Group_1110212-2" data-name="Group 1110212">
                  <path id="Path_884673-2" data-name="Path 884673" d="M593.145,94.11a.826.826,0,0,0-.829-.823h0a.827.827,0,0,0-.83.823h0a.827.827,0,0,0,.83.825h0a.826.826,0,0,0,.829-.825Z" transform="translate(-591.486 -93.287)" fill="#116772"/>
                </g>
              </g>
              <g id="Group_1110216-2" data-name="Group 1110216" transform="translate(7.906)">
                <g id="Group_1110214-2" data-name="Group 1110214" transform="translate(0.492 0.823)">
                  <path id="Path_884674-2" data-name="Path 884674" d="M595,103.031h-.672V99.85l1.683-1.671V94.3l-2.042-2.028V87.237h.671V92l2.044,2.029v4.43L595,100.127Z" transform="translate(-593.974 -87.237)" fill="#116772"/>
                </g>
                <g id="Group_1110215-2" data-name="Group 1110215">
                  <path id="Path_884675-2" data-name="Path 884675" d="M595.228,87.388a.825.825,0,0,0-.829-.824h0a.825.825,0,0,0-.827.824h0a.826.826,0,0,0,.827.824h0a.827.827,0,0,0,.829-.824Z" transform="translate(-593.572 -86.564)" fill="#116772"/>
                </g>
              </g>
              <g id="Group_1110219-2" data-name="Group 1110219" transform="translate(11.236 2.713)">
                <g id="Group_1110217-2" data-name="Group 1110217" transform="translate(0.492 0.63)">
                  <rect id="Rectangle_404809-2" data-name="Rectangle 404809" width="0.673" height="30.325" fill="#116772"/>
                </g>
                <g id="Group_1110218-2" data-name="Group 1110218">
                  <path id="Path_884676-2" data-name="Path 884676" d="M597.952,89.6a.826.826,0,0,0-.83-.824h0a.826.826,0,0,0-.829.824h0a.825.825,0,0,0,.829.823h0a.825.825,0,0,0,.83-.823Z" transform="translate(-596.293 -88.78)" fill="#116772"/>
                </g>
              </g>
              <g id="Group_1110222-2" data-name="Group 1110222" transform="translate(0 3.537)">
                <g id="Group_1110220-2" data-name="Group 1110220" transform="translate(0 0.823)">
                  <path id="Path_884677-2" data-name="Path 884677" d="M587.786,104.831h-.672V97.51l2.289-2.273V90.125h.673v5.389l-2.291,2.272Z" transform="translate(-587.114 -90.125)" fill="#116772"/>
                </g>
                <g id="Group_1110221-2" data-name="Group 1110221" transform="translate(1.797)">
                  <path id="Path_884678-2" data-name="Path 884678" d="M590.239,90.276a.825.825,0,0,0-.83-.823h0a.824.824,0,0,0-.828.823h0a.824.824,0,0,0,.828.823h0a.825.825,0,0,0,.83-.823Z" transform="translate(-588.582 -89.453)" fill="#116772"/>
                </g>
              </g>
            </g>
            <g id="Group_1110257" data-name="Group 1110257" transform="translate(33.892 20.791)">
              <g id="Group_1110226" data-name="Group 1110226" transform="translate(11.501 27.283)">
                <g id="Group_1110224" data-name="Group 1110224">
                  <path id="Path_884679" data-name="Path 884679" d="M628.728,128.939h-8.358l-2.452-2.434c-.88,0-8.783.018-9.063,0l.049-.666c.2.016,7.262.007,9.153,0h.138l2.456,2.435h8.078Z" transform="translate(-608.854 -125.836)" fill="#116772"/>
                </g>
                <g id="Group_1110225" data-name="Group 1110225" transform="translate(19.045 1.945)">
                  <path id="Path_884680" data-name="Path 884680" d="M625.241,129.074a.828.828,0,0,0,.83-.825h0a.827.827,0,0,0-.83-.824h0a.826.826,0,0,0-.829.824h0a.827.827,0,0,0,.829.825Z" transform="translate(-624.412 -127.425)" fill="#116772"/>
                </g>
              </g>
              <g id="Group_1110229" data-name="Group 1110229" transform="translate(15.668 24.437)">
                <g id="Group_1110227" data-name="Group 1110227">
                  <path id="Path_884681" data-name="Path 884681" d="M624.694,126.615h-5.088l-2.452-2.435c-.88,0-4.617.02-4.9,0l.05-.667c.2.016,3.093.007,4.985,0l.138,0,2.456,2.437h4.807Z" transform="translate(-612.258 -123.511)" fill="#116772"/>
                </g>
                <g id="Group_1110228" data-name="Group 1110228" transform="translate(11.607 1.948)">
                  <path id="Path_884682" data-name="Path 884682" d="M622.569,126.748a.824.824,0,0,0,.829-.824h0a.825.825,0,0,0-.829-.823h0a.826.826,0,0,0-.829.823h0a.825.825,0,0,0,.829.824Z" transform="translate(-621.74 -125.102)" fill="#116772"/>
                </g>
              </g>
              <g id="Group_1110232" data-name="Group 1110232" transform="translate(15.459 21.482)">
                <g id="Group_1110230" data-name="Group 1110230">
                  <path id="Path_884683" data-name="Path 884683" d="M627.768,124.837h-6.381l-3.1-3.071c-1.038.006-5.854.026-6.2,0l.048-.665c.261.018,3.907.01,6.293,0l.141,0,3.1,3.073h6.1Z" transform="translate(-612.087 -121.097)" fill="#116772"/>
                </g>
                <g id="Group_1110231" data-name="Group 1110231" transform="translate(14.851 2.584)">
                  <path id="Path_884684" data-name="Path 884684" d="M625.049,124.853a.824.824,0,0,0,.83-.823h0a.824.824,0,0,0-.83-.823h0a.827.827,0,0,0-.83.823h0a.827.827,0,0,0,.83.823Z" transform="translate(-624.219 -123.208)" fill="#116772"/>
                </g>
              </g>
              <g id="Group_1110235" data-name="Group 1110235" transform="translate(15.501 17.689)">
                <g id="Group_1110233" data-name="Group 1110233" transform="translate(0 0.49)">
                  <path id="Path_884685" data-name="Path 884685" d="M621.2,121.094H616.73l-1.682-1.671h-2.926v-.667h3.205l1.684,1.669h3.906l2.042-2.026H629.9v.668h-6.662Z" transform="translate(-612.122 -118.399)" fill="#116772"/>
                </g>
                <g id="Group_1110234" data-name="Group 1110234" transform="translate(16.947)">
                  <path id="Path_884686" data-name="Path 884686" d="M626.8,118a.827.827,0,0,1,.829.824h0a.826.826,0,0,1-.829.823h0a.827.827,0,0,1-.83-.823h0a.828.828,0,0,1,.83-.824Z" transform="translate(-625.966 -117.999)" fill="#116772"/>
                </g>
              </g>
              <g id="Group_1110238" data-name="Group 1110238" transform="translate(23.639 12.997)">
                <g id="Group_1110236" data-name="Group 1110236">
                  <path id="Path_884687" data-name="Path 884687" d="M625.09,117.863h-3.071l-3.249-3.224.475-.473,3.054,3.03h2.791Z" transform="translate(-618.769 -114.166)" fill="#116772"/>
                </g>
                <g id="Group_1110237" data-name="Group 1110237" transform="translate(5.246 2.542)">
                  <path id="Path_884688" data-name="Path 884688" d="M623.886,117.887a.826.826,0,0,0,.83-.824h0a.825.825,0,0,0-.83-.821h0a.826.826,0,0,0-.831.821h0a.827.827,0,0,0,.831.824Z" transform="translate(-623.055 -116.242)" fill="#116772"/>
                </g>
              </g>
              <g id="Group_1110241" data-name="Group 1110241" transform="translate(0 15.192)">
                <g id="Group_1110239" data-name="Group 1110239" transform="translate(0 0.529)">
                  <rect id="Rectangle_404810" data-name="Rectangle 404810" width="22.539" height="0.668" fill="#116772"/>
                </g>
                <g id="Group_1110240" data-name="Group 1110240" transform="translate(21.712)">
                  <path id="Path_884689" data-name="Path 884689" d="M618.022,117.605a.825.825,0,0,0,.831-.824h0a.825.825,0,0,0-.831-.823h0a.826.826,0,0,0-.827.823h0a.826.826,0,0,0,.827.824Z" transform="translate(-617.195 -115.959)" fill="#116772"/>
                </g>
              </g>
              <g id="Group_1110244" data-name="Group 1110244" transform="translate(7.417 12.291)">
                <g id="Group_1110242" data-name="Group 1110242" transform="translate(0 0.491)">
                  <rect id="Rectangle_404811" data-name="Rectangle 404811" width="19.908" height="0.666" fill="#116772"/>
                </g>
                <g id="Group_1110243" data-name="Group 1110243" transform="translate(19.077)">
                  <path id="Path_884690" data-name="Path 884690" d="M621.932,115.237a.828.828,0,0,0,.83-.823h0a.83.83,0,0,0-.83-.825h0a.828.828,0,0,0-.831.825h0a.826.826,0,0,0,.831.823Z" transform="translate(-621.101 -113.589)" fill="#116772"/>
                </g>
              </g>
              <g id="Group_1110247" data-name="Group 1110247" transform="translate(13.285)">
                <g id="Group_1110245" data-name="Group 1110245">
                  <path id="Path_884691" data-name="Path 884691" d="M619.126,105.054H616.91l-.843-.838h-5.756v-.668h6.032l.845.838h1.938Z" transform="translate(-610.311 -103.548)" fill="#116772"/>
                </g>
                <g id="Group_1110246" data-name="Group 1110246" transform="translate(7.987 0.293)">
                  <path id="Path_884692" data-name="Path 884692" d="M617.664,103.788a.825.825,0,0,1,.831.821h0a.826.826,0,0,1-.831.824h0a.824.824,0,0,1-.828-.824h0a.824.824,0,0,1,.828-.821Z" transform="translate(-616.836 -103.788)" fill="#116772"/>
                </g>
              </g>
              <g id="Group_1110250" data-name="Group 1110250" transform="translate(2.442 3.59)">
                <g id="Group_1110248" data-name="Group 1110248" transform="translate(0 0.489)">
                  <rect id="Rectangle_404812" data-name="Rectangle 404812" width="22.544" height="0.668" fill="#116772"/>
                </g>
                <g id="Group_1110249" data-name="Group 1110249" transform="translate(21.713)">
                  <path id="Path_884693" data-name="Path 884693" d="M620.022,108.129a.826.826,0,0,0,.829-.824h0a.826.826,0,0,0-.829-.824h0a.827.827,0,0,0-.831.824h0a.827.827,0,0,0,.831.824Z" transform="translate(-619.191 -106.481)" fill="#116772"/>
                </g>
              </g>
              <g id="Group_1110253" data-name="Group 1110253" transform="translate(17.364 6.125)">
                <g id="Group_1110251" data-name="Group 1110251" transform="translate(0 0.488)">
                  <path id="Path_884694" data-name="Path 884694" d="M622.717,111.646h-4.464l-1.683-1.672h-2.926v-.667h3.205l1.684,1.672h3.906l2.045-2.028h5.075v.668h-4.8Z" transform="translate(-613.643 -108.951)" fill="#116772"/>
                </g>
                <g id="Group_1110252" data-name="Group 1110252" transform="translate(15.085)">
                  <path id="Path_884695" data-name="Path 884695" d="M626.8,110.2a.824.824,0,0,0,.829-.821h0a.825.825,0,0,0-.829-.823h0a.826.826,0,0,0-.83.823h0a.825.825,0,0,0,.83.821Z" transform="translate(-625.966 -108.552)" fill="#116772"/>
                </g>
              </g>
              <g id="Group_1110256" data-name="Group 1110256" transform="translate(0.188 9.431)">
                <g id="Group_1110254" data-name="Group 1110254" transform="translate(0 0.489)">
                  <rect id="Rectangle_404813" data-name="Rectangle 404813" width="30.552" height="0.668" fill="#116772"/>
                </g>
                <g id="Group_1110255" data-name="Group 1110255" transform="translate(29.529)">
                  <path id="Path_884696" data-name="Path 884696" d="M624.564,112.9a.825.825,0,0,0,.829-.821h0a.827.827,0,0,0-.829-.824h0a.826.826,0,0,0-.83.824h0a.825.825,0,0,0,.83.821Z" transform="translate(-623.734 -111.253)" fill="#116772"/>
                </g>
              </g>
            </g>
          </g>
        </g>
        <g id="Group_1110287" data-name="Group 1110287" transform="translate(585.428 100.656)">
          <g id="Group_1110286" data-name="Group 1110286">
            <circle id="Ellipse_11910" data-name="Ellipse 11910" cx="19.574" cy="19.574" r="19.574" fill="#6ceaff"/>
            <g id="Group_1110285" data-name="Group 1110285" transform="translate(1.005 2.867)">
              <g id="Group_1110272" data-name="Group 1110272" transform="translate(2.31 2.504)">
                <g id="Group_1110261" data-name="Group 1110261" transform="translate(8.29 0.51)">
                  <g id="Group_1110260" data-name="Group 1110260">
                    <path id="Path_884697" data-name="Path 884697" d="M608.338,130.894a.206.206,0,0,1-.175-.1l-15.6-27.487a.2.2,0,0,1,.076-.274.2.2,0,0,1,.275.076l15.6,27.487a.2.2,0,0,1-.076.273A.2.2,0,0,1,608.338,130.894Z" transform="translate(-592.379 -102.852)" fill="#fff"/>
                    <path id="Path_884698" data-name="Path 884698" d="M608.367,131.077a.36.36,0,0,1-.308-.176l-15.6-27.49a.357.357,0,0,1,.137-.487.367.367,0,0,1,.487.137l15.6,27.486a.353.353,0,0,1-.137.485A.322.322,0,0,1,608.367,131.077Zm-15.6-27.887c-.043.016-.051.045-.039.069l15.6,27.486a.056.056,0,0,0,.059.018.044.044,0,0,0,.022-.064l-15.6-27.487A.043.043,0,0,0,592.765,103.19Z" transform="translate(-592.408 -102.88)" fill="#fff"/>
                  </g>
                </g>
                <g id="Group_1110263" data-name="Group 1110263" transform="translate(8.29 0.511)">
                  <g id="Group_1110262" data-name="Group 1110262">
                    <path id="Path_884699" data-name="Path 884699" d="M592.738,130.894a.2.2,0,0,1-.175-.3l15.6-27.487a.2.2,0,0,1,.353.2l-15.6,27.487A.2.2,0,0,1,592.738,130.894Z" transform="translate(-592.379 -102.853)" fill="#fff"/>
                    <path id="Path_884700" data-name="Path 884700" d="M592.767,131.077a.356.356,0,0,1-.312-.53l15.6-27.487a.37.37,0,0,1,.487-.137.357.357,0,0,1,.137.486l-15.6,27.488A.361.361,0,0,1,592.767,131.077Zm15.6-27.885a.044.044,0,0,0-.043.022l-15.6,27.484a.045.045,0,0,0,.018.061l.022.006a.047.047,0,0,0,.04-.022l15.6-27.485a.048.048,0,0,0-.018-.065Z" transform="translate(-592.408 -102.881)" fill="#fff"/>
                  </g>
                </g>
                <g id="Group_1110265" data-name="Group 1110265" transform="translate(8.095)">
                  <g id="Group_1110264" data-name="Group 1110264">
                    <path id="Path_884701" data-name="Path 884701" d="M616.471,117.244a.211.211,0,0,1-.107-.028l-23.891-14.256a.2.2,0,1,1,.209-.344l23.893,14.256a.2.2,0,0,1-.1.372Z" transform="translate(-592.22 -102.436)" fill="#fff"/>
                    <path id="Path_884702" data-name="Path 884702" d="M616.5,117.427a.354.354,0,0,1-.184-.05L592.422,103.12a.357.357,0,0,1-.122-.49.376.376,0,0,1,.495-.12l23.89,14.255a.356.356,0,0,1-.185.661Zm-23.9-14.653a.04.04,0,0,0-.037.017.049.049,0,0,0,.016.064L616.5,117.116a.045.045,0,0,0,.022-.084L592.63,102.776A.1.1,0,0,0,592.6,102.774Z" transform="translate(-592.248 -102.463)" fill="#fff"/>
                  </g>
                </g>
                <g id="Group_1110267" data-name="Group 1110267" transform="translate(8.29 14.254)">
                  <g id="Group_1110266" data-name="Group 1110266">
                    <path id="Path_884703" data-name="Path 884703" d="M592.738,128.378a.2.2,0,0,1-.173-.1.2.2,0,0,1,.07-.275l23.31-13.745a.2.2,0,0,1,.206.346l-23.309,13.742A.2.2,0,0,1,592.738,128.378Z" transform="translate(-592.38 -114.079)" fill="#fff"/>
                    <path id="Path_884704" data-name="Path 884704" d="M592.767,128.56a.353.353,0,0,1-.346-.447.355.355,0,0,1,.165-.217l23.309-13.743a.369.369,0,0,1,.49.126.353.353,0,0,1-.121.486L592.951,128.51A.348.348,0,0,1,592.767,128.56Zm23.309-14.144-23.331,13.749-.151.142.132-.08a.051.051,0,0,0,.062.017L616.1,114.5a.043.043,0,0,0,.015-.06A.045.045,0,0,0,616.075,114.417Z" transform="translate(-592.408 -114.107)" fill="#fff"/>
                  </g>
                </g>
                <g id="Group_1110269" data-name="Group 1110269" transform="translate(0 0.511)">
                  <g id="Group_1110268" data-name="Group 1110268">
                    <path id="Path_884705" data-name="Path 884705" d="M585.966,117.15a.207.207,0,0,1-.176-.1.2.2,0,0,1,.075-.275l23.89-13.742a.2.2,0,0,1,.277.072.2.2,0,0,1-.073.275l-23.89,13.743A.212.212,0,0,1,585.966,117.15Z" transform="translate(-585.607 -102.853)" fill="#fff"/>
                    <path id="Path_884706" data-name="Path 884706" d="M585.995,117.333a.356.356,0,0,1-.181-.665L609.7,102.926a.371.371,0,0,1,.491.129.355.355,0,0,1,.037.271.351.351,0,0,1-.167.217l-23.894,13.743A.335.335,0,0,1,585.995,117.333Zm23.889-14.144L585.97,116.938a.049.049,0,0,0-.015.064c.037.062.059.017.061.015l23.891-13.743.152-.14-.135.078A.045.045,0,0,0,609.884,103.189Z" transform="translate(-585.636 -102.881)" fill="#fff"/>
                  </g>
                </g>
                <g id="Group_1110271" data-name="Group 1110271" transform="translate(0.001 14.253)">
                  <g id="Group_1110270" data-name="Group 1110270">
                    <path id="Path_884707" data-name="Path 884707" d="M609.856,128.378a.209.209,0,0,1-.1-.028l-23.89-13.742a.2.2,0,0,1-.075-.275.206.206,0,0,1,.278-.073L609.958,128a.2.2,0,0,1,.073.274A.2.2,0,0,1,609.856,128.378Z" transform="translate(-585.608 -114.079)" fill="#fff"/>
                    <path id="Path_884708" data-name="Path 884708" d="M609.885,128.56a.347.347,0,0,1-.182-.05l-23.889-13.741a.358.358,0,0,1-.13-.486.367.367,0,0,1,.488-.131L610.066,127.9a.355.355,0,0,1,.13.487A.363.363,0,0,1,609.885,128.56Zm-23.891-14.141a.044.044,0,0,0-.04.02.047.047,0,0,0,.018.062l23.914,13.748a.051.051,0,0,0,.04-.022.044.044,0,0,0-.017-.062l-23.893-13.743A.067.067,0,0,0,585.993,114.419Z" transform="translate(-585.637 -114.107)" fill="#fff"/>
                  </g>
                </g>
              </g>
              <g id="Group_1110274" data-name="Group 1110274" transform="translate(2.255 2.752)">
                <g id="Group_1110273" data-name="Group 1110273">
                  <path id="Path_884709" data-name="Path 884709" d="M610.076,130.689H593.85l-8.112-13.949,8.112-13.947h16.226l8.115,13.947Zm-15.991-.4h15.76l7.88-13.546-7.88-13.545h-15.76L586.2,116.74Z" transform="translate(-585.558 -102.638)" fill="#fff"/>
                  <path id="Path_884710" data-name="Path 884710" d="M610.2,130.871H593.794l-.045-.077-8.158-14.026,8.2-14.1H610.2l.045.077,8.158,14.025Zm-16.226-.31h16.046l8.023-13.794-8.023-13.791H593.975l-8.023,13.791Zm15.993-.092H594.028l-.045-.077-7.925-13.625,7.97-13.7h15.941l.044.077,7.926,13.623Zm-15.76-.311h15.578l7.79-13.391-7.79-13.39H594.209l-7.79,13.39Z" transform="translate(-585.591 -102.666)" fill="#fff"/>
                </g>
              </g>
              <g id="Group_1110284" data-name="Group 1110284">
                <g id="Group_1110278" data-name="Group 1110278">
                  <g id="Group_1110275" data-name="Group 1110275" transform="translate(8.055)">
                    <path id="Path_884711" data-name="Path 884711" d="M595.638,103.083a2.655,2.655,0,1,1-2.654-2.665A2.66,2.66,0,0,1,595.638,103.083Z" transform="translate(-590.329 -100.418)" fill="#383c48"/>
                  </g>
                  <g id="Group_1110276" data-name="Group 1110276" transform="translate(7.793 28.085)">
                    <path id="Path_884712" data-name="Path 884712" d="M595.423,126.026a2.654,2.654,0,1,1-2.655-2.665A2.66,2.66,0,0,1,595.423,126.026Z" transform="translate(-590.115 -123.361)" fill="#383c48"/>
                  </g>
                  <g id="Group_1110277" data-name="Group 1110277" transform="translate(0 14.089)">
                    <path id="Path_884713" data-name="Path 884713" d="M589.058,114.591a2.655,2.655,0,1,1-2.654-2.664A2.659,2.659,0,0,1,589.058,114.591Z" transform="translate(-583.749 -111.927)" fill="#383c48"/>
                  </g>
                </g>
                <g id="Group_1110283" data-name="Group 1110283" transform="translate(16.105 0.256)">
                  <g id="Group_1110279" data-name="Group 1110279" transform="translate(7.482)">
                    <path id="Path_884714" data-name="Path 884714" d="M608.325,103.291a2.654,2.654,0,1,1-2.653-2.664A2.657,2.657,0,0,1,608.325,103.291Z" transform="translate(-603.017 -100.627)" fill="#383c48"/>
                  </g>
                  <g id="Group_1110280" data-name="Group 1110280" transform="translate(0 14.272)">
                    <path id="Path_884715" data-name="Path 884715" d="M602.214,114.95a2.655,2.655,0,1,1-2.654-2.664A2.659,2.659,0,0,1,602.214,114.95Z" transform="translate(-596.905 -112.286)" fill="#383c48"/>
                  </g>
                  <g id="Group_1110281" data-name="Group 1110281" transform="translate(7.482 27.829)">
                    <path id="Path_884716" data-name="Path 884716" d="M608.325,126.026a2.654,2.654,0,1,1-2.653-2.665A2.659,2.659,0,0,1,608.325,126.026Z" transform="translate(-603.017 -123.361)" fill="#383c48"/>
                  </g>
                  <g id="Group_1110282" data-name="Group 1110282" transform="translate(15.724 13.833)">
                    <path id="Path_884717" data-name="Path 884717" d="M615.059,114.591a2.655,2.655,0,1,1-2.655-2.664A2.659,2.659,0,0,1,615.059,114.591Z" transform="translate(-609.75 -111.927)" fill="#383c48"/>
                  </g>
                </g>
              </g>
            </g>
          </g>
        </g>
      </g>
    </g>
  </g>
</svg>
