<svg xmlns="http://www.w3.org/2000/svg" xmlns:xlink="http://www.w3.org/1999/xlink" width="98.579" height="98.578" viewBox="0 0 98.579 98.578">
  <defs>
    <clipPath id="clip-path">
      <rect id="Rectangle_401223" data-name="Rectangle 401223" width="98.579" height="98.578" transform="translate(0)" fill="#bfa9fe"/>
    </clipPath>
    <clipPath id="clip-path-2">
      <rect id="Rectangle_401223-2" data-name="Rectangle 401223" width="88.117" height="88.116" fill="#d7c9fe"/>
    </clipPath>
  </defs>
  <g id="Group_1107708" data-name="Group 1107708" transform="translate(-1104.796 -1615.098)">
    <g id="Group_1102154" data-name="Group 1102154" transform="translate(183.463 1204.092)">
      <g id="Group_1099654" data-name="Group 1099654" transform="translate(921.333 411.006)">
        <g id="Group_1099652" data-name="Group 1099652" transform="translate(0 0)" clip-path="url(#clip-path)">
          <path id="Path_873521" data-name="Path 873521" d="M98.579,76.737a21.9,21.9,0,0,1-21.84,21.84H21.84A21.9,21.9,0,0,1,0,76.737V21.84A21.9,21.9,0,0,1,21.84,0h54.9a21.9,21.9,0,0,1,21.84,21.841Z" transform="translate(0)" fill="#bfa9fe"/>
        </g>
      </g>
      <g id="Group_1099659" data-name="Group 1099659" transform="translate(926.103 416.728)">
        <g id="Group_1099652-2" data-name="Group 1099652" transform="translate(0 0)" clip-path="url(#clip-path-2)">
          <path id="Path_873521-2" data-name="Path 873521" d="M88.117,68.594A19.58,19.58,0,0,1,68.595,88.116H19.523A19.58,19.58,0,0,1,0,68.594V19.522A19.58,19.58,0,0,1,19.523,0H68.595A19.58,19.58,0,0,1,88.117,19.523Z" fill="#d7c9fe"/>
        </g>
      </g>
    </g>
    <g id="Group_1102155" data-name="Group 1102155" transform="translate(1119.251 1628.901)">
      <rect id="Rectangle_401104" data-name="Rectangle 401104" width="68" height="69" transform="translate(-0.251 -0.373)" fill="none"/>
      <g id="Group_1107711" data-name="Group 1107711" transform="translate(-835.376 10.85)">
        <path id="Path_882198" data-name="Path 882198" d="M856.089-6.1c.462-.009.925-.027,1.388-.027q27.509,0,55.017,0c.462,0,.925.018,1.388.027v3.158c-1.069.007-2.14.058-3.206.007-.8-.038-1.129.153-1.126,1.048S909.834-.74,910.71-.76c2.068-.048,2.116,0,2.06,2.055-.024.878.228,1.264,1.113,1.158v2.09c-.754-.062-1.137.132-1.127,1.041.009.876.253,1.25,1.127,1.147q-.034,2.675-.068,5.351c-.882-1.95-2.484-2.411-4.438-2.143l-.869,0L904.244,9.9q-.022-1.058-.043-2.116c.012-2.234,0-4.468.051-6.7.018-.705-.268-.822-.873-.8-1.134.039-2.27.014-3.4.016a5.082,5.082,0,0,1-.009-.852c.153-1-.193-1.349-1.257-1.319-2.77.079-5.551.143-8.315-.011-2.173-.121-4.069.124-5.413,2.035a6.92,6.92,0,0,1-.847-.806,3.105,3.105,0,0,0-2.855-1.221c-3.018.091-6.041.03-9.062.03-2.15,0-2.15,0-2.229,2.145-.741,0-1.482-.005-2.222-.006-2.108,0-2.108,0-2,2.133l-.02,23.525c-.005.213-.014.427-.015.64-.008,1.507-.008,1.507,1.463,1.507,4.485,0,8.971.063,13.454-.035a3.786,3.786,0,0,1,3.6,1.5c.488.7.987.7,1.476,0a3.783,3.783,0,0,1,3.6-1.506c4.269.1,8.542.035,12.813.035,2.138,0,2.138,0,2.089-2.148q.028-3.739.056-7.478c1.776,0,3.556-.065,5.329.019,1.843.088,3.354-.333,4.271-2.493V32.349l-17.594.049-.608,0-21.193.005-.651,0-17.735-.048q0-1.58-.008-3.16c.754.062,1.137-.132,1.127-1.041-.009-.876-.253-1.25-1.127-1.147v-2.09c.764.067,1.123-.144,1.114-1.049q-.071-7.53,0-15.062c.009-.9-.351-1.115-1.114-1.049Q856.088.826,856.089-6.1Z" transform="translate(-15.689 -0.076)" fill="#80dafe"/>
        <path id="Path_882199" data-name="Path 882199" d="M896.31,173.705l17.594-.049-.016.034q.005,4.268.011,8.536-7.879,0-15.757.016c-.406,0-.866-.151-1.187.266-.294-.366-.707-.271-1.089-.271q-10.853,0-21.705,0c-.381,0-.795-.1-1.088.271-.32-.418-.781-.266-1.186-.267q-7.879-.019-15.758-.016.005-4.268.01-8.536l-.016-.034,17.736.048c.124,2.758,1.648,4.246,4.392,4.252,4.267.009,8.535-.031,12.8.015C893.78,178,896.1,176.992,896.31,173.705Z" transform="translate(-15.718 -141.383)" fill="#e3e3e3"/>
        <path id="Path_882200" data-name="Path 882200" d="M1090.621,4.467V2.377c.789.091,1.142-.178,1.066-1.049a25.8,25.8,0,0,1-.013-2.873c.019-.775-.238-1.314-1.055-1.472V-6.175c1.138-.009,2.279.027,3.413-.044.756-.047.862.279.857.926-.026,3.273-.01,6.546-.012,9.82q-.009,13.875-.02,27.75l-4.259.03.016-.034V15.92c-.916,2.16-2.427,2.581-4.271,2.493-1.773-.085-3.552-.019-5.329-.019l-.066,0q.02-1.066.04-2.132l4.265-.039h.861c2.746.458,5-1.026,4.439-4.213q.034-2.675.068-5.351c.78.087,1.09-.173,1.083-1.041C1091.7,4.77,1091.523,4.344,1090.621,4.467Z" transform="translate(-192.427)" fill="#19cefb"/>
        <path id="Path_882201" data-name="Path 882201" d="M938.306,243.631a4.3,4.3,0,0,1,4.137,3.227c.27.953-.068,1.075-.9,1.065-2.742-.036-5.484-.014-8.227-.014q-12.982,0-25.964,0c-1.248,0-1.277-.042-.937-1.255a4.251,4.251,0,0,1,4.075-3.023l1.267-.025h25.278Z" transform="translate(-55.104 -196.363)" fill="#9c9c9c"/>
        <path id="Path_882202" data-name="Path 882202" d="M840.4,29.134q0,1.58.008,3.16l.016.034-4.259-.03q-.01-18.838-.035-37.677c0-.688.232-.843.859-.815,1.136.05,2.276.03,3.414.04q0,6.925,0,13.85c-.8-.094-1.077.19-1.07,1.053q.067,7.527,0,15.055c-.008.862.274,1.146,1.07,1.053v2.09c-.781-.087-1.09.173-1.083,1.041C839.324,28.831,839.5,29.257,840.4,29.134Z" transform="translate(-0.003 -0.022)" fill="#19cefb"/>
        <path id="Path_882203" data-name="Path 882203" d="M927.406,220.1l-1.267.025,1.966-6.143c.293-.368.706-.271,1.088-.271q10.853,0,21.705,0c.382,0,.794-.1,1.089.271l1.965,6.144-1.268-.025a4.338,4.338,0,0,0-4.17-3.171q-8.483-.047-16.967,0A4.193,4.193,0,0,0,927.406,220.1Z" transform="translate(-70.749 -172.855)" fill="#6e6e6e"/>
        <path id="Path_882204" data-name="Path 882204" d="M836.162,173.677l4.259.03q-.005,4.268-.01,8.536c-1.1,0-2.2-.027-3.292.021-.711.031-1.007-.164-.993-.94C836.174,178.775,836.155,176.226,836.162,173.677Z" transform="translate(0 -141.4)" fill="#cecece"/>
        <path id="Path_882205" data-name="Path 882205" d="M1126.037,173.706l4.259-.03c.007,2.549-.013,5.1.036,7.647.015.776-.282.971-.993.94-1.1-.048-2.195-.018-3.292-.021Q1126.042,177.973,1126.037,173.706Z" transform="translate(-227.867 -141.399)" fill="#cecece"/>
        <path id="Path_882206" data-name="Path 882206" d="M921,15.884c.079-2.144.079-2.144,2.229-2.144,3.021,0,6.044.061,9.062-.03a3.105,3.105,0,0,1,2.855,1.221,6.893,6.893,0,0,0,.847.806q0,11.212,0,22.426c0,.345.1.718-.171,1.022a6.351,6.351,0,0,1-.855-.789,3.033,3.033,0,0,0-2.764-1.155c-3.724.067-7.45.015-11.174.009l-.039-19.241Q921,16.947,921,15.884Zm7.444,8.549c1.211,0,2.424-.041,3.632.013.923.042.714-.581.7-1.068-.011-.47.263-1.109-.675-1.094-2.386.036-4.773.042-7.158,0-.921-.017-.714.582-.7,1.07.011.469-.264,1.128.675,1.093C926.1,24.4,927.273,24.433,928.448,24.434Zm.067,4.278c1.175,0,2.354-.054,3.525.017.9.055.765-.514.748-1.033s.246-1.161-.748-1.139c-2.349.052-4.7.055-7.051,0-.9-.022-.764.517-.747,1.035s-.247,1.189.748,1.137C926.163,28.664,927.341,28.712,928.516,28.712Zm.107,2.14c-1.211,0-2.425.053-3.632-.018-.9-.053-.766.514-.748,1.033s-.247,1.161.747,1.14c2.349-.052,4.7-.055,7.051,0,.9.022.766-.516.748-1.035s.248-1.191-.747-1.137C930.9,30.9,929.762,30.851,928.623,30.851Zm2.136-12.834a5.29,5.29,0,0,1-.959-.009c-1.145-.215-1.367.327-1.313,1.349.037.692.277.839.89.808a17.132,17.132,0,0,1,2.454.007c.851.081.974-.283.992-1.035.021-.86-.183-1.27-1.1-1.128A6.405,6.405,0,0,1,930.759,18.018Zm-5.373,2.115c.982.241.956-.357,1.017-1.072.085-.99-.383-1.036-1.176-1.075-.944-.046-.973.392-1.016,1.129C924.155,20.075,924.549,20.315,925.385,20.133Z" transform="translate(-66.706 -15.666)" fill="#efefef"/>
        <path id="Path_882207" data-name="Path 882207" d="M990.3,39.073c.273-.3.171-.677.171-1.022q.005-11.213,0-22.426c1.344-1.91,3.24-2.156,5.413-2.034,2.764.154,5.545.089,8.315.011,1.065-.03,1.41.317,1.257,1.319a5.108,5.108,0,0,0,.009.852q.009,3.745.017,7.491l-.042,2.1c-.747.008-1.5-.019-2.24.033-1.046.074-2.115-.233-3.138.188a15.878,15.878,0,0,0-3.467,1.947c-1.713,1-1.685,1.047-.132,2.136-.35.237-.7.48-1.052.709-.321.206-.529.4-.058.673,2.376,1.393,4.48,3.455,7.619,2.915a14.306,14.306,0,0,1,2.452-.012l.052-.021-.032,3.2c-3.594.006-7.19.079-10.782-.017a3.733,3.733,0,0,0-3.426,1.417C991.047,38.784,990.89,39.406,990.3,39.073Z" transform="translate(-121.178 -15.554)" fill="#e3e3e3"/>
        <path id="Path_882208" data-name="Path 882208" d="M935.441,53.048q.016-1.6.032-3.2l4.225.006.066,0q-.028,3.739-.055,7.478c-5.022,0-10.046.057-15.067-.024a3.582,3.582,0,0,0-3.4,1.431c-.514.747-1.02.744-1.531,0a3.574,3.574,0,0,0-3.4-1.426c-5.021.08-10.044.026-15.067.024q.01-11.762.02-23.525l4.209,0q.019,9.621.039,19.241c0,.214,0,.427,0,.641,0,1.515,0,1.515,1.471,1.516,3.206,0,6.414.064,9.617-.031a3.313,3.313,0,0,1,3.139,1.325c.493.7,1,.7,1.491,0a3.3,3.3,0,0,1,3.139-1.325c2.989.1,5.984.031,8.976.031C935.457,55.2,935.457,55.2,935.441,53.048Z" transform="translate(-51.178 -31.463)" fill="#fdab5a"/>
        <path id="Path_882209" data-name="Path 882209" d="M901.179,143.651c5.022,0,10.046.056,15.067-.024a3.574,3.574,0,0,1,3.4,1.426c.511.748,1.017.751,1.531,0a3.582,3.582,0,0,1,3.4-1.431c5.021.081,10.044.027,15.067.024.049,2.148.049,2.148-2.089,2.148-4.271,0-8.544.065-12.813-.035a3.783,3.783,0,0,0-3.6,1.506c-.489.7-.989.7-1.476,0a3.786,3.786,0,0,0-3.6-1.5c-4.483.1-8.969.035-13.454.035-1.47,0-1.471,0-1.463-1.507C901.165,144.078,901.174,143.864,901.179,143.651Z" transform="translate(-51.119 -117.78)" fill="#19cefb"/>
        <path id="Path_882210" data-name="Path 882210" d="M961.446,173.878c-.212,3.287-2.53,4.295-5.257,4.265-4.267-.046-8.535-.006-12.8-.015-2.744-.006-4.268-1.493-4.392-4.252l.651,0a3.418,3.418,0,0,0,3.359,2.108c4.483.006,8.967-.026,13.45.016a4.87,4.87,0,0,0,4.384-2.129Z" transform="translate(-80.854 -141.556)" fill="#adadad"/>
        <path id="Path_882211" data-name="Path 882211" d="M1035.91,68.911c1.024-.421,2.093-.114,3.138-.188.744-.052,1.494-.025,2.24-.033l4.294.007,4.265.045q-.014,1.585-.029,3.171H1035.98Q1035.945,70.411,1035.91,68.911Z" transform="translate(-157.028 -58.876)" fill="#a27862"/>
        <path id="Path_882212" data-name="Path 882212" d="M963.231,173.876A4.87,4.87,0,0,1,958.847,176c-4.483-.042-8.966-.009-13.449-.016a3.418,3.418,0,0,1-3.359-2.108Z" transform="translate(-83.247 -141.556)" fill="#cecece"/>
        <path id="Path_882213" data-name="Path 882213" d="M852.158,75.817c-.8.094-1.077-.19-1.07-1.053q.067-7.527,0-15.055c-.008-.862.274-1.146,1.07-1.053.764-.066,1.123.145,1.114,1.049q-.071,7.53,0,15.062C853.281,75.673,852.922,75.884,852.158,75.817Z" transform="translate(-11.76 -50.982)" fill="#cef8fe"/>
        <path id="Path_882214" data-name="Path 882214" d="M1061.172,31.3q-.009-3.745-.017-7.491c1.135,0,2.271.023,3.4-.016.605-.021.891.1.873.8-.055,2.233-.04,4.467-.052,6.7Z" transform="translate(-176.87 -23.594)" fill="#fdab5a"/>
        <path id="Path_882215" data-name="Path 882215" d="M1110.229,8.762c.817.157,1.075.7,1.055,1.472a25.8,25.8,0,0,0,.013,2.873c.076.871-.278,1.139-1.066,1.049-.885.106-1.137-.28-1.113-1.158.056-2.059.009-2.1-2.059-2.055-.876.02-1.157-.222-1.161-1.125s.327-1.086,1.126-1.048C1108.089,8.82,1109.16,8.769,1110.229,8.762Z" transform="translate(-212.037 -11.779)" fill="#cef8fe"/>
        <path id="Path_882216" data-name="Path 882216" d="M1100.9,72.114q.014-1.586.029-3.171l.869,0a3.365,3.365,0,0,1,2.347,3.182A3.326,3.326,0,0,1,1101.8,75.3h-.861Q1100.917,73.7,1100.9,72.114Z" transform="translate(-208.109 -59.077)" fill="#efefef"/>
        <path id="Path_882217" data-name="Path 882217" d="M1105.088,75.04a3.326,3.326,0,0,0,2.348-3.175,3.366,3.366,0,0,0-2.347-3.182c1.953-.268,3.555.193,4.438,2.143C1110.085,74.014,1107.834,75.5,1105.088,75.04Z" transform="translate(-211.401 -58.822)" fill="#cecece"/>
        <path id="Path_882218" data-name="Path 882218" d="M905.4,25.985l-4.209,0c-.113-2.133-.113-2.134,2-2.133.741,0,1.481,0,2.222.006Q905.4,24.922,905.4,25.985Z" transform="translate(-51.109 -23.642)" fill="#fe873c"/>
        <path id="Path_882219" data-name="Path 882219" d="M1061.084,58.864l4.209,0q.022,1.058.043,2.116l-4.294-.007Q1061.063,59.916,1061.084,58.864Z" transform="translate(-176.782 -51.155)" fill="#fe873c"/>
        <path id="Path_882220" data-name="Path 882220" d="M1122.006,43.653c.9-.123,1.076.3,1.083,1.146.007.868-.3,1.128-1.083,1.041-.874.1-1.118-.271-1.127-1.147C1120.869,43.785,1121.252,43.591,1122.006,43.653Z" transform="translate(-223.812 -39.186)" fill="#cef8fe"/>
        <path id="Path_882221" data-name="Path 882221" d="M852.109,150.794c-.9.122-1.076-.3-1.083-1.147-.007-.868.3-1.128,1.083-1.041.874-.1,1.118.271,1.127,1.147C853.246,150.662,852.862,150.856,852.109,150.794Z" transform="translate(-11.711 -121.681)" fill="#cef8fe"/>
        <path id="Path_882222" data-name="Path 882222" d="M1049.868,83.767q.018,1.591.035,3.182l-4.265.039-4.3.006c-.816,0-1.635.034-2.448-.019-.974-.064-1.973.238-2.922-.192l.057-3.017Z" transform="translate(-157.078 -70.731)" fill="#be937a"/>
        <path id="Path_882223" data-name="Path 882223" d="M1060.985,98.828l4.3-.006q-.02,1.066-.04,2.132l-4.225-.007-.052.021Q1060.974,99.9,1060.985,98.828Z" transform="translate(-176.719 -82.565)" fill="#fe873c"/>
        <path id="Path_882224" data-name="Path 882224" d="M932.061,231.871a4.193,4.193,0,0,1,4.14-3.168q8.483-.056,16.967,0a4.338,4.338,0,0,1,4.17,3.171Z" transform="translate(-75.404 -184.629)" fill="#848484"/>
        <path id="Path_882225" data-name="Path 882225" d="M951.1,123.643c.016,2.156.016,2.156-2.108,2.156-2.992,0-5.987.067-8.976-.031a3.3,3.3,0,0,0-3.139,1.325c-.494.7-1,.7-1.491,0a3.313,3.313,0,0,0-3.139-1.325c-3.2.1-6.411.031-9.617.031-1.473,0-1.473,0-1.471-1.516,0-.214,0-.427,0-.641,3.725.006,7.451.058,11.174-.009a3.033,3.033,0,0,1,2.764,1.155,6.357,6.357,0,0,0,.855.789c.591.333.748-.29.935-.534a3.733,3.733,0,0,1,3.426-1.417C943.9,123.722,947.5,123.649,951.1,123.643Z" transform="translate(-66.831 -102.058)" fill="#fe873c"/>
        <path id="Path_882226" data-name="Path 882226" d="M940.287,55.921c-1.175,0-2.352-.034-3.526.01-.939.035-.664-.624-.675-1.093-.012-.488-.219-1.087.7-1.07,2.385.045,4.773.039,7.158,0,.938-.014.664.625.675,1.094.011.488.22,1.11-.7,1.068C942.711,55.88,941.5,55.921,940.287,55.921Z" transform="translate(-78.545 -47.153)" fill="#848484"/>
        <path id="Path_882227" data-name="Path 882227" d="M940.372,75.891c-1.175,0-2.353-.047-3.525.015-.995.052-.731-.621-.748-1.137s-.155-1.057.747-1.035c2.349.058,4.7.055,7.051,0,.993-.022.73.624.748,1.139s.157,1.088-.748,1.033C942.726,75.838,941.547,75.891,940.372,75.891Z" transform="translate(-78.563 -62.845)" fill="#848484"/>
        <path id="Path_882228" data-name="Path 882228" d="M940.48,93.739c1.14,0,2.282.047,3.418-.014,1-.054.73.622.747,1.137s.154,1.057-.748,1.035c-2.349-.058-4.7-.055-7.051,0-.994.022-.729-.625-.747-1.14s-.156-1.086.748-1.033C938.055,93.792,939.269,93.739,940.48,93.739Z" transform="translate(-78.563 -78.553)" fill="#848484"/>
        <path id="Path_882229" data-name="Path 882229" d="M958.245,33.645a6.405,6.405,0,0,0,.96-.007c.921-.141,1.125.269,1.1,1.128-.019.752-.141,1.115-.992,1.035a17.131,17.131,0,0,0-2.454-.007c-.613.031-.853-.117-.89-.808-.055-1.022.167-1.564,1.313-1.349A5.289,5.289,0,0,0,958.245,33.645Z" transform="translate(-94.192 -31.293)" fill="#848484"/>
        <path id="Path_882230" data-name="Path 882230" d="M937.177,35.835c-.836.182-1.23-.057-1.175-1.018.043-.736.071-1.175,1.016-1.129.794.039,1.262.085,1.176,1.075C938.132,35.478,938.159,36.077,937.177,35.835Z" transform="translate(-78.497 -31.368)" fill="#848484"/>
        <path id="Path_882231" data-name="Path 882231" d="M1022.987,90.971q-.011,1.07-.022,2.14a14.306,14.306,0,0,0-2.452.012c-3.139.541-5.243-1.522-7.619-2.915-.47-.276-.263-.468.058-.674.356-.228.7-.472,1.052-.709,1.246.566,2.252,1.581,3.612,1.934.948.431,1.948.128,2.922.192C1021.352,91.006,1022.171,90.969,1022.987,90.971Z" transform="translate(-138.722 -74.708)" fill="#cecece"/>
        <path id="Path_882232" data-name="Path 882232" d="M1018.451,75.764c-1.36-.353-2.366-1.368-3.612-1.934-1.553-1.09-1.581-1.136.132-2.136a15.875,15.875,0,0,1,3.467-1.947q.035,1.5.069,3Q1018.48,74.255,1018.451,75.764Z" transform="translate(-139.556 -59.711)" fill="#fdc9c8"/>
      </g>
    </g>
  </g>
</svg>
