<svg xmlns="http://www.w3.org/2000/svg" xmlns:xlink="http://www.w3.org/1999/xlink" width="124.605" height="125.948" viewBox="0 0 124.605 125.948">
  <defs>
    <clipPath id="clip-path">
      <rect id="Rectangle_400938" data-name="Rectangle 400938" width="117.278" height="117.278" fill="none"/>
    </clipPath>
    <clipPath id="clip-path-2">
      <path id="Path_873460" data-name="Path 873460" d="M0,1.307A1.349,1.349,0,0,0,1.389,2.613,1.349,1.349,0,0,0,2.778,1.307,1.349,1.349,0,0,0,1.389,0,1.349,1.349,0,0,0,0,1.307" transform="translate(0)" fill="#34054d"/>
    </clipPath>
    <clipPath id="clip-path-3">
      <path id="Path_873466" data-name="Path 873466" d="M0,1.307A1.349,1.349,0,0,0,1.39,2.613,1.349,1.349,0,0,0,2.778,1.307,1.349,1.349,0,0,0,1.39,0,1.349,1.349,0,0,0,0,1.307" fill="#34054d"/>
    </clipPath>
    <clipPath id="clip-path-4">
      <path id="Path_873467" data-name="Path 873467" d="M0,1.306A1.349,1.349,0,0,0,1.389,2.612,1.349,1.349,0,0,0,2.778,1.306,1.349,1.349,0,0,0,1.389,0,1.349,1.349,0,0,0,0,1.306" transform="translate(0 0)" fill="#34054d"/>
    </clipPath>
    <clipPath id="clip-path-5">
      <path id="Path_873468" data-name="Path 873468" d="M0,1.306A1.349,1.349,0,0,0,1.39,2.612,1.349,1.349,0,0,0,2.778,1.306,1.349,1.349,0,0,0,1.39,0,1.349,1.349,0,0,0,0,1.306" transform="translate(0 0)" fill="#34054d"/>
    </clipPath>
    <clipPath id="clip-path-6">
      <path id="Path_873469" data-name="Path 873469" d="M0,1.306A1.349,1.349,0,0,0,1.389,2.612,1.349,1.349,0,0,0,2.777,1.306,1.349,1.349,0,0,0,1.389,0,1.349,1.349,0,0,0,0,1.306" transform="translate(0 0)" fill="#34054d"/>
    </clipPath>
    <clipPath id="clip-path-9">
      <path id="Path_873473" data-name="Path 873473" d="M0,1.306A1.349,1.349,0,0,0,1.39,2.612,1.348,1.348,0,0,0,2.778,1.306,1.349,1.349,0,0,0,1.39,0,1.349,1.349,0,0,0,0,1.306" transform="translate(0 0)" fill="#34054d"/>
    </clipPath>
    <clipPath id="clip-path-22">
      <rect id="Rectangle_401492" data-name="Rectangle 401492" width="63.051" height="63.052" transform="translate(0 0)" fill="#fff" stroke="#707070" stroke-width="1"/>
    </clipPath>
  </defs>
  <g id="Group_1109575" data-name="Group 1109575" transform="translate(23060.281 3818.28)">
    <g id="Group_1100237" data-name="Group 1100237" transform="translate(-23054.037 -3797.84)">
      <g id="Group_1099505" data-name="Group 1099505" transform="translate(1.808 8.418)">
        <g id="Group_1099504" data-name="Group 1099504" transform="translate(0)" clip-path="url(#clip-path-2)">
          <rect id="Rectangle_401140" data-name="Rectangle 401140" width="2.777" height="2.613" transform="translate(0)" fill="#34054d"/>
        </g>
      </g>
      <g id="Group_1099517" data-name="Group 1099517" transform="translate(37.056 8.418)">
        <g id="Group_1099516" data-name="Group 1099516" transform="translate(0)" clip-path="url(#clip-path-3)">
          <rect id="Rectangle_401146" data-name="Rectangle 401146" width="2.778" height="2.613" transform="translate(0 0)" fill="#34054d"/>
        </g>
      </g>
      <g id="Group_1099519" data-name="Group 1099519" transform="translate(30.194 8.418)">
        <g id="Group_1099518" data-name="Group 1099518" transform="translate(0 0)" clip-path="url(#clip-path-4)">
          <rect id="Rectangle_401147" data-name="Rectangle 401147" width="2.778" height="2.612" transform="translate(0 0)" fill="#34054d"/>
        </g>
      </g>
      <g id="Group_1099521" data-name="Group 1099521" transform="translate(23.332 8.418)">
        <g id="Group_1099520" data-name="Group 1099520" transform="translate(0 0)" clip-path="url(#clip-path-5)">
          <rect id="Rectangle_401148" data-name="Rectangle 401148" width="2.778" height="2.612" transform="translate(0 0)" fill="#34054d"/>
        </g>
      </g>
      <g id="Group_1099523" data-name="Group 1099523" transform="translate(16.47 8.418)">
        <g id="Group_1099522" data-name="Group 1099522" transform="translate(0 0)" clip-path="url(#clip-path-6)">
          <rect id="Rectangle_401149" data-name="Rectangle 401149" width="2.777" height="2.612" transform="translate(0 0)" fill="#34054d"/>
        </g>
      </g>
      <g id="Group_1099525" data-name="Group 1099525" transform="translate(34.311 0)">
        <g id="Group_1099524" data-name="Group 1099524" clip-path="url(#clip-path-4)">
          <rect id="Rectangle_401150" data-name="Rectangle 401150" width="2.778" height="2.612" transform="translate(0 0)" fill="#34054d"/>
        </g>
      </g>
      <g id="Group_1099529" data-name="Group 1099529" transform="translate(27.448 0)">
        <g id="Group_1099528" data-name="Group 1099528" transform="translate(0)" clip-path="url(#clip-path-5)">
          <rect id="Rectangle_401152" data-name="Rectangle 401152" width="2.778" height="2.612" transform="translate(0 0)" fill="#34054d"/>
        </g>
      </g>
      <g id="Group_1099531" data-name="Group 1099531" transform="translate(13.724 0)">
        <g id="Group_1099530" data-name="Group 1099530" transform="translate(0)" clip-path="url(#clip-path-9)">
          <rect id="Rectangle_401153" data-name="Rectangle 401153" width="2.777" height="2.612" transform="translate(0 0)" fill="#34054d"/>
        </g>
      </g>
      <g id="Group_1099533" data-name="Group 1099533" transform="translate(6.862 0)">
        <g id="Group_1099532" data-name="Group 1099532" clip-path="url(#clip-path-4)">
          <rect id="Rectangle_401154" data-name="Rectangle 401154" width="2.778" height="2.612" transform="translate(0 0)" fill="#34054d"/>
        </g>
      </g>
      <g id="Group_1099535" data-name="Group 1099535" transform="translate(0 0)">
        <g id="Group_1099534" data-name="Group 1099534" transform="translate(0)" clip-path="url(#clip-path-5)">
          <rect id="Rectangle_401155" data-name="Rectangle 401155" width="2.778" height="2.612" transform="translate(0 0)" fill="#34054d"/>
        </g>
      </g>
    </g>
    <g id="Group_1100238" data-name="Group 1100238" transform="translate(-22980.652 -3724.455)">
      <g id="Group_1099505-2" data-name="Group 1099505" transform="translate(1.808 8.418)">
        <g id="Group_1099504-2" data-name="Group 1099504" transform="translate(0)" clip-path="url(#clip-path-2)">
          <rect id="Rectangle_401140-2" data-name="Rectangle 401140" width="2.777" height="2.613" transform="translate(0)" fill="#34054d"/>
        </g>
      </g>
      <g id="Group_1099517-2" data-name="Group 1099517" transform="translate(37.056 8.418)">
        <g id="Group_1099516-2" data-name="Group 1099516" transform="translate(0)" clip-path="url(#clip-path-3)">
          <rect id="Rectangle_401146-2" data-name="Rectangle 401146" width="2.778" height="2.613" transform="translate(0 0)" fill="#34054d"/>
        </g>
      </g>
      <g id="Group_1099519-2" data-name="Group 1099519" transform="translate(30.194 8.418)">
        <g id="Group_1099518-2" data-name="Group 1099518" transform="translate(0 0)" clip-path="url(#clip-path-4)">
          <rect id="Rectangle_401147-2" data-name="Rectangle 401147" width="2.778" height="2.612" transform="translate(0 0)" fill="#34054d"/>
        </g>
      </g>
      <g id="Group_1099521-2" data-name="Group 1099521" transform="translate(23.332 8.418)">
        <g id="Group_1099520-2" data-name="Group 1099520" transform="translate(0 0)" clip-path="url(#clip-path-5)">
          <rect id="Rectangle_401148-2" data-name="Rectangle 401148" width="2.778" height="2.612" transform="translate(0 0)" fill="#34054d"/>
        </g>
      </g>
      <g id="Group_1099523-2" data-name="Group 1099523" transform="translate(16.47 8.418)">
        <g id="Group_1099522-2" data-name="Group 1099522" transform="translate(0 0)" clip-path="url(#clip-path-6)">
          <rect id="Rectangle_401149-2" data-name="Rectangle 401149" width="2.777" height="2.612" transform="translate(0 0)" fill="#34054d"/>
        </g>
      </g>
      <g id="Group_1099525-2" data-name="Group 1099525" transform="translate(34.311 0)">
        <g id="Group_1099524-2" data-name="Group 1099524" clip-path="url(#clip-path-4)">
          <rect id="Rectangle_401150-2" data-name="Rectangle 401150" width="2.778" height="2.612" transform="translate(0 0)" fill="#34054d"/>
        </g>
      </g>
      <g id="Group_1099529-2" data-name="Group 1099529" transform="translate(27.448 0)">
        <g id="Group_1099528-2" data-name="Group 1099528" transform="translate(0)" clip-path="url(#clip-path-5)">
          <rect id="Rectangle_401152-2" data-name="Rectangle 401152" width="2.778" height="2.612" transform="translate(0 0)" fill="#34054d"/>
        </g>
      </g>
      <g id="Group_1099531-2" data-name="Group 1099531" transform="translate(13.724 0)">
        <g id="Group_1099530-2" data-name="Group 1099530" transform="translate(0)" clip-path="url(#clip-path-9)">
          <rect id="Rectangle_401153-2" data-name="Rectangle 401153" width="2.777" height="2.612" transform="translate(0 0)" fill="#34054d"/>
        </g>
      </g>
      <g id="Group_1099533-2" data-name="Group 1099533" transform="translate(6.862 0)">
        <g id="Group_1099532-2" data-name="Group 1099532" clip-path="url(#clip-path-4)">
          <rect id="Rectangle_401154-2" data-name="Rectangle 401154" width="2.778" height="2.612" transform="translate(0 0)" fill="#34054d"/>
        </g>
      </g>
      <g id="Group_1099535-2" data-name="Group 1099535" transform="translate(0 0)">
        <g id="Group_1099534-2" data-name="Group 1099534" transform="translate(0)" clip-path="url(#clip-path-5)">
          <rect id="Rectangle_401155-2" data-name="Rectangle 401155" width="2.778" height="2.612" transform="translate(0 0)" fill="#34054d"/>
        </g>
      </g>
    </g>
    <path id="Path_873784" data-name="Path 873784" d="M83.8,18.565A18.62,18.62,0,0,0,65.231,0H18.566A18.62,18.62,0,0,0,0,18.566V65.231A18.62,18.62,0,0,0,18.565,83.8H65.231A18.62,18.62,0,0,0,83.8,65.23Z" transform="translate(-22994.928 -3692.332) rotate(-135)" fill="#bfa9fe"/>
    <path id="Path_873785" data-name="Path 873785" d="M86.438,19.15A19.206,19.206,0,0,0,67.287,0H19.151A19.207,19.207,0,0,0,0,19.151V67.287a19.206,19.206,0,0,0,19.15,19.15H67.287A19.207,19.207,0,0,0,86.437,67.286Z" transform="translate(-22999.16 -3696.04) rotate(-135)" fill="#34054d"/>
    <g id="Mask_Group_1098697" data-name="Mask Group 1098697" transform="translate(-23031.146 -3787.541)" clip-path="url(#clip-path-22)">
      <g id="Group_1109579" data-name="Group 1109579" transform="translate(-2351.91 -92.002)">
        <path id="Path_883350" data-name="Path 883350" d="M2386.243,141.98v3.691c1.679,0,3.331-.05,4.976.029a2.656,2.656,0,0,1,1.523.623,39.6,39.6,0,0,1,3.064,3.063,1.573,1.573,0,0,1,.389,1.256c-.084.275-.718.539-1.108.541q-11.67.046-23.34,0a1.386,1.386,0,0,1-1.09-.58,1.427,1.427,0,0,1,.372-1.178c1.018-1.109,2.084-2.178,3.194-3.2a2.174,2.174,0,0,1,1.285-.532c1.683-.061,3.369-.025,5.107-.025V141.98h-23.277c-1.393,0-1.576-.187-1.577-1.606q0-16.836,0-33.672c0-1.46.166-1.622,1.652-1.622h5.728v-1.047c0-2.306.011-4.613-.006-6.919-.006-.831.319-1.264,1.19-1.263,7.811.007,15.621,0,23.432.026a1.917,1.917,0,0,1,1.2.523c2.31,2.255,4.6,4.527,6.842,6.854a6.587,6.587,0,0,1,.829,1.825h.786q6.089,0,12.177,0c1.3,0,1.521.212,1.521,1.476q0,16.974,0,33.948c0,1.261-.222,1.475-1.522,1.475q-11.071,0-22.141,0Zm6.419-5.58V121.868c0-1.506.01-3.013,0-4.519-.007-.795.337-1.213,1.155-1.2.206,0,.411-.022.63-.035V105.078h-5.491c-1.73,0-1.825-.1-1.825-1.818q0-2.749,0-5.491h-22.094V136.4Zm-.046,1.89h-1.126q-15.308,0-30.617,0c-1.1,0-1.416-.251-1.417-1.206q-.011-13.556-.009-27.113c0-.863.406-1.226,1.247-1.2.79.02,1.58,0,2.381,0v-1.8h-5.413v33.1h34.955Zm16.61-20.228h-14.644v22.022h14.644Zm-3.689-7.4h-9.129v5.426h9.129Zm-44.183-.023v25.734h1.709V110.637Zm47.87-3.646H2396.4v1.779h.944c2.917,0,5.835,0,8.753,0,1.041,0,1.311.273,1.323,1.3.01.829,0,1.658,0,2.488V116.1h1.8Zm-16.169,42.317c-.911-1.071-1.657-1.891-3.216-1.84q-6.4.208-12.809,0c-1.56-.051-2.3.769-3.21,1.84Zm-4.029-50.141v4h4.2c-1.379-1.342-2.581-2.513-3.786-3.681C2389.34,99.387,2389.219,99.313,2389.028,99.167Zm-4.734,46.463v-3.605h-1.73v3.605Z" transform="translate(0 0)" fill="#eed"/>
        <path id="Path_883351" data-name="Path 883351" d="M2453.109,140.638a7.377,7.377,0,1,1,7.419-7.334A7.387,7.387,0,0,1,2453.109,140.638Zm-.878-12.723a5.377,5.377,0,0,0-4.611,5.636,5.543,5.543,0,0,0,5.674,5.244c2.644-.06,5.138-2.246,5.175-4.612-1.622,0-3.245,0-4.867,0-1.1,0-1.364-.261-1.369-1.343C2452.225,131.214,2452.231,129.591,2452.231,127.915Zm1.844,0v4.422h4.385C2458.46,130.294,2456.322,128.11,2454.074,127.916Z" transform="translate(-73.406 -24.491)" fill="#eed"/>
        <path id="Path_883352" data-name="Path 883352" d="M2456.33,277.937h-20.162V276.2h20.162Z" transform="translate(-65.571 -147.072)" fill="#eed"/>
        <path id="Path_883353" data-name="Path 883353" d="M2435.961,257.882v-1.72h20.208v1.72Z" transform="translate(-65.403 -130.732)" fill="#eed"/>
        <path id="Path_883354" data-name="Path 883354" d="M2436,237.862V236.13H2456.2v1.732Z" transform="translate(-65.432 -114.396)" fill="#eed"/>
        <path id="Path_883355" data-name="Path 883355" d="M2435.979,217.871v-1.726h20.208v1.726Z" transform="translate(-65.417 -98.099)" fill="#eed"/>
        <path id="Path_883356" data-name="Path 883356" d="M2456.212,296.218v1.73H2436v-1.73Z" transform="translate(-65.438 -163.397)" fill="#eed"/>
        <path id="Path_883357" data-name="Path 883357" d="M2416.152,256.058h1.716v1.761h-1.716Z" transform="translate(-49.249 -130.647)" fill="#eed"/>
        <path id="Path_883358" data-name="Path 883358" d="M2415.864,277.988v-1.709h1.757v1.709Z" transform="translate(-49.014 -147.137)" fill="#eed"/>
        <path id="Path_883359" data-name="Path 883359" d="M2415.979,297.949v-1.732h1.748v1.732Z" transform="translate(-49.107 -163.397)" fill="#eed"/>
        <path id="Path_883360" data-name="Path 883360" d="M2416.083,215.971h1.709v1.758h-1.709Z" transform="translate(-49.192 -97.957)" fill="#eed"/>
        <path id="Path_883361" data-name="Path 883361" d="M2416,237.859v-1.733h1.729v1.733Z" transform="translate(-49.122 -114.393)" fill="#eed"/>
        <path id="Path_883362" data-name="Path 883362" d="M2577.243,220.86c1.691,0,3.382-.006,5.073,0,1.048,0,1.329.273,1.336,1.288q.015,2.4,0,4.8c-.007,1.016-.288,1.288-1.335,1.29q-5.119.009-10.239,0c-1.049,0-1.329-.272-1.335-1.289q-.015-2.4,0-4.8c.006-1.017.285-1.285,1.334-1.29C2573.8,220.855,2575.521,220.86,2577.243,220.86Zm4.524,1.91h-9.105v3.575h9.105Z" transform="translate(-175.31 -101.942)" fill="#eed"/>
        <path id="Path_883363" data-name="Path 883363" d="M2573.559,265.831c2.859-.022,2.715-.175,2.71,2.69-.005,3.059.216,2.845-2.833,2.849-2.867,0-2.714.161-2.71-2.695C2570.732,265.615,2570.507,265.816,2573.559,265.831Zm-.932,1.888v1.742h1.725V267.72Z" transform="translate(-175.301 -138.611)" fill="#eed"/>
        <path id="Path_883364" data-name="Path 883364" d="M2613.455,271.4c-2.924.023-2.747.17-2.73-2.758,0-.553,0-1.107,0-1.66,0-.7.327-1.105,1.051-1.111,1.137-.009,2.275-.006,3.412,0a.963.963,0,0,1,1.068,1.095c0,1.076-.011,2.152.005,3.228.013.859-.4,1.239-1.241,1.211C2614.5,271.383,2613.978,271.4,2613.455,271.4Zm-.817-3.65v1.73h1.726v-1.73Z" transform="translate(-207.915 -138.643)" fill="#eed"/>
        <path id="Path_883365" data-name="Path 883365" d="M2576.292,303.667c.022,2.922.175,2.756-2.752,2.737-.584,0-1.168.007-1.752-.006a.937.937,0,0,1-1.024-1.041c-.009-1.137-.006-2.275,0-3.412a.962.962,0,0,1,1.089-1.074c1.107,0,2.213,0,3.32,0a.99.99,0,0,1,1.122,1.137C2576.288,302.561,2576.292,303.114,2576.292,303.667Zm-3.669.837h1.762v-1.718h-1.762Z" transform="translate(-175.328 -167.191)" fill="#eed"/>
        <path id="Path_883366" data-name="Path 883366" d="M2613.535,300.835c2.927-.019,2.779-.195,2.757,2.731,0,.584,0,1.168,0,1.752a.937.937,0,0,1-1.022,1.044c-1.168.013-2.336.016-3.5,0a.934.934,0,0,1-1-1.063c0-1.137-.007-2.275,0-3.412.006-.725.408-1.051,1.113-1.049C2612.428,300.836,2612.982,300.835,2613.535,300.835Zm-.882,1.887v1.743h1.727v-1.743Z" transform="translate(-207.947 -167.155)" fill="#eed"/>
      </g>
    </g>
  </g>
</svg>
