<svg xmlns="http://www.w3.org/2000/svg" xmlns:xlink="http://www.w3.org/1999/xlink" width="146.047" height="153.061" viewBox="0 0 146.047 153.061">
  <defs>
    <clipPath id="clip-path">
      <rect id="Rectangle_400938" data-name="Rectangle 400938" width="146.047" height="146.047" fill="none"/>
    </clipPath>
    <clipPath id="clip-path-2">
      <rect id="Rectangle_401492" data-name="Rectangle 401492" width="78.518" height="78.519" transform="translate(2.586 3.366)" fill="#4b0d6b" stroke="#707070" stroke-width="1"/>
    </clipPath>
  </defs>
  <g id="Group_1102001" data-name="Group 1102001" transform="translate(23057.35 3814.13)">
    <g id="Group_1102000" data-name="Group 1102000" transform="translate(-22915.977 -3661.069) rotate(180)">
      <path id="Path_874029" data-name="Path 874029" d="M628.338,579.513l-66.859-37.731V466.315l66.859-37.733L695.2,466.315v75.467ZM564.5,540.077,628.338,576.1l63.838-36.028V468.02L628.338,431.99,564.5,468.02Z" transform="translate(-561.479 -428.582)" fill="#00d5e4"/>
      <path id="Path_874030" data-name="Path 874030" d="M574.457,477.967v68.8l61.084,34.4,61.083-34.4v-68.8l-61.083-34.4Z" transform="translate(-568.682 -436.9)" fill="#d7c9fe"/>
    </g>
    <g id="Mask_Group_1098697" data-name="Mask Group 1098697" transform="translate(-23024.281 -3779.366)" clip-path="url(#clip-path-2)">
      <g id="Group_1109711" data-name="Group 1109711" transform="translate(-2411.328 -151.887)">
        <path id="Path_883614" data-name="Path 883614" d="M2426.5,216.222c0-1.905.067-3.677-.013-5.443a6.375,6.375,0,0,1,6.912-6.956c5.723.175,11.456.043,17.184.043h1.564v-7.215h-8.917c0,.933-.012,1.89,0,2.846.016.933-.322,1.661-1.327,1.641-.926-.018-1.254-.712-1.231-1.6.024-.931.005-1.862.005-2.656a15.008,15.008,0,0,1-3.191-1.655,14.335,14.335,0,0,1-2.016-2.948c-1.385,0-3.037,0-4.688,0-.855,0-1.557-.231-1.589-1.227-.035-1.084.7-1.329,1.609-1.324,1.606.008,3.213,0,4.911,0V184.58c-1.472,0-2.9,0-4.328,0-.38,0-.872.107-1.117-.084-.44-.344-1.031-.9-1-1.325a1.692,1.692,0,0,1,1.21-1.082,31.961,31.961,0,0,1,3.813-.061h1.436v-5.249c-1.587,0-3.139,0-4.692,0-.885,0-1.826.009-1.841-1.2-.015-1.233.92-1.357,1.873-1.359,1.521,0,3.042,0,4.649,0v-5.134c-1.624,0-3.182-.009-4.741,0-.917.007-1.784-.089-1.781-1.276s.86-1.289,1.781-1.281c1.567.013,3.135,0,4.788,0a5.261,5.261,0,0,1,4.913-4.322c0-1.571.01-3.052,0-4.534-.009-.9.344-1.547,1.287-1.534s1.274.684,1.268,1.567c-.011,1.473,0,2.946,0,4.492h5.129c0-1.381-.015-2.765.009-4.148.008-.412-.011-.951.227-1.2.328-.349.984-.757,1.321-.638a1.74,1.74,0,0,1,.946,1.25c.116,1.549.044,3.113.044,4.742h5.232c0-1.521-.088-3,.045-4.466a2.207,2.207,0,0,1,.962-1.537c.748-.4,1.5.354,1.534,1.467.045,1.474.011,2.951.011,4.518h5.185c0-1.452.016-2.881-.005-4.309-.013-.891.155-1.708,1.21-1.733,1.115-.026,1.357.8,1.347,1.749-.014,1.4,0,2.8,0,4.052a14.238,14.238,0,0,1,3.1,1.573,15.8,15.8,0,0,1,2.128,3.014c1.25,0,2.847.014,4.444-.005.933-.011,1.793.141,1.8,1.28s-.862,1.29-1.791,1.28c-1.56-.017-3.121,0-4.76,0v5.134c1.268,0,2.561,0,3.854,0,.509,0,1.119-.154,1.5.072a2.4,2.4,0,0,1,1.129,1.383c.051.28-.765,1.007-1.227,1.041-1.719.127-3.454.051-5.259.051v5.258c1.638,0,3.277-.043,4.912.026a2.171,2.171,0,0,1,1.438.566c.691.806-.008,1.895-1.26,1.94-1.651.06-3.3.015-5.063.015v5.158c1.615,0,3.255-.065,4.885.037a2.207,2.207,0,0,1,1.54.793c.508.786-.227,1.682-1.349,1.707-1.694.037-3.389.01-5.048.01-1.393,3.169-1.581,3.336-4.977,4.4,0,.889-.014,1.814,0,2.74.017.91-.258,1.685-1.264,1.716-1.033.032-1.313-.732-1.293-1.653s0-1.849,0-2.852h-9.009V203.8c.521.023,1.012.064,1.5.065q8.4.007,16.8,0c4.467,0,6.79,2.349,6.8,6.851,0,1.774,0,3.547,0,5.5,1.285,0,2.456-.007,3.627,0,3.447.023,5.473,2.033,5.483,5.44.005,1.952.017,3.9-.005,5.856a4.839,4.839,0,0,1-4.892,4.954c-3.733.047-7.468.04-11.2,0a4.905,4.905,0,0,1-5.015-4.871c-.078-2.161-.083-4.33,0-6.491a5,5,0,0,1,5.045-4.881c1.395-.049,2.792-.009,4.258-.009,0-2.467.148-4.87-.054-7.244a2.912,2.912,0,0,0-2.953-2.518c-6.322-.037-12.644-.014-18.966-.007a1.531,1.531,0,0,0-.408.143v3.5c1.3,0,2.518-.013,3.739,0a4.929,4.929,0,0,1,5.168,4.979c.084,2.076.083,4.16,0,6.236a4.992,4.992,0,0,1-5.287,5.018q-5.283.031-10.566,0a4.924,4.924,0,0,1-5.249-5.261c-.017-2.037-.031-4.074.01-6.11a4.815,4.815,0,0,1,4.846-4.855c1.515-.039,3.031-.007,4.62-.007v-3.6c-.476-.027-.887-.072-1.3-.072q-8.911-.006-17.822,0c-2.58,0-3.924,1.3-3.979,3.88-.04,1.9-.008,3.806-.008,5.911,1.264,0,2.431,0,3.6,0,3.726.012,5.723,2.018,5.73,5.758,0,1.74.017,3.48,0,5.219a4.994,4.994,0,0,1-5.264,5.283q-5.346.028-10.693,0a4.881,4.881,0,0,1-5.179-5.182q-.017-2.928,0-5.856a4.966,4.966,0,0,1,5.185-5.217C2423.746,216.2,2425.051,216.222,2426.5,216.222Zm27.1-51.381c-4.073,0-8.145-.008-12.218,0-2.247.006-2.991.75-2.992,2.976q-.008,11.582,0,23.163c0,2.174.819,3.006,2.978,3.008q12.218.011,24.435,0c2.1,0,2.918-.838,2.919-2.928q.005-11.581,0-23.163c0-2.314-.724-3.051-3.032-3.056C2461.659,164.834,2457.629,164.841,2453.6,164.841Zm-25.79,65.107c1.78,0,3.559.019,5.338-.006a2.453,2.453,0,0,0,2.674-2.584q.078-2.985,0-5.973a2.456,2.456,0,0,0-2.581-2.575q-5.465-.077-10.931,0a2.367,2.367,0,0,0-2.493,2.6q-.028,2.923,0,5.847a2.383,2.383,0,0,0,2.656,2.679C2424.249,229.966,2426.029,229.948,2427.809,229.948Zm50.578-.006c1.823,0,3.646.02,5.468-.006a2.4,2.4,0,0,0,2.674-2.671q.027-2.861,0-5.722a2.478,2.478,0,0,0-2.748-2.758q-5.213-.041-10.427,0a2.58,2.58,0,0,0-2.855,2.831q-.036,2.734,0,5.468c.022,1.921.975,2.843,2.928,2.857C2475.08,229.952,2476.734,229.943,2478.387,229.942Zm-25.1-17.288c-1.864,0-3.729-.035-5.592.011a2.277,2.277,0,0,0-2.442,2.489c-.028,1.949-.018,3.9,0,5.846.013,1.894.9,2.774,2.822,2.783q5.147.024,10.295,0c1.887-.009,2.847-.924,2.885-2.778s.037-3.728,0-5.592-.978-2.745-2.88-2.76C2456.68,212.64,2454.986,212.65,2453.291,212.654Z" fill="#4b0d6b"/>
        <path id="Path_883615" data-name="Path 883615" d="M2537.107,214.6c-.749,2.122-1.435,4-3.108,5.113a4.21,4.21,0,0,1-2.66.193c-1.013-.148-1.6.029-1.876,1.077-.537,2.037-1.422,2.686-3.548,2.7-.678.006-1.357.013-2.035,0a2.992,2.992,0,0,1-3.219-2.63c-.243-1.078-.8-1.394-1.915-1.091a3.029,3.029,0,0,1-3.885-1.518c-.374-.615-.728-1.243-1.076-1.873a3.018,3.018,0,0,1,.645-4.2c.818-.783.8-1.4-.052-2.211a3,3,0,0,1-.628-4.1c.3-.558.63-1.1.951-1.652,1.1-1.884,2.069-2.28,4.2-1.747a1.258,1.258,0,0,0,1.772-1.049,3.034,3.034,0,0,1,3.391-2.728q1.017-.012,2.035,0a3.027,3.027,0,0,1,3.363,2.617c.261,1.147.867,1.419,1.928,1.129a3.037,3.037,0,0,1,3.951,1.606q.522.872,1.015,1.761a3.034,3.034,0,0,1-.637,4.21c-.816.767-.739,1.35.016,2.223A15.725,15.725,0,0,1,2537.107,214.6Zm-21.5-.042c.441.8.747,1.3,1,1.833.431.884.866,1.346,2.048.937a3.752,3.752,0,0,1,4.45,2.621c.166,1.024.579,1.281,1.481,1.19a6.261,6.261,0,0,1,1.143,0c.8.067,1.177-.161,1.313-1.077a3.743,3.743,0,0,1,4.484-2.737c1.077.351,1.565.057,1.96-.858a8.609,8.609,0,0,0,.607-1.106,1.357,1.357,0,0,0-.127-1.074c-1.927-2.1-1.942-3.956-.016-5.965.962-1-.324-1.542-.555-2.288-.252-.814-.722-1.143-1.73-.8a3.836,3.836,0,0,1-4.72-2.9,1.475,1.475,0,0,0-.941-.845,9.126,9.126,0,0,0-1.77-.044c-.658-.033-.947.185-1.081.9a3.748,3.748,0,0,1-4.711,2.88,1.152,1.152,0,0,0-1.676.734,6.675,6.675,0,0,1-.642,1.094c-.42.6-.306.977.263,1.479a3.813,3.813,0,0,1-.039,5.618A3.548,3.548,0,0,1,2515.607,214.555Z" transform="translate(-71.53 -31.881)" fill="#4b0d6b"/>
        <path id="Path_883616" data-name="Path 883616" d="M2544.626,226.638a5.138,5.138,0,0,1,5.184,5.149,5.2,5.2,0,0,1-5.111,5.125,5.274,5.274,0,0,1-5.211-5.18A5.2,5.2,0,0,1,2544.626,226.638Zm.1,2.573a2.585,2.585,0,0,0-2.676,2.481,2.7,2.7,0,0,0,2.539,2.661,2.645,2.645,0,0,0,2.652-2.526A2.537,2.537,0,0,0,2544.726,229.211Z" transform="translate(-91.116 -52.58)" fill="#4b0d6b"/>
      </g>
    </g>
  </g>
</svg>
