<svg xmlns="http://www.w3.org/2000/svg" xmlns:xlink="http://www.w3.org/1999/xlink" width="98.579" height="98.578" viewBox="0 0 98.579 98.578">
  <defs>
    <clipPath id="clip-path">
      <rect id="Rectangle_401223" data-name="Rectangle 401223" width="98.579" height="98.578" transform="translate(0)" fill="#bfa9fe"/>
    </clipPath>
    <clipPath id="clip-path-2">
      <rect id="Rectangle_401223-2" data-name="Rectangle 401223" width="88.117" height="88.116" fill="#d7c9fe"/>
    </clipPath>
  </defs>
  <g id="Group_1107704" data-name="Group 1107704" transform="translate(-1104.796 -1615.097)">
    <g id="Group_1102154" data-name="Group 1102154" transform="translate(183.463 1204.092)">
      <g id="Group_1099654" data-name="Group 1099654" transform="translate(921.333 411.006)">
        <g id="Group_1099652" data-name="Group 1099652" transform="translate(0 0)" clip-path="url(#clip-path)">
          <path id="Path_873521" data-name="Path 873521" d="M98.579,76.737a21.9,21.9,0,0,1-21.84,21.84H21.84A21.9,21.9,0,0,1,0,76.737V21.84A21.9,21.9,0,0,1,21.84,0h54.9a21.9,21.9,0,0,1,21.84,21.841Z" transform="translate(0)" fill="#bfa9fe"/>
        </g>
      </g>
      <g id="Group_1099659" data-name="Group 1099659" transform="translate(926.103 416.728)">
        <g id="Group_1099652-2" data-name="Group 1099652" transform="translate(0 0)" clip-path="url(#clip-path-2)">
          <path id="Path_873521-2" data-name="Path 873521" d="M88.117,68.594A19.58,19.58,0,0,1,68.595,88.116H19.523A19.58,19.58,0,0,1,0,68.594V19.522A19.58,19.58,0,0,1,19.523,0H68.595A19.58,19.58,0,0,1,88.117,19.523Z" fill="#d7c9fe"/>
        </g>
      </g>
    </g>
    <g id="Group_1102155" data-name="Group 1102155" transform="translate(1120.738 1626.901)">
      <rect id="Rectangle_401104" data-name="Rectangle 401104" width="68" height="69" transform="translate(0.262 3.627)" fill="none"/>
      <g id="Group_1107738" data-name="Group 1107738" transform="translate(-474.367 -23.409)">
        <g id="Group_1107737" data-name="Group 1107737" transform="translate(475.628 23.036)">
          <g id="Group_1107735" data-name="Group 1107735">
            <g id="Group_1107732" data-name="Group 1107732" transform="translate(2.623)">
              <path id="Path_882283" data-name="Path 882283" d="M536.645,35.42s-4.282-1-12.671.137c-6.12.829-6.341,2.526-13.32,3.83a60.267,60.267,0,0,1-18.436.76c-4.129-.626-5.744-1.072-5.389-2.742.277-1.3,4.915-.7,8.612-1.238,5.149-.748,6.3-2.933,6.3-2.933s-6.127-.4-8.987.188a22.959,22.959,0,0,0-7.228,2.523c-2.013,1-4.256,2.867-6.518,2.372-1.472-.322-1.646-1.668,2.96-4.817a47.624,47.624,0,0,1,10.718-5.423,25.347,25.347,0,0,1,13.793-1.688c4.733.678,8.164,1.688,16.836,1.687,5.091,0,13.214-2.443,14.819-2.433S539.5,35.378,536.645,35.42Z" transform="translate(-478.084 -23.036)" fill="#ffbe82"/>
              <g id="Group_1107731" data-name="Group 1107731" transform="translate(0.252 4.953)">
                <path id="Path_882284" data-name="Path 882284" d="M478.993,38.317c2.262.495,4.506-1.372,6.518-2.372a22.959,22.959,0,0,1,7.228-2.523c2.86-.583,8.987-.188,8.987-.188s-.7,1.3-3.382,2.239h.014c3.842.113,6.217-3.16,5.093-3.492s-8.167-.886-12.192.348a28.321,28.321,0,0,0-9.646,5.076c-1.494,1.2-2.617.989-3.293.612A1.516,1.516,0,0,0,478.993,38.317Z" transform="translate(-478.32 -27.989)" fill="#ff922b"/>
                <path id="Path_882285" data-name="Path 882285" d="M523.339,35.569a10.264,10.264,0,0,0-1.385-7.5q-1.788-.013-3.293-.081c-1.513,1.845-3.3,5.137-4.98,6.209-2.427,1.551-5.446,2.382-9.411,3.989s-14.263,1.273-16.452.553a9.239,9.239,0,0,1-1.541-.618c.254,1.094,1.928,1.5,5.383,2.025a60.267,60.267,0,0,0,18.436-.76C517.043,38.089,517.3,36.4,523.339,35.569Z" transform="translate(-477.777 -27.989)" fill="#ff922b"/>
              </g>
              <rect id="Rectangle_404151" data-name="Rectangle 404151" width="17.941" height="15.422" transform="translate(42.241 1.582)" fill="#fdfdfd"/>
              <path id="Path_882286" data-name="Path 882286" d="M523.777,36.352V24.618h10.017V40.04H517.628V36.352Z" transform="translate(-475.387 -23.036)" fill="#e9e9e9"/>
              <rect id="Rectangle_404152" data-name="Rectangle 404152" width="13.256" height="18.585" transform="translate(49.944)" fill="#065564"/>
              <rect id="Rectangle_404153" data-name="Rectangle 404153" width="13.256" height="4.216" transform="translate(49.944 14.369)" fill="#11466b"/>
              <path id="Path_882287" data-name="Path 882287" d="M519.346,28.077a1.462,1.462,0,1,0,1.459-1.366A1.415,1.415,0,0,0,519.346,28.077Z" transform="translate(-475.27 -23.036)" fill="#fff"/>
            </g>
            <g id="Group_1107734" data-name="Group 1107734" transform="translate(0 59.445)">
              <path id="Path_882288" data-name="Path 882288" d="M480.132,88.681s4.281,1,12.671-.137c6.119-.829,6.34-2.526,13.319-3.83a60.306,60.306,0,0,1,18.437-.76c4.129.626,5.743,1.072,5.388,2.742-.277,1.3-4.915.7-8.611,1.238-5.15.748-6.3,2.933-6.3,2.933s6.127.4,8.987-.188a22.934,22.934,0,0,0,7.229-2.523c2.013-1,4.256-2.867,6.518-2.372,1.472.322,1.646,1.668-2.96,4.818a47.665,47.665,0,0,1-10.718,5.422A25.347,25.347,0,0,1,510.3,97.712c-4.733-.678-8.164-1.688-16.836-1.687-5.091,0-13.214,2.443-14.819,2.433S477.276,88.723,480.132,88.681Z" transform="translate(-475.491 -82.481)" fill="#ffbe82"/>
              <g id="Group_1107733" data-name="Group 1107733" transform="translate(16.187 3.884)">
                <path id="Path_882289" data-name="Path 882289" d="M537.742,86.365a8.275,8.275,0,0,1-1.468,1.371c-2.531,1.91-12.694,8.808-20.152,8.267s-15.048-.166-17.044-3.324a25.512,25.512,0,0,0-4.026-4.752,24.578,24.578,0,0,1-3.146.617l-.1.012c-.659,2.112-1.642,5.389-.507,7.517.435-.027.861-.048,1.263-.048,8.672,0,12.1,1.009,16.836,1.687a25.347,25.347,0,0,0,13.793-1.688A47.663,47.663,0,0,0,533.911,90.6C537.149,88.387,538.019,87.067,537.742,86.365Z" transform="translate(-490.782 -86.365)" fill="#ff922b"/>
                <path id="Path_882290" data-name="Path 882290" d="M519.123,90.961c-2.895.12-6.218-.094-6.218-.094s1.154-2.185,6.3-2.933c3.7-.536,8.334.061,8.611-1.238.011-.051,0-.091.01-.14a8.762,8.762,0,0,1-3.662.389c-3.95-.291-15.092.914-15.313,3.241C508.681,92,514.155,91.991,519.123,90.961Z" transform="translate(-489.55 -86.365)" fill="#ff922b"/>
              </g>
              <rect id="Rectangle_404154" data-name="Rectangle 404154" width="17.941" height="15.422" transform="translate(3.018 1.582)" fill="#fdfdfd"/>
              <path id="Path_882291" data-name="Path 882291" d="M490.133,95.8V84.062H480.116V99.484h16.166V95.8Z" transform="translate(-475.322 -82.481)" fill="#e9e9e9"/>
              <rect id="Rectangle_404155" data-name="Rectangle 404155" width="13.256" height="18.585" fill="#065564"/>
              <rect id="Rectangle_404156" data-name="Rectangle 404156" width="13.256" height="4.216" transform="translate(0 14.369)" fill="#11466b"/>
              <path id="Path_882292" data-name="Path 882292" d="M493.718,87.521a1.462,1.462,0,1,1-1.459-1.366A1.416,1.416,0,0,1,493.718,87.521Z" transform="translate(-474.594 -82.481)" fill="#fff"/>
            </g>
          </g>
          <g id="Group_1107736" data-name="Group 1107736" transform="translate(18.486 22.516)">
            <path id="Path_882293" data-name="Path 882293" d="M508.672,49.344c0-3.855-15.738-7.677-15.738,4.269,0,9.6,12.972,15.68,15.738,17.633Z" transform="translate(-492.934 -45.552)" fill="#d2356e"/>
            <path id="Path_882294" data-name="Path 882294" d="M507.667,49.344c0-3.855,15.737-7.677,15.737,4.269,0,9.6-12.972,15.68-15.737,17.633Z" transform="translate(-491.929 -45.552)" fill="#a01f4e"/>
            <path id="Path_882295" data-name="Path 882295" d="M494.3,54.737s-.737-4.48,3-6.831a6.9,6.9,0,0,1,7.239,0S496.618,45.788,494.3,54.737Z" transform="translate(-492.845 -45.552)" fill="#faceb4"/>
            <path id="Path_882296" data-name="Path 882296" d="M508.141,70.065s8.017-4.606,10.986-8.379,3.351-6.274,3.309-6.949C522.181,56.268,518.958,63.195,508.141,70.065Z" transform="translate(-491.897 -45.552)" fill="#a01600"/>
          </g>
          <path id="Path_882297" data-name="Path 882297" d="M532.914,72.377h-1.737a.408.408,0,0,0-.406.309L530.7,73l-.253-.723a.414.414,0,0,0-.388-.268.422.422,0,0,0-.4.256l-.424,1.089-.439-1.965a.408.408,0,0,0-.391-.308.413.413,0,0,0-.413.279l-1.93,6.208L524.1,68.693a.409.409,0,0,0-.378-.309.418.418,0,0,0-.42.258l-2.032,5.376-.6-1.4a.414.414,0,0,0-.385-.243h-3.134c-.01,0-.019.005-.029.005s-.018-.005-.029-.005h-1.737a.409.409,0,0,0-.406.309l-.07.318-.252-.723a.415.415,0,0,0-.388-.268.421.421,0,0,0-.4.256l-.424,1.089-.44-1.965a.406.406,0,0,0-.39-.308.415.415,0,0,0-.414.279l-1.93,6.208-1.967-8.879a.407.407,0,0,0-.378-.309.416.416,0,0,0-.419.258l-2.032,5.376-.6-1.4a.417.417,0,0,0-.386-.243h-3.133c-.011,0-.018.005-.029.005s-.019-.005-.029-.005h-1.737a.409.409,0,0,0-.406.309l-.07.318-.252-.723a.424.424,0,0,0-.784-.012l-.425,1.089-.439-1.965a.406.406,0,0,0-.39-.308.415.415,0,0,0-.414.279l-1.93,6.208-1.967-8.879a.408.408,0,0,0-.378-.309.416.416,0,0,0-.419.258l-2.033,5.376-.6-1.4a.417.417,0,0,0-.386-.243H485.5a.389.389,0,1,0,0,.777h2.854l.91,2.107a.407.407,0,0,0,.393.242.412.412,0,0,0,.382-.258l1.9-5.031,2,9.045a.406.406,0,0,0,.39.309h.016a.413.413,0,0,0,.4-.28l1.933-6.215.4,1.776a.41.41,0,0,0,.376.308.42.42,0,0,0,.42-.255l.512-1.312.363,1.041a.416.416,0,0,0,.419.267.408.408,0,0,0,.382-.309l.317-1.436h1.4c.01,0,.018,0,.029-.006s.018.006.029.006h2.853l.91,2.107a.426.426,0,0,0,.776-.016l1.9-5.031,2,9.045a.408.408,0,0,0,.39.309h.017a.412.412,0,0,0,.4-.28l1.933-6.215.4,1.776a.408.408,0,0,0,.376.308.418.418,0,0,0,.419-.255l.512-1.312.364,1.041a.416.416,0,0,0,.418.267.406.406,0,0,0,.382-.309l.318-1.436h1.4a.24.24,0,0,0,.029-.006c.01,0,.019.006.029.006H520l.909,2.107a.427.427,0,0,0,.777-.016l1.9-5.031,2,9.045a.409.409,0,0,0,.391.309H526a.414.414,0,0,0,.4-.28l1.932-6.215.4,1.776a.408.408,0,0,0,.376.308.42.42,0,0,0,.42-.255l.511-1.312.364,1.041a.416.416,0,0,0,.419.267.406.406,0,0,0,.381-.309l.318-1.436h1.4a.389.389,0,1,0,0-.777Z" transform="translate(-474.983 -23.036)" fill="#fff"/>
        </g>
      </g>
    </g>
  </g>
</svg>
