<svg xmlns="http://www.w3.org/2000/svg" xmlns:xlink="http://www.w3.org/1999/xlink" width="98.579" height="98.578" viewBox="0 0 98.579 98.578">
  <defs>
    <clipPath id="clip-path">
      <rect id="Rectangle_401223" data-name="Rectangle 401223" width="98.579" height="98.578" transform="translate(0)" fill="#bfa9fe"/>
    </clipPath>
    <clipPath id="clip-path-2">
      <rect id="Rectangle_401223-2" data-name="Rectangle 401223" width="88.117" height="88.116" fill="#d7c9fe"/>
    </clipPath>
  </defs>
  <g id="Group_1107707" data-name="Group 1107707" transform="translate(-753.296 -1615.098)">
    <g id="Group_1102150" data-name="Group 1102150" transform="translate(-168.037 1204.092)">
      <g id="Group_1099654" data-name="Group 1099654" transform="translate(921.333 411.006)">
        <g id="Group_1099652" data-name="Group 1099652" transform="translate(0 0)" clip-path="url(#clip-path)">
          <path id="Path_873521" data-name="Path 873521" d="M98.579,76.737a21.9,21.9,0,0,1-21.84,21.84H21.84A21.9,21.9,0,0,1,0,76.737V21.84A21.9,21.9,0,0,1,21.84,0h54.9a21.9,21.9,0,0,1,21.84,21.841Z" transform="translate(0)" fill="#bfa9fe"/>
        </g>
      </g>
      <g id="Group_1099659" data-name="Group 1099659" transform="translate(926.103 416.728)">
        <g id="Group_1099652-2" data-name="Group 1099652" transform="translate(0 0)" clip-path="url(#clip-path-2)">
          <path id="Path_873521-2" data-name="Path 873521" d="M88.117,68.594A19.58,19.58,0,0,1,68.595,88.116H19.523A19.58,19.58,0,0,1,0,68.594V19.522A19.58,19.58,0,0,1,19.523,0H68.595A19.58,19.58,0,0,1,88.117,19.523Z" fill="#d7c9fe"/>
        </g>
      </g>
    </g>
    <g id="Group_1102151" data-name="Group 1102151" transform="translate(769.238 1628.371)">
      <rect id="Rectangle_401104" data-name="Rectangle 401104" width="68" height="69" transform="translate(-0.238 0.627)" fill="none"/>
      <g id="Group_1107715" data-name="Group 1107715" transform="translate(167.863 -127.913)">
        <g id="Group_1107713" data-name="Group 1107713">
          <path id="Path_882233" data-name="Path 882233" d="M-103.993,178.664v-1.6a2.88,2.88,0,0,0-1.309-2.216l-3.553-2.1-4.026-8.222a2.648,2.648,0,0,0-2.2-1.311h-12.837a.752.752,0,0,0-.779.719v-1.455a1.5,1.5,0,0,0-1.557-1.438H-158a1.5,1.5,0,0,0-1.555,1.438v23.881A1.5,1.5,0,0,0-158,187.8h-.064v4.179a1.5,1.5,0,0,0,1.554,1.439h5.127a5.4,5.4,0,0,0-.123,1.143,6.005,6.005,0,0,0,6.225,5.757,6.005,6.005,0,0,0,6.224-5.757,5.337,5.337,0,0,0-.124-1.143h16.821a5.337,5.337,0,0,0-.124,1.143,6.007,6.007,0,0,0,6.226,5.757,6.005,6.005,0,0,0,6.224-5.757,5.337,5.337,0,0,0-.124-1.143h4.612a1.5,1.5,0,0,0,1.555-1.439v-6.8a6.186,6.186,0,0,0,1.057-3.256A6.187,6.187,0,0,0-103.993,178.664Zm-26.26,9.134a1.5,1.5,0,0,0,1.557-1.44v1.44Z" fill="gray" opacity="0.7" style="mix-blend-mode: multiply;isolation: isolate"/>
          <g id="Group_1107712" data-name="Group 1107712">
            <path id="Path_882234" data-name="Path 882234" d="M-107.334,191.765H-158.3a1.5,1.5,0,0,1-1.555-1.439v-4.18h54.073v4.18A1.5,1.5,0,0,1-107.334,191.765Z" fill="#767a82"/>
            <path id="Path_882235" data-name="Path 882235" d="M-140.845,192.907a6.005,6.005,0,0,1-6.224,5.757,6.005,6.005,0,0,1-6.225-5.757,6,6,0,0,1,6.225-5.756A6.005,6.005,0,0,1-140.845,192.907Z" fill="#54575d"/>
            <path id="Path_882236" data-name="Path 882236" d="M-143.569,192.907a3.377,3.377,0,0,1-3.5,3.238,3.376,3.376,0,0,1-3.5-3.238,3.377,3.377,0,0,1,3.5-3.238A3.378,3.378,0,0,1-143.569,192.907Z" fill="#bfa9fe"/>
            <path id="Path_882237" data-name="Path 882237" d="M-111.822,192.907a6.005,6.005,0,0,1-6.223,5.757,6.007,6.007,0,0,1-6.227-5.757,6.007,6.007,0,0,1,6.227-5.756A6,6,0,0,1-111.822,192.907Z" fill="#54575d"/>
            <path id="Path_882238" data-name="Path 882238" d="M-114.545,192.907a3.377,3.377,0,0,1-3.5,3.238,3.378,3.378,0,0,1-3.5-3.238,3.38,3.38,0,0,1,3.5-3.238A3.379,3.379,0,0,1-114.545,192.907Z" fill="#bfa9fe"/>
            <path id="Path_882239" data-name="Path 882239" d="M-129.7,161.561a.751.751,0,0,0-.778.72v23.865h24.7V175.413a2.88,2.88,0,0,0-1.308-2.216l-3.554-2.1-4.026-8.222a2.648,2.648,0,0,0-2.2-1.311Z" fill="#4b0d6b"/>
            <path id="Path_882240" data-name="Path 882240" d="M-117.315,164.44H-127.37v8.62H-113.1Z" fill="#7ad3ff"/>
            <path id="Path_882241" data-name="Path 882241" d="M-113.1,184.413a.474.474,0,0,1-.491-.454v-8.4a.474.474,0,0,1,.491-.454.474.474,0,0,1,.491.454v8.4A.474.474,0,0,1-113.1,184.413Z" fill="#bfa9fe"/>
            <path id="Path_882242" data-name="Path 882242" d="M-104.722,180.269a6.191,6.191,0,0,1-1.057,3.257,6.206,6.206,0,0,1-1.053-3.257,6.2,6.2,0,0,1,1.053-3.257A6.187,6.187,0,0,1-104.722,180.269Z" fill="#7ad3ff"/>
            <path id="Path_882243" data-name="Path 882243" d="M-121.59,176.024a.762.762,0,0,1-.79.731h-2.005a.762.762,0,0,1-.79-.731h0a.762.762,0,0,1,.79-.73h2.005a.761.761,0,0,1,.79.73Z" fill="#bfa9fe"/>
            <path id="Path_882244" data-name="Path 882244" d="M-127.37,184.413a.474.474,0,0,1-.491-.454v-8.4a.474.474,0,0,1,.491-.454.474.474,0,0,1,.491.454v8.4A.474.474,0,0,1-127.37,184.413Z" fill="#bfa9fe"/>
            <path id="Path_882245" data-name="Path 882245" d="M-161.343,160.826a1.5,1.5,0,0,1,1.555-1.439h27.75a1.5,1.5,0,0,1,1.557,1.439v23.88a1.5,1.5,0,0,1-1.557,1.44h-27.75a1.5,1.5,0,0,1-1.555-1.44Z" fill="#ffc9dd"/>
          </g>
        </g>
        <path id="Path_882246" data-name="Path 882246" d="M-108.981,127.54a7.188,7.188,0,0,0-7.188,7.189c0,3.97,7.188,11.914,7.188,11.914s7.189-7.944,7.189-11.914A7.188,7.188,0,0,0-108.981,127.54Zm0,10.116a3.348,3.348,0,0,1-3.347-3.347,3.347,3.347,0,0,1,3.347-3.347,3.346,3.346,0,0,1,3.347,3.347A3.347,3.347,0,0,1-108.981,137.656Z" fill="#a01f4e"/>
        <path id="Path_882247" data-name="Path 882247" d="M-161.986,137.091a4.115,4.115,0,0,0-4.115,4.115c0,2.272,4.115,6.819,4.115,6.819s4.114-4.547,4.114-6.819A4.115,4.115,0,0,0-161.986,137.091Zm0,5.79a1.915,1.915,0,0,1-1.916-1.915,1.916,1.916,0,0,1,1.916-1.916,1.915,1.915,0,0,1,1.915,1.916A1.915,1.915,0,0,1-161.986,142.881Z" fill="#a01f4e"/>
        <g id="Group_1107714" data-name="Group 1107714">
          <path id="Path_882248" data-name="Path 882248" d="M-160.82,152.6a1,1,0,0,1-.535-.156,1,1,0,0,1-.308-1.38,40.759,40.759,0,0,1,2.422-3.316,1,1,0,0,1,1.406-.155,1,1,0,0,1,.154,1.406c-1.429,1.782-2.285,3.124-2.294,3.137A1,1,0,0,1-160.82,152.6Z" fill="#fff"/>
          <path id="Path_882249" data-name="Path 882249" d="M-120.435,157.16h-.048a12.622,12.622,0,0,1-7.867-3.558,1,1,0,0,1-.074-1.412,1,1,0,0,1,1.412-.074,10.684,10.684,0,0,0,6.623,3.046,1,1,0,0,1,.952,1.046A1,1,0,0,1-120.435,157.16Zm-12.256-9.66a1,1,0,0,1-.858-.484l-.117-.2a17.745,17.745,0,0,0-4.849-5.62,1,1,0,0,1-.247-1.392,1,1,0,0,1,1.392-.247,19.685,19.685,0,0,1,5.428,6.245l.106.178a1,1,0,0,1-.34,1.373A1,1,0,0,1-132.691,147.5Zm-20.1-3.938a1,1,0,0,1-.777-.37,1,1,0,0,1,.146-1.407,18.568,18.568,0,0,1,7.545-3.955,1,1,0,0,1,1.191.763,1,1,0,0,1-.763,1.191,16.623,16.623,0,0,0-6.713,3.554A1,1,0,0,1-152.794,143.562Z" fill="#fff"/>
          <path id="Path_882250" data-name="Path 882250" d="M-112.853,154.563a1,1,0,0,1-.805-.406,1,1,0,0,1,.21-1.4,15.682,15.682,0,0,0,2.667-2.484,1.083,1.083,0,0,1,.08-.1,1.008,1.008,0,0,1,1.021-.3,1,1,0,0,1,.712.783,1.253,1.253,0,0,1-.272.827l.028.025a1.023,1.023,0,0,1-.123.115,16.814,16.814,0,0,1-2.925,2.743A.988.988,0,0,1-112.853,154.563Z" fill="#fff"/>
        </g>
      </g>
    </g>
  </g>
</svg>
