<svg xmlns="http://www.w3.org/2000/svg" xmlns:xlink="http://www.w3.org/1999/xlink" width="68.541" height="68.541" viewBox="0 0 68.541 68.541">
  <defs>
    <clipPath id="clip-path">
      <rect id="Rectangle_404010" data-name="Rectangle 404010" width="68.541" height="68.541" transform="translate(0 0)" fill="#fff" stroke="#707070" stroke-width="1"/>
    </clipPath>
  </defs>
  <g id="Group_1110776" data-name="Group 1110776" transform="translate(-8.207 -8)">
    <g id="Mask_Group_1098861" data-name="Mask Group 1098861" transform="translate(8.207 8)" clip-path="url(#clip-path)">
      <g id="Group_1109454" data-name="Group 1109454" transform="translate(4 4)">
        <path id="Path_883312" data-name="Path 883312" d="M1327.185,142.438c.023-.4.058-.746.058-1.089q0-12.037,0-24.074c0-1.95-.4-2.349-2.375-2.349q-20.416,0-40.831,0c-1.975,0-2.376.4-2.376,2.346q0,23.65,0,47.3c0,1.89.413,2.3,2.318,2.3q11.772,0,23.544,0c.318,0,.637-.009.954.006,1.1.052,1.763.631,1.789,1.548a1.6,1.6,0,0,1-1.8,1.636c-3.535.023-7.07.011-10.605.011q-7,0-14,0c-3.484-.007-5.395-1.9-5.4-5.361q-.01-23.81,0-47.619c0-3.465,1.911-5.363,5.391-5.365q20.575-.009,41.149,0c3.55,0,5.437,1.883,5.44,5.423q.011,12.674-.016,25.347a1.7,1.7,0,0,0,1.007,1.727,15.007,15.007,0,1,1-5.254-1.862C1326.487,142.406,1326.8,142.409,1327.185,142.438Zm8.539,14.737a11.817,11.817,0,1,0-11.781,11.812A11.829,11.829,0,0,0,1335.724,157.174Z" transform="translate(-1278.458 -111.721)" fill="#fff"/>
        <path id="Path_883313" data-name="Path 883313" d="M1316.916,160.9q1.905-2.179,3.811-4.358c1.364-1.554,2.02-1.585,3.455-.141,1.84,1.851,3.67,3.713,5.577,5.644l6.59-8.051c.515-.629,1.027-1.261,1.544-1.887,1.058-1.281,1.882-1.323,3.08-.127s2.37,2.407,3.621,3.679c1.029-1.284,1.951-2.44,2.88-3.59.814-1.008,1.766-1.215,2.54-.561.752.634.749,1.533-.034,2.527-1.247,1.582-2.495,3.162-3.765,4.725a1.653,1.653,0,0,1-2.79.164c-1.255-1.238-2.476-2.512-3.806-3.867-1.643,2-3.205,3.892-4.762,5.791q-1.647,2.008-3.284,4.025c-1.153,1.415-1.948,1.472-3.218.2-1.9-1.9-3.78-3.814-5.754-5.807-1.4,1.6-2.646,3.226-4.109,4.628a5.428,5.428,0,0,0-1.843,4.985,18.549,18.549,0,0,1,.016,2.389h1.309q7.635,0,15.269,0a5.925,5.925,0,0,1,1.266.075,1.564,1.564,0,0,1,0,3.047,5.219,5.219,0,0,1-1.159.074q-8.748.006-17.5,0c-1.94,0-2.385-.44-2.385-2.362q0-11.452,0-22.9a6.151,6.151,0,0,1,.028-.847,1.49,1.49,0,0,1,1.546-1.44,1.469,1.469,0,0,1,1.584,1.39,6.809,6.809,0,0,1,.04,1.058q0,5.143,0,10.286V160.8Z" transform="translate(-1306.039 -139.448)" fill="#fff"/>
        <path id="Path_883314" data-name="Path 883314" d="M1323.762,296.7q3.814,0,7.627,0a5.253,5.253,0,0,1,1.055.061,1.567,1.567,0,0,1-.006,3.073,5.673,5.673,0,0,1-1.16.062q-7.627.005-15.255,0c-.282,0-.567.01-.847-.017a1.577,1.577,0,0,1-1.58-1.64,1.549,1.549,0,0,1,1.586-1.521c.88-.05,1.765-.022,2.648-.023Q1320.8,296.7,1323.762,296.7Z" transform="translate(-1306.142 -257.462)" fill="#fff"/>
        <path id="Path_883315" data-name="Path 883315" d="M1319.824,329.908c-1.447,0-2.894.017-4.341-.005-1.176-.018-1.862-.607-1.884-1.555-.024-.992.682-1.624,1.913-1.631q4.447-.026,8.893,0c1.175.007,1.86.605,1.882,1.553.023.994-.679,1.616-1.911,1.633C1322.859,329.924,1321.341,329.908,1319.824,329.908Z" transform="translate(-1306.145 -281.103)" fill="#fff"/>
        <path id="Path_883316" data-name="Path 883316" d="M1488.287,286.545c-.834,2.895.657,4.736,2.8,6.343a25.93,25.93,0,0,1,2.5,2.292,1.557,1.557,0,0,1,.179,2.34,1.573,1.573,0,0,1-2.358-.041c-1.886-1.706-3.774-3.412-5.595-5.187a2.5,2.5,0,0,1-.674-1.572c-.072-2.4-.042-4.8-.027-7.207.007-1.2.663-1.947,1.639-1.928.948.018,1.527.715,1.54,1.886C1488.3,284.5,1488.287,285.521,1488.287,286.545Z" transform="translate(-1441.258 -245.555)" fill="#fff"/>
      </g>
    </g>
  </g>
</svg>
