<svg xmlns="http://www.w3.org/2000/svg" width="62.504" height="62.504" viewBox="0 0 62.504 62.504">
  <g id="Group_1108024" data-name="Group 1108024" transform="translate(-279.528 -1198.868)">
    <g id="Group_1072053" data-name="Group 1072053" transform="translate(279.528 1198.868)">
      <circle id="Ellipse_4742" data-name="Ellipse 4742" cx="31.252" cy="31.252" r="31.252" transform="translate(0)" fill="#ffb12d"/>
    </g>
    <g id="Group_1108001" data-name="Group 1108001" transform="translate(-200.048 995.824)">
      <path id="Path_882712" data-name="Path 882712" d="M552.291,225.37c1.344,0,2.616,0,3.888,0,1.519,0,1.427.13,1.423-1.4,0-1.108,0-2.216,0-3.324v-.571c.227-.011.39-.027.553-.027q5.238,0,10.476,0c.736,0,.857.118.857.835q0,5.465,0,10.929v.565h-.633c-2.6,0-5.2.006-7.806,0a2.532,2.532,0,0,0-1.425.393c-.991.629-2.007,1.218-3.008,1.832a1.452,1.452,0,0,0-.028,2.609c1.066.667,2.137,1.331,3.236,1.941a2.6,2.6,0,0,0,1.195.3c2.6.026,5.2.013,7.806.013h.654a15.013,15.013,0,0,1-.022,1.636c-.019.166-.273.342-.457.442a1.131,1.131,0,0,1-.5.029h-15.21c-.923,0-1-.079-1-1q0-7.278,0-14.555Zm8.986,2.407h4.33a2.951,2.951,0,0,0,.85-.025c.192-.06.451-.3.452-.463s-.267-.345-.446-.479c-.076-.057-.228-.016-.345-.016q-4.808,0-9.617,0c-.151,0-.337-.038-.443.034-.159.108-.359.3-.36.456s.2.35.354.46c.1.073.292.033.443.033Q558.885,227.778,561.277,227.776Zm.078,2.11h-2.515c-.855,0-1.711.005-2.566,0-.331,0-.58.11-.6.461-.018.4.26.5.6.5.134,0,.268,0,.4,0h9.659c.346,0,.612-.122.594-.513-.016-.362-.277-.449-.6-.448C564.675,229.89,563.015,229.887,561.354,229.887Zm2.163-5.206c.922,0,1.844,0,2.765,0,.324,0,.577-.078.589-.453.013-.4-.249-.506-.594-.506q-2.74,0-5.48,0c-.339,0-.617.1-.62.491,0,.41.29.47.625.468C561.708,224.677,562.613,224.681,563.518,224.681Z" transform="translate(-50.999)" fill="#34054d"/>
      <path id="Path_882713" data-name="Path 882713" d="M507.4,450.253h5.848c.026-.056.052-.085.052-.114-.01-1.234.116-1.169,1.24-1.168q4.884.006,9.768,0c.722,0,.813.091.814.81s.011,1.444,0,2.165a1.394,1.394,0,0,1-1.464,1.454q-13.292.006-26.585,0a1.413,1.413,0,0,1-1.486-1.489c-.012-.755,0-1.51-.006-2.266-.006-.463.2-.677.667-.676q5.236.005,10.473,0c.52,0,.672.17.683.705C507.4,449.861,507.4,450.041,507.4,450.253Z" transform="translate(0 -205.861)" fill="#34054d"/>
      <path id="Path_882714" data-name="Path 882714" d="M657.894,381.985a14.42,14.42,0,0,1-.022,1.633c-.02.173-.292.326-.466.466-.051.041-.163.009-.247.009H641.322v-2.108Z" transform="translate(-131.06 -145.624)" fill="#34054d"/>
      <path id="Path_882715" data-name="Path 882715" d="M641.232,353.052V351c.188-.011.35-.028.513-.028q7.624,0,15.248,0c.738,0,.824.091.825.85,0,.4,0,.8,0,1.229Z" transform="translate(-130.979 -117.736)" fill="#34054d"/>
      <path id="Path_882716" data-name="Path 882716" d="M509.938,282.987v1c-.628,0-1.243,0-1.859,0-.695,0-.814.12-.815.823q0,6.625,0,13.249v.638h-.942c-.009-.2-.024-.375-.024-.554q0-6.65,0-13.3c0-1.335.523-1.853,1.863-1.854Z" transform="translate(-9.639 -56.601)" fill="#34054d"/>
      <path id="Path_882717" data-name="Path 882717" d="M600.088,353.12v4.765l-1.545-.932c-.545-.329-1.1-.646-1.631-.993-.379-.247-.421-.6-.084-.813C597.88,354.47,598.951,353.823,600.088,353.12Z" transform="translate(-90.844 -119.668)" fill="#34054d"/>
      <path id="Path_882718" data-name="Path 882718" d="M732.357,284.1v-.967c1.136,0,2.255-.048,3.366.018a1.28,1.28,0,0,1,1.221,1.209c.043,1.5.014,3.009.014,4.547H736v-2.263q0-.83,0-1.659c0-.785-.1-.884-.911-.885h-2.734Z" transform="translate(-212.923 -56.718)" fill="#34054d"/>
      <path id="Path_882719" data-name="Path 882719" d="M557.174,228.3,561,224.433V228.3Z" transform="translate(-55.391 -3.947)" fill="#34054d"/>
      <path id="Path_882720" data-name="Path 882720" d="M769.868,415.751h-.9v-2.665h.9Z" transform="translate(-245.841 -173.592)" fill="#34054d"/>
    </g>
  </g>
</svg>
