<svg xmlns="http://www.w3.org/2000/svg" width="62.504" height="62.504" viewBox="0 0 62.504 62.504">
  <g id="Group_1108018" data-name="Group 1108018" transform="translate(-279.528 -1198.868)">
    <g id="Group_1072053" data-name="Group 1072053" transform="translate(279.528 1198.868)">
      <circle id="Ellipse_4742" data-name="Ellipse 4742" cx="31.252" cy="31.252" r="31.252" transform="translate(0)" fill="#ffb12d"/>
    </g>
    <g id="Group_1108002" data-name="Group 1108002" transform="translate(-689.819 1078.646)">
      <path id="Path_882721" data-name="Path 882721" d="M995.452,356.5a5.13,5.13,0,0,0,2.076,3.718,4.925,4.925,0,0,0,2.958.979c2.518.021,4.12-1.455,5.071-4.634a8.523,8.523,0,0,1,10.067,8.223c.01.376.015.753,0,1.128a1.048,1.048,0,0,1-1.154,1.123c-1.988.007-3.977,0-5.965,0H986.795c-1.119,0-1.413-.318-1.443-1.436a8.582,8.582,0,0,1,2.752-6.9,8.08,8.08,0,0,1,5.557-2.2C994.233,356.494,994.806,356.5,995.452,356.5Z" transform="translate(0 -198.349)" fill="#34054d"/>
      <path id="Path_882722" data-name="Path 882722" d="M1063.6,218.218c.89,0,1.7-.033,2.5.006a10.55,10.55,0,0,0,7.61-2.365c1.054.843,2.091,1.667,3.118,2.5a.523.523,0,0,1,.192.353c-.035,1.518-.07,3.037-.151,4.553a8.047,8.047,0,0,1-.345,1.386,14.938,14.938,0,0,0,2.442-.189c.848-.2,1.175-1,1.055-2.15l-.958-.058v-4.081a11.566,11.566,0,0,1,1.679.194,1.84,1.84,0,0,1,1.3,1.73c.02,1.056.033,2.114-.007,3.169a3.617,3.617,0,0,1-3.293,3.329c-1.157.045-2.318.009-3.51.009l1.256-1.907a2.017,2.017,0,0,0-.332-.075c-1.7,0-3.4-.013-5.1,0a.988.988,0,0,0-1.058,1.13.968.968,0,0,0,1.056.853c1.164.007,2.328,0,3.492,0h.57c-.289.268-.461.462-.665.611a6.491,6.491,0,0,1-6.885.818,6.388,6.388,0,0,1-3.947-5.748C1063.529,220.959,1063.6,219.615,1063.6,218.218Z" transform="translate(-69.815 -72.861)" fill="#34054d"/>
      <path id="Path_882723" data-name="Path 882723" d="M1044.965,143.343a8.49,8.49,0,0,1,4.192-7.757,8.284,8.284,0,0,1,9.284.119,8.442,8.442,0,0,1,3.99,7.6c-.9.047-1.717.174-2.435-.544a23.568,23.568,0,0,0-2.123-1.727,1.058,1.058,0,0,0-1.656.05,8.084,8.084,0,0,1-5.8,2.257C1048.632,143.328,1046.844,143.343,1044.965,143.343Z" transform="translate(-53.208)" fill="#34054d"/>
      <path id="Path_882724" data-name="Path 882724" d="M1104.229,348.668a2.988,2.988,0,0,1-1.451,3.119,2.84,2.84,0,0,1-3.232-.1,2.952,2.952,0,0,1-1.283-3.012A8.8,8.8,0,0,0,1104.229,348.668Z" transform="translate(-100.749 -191.392)" fill="#34054d"/>
      <path id="Path_882725" data-name="Path 882725" d="M1028.23,242.083a1.964,1.964,0,0,1-2-1.949,2,2,0,0,1,2-2.028Z" transform="translate(-36.486 -92.716)" fill="#34054d"/>
    </g>
  </g>
</svg>
