<svg xmlns="http://www.w3.org/2000/svg" xmlns:xlink="http://www.w3.org/1999/xlink" width="69.19" height="69.19" viewBox="0 0 69.19 69.19">
  <defs>
    <clipPath id="clip-path">
      <rect id="Rectangle_404012" data-name="Rectangle 404012" width="69.19" height="69.19" transform="translate(0 0)" fill="#fff" stroke="#707070" stroke-width="1"/>
    </clipPath>
  </defs>
  <g id="Mask_Group_1098862" data-name="Mask Group 1098862" clip-path="url(#clip-path)">
    <g id="Group_1109456" data-name="Group 1109456" transform="translate(9 1)">
      <path id="Path_883321" data-name="Path 883321" d="M2420.517,207.686c0,1.831.011,3.492,0,5.154-.022,2.541-1.312,3.8-3.875,3.812-1.25,0-2.5.021-3.749-.009a3.23,3.23,0,0,1-3.148-2.271,1.6,1.6,0,0,1,.419-1.387c.571-.4,1.1-.052,1.351.634a1.616,1.616,0,0,0,1.7,1.1c1.215-.005,2.43.021,3.645-.008,1.185-.029,1.717-.566,1.722-1.739q.02-5.1,0-10.206c0-1.187-.53-1.707-1.719-1.726q-1.822-.029-3.645,0c-1.231.018-1.736.543-1.742,1.81q-.017,3.281,0,6.561c0,.711-.075,1.408-.979,1.407-.924,0-.953-.733-.953-1.423v-1.656c-.443-.021-.808-.054-1.174-.054-4.062,0-8.124-.054-12.185.012a6.161,6.161,0,0,1-6.426-6.361c.1-11.247.058-22.5.02-33.743a7.755,7.755,0,0,1,2.45-5.849q4.716-4.635,9.353-9.351a7.8,7.8,0,0,1,5.872-2.416c8.818.029,17.636.075,26.453-.019a6.22,6.22,0,0,1,6.395,6.388q-.135,22.495,0,44.991a6.162,6.162,0,0,1-6.425,6.36c-4.026-.066-8.053-.015-12.081-.015Zm10.139-21.289c1.143,0,2.282,0,3.421,0,.674,0,1.206.223,1.2.979s-.537.969-1.213.963c-1.146-.009-2.292.035-3.436-.015a1.4,1.4,0,0,0-1.477.817,15.63,15.63,0,0,1-6.792,6.4c-1.171.581-2.435.975-3.915,1.555.19.81.131,1.947.67,2.534a4.395,4.395,0,0,1,1.411,3.2c-.02.921,0,1.844,0,2.864h1.294q5.988,0,11.975,0c3.056,0,4.57-1.541,4.57-4.637q0-22.232,0-44.464c0-3.1-1.565-4.665-4.679-4.668q-8.383-.007-16.765,0c-2.846,0-5.693-.015-8.539.006a2.645,2.645,0,0,0-2.958,2.956c-.012,1.562.028,3.125-.01,4.686a5.962,5.962,0,0,1-6.1,6.039c-1.458.017-2.916,0-4.374,0-2.256,0-3.227.972-3.228,3.233q0,16.192,0,32.385c0,2.861,1.582,4.454,4.433,4.46q6.144.012,12.288,0c.336,0,.672-.03,1.126-.052a19.591,19.591,0,0,1,.037-3.08,4.108,4.108,0,0,1,.968-2.394,2.844,2.844,0,0,0,.916-2.555.8.8,0,0,0-.722-.924,16.5,16.5,0,0,1-6.237-3.212,2.328,2.328,0,0,0-1.3-.471c-1.908-.051-3.818-.02-5.727-.023a6.7,6.7,0,0,1-1.759-.057c-.37-.1-.638-.571-.952-.875a5.276,5.276,0,0,1,.993-.965c.262-.15.678-.036,1.025-.036h5.3c-.477-.754-.891-1.309-1.2-1.918a1.268,1.268,0,0,0-1.376-.811c-1.141.067-2.29.008-3.435.021-.7.008-1.3-.16-1.3-.981s.625-.97,1.314-.965c1.1.009,2.206,0,3.417,0a7.645,7.645,0,0,1-.288-1.209c-.074-1.2-.634-1.716-1.86-1.495a6.409,6.409,0,0,1-1.351.007c-.641-.023-1.217-.207-1.233-.97-.017-.832.574-1.016,1.272-1.015.824,0,1.648,0,2.521,0l.154-2.728c-1.011,0-1.909-.006-2.807,0-.638.005-1.125-.217-1.141-.916-.017-.753.486-1.009,1.167-1.009h3.123l.86-2.692c-1.3,0-2.476-.005-3.653,0-.737,0-1.5-.049-1.488-1.011.009-.988.809-.959,1.523-.959,1.319,0,2.638.012,3.957-.01.295,0,.708-.026.861-.211.623-.747,1.166-1.56,1.807-2.443-.865-.087-1.76-.029-1.661-1.112.1-1.056.972-.881,1.683-.906a5.468,5.468,0,0,1,.833,0,4.238,4.238,0,0,0,2.71-.758c5.834-3.371,11.656-3.26,17.442.194a3.866,3.866,0,0,0,1.817.534c2.706.057,5.414.026,8.122.025.715,0,1.389.114,1.384,1.014,0,.849-.66.95-1.33.951q-1.77,0-3.541,0h-3.349a20.6,20.6,0,0,1,1.43,1.937,1.473,1.473,0,0,0,1.529.791c1.317-.045,2.638-.009,3.957-.013.687,0,1.31.138,1.3.975-.005.816-.607,1-1.3.994-1.245,0-2.491,0-3.852,0l.873,2.692c1.06,0,2.1,0,3.134,0,.686,0,1.178.273,1.149,1.025-.027.7-.524.905-1.156.9-.921-.009-1.842,0-2.807,0,.066.984.121,1.8.184,2.738a21.193,21.193,0,0,1,2.833.042,1.3,1.3,0,0,1,.893.879c.015.326-.458.731-.8.995-.18.139-.536.06-.813.062-2.486.02-2.486.019-3.012,2.4A1.5,1.5,0,0,0,2430.656,186.4Zm-15.621,8.93a14.422,14.422,0,1,0-14.4-14.435A14.4,14.4,0,0,0,2415.035,195.328Zm-11.641-41.513-9.9,9.857c1.869,0,3.906.059,5.939-.015a3.905,3.905,0,0,0,3.959-4.159C2403.4,157.493,2403.394,155.489,2403.394,153.814Zm13.187,43.526h-3.1v1.709h3.1Z" transform="translate(-2389.756 -149.961)" fill="#fff"/>
      <path id="Path_883322" data-name="Path 883322" d="M2465.928,265.424a11.839,11.839,0,0,1-1.214-23.621,11.432,11.432,0,0,1,10.513,4.481,1.71,1.71,0,0,1,.253,1.451c-.3.711-1.087.581-1.74-.229a9.615,9.615,0,0,0-5.791-3.6,9.891,9.891,0,0,0-10.507,14.759,9.815,9.815,0,0,0,12.119,4.109,9.955,9.955,0,0,0,6.043-11.31,1.894,1.894,0,0,1,.389-1.526c.564-.533,1.3-.012,1.5,1.06a11.666,11.666,0,0,1-4.5,12.065A11.286,11.286,0,0,1,2465.928,265.424Z" transform="translate(-2440.641 -222.621)" fill="#fff"/>
      <path id="Path_883323" data-name="Path 883323" d="M2481.581,268.87c.894-1.571,1.686-3.028,2.542-4.447a3.183,3.183,0,0,1,5.916,1.965,4.185,4.185,0,0,1-.518,1.45q-2.271,4.084-4.6,8.138c-1.384,2.414-3.956,2.6-5.679.412q-1.706-2.161-3.376-4.352a3.208,3.208,0,1,1,5.064-3.917C2481.105,268.329,2481.288,268.53,2481.581,268.87Zm-3.089-.18c-1.221.028-1.822,1.061-1.238,1.875,1.21,1.686,2.493,3.322,3.816,4.921a1.16,1.16,0,0,0,2-.216c.307-.459.553-.958.826-1.439,1.311-2.318,2.635-4.629,3.926-6.957.538-.97.2-1.887-.708-2.05-.737-.132-1.153.3-1.481.885-.961,1.721-1.92,3.443-2.9,5.15-.6,1.035-1.271,1.078-2.02.159-.481-.59-.912-1.223-1.424-1.784A3.36,3.36,0,0,0,2478.491,268.689Z" transform="translate(-2457.3 -239.311)" fill="#fff"/>
    </g>
  </g>
</svg>
