<svg xmlns="http://www.w3.org/2000/svg" xmlns:xlink="http://www.w3.org/1999/xlink" width="124.605" height="125.948" viewBox="0 0 124.605 125.948">
  <defs>
    <clipPath id="clip-path">
      <rect id="Rectangle_400938" data-name="Rectangle 400938" width="117.278" height="117.278" fill="none"/>
    </clipPath>
    <clipPath id="clip-path-2">
      <path id="Path_873460" data-name="Path 873460" d="M0,1.307A1.349,1.349,0,0,0,1.389,2.613,1.349,1.349,0,0,0,2.778,1.307,1.349,1.349,0,0,0,1.389,0,1.349,1.349,0,0,0,0,1.307" transform="translate(0)" fill="#34054d"/>
    </clipPath>
    <clipPath id="clip-path-3">
      <path id="Path_873466" data-name="Path 873466" d="M0,1.307A1.349,1.349,0,0,0,1.39,2.613,1.349,1.349,0,0,0,2.778,1.307,1.349,1.349,0,0,0,1.39,0,1.349,1.349,0,0,0,0,1.307" fill="#34054d"/>
    </clipPath>
    <clipPath id="clip-path-4">
      <path id="Path_873467" data-name="Path 873467" d="M0,1.306A1.349,1.349,0,0,0,1.389,2.612,1.349,1.349,0,0,0,2.778,1.306,1.349,1.349,0,0,0,1.389,0,1.349,1.349,0,0,0,0,1.306" transform="translate(0 0)" fill="#34054d"/>
    </clipPath>
    <clipPath id="clip-path-5">
      <path id="Path_873468" data-name="Path 873468" d="M0,1.306A1.349,1.349,0,0,0,1.39,2.612,1.349,1.349,0,0,0,2.778,1.306,1.349,1.349,0,0,0,1.39,0,1.349,1.349,0,0,0,0,1.306" transform="translate(0 0)" fill="#34054d"/>
    </clipPath>
    <clipPath id="clip-path-6">
      <path id="Path_873469" data-name="Path 873469" d="M0,1.306A1.349,1.349,0,0,0,1.389,2.612,1.349,1.349,0,0,0,2.777,1.306,1.349,1.349,0,0,0,1.389,0,1.349,1.349,0,0,0,0,1.306" transform="translate(0 0)" fill="#34054d"/>
    </clipPath>
    <clipPath id="clip-path-9">
      <path id="Path_873473" data-name="Path 873473" d="M0,1.306A1.349,1.349,0,0,0,1.39,2.612,1.348,1.348,0,0,0,2.778,1.306,1.349,1.349,0,0,0,1.39,0,1.349,1.349,0,0,0,0,1.306" transform="translate(0 0)" fill="#34054d"/>
    </clipPath>
    <clipPath id="clip-path-22">
      <rect id="Rectangle_401492" data-name="Rectangle 401492" width="63.051" height="63.052" transform="translate(-0.424 0.013)" fill="#34054d" stroke="#707070" stroke-width="1"/>
    </clipPath>
  </defs>
  <g id="Group_1102668" data-name="Group 1102668" transform="translate(23060.281 3818.28)">
    <g id="Group_1100237" data-name="Group 1100237" transform="translate(-23054.037 -3797.84)">
      <g id="Group_1099505" data-name="Group 1099505" transform="translate(1.808 8.418)">
        <g id="Group_1099504" data-name="Group 1099504" transform="translate(0)" clip-path="url(#clip-path-2)">
          <rect id="Rectangle_401140" data-name="Rectangle 401140" width="2.777" height="2.613" transform="translate(0)" fill="#34054d"/>
        </g>
      </g>
      <g id="Group_1099517" data-name="Group 1099517" transform="translate(37.056 8.418)">
        <g id="Group_1099516" data-name="Group 1099516" transform="translate(0)" clip-path="url(#clip-path-3)">
          <rect id="Rectangle_401146" data-name="Rectangle 401146" width="2.778" height="2.613" transform="translate(0 0)" fill="#34054d"/>
        </g>
      </g>
      <g id="Group_1099519" data-name="Group 1099519" transform="translate(30.194 8.418)">
        <g id="Group_1099518" data-name="Group 1099518" transform="translate(0 0)" clip-path="url(#clip-path-4)">
          <rect id="Rectangle_401147" data-name="Rectangle 401147" width="2.778" height="2.612" transform="translate(0 0)" fill="#34054d"/>
        </g>
      </g>
      <g id="Group_1099521" data-name="Group 1099521" transform="translate(23.332 8.418)">
        <g id="Group_1099520" data-name="Group 1099520" transform="translate(0 0)" clip-path="url(#clip-path-5)">
          <rect id="Rectangle_401148" data-name="Rectangle 401148" width="2.778" height="2.612" transform="translate(0 0)" fill="#34054d"/>
        </g>
      </g>
      <g id="Group_1099523" data-name="Group 1099523" transform="translate(16.47 8.418)">
        <g id="Group_1099522" data-name="Group 1099522" transform="translate(0 0)" clip-path="url(#clip-path-6)">
          <rect id="Rectangle_401149" data-name="Rectangle 401149" width="2.777" height="2.612" transform="translate(0 0)" fill="#34054d"/>
        </g>
      </g>
      <g id="Group_1099525" data-name="Group 1099525" transform="translate(34.311 0)">
        <g id="Group_1099524" data-name="Group 1099524" clip-path="url(#clip-path-4)">
          <rect id="Rectangle_401150" data-name="Rectangle 401150" width="2.778" height="2.612" transform="translate(0 0)" fill="#34054d"/>
        </g>
      </g>
      <g id="Group_1099529" data-name="Group 1099529" transform="translate(27.448 0)">
        <g id="Group_1099528" data-name="Group 1099528" transform="translate(0)" clip-path="url(#clip-path-5)">
          <rect id="Rectangle_401152" data-name="Rectangle 401152" width="2.778" height="2.612" transform="translate(0 0)" fill="#34054d"/>
        </g>
      </g>
      <g id="Group_1099531" data-name="Group 1099531" transform="translate(13.724 0)">
        <g id="Group_1099530" data-name="Group 1099530" transform="translate(0)" clip-path="url(#clip-path-9)">
          <rect id="Rectangle_401153" data-name="Rectangle 401153" width="2.777" height="2.612" transform="translate(0 0)" fill="#34054d"/>
        </g>
      </g>
      <g id="Group_1099533" data-name="Group 1099533" transform="translate(6.862 0)">
        <g id="Group_1099532" data-name="Group 1099532" clip-path="url(#clip-path-4)">
          <rect id="Rectangle_401154" data-name="Rectangle 401154" width="2.778" height="2.612" transform="translate(0 0)" fill="#34054d"/>
        </g>
      </g>
      <g id="Group_1099535" data-name="Group 1099535" transform="translate(0 0)">
        <g id="Group_1099534" data-name="Group 1099534" transform="translate(0)" clip-path="url(#clip-path-5)">
          <rect id="Rectangle_401155" data-name="Rectangle 401155" width="2.778" height="2.612" transform="translate(0 0)" fill="#34054d"/>
        </g>
      </g>
    </g>
    <g id="Group_1100238" data-name="Group 1100238" transform="translate(-22980.652 -3724.455)">
      <g id="Group_1099505-2" data-name="Group 1099505" transform="translate(1.808 8.418)">
        <g id="Group_1099504-2" data-name="Group 1099504" transform="translate(0)" clip-path="url(#clip-path-2)">
          <rect id="Rectangle_401140-2" data-name="Rectangle 401140" width="2.777" height="2.613" transform="translate(0)" fill="#34054d"/>
        </g>
      </g>
      <g id="Group_1099517-2" data-name="Group 1099517" transform="translate(37.056 8.418)">
        <g id="Group_1099516-2" data-name="Group 1099516" transform="translate(0)" clip-path="url(#clip-path-3)">
          <rect id="Rectangle_401146-2" data-name="Rectangle 401146" width="2.778" height="2.613" transform="translate(0 0)" fill="#34054d"/>
        </g>
      </g>
      <g id="Group_1099519-2" data-name="Group 1099519" transform="translate(30.194 8.418)">
        <g id="Group_1099518-2" data-name="Group 1099518" transform="translate(0 0)" clip-path="url(#clip-path-4)">
          <rect id="Rectangle_401147-2" data-name="Rectangle 401147" width="2.778" height="2.612" transform="translate(0 0)" fill="#34054d"/>
        </g>
      </g>
      <g id="Group_1099521-2" data-name="Group 1099521" transform="translate(23.332 8.418)">
        <g id="Group_1099520-2" data-name="Group 1099520" transform="translate(0 0)" clip-path="url(#clip-path-5)">
          <rect id="Rectangle_401148-2" data-name="Rectangle 401148" width="2.778" height="2.612" transform="translate(0 0)" fill="#34054d"/>
        </g>
      </g>
      <g id="Group_1099523-2" data-name="Group 1099523" transform="translate(16.47 8.418)">
        <g id="Group_1099522-2" data-name="Group 1099522" transform="translate(0 0)" clip-path="url(#clip-path-6)">
          <rect id="Rectangle_401149-2" data-name="Rectangle 401149" width="2.777" height="2.612" transform="translate(0 0)" fill="#34054d"/>
        </g>
      </g>
      <g id="Group_1099525-2" data-name="Group 1099525" transform="translate(34.311 0)">
        <g id="Group_1099524-2" data-name="Group 1099524" clip-path="url(#clip-path-4)">
          <rect id="Rectangle_401150-2" data-name="Rectangle 401150" width="2.778" height="2.612" transform="translate(0 0)" fill="#34054d"/>
        </g>
      </g>
      <g id="Group_1099529-2" data-name="Group 1099529" transform="translate(27.448 0)">
        <g id="Group_1099528-2" data-name="Group 1099528" transform="translate(0)" clip-path="url(#clip-path-5)">
          <rect id="Rectangle_401152-2" data-name="Rectangle 401152" width="2.778" height="2.612" transform="translate(0 0)" fill="#34054d"/>
        </g>
      </g>
      <g id="Group_1099531-2" data-name="Group 1099531" transform="translate(13.724 0)">
        <g id="Group_1099530-2" data-name="Group 1099530" transform="translate(0)" clip-path="url(#clip-path-9)">
          <rect id="Rectangle_401153-2" data-name="Rectangle 401153" width="2.777" height="2.612" transform="translate(0 0)" fill="#34054d"/>
        </g>
      </g>
      <g id="Group_1099533-2" data-name="Group 1099533" transform="translate(6.862 0)">
        <g id="Group_1099532-2" data-name="Group 1099532" clip-path="url(#clip-path-4)">
          <rect id="Rectangle_401154-2" data-name="Rectangle 401154" width="2.778" height="2.612" transform="translate(0 0)" fill="#34054d"/>
        </g>
      </g>
      <g id="Group_1099535-2" data-name="Group 1099535" transform="translate(0 0)">
        <g id="Group_1099534-2" data-name="Group 1099534" transform="translate(0)" clip-path="url(#clip-path-5)">
          <rect id="Rectangle_401155-2" data-name="Rectangle 401155" width="2.778" height="2.612" transform="translate(0 0)" fill="#34054d"/>
        </g>
      </g>
    </g>
    <path id="Path_873784" data-name="Path 873784" d="M83.8,18.565A18.62,18.62,0,0,0,65.231,0H18.566A18.62,18.62,0,0,0,0,18.566V65.231A18.62,18.62,0,0,0,18.565,83.8H65.231A18.62,18.62,0,0,0,83.8,65.23Z" transform="translate(-22994.928 -3692.332) rotate(-135)" fill="#4b0d6b"/>
    <path id="Path_873785" data-name="Path 873785" d="M86.438,19.15A19.206,19.206,0,0,0,67.287,0H19.151A19.207,19.207,0,0,0,0,19.151V67.287a19.206,19.206,0,0,0,19.15,19.15H67.287A19.207,19.207,0,0,0,86.437,67.286Z" transform="translate(-22999.16 -3696.04) rotate(-135)" fill="#d7c9fe"/>
    <g id="Mask_Group_1098697" data-name="Mask Group 1098697" transform="translate(-23031.146 -3787.541)" clip-path="url(#clip-path-22)">
      <g id="Group_1109583" data-name="Group 1109583" transform="translate(-2397.641 -169.417)">
        <path id="Path_883382" data-name="Path 883382" d="M2561.824,195.88c2.515,0,4.968,0,7.42,0,.245,0,.49-.038.842-.067,0-1.673.019-3.305-.028-4.936,0-.167-.386-.442-.611-.462a17.446,17.446,0,0,0-2.08-.021c-.808.024-1.147-.376-1.144-1.15.005-1.325-.013-2.649.007-3.973a1.137,1.137,0,0,0-.577-1.154,2.485,2.485,0,0,1-1.056-2.887,2.666,2.666,0,0,1,2.478-1.862,2.715,2.715,0,0,1,2.471,1.752,2.515,2.515,0,0,1-1.027,2.986,1.192,1.192,0,0,0-.628,1.22c.04,1.1.012,2.2.012,3.434a10.72,10.72,0,0,1,1.276.009c.733.093,1.085-.18,1.39-.888a5.343,5.343,0,0,1,8.589-1.8,2.818,2.818,0,0,1,.781.936,5.973,5.973,0,0,0,2.654,2.925,4.869,4.869,0,0,1,2.022,4.544,1.626,1.626,0,0,0,.37,1.053,6.087,6.087,0,0,1,.693,7.59,1.324,1.324,0,0,0-.09,1.062,6.079,6.079,0,0,1-4.021,8.589.911.911,0,0,0-.779.866,5.346,5.346,0,0,1-10.317,1.274.909.909,0,0,0-1.045-.688c-.462.042-.931.009-1.519.009,0,1.384-.022,2.665.023,3.944.007.205.281.445.486.592a2.66,2.66,0,0,1,1.146,3.048,2.7,2.7,0,0,1-2.43,1.806,2.624,2.624,0,0,1-1.4-4.861,1.33,1.33,0,0,0,.465-.892c.05-1.354.032-2.711.019-4.067-.008-.814.326-1.257,1.184-1.2a.926.926,0,0,0,.095,0c.813-.031,2.031.244,2.342-.167.437-.577.22-1.663.245-2.533s.006-1.756.006-2.712h-8.287c-.017.3-.051.634-.052.965,0,5.519,0,11.037-.012,16.556a1.325,1.325,0,0,0,.665,1.3,2.411,2.411,0,0,1,.957,2.905,2.5,2.5,0,0,1-2.519,1.754,2.545,2.545,0,0,1-2.41-1.789,2.461,2.461,0,0,1,1.021-2.9,1.263,1.263,0,0,0,.663-1.293q-.023-8.94-.008-17.881c0-1.243.119-1.362,1.349-1.364q3.738-.006,7.476,0h1.146c0-.964.029-1.838-.026-2.707-.01-.158-.356-.41-.558-.422a18.091,18.091,0,0,0-2.552.007,1.326,1.326,0,0,0-.753.564,2.593,2.593,0,0,1-4.77-1.607,2.609,2.609,0,0,1,2.108-2.36,2.468,2.468,0,0,1,2.6,1.143,1.177,1.177,0,0,0,1.228.631,16.8,16.8,0,0,1,1.986,0c.593.036.777-.21.752-.773-.034-.749-.009-1.5-.009-2.387h-2.139c-2.176,0-4.353,0-6.529,0-1.176,0-1.311-.135-1.311-1.308q-.005-8.94.007-17.881a1.33,1.33,0,0,0-.693-1.373,2.458,2.458,0,0,1-.981-2.911,2.548,2.548,0,0,1,2.438-1.751,2.5,2.5,0,0,1,2.466,1.7,2.621,2.621,0,0,1-.872,2.961,1.765,1.765,0,0,0-.694,1.059c-.042,5.771-.028,11.542-.024,17.313C2561.76,195.47,2561.789,195.593,2561.824,195.88Zm16.982-7.48a.912.912,0,0,0-.086-.218,3.686,3.686,0,0,0-4.108-1.8,3.812,3.812,0,0,0-2.862,3.863c-.019,7.5-.034,15,.029,22.5a4.963,4.963,0,0,0,.831,2.526,3.55,3.55,0,0,0,4.313,1.15,3.411,3.411,0,0,0,2.174-3.356c-.9-.445-1.775-.806-2.573-1.286-.576-.347-1.33-.841-.754-1.635s1.141-.133,1.666.262a4.423,4.423,0,1,0,2.821-7.954c-.588-.038-1.012-.285-.944-.913.065-.607.534-.808,1.108-.762a1.811,1.811,0,0,1,.465.075c1.131.407,2.259.825,3.415,1.249a3.919,3.919,0,0,0-.424-5.138c-.342.368-.673.746-1.028,1.1-.414.413-.909.683-1.393.172s-.181-.951.243-1.376a3.7,3.7,0,0,0,.331-5.254,3.66,3.66,0,0,0-5.253-.317c-.478.368-.966.614-1.4.073a.875.875,0,0,1,.358-1.364C2576.7,189.441,2577.708,188.966,2578.806,188.4Zm-18.1-12.457.429-.015c.23-.339.6-.655.66-1.023a.754.754,0,0,0-.9-.913,1.293,1.293,0,0,0-.867.868C2560,175.2,2560.458,175.581,2560.7,175.943Zm7.468,6.213-.016-.428c-.384-.219-.786-.631-1.146-.6a1.177,1.177,0,0,0-.776.885,1.2,1.2,0,0,0,.842.853C2567.438,182.872,2567.806,182.414,2568.171,182.156Zm-.008,39.069c0-.142,0-.285,0-.427-.375-.246-.758-.693-1.122-.677a1.209,1.209,0,0,0-.812.884,1.177,1.177,0,0,0,.807.857C2567.4,221.884,2567.788,221.457,2568.163,221.225Zm-6.19,7.1-.006-.427c-.339-.232-.653-.592-1.024-.667a.753.753,0,0,0-.928.877,1.279,1.279,0,0,0,.86.873C2561.219,229.01,2561.6,228.564,2561.973,228.325Zm3.061-26.607.022-.42c-.359-.245-.73-.695-1.073-.675a1.288,1.288,0,0,0-.861.853.755.755,0,0,0,.888.919C2564.375,202.344,2564.694,201.955,2565.034,201.717Z" transform="translate(-128.74 -0.002)" fill="#34054d"/>
        <path id="Path_883383" data-name="Path 883383" d="M2419.42,188.684v-3.829c0-2.239.024-4.478-.025-6.715a1.551,1.551,0,0,0-.551-1.039,2.618,2.618,0,0,1-1.089-2.97,2.519,2.519,0,0,1,2.568-1.818,2.547,2.547,0,0,1,2.444,1.994,2.393,2.393,0,0,1-1.018,2.644,1.439,1.439,0,0,0-.72,1.47c.024,3.531.014,7.063.009,10.594,0,1.233-.135,1.361-1.354,1.372-.781.007-1.562,0-2.468,0,0,.979,0,1.85,0,2.722-.006,1.195-.1,1.291-1.269,1.376a7.1,7.1,0,0,0-6.511,6.091,7.022,7.022,0,0,0,4.633,7.514,6.388,6.388,0,0,0,1.933.391c.965.021,1.273.457,1.225,1.358-.046.873-.01,1.751-.01,2.763.935,0,1.777.029,2.616-.008.9-.04,1.225.361,1.219,1.244-.026,3.594,0,7.189-.018,10.783a1.357,1.357,0,0,0,.683,1.392,2.376,2.376,0,0,1,1,2.805,2.5,2.5,0,0,1-2.538,1.857,2.522,2.522,0,0,1-2.411-1.779,2.442,2.442,0,0,1,.992-2.9,1.3,1.3,0,0,0,.674-1.3c-.023-3.433-.011-6.866-.011-10.382h-2.2c0,.995-.02,1.961.006,2.927.022.81-.346,1.16-1.141,1.119-.346-.018-.694,0-1.041,0a1.935,1.935,0,0,1-2.157-1.888c-.377-2.614-2.564-3.493-4.664-1.875a1.843,1.843,0,0,1-2.7-.117c-.73-.7-1.448-1.406-2.139-2.141a1.859,1.859,0,0,1-.105-2.644c1.653-2.168.8-4.269-1.909-4.718a1.858,1.858,0,0,1-1.818-2.1q-.017-1.371,0-2.743a1.841,1.841,0,0,1,1.883-2.124,2.888,2.888,0,0,0,2.284-1.311,2.675,2.675,0,0,0-.292-3.242,1.926,1.926,0,0,1,.132-2.991c.639-.654,1.28-1.307,1.94-1.939a1.846,1.846,0,0,1,2.7-.165c2.162,1.65,4.271.792,4.7-1.911a1.925,1.925,0,0,1,2.116-1.828c2.21-.037,2.21-.037,2.21,2.212v1.845Zm-12.457.873-.278-.213c-.563.673-1.082,1.39-1.7,2.005-.471.468-.513.764-.094,1.325a4.355,4.355,0,0,1-2.027,6.741c-.549.184-1.362.177-1.6.546-.289.457-.1,1.216-.117,1.845a2.07,2.07,0,0,0,.023.841c.126.276.408.668.64.68a4.412,4.412,0,0,1,2.952,7.206c-.135.163-.206.591-.1.707.713.778,1.482,1.506,2.21,2.227a2.968,2.968,0,0,0,.363-.218,4.4,4.4,0,0,1,7.329,2.848c.013.212.335.4.514.606.165-.238.466-.473.472-.715.042-1.7.005-3.405.033-5.108.009-.55-.2-.754-.729-.871a8.651,8.651,0,0,1-.034-17.025c.587-.124.775-.359.764-.938-.031-1.608.014-3.217-.031-4.824-.009-.316-.234-.844-.45-.9-.624-.149-.522.424-.582.81a4.372,4.372,0,0,1-6.886,2.915C2407.409,189.891,2407.187,189.722,2406.963,189.557Zm13.53-15.74-.427-.019c-.257.363-.71.725-.711,1.088a.874.874,0,0,0,1.74.079C2421.129,174.6,2420.713,174.2,2420.493,173.817Zm-.043,53.248-.423-.022c-.244.361-.7.736-.672,1.078.023.325.544.614.846.92.32-.318.816-.6.9-.968C2421.164,227.8,2420.687,227.405,2420.45,227.065Z" transform="translate(0)" fill="#34054d"/>
        <path id="Path_883384" data-name="Path 883384" d="M2470.012,243.519c0-2.423.012-4.689-.019-6.953a1.01,1.01,0,0,0-.425-.631,2.6,2.6,0,1,1,3.761-3.112,2.683,2.683,0,0,1-1.166,3.121,1.3,1.3,0,0,0-.44.9c-.039,2.048-.02,4.1-.02,6.145,0,2.2,0,2.2-2.149,2.2h-7.8v3.143c1.076,0,2.167.027,3.253-.025.2-.01.417-.319.567-.532a2.6,2.6,0,0,1,4.8,1.447,2.6,2.6,0,0,1-2.086,2.477,2.712,2.712,0,0,1-2.707-1.15,1.628,1.628,0,0,0-1.016-.573c-.9-.081-1.815-.027-2.8-.027V253.1h3.694c1.671,0,3.342.026,5.012-.01.89-.019,1.254.34,1.244,1.229-.026,2.332,0,4.665-.016,7a1.113,1.113,0,0,0,.577,1.142,2.506,2.506,0,0,1,1.066,2.972,2.6,2.6,0,0,1-4.948-.031,2.474,2.474,0,0,1,1.014-2.9,1.233,1.233,0,0,0,.624-1.22c-.031-2.134-.012-4.268-.012-6.516h-5.468c-.694,0-1.392-.046-2.079.021-.314.031-.6.3-.913.429a3.105,3.105,0,0,1-1.1.361,6.425,6.425,0,0,1-2.63-12.1,10.062,10.062,0,0,1,2.416-.743c.549-.119,1.143-.117,1.447.565a.591.591,0,0,0,.46.224C2464.731,243.523,2467.309,243.519,2470.012,243.519Zm-10.03.962a4.755,4.755,0,0,0-3.932,4.73,4.681,4.681,0,0,0,3.932,4.562Zm9.1,4.687c-.581-.451-.952-.949-1.224-.9-.377.068-.68.548-1.015.851.321.319.6.811.976.9C2468.085,250.077,2468.478,249.595,2469.079,249.168Zm3.108-15.54c-.617-.418-1.016-.89-1.3-.829a1.41,1.41,0,0,0-.9.92.727.727,0,0,0,.951.825C2471.311,234.46,2471.608,234.072,2472.187,233.628Zm-.243,31.147c-.006-.15-.013-.3-.019-.449-.384-.207-.791-.606-1.143-.563a1.173,1.173,0,0,0-.767.884,1.2,1.2,0,0,0,.854.832C2471.221,265.486,2471.585,265.03,2471.944,264.775Z" transform="translate(-44.467 -47.646)" fill="#34054d"/>
      </g>
    </g>
  </g>
</svg>
