<svg xmlns="http://www.w3.org/2000/svg" xmlns:xlink="http://www.w3.org/1999/xlink" width="69.19" height="69.19" viewBox="0 0 69.19 69.19">
  <defs>
    <clipPath id="clip-path">
      <rect id="Rectangle_404056" data-name="Rectangle 404056" width="69.19" height="69.19" transform="translate(0 0)" fill="#fff" stroke="#707070" stroke-width="1"/>
    </clipPath>
  </defs>
  <g id="Mask_Group_1098867" data-name="Mask Group 1098867" clip-path="url(#clip-path)">
    <g id="Group_1109453" data-name="Group 1109453" transform="translate(3.845 5.575)">
      <path id="Path_883309" data-name="Path 883309" d="M870.768,176.977c-7.242,0-14.485.023-21.727-.008a8.923,8.923,0,0,1-8.954-9.554,9.463,9.463,0,0,1,1.083-3.734q10.766-19.995,21.652-39.925a9.022,9.022,0,0,1,15.938-.028q10.861,19.944,21.675,39.913a8.974,8.974,0,0,1-7.94,13.329C885.253,177.007,878.01,176.977,870.768,176.977Zm.039-3.618q10.714,0,21.428,0a5.4,5.4,0,0,0,4.888-8.269q-10.691-19.7-21.388-39.389a5.45,5.45,0,0,0-9.879.014q-10.656,19.66-21.343,39.3c-2.236,4.118.271,8.338,4.961,8.342Q860.141,173.367,870.807,173.359Z" transform="translate(-840.066 -118.949)" fill="#fff"/>
      <path id="Path_883310" data-name="Path 883310" d="M971.848,206.367c0-1.827-.023-3.654.006-5.48a5.381,5.381,0,0,1,10.761.019q.051,5.479,0,10.959a5.382,5.382,0,0,1-10.765-.019C971.826,210.021,971.847,208.194,971.848,206.367Zm3.615-.016c0,1.758-.01,3.517,0,5.275a1.775,1.775,0,1,0,3.536.049q.02-5.275,0-10.55a1.777,1.777,0,0,0-1.79-1.936,1.8,1.8,0,0,0-1.745,1.983C975.452,202.9,975.463,204.625,975.463,206.352Z" transform="translate(-946.501 -180.861)" fill="#fff"/>
      <path id="Path_883311" data-name="Path 883311" d="M982.666,332.269a5.386,5.386,0,1,1-5.366-5.378A5.336,5.336,0,0,1,982.666,332.269Zm-3.621.027a1.766,1.766,0,1,0-1.74,1.789A1.754,1.754,0,0,0,979.044,332.3Z" transform="translate(-946.545 -286.907)" fill="#fff"/>
    </g>
  </g>
</svg>
