<svg xmlns="http://www.w3.org/2000/svg" xmlns:xlink="http://www.w3.org/1999/xlink" width="68.541" height="68.541" viewBox="0 0 68.541 68.541">
  <defs>
    <clipPath id="clip-path">
      <rect id="Rectangle_404055" data-name="Rectangle 404055" width="68.541" height="68.541" transform="translate(0 0)" fill="#fff" stroke="#707070" stroke-width="1"/>
    </clipPath>
  </defs>
  <g id="Group_1110777" data-name="Group 1110777" transform="translate(-8.207 -8)">
    <g id="Mask_Group_1098866" data-name="Mask Group 1098866" transform="translate(8.207 8)" clip-path="url(#clip-path)">
      <g id="Group_1109455" data-name="Group 1109455" transform="translate(4.543 4.075)">
        <path id="Path_883317" data-name="Path 883317" d="M1959.979,313.949c0-2.105,0-4.149,0-6.192q0-7.423,0-14.846a2.2,2.2,0,0,1,.054-.974c.183-.33.55-.756.852-.768s.716.382.9.7a2.3,2.3,0,0,1,.09,1.065q.005,9.9,0,19.8v1.259H2014.6v-1.012q0-3.464,0-6.928c0-.2,0-.4,0-.594,0-.662.2-1.244.95-1.249s.952.569.951,1.238q-.006,3.712,0,7.423v1.049c1.437.4,1.571.6,1.43,2.029a8.429,8.429,0,0,1-7.536,7.451c-.46.04-.922.058-1.384.058q-20.785,0-41.57,0a8.362,8.362,0,0,1-8.206-5.1,9,9,0,0,1-.662-2.566C1958.4,314.484,1958.595,314.28,1959.979,313.949Zm.538,2.068a5.594,5.594,0,0,0,.073.59,6.552,6.552,0,0,0,6.667,4.955q20.981.009,41.962,0c.3,0,.595,0,.89-.021,3.01-.221,5.789-2.853,5.789-5.506h-17.735c0,.6.012,1.119,0,1.64a2.158,2.158,0,0,1-2.363,2.332q-6.235.025-12.47,0a2.145,2.145,0,0,1-2.307-2.189c-.046-.578-.008-1.164-.008-1.8Zm35.642.016h-13.222c-.026.2-.053.321-.058.448-.07,1.7-.069,1.7,1.587,1.7h10.069c1.933,0,1.986-.061,1.731-2.007C1996.262,316.142,1996.227,316.118,1996.16,316.033Z" transform="translate(-1958.52 -263.068)" fill="#fff"/>
        <path id="Path_883318" data-name="Path 883318" d="M1980.663,163.408c0-.9.012-1.656,0-2.41a1.021,1.021,0,0,1,1.02-1.192c.393-.041.781-.126,1.17-.195a1.546,1.546,0,0,0,1.053-2.582c-1.291-1.83-1.29-1.83.267-3.388.537-.537,1.091-1.057,1.6-1.615a1.114,1.114,0,0,1,1.731-.126c.256.207.532.39.8.58,1.271.9,2.449.371,2.68-1.187a2.977,2.977,0,0,1,.235-1.151c.235-.359.653-.8,1.022-.833,1.245-.1,2.5-.038,3.759-.041a.992.992,0,0,1,1.087.92c.062.357.139.712.188,1.071.219,1.608,1.412,2.114,2.754,1.162.3-.21.592-.419.885-.633a1.028,1.028,0,0,1,1.5.141q1.286,1.3,2.594,2.586a1.014,1.014,0,0,1,.123,1.494c-.216.291-.422.59-.632.886-.949,1.343-.463,2.47,1.185,2.747.325.055.647.134.974.168a1,1,0,0,1,.986,1.126c0,.784,0,1.568,0,2.471h2.068c2.31,0,4.62-.016,6.93.006a5.631,5.631,0,0,1,5.722,5.519c.084,5.972.029,11.945.035,17.918,0,.69-.257,1.237-1,1.189-.809-.052-.9-.725-.9-1.4,0-5.643.012-11.285-.012-16.928a5.7,5.7,0,0,0-.322-2.126,3.794,3.794,0,0,0-3.793-2.339c-1.155-.013-2.31,0-3.465,0q-20.145,0-40.291,0a11.03,11.03,0,0,0-1.577.1,3.693,3.693,0,0,0-3.255,3.646c-.042,1.583-.013,3.167-.016,4.751,0,.231.013.464-.009.693-.058.59-.324,1.04-.976,1.019s-.909-.471-.909-1.074c0-1.881-.077-3.767.039-5.641a5.662,5.662,0,0,1,5.711-5.323C1974.59,163.39,1977.555,163.408,1980.663,163.408Zm8.3-.006c.537-3.782,2.167-5.619,5.036-5.7a4.948,4.948,0,0,1,3.222,1.059,5.555,5.555,0,0,1,2.04,4.572h6.452c.207-1.7.217-1.768-1.341-2.007-.981-.15-1.34-.669-1.79-1.506-.914-1.7-.855-3.1.651-4.3l-1.751-1.875c-1.188.927-2.159,1.651-3.95.9-1.772-.741-1.975-1.931-2.179-3.392h-2.431c-.27,1.406-.377,2.658-2.179,3.392s-2.807-.024-3.959-.864l-1.753,1.678a11.579,11.579,0,0,0,.808,1.177,1.617,1.617,0,0,1,.2,2.231,1.679,1.679,0,0,0-.309.721c-.177,1.448-1.17,1.875-2.418,1.906-.782.019-.955.4-.868,1.065.037.283.044.569.067.892.357.017.648.043.938.043C1985.3,163.4,1987.139,163.4,1988.967,163.4Zm8.2-.054a2.977,2.977,0,0,0-1.324-3.272,3.238,3.238,0,0,0-3.543.07,2.879,2.879,0,0,0-1.194,3.2Z" transform="translate(-1964.399 -149.25)" fill="#fff"/>
        <path id="Path_883319" data-name="Path 883319" d="M2000.505,253.219v23.472h39.77V253.223c-1.51,0-2.984,0-4.457,0a3.016,3.016,0,0,1-1.173-.041c-.354-.164-.82-.573-.822-.878a1.2,1.2,0,0,1,.8-.871c2.208-.076,4.42-.063,6.63-.034.779.01.931.587.927,1.252-.01,2.046,0,4.092,0,6.138q0,9.158,0,18.316c0,1.308-.2,1.516-1.478,1.517q-20.3.005-40.592,0c-1.3,0-1.5-.2-1.5-1.49q0-12.128,0-24.256c0-1.3.193-1.5,1.489-1.5q13.712-.005,27.424,0c.23,0,.533-.066.676.051.3.244.7.6.7.894s-.418.673-.742.854c-.254.142-.644.044-.974.044h-26.67Z" transform="translate(-1990.667 -231.138)" fill="#fff"/>
        <path id="Path_883320" data-name="Path 883320" d="M2058.781,299.6a4.233,4.233,0,0,1,1.377.1c.353.16.813.576.814.882s-.458.687-.8.907c-.212.137-.578.041-.875.041h-27.918c-.264,0-.6.094-.776-.032-.35-.254-.792-.6-.847-.967-.036-.242.492-.647.843-.842a3.1,3.1,0,0,1,1.112-.089c0-.634,0-1.247,0-1.86,0-1.782.01-3.564,0-5.346-.006-.757.3-1.215,1.087-1.222q2.574-.024,5.148,0c.8.007,1.077.493,1.073,1.236-.01,2.013,0,4.026,0,6.039v1.133h2.592v-1.036q0-4.653,0-9.306c0-1.282.232-1.521,1.474-1.527q2.178-.01,4.356,0c1.2.005,1.463.26,1.466,1.443.007,3.1,0,6.2,0,9.306v1.125h2.594c0-.36,0-.708,0-1.056q0-6.385,0-12.771c0-1.3.193-1.493,1.493-1.5q2.177-.012,4.356,0c1.215.009,1.425.221,1.426,1.466q.008,6.336,0,12.672Zm-5.352-13.429v13.394h3.4V286.174Zm-6.438,3.374c-.914,0-1.733.043-2.546-.013-.737-.051-.971.208-.961.948.038,2.636.013,5.273.017,7.909,0,.383.032.765.05,1.169h3.439Zm-13.287,3.541v6.48h3.414v-6.48Z" transform="translate(-2015.651 -257.52)" fill="#fff"/>
      </g>
    </g>
  </g>
</svg>
