<svg xmlns="http://www.w3.org/2000/svg" xmlns:xlink="http://www.w3.org/1999/xlink" width="98.579" height="98.578" viewBox="0 0 98.579 98.578">
  <defs>
    <clipPath id="clip-path">
      <rect id="Rectangle_401223" data-name="Rectangle 401223" width="98.579" height="98.578" transform="translate(0)" fill="#bfa9fe"/>
    </clipPath>
    <clipPath id="clip-path-2">
      <rect id="Rectangle_401223-2" data-name="Rectangle 401223" width="88.117" height="88.116" fill="#d7c9fe"/>
    </clipPath>
  </defs>
  <g id="Group_1109958" data-name="Group 1109958" transform="translate(-401.464 -1615.097)">
    <g id="Group_1100172" data-name="Group 1100172" transform="translate(-519.869 1204.092)">
      <g id="Group_1099654" data-name="Group 1099654" transform="translate(921.333 411.006)">
        <g id="Group_1099652" data-name="Group 1099652" transform="translate(0 0)" clip-path="url(#clip-path)">
          <path id="Path_873521" data-name="Path 873521" d="M98.579,76.737a21.9,21.9,0,0,1-21.84,21.84H21.84A21.9,21.9,0,0,1,0,76.737V21.84A21.9,21.9,0,0,1,21.84,0h54.9a21.9,21.9,0,0,1,21.84,21.841Z" transform="translate(0)" fill="#bfa9fe"/>
        </g>
      </g>
      <g id="Group_1099659" data-name="Group 1099659" transform="translate(926.103 416.728)">
        <g id="Group_1099652-2" data-name="Group 1099652" transform="translate(0 0)" clip-path="url(#clip-path-2)">
          <path id="Path_873521-2" data-name="Path 873521" d="M88.117,68.594A19.58,19.58,0,0,1,68.595,88.116H19.523A19.58,19.58,0,0,1,0,68.594V19.522A19.58,19.58,0,0,1,19.523,0H68.595A19.58,19.58,0,0,1,88.117,19.523Z" fill="#d7c9fe"/>
        </g>
      </g>
    </g>
    <g id="Group_1100171" data-name="Group 1100171" transform="translate(417.406 1630.901)">
      <rect id="Rectangle_401104" data-name="Rectangle 401104" width="68" height="69" transform="translate(-1.984 -0.373)" fill="none"/>
      <g id="_15" data-name="15" transform="translate(-345.696 -242.693)">
        <g id="Group_1109972" data-name="Group 1109972" transform="translate(363.407 257.382)">
          <g id="Group_1109969" data-name="Group 1109969" transform="translate(0 0)">
            <g id="Group_1109965" data-name="Group 1109965" transform="translate(0 15.259)">
              <rect id="Rectangle_404729" data-name="Rectangle 404729" width="6.864" height="15.14" fill="#4b0d6b"/>
            </g>
            <g id="Group_1109966" data-name="Group 1109966" transform="translate(8.222 8.667)">
              <rect id="Rectangle_404730" data-name="Rectangle 404730" width="6.864" height="21.732" fill="#f94e63"/>
            </g>
            <g id="Group_1109967" data-name="Group 1109967" transform="translate(16.445)">
              <rect id="Rectangle_404731" data-name="Rectangle 404731" width="6.864" height="30.399" fill="#17c5cc"/>
            </g>
            <g id="Group_1109968" data-name="Group 1109968" transform="translate(24.667 6.191)">
              <rect id="Rectangle_404732" data-name="Rectangle 404732" width="6.864" height="24.208" fill="#a01f4e"/>
            </g>
          </g>
          <g id="Group_1109971" data-name="Group 1109971" transform="translate(33.366 3.148)">
            <g id="Group_1109970" data-name="Group 1109970">
              <rect id="Rectangle_404733" data-name="Rectangle 404733" width="6.863" height="27.251" fill="#16405e"/>
            </g>
          </g>
        </g>
        <path id="Path_884213" data-name="Path 884213" d="M405.061,258.463l2.114-5.272-5.623.806Z" transform="translate(-4.647 -0.239)" fill="#f62f48"/>
        <g id="Group_1109975" data-name="Group 1109975" transform="translate(364.295 250.32)">
          <g id="Group_1109973" data-name="Group 1109973" transform="translate(0 0.519)">
            <path id="Path_884214" data-name="Path 884214" d="M367.079,270.871a1.1,1.1,0,0,1-.793-1.856l17.061-17.791a1.1,1.1,0,0,1,1.49-.088l9.149,7.55,7.318-4.413a1.1,1.1,0,0,1,1.132,1.878l-7.982,4.814a1.1,1.1,0,0,1-1.264-.094l-8.963-7.395-16.355,17.056A1.091,1.091,0,0,1,367.079,270.871Z" transform="translate(-365.982 -250.886)" fill="#f62f48"/>
          </g>
          <g id="Group_1109974" data-name="Group 1109974" transform="translate(16.237)">
            <path id="Path_884215" data-name="Path 884215" d="M387.715,252.331a2.011,2.011,0,1,1-2.01-2.011A2.011,2.011,0,0,1,387.715,252.331Z" transform="translate(-383.693 -250.32)" fill="#f94e63"/>
          </g>
        </g>
        <g id="Group_1109976" data-name="Group 1109976" transform="translate(357.227 255.347)">
          <path id="Path_884216" data-name="Path 884216" d="M409.454,293.823H359.369a1.1,1.1,0,0,1-1.1-1.1V256.9a1.1,1.1,0,0,1,2.194,0V291.63h48.988a1.1,1.1,0,1,1,0,2.193Z" transform="translate(-358.272 -255.803)" fill="#16405e"/>
        </g>
        <g id="Group_1109977" data-name="Group 1109977" transform="translate(345.712 278.986)">
          <path id="Path_884217" data-name="Path 884217" d="M357.776,294.195l-.056,12.064a12.012,12.012,0,0,1-6.026-1.645,12.158,12.158,0,0,1-4.393-4.437,12.06,12.06,0,0,1,.057-12.065Z" transform="translate(-345.712 -282.131)" fill="#17c5cc"/>
          <path id="Path_884218" data-name="Path 884218" d="M358.866,294.747l5.982,10.475a11.987,11.987,0,0,1-6.038,1.589Z" transform="translate(-346.802 -282.683)" fill="#f94e63"/>
          <path id="Path_884219" data-name="Path 884219" d="M358.871,294.747l5.98,10.476a12.126,12.126,0,0,0,4.437-4.394l-10.417-6.082Z" transform="translate(-346.807 -282.683)" fill="#f94e63"/>
          <path id="Path_884220" data-name="Path 884220" d="M370.936,294.8a12.009,12.009,0,0,1-1.646,6.025l-10.419-6.082Z" transform="translate(-346.807 -282.683)" fill="#4b0d6b"/>
          <path id="Path_884221" data-name="Path 884221" d="M351.944,283.176a12.159,12.159,0,0,0-4.437,4.393l10.418,6.083.048-.083-.1-11.979A12,12,0,0,0,351.944,283.176Z" transform="translate(-345.861 -281.588)" fill="#a01f4e"/>
          <path id="Path_884222" data-name="Path 884222" d="M359.043,294.423l-.052.228-.12.069Z" transform="translate(-346.807 -282.656)" fill="#f62f48"/>
          <path id="Path_884223" data-name="Path 884223" d="M369.344,287.669a12.03,12.03,0,0,1,1.585,6.041l-12.062-.058.117-.071.056-.226-.129.215-.1-11.98a.745.745,0,0,1,.11,0,12.072,12.072,0,0,1,2.669.31,12.287,12.287,0,0,1,3.354,1.335A12.164,12.164,0,0,1,369.344,287.669Z" transform="translate(-346.802 -281.588)" fill="#16405e"/>
        </g>
      </g>
    </g>
  </g>
</svg>
