<svg xmlns="http://www.w3.org/2000/svg" xmlns:xlink="http://www.w3.org/1999/xlink" width="98.578" height="98.578" viewBox="0 0 98.578 98.578">
  <defs>
    <clipPath id="clip-path">
      <rect id="Rectangle_401223" data-name="Rectangle 401223" width="98.579" height="98.578" transform="translate(0)" fill="#bfa9fe"/>
    </clipPath>
    <clipPath id="clip-path-2">
      <rect id="Rectangle_401223-2" data-name="Rectangle 401223" width="88.117" height="88.116" fill="#d7c9fe"/>
    </clipPath>
  </defs>
  <g id="Group_1109964" data-name="Group 1109964" transform="translate(-753.297 -1615.097)">
    <g id="Group_1102150" data-name="Group 1102150" transform="translate(-168.037 1204.092)">
      <g id="Group_1099654" data-name="Group 1099654" transform="translate(921.333 411.006)">
        <g id="Group_1099652" data-name="Group 1099652" transform="translate(0 0)" clip-path="url(#clip-path)">
          <path id="Path_873521" data-name="Path 873521" d="M98.579,76.737a21.9,21.9,0,0,1-21.84,21.84H21.84A21.9,21.9,0,0,1,0,76.737V21.84A21.9,21.9,0,0,1,21.84,0h54.9a21.9,21.9,0,0,1,21.84,21.841Z" transform="translate(0)" fill="#bfa9fe"/>
        </g>
      </g>
      <g id="Group_1099659" data-name="Group 1099659" transform="translate(926.103 416.728)">
        <g id="Group_1099652-2" data-name="Group 1099652" transform="translate(0 0)" clip-path="url(#clip-path-2)">
          <path id="Path_873521-2" data-name="Path 873521" d="M88.117,68.594A19.58,19.58,0,0,1,68.595,88.116H19.523A19.58,19.58,0,0,1,0,68.594V19.522A19.58,19.58,0,0,1,19.523,0H68.595A19.58,19.58,0,0,1,88.117,19.523Z" fill="#d7c9fe"/>
        </g>
      </g>
    </g>
    <g id="Group_1102151" data-name="Group 1102151" transform="translate(769.238 1630.901)">
      <rect id="Rectangle_401104" data-name="Rectangle 401104" width="68" height="69" transform="translate(-0.238 -0.372)" fill="none"/>
      <g id="_2" data-name="2" transform="translate(-25.617 -229.7)">
        <g id="_10" data-name="10" transform="translate(25.379 251.689)">
          <g id="Group_1109991" data-name="Group 1109991" transform="translate(4.749 2.19)">
            <g id="Group_1109989" data-name="Group 1109989" transform="translate(1.402 1.208)">
              <path id="Path_884288" data-name="Path 884288" d="M75.235,290.13H32.813V258.166H75.235Zm-41.7-.832H74.511V259H33.537Z" transform="translate(-32.813 -258.166)" fill="#14b0bf"/>
            </g>
            <path id="Path_884289" data-name="Path 884289" d="M34.771,295.926a1.826,1.826,0,1,1-1.826-1.826A1.827,1.827,0,0,1,34.771,295.926Z" transform="translate(-31.119 -263.161)" fill="#14b0bf"/>
            <g id="Group_1109990" data-name="Group 1109990" transform="translate(41.101)">
              <path id="Path_884290" data-name="Path 884290" d="M84.447,258.532a1.826,1.826,0,1,1-1.826-1.826A1.826,1.826,0,0,1,84.447,258.532Z" transform="translate(-80.795 -256.706)" fill="#14b0bf"/>
            </g>
          </g>
          <g id="Group_1109995" data-name="Group 1109995" transform="translate(0 -16.018)">
            <g id="Group_1109992" data-name="Group 1109992" transform="translate(3.011)">
              <path id="Path_884291" data-name="Path 884291" d="M68.606,254.059H29.232a1.936,1.936,0,0,0-1.894,1.966v24.417a1.937,1.937,0,0,0,1.894,1.966H68.606a1.937,1.937,0,0,0,1.894-1.966V256.025A1.936,1.936,0,0,0,68.606,254.059Z" transform="translate(-27.338 -254.059)" fill="#4b0d6b"/>
              <path id="Path_884292" data-name="Path 884292" d="M66.837,255.167H29.894a1.537,1.537,0,0,0-1.525,1.543v22.517a1.548,1.548,0,0,0,.61,1.231l38.614-25.086A1.491,1.491,0,0,0,66.837,255.167Z" transform="translate(-26.784 -253.464)" fill="#355168"/>
              <path id="Path_884293" data-name="Path 884293" d="M67.38,255.3,28.766,280.387a1.5,1.5,0,0,0,.915.312H66.624a1.538,1.538,0,0,0,1.525-1.543V256.638A1.549,1.549,0,0,0,67.38,255.3Z" transform="translate(-26.571 -253.392)" fill="#2a445d"/>
            </g>
            <g id="Group_1109994" data-name="Group 1109994" transform="translate(0 28.257)">
              <path id="Path_884294" data-name="Path 884294" d="M74.834,276.043l-.025-.626-49.43.417v.246a1.418,1.418,0,0,0,1.562,1.2H73.274C74.153,277.278,74.86,276.721,74.834,276.043Z" transform="translate(-25.379 -270.844)" fill="#90a4ae"/>
              <g id="Group_1109993" data-name="Group 1109993" transform="translate(0.001)">
                <path id="Path_884295" data-name="Path 884295" d="M70.3,272.442H29.961a2.877,2.877,0,0,0-2.12.695l-2.387,3.878c-.3.481.332.885,1.4.885H73.4c1.073,0,1.7-.4,1.4-.885l-2.389-3.878A2.872,2.872,0,0,0,70.3,272.442Z" transform="translate(-25.38 -272.442)" fill="#cfd8dc"/>
                <path id="Path_884296" data-name="Path 884296" d="M67.247,273.411H30.416a3.039,3.039,0,0,0-1.715.317l-.89,1.649c-.1.192.549.352,1.453.352H68.4c.9,0,1.556-.16,1.453-.352l-.89-1.649A3.043,3.043,0,0,0,67.247,273.411Z" transform="translate(-24.08 -271.922)" fill="#b0bec5"/>
                <path id="Path_884297" data-name="Path 884297" d="M66.207,272.689H30.483a7.47,7.47,0,0,0-1.545.085l-.231.427a5.911,5.911,0,0,0,1.476.088H66.5a5.929,5.929,0,0,0,1.477-.088l-.232-.427A7.449,7.449,0,0,0,66.207,272.689Z" transform="translate(-23.593 -272.309)" fill="#b0bec5"/>
                <path id="Path_884298" data-name="Path 884298" d="M54.064,275.041H35.921c-.42,0-.778.063-.8.14l-.177.707c-.02.081.315.148.744.148h18.6c.427,0,.762-.066.742-.148l-.175-.707C54.84,275.1,54.482,275.041,54.064,275.041Z" transform="translate(-20.241 -271.046)" fill="#b0bec5"/>
              </g>
            </g>
          </g>
          <g id="Group_1109999" data-name="Group 1109999" transform="translate(29.142 17.407)">
            <g id="Group_1109996" data-name="Group 1109996" transform="translate(1.925)">
              <path id="Path_884299" data-name="Path 884299" d="M89.325,275.1H64.139a1.239,1.239,0,0,0-1.211,1.258v15.617a1.24,1.24,0,0,0,1.211,1.258H89.325a1.24,1.24,0,0,0,1.211-1.258V276.355A1.239,1.239,0,0,0,89.325,275.1Z" transform="translate(-62.928 -275.097)" fill="#cfd8dc"/>
              <path id="Path_884300" data-name="Path 884300" d="M88.759,276.414H65.129a.984.984,0,0,0-.975.986v14.4a.989.989,0,0,0,.391.787l24.7-16.046A.963.963,0,0,0,88.759,276.414Z" transform="translate(-63.14 -275.324)" fill="#355168"/>
              <path id="Path_884301" data-name="Path 884301" d="M89.324,276.573l-24.7,16.046a.961.961,0,0,0,.584.2H88.84a.983.983,0,0,0,.975-.986v-14.4A.99.99,0,0,0,89.324,276.573Z" transform="translate(-63.221 -275.352)" fill="#2a445d"/>
            </g>
            <g id="Group_1109998" data-name="Group 1109998" transform="translate(0 18.074)">
              <path id="Path_884302" data-name="Path 884302" d="M92.233,300.877l-.015-.4-31.617.266v.157a.906.906,0,0,0,1,.768H91.235C91.8,301.668,92.249,301.309,92.233,300.877Z" transform="translate(-60.601 -297.551)" fill="#90a4ae"/>
              <g id="Group_1109997" data-name="Group 1109997" transform="translate(0)">
                <path id="Path_884303" data-name="Path 884303" d="M89.335,296.941h-25.8a1.841,1.841,0,0,0-1.356.444l-1.527,2.481c-.19.309.213.567.9.567H91.319c.687,0,1.089-.258.9-.567l-1.528-2.481A1.839,1.839,0,0,0,89.335,296.941Z" transform="translate(-60.601 -296.941)" fill="#cfd8dc"/>
                <path id="Path_884304" data-name="Path 884304" d="M88.708,298.094H65.15a1.954,1.954,0,0,0-1.1.2l-.569,1.055c-.066.123.352.225.929.225H89.446c.577,0,.995-.1.928-.225l-.569-1.055A1.952,1.952,0,0,0,88.708,298.094Z" transform="translate(-61.097 -297.14)" fill="#b0bec5"/>
                <path id="Path_884305" data-name="Path 884305" d="M88.54,297.234H65.69a4.714,4.714,0,0,0-.988.055l-.147.273a3.823,3.823,0,0,0,.944.056H88.731a3.838,3.838,0,0,0,.945-.056l-.148-.273A4.714,4.714,0,0,0,88.54,297.234Z" transform="translate(-61.283 -296.992)" fill="#b0bec5"/>
                <path id="Path_884306" data-name="Path 884306" d="M84.2,300.03h-11.6c-.268,0-.5.04-.51.09l-.112.452c-.013.051.2.094.475.094h11.9c.275,0,.488-.042.476-.094l-.113-.452C84.695,300.07,84.465,300.03,84.2,300.03Z" transform="translate(-62.564 -297.474)" fill="#b0bec5"/>
              </g>
            </g>
          </g>
        </g>
        <path id="_7" data-name="7" d="M52.1,282.679l-.279-3.106-2.338-.184a7.943,7.943,0,0,0-.688-1.469l1.345-1.905-2.21-2.2-1.89,1.348a8.007,8.007,0,0,0-1.5-.694l-.191-2.3-3.107-.266-.575,2.229a7.975,7.975,0,0,0-1.61.434l-1.611-1.625-.073.052L34.9,274.738l.989,2.072a8.007,8.007,0,0,0-.951,1.373l-2.279-.209-.8,3.013,2.1.957a7.958,7.958,0,0,0,.156,1.648l-1.9,1.315,1.325,2.821,2.25-.622a7.919,7.919,0,0,0,1.161,1.142l-.614,2.25,2.829,1.311,1.335-1.942a8.126,8.126,0,0,0,1.6.13l.985,2.135,3.008-.814-.115-1.2-.113-1.155c.224-.129.445-.268.66-.417s.441-.329.646-.507l2.134,1.008,1.782-2.559-1.686-1.659a8.013,8.013,0,0,0,.41-1.548Zm-7.3,3.4a5.242,5.242,0,0,1-.653.38,4.968,4.968,0,0,1-5.069-8.512,5.05,5.05,0,0,1,.608-.359,4.968,4.968,0,0,1,5.113,8.491Z" transform="translate(-1.118 -5.451)" fill="#a01f4e"/>
        <path id="_7-2" data-name="7" d="M79.351,256.044l-.407-4.53-3.412-.269a11.564,11.564,0,0,0-1-2.143l1.962-2.78-3.224-3.209L70.51,245.08a11.649,11.649,0,0,0-2.182-1.013l-.279-3.353-4.532-.386-.839,3.251a11.672,11.672,0,0,0-2.347.634l-2.351-2.37-.107.075-3.614,2.542,1.441,3.023a11.769,11.769,0,0,0-1.386,2l-3.326-.3-1.166,4.4,3.068,1.4a11.494,11.494,0,0,0,.228,2.4L50.353,259.3l1.934,4.116,3.281-.908a11.668,11.668,0,0,0,1.694,1.666l-.9,3.281,4.126,1.914,1.949-2.833a11.9,11.9,0,0,0,2.339.189l1.438,3.113,4.389-1.186-.168-1.753-.165-1.686c.327-.187.649-.389.963-.608.33-.233.643-.479.943-.739l3.113,1.469,2.6-3.732-2.46-2.42a11.752,11.752,0,0,0,.6-2.259Zm-10.644,4.964a7.247,7.247,0,1,1,1.757-10.1A7.2,7.2,0,0,1,68.707,261.008Z" transform="translate(10.781 -2.018)" fill="#f62f48"/>
        <g id="Group_1110004" data-name="Group 1110004" transform="translate(37.755 247.041)">
          <g id="_8" data-name="8">
            <g id="Group_1110000" data-name="Group 1110000" transform="translate(31.606 25.546)">
              <path id="Path_884307" data-name="Path 884307" d="M78.56,282.08,80,279.43a.317.317,0,0,1,.422-.064l8.084,4.1c.223.112.345.32.27.459l-1.68,3.085c-.076.139-.316.15-.532.024l-7.831-4.566A.318.318,0,0,1,78.56,282.08Z" transform="translate(-78.537 -279.317)" fill="#b1bac3"/>
              <path id="Path_884308" data-name="Path 884308" d="M87.3,287.439l2.011-3.69c.069-.127.313-.13.542,0l2.351,1.279c.228.125.36.331.29.458l-2.011,3.691c-.069.127-.313.128-.542,0l-2.35-1.28C87.359,287.772,87.229,287.566,87.3,287.439Z" transform="translate(-80.046 -280.065)" fill="#788f9b"/>
              <path id="Path_884309" data-name="Path 884309" d="M87.751,287.96l2.277-4.18c.1-.189.507-.176.9.029l12.445,6.366c.525.273.86.678.741.9l-2.651,4.867c-.119.22-.64.157-1.155-.136l-12.046-7.1C87.878,288.482,87.648,288.15,87.751,287.96Z" transform="translate(-80.123 -280.064)" fill="#0ec0c0"/>
              <path id="Path_884310" data-name="Path 884310" d="M83.532,280.942l-1.768,3.246.376.219,2.873,1.677.376.219,1.886-3.464Z" transform="translate(-79.094 -279.598)" fill="#788f9b"/>
              <path id="Path_884311" data-name="Path 884311" d="M81.852,284.854l2.377-4.364a.39.39,0,0,1,.531-.065l2.155,1.173c.21.114.315.331.233.482l-2.377,4.364a.389.389,0,0,1-.53.065l-2.155-1.174C81.876,285.22,81.771,285,81.852,284.854Z" transform="translate(-79.105 -279.496)" fill="#0ec0c0"/>
              <path id="Path_884312" data-name="Path 884312" d="M79.949,279.717l21.923,12-1.04,1.91-21.923-12Z" transform="translate(-78.601 -279.386)" fill="#b1bac3" opacity="0.54" style="mix-blend-mode: overlay;isolation: isolate"/>
            </g>
            <g id="Group_1110003" data-name="Group 1110003">
              <g id="Group_1110001" data-name="Group 1110001">
                <path id="Path_884313" data-name="Path 884313" d="M65.271,282.926a17.947,17.947,0,1,0-23.515-9.551A17.947,17.947,0,0,0,65.271,282.926Zm-1.007-2.385a15.358,15.358,0,1,1,8.173-20.124A15.358,15.358,0,0,1,64.264,280.541Z" transform="translate(-40.337 -248.441)" fill="#b1bac3"/>
              </g>
              <g id="Group_1110002" data-name="Group 1110002" transform="translate(1.913 2.566)">
                <path id="Path_884314" data-name="Path 884314" d="M64.462,280.6a14.843,14.843,0,1,0-19.448-7.9A14.843,14.843,0,0,0,64.462,280.6Zm.226,1.452a15.881,15.881,0,1,1,8.424-20.8A15.867,15.867,0,0,1,64.688,282.054Z" transform="translate(-42.649 -251.543)" fill="#788f9b"/>
              </g>
            </g>
          </g>
          <path id="_9" data-name="9" d="M48.275,276.6a13.734,13.734,0,0,1-3.433-8.4c-.127-3.312.335-6.55,2.376-9.225a13.752,13.752,0,0,1,3.329-3.112,13.364,13.364,0,0,1,1.944-1.068,9.815,9.815,0,0,0,1.972-.688,16.27,16.27,0,0,0-4.825,6.431,11.384,11.384,0,0,0,1.125,9.8,10.784,10.784,0,0,0,3.527,3.546c1.593.969,3.492.957,5.064,1.858a5.186,5.186,0,0,1,2.409,2.505c1.293,3.334-3.091,3.694-5.273,3.251A14.937,14.937,0,0,1,48.275,276.6Z" transform="translate(-41.111 -249.42)" fill="#f0f1f1" opacity="0.34"/>
        </g>
      </g>
    </g>
  </g>
</svg>
