<svg xmlns="http://www.w3.org/2000/svg" xmlns:xlink="http://www.w3.org/1999/xlink" width="146.047" height="153.061" viewBox="0 0 146.047 153.061">
  <defs>
    <clipPath id="clip-path">
      <rect id="Rectangle_400938" data-name="Rectangle 400938" width="146.047" height="146.047" fill="none"/>
    </clipPath>
    <clipPath id="clip-path-2">
      <rect id="Rectangle_401492" data-name="Rectangle 401492" width="78.518" height="78.519" transform="translate(2.586 3.366)" fill="#65002f" stroke="#707070" stroke-width="1"/>
    </clipPath>
  </defs>
  <g id="Group_1102002" data-name="Group 1102002" transform="translate(23057.35 3814.13)">
    <g id="Group_1102000" data-name="Group 1102000" transform="translate(-22915.977 -3661.069) rotate(180)">
      <path id="Path_874029" data-name="Path 874029" d="M628.338,579.513l-66.859-37.731V466.315l66.859-37.733L695.2,466.315v75.467ZM564.5,540.077,628.338,576.1l63.838-36.028V468.02L628.338,431.99,564.5,468.02Z" transform="translate(-561.479 -428.582)" fill="#00d5e4"/>
      <path id="Path_874030" data-name="Path 874030" d="M574.457,477.967v68.8l61.084,34.4,61.083-34.4v-68.8l-61.083-34.4Z" transform="translate(-568.682 -436.9)" fill="#fde0ea"/>
    </g>
    <g id="Mask_Group_1098697" data-name="Mask Group 1098697" transform="translate(-23024.281 -3779.366)" clip-path="url(#clip-path-2)">
      <g id="Group_1109713" data-name="Group 1109713" transform="translate(-2717.761 -136.886)">
        <path id="Path_883623" data-name="Path 883623" d="M2759.99,302.474v-4.8c-1.769,0-3.515-.036-5.258.015a2.3,2.3,0,0,1-2.047-.959c-2.4-3-4.895-5.919-7.268-8.937a8,8,0,0,0-6.93-3.337c-2.278.074-4.561.006-6.841.017a6.022,6.022,0,0,0-6.407,6.375c-.016,5,0,10,0,15v1.359h-2.4v-1.129q0-7.562,0-15.124a8.452,8.452,0,0,1,5.34-8.334,1.35,1.35,0,0,0,.637-.926,6.386,6.386,0,0,0-1.192-4.964,17.574,17.574,0,0,1-1.548-2.564,6.816,6.816,0,0,1,5.88-10.09c2.92-.055,5.842-.028,8.762-.006a3.54,3.54,0,0,1,3.58,2.628,3.665,3.665,0,0,1-1.582,4.065,1.8,1.8,0,0,0-.642,1.212c-.069,1.838-.087,3.682-.014,5.52a4.278,4.278,0,0,1-2.584,4.448c.929.178,1.647.262,2.335.458a9.787,9.787,0,0,1,5.011,3.332c2.372,2.917,4.777,5.808,7.126,8.742a1.9,1.9,0,0,0,1.717.813c1.678-.055,3.366-.1,5.039,0a19.134,19.134,0,0,0,6.708-1.028,1.833,1.833,0,0,0,.953-.921c1.191-2.485,2.357-4.983,3.463-7.507a1.986,1.986,0,0,1,2.083-1.389c5.561.047,11.123.018,16.684.024,1.8,0,2.223.672,1.463,2.322-2.005,4.354-4.059,8.687-5.995,13.071a9.96,9.96,0,0,0-.775,3.427c-.134,2.512-1.473,3.973-3.96,3.977-7.362.012-14.724,0-22.085.011a3.91,3.91,0,0,1-3.549-1.835,1.52,1.52,0,0,0-1.032-.546,23.089,23.089,0,0,0-2.759-.02,6.367,6.367,0,0,1-5.37-2.411c-.586-.7-1.223-1.358-2.023-2.241v6.957h-2.465c0-2.75-.041-5.5.021-8.244a3.247,3.247,0,0,0-.972-2.558c-1.2-1.224-2.311-2.541-3.526-3.893l1.77-1.613,6.619,7.34a27.262,27.262,0,0,0,2.679,2.907,5.169,5.169,0,0,0,2.7,1.286C2754.165,302.58,2757.01,302.474,2759.99,302.474Zm29.368-15.6c-5.088,0-10-.005-14.9.018a.85.85,0,0,0-.614.42c-1.191,2.518-2.35,5.05-3.484,7.506,1.751,1.919,5.169,1.887,5.393,5.256,2.326,0,4.6.032,6.879-.035a1.459,1.459,0,0,0,.983-.76c1.02-2.079,1.971-4.192,2.941-6.3C2787.468,291,2788.377,289.016,2789.358,286.878Zm-55.719-9.6c0-1.115-.017-2.068.008-3.02a2.516,2.516,0,0,1,.183-1.158c1.422-2.427,2.652-5.185,6.341-4.228a1.53,1.53,0,0,0,.358,0c.826.009,1.469-.3,1.471-1.2s-.637-1.2-1.465-1.2c-2.836,0-5.675-.054-8.509.019a4.394,4.394,0,0,0-3.778,6.621c.645,1.193,1.339,2.365,2.1,3.489a1.8,1.8,0,0,0,1.115.646A14.624,14.624,0,0,0,2733.639,277.273Zm28.846,25.434a14.87,14.87,0,0,0,1.528-.821c1.072-.765,2.065-1.653,3.188-2.331a3.662,3.662,0,0,1,2.061-.487,36.438,36.438,0,0,1,3.777.672,32.6,32.6,0,0,0-4.5-2.974,1.447,1.447,0,0,0-.929-.033c-1.7.373-3.385.778-5.126,1.185Zm-22.852-31.356c-1.695-.149-1.6-.072-2.5,1-1.049,1.247-1.058,2.641-1.139,4.135a2.882,2.882,0,0,0,1.342,2.721,1.707,1.707,0,0,0,1.386.3,1.754,1.754,0,0,0,.875-1.252C2739.681,275.986,2739.634,273.71,2739.634,271.352Zm32.528,31.187c-.262,1.953.067,2.34,1.947,2.342q3.346,0,6.693,0c1.871,0,2.212-.408,1.926-2.342Zm-35.306-20.533c-1.6-1.541-3.1-3.133-5.55-2.146v2.146Zm26.941,22.818h5.93c-.049-.8-.095-1.531-.134-2.166C2767.072,301.686,2765.862,303.9,2763.8,304.824Z" transform="translate(0 -91.135)" fill="#4b0d6b"/>
        <path id="Path_883624" data-name="Path 883624" d="M2849.255,198.916c0-1.143-.01-2.136,0-3.128.018-1.317.377-1.664,1.743-1.671q3.06-.015,6.12,0c1.4.007,1.732.35,1.732,1.8q.007,12.12,0,24.24v1.51h2.3v2.371h-43.048v-2.276h2.335c0-1.56-.012-2.986,0-4.412.014-1.257.383-1.62,1.662-1.63,1.793-.014,3.586,0,5.537,0,0-1.148.011-2.214,0-3.278s.493-1.535,1.539-1.527c1.834.015,3.668,0,5.666,0,0-1.461-.007-2.845,0-4.229.009-1.425.344-1.763,1.764-1.771,1.755-.01,3.51,0,5.436,0,0-1.451-.007-2.835,0-4.218.009-1.434.34-1.773,1.754-1.781C2845.565,198.909,2847.321,198.916,2849.255,198.916Zm7.121,22.743V196.611h-4.663v25.048Zm-11.836-20.288v20.29h4.648v-20.29Zm-2.573,20.293V207.417h-4.653v14.247Zm-11.832-8.289v8.247h4.65v-8.247Zm-2.543,4.83h-4.647v3.452h4.647Z" transform="translate(-72.405 -37.984)" fill="#4b0d6b"/>
        <path id="Path_883625" data-name="Path 883625" d="M2771.069,190.9v-2.356h45.8c1.967,0,2.185-.221,2.185-2.21q0-18.844,0-37.687c0-1.876-.244-2.114-2.158-2.114H2762.4c-1.957,0-2.167.217-2.167,2.225q0,10.142,0,20.284v1.4h-2.344c-.018-.376-.052-.763-.052-1.15q0-10.5,0-21c0-2.755,1.382-4.155,4.108-4.156q27.726-.005,55.451,0c2.649,0,4.051,1.418,4.052,4.092q.007,19.324,0,38.647c0,2.568-1.391,4.061-3.839,4.063q-22.864.017-45.729,0C2771.647,190.937,2771.414,190.914,2771.069,190.9Z" transform="translate(-26.598 0)" fill="#4b0d6b"/>
        <path id="Path_883626" data-name="Path 883626" d="M2803.066,185.59v-2.273c1.36,0,2.673.06,3.975-.032a1.993,1.993,0,0,0,1.3-.695,3.763,3.763,0,0,1,4.448-1.432,1.789,1.789,0,0,0,1.354-.191q2.521-1.73,4.927-3.623a2.148,2.148,0,0,0,.725-1.337,3.674,3.674,0,0,1,4.548-3.388,2.488,2.488,0,0,0,1.6-.35c.954-.578,1.813-1.309,2.722-1.963,1.114-.8,2.2-1.419,2.09-3.23-.091-1.472,1.141-2.505,2.65-2.856a3.261,3.261,0,0,1,3.68,1.389,1.84,1.84,0,0,0,1.84.924c1.988-.06,3.979-.019,6.031-.019v2.4c-2.058,0-4.122.028-6.184-.015a1.618,1.618,0,0,0-1.634.85,3.552,3.552,0,0,1-4.237,1.346,1.97,1.97,0,0,0-1.458.2c-1.365.9-2.686,1.882-3.957,2.915a1.646,1.646,0,0,0-.5,1.236,3.674,3.674,0,0,1-1.487,3.578,3.3,3.3,0,0,1-3.729.254,1.161,1.161,0,0,0-1.485.178c-1.53,1.159-3.114,2.248-4.611,3.446a1.992,1.992,0,0,0-.646,1.346,3.69,3.69,0,0,1-2.523,3.677,3.635,3.635,0,0,1-4.188-1.523,1.852,1.852,0,0,0-1.2-.658c-1.273-.094-2.556-.05-3.836-.063A1.045,1.045,0,0,1,2803.066,185.59Zm32.5-17.545.016-.5c-.419-.337-.8-.863-1.266-.968a.972.972,0,0,0-1.228,1.08,1.63,1.63,0,0,0,1.026,1.162C2834.567,168.866,2835.083,168.328,2835.57,168.045Zm-11.911,6.716-.511-.013c-.3.472-.867.961-.838,1.412a1.629,1.629,0,0,0,1.106,1.083.97.97,0,0,0,1.139-1.171C2824.475,175.6,2823.972,175.195,2823.659,174.76Zm-10.875,10-.021-.512c-.439-.307-.849-.8-1.324-.876a.969.969,0,0,0-1.155,1.155,1.629,1.629,0,0,0,1.1,1.09C2811.836,185.645,2812.316,185.076,2812.784,184.765Z" transform="translate(-60.971 -15.182)" fill="#4b0d6b"/>
        <path id="Path_883627" data-name="Path 883627" d="M2990.478,174.476v2.254h-2.249v-2.254Z" transform="translate(-201.683 -23.063)" fill="#4b0d6b"/>
        <path id="Path_883628" data-name="Path 883628" d="M2785.473,244.547v2.207h-2.292v-2.207Z" transform="translate(-45.86 -76.313)" fill="#4b0d6b"/>
        <path id="Path_883629" data-name="Path 883629" d="M2774.587,158.418c.306.463.9.968.84,1.377a1.681,1.681,0,0,1-1.167,1.094c-.313.048-1.025-.664-1.048-1.066-.025-.452.524-.935.823-1.405Z" transform="translate(-38.283 -10.86)" fill="#4b0d6b"/>
        <path id="Path_883630" data-name="Path 883630" d="M2790.7,160.912c-.471.3-.958.841-1.407.81-.4-.027-1.106-.744-1.056-1.058a1.679,1.679,0,0,1,1.1-1.157c.41-.056.91.542,1.37.852Z" transform="translate(-49.701 -11.685)" fill="#4b0d6b"/>
        <path id="Path_883631" data-name="Path 883631" d="M2804.055,162c-.305-.464-.9-.969-.838-1.379a1.681,1.681,0,0,1,1.167-1.093c.314-.047,1.023.665,1.047,1.068.027.449-.523.931-.822,1.4Z" transform="translate(-61.082 -11.703)" fill="#4b0d6b"/>
      </g>
    </g>
  </g>
</svg>
