<svg xmlns="http://www.w3.org/2000/svg" xmlns:xlink="http://www.w3.org/1999/xlink" width="98.579" height="98.578" viewBox="0 0 98.579 98.578">
  <defs>
    <clipPath id="clip-path">
      <rect id="Rectangle_401223" data-name="Rectangle 401223" width="98.579" height="98.578" transform="translate(0)" fill="#bfa9fe"/>
    </clipPath>
    <clipPath id="clip-path-2">
      <rect id="Rectangle_401223-2" data-name="Rectangle 401223" width="88.117" height="88.116" fill="#d7c9fe"/>
    </clipPath>
  </defs>
  <g id="Group_1109960" data-name="Group 1109960" transform="translate(-1104.796 -1615.097)">
    <g id="Group_1102154" data-name="Group 1102154" transform="translate(183.463 1204.092)">
      <g id="Group_1099654" data-name="Group 1099654" transform="translate(921.333 411.006)">
        <g id="Group_1099652" data-name="Group 1099652" transform="translate(0 0)" clip-path="url(#clip-path)">
          <path id="Path_873521" data-name="Path 873521" d="M98.579,76.737a21.9,21.9,0,0,1-21.84,21.84H21.84A21.9,21.9,0,0,1,0,76.737V21.84A21.9,21.9,0,0,1,21.84,0h54.9a21.9,21.9,0,0,1,21.84,21.841Z" transform="translate(0)" fill="#bfa9fe"/>
        </g>
      </g>
      <g id="Group_1099659" data-name="Group 1099659" transform="translate(926.103 416.728)">
        <g id="Group_1099652-2" data-name="Group 1099652" transform="translate(0 0)" clip-path="url(#clip-path-2)">
          <path id="Path_873521-2" data-name="Path 873521" d="M88.117,68.594A19.58,19.58,0,0,1,68.595,88.116H19.523A19.58,19.58,0,0,1,0,68.594V19.522A19.58,19.58,0,0,1,19.523,0H68.595A19.58,19.58,0,0,1,88.117,19.523Z" fill="#d7c9fe"/>
        </g>
      </g>
    </g>
    <g id="Group_1102155" data-name="Group 1102155" transform="translate(1120.738 1626.901)">
      <rect id="Rectangle_401104" data-name="Rectangle 401104" width="68" height="69" transform="translate(0.684 3.627)" fill="none"/>
      <g id="_14" data-name="14" transform="translate(-251.499 -351.139)">
        <path id="Path_884261" data-name="Path 884261" d="M308.465,373.794l-.338-3.755-2.828-.222c-.211-.609.877-3.029.535-3.6l.26-.478-2.673-2.659-2.284,1.629a9.7,9.7,0,0,0-1.808-.839l-.231-2.779-3.756-.321-.7,2.695a9.687,9.687,0,0,0-1.946.525l-1.948-1.963-.089.062-3,2.107,1.195,2.505a9.856,9.856,0,0,0-1.148,1.66l-2.756-.25-.966,3.642,2.542,1.159a9.62,9.62,0,0,0,.189,1.992l-2.293,1.59,1.6,3.412,2.72-.753a9.566,9.566,0,0,0,1.4,1.382l-.743,2.72,3.42,1.585,1.616-2.348a9.778,9.778,0,0,0,1.939.157l1.191,2.58,3.638-.984-.14-1.452-.135-1.4c.27-.155.538-.324.8-.5q.41-.293.782-.612l2.58,1.217,2.155-3.094-2.04-2.005a9.738,9.738,0,0,0,.5-1.873Zm-8.822,4.114a6.338,6.338,0,0,1-.788.46,6.007,6.007,0,0,1-6.13-10.294,6.271,6.271,0,0,1,.735-.434,6.008,6.008,0,0,1,6.183,10.268Z" transform="translate(0.478 -7)" fill="#065564"/>
        <path id="_7" data-name="7" d="M317.3,382.577l-.3-3.333-2.509-.2a8.475,8.475,0,0,0-.738-1.576l1.443-2.045-2.372-2.359-2.026,1.446a8.579,8.579,0,0,0-1.605-.746l-.2-2.466-3.334-.284-.617,2.39a8.581,8.581,0,0,0-1.727.467l-1.728-1.743-.078.055-2.658,1.87,1.06,2.222a8.686,8.686,0,0,0-1.019,1.473l-2.447-.224-.857,3.234,2.257,1.027a8.472,8.472,0,0,0,.168,1.769l-2.035,1.41L297.391,388l2.415-.669a8.454,8.454,0,0,0,1.244,1.226l-.658,2.414,3.035,1.406,1.433-2.083a8.753,8.753,0,0,0,1.721.139l1.058,2.29,3.229-.872-.125-1.289-.12-1.241c.24-.137.477-.287.707-.447s.473-.353.694-.544l2.29,1.081,1.912-2.745-1.81-1.78a8.588,8.588,0,0,0,.441-1.661Zm-7.829,3.651a5.522,5.522,0,0,1-.7.408,5.293,5.293,0,1,1,.7-.408Z" transform="translate(-0.076 -7.49)" fill="#4b0d6b"/>
        <g id="Group_1109983" data-name="Group 1109983" transform="translate(252.183 377.791)">
          <g id="Group_1109980" data-name="Group 1109980">
            <path id="Path_884262" data-name="Path 884262" d="M255.223,378.766h1.6v10.122h-2.254v-8.524a3.073,3.073,0,0,1-1.049.365,7.081,7.081,0,0,1-1.334.129v-.827a6.083,6.083,0,0,0,1.766-.4A3.013,3.013,0,0,0,255.223,378.766Z" transform="translate(-252.183 -378.652)" fill="#a01f4e"/>
            <path id="Path_884263" data-name="Path 884263" d="M260.212,381.318a2.453,2.453,0,0,1,.8-2.009,5.047,5.047,0,0,1,3.061-.663,5.155,5.155,0,0,1,3.079.66,2.43,2.43,0,0,1,.82,2.012v4.833a2.737,2.737,0,0,1-.792,2.123,6.966,6.966,0,0,1-6.185.007,2.743,2.743,0,0,1-.787-2.13Zm5.512-.063q0-1.473-1.191-1.581c-.125-.011-.3-.018-.537-.018a3.147,3.147,0,0,0-.672.07,1.045,1.045,0,0,0-.591.409,1.816,1.816,0,0,0-.268,1.114v4.977q0,1.37.646,1.632a2.035,2.035,0,0,0,.793.139,6.5,6.5,0,0,0,.662-.024,1.281,1.281,0,0,0,.448-.115q.711-.287.71-1.637v-4.966Z" transform="translate(-252.567 -378.646)" fill="#a01f4e"/>
            <path id="Path_884264" data-name="Path 884264" d="M270.723,381.318a2.456,2.456,0,0,1,.8-2.009,5.053,5.053,0,0,1,3.062-.663,5.157,5.157,0,0,1,3.079.66,2.43,2.43,0,0,1,.82,2.012v4.833a2.74,2.74,0,0,1-.792,2.123,6.968,6.968,0,0,1-6.186.007,2.746,2.746,0,0,1-.787-2.13Zm5.512-.063q0-1.473-1.192-1.581c-.124-.011-.3-.018-.536-.018a3.162,3.162,0,0,0-.673.07,1.046,1.046,0,0,0-.59.409,1.815,1.815,0,0,0-.269,1.114v4.977q0,1.37.647,1.632a2.032,2.032,0,0,0,.793.139,6.493,6.493,0,0,0,.661-.024,1.291,1.291,0,0,0,.449-.115q.711-.287.71-1.637v-4.966Z" transform="translate(-253.07 -378.646)" fill="#a01f4e"/>
            <path id="Path_884265" data-name="Path 884265" d="M283.653,378.766h1.6v10.122H283v-8.524a3.1,3.1,0,0,1-1.049.365,7.092,7.092,0,0,1-1.335.129v-.827a6.076,6.076,0,0,0,1.766-.4A3.007,3.007,0,0,0,283.653,378.766Z" transform="translate(-253.543 -378.652)" fill="#a01f4e"/>
            <path id="Path_884266" data-name="Path 884266" d="M288.641,381.318a2.456,2.456,0,0,1,.8-2.009,5.051,5.051,0,0,1,3.062-.663,5.153,5.153,0,0,1,3.078.66,2.428,2.428,0,0,1,.821,2.012v4.833a2.74,2.74,0,0,1-.792,2.123,6.968,6.968,0,0,1-6.186.007,2.743,2.743,0,0,1-.787-2.13Zm5.513-.063q0-1.473-1.192-1.581c-.125-.011-.3-.018-.537-.018a3.16,3.16,0,0,0-.672.07,1.04,1.04,0,0,0-.59.409,1.815,1.815,0,0,0-.269,1.114v4.977q0,1.37.646,1.632a2.036,2.036,0,0,0,.793.139,6.5,6.5,0,0,0,.662-.024,1.286,1.286,0,0,0,.448-.115q.711-.287.711-1.637v-4.966Z" transform="translate(-253.927 -378.646)" fill="#a01f4e"/>
            <path id="Path_884267" data-name="Path 884267" d="M299.151,381.318a2.459,2.459,0,0,1,.8-2.009,5.054,5.054,0,0,1,3.063-.663,5.149,5.149,0,0,1,3.077.66,2.428,2.428,0,0,1,.821,2.012v4.833a2.74,2.74,0,0,1-.792,2.123,6.968,6.968,0,0,1-6.186.007,2.747,2.747,0,0,1-.787-2.13Zm5.512-.063q0-1.473-1.191-1.581c-.124-.011-.3-.018-.536-.018a3.154,3.154,0,0,0-.672.07,1.039,1.039,0,0,0-.591.409,1.816,1.816,0,0,0-.268,1.114v4.977q0,1.37.645,1.632a2.039,2.039,0,0,0,.793.139,6.523,6.523,0,0,0,.663-.024,1.281,1.281,0,0,0,.448-.115q.711-.287.71-1.637v-4.966Z" transform="translate(-254.43 -378.646)" fill="#a01f4e"/>
          </g>
          <g id="Group_1109981" data-name="Group 1109981" transform="translate(1.664 13.926)">
            <path id="Path_884268" data-name="Path 884268" d="M253.931,395.944a2.454,2.454,0,0,1,.8-2.008,5.045,5.045,0,0,1,3.062-.664,5.148,5.148,0,0,1,3.079.661,2.428,2.428,0,0,1,.82,2.011v4.833a2.741,2.741,0,0,1-.792,2.124,6.972,6.972,0,0,1-6.186.006,2.746,2.746,0,0,1-.786-2.13Zm5.512-.063q0-1.473-1.191-1.581-.187-.017-.537-.017a3.163,3.163,0,0,0-.673.069,1.051,1.051,0,0,0-.59.408,1.817,1.817,0,0,0-.268,1.115v4.976q0,1.368.646,1.633a2.032,2.032,0,0,0,.793.138,6.225,6.225,0,0,0,.662-.024,1.3,1.3,0,0,0,.448-.114q.711-.287.71-1.638v-4.966Z" transform="translate(-253.931 -393.272)" fill="#a01f4e"/>
            <path id="Path_884269" data-name="Path 884269" d="M264.44,395.944a2.455,2.455,0,0,1,.806-2.008,5.045,5.045,0,0,1,3.062-.664,5.144,5.144,0,0,1,3.078.661,2.426,2.426,0,0,1,.821,2.011v4.833a2.747,2.747,0,0,1-.792,2.124,6.973,6.973,0,0,1-6.186.006,2.747,2.747,0,0,1-.788-2.13Zm5.513-.063q0-1.473-1.192-1.581c-.124-.011-.3-.017-.536-.017a3.16,3.16,0,0,0-.672.069,1.039,1.039,0,0,0-.59.408,1.811,1.811,0,0,0-.268,1.115v4.976q0,1.368.646,1.633a2.036,2.036,0,0,0,.793.138,6.2,6.2,0,0,0,.662-.024,1.3,1.3,0,0,0,.448-.114q.71-.287.71-1.638v-4.966Z" transform="translate(-254.434 -393.272)" fill="#a01f4e"/>
            <path id="Path_884270" data-name="Path 884270" d="M277.371,393.392h1.6v10.122h-2.253V394.99a3.053,3.053,0,0,1-1.05.365,7.084,7.084,0,0,1-1.334.129v-.827a6.038,6.038,0,0,0,1.765-.4A3,3,0,0,0,277.371,393.392Z" transform="translate(-254.907 -393.278)" fill="#a01f4e"/>
            <path id="Path_884271" data-name="Path 884271" d="M284.781,393.392h1.6v10.122h-2.252V394.99a3.055,3.055,0,0,1-1.049.365,7.1,7.1,0,0,1-1.335.129v-.827a6.045,6.045,0,0,0,1.766-.4A3.006,3.006,0,0,0,284.781,393.392Z" transform="translate(-255.261 -393.278)" fill="#a01f4e"/>
            <path id="Path_884272" data-name="Path 884272" d="M289.769,395.944a2.454,2.454,0,0,1,.8-2.008,5.046,5.046,0,0,1,3.063-.664,5.146,5.146,0,0,1,3.078.661,2.426,2.426,0,0,1,.82,2.011v4.833a2.744,2.744,0,0,1-.792,2.124,6.97,6.97,0,0,1-6.185.006,2.743,2.743,0,0,1-.787-2.13Zm5.512-.063q0-1.473-1.191-1.581-.187-.017-.537-.017a3.16,3.16,0,0,0-.672.069,1.044,1.044,0,0,0-.591.408,1.818,1.818,0,0,0-.268,1.115v4.976q0,1.368.645,1.633a2.039,2.039,0,0,0,.793.138,6.209,6.209,0,0,0,.663-.024,1.293,1.293,0,0,0,.448-.114q.713-.287.711-1.638v-4.966Z" transform="translate(-255.645 -393.272)" fill="#a01f4e"/>
            <path id="Path_884273" data-name="Path 884273" d="M303.73,393.392h1.6v10.122h-2.254V394.99a3.047,3.047,0,0,1-1.049.365,7.086,7.086,0,0,1-1.335.129v-.827a6.051,6.051,0,0,0,1.767-.4A3.012,3.012,0,0,0,303.73,393.392Z" transform="translate(-256.168 -393.278)" fill="#a01f4e"/>
          </g>
          <g id="Group_1109982" data-name="Group 1109982" transform="translate(1.124 27.852)">
            <path id="Path_884274" data-name="Path 884274" d="M256.4,408.019H258v10.12h-2.252v-8.523a3.055,3.055,0,0,1-1.049.365,7.106,7.106,0,0,1-1.335.129v-.827a6.043,6.043,0,0,0,1.766-.4A3.013,3.013,0,0,0,256.4,408.019Z" transform="translate(-253.363 -407.903)" fill="#a01f4e"/>
            <path id="Path_884275" data-name="Path 884275" d="M261.392,410.57a2.457,2.457,0,0,1,.8-2.008,5.045,5.045,0,0,1,3.063-.665,5.145,5.145,0,0,1,3.078.662,2.427,2.427,0,0,1,.82,2.011V415.4a2.742,2.742,0,0,1-.792,2.124,6.97,6.97,0,0,1-6.185.006,2.742,2.742,0,0,1-.787-2.13Zm5.513-.063q0-1.472-1.192-1.581-.187-.017-.537-.017a3.225,3.225,0,0,0-.672.069,1.047,1.047,0,0,0-.591.408,1.819,1.819,0,0,0-.268,1.115v4.976q0,1.368.645,1.633a2.041,2.041,0,0,0,.794.138,6.212,6.212,0,0,0,.662-.024,1.326,1.326,0,0,0,.448-.114q.711-.287.711-1.638v-4.966Z" transform="translate(-253.747 -407.897)" fill="#a01f4e"/>
            <path id="Path_884276" data-name="Path 884276" d="M274.323,408.019h1.6v10.12h-2.253v-8.523a3.056,3.056,0,0,1-1.049.365,7.09,7.09,0,0,1-1.335.129v-.827a6.05,6.05,0,0,0,1.767-.4A3.02,3.02,0,0,0,274.323,408.019Z" transform="translate(-254.22 -407.903)" fill="#a01f4e"/>
            <path id="Path_884277" data-name="Path 884277" d="M279.311,410.57a2.454,2.454,0,0,1,.8-2.008,5.044,5.044,0,0,1,3.062-.665,5.142,5.142,0,0,1,3.078.662,2.424,2.424,0,0,1,.821,2.011V415.4a2.742,2.742,0,0,1-.792,2.124,6.97,6.97,0,0,1-6.185.006,2.743,2.743,0,0,1-.788-2.13Zm5.513-.063q0-1.472-1.191-1.581-.187-.017-.537-.017a3.212,3.212,0,0,0-.672.069,1.044,1.044,0,0,0-.591.408,1.82,1.82,0,0,0-.268,1.115v4.976q0,1.368.645,1.633a2.039,2.039,0,0,0,.793.138,6.221,6.221,0,0,0,.663-.024,1.32,1.32,0,0,0,.448-.114q.711-.287.711-1.638v-4.966Z" transform="translate(-254.604 -407.897)" fill="#a01f4e"/>
            <path id="Path_884278" data-name="Path 884278" d="M291.366,410.57a2.451,2.451,0,0,1,.8-2.008c.535-.443.086-.665,1.591-.665s4,.221,4.549.662a2.427,2.427,0,0,1,.82,2.011V415.4a2.739,2.739,0,0,1-.792,2.124,6.97,6.97,0,0,1-6.185.006,2.746,2.746,0,0,1-.787-2.13Zm5.512-.063q0-1.472-1.191-1.581c-.125-.011-.3-.017-.536-.017a3.218,3.218,0,0,0-.672.069,1.044,1.044,0,0,0-.591.408,1.819,1.819,0,0,0-.269,1.115v4.976q0,1.368.646,1.633a2.04,2.04,0,0,0,.793.138,6.2,6.2,0,0,0,.662-.024,1.32,1.32,0,0,0,.448-.114q.711-.287.71-1.638v-4.966Z" transform="translate(-255.181 -407.897)" fill="#a01f4e"/>
            <path id="Path_884279" data-name="Path 884279" d="M304.3,408.019h1.6v10.12h-2.253v-8.523a3.054,3.054,0,0,1-1.05.365,7.074,7.074,0,0,1-1.334.129v-.827a6.051,6.051,0,0,0,1.766-.4A3.014,3.014,0,0,0,304.3,408.019Z" transform="translate(-255.654 -407.903)" fill="#a01f4e"/>
          </g>
        </g>
        <g id="Group_1109988" data-name="Group 1109988" transform="translate(260.843 374.37)">
          <g id="_8" data-name="8" transform="translate(0)">
            <g id="Group_1109984" data-name="Group 1109984" transform="translate(33.718 27.254)">
              <path id="Path_884280" data-name="Path 884280" d="M296.715,406.624l1.54-2.828a.34.34,0,0,1,.451-.069l8.624,4.376c.238.121.368.342.288.49l-1.793,3.291c-.081.149-.336.16-.568.025l-8.354-4.871A.337.337,0,0,1,296.715,406.624Z" transform="translate(-296.69 -403.676)" fill="#b1bac3"/>
              <path id="Path_884281" data-name="Path 884281" d="M304.813,411.735l2.145-3.938c.073-.135.334-.137.578,0l2.508,1.364c.243.133.384.353.309.488l-2.144,3.938c-.073.135-.334.136-.579,0l-2.506-1.365C304.88,412.089,304.74,411.87,304.813,411.735Z" transform="translate(-297.078 -403.868)" fill="#788f9b"/>
              <path id="Path_884282" data-name="Path 884282" d="M305.234,412.291l2.43-4.46c.11-.2.541-.187.963.031l13.277,6.792c.561.291.918.724.79.957l-2.827,5.192c-.128.233-.684.168-1.232-.145l-12.851-7.575C305.371,412.848,305.125,412.493,305.234,412.291Z" transform="translate(-297.098 -403.868)" fill="#0ec0c0"/>
              <path id="Path_884283" data-name="Path 884283" d="M301.567,405.182l-1.886,3.464.4.234,3.065,1.788.4.234,2.013-3.7Z" transform="translate(-296.833 -403.748)" fill="#788f9b"/>
              <path id="Path_884284" data-name="Path 884284" d="M299.768,409.439l2.536-4.658a.416.416,0,0,1,.566-.069l2.3,1.252c.225.122.337.352.249.512l-2.536,4.658a.417.417,0,0,1-.567.069l-2.3-1.252C299.792,409.829,299.681,409.6,299.768,409.439Z" transform="translate(-296.836 -403.722)" fill="#0ec0c0"/>
              <path id="Path_884285" data-name="Path 884285" d="M298.144,404.046l23.388,12.806-1.109,2.037-23.389-12.806Z" transform="translate(-296.707 -403.694)" fill="#b1bac3" opacity="0.54" style="mix-blend-mode: overlay;isolation: isolate"/>
            </g>
            <g id="Group_1109987" data-name="Group 1109987">
              <g id="Group_1109985" data-name="Group 1109985">
                <path id="Path_884286" data-name="Path 884286" d="M287.878,411.842a19.146,19.146,0,1,0-25.087-10.189A19.147,19.147,0,0,0,287.878,411.842ZM286.8,409.3a16.385,16.385,0,1,1,8.719-21.469A16.385,16.385,0,0,1,286.8,409.3Z" transform="translate(-261.278 -375.053)" fill="#b1bac3"/>
              </g>
              <g id="Group_1109986" data-name="Group 1109986" transform="translate(2.041 2.737)">
                <path id="Path_884287" data-name="Path 884287" d="M286.692,408.929a15.834,15.834,0,1,0-20.748-8.426A15.835,15.835,0,0,0,286.692,408.929Zm.241,1.549a16.943,16.943,0,1,1,8.987-22.187A16.927,16.927,0,0,1,286.933,410.478Z" transform="translate(-263.421 -377.928)" fill="#788f9b"/>
              </g>
            </g>
          </g>
          <path id="_9" data-name="9" d="M269.118,404.305a14.659,14.659,0,0,1-3.662-8.963c-.135-3.533.357-6.988,2.536-9.841a14.689,14.689,0,0,1,3.552-3.321,14.248,14.248,0,0,1,2.075-1.139,10.532,10.532,0,0,0,2.1-.735,17.364,17.364,0,0,0-5.148,6.861,12.148,12.148,0,0,0,1.2,10.453,11.5,11.5,0,0,0,3.763,3.784c1.7,1.033,3.726,1.021,5.4,1.982a5.537,5.537,0,0,1,2.57,2.673c1.379,3.555-3.3,3.941-5.625,3.468A15.946,15.946,0,0,1,269.118,404.305Z" transform="translate(-261.477 -375.305)" fill="#f0f1f1" opacity="0.34"/>
        </g>
      </g>
    </g>
  </g>
</svg>
