<svg xmlns="http://www.w3.org/2000/svg" width="62.504" height="62.504" viewBox="0 0 62.504 62.504">
  <g id="Group_1072167" data-name="Group 1072167" transform="translate(-279.816 -1198.717)">
    <g id="Group_1072053" data-name="Group 1072053" transform="translate(279.816 1198.717)">
      <circle id="Ellipse_4742" data-name="Ellipse 4742" cx="31.252" cy="31.252" r="31.252" transform="translate(0)" fill="#ffb12d"/>
    </g>
    <g id="Group_1108004" data-name="Group 1108004" transform="translate(-1417.217 1118.325)">
      <path id="Path_882727" data-name="Path 882727" d="M1711.606,127.365c.132-.161.254-.33.4-.481a7.84,7.84,0,0,0,2.25-5.649,1.755,1.755,0,0,0-.233-.857A16.728,16.728,0,1,1,1731.712,128a16.282,16.282,0,0,1-12.063-2.062.941.941,0,0,0-1.079-.032,12.541,12.541,0,0,1-6.279,1.653c-.207,0-.413-.025-.62-.037Zm11.7-13.26c.24.055.449.105.658.15a17.4,17.4,0,0,1,6.615,2.74,1.426,1.426,0,0,1,.489.547,1.5,1.5,0,0,0,2.938-.534c.009-1.195,0-2.39,0-3.584v-.561c1.313-.2,1.987-.766,1.974-1.716a2.486,2.486,0,0,0-.346-1.161,1.9,1.9,0,0,0-1.628-.761c0-.228,0-.424,0-.621,0-1.231.015-2.462-.01-3.693a1.48,1.48,0,0,0-1.319-1.488,1.539,1.539,0,0,0-1.593,1.05,1.149,1.149,0,0,1-.445.569c-1.286.69-2.557,1.427-3.9,1.985a31.125,31.125,0,0,1-3.435,1.006Zm-1.428-6.255c-1.1,0-2.131-.053-3.158.012a3.166,3.166,0,0,0-2.9,3.012,3.074,3.074,0,0,0,2.423,3.232,30.726,30.726,0,0,0,3.633.193Zm.193,7.776h-2.3c.13,1.006.254,1.971.381,2.934a3.71,3.71,0,0,0,.113.694c.142.423.483.489.88.424,1.032-.169,1.406-.383,1.353-.871C1722.38,117.751,1722.215,116.7,1722.068,115.625Zm17.614-8.779c.053-.646-.472-.988-.958-.733-.64.336-1.261.708-1.883,1.077a.617.617,0,0,0-.3.911c.239.411.6.417.981.2.58-.334,1.169-.653,1.734-1.01A2.209,2.209,0,0,0,1739.683,106.846Zm.025,8.5c-.063-.1-.141-.352-.311-.46-.655-.416-1.334-.8-2.017-1.169a.584.584,0,0,0-.837.25.557.557,0,0,0,.162.816c.7.441,1.424.861,2.165,1.235C1739.226,116.2,1739.651,115.882,1739.708,115.347Zm-.123-3.657c.344,0,.687.009,1.03,0a.627.627,0,0,0,.683-.625.605.605,0,0,0-.634-.668c-.722-.026-1.446-.026-2.168,0a.606.606,0,0,0-.631.671.632.632,0,0,0,.689.62C1738.9,111.7,1739.241,111.689,1739.584,111.69Z" transform="translate(0 0)" fill="#34054d"/>
    </g>
  </g>
</svg>
