<svg xmlns="http://www.w3.org/2000/svg" width="107" height="107" viewBox="0 0 107 107">
  <g id="Group_1110138" data-name="Group 1110138" transform="translate(-285 -4849)">
    <g id="Grupo_156312" data-name="Grupo 156312" transform="translate(-3.668 400.563)">
      <path id="Elipse_5845" data-name="Elipse 5845" d="M53.5,0A53.5,53.5,0,1,1,0,53.5,53.5,53.5,0,0,1,53.5,0Z" transform="translate(288.668 4448.437)" fill="#065564"/>
    </g>
    <g id="Group_1098918" data-name="Group 1098918" transform="translate(-101.527 -1168.426)">
      <path id="Path_873216" data-name="Path 873216" d="M0,0H63.184V63.186H0Z" transform="translate(408.527 6040.213)" fill="none"/>
      <g id="Group_1109588" data-name="Group 1109588" transform="translate(-2263.73 5973.819)">
        <path id="Path_883389" data-name="Path 883389" d="M2723.635,79.921c-.736,2.451-1.4,4.593-2.007,6.748a1.127,1.127,0,0,0,.153.933c.7.7,1.23,1.689,2.47,1.615a1.017,1.017,0,0,1,.743.383c.9,1.237,2.094,1.068,3.336.8a9.611,9.611,0,0,0,7.526-9.11,9.454,9.454,0,0,0-6.668-9.367,2.979,2.979,0,0,1-2.171-2.073,13.068,13.068,0,0,0-1.728-2.958c-.451-.643-.767-1.273-.146-1.863.682-.648,1.418-.37,1.9.33.737,1.081,1.355,2.243,2.09,3.326a2.84,2.84,0,0,0,1.165,1.088,11.923,11.923,0,0,1-1.091,22.787c-1.74.461-1.8.689-.546,1.96.667.674,1.364,1.32,2,2.023a3.476,3.476,0,1,1-5,4.825,20.948,20.948,0,0,0-1.681-1.637c-.583-.44-1.32-.672-1.926-1.087a13.591,13.591,0,0,1-2.084-1.681,1.1,1.1,0,0,0-1.582-.222,9.7,9.7,0,0,1-7.507,1,3.456,3.456,0,0,0-4.327,1.675c-.552.863-.963,1.816-1.446,2.724a2.6,2.6,0,0,1-2.24,1.7,2.568,2.568,0,0,1-2.252-1.683c-.484-.907-.891-1.862-1.44-2.727a3.524,3.524,0,0,0-4.321-1.709,10.532,10.532,0,0,1-11.268-4.3,1.431,1.431,0,0,0-1.779-.709,11.941,11.941,0,0,1-6.575-22.88,2.549,2.549,0,0,0,1.335-1.216,11.208,11.208,0,0,1,14.338-6.195c.581.223.944.34,1.474-.217a14.264,14.264,0,0,1,21.073.1,4.826,4.826,0,0,1,.362.5,11.768,11.768,0,0,1,6.971-.948c.241.051.487.088.726.15.753.2,1.25.722.913,1.431a1.7,1.7,0,0,1-1.382.808,9.484,9.484,0,0,0-6.474.853,1.648,1.648,0,0,1-2.281-.556,11.988,11.988,0,0,0-18.862,0,1.672,1.672,0,0,1-2.39.5,8.907,8.907,0,0,0-12.61,5.223,2.677,2.677,0,0,1-1.56,1.481c-5.26,1.718-8.165,6.861-6.659,11.967a9.638,9.638,0,0,0,12.153,6.462,1.934,1.934,0,0,1,2.562,1c2.2,3.744,5.425,5.139,9.6,4.23,2.922-.636,5.219.4,6.865,3.145.5.836.908,1.727,1.478,2.821.418-.833.737-1.472,1.059-2.11,1.762-3.5,4.247-4.644,8.028-3.66a7.334,7.334,0,0,0,6.253-1.625,5.406,5.406,0,0,1-.463-.533c-.765-1.142-1.588-1.17-2.874-.616a13.506,13.506,0,1,1,7.686-16.318c.266.873.623,1.225,1.526,1.137.735-.072,1.483-.008,2.225-.011.784,0,1.3.349,1.284,1.16s-.561,1.127-1.328,1.124C2725.26,79.918,2724.28,79.921,2723.635,79.921Zm-3.309-2.4c-1.108-5.62-7.149-9.273-13.166-8.039a11.213,11.213,0,0,0-8.54,13.185c1.144,5.854,7.155,9.979,12.792,8.78,5.885-1.252,10.232-6.62,9.219-11.458h-2.039a23.963,23.963,0,0,1-.435,2.838,8.9,8.9,0,0,1-17.437-1.735,9.133,9.133,0,0,1,6.139-9.163,8.758,8.758,0,0,1,10.518,4.272C2718.1,77.672,2718.951,77.835,2720.326,77.519Zm-17.115,3.269c1.454.4,2.606.171,3.317-1.36a8.778,8.778,0,0,1,1.44-2.142c.39-.432,1.085-.988,1.5-.889s.828.888.992,1.447a27.286,27.286,0,0,1,.548,3.09c1.376-1.552,1.78-3.914,4.45-3.305a6.415,6.415,0,0,0-7.791-3.474A6.169,6.169,0,0,0,2703.211,80.788Zm.662,2.637a6.411,6.411,0,0,0,7.915,3.18c2.8-.969,4.762-4.02,4.242-6.583a1.62,1.62,0,0,0-2.127.885,32.537,32.537,0,0,1-2.369,3.465c-.335.427-1.094.987-1.4.86a2.376,2.376,0,0,1-1.038-1.446,24.9,24.9,0,0,1-.535-3.048c-.718.912-1.139,1.856-1.859,2.248A8.586,8.586,0,0,1,2703.873,83.425Zm20.767,13.641a36.067,36.067,0,0,0,2.809,2.722A1.086,1.086,0,0,0,2729,98.281a35.939,35.939,0,0,0-2.639-2.8Zm-.59-5.173-3,2.795,1.173,1.171,2.9-2.7Zm-3.957-2.553-1.463,1.446,1.249,1.479,1.67-1.471Z" transform="translate(0)" fill="#fff"/>
        <path id="Path_883390" data-name="Path 883390" d="M2716.174,273.139a5.184,5.184,0,0,0-3.853-4.014c-.278-.077-.651-.037-.826-.209a11.191,11.191,0,0,1-1.019-1.3c.456-.316.944-.94,1.364-.9a7.25,7.25,0,0,1,6.059,4.281c.091.184.155.381.239.569s.17.36.31.654a23.825,23.825,0,0,1,2.566-1.227c2.01-.688,4.033-1.352,6.088-1.885,1.3-.337,1.94-.892,1.977-2.259.025-.936,0-1.873,0-3.116-1.3.329-2.411.55-3.468.923-.244.086-.45.7-.421,1.057.07.837-.023,1.557-.972,1.689-.976.135-1.135-.628-1.384-1.384a10.5,10.5,0,0,0-1.271-2.614c-.469-.686-.87-1.306-.13-1.932.715-.6,1.381-.22,1.927.394l.62.7,5.013-1.184v-4.924a26.2,26.2,0,0,1-3.235-.454,6.325,6.325,0,0,1-4.27-3.472,1.8,1.8,0,0,0-.951-.683c-.413-.163-.972-.06-1.3-.3-.439-.319-1-.855-1-1.3-.008-.764.672-1.015,1.442-.931a7.987,7.987,0,0,0,2.192.089c.747-.131,1.426-.652,2.172-.781a1.971,1.971,0,0,1,1.555.391c.2.211-.012,1.089-.307,1.446a5.819,5.819,0,0,1-1.542.99c.574,1.695,3.16,3.065,4.785,2.48a1.056,1.056,0,0,0,.528-.792c.047-1.4.069-2.806-.012-4.2a3.157,3.157,0,0,0-2.334-2.885c-3.269-1.2-6.4-.657-9.465.733-.262.119-.51.268-.772.39-.673.314-1.331.337-1.7-.406a1.1,1.1,0,0,1,.62-1.63,33.529,33.529,0,0,1,5.215-1.83,11.6,11.6,0,0,1,7.379.764,19.629,19.629,0,0,1,2.283,1.476c4.219-3.385,8.876-3.037,13.543-1.063,4.84,2.048,7.441,5.905,8.25,11.061a4.57,4.57,0,0,0,.951,2.049c2.241,2.781,3.732,5.782,3.49,9.491-.317,4.842-4.982,9.576-9.433,9.172a20.918,20.918,0,0,1-5.274-1.582c-2.685-1.011-5.3-2.192-7.984-3.217-1.156-.442-2.393-.674-3.573-1-1.09.3-2.307.581-3.483.981-1.862.632-3.706,1.322-5.54,2.031-2.294.887-4.523,1.971-6.868,2.683a6.4,6.4,0,0,1-5.618-1.2c-4.521-3.171-6.184-8.839-3.523-13.655,1.741-3.151,3.643-6.15,4.376-9.74a7.089,7.089,0,0,1,1.1-2.063c.386-.632.889-1.17,1.708-.691.853.5.633,1.173.284,1.921a34.42,34.42,0,0,0-1.638,3.968,1.545,1.545,0,0,0,.5,1.39,36.408,36.408,0,0,0,3.882,1.845c.693.3,1.109.016,1.379-.729a5.586,5.586,0,0,1,1.15-2.018,1.764,1.764,0,0,1,1.567-.32c.637.255.726.953.3,1.574a9.141,9.141,0,0,0-1.491,5.874c.022.441-.689.92-1.062,1.381-.4-.389-1.186-.818-1.149-1.159.2-1.909-.9-2.363-2.432-2.75a20.918,20.918,0,0,1-3.4-1.511c-4.428,3.8-5.785,9.73-.941,14.174A5.556,5.556,0,0,0,2716.174,273.139Zm34.111-14.888a20.376,20.376,0,0,1-3.59,1.589c-1.5.356-2.415.847-2.27,2.607.031.377-.778.824-1.2,1.239-.359-.473-1.045-.963-1.021-1.416a9.169,9.169,0,0,0-1.509-5.868.966.966,0,0,1,.345-1.56,1.765,1.765,0,0,1,1.561.364,6.537,6.537,0,0,1,1.193,2.137c.254.673.664.843,1.226.6a42.323,42.323,0,0,0,4-1.878,1.527,1.527,0,0,0,.5-1.3c-1.123-6.727-9.633-11.34-15.9-8.659a3.164,3.164,0,0,0-2.142,2.9c-.056,1.358-.067,2.722.007,4.078a1.191,1.191,0,0,0,.722.861c1.456.3,4.285-.724,4.608-2.46a9,9,0,0,1-1.723-1.18,1.349,1.349,0,0,1-.181-1.287c.245-.335,1.043-.682,1.3-.526a6.809,6.809,0,0,0,4.984.843c.326-.057.967.487,1.1.875.1.3-.274.933-.611,1.165-.412.283-1.029.246-1.515.449a2.267,2.267,0,0,0-1.149.767,6.332,6.332,0,0,1-4.075,3.355,26.1,26.1,0,0,1-3.422.513v4.918l5.047,1.163c.167-.188.406-.469.656-.739.565-.607,1.236-.938,1.929-.293.656.61.281,1.193-.146,1.844a11.992,11.992,0,0,0-1.315,2.724c-.26.772-.48,1.486-1.443,1.308-.861-.159-.971-.837-.912-1.626.028-.366-.133-1.009-.361-1.088-1.087-.378-2.226-.606-3.519-.931,0,1.284-.024,2.225.006,3.164a1.921,1.921,0,0,0,1.923,2.14,17.308,17.308,0,0,1,6.417,2.064c.755.369,1.52.718,2.318,1.094.2-.482.334-.825.493-1.154a7.47,7.47,0,0,1,6.013-4.38c.751-.107,1.438.19,1.378.989-.033.449-.6.908-1.016,1.26-.221.188-.631.144-.948.232a4.76,4.76,0,0,0-3.534,4.081,5.62,5.62,0,0,0,7.087-1.164C2755.889,267.681,2754.612,262.18,2750.285,258.251Z" transform="translate(-27.42 -139.519)" fill="#fff"/>
        <path id="Path_883391" data-name="Path 883391" d="M2729.68,129.628c-1.359,0-2.719-.008-4.077,0-.8.007-1.4-.243-1.428-1.149-.026-.932.607-1.18,1.391-1.182q4.2-.011,8.4,0c.79,0,1.418.294,1.378,1.2-.038.894-.673,1.13-1.464,1.125C2732.48,129.622,2731.08,129.628,2729.68,129.628Z" transform="translate(-42.649 -52.446)" fill="#fff"/>
        <path id="Path_883392" data-name="Path 883392" d="M2729.781,142.369c1.4,0,2.8-.008,4.2,0,.8.006,1.4.305,1.361,1.215-.04.82-.605,1.1-1.358,1.1q-4.263,0-8.525,0c-.774,0-1.276-.336-1.289-1.158-.014-.851.535-1.148,1.287-1.154C2726.9,142.36,2728.339,142.369,2729.781,142.369Z" transform="translate(-42.646 -63.789)" fill="#fff"/>
        <path id="Path_883393" data-name="Path 883393" d="M2729.764,159.743c-1.4,0-2.8-.006-4.2,0-.816.005-1.383-.284-1.384-1.187,0-.856.566-1.121,1.314-1.122q4.262-.006,8.523,0c.746,0,1.325.276,1.333,1.115.008.894-.574,1.194-1.387,1.191C2732.564,159.739,2731.164,159.743,2729.764,159.743Z" transform="translate(-42.654 -75.128)" fill="#fff"/>
        <path id="Path_883394" data-name="Path 883394" d="M2727.43,112.988a6.838,6.838,0,0,1-1.962-.047c-.431-.134-1-.7-1.005-1.082a1.5,1.5,0,0,1,.954-1.128,19.576,19.576,0,0,1,4.064.006,1.524,1.524,0,0,1,.977,1.144c-.006.374-.617.925-1.065,1.061A6.972,6.972,0,0,1,2727.43,112.988Z" transform="translate(-42.867 -39.903)" fill="#fff"/>
        <path id="Path_883395" data-name="Path 883395" d="M2751.888,178.309a4.324,4.324,0,0,1-1.458-.112c-.377-.167-.862-.657-.85-.988.015-.409.445-1.089.781-1.146a9.227,9.227,0,0,1,2.926-.022,1.415,1.415,0,0,1,.85,1.1c-.009.377-.509.868-.914,1.072a3.255,3.255,0,0,1-1.334.038Z" transform="translate(-61.77 -89.051)" fill="#fff"/>
      </g>
    </g>
  </g>
</svg>
