<svg xmlns="http://www.w3.org/2000/svg" width="62.504" height="62.504" viewBox="0 0 62.504 62.504">
  <g id="Group_1072055" data-name="Group 1072055" transform="translate(-279.816 -1198.717)">
    <g id="Group_1072053" data-name="Group 1072053" transform="translate(279.816 1198.717)">
      <circle id="Ellipse_4742" data-name="Ellipse 4742" cx="31.252" cy="31.252" r="31.252" transform="translate(0)" fill="#ffb12d"/>
    </g>
    <g id="Group_1108005" data-name="Group 1108005" transform="translate(-1812.725 1045.379)">
      <path id="Path_882728" data-name="Path 882728" d="M2263.619,315.874a8.184,8.184,0,0,0-1.235.221,2.762,2.762,0,0,0-2,2.462,17.056,17.056,0,0,0,0,3.31,2.847,2.847,0,0,0,2.929,2.609c.07,0,.139.01.272.02,0,.8.043,1.6-.028,2.385-.02.224-.336.517-.581.611-3.207,1.227-6.425,2.425-9.64,3.628a1.309,1.309,0,0,1-.254.031v-.541c0-4.6.007-9.2-.011-13.8a.669.669,0,0,1,.52-.751c2.827-1.043,5.652-2.095,8.464-3.176.924-.355,1.665.153,1.578,1.119C2263.573,314.628,2263.619,315.259,2263.619,315.874Z" transform="translate(-128.312 -129.744)" fill="#34054d"/>
      <path id="Path_882729" data-name="Path 882729" d="M2134.665,315.828c0-.785-.024-1.521.007-2.255a.949.949,0,0,1,1.378-.814c1.45.523,2.891,1.072,4.335,1.613,1.477.554,2.95,1.115,4.429,1.662.256.095.395.2.394.513q-.018,7.135-.01,14.27c0,.069-.014.138-.029.265-.163-.048-.309-.081-.447-.133q-4.579-1.711-9.156-3.426c-.749-.28-.9-.494-.905-1.279,0-.594,0-1.188,0-1.812a6.288,6.288,0,0,0,.965-.1,2.7,2.7,0,0,0,2.215-2.322,16.384,16.384,0,0,0,.045-3.564,2.842,2.842,0,0,0-2.9-2.591C2134.9,315.847,2134.818,315.839,2134.665,315.828Z" transform="translate(-22.373 -129.657)" fill="#34054d"/>
      <path id="Path_882730" data-name="Path 882730" d="M2196.529,178.933a5.589,5.589,0,1,1,5.581-5.572A5.541,5.541,0,0,1,2196.529,178.933Z" transform="translate(-72.728)" fill="#34054d"/>
      <path id="Path_882731" data-name="Path 882731" d="M2171.278,284.182a10.7,10.7,0,0,1,3.266-2.04.781.781,0,0,1,.58.064,7.526,7.526,0,0,0,7.626,0,.778.778,0,0,1,.581-.062,10.687,10.687,0,0,1,3.244,2.027,3.3,3.3,0,0,1-.374.2c-2.278.856-4.556,1.715-6.841,2.553a1.185,1.185,0,0,1-.75.033c-2.351-.86-4.693-1.747-7.037-2.628C2171.5,284.3,2171.425,284.255,2171.278,284.182Z" transform="translate(-55.137 -102.309)" fill="#34054d"/>
      <path id="Path_882732" data-name="Path 882732" d="M2113.579,363.874c0,.437,0,.875,0,1.312a.876.876,0,0,1-.7.929c-2.083.41-3.367-.909-3.214-2.523a2.247,2.247,0,0,1,1.927-1.992c1.384-.082,2.117-.223,1.993,1.749-.011.174,0,.35,0,.525Z" transform="translate(0 -173.393)" fill="#34054d"/>
      <path id="Path_882733" data-name="Path 882733" d="M2340.844,363.879c0-.42-.012-.84,0-1.26a.918.918,0,0,1,.96-.959,5.474,5.474,0,0,1,1.2.046,2.3,2.3,0,0,1-.232,4.518c-.087.011-.174.018-.262.023-1.125.066-1.783-.067-1.677-1.581C2340.859,364.4,2340.844,364.141,2340.844,363.879Z" transform="translate(-206.831 -173.472)" fill="#34054d"/>
    </g>
  </g>
</svg>
