<svg xmlns="http://www.w3.org/2000/svg" xmlns:xlink="http://www.w3.org/1999/xlink" width="146.047" height="153.061" viewBox="0 0 146.047 153.061">
  <defs>
    <clipPath id="clip-path">
      <rect id="Rectangle_400938" data-name="Rectangle 400938" width="146.047" height="146.047" fill="none"/>
    </clipPath>
    <clipPath id="clip-path-2">
      <rect id="Rectangle_401492" data-name="Rectangle 401492" width="78.518" height="78.519" transform="translate(2.586 3.366)" fill="#4b0d6b" stroke="#707070" stroke-width="1"/>
    </clipPath>
  </defs>
  <g id="Group_1100240" data-name="Group 1100240" transform="translate(23057.35 3814.13)">
    <g id="Group_1102000" data-name="Group 1102000" transform="translate(-22915.977 -3661.069) rotate(180)">
      <path id="Path_874029" data-name="Path 874029" d="M628.338,579.513l-66.859-37.731V466.315l66.859-37.733L695.2,466.315v75.467ZM564.5,540.077,628.338,576.1l63.838-36.028V468.02L628.338,431.99,564.5,468.02Z" transform="translate(-561.479 -428.582)" fill="#00d5e4"/>
      <path id="Path_874030" data-name="Path 874030" d="M574.457,477.967v68.8l61.084,34.4,61.083-34.4v-68.8l-61.083-34.4Z" transform="translate(-568.682 -436.9)" fill="#c5fdff"/>
    </g>
    <g id="Mask_Group_1098697" data-name="Mask Group 1098697" transform="translate(-23024.281 -3779.366)" clip-path="url(#clip-path-2)">
      <g id="Group_1109712" data-name="Group 1109712" transform="translate(-2415.571 -264.816)">
        <path id="Path_883617" data-name="Path 883617" d="M2487.9,275.827H2425.63c-3.4,0-4.79,1.373-4.79,4.737v53.678c0,3.464,1.355,4.814,4.832,4.814h62.271c3.361,0,4.731-1.356,4.731-4.679q0-26.9,0-53.8C2492.675,277.2,2491.292,275.827,2487.9,275.827Zm1.724,4.883v7.246H2423.9q0-.815-.005-1.624c-.01-2.31-.018-4.491.059-6.715.021-.05.154-.286.9-.768a1.755,1.755,0,0,1,.461,0c.132.01.264.02.387.02q31.026,0,62.051,0C2489.573,278.869,2489.625,278.921,2489.625,280.71Zm0,10.419v10.124q0,16.575,0,33.151c0,1.472-.137,1.607-1.626,1.607q-31.26,0-62.521,0c-1.438,0-1.587-.143-1.587-1.528q0-21.37,0-42.741c0-.2.01-.4.022-.614Z" transform="translate(0)" fill="#4b0d6b"/>
        <path id="Path_883618" data-name="Path 883618" d="M2465.2,376.385c.067,0,.132,0,.2,0,1.12,0,2.241,0,3.41,0h.942v.8q0,1.386,0,2.772c0,2.409.006,4.9-.009,7.351a2.1,2.1,0,0,0,.536,1.607,1.976,1.976,0,0,0,1.541.458c.784-.039,1.587-.03,2.438-.021l.656.006v.177c0,.5,0,.941,0,1.387,0,2.108.368,2.479,2.43,2.479q15.719,0,31.438,0c.077,0,.157,0,.237.008s.19.009.293.009a1.725,1.725,0,0,0,.773-.151,1.774,1.774,0,0,0,1-1.282,1.66,1.66,0,0,0-.926-1.439,3.579,3.579,0,0,0-1.432-.189h-.181q-12.5-.008-25.008,0h-5.475v-4.934h3.22v.142c0,.495,0,.967,0,1.439.011,1.941.423,2.361,2.321,2.361q10.547,0,21.091,0h2.812c.065,0,.132.006.2.012a1.5,1.5,0,0,0,.9-.122c1.176-.66,1.132-1.171,1.117-1.339a2.195,2.195,0,0,0-.981-1.457,1.7,1.7,0,0,0-1.109-.182c-.088.006-.174.013-.255.013h0q-9.365,0-18.731,0h-4.163V381.3h4.808q9.008,0,18.016,0c.087,0,.177,0,.269.009a2.148,2.148,0,0,0,1.165-.164,1.847,1.847,0,0,0,.992-1.462c-.03-.684-.84-1.18-1.087-1.316a1.669,1.669,0,0,0-.974-.126c-.08.007-.163.006-.237.014h-4.313q-4.672,0-9.345,0c-.208,0-.422-.01-.634-.022v-6.771h5.442q4.679,0,9.36,0h0a1.888,1.888,0,0,0,1.531-.527,1.239,1.239,0,0,0,.242-1.059c-.116-.644-.831-1.025-1.405-1.33l-.076-.041a1.63,1.63,0,0,0-.964-.112c-.083.008-.165.017-.244.017h-22.549v-4.994h5.891q8.7,0,17.4,0h.006a2.13,2.13,0,0,0,1.593-.478,1.5,1.5,0,0,0,.4-1.12c-.023-1.459-1.381-1.481-1.928-1.481h-.026l-2.292,0c-7.275.005-14.8.012-22.2-.012h-.013a1.808,1.808,0,0,0-2.035,2.094c.015.551.011,1.117.007,1.665,0,.057,0,.114,0,.171h-3.238v-4.88h5.114q12.718,0,25.434,0h0c.09,0,.185.006.281.012a2.037,2.037,0,0,0,1.168-.169,2.12,2.12,0,0,0,1.023-1.445c.081-.8-1.149-1.353-1.162-1.359a2.059,2.059,0,0,0-1.016-.107c-.091.006-.182.013-.27.013h-20.972q-5.293,0-10.585,0c-1.691,0-2.133.445-2.15,2.152-.005.528,0,1.056,0,1.624v.241h-.557c-.825,0-1.6,0-2.381,0-1.74.008-2.218.485-2.223,2.219q-.008,2.866,0,5.732,0,2.139,0,4.278c0,.237-.014.475-.03.744h-.9c-1.185,0-2.328,0-3.47,0h-.129c-.658,0-2.022-.017-2.051,1.5a1.512,1.512,0,0,0,.4,1.143A2.141,2.141,0,0,0,2465.2,376.385Zm10.19-9.447a2.016,2.016,0,0,0,1.581.5c1.1-.035,2.2-.028,3.361-.02l.957.006q0,.144,0,.285c0,.586.01,1.139-.01,1.68a2.015,2.015,0,0,0,.485,1.563,2.051,2.051,0,0,0,1.584.517c1.655-.031,3.282-.025,5-.019l1.524,0v6.8h-6.042c-2.213,0-2.547.342-2.55,2.6,0,.425,0,.849,0,1.321v.09l-.947.005c-1.161.007-2.258.014-3.359-.018a2.034,2.034,0,0,0-1.587.508,2.011,2.011,0,0,0-.484,1.577c.023.542.018,1.086.012,1.663l0,.216h-2.037V363.473h2.037l0,.217c.006.576.012,1.12-.012,1.662A2.016,2.016,0,0,0,2475.388,366.937Z" transform="translate(-32.358 -61.511)" fill="#4b0d6b"/>
        <path id="Path_883619" data-name="Path 883619" d="M2562.422,303.533a1.428,1.428,0,0,0-.927-.144c-.067.006-.134.012-.2.012h-35.283c-.063,0-.132-.007-.2-.014a1.383,1.383,0,0,0-.936.149c-.508.342-1.091.81-1.083,1.4.008.642.7,1.159,1.1,1.41a1.215,1.215,0,0,0,.653.162c.12,0,.237-.011.344-.02.08-.007.161-.015.236-.015h34.931c.085,0,.176.008.267.015a1.746,1.746,0,0,0,1.077-.151,2.171,2.171,0,0,0,1.07-1.4C2563.5,304.769,2563.562,304.254,2562.422,303.533Z" transform="translate(-78.707 -21.055)" fill="#4b0d6b"/>
        <path id="Path_883620" data-name="Path 883620" d="M2500.331,303.144c-.109-.077-.213-.15-.286-.215l-.444-.393-.39.447c-.07.081-.163.168-.26.26a1.907,1.907,0,0,0-.706,1.068c-.066.463.241.8.6,1.19.138.151.294.322.443.513l.531.685.441-.747c.122-.207.252-.393.367-.557a1.938,1.938,0,0,0,.506-1.222C2501.1,303.686,2500.691,303.4,2500.331,303.144Z" transform="translate(-59.167 -20.419)" fill="#4b0d6b"/>
        <path id="Path_883621" data-name="Path 883621" d="M2478.2,300.77l-.478-.663-.478.663c-.135.187-.281.359-.411.51-.33.386-.642.751-.55,1.214a1.952,1.952,0,0,0,.753,1.036c.1.089.2.172.271.251l.441.465.426-.478c.072-.08.164-.165.261-.256a1.95,1.95,0,0,0,.717-1.048c.08-.459-.226-.816-.55-1.195C2478.479,301.121,2478.336,300.953,2478.2,300.77Z" transform="translate(-42.375 -18.562)" fill="#4b0d6b"/>
        <path id="Path_883622" data-name="Path 883622" d="M2456.2,300.761l-.5-.643-.45.681c-.128.194-.269.373-.393.531-.316.4-.615.782-.5,1.241a1.951,1.951,0,0,0,.8,1c.106.084.207.163.285.238l.465.444.4-.5c.067-.083.154-.173.247-.269a1.969,1.969,0,0,0,.659-1.079c.059-.461-.259-.8-.6-1.166C2456.49,301.1,2456.34,300.937,2456.2,300.761Z" transform="translate(-25.601 -18.57)" fill="#4b0d6b"/>
      </g>
    </g>
  </g>
</svg>
