<svg xmlns="http://www.w3.org/2000/svg" xmlns:xlink="http://www.w3.org/1999/xlink" width="98.579" height="98.578" viewBox="0 0 98.579 98.578">
  <defs>
    <clipPath id="clip-path">
      <rect id="Rectangle_401223" data-name="Rectangle 401223" width="98.579" height="98.578" transform="translate(0)" fill="#bfa9fe"/>
    </clipPath>
    <clipPath id="clip-path-2">
      <rect id="Rectangle_401223-2" data-name="Rectangle 401223" width="88.117" height="88.116" fill="#d7c9fe"/>
    </clipPath>
  </defs>
  <g id="Group_1109544" data-name="Group 1109544" transform="translate(-401.464 -1615.097)">
    <g id="Group_1100172" data-name="Group 1100172" transform="translate(-519.869 1204.092)">
      <g id="Group_1099654" data-name="Group 1099654" transform="translate(921.333 411.006)">
        <g id="Group_1099652" data-name="Group 1099652" transform="translate(0 0)" clip-path="url(#clip-path)">
          <path id="Path_873521" data-name="Path 873521" d="M98.579,76.737a21.9,21.9,0,0,1-21.84,21.84H21.84A21.9,21.9,0,0,1,0,76.737V21.84A21.9,21.9,0,0,1,21.84,0h54.9a21.9,21.9,0,0,1,21.84,21.841Z" transform="translate(0)" fill="#bfa9fe"/>
        </g>
      </g>
      <g id="Group_1099659" data-name="Group 1099659" transform="translate(926.103 416.728)">
        <g id="Group_1099652-2" data-name="Group 1099652" transform="translate(0 0)" clip-path="url(#clip-path-2)">
          <path id="Path_873521-2" data-name="Path 873521" d="M88.117,68.594A19.58,19.58,0,0,1,68.595,88.116H19.523A19.58,19.58,0,0,1,0,68.594V19.522A19.58,19.58,0,0,1,19.523,0H68.595A19.58,19.58,0,0,1,88.117,19.523Z" fill="#d7c9fe"/>
        </g>
      </g>
    </g>
    <g id="Group_1100171" data-name="Group 1100171" transform="translate(417.406 1630.901)">
      <rect id="Rectangle_401104" data-name="Rectangle 401104" width="68" height="69" transform="translate(-2.406 -0.372)" fill="none"/>
      <g id="_3" data-name="3" transform="translate(-136.113 -25.889)">
        <g id="Group_1109806" data-name="Group 1109806" transform="translate(133.707 36.342)">
          <path id="Path_883874" data-name="Path 883874" d="M192.8,71.424v.137H144.3a10.34,10.34,0,0,1-10.539-9.076c-.026.285-.047.57-.047.86,0,5.488,4.739,9.936,10.586,9.936h48.5v-.137a10.144,10.144,0,0,0,8.908-9.8c0-.276-.02-.546-.044-.816A10.22,10.22,0,0,1,192.8,71.424Z" transform="translate(-133.708 -27.932)" fill="#7ebfce"/>
          <path id="Path_883875" data-name="Path 883875" d="M201.707,66.407c0,.415-.019.83-.049,1.237-.006.1-.012.2-.025.3C201.1,74,197.456,78.835,192.8,79.788v.181H144.3c-5.448,0-9.925-5.266-10.511-12.044-.012-.116-.025-.227-.031-.343-.025-.392-.049-.775-.049-1.175,0-7.489,4.74-13.562,10.591-13.562a8.578,8.578,0,0,1,2.858.509c.079-7.4,4.782-13.374,10.578-13.374,3.347,0,6.328,2,8.27,5.11,2.3-5.219,6.675-8.749,11.689-8.749,7.231,0,13.124,7.325,13.412,16.5h.012C196.967,52.846,201.707,58.919,201.707,66.407Z" transform="translate(-133.707 -36.342)" fill="#00d5e4"/>
          <path id="Path_883876" data-name="Path 883876" d="M201.653,69.222c-.531,5.865-4.178,10.554-8.838,11.479v.175h-48.5c-5.449,0-9.927-5.106-10.512-11.677.617-6.525,5.088-11.587,10.512-11.587a8.832,8.832,0,0,1,2.858.493c.079-7.177,4.783-12.966,10.579-12.966a9.985,9.985,0,0,1,8.271,4.953c2.3-5.059,6.676-8.482,11.691-8.482,7.232,0,13.126,7.1,13.414,16h.012C196.565,57.613,201.043,62.69,201.653,69.222Z" transform="translate(-133.723 -37.249)" fill="#c5fdff"/>
        </g>
        <g id="Group_1109807" data-name="Group 1109807" transform="translate(148.45 65.962)">
          <path id="Path_883877" data-name="Path 883877" d="M153.376,56.526v15.06h-3.3l8.119,8.119,8.12-8.119h-3.3V56.526Z" transform="translate(-150.08 -56.526)" fill="#065564"/>
        </g>
        <g id="Group_1109808" data-name="Group 1109808" transform="translate(170.946 64.582)">
          <path id="Path_883878" data-name="Path 883878" d="M188,78.039V62.978h3.3l-8.119-8.119-8.12,8.119h3.3V78.039Z" transform="translate(-175.061 -54.859)" fill="#a01f4e"/>
        </g>
      </g>
    </g>
  </g>
</svg>
