<svg xmlns="http://www.w3.org/2000/svg" width="295.5" height="192.631" viewBox="0 0 295.5 192.631">
  <g id="Group_1109776" data-name="Group 1109776" transform="translate(-27.038 -39.55)">
    <g id="Group_1109744" data-name="Group 1109744" transform="translate(27.538 153.199)">
      <g id="Group_1109741" data-name="Group 1109741" transform="translate(7.923 0)">
        <path id="Rectangle_404566" data-name="Rectangle 404566" d="M3.577,0h18.5a2.186,2.186,0,0,1,2.186,2.186V16.168a2.186,2.186,0,0,1-2.186,2.186H2.186A2.186,2.186,0,0,1,0,16.168V3.577A3.577,3.577,0,0,1,3.577,0Z" transform="translate(0 0.052)" fill="#dadef1"/>
        <path id="Path_883632" data-name="Path 883632" d="M84.724,274.269v18.263" transform="translate(-68.288 -274.102)" fill="none" stroke="#b8c1ea" stroke-miterlimit="10" stroke-width="0.25"/>
        <rect id="Rectangle_404567" data-name="Rectangle 404567" width="3.378" height="3.378" transform="translate(6.421 0.052)" fill="#fff"/>
        <rect id="Rectangle_404568" data-name="Rectangle 404568" width="3.378" height="3.378" transform="translate(19.186 15.028)" fill="#fff"/>
        <path id="Path_883633" data-name="Path 883633" d="M46.158,292l-.02-17.362a.758.758,0,0,1,.758-.758l23.506.052" transform="translate(-46.138 -273.878)" fill="none" stroke="#b8c1ea" stroke-miterlimit="10" stroke-width="1"/>
      </g>
      <g id="Group_1109742" data-name="Group 1109742" transform="translate(5.766 18.713)">
        <path id="Rectangle_404569" data-name="Rectangle 404569" d="M3.577,0H37.393a2.187,2.187,0,0,1,2.187,2.187V27.753a2.186,2.186,0,0,1-2.186,2.186H2.186A2.186,2.186,0,0,1,0,27.753V3.577A3.577,3.577,0,0,1,3.577,0Z" transform="translate(0 0.085)" fill="#dadef1"/>
        <path id="Path_883634" data-name="Path 883634" d="M104.014,318.446v29.79" transform="translate(-77.204 -318.174)" fill="none" stroke="#b8c1ea" stroke-miterlimit="10" stroke-width="0.25"/>
        <rect id="Rectangle_404570" data-name="Rectangle 404570" width="5.51" height="5.51" transform="translate(10.474 0.085)" fill="#fff"/>
        <rect id="Rectangle_404571" data-name="Rectangle 404571" width="5.51" height="5.51" transform="translate(31.296 24.514)" fill="#fff"/>
        <path id="Path_883635" data-name="Path 883635" d="M41.108,347.366l-.033-28.321a1.237,1.237,0,0,1,1.237-1.237l38.343.086" transform="translate(-41.075 -317.808)" fill="none" stroke="#b8c1ea" stroke-miterlimit="10" stroke-width="1"/>
      </g>
      <g id="Group_1109743" data-name="Group 1109743" transform="translate(0 48.633)">
        <path id="Rectangle_404572" data-name="Rectangle 404572" d="M3.577,0H37.393a2.186,2.186,0,0,1,2.186,2.186V27.753a2.186,2.186,0,0,1-2.186,2.186H2.186A2.186,2.186,0,0,1,0,27.753V3.577A3.577,3.577,0,0,1,3.577,0Z" transform="translate(0 0.085)" fill="#dadef1"/>
        <path id="Path_883636" data-name="Path 883636" d="M90.478,388.687v29.79" transform="translate(-63.668 -388.415)" fill="none" stroke="#b8c1ea" stroke-miterlimit="10" stroke-width="0.25"/>
        <rect id="Rectangle_404573" data-name="Rectangle 404573" width="5.51" height="5.51" transform="translate(10.474 0.085)" fill="#fff"/>
        <rect id="Rectangle_404574" data-name="Rectangle 404574" width="5.51" height="5.51" transform="translate(31.296 24.514)" fill="#fff"/>
        <path id="Path_883637" data-name="Path 883637" d="M27.572,417.607l-.034-28.321a1.237,1.237,0,0,1,1.237-1.237l38.342.086" transform="translate(-27.538 -388.049)" fill="none" stroke="#b8c1ea" stroke-miterlimit="10" stroke-width="1"/>
      </g>
    </g>
    <g id="Group_1109745" data-name="Group 1109745" transform="translate(74.374 94.239)">
      <line id="Line_3303" data-name="Line 3303" x1="43.366" transform="translate(0 1.829)" fill="none" stroke="#dadef1" stroke-miterlimit="10" stroke-width="0.25"/>
      <path id="Path_883638" data-name="Path 883638" d="M237.946,160.348a1.805,1.805,0,1,0,1.805-1.805A1.805,1.805,0,0,0,237.946,160.348Z" transform="translate(-195.155 -158.543)" fill="#dadef1"/>
    </g>
    <g id="Group_1109746" data-name="Group 1109746" transform="translate(71.078 133.357)">
      <path id="Path_883639" data-name="Path 883639" d="M134.563,241.378v24.694" transform="translate(-132.514 -241.378)" fill="none" stroke="#dadef1" stroke-miterlimit="10" stroke-width="0.25"/>
      <path id="Path_883640" data-name="Path 883640" d="M129.753,298.122a1.805,1.805,0,1,0,1.806-1.806A1.805,1.805,0,0,0,129.753,298.122Z" transform="translate(-129.753 -272.914)" fill="#dadef1"/>
    </g>
    <g id="Group_1109749" data-name="Group 1109749" transform="translate(37.802 53.615)">
      <g id="Group_1109747" data-name="Group 1109747" transform="translate(17.201 51.032)">
        <path id="Rectangle_404575" data-name="Rectangle 404575" d="M2.187,0H27.14a2.186,2.186,0,0,1,2.186,2.186V20a2.186,2.186,0,0,1-2.186,2.186H3.577A3.577,3.577,0,0,1,0,18.606V2.187A2.187,2.187,0,0,1,2.187,0Z" transform="translate(29.326 22.184) rotate(180)" fill="#f2a441"/>
        <path id="Path_883641" data-name="Path 883641" d="M114.225,192.7V214.77" transform="translate(-104.764 -192.559)" fill="none" stroke="#26244a" stroke-miterlimit="10" stroke-width="0.25"/>
        <rect id="Rectangle_404576" data-name="Rectangle 404576" width="4.083" height="4.083" transform="translate(21.566 4.083) rotate(180)" fill="#dadef1"/>
        <rect id="Rectangle_404577" data-name="Rectangle 404577" width="4.083" height="4.083" transform="translate(6.137 22.184) rotate(180)" fill="#dadef1"/>
      </g>
      <g id="Group_1109748" data-name="Group 1109748" transform="translate(0)">
        <path id="Path_883642" data-name="Path 883642" d="M98.625,140.418s2.46-3.232,8.5-4.358,8.314.748,8.314.748,3.429,5.489,1.838,8.892-2.411,8.428,1.372,9.848,8.092-3.129,9.265-8.037c.973-4.076,2.231-7.5.637-15.926s-18.878-16.966-18.878-16.966S100.58,122.567,96.558,127a14.5,14.5,0,0,0-3.759,9.627" transform="translate(-75.262 -96.708)" fill="#f4b298"/>
        <path id="Path_883643" data-name="Path 883643" d="M91.654,112.14s-10.5,3.5-16.812,8.923c-3.014,2.59-8.915,15.255-12.183,24.353-.639,1.777-1.181,3.123-1.406,3.837-1.172,3.72,2.484,7.951,6.36,5.135,3.244-2.356,5.779-10.3,5.779-10.3l9.3-19.073Z" transform="translate(-57.028 -95.284)" fill="#f4b298"/>
        <path id="Path_883644" data-name="Path 883644" d="M52.936,150.718l16.1-16.694-8.97,22.516a25.268,25.268,0,0,1-3.093,1.436,4,4,0,0,1-3.745-.382A4.826,4.826,0,0,1,52.936,150.718Z" transform="translate(-51.633 -107.847)" fill="#f4b298"/>
        <path id="Path_883645" data-name="Path 883645" d="M157.44,89.425l-15.958,16.311L130.776,96.7l-7.39-5.716,9.536-18.416C141.834,72.418,152.735,78.771,157.44,89.425Z" transform="translate(-92.822 -72.57)" fill="#f4b298"/>
        <path id="Path_883646" data-name="Path 883646" d="M85.476,157.046l10.08,1a13.68,13.68,0,0,0-2.685,7.4c-.265,2.651-.109,5.309-.262,7.964a11.442,11.442,0,0,1-.958,4.418,4.5,4.5,0,0,1-3.291,2.646,3.8,3.8,0,0,1-3.242-1.545,9.458,9.458,0,0,1-1.6-3.532A26.351,26.351,0,0,1,85.476,157.046Z" transform="translate(-69.456 -121.062)" fill="#f4b298"/>
        <path id="Path_883647" data-name="Path 883647" d="M83.3,173.044c-.836-4.679-1.107-7.13-.955-9.18a17.708,17.708,0,0,1,5.513-10.912" transform="translate(-69.242 -118.713)" fill="none" stroke="#ed796a" stroke-miterlimit="10" stroke-width="0.25"/>
        <path id="Path_883648" data-name="Path 883648" d="M64.556,168.354q3.359-9.038,7.6-17.714" transform="translate(-59.051 -117.385)" fill="none" stroke="#ed796a" stroke-miterlimit="10" stroke-width="0.25"/>
        <path id="Path_883649" data-name="Path 883649" d="M151.4,132.9a19.983,19.983,0,0,1,6.064,10.9s1.588,6.671-.486,12.38-5.7,11.368-10.794,9.36c-3.423-1.348-1.746-6.2-.672-8.581a8.746,8.746,0,0,0,.469-6.07,7.908,7.908,0,0,0-.29-.815,28.816,28.816,0,0,0-3.046-4.841" transform="translate(-103.878 -107.204)" fill="none" stroke="#ed796a" stroke-miterlimit="10" stroke-width="0.25"/>
      </g>
    </g>
    <path id="Path_883650" data-name="Path 883650" d="M510.125,165.316H564.63V215.59" transform="translate(-277.022 -66.428)" fill="none" stroke="#dadef1" stroke-miterlimit="10" stroke-width="0.25"/>
    <g id="Group_1109751" data-name="Group 1109751" transform="translate(124.475 44.804)">
      <path id="Path_883651" data-name="Path 883651" d="M378.826,103.077c5.133-7.157,10.322-14.6,18.909-16.555a23.96,23.96,0,0,1,29.076,26.538" transform="translate(-326.127 -71.438)" fill="none" stroke="#b8c1ea" stroke-linecap="round" stroke-linejoin="round" stroke-width="3" stroke-dasharray="10 20"/>
      <path id="Path_883652" data-name="Path 883652" d="M300.664,123.859c-12.89-3.541-27.787,2.442-34.647,13.915s-5.079,27.428,4.142,37.106" transform="translate(-258.981 -92.618)" fill="none" stroke="#b8c1ea" stroke-linecap="round" stroke-linejoin="round" stroke-width="3" stroke-dasharray="10 20"/>
      <path id="Path_883653" data-name="Path 883653" d="M518.489,120.044a5.739,5.739,0,0,0-7.007-1.128,6.022,6.022,0,0,0-2.526,2.6,4.8,4.8,0,0,0-.3.8l-1.524,5.213a1.321,1.321,0,0,0,1.2,1.69l3.87.192c.366.019,1.068.036,1.7.04a5.857,5.857,0,0,0,3.361-.978l.023-.015A5.684,5.684,0,0,0,518.489,120.044Zm-5.968,5.577a2.472,2.472,0,1,1,2.525.4A2.43,2.43,0,0,1,512.521,125.621Z" transform="translate(-399.75 -89.952)" fill="#dadef1"/>
      <g id="Group_1109750" data-name="Group 1109750" transform="translate(0 0)">
        <circle id="Ellipse_11870" data-name="Ellipse 11870" cx="42.52" cy="42.52" r="42.52" transform="translate(0 60.132) rotate(-45)" fill="#b8c1ea"/>
        <path id="Path_883654" data-name="Path 883654" d="M349.427,93.81c-16.351,1.528-24.839,12.363-29.015,21.246s-4.849,19.14-3.19,28.814c1.464,8.535,4.78,16.9,10.511,23.394s14.041,10.937,22.7,10.972" transform="translate(-290.283 -75.951)" fill="none" stroke="#f5f5f5" stroke-miterlimit="10" stroke-width="0.25"/>
        <path id="Path_883655" data-name="Path 883655" d="M367.974,93.81c-7.177,4.1-14.407,14.057-16.832,21.959s-2.653,16.306-2.336,24.566c.3,7.956,1.125,16.015,4.039,23.424s9.339,12.033,16.6,14.844" transform="translate(-308.83 -75.951)" fill="none" stroke="#f5f5f5" stroke-miterlimit="10" stroke-width="0.25"/>
        <path id="Path_883656" data-name="Path 883656" d="M394.308,178.236c-2.691-27.053-2.787-57.271-1.468-84.426" transform="translate(-333.696 -75.951)" fill="none" stroke="#f5f5f5" stroke-miterlimit="10" stroke-width="0.25"/>
        <path id="Path_883657" data-name="Path 883657" d="M395.9,178.6c12.882-10.091,21.867-24.809,21.868-41.173,0-20.008-7.383-37.132-22.979-43.62" transform="translate(-335.293 -75.951)" fill="none" stroke="#f5f5f5" stroke-miterlimit="10" stroke-width="0.25"/>
        <path id="Path_883658" data-name="Path 883658" d="M394.793,93.81c10.007-.044,24.514,8.973,29.473,17.666s6.031,19.171,4.876,29.112c-1.016,8.742-3.751,17.44-9.016,24.493S404.665,177.758,395.9,178.6" transform="translate(-335.293 -75.951)" fill="none" stroke="#f5f5f5" stroke-miterlimit="10" stroke-width="0.25"/>
        <path id="Path_883659" data-name="Path 883659" d="M296.6,197.1h84.98" transform="translate(-278.923 -135.244)" fill="none" stroke="#f5f5f5" stroke-miterlimit="10" stroke-width="0.25"/>
        <line id="Line_3304" data-name="Line 3304" x2="71.521" transform="translate(23.903 37.865)" fill="none" stroke="#f5f5f5" stroke-miterlimit="10" stroke-width="0.25"/>
        <path id="Path_883660" data-name="Path 883660" d="M319.57,253.427h65.348" transform="translate(-292.112 -167.577)" fill="none" stroke="#f5f5f5" stroke-miterlimit="10" stroke-width="0.25"/>
      </g>
    </g>
    <g id="Group_1109756" data-name="Group 1109756" transform="translate(41.543 175.145)">
      <g id="Group_1109752" data-name="Group 1109752" transform="translate(3.4 0.271)">
        <path id="Rectangle_404578" data-name="Rectangle 404578" d="M3.577,0H28.846a2.186,2.186,0,0,1,2.186,2.186v19.1a2.186,2.186,0,0,1-2.186,2.186H2.186A2.186,2.186,0,0,1,0,21.288V3.577A3.577,3.577,0,0,1,3.577,0Z" fill="#4a1b87"/>
        <path id="Path_883661" data-name="Path 883661" d="M117.747,326.377v23.357" transform="translate(-96.727 -326.231)" fill="none" stroke="#26244a" stroke-miterlimit="10" stroke-width="0.25"/>
        <rect id="Rectangle_404579" data-name="Rectangle 404579" width="4.32" height="4.32" transform="translate(8.212)" fill="#dadef1"/>
        <rect id="Rectangle_404580" data-name="Rectangle 404580" width="4.32" height="4.32" transform="translate(24.538 19.154)" fill="#dadef1"/>
      </g>
      <g id="Group_1109753" data-name="Group 1109753" transform="translate(32.107 0.003)">
        <path id="Rectangle_404581" data-name="Rectangle 404581" d="M3.577,0H28.846a2.186,2.186,0,0,1,2.186,2.186v19.1a2.186,2.186,0,0,1-2.186,2.186H2.186A2.186,2.186,0,0,1,0,21.288V3.577A3.577,3.577,0,0,1,3.577,0Z" fill="#f2a441"/>
        <path id="Path_883662" data-name="Path 883662" d="M185.139,325.747V349.1" transform="translate(-164.118 -325.601)" fill="none" stroke="#26244a" stroke-miterlimit="10" stroke-width="0.25"/>
        <rect id="Rectangle_404582" data-name="Rectangle 404582" width="4.32" height="4.32" transform="translate(8.212)" fill="#dadef1"/>
        <rect id="Rectangle_404583" data-name="Rectangle 404583" width="4.32" height="4.32" transform="translate(24.538 19.154)" fill="#dadef1"/>
      </g>
      <g id="Group_1109754" data-name="Group 1109754" transform="translate(2.95 23.789)">
        <path id="Rectangle_404584" data-name="Rectangle 404584" d="M3.577,0H28.846a2.186,2.186,0,0,1,2.186,2.186v19.1a2.186,2.186,0,0,1-2.186,2.186H2.186A2.186,2.186,0,0,1,0,21.288V3.577A3.577,3.577,0,0,1,3.577,0Z" transform="translate(0 0.067)" fill="#f2a441"/>
        <path id="Path_883663" data-name="Path 883663" d="M116.691,381.745V405.1" transform="translate(-95.67 -381.532)" fill="none" stroke="#26244a" stroke-miterlimit="10" stroke-width="0.25"/>
        <rect id="Rectangle_404585" data-name="Rectangle 404585" width="4.32" height="4.32" transform="translate(8.212 0.067)" fill="#dadef1"/>
        <rect id="Rectangle_404586" data-name="Rectangle 404586" width="4.32" height="4.32" transform="translate(24.538 19.221)" fill="#dadef1"/>
        <path id="Path_883664" data-name="Path 883664" d="M67.369,404.42l-.026-22.205a.97.97,0,0,1,.969-.97l30.063.067" transform="translate(-67.343 -381.245)" fill="none" stroke="#26244a" stroke-miterlimit="10" stroke-width="1"/>
      </g>
      <g id="Group_1109755" data-name="Group 1109755" transform="translate(32.112 23.789)">
        <path id="Rectangle_404587" data-name="Rectangle 404587" d="M3.577,0H28.846a2.186,2.186,0,0,1,2.186,2.186v19.1a2.186,2.186,0,0,1-2.186,2.186H2.186A2.186,2.186,0,0,1,0,21.288V3.577A3.577,3.577,0,0,1,3.577,0Z" transform="translate(0 0.067)" fill="#f2a441"/>
        <path id="Path_883665" data-name="Path 883665" d="M185.151,381.745V405.1" transform="translate(-164.13 -381.532)" fill="none" stroke="#26244a" stroke-miterlimit="10" stroke-width="0.25"/>
        <rect id="Rectangle_404588" data-name="Rectangle 404588" width="4.32" height="4.32" transform="translate(8.212 0.067)" fill="#dadef1"/>
        <rect id="Rectangle_404589" data-name="Rectangle 404589" width="4.32" height="4.32" transform="translate(24.538 19.221)" fill="#dadef1"/>
        <path id="Path_883666" data-name="Path 883666" d="M135.829,404.42l-.026-22.205a.97.97,0,0,1,.969-.97l30.063.067" transform="translate(-135.803 -381.245)" fill="none" stroke="#26244a" stroke-miterlimit="10" stroke-width="1"/>
      </g>
      <path id="Path_883667" data-name="Path 883667" d="M124.753,438.126H61.191a.773.773,0,0,1-.774-.773h0a.774.774,0,0,1,.774-.774h63.562a.774.774,0,0,1,.774.774h0A.773.773,0,0,1,124.753,438.126Z" transform="translate(-60.417 -389.22)" fill="#545dbf"/>
      <path id="Path_883668" data-name="Path 883668" d="M124.753,456.262H61.191a.774.774,0,0,1-.774-.774h0a.774.774,0,0,1,.774-.774h63.562a.774.774,0,0,1,.774.774h0A.774.774,0,0,1,124.753,456.262Z" transform="translate(-60.417 -399.631)" fill="#545dbf"/>
      <rect id="Rectangle_404590" data-name="Rectangle 404590" width="7.921" height="6.622" transform="translate(1.063 48.462)" fill="#545dbf"/>
      <rect id="Rectangle_404591" data-name="Rectangle 404591" width="7.921" height="6.622" transform="translate(28.721 48.462)" fill="#545dbf"/>
      <rect id="Rectangle_404592" data-name="Rectangle 404592" width="7.921" height="6.622" transform="translate(56.379 48.462)" fill="#545dbf"/>
      <path id="Path_883669" data-name="Path 883669" d="M62.5,440.5h63.448" transform="translate(-61.613 -391.469)" fill="none" stroke="#26244a" stroke-miterlimit="10" stroke-width="0.25"/>
      <path id="Path_883670" data-name="Path 883670" d="M62.5,454.715h63.448" transform="translate(-61.613 -399.631)" fill="none" stroke="#26244a" stroke-miterlimit="10" stroke-width="0.25"/>
      <path id="Path_883671" data-name="Path 883671" d="M69.9,325.4h58.936" transform="translate(-65.863 -325.398)" fill="none" stroke="#26244a" stroke-miterlimit="10" stroke-width="0.25"/>
      <path id="Path_883672" data-name="Path 883672" d="M135.863,348.749V325.4" transform="translate(-103.726 -325.398)" fill="none" stroke="#26244a" stroke-miterlimit="10" stroke-width="0.25"/>
    </g>
    <g id="Group_1109767" data-name="Group 1109767" transform="translate(92.207 133.26)">
      <g id="Group_1109758" data-name="Group 1109758" transform="translate(12.763 59.949)">
        <g id="Group_1109757" data-name="Group 1109757" transform="translate(27.418 9.933)">
          <path id="Path_883673" data-name="Path 883673" d="M299.175,405.554c0,4.563-1.845,10.366-4.586,13.222-1.277,1.331-5.159,1.177-8.16,1.177-7.039,0-12.746-6.447-12.746-14.4s5.706-14.4,12.746-14.4c.535,0,5.054-.069,5.572,0C298.295,392.039,299.175,398.207,299.175,405.554Z" transform="translate(-273.684 -391.126)" fill="#26244a"/>
          <ellipse id="Ellipse_11871" data-name="Ellipse 11871" cx="12.746" cy="14.399" rx="12.746" ry="14.399" transform="translate(5.572 0.033)" fill="#545dbf"/>
          <ellipse id="Ellipse_11872" data-name="Ellipse 11872" cx="5.572" cy="6.459" rx="5.572" ry="6.459" transform="translate(12.746 7.973)" fill="#b8c1ea"/>
        </g>
        <rect id="Rectangle_404593" data-name="Rectangle 404593" width="55.28" height="4.296" transform="translate(10.545 24.516)" fill="#26244a"/>
        <rect id="Rectangle_404594" data-name="Rectangle 404594" width="202.597" height="25.438" fill="#26244a"/>
      </g>
      <g id="Group_1109760" data-name="Group 1109760" transform="translate(166.798 16.433)">
        <g id="Group_1109759" data-name="Group 1109759" transform="translate(14.585 53.655)">
          <path id="Path_883674" data-name="Path 883674" d="M630.666,406.037c0,4.563-1.845,10.366-4.586,13.222-1.278,1.331-5.159,1.177-8.16,1.177-7.04,0-12.746-6.447-12.746-14.4s5.707-14.4,12.746-14.4c.535,0,5.054-.07,5.572,0C629.785,392.521,630.666,398.69,630.666,406.037Z" transform="translate(-605.174 -391.608)" fill="#26244a"/>
          <ellipse id="Ellipse_11873" data-name="Ellipse 11873" cx="12.746" cy="14.399" rx="12.746" ry="14.399" transform="translate(5.572 0.033)" fill="#545dbf"/>
          <ellipse id="Ellipse_11874" data-name="Ellipse 11874" cx="5.572" cy="6.459" rx="5.572" ry="6.459" transform="translate(12.746 7.973)" fill="#b8c1ea"/>
        </g>
        <path id="Path_883675" data-name="Path 883675" d="M624.693,296.172a7.733,7.733,0,0,0-6.567-5.252L600.182,288.9l-9.921-20.047a6.165,6.165,0,0,0-1.369-1.821c-1.773-1.617-5.484-1.356-6.849-1.361-4.56-.017-11.109-.031-11.109,0v65.7h14.831c1.986,0,3.156-5.051,3.5-6.771.016-.081.025-.126.029-.152s.012-.049.019-.081c1.352-5.917,3.174-6.762,4.2-7.881,2.129-2.33,6.064-3.039,8.932-3.039,12.4-.71,14.819,9.9,14.819,9.9l1.075,5.981h6.725V298.554A7.953,7.953,0,0,0,624.693,296.172Z" transform="translate(-570.934 -265.648)" fill="#4a1b87"/>
        <rect id="Rectangle_404595" data-name="Rectangle 404595" width="54.124" height="6.287" transform="translate(0 36.271)" fill="#f2a441"/>
        <path id="Path_883676" data-name="Path 883676" d="M570.934,329.276H585.05s-.437-15.2,14.2-15.406l-.017-18.075-9.737-19.42c-1.274-2.425-4.216-3.631-6.955-3.6H571.892" transform="translate(-570.934 -269.737)" fill="none" stroke="#26244a" stroke-miterlimit="10" stroke-width="0.25"/>
        <path id="Path_883677" data-name="Path 883677" d="M574.092,295.145q.282-7.49.563-14.979a2.875,2.875,0,0,1,.59-2,2.544,2.544,0,0,1,1.831-.486l5.745,0a9.482,9.482,0,0,1,4.748.827,9.142,9.142,0,0,1,3.238,3.669c2.943,5.312,4.664,9,6.892,13.577a2.527,2.527,0,0,1-2.106,3.684c-5.851.068-13.071.528-18.023.185a4.086,4.086,0,0,1-2.546-.772C574.069,297.984,574.043,296.467,574.092,295.145Z" transform="translate(-572.739 -272.554)" fill="#dadef1"/>
        <path id="Path_883678" data-name="Path 883678" d="M596.979,300.729l-10.074,8.63c-2.833.051-8.864.485-10.051-.555l17.038-14.1Z" transform="translate(-574.332 -282.324)" fill="#fff" opacity="0.5"/>
        <path id="Path_883679" data-name="Path 883679" d="M590.807,285.093,574.078,299.26l.12-3.993,15-12.5Z" transform="translate(-572.739 -275.473)" fill="#fff" opacity="0.5"/>
        <path id="Path_883680" data-name="Path 883680" d="M625.69,319.178v-7.157l1.835,3.784a.7.7,0,0,1,.069.3v2.376a.7.7,0,0,1-.694.695Z" transform="translate(-602.366 -292.268)" fill="#26244a"/>
        <path id="Path_883681" data-name="Path 883681" d="M615.6,311.355c.148.147,5.387,6.456,5.387,6.456" transform="translate(-596.574 -291.885)" fill="none" stroke="#26244a" stroke-miterlimit="10" stroke-width="0.25"/>
        <path id="Path_883682" data-name="Path 883682" d="M609.309,306.978v5.866a1.237,1.237,0,0,0,1.156,1.3h2a1.237,1.237,0,0,0,1.156-1.3v-5.769a1.244,1.244,0,0,0-1.107-1.3l-2-.1A1.229,1.229,0,0,0,609.309,306.978Z" transform="translate(-592.963 -288.624)" fill="#4a1b87"/>
        <path id="Path_883683" data-name="Path 883683" d="M683.062,325.239s-.954,4.676.93,5.539,5.124.364,5.124.364S688.414,325.748,683.062,325.239Z" transform="translate(-635.161 -299.855)" fill="#f2a441"/>
        <path id="Path_883684" data-name="Path 883684" d="M685.334,406.158h-7.2l-3.476-15.433h10.674a2.546,2.546,0,0,1,2.546,2.546v10.341A2.546,2.546,0,0,1,685.334,406.158Z" transform="translate(-630.476 -337.447)" fill="#26244a"/>
        <path id="Rectangle_404596" data-name="Rectangle 404596" d="M1.875,0H5.044a0,0,0,0,1,0,0V3.751a0,0,0,0,1,0,0H1.875A1.875,1.875,0,0,1,0,1.875v0A1.875,1.875,0,0,1,1.875,0Z" transform="translate(49.079 46.563)" fill="#dadef1"/>
      </g>
      <g id="Group_1109766" data-name="Group 1109766">
        <rect id="Rectangle_404597" data-name="Rectangle 404597" width="42.715" height="83.437" transform="translate(2.945)" fill="#b8c1ea"/>
        <path id="Path_883685" data-name="Path 883685" d="M286.548,308.479v-81.36h116.42a5.318,5.318,0,0,1,5.319,5.319v76.041h-56.45v-1.856a14.818,14.818,0,0,0-14.818-14.818h-8.924c-5.94,0-9.411,3.978-10.122,9.875l-2.3,6.8Z" transform="translate(-240.888 -227.098)" fill="#dadef1"/>
        <rect id="Rectangle_404598" data-name="Rectangle 404598" width="35.857" height="26.204" transform="translate(6.648 6.255)" fill="#545dbf"/>
        <rect id="Rectangle_404599" data-name="Rectangle 404599" width="35.857" height="45.857" transform="translate(6.648 32.459)" fill="#545dbf"/>
        <path id="Path_883686" data-name="Path 883686" d="M230.82,315.538,194.963,303.27H230.82Z" transform="translate(-188.315 -270.811)" fill="#26244a"/>
        <g id="Group_1109761" data-name="Group 1109761" transform="translate(43.481 73.799)">
          <path id="Path_883687" data-name="Path 883687" d="M282.956,401.083a.762.762,0,1,1-.762-.762A.762.762,0,0,1,282.956,401.083Z" transform="translate(-281.431 -400.321)" fill="#f2a441"/>
          <path id="Path_883688" data-name="Path 883688" d="M282.956,406.384a.762.762,0,1,1-.762-.762A.763.763,0,0,1,282.956,406.384Z" transform="translate(-281.431 -403.364)" fill="#f2a441"/>
          <path id="Path_883689" data-name="Path 883689" d="M282.956,411.686a.762.762,0,1,1-.762-.762A.763.763,0,0,1,282.956,411.686Z" transform="translate(-281.431 -406.408)" fill="#f2a441"/>
        </g>
        <g id="Group_1109762" data-name="Group 1109762" transform="translate(3.947 73.799)">
          <path id="Path_883690" data-name="Path 883690" d="M190.147,401.083a.762.762,0,1,1-.762-.762A.762.762,0,0,1,190.147,401.083Z" transform="translate(-188.622 -400.321)" fill="#f2a441"/>
          <path id="Path_883691" data-name="Path 883691" d="M190.147,406.384a.762.762,0,1,1-.762-.762A.763.763,0,0,1,190.147,406.384Z" transform="translate(-188.622 -403.364)" fill="#f2a441"/>
          <path id="Path_883692" data-name="Path 883692" d="M190.147,411.686a.762.762,0,1,1-.762-.762A.762.762,0,0,1,190.147,411.686Z" transform="translate(-188.622 -406.408)" fill="#f2a441"/>
        </g>
        <path id="Path_883693" data-name="Path 883693" d="M195.718,289.863h35.374" transform="translate(-188.748 -263.115)" fill="none" stroke="#26244a" stroke-miterlimit="10" stroke-width="0.25"/>
        <path id="Path_883694" data-name="Path 883694" d="M195.718,275.622h35.374" transform="translate(-188.748 -254.94)" fill="none" stroke="#26244a" stroke-miterlimit="10" stroke-width="0.25"/>
        <path id="Path_883695" data-name="Path 883695" d="M195.718,261.382h35.374" transform="translate(-188.748 -246.766)" fill="none" stroke="#26244a" stroke-miterlimit="10" stroke-width="0.25"/>
        <path id="Path_883696" data-name="Path 883696" d="M195.342,248.1h35.374" transform="translate(-188.532 -239.142)" fill="none" stroke="#26244a" stroke-miterlimit="10" stroke-width="0.25"/>
        <rect id="Rectangle_404600" data-name="Rectangle 404600" width="37.076" height="2.548" transform="translate(5.43 78.315)" fill="#dadef1"/>
        <g id="Group_1109763" data-name="Group 1109763" transform="translate(77.34 69.637)">
          <path id="Path_883697" data-name="Path 883697" d="M386.412,404.98c0,4.563-1.845,10.367-4.586,13.222-1.278,1.332-5.159,1.177-8.16,1.177-7.039,0-12.746-6.447-12.746-14.4s5.707-14.4,12.746-14.4c.535,0,5.054-.07,5.572,0C385.531,391.464,386.412,397.633,386.412,404.98Z" transform="translate(-360.92 -390.551)" fill="#26244a"/>
          <ellipse id="Ellipse_11875" data-name="Ellipse 11875" cx="12.746" cy="14.399" rx="12.746" ry="14.399" transform="translate(5.572 0.033)" fill="#545dbf"/>
          <ellipse id="Ellipse_11876" data-name="Ellipse 11876" cx="5.572" cy="6.459" rx="5.572" ry="6.459" transform="translate(12.746 7.973)" fill="#b8c1ea"/>
        </g>
        <g id="Group_1109764" data-name="Group 1109764" transform="translate(8.786 54.812)">
          <path id="Rectangle_404601" data-name="Rectangle 404601" d="M3.577,0H28.846a2.186,2.186,0,0,1,2.186,2.186v19.1a2.186,2.186,0,0,1-2.186,2.186H2.186A2.186,2.186,0,0,1,0,21.288V3.577A3.577,3.577,0,0,1,3.577,0Z" fill="#f2a441"/>
          <path id="Path_883698" data-name="Path 883698" d="M249.331,356.09v23.357" transform="translate(-228.31 -355.944)" fill="none" stroke="#26244a" stroke-miterlimit="10" stroke-width="0.25"/>
          <rect id="Rectangle_404602" data-name="Rectangle 404602" width="4.32" height="4.32" transform="translate(8.212)" fill="#dadef1"/>
          <rect id="Rectangle_404603" data-name="Rectangle 404603" width="4.32" height="4.32" transform="translate(24.538 19.154)" fill="#dadef1"/>
        </g>
        <path id="Path_883699" data-name="Path 883699" d="M235.271,296.325h-5.943a.7.7,0,0,1-.695-.695h0a.7.7,0,0,1,.695-.694h5.943a.7.7,0,0,1,.695.694h0A.7.7,0,0,1,235.271,296.325Z" transform="translate(-207.643 -266.027)" fill="#26244a"/>
        <path id="Path_883700" data-name="Path 883700" d="M287.42,257.367c5.664.135,10.167-3.178,14.228-6.962s7.144-8.4,10.661-12.658,7.674-8.752,12.971-10.678" transform="translate(-241.388 -227.069)" fill="none" stroke="#fff" stroke-miterlimit="10" stroke-width="0.25"/>
        <path id="Path_883701" data-name="Path 883701" d="M349.973,228.626c-13.471,11.556-25.991,24.411-35.65,39.3-2.529,3.9-4.913,8.1-5.317,12.728s1.692,9.774,5.971,11.582c3.04,1.285,6.619.676,9.54-.861a31.134,31.134,0,0,0,7.595-6.282c5.808-6.02,11.376-12.338,18.005-17.439s14.532-8.974,22.893-9.228c3.244-.1,6.952.629,8.623,3.411,1.875,3.123.248,7.144-1.726,10.205-6.165,9.562-15.414,16.646-24.474,23.529" transform="translate(-253.752 -227.963)" fill="none" stroke="#fff" stroke-miterlimit="10" stroke-width="0.25"/>
        <path id="Path_883702" data-name="Path 883702" d="M451.05,356.136a44.025,44.025,0,0,1,23.3-18.832c4.732-1.579,9.8-2.322,14.058-5.024a25.19,25.19,0,0,0,8.077-8.987c2.038-3.584,3.984-7.328,5.867-10.635" transform="translate(-335.318 -276.2)" fill="none" stroke="#fff" stroke-miterlimit="10" stroke-width="0.25"/>
        <path id="Path_883703" data-name="Path 883703" d="M442.535,228.816a24.76,24.76,0,0,0-5.16,6.018,8.67,8.67,0,0,0-.574,7.725,9.6,9.6,0,0,0,4.617,4.12c5.948,2.925,12.888,2.857,19.392,1.749s12.832-3.187,19.363-4.111c3.043-.431,6.27-.581,9.057.748s3.552,4.185,4.561,7.61" transform="translate(-326.754 -228.072)" fill="none" stroke="#fff" stroke-miterlimit="10" stroke-width="0.25"/>
        <path id="Path_883704" data-name="Path 883704" d="M286.765,388.988a42.914,42.914,0,0,1,9.752-1.8,13.322,13.322,0,0,1,8.99,2.525c2.314,1.858,5.59,7.39,6.749,10.121" transform="translate(-241.012 -318.972)" fill="none" stroke="#fff" stroke-miterlimit="10" stroke-width="0.25"/>
        <path id="Path_883705" data-name="Path 883705" d="M490.489,402.72a38.447,38.447,0,0,1,21.656-10.367c4.215-.535,9.33-.8,13.212-2.524" transform="translate(-357.957 -320.499)" fill="none" stroke="#fff" stroke-miterlimit="10" stroke-width="0.25"/>
        <g id="Group_1109765" data-name="Group 1109765" transform="translate(0 62.996)">
          <path id="Path_883706" data-name="Path 883706" d="M181.228,396.109c3.2-.1,6.408-.008,9.6.007q9.5.046,19,.116,10.159.07,20.319.143,6.921.049,13.843.091a30.435,30.435,0,0,0,6.222-.428,10.148,10.148,0,0,0,6.829-4.461c1.279-2.062,1.709-4.676,2.645-6.754a8.945,8.945,0,0,1,4.593-4.944c2.556-1.059,5.507-1,8.221-1.033s5.628-.02,8.109,1.242a9.893,9.893,0,0,1,2.828,2.108,10.814,10.814,0,0,1,1.8,3.035c.012.027.159.365.052.11.035.083.069.168.1.253q.109.271.211.544c.164.442.313.89.466,1.336.21.615.418,1.225.67,1.823a13.34,13.34,0,0,0,2.57,4.052,6.941,6.941,0,0,0,5.032,2.271c.543,0,1.085-.007,1.628-.011l15.438-.107,20.4-.143,12.953-.091.653,0c2.5-.017,2.5-3.9,0-3.881l-9.335.066-19.745.139-17.714.123c-1.432.01-2.865.037-4.3.029H294.2c-.093,0-.185-.006-.278-.009-.311-.008.276.069-.02,0-.2-.048-.4-.1-.592-.166.336.113-.284-.156-.391-.221s-.515-.374-.239-.15a6.694,6.694,0,0,1-.511-.466c-.142-.142-.273-.293-.407-.442-.057-.063-.11-.13-.164-.2.263.32-.072-.1-.1-.139a12.64,12.64,0,0,1-1.077-1.852c-.059-.124-.11-.252-.171-.374-.142-.286.169.481.061.146-.039-.121-.092-.244-.136-.363a31.611,31.611,0,0,0-2.595-6.239,13.338,13.338,0,0,0-6.44-5.165,23.133,23.133,0,0,0-8.94-1.135c-2.923.046-6.017.083-8.792,1.108a12.127,12.127,0,0,0-6.264,5.222c-1.331,2.209-1.837,4.688-2.8,7.043a6.4,6.4,0,0,1-1.8,2.584,7.55,7.55,0,0,1-3.11,1.314,18.393,18.393,0,0,1-3.987.349c-3.667,0-7.333-.04-11-.065l-19.536-.138q-10.032-.07-20.063-.13c-4.19-.023-8.381-.061-12.571-.041-.35,0-.7,0-1.051.012-2.491.079-2.5,3.96,0,3.881Z" transform="translate(-179.355 -374.959)" fill="#b8c1ea"/>
        </g>
      </g>
    </g>
    <path id="Path_883707" data-name="Path 883707" d="M637.346,280.905a1.805,1.805,0,1,1-1.805-1.805A1.806,1.806,0,0,1,637.346,280.905Z" transform="translate(-347.979 -129.453)" fill="#dadef1"/>
    <path id="Path_883708" data-name="Path 883708" d="M507.719,162.883a1.805,1.805,0,1,1-1.806-1.805A1.806,1.806,0,0,1,507.719,162.883Z" transform="translate(-273.568 -65.674)" fill="#dadef1"/>
    <g id="Group_1109771" data-name="Group 1109771" transform="translate(266.473 53.176)">
      <g id="Group_1109770" data-name="Group 1109770" transform="translate(0 0)">
        <g id="Group_1109769" data-name="Group 1109769">
          <rect id="Rectangle_404604" data-name="Rectangle 404604" width="39.223" height="69.309" rx="8.041" transform="translate(0.135 0) rotate(0.112)" fill="#26244a"/>
          <rect id="Rectangle_404605" data-name="Rectangle 404605" width="35.719" height="52.28" transform="matrix(1, 0.002, -0.002, 1, 1.799, 6.277)" fill="#fff"/>
          <rect id="Rectangle_404606" data-name="Rectangle 404606" width="9.687" height="0.792" rx="0.396" transform="matrix(1, 0.012, -0.012, 1, 14.902, 2.927)" fill="#545dbf"/>
          <path id="Path_883709" data-name="Path 883709" d="M634.145,216.313a3.376,3.376,0,1,1-3.337-3.415A3.376,3.376,0,0,1,634.145,216.313Z" transform="translate(-610.811 -152.684)" fill="#545dbf"/>
          <g id="Group_1109768" data-name="Group 1109768" transform="translate(7.248 23.715)">
            <path id="Rectangle_404607" data-name="Rectangle 404607" d="M3.577,0H23.606a2.186,2.186,0,0,1,2.186,2.186V17.324a2.186,2.186,0,0,1-2.186,2.186H2.186A2.186,2.186,0,0,1,0,17.324V3.577A3.577,3.577,0,0,1,3.577,0Z" transform="translate(0.038 0) rotate(0.112)" fill="#f2a441"/>
            <path id="Path_883710" data-name="Path 883710" d="M646.533,127.577c-.012,6.387-.025,13.026-.038,19.413" transform="translate(-629.024 -127.422)" fill="none" stroke="#26244a" stroke-miterlimit="10" stroke-width="0.25"/>
            <rect id="Rectangle_404608" data-name="Rectangle 404608" width="3.591" height="3.591" transform="translate(6.864 0.013) rotate(0.112)" fill="#dadef1"/>
            <rect id="Rectangle_404609" data-name="Rectangle 404609" width="3.591" height="3.591" transform="translate(20.401 15.959) rotate(0.111)" fill="#dadef1"/>
          </g>
        </g>
      </g>
      <circle id="Ellipse_11877" data-name="Ellipse 11877" cx="8.992" cy="8.992" r="8.992" transform="translate(10.97 49.098) rotate(-81.841)" fill="#74e2dd"/>
      <path id="Path_883711" data-name="Path 883711" d="M629.672,165.2l2.63,2.928,4.6-4.986" transform="translate(-612.119 -124.122)" fill="none" stroke="#fff" stroke-miterlimit="10" stroke-width="1"/>
      <path id="Path_883712" data-name="Path 883712" d="M609.755,112.045h22.782" transform="translate(-600.686 -94.791)" fill="none" stroke="#26244a" stroke-miterlimit="10" stroke-width="0.25"/>
      <path id="Path_883713" data-name="Path 883713" d="M628.114,105.9h7.142" transform="translate(-611.225 -91.266)" fill="none" stroke="#26244a" stroke-miterlimit="10" stroke-width="0.25"/>
    </g>
    <path id="Path_883714" data-name="Path 883714" d="M247.789,113.237a4.634,4.634,0,0,0-.5,5.708,4.863,4.863,0,0,0,2.243,1.882,3.869,3.869,0,0,0,.663.193l4.286.923a1.067,1.067,0,0,0,1.291-1.067l-.071-3.127c-.006-.3-.033-.862-.066-1.368a4.729,4.729,0,0,0-.983-2.649l-.014-.017A4.589,4.589,0,0,0,247.789,113.237Zm4.839,4.481a1.962,1.962,0,0,1-3.3-.421,1.943,1.943,0,0,1,.178-2.057,2,2,0,0,1,3.126,2.478Z" transform="translate(-125.713 -39.016)" fill="#dadef1"/>
    <path id="Path_883715" data-name="Path 883715" d="M667.817,265.526a5.994,5.994,0,0,0-5.15,5.333,6.288,6.288,0,0,0,.722,3.719,5.08,5.08,0,0,0,.509.734l3.559,4.419a1.38,1.38,0,0,0,2.167-.022l2.475-3.2c.234-.3.668-.893,1.047-1.43a6.118,6.118,0,0,0,1.169-3.464v-.029A5.938,5.938,0,0,0,667.817,265.526Zm1.217,8.446a2.539,2.539,0,0,1-2.98-3.114,2.491,2.491,0,1,1,2.98,3.114Z" transform="translate(-364.564 -121.581)" fill="#dadef1"/>
    <g id="Group_1109772" data-name="Group 1109772" transform="translate(31.435 39.55)">
      <path id="Path_883716" data-name="Path 883716" d="M694.535,109.937a2.556,2.556,0,0,0-1.035-3.605,3.621,3.621,0,0,0-3.947.751,2.375,2.375,0,0,0-.732-3.477,3.864,3.864,0,0,0-3.876.291,11.376,11.376,0,0,0-2.845,2.9,1.563,1.563,0,0,0-1.485-1.508,2.657,2.657,0,0,0-2.032.995,13.061,13.061,0,0,0-2.317,3.82Z" transform="translate(-403.827 -76.092)" fill="#b8c1ea"/>
      <path id="Path_883717" data-name="Path 883717" d="M502.748,78.109a2.555,2.555,0,0,0-1.035-3.6,3.62,3.62,0,0,0-3.947.751,2.375,2.375,0,0,0-.732-3.477,3.865,3.865,0,0,0-3.876.291,11.383,11.383,0,0,0-2.846,2.9,1.562,1.562,0,0,0-1.485-1.508,2.656,2.656,0,0,0-2.032,1,13.061,13.061,0,0,0-2.317,3.819Z" transform="translate(-293.735 -57.821)" fill="#dadef1"/>
      <path id="Path_883718" data-name="Path 883718" d="M132.258,53a2.556,2.556,0,0,0-1.035-3.6,3.62,3.62,0,0,0-3.947.751,2.375,2.375,0,0,0-.733-3.477,3.863,3.863,0,0,0-3.876.292,11.382,11.382,0,0,0-2.846,2.9,1.562,1.562,0,0,0-1.485-1.508,2.657,2.657,0,0,0-2.032,1,13.047,13.047,0,0,0-2.317,3.82Z" transform="translate(-81.06 -43.408)" fill="#f5f5f5"/>
      <path id="Path_883719" data-name="Path 883719" d="M597.412,46.28a2.555,2.555,0,0,0-1.035-3.6,3.621,3.621,0,0,0-3.947.751,2.375,2.375,0,0,0-.732-3.477,3.864,3.864,0,0,0-3.876.292,11.38,11.38,0,0,0-2.845,2.9,1.563,1.563,0,0,0-1.485-1.508,2.657,2.657,0,0,0-2.033,1,13.042,13.042,0,0,0-2.317,3.82Z" transform="translate(-348.075 -39.55)" fill="#f5f5f5"/>
      <path id="Path_883720" data-name="Path 883720" d="M417.094,47.969a2.555,2.555,0,0,0-1.035-3.6,3.621,3.621,0,0,0-3.947.751,2.375,2.375,0,0,0-.732-3.477,3.865,3.865,0,0,0-3.876.292,11.373,11.373,0,0,0-2.845,2.9,1.563,1.563,0,0,0-1.485-1.507,2.655,2.655,0,0,0-2.032.995,13.062,13.062,0,0,0-2.317,3.82Z" transform="translate(-244.566 -40.52)" fill="#f5f5f5"/>
      <path id="Path_883721" data-name="Path 883721" d="M521,202.959a2.556,2.556,0,0,0-1.035-3.6,3.62,3.62,0,0,0-3.947.751,2.374,2.374,0,0,0-.732-3.477,3.864,3.864,0,0,0-3.876.291,11.383,11.383,0,0,0-2.846,2.9,1.562,1.562,0,0,0-1.485-1.508,2.655,2.655,0,0,0-2.032,1,13.05,13.05,0,0,0-2.317,3.819Z" transform="translate(-304.21 -129.489)" fill="#f5f5f5"/>
      <path id="Path_883722" data-name="Path 883722" d="M242.783,71.284a2.555,2.555,0,0,0-1.035-3.6,3.62,3.62,0,0,0-3.947.751,2.375,2.375,0,0,0-.732-3.477,3.865,3.865,0,0,0-3.876.291,11.375,11.375,0,0,0-2.845,2.9,1.563,1.563,0,0,0-1.485-1.508,2.656,2.656,0,0,0-2.032,1,13.057,13.057,0,0,0-2.317,3.82Z" transform="translate(-144.505 -53.903)" fill="#b8c1ea"/>
      <path id="Path_883723" data-name="Path 883723" d="M54.956,113.257a2.556,2.556,0,0,0-1.035-3.605,3.621,3.621,0,0,0-3.947.751,2.374,2.374,0,0,0-.732-3.477,3.863,3.863,0,0,0-3.876.291,11.383,11.383,0,0,0-2.846,2.9,1.562,1.562,0,0,0-1.485-1.508A2.654,2.654,0,0,0,39,109.6a13.058,13.058,0,0,0-2.317,3.82Z" transform="translate(-36.686 -77.997)" fill="#b8c1ea"/>
    </g>
    <path id="Path_883724" data-name="Path 883724" d="M323.343,42.842a9.1,9.1,0,0,0-5.487,9.823,9.548,9.548,0,0,0,2.5,5.176,7.6,7.6,0,0,0,1.033.879l6.936,5.1a2.1,2.1,0,0,0,3.171-.873l2.389-5.659c.226-.534.634-1.571.982-2.5a9.29,9.29,0,0,0,.371-5.537l-.011-.042A9.012,9.012,0,0,0,323.343,42.842Zm5.063,11.92a3.92,3.92,0,1,1,1.974-3.54A3.815,3.815,0,0,1,328.407,54.761Z" transform="translate(-166.594 -1.548)" fill="#41dce0"/>
    <g id="Group_1109775" data-name="Group 1109775" transform="translate(212.598 187.207)">
      <g id="Group_1109773" data-name="Group 1109773" transform="translate(7.494)">
        <path id="Rectangle_404610" data-name="Rectangle 404610" d="M3.577,0H18.709A2.186,2.186,0,0,1,20.9,2.186V13.62a2.186,2.186,0,0,1-2.186,2.186H2.186A2.186,2.186,0,0,1,0,13.62V3.577A3.577,3.577,0,0,1,3.577,0Z" transform="translate(0 0.045)" fill="#f2a441"/>
        <path id="Path_883725" data-name="Path 883725" d="M512.809,354.053V369.78" transform="translate(-498.655 -353.909)" fill="none" stroke="#26244a" stroke-miterlimit="10" stroke-width="0.25"/>
        <rect id="Rectangle_404611" data-name="Rectangle 404611" width="2.909" height="2.909" transform="translate(5.53 0.045)" fill="#dadef1"/>
        <rect id="Rectangle_404612" data-name="Rectangle 404612" width="2.909" height="2.909" transform="translate(16.523 12.942)" fill="#dadef1"/>
        <path id="Path_883726" data-name="Path 883726" d="M479.6,369.321l-.018-14.952a.653.653,0,0,1,.653-.653l20.243.045" transform="translate(-479.58 -353.716)" fill="none" stroke="#26244a" stroke-miterlimit="10" stroke-width="1"/>
      </g>
      <g id="Group_1109774" data-name="Group 1109774" transform="translate(0 15.986)">
        <path id="Rectangle_404613" data-name="Rectangle 404613" d="M3.577,0H35.64a2.186,2.186,0,0,1,2.186,2.186V26.427a2.186,2.186,0,0,1-2.186,2.186H2.186A2.186,2.186,0,0,1,0,26.427V3.577A3.577,3.577,0,0,1,3.577,0Z" transform="translate(0 0.082)" fill="#f2a441"/>
        <path id="Path_883727" data-name="Path 883727" d="M522.139,391.856v28.471" transform="translate(-496.516 -391.596)" fill="none" stroke="#26244a" stroke-miterlimit="10" stroke-width="0.25"/>
        <rect id="Rectangle_404614" data-name="Rectangle 404614" width="5.266" height="5.266" transform="translate(10.01 0.082)" fill="#dadef1"/>
        <rect id="Rectangle_404615" data-name="Rectangle 404615" width="5.266" height="5.266" transform="translate(29.91 23.429)" fill="#dadef1"/>
        <path id="Path_883728" data-name="Path 883728" d="M462.019,419.495l-.032-27.067a1.182,1.182,0,0,1,1.182-1.182l36.644.082" transform="translate(-461.987 -391.246)" fill="none" stroke="#26244a" stroke-miterlimit="10" stroke-width="1"/>
      </g>
    </g>
    <path id="Path_883729" data-name="Path 883729" d="M36.657,458.966H324.9" transform="translate(-5.235 -226.926)" fill="none" stroke="#26244a" stroke-miterlimit="10" stroke-width="0.25"/>
  </g>
</svg>
