<svg xmlns="http://www.w3.org/2000/svg" width="99.96" height="99.96" viewBox="0 0 99.96 99.96">
  <g id="Group_1110141" data-name="Group 1110141" transform="translate(-750.207 -6583)">
    <path id="Path_875803" data-name="Path 875803" d="M49.98,0A49.98,49.98,0,1,1,0,49.98,49.98,49.98,0,0,1,49.98,0Z" transform="translate(750.207 6583)" fill="#f3f9ff"/>
    <g id="Group_1102162" data-name="Group 1102162" transform="translate(348.07 556.531)">
      <rect id="Rectangle_401104" data-name="Rectangle 401104" width="67.887" height="67.887" transform="translate(418.136 6042.469)" fill="none"/>
      <g id="Group_1110079" data-name="Group 1110079" transform="translate(886.957 5525.363)">
        <path id="Path_884370" data-name="Path 884370" d="M-434.878,523.106c-18.747,0-33.943,11.518-33.943,25.726s15.2,25.726,33.943,25.726,33.943-11.518,33.943-25.726S-416.131,523.106-434.878,523.106Zm4.8,45.763c-14.361,0-26-8.045-26-17.969s11.642-17.969,26-17.969,26,8.045,26,17.969S-415.716,568.869-430.077,568.869Z" transform="translate(0)" fill="#bfa9fe"/>
        <path id="Path_884369" data-name="Path 884369" d="M-361.405,611.49h10.777l-11.279-16.412a13.1,13.1,0,0,0,3.1-1.091,11.086,11.086,0,0,0,4.561-4.163,11.8,11.8,0,0,0,1.639-6.273,11.888,11.888,0,0,0-1.623-6.272,10.953,10.953,0,0,0-4.561-4.163,15.079,15.079,0,0,0-6.865-1.479h-20.677V611.49h8.894V595.467h5.395Zm-16.035-32.622h11.069a4.468,4.468,0,0,1,3.36,1.287,4.671,4.671,0,0,1,1.25,3.4,4.783,4.783,0,0,1-1.282,3.4,4.425,4.425,0,0,1-3.327,1.287h-11.069Z" transform="translate(-54.643 -32.149)" fill="#34054d"/>
      </g>
    </g>
  </g>
</svg>
