<svg xmlns="http://www.w3.org/2000/svg" width="99.96" height="99.96" viewBox="0 0 99.96 99.96">
  <g id="Group_1110145" data-name="Group 1110145" transform="translate(-1170.207 -7029)">
    <path id="Path_884363" data-name="Path 884363" d="M49.98,0A49.98,49.98,0,1,1,0,49.98,49.98,49.98,0,0,1,49.98,0Z" transform="translate(1170.207 7029)" fill="#f3f9ff"/>
    <g id="Group_1110072" data-name="Group 1110072" transform="translate(768.07 1002.531)">
      <rect id="Rectangle_401104" data-name="Rectangle 401104" width="67.887" height="67.887" transform="translate(418.137 6042.469)" fill="none"/>
      <g id="Group_1102672" data-name="Group 1102672" transform="translate(-4168.069 7240.279)">
        <path id="Path_876798" data-name="Path 876798" d="M4620.4-607.5a21.172,21.172,0,0,0-6.256.939l2.688,7.256a13.49,13.49,0,0,1,3.567-.478,13.479,13.479,0,0,1,13.479,13.479,13.479,13.479,0,0,1-13.479,13.479A13.479,13.479,0,0,1,4606.92-586.3a13.473,13.473,0,0,1,6.587-11.584L4610.8-605.2a21.192,21.192,0,0,0-11.592,18.9,21.194,21.194,0,0,0,21.2,21.195,21.2,21.2,0,0,0,21.194-21.195A21.2,21.2,0,0,0,4620.4-607.5Z" transform="translate(0 -564.814)" fill="#34054d"/>
        <g id="Group_1102671" data-name="Group 1102671" transform="translate(4599.526 -1189.934)">
          <path id="Path_876799" data-name="Path 876799" d="M4611.133-1006.277a4.68,4.68,0,0,1,4.681-4.681,4.655,4.655,0,0,1,2.265.584l3.256-3.256a9.149,9.149,0,0,0-5.521-1.842,9.2,9.2,0,0,0-9.2,9.2,9.2,9.2,0,0,0,9.2,9.195,9.242,9.242,0,0,0,1.465-.117l-1.631-4.4A4.68,4.68,0,0,1,4611.133-1006.277Z" transform="translate(-4606.619 1015.472)" fill="#34054d"/>
          <path id="Path_876800" data-name="Path 876800" d="M4894.647-931.021a4.652,4.652,0,0,1,.692,2.45,4.668,4.668,0,0,1-1.467,3.4l1.635,4.411a9.189,9.189,0,0,0,4.347-7.814,9.155,9.155,0,0,0-1.969-5.687Z" transform="translate(-4881.466 937.766)" fill="#34054d"/>
        </g>
        <path id="Path_876801" data-name="Path 876801" d="M4946.676-1197.81a6.088,6.088,0,0,0-6.087,6.088,6.054,6.054,0,0,0,1.069,3.446l2.334-2.335a2.881,2.881,0,0,1-.222-1.111,2.905,2.905,0,0,1,2.905-2.906,2.9,2.9,0,0,1,2.906,2.906,2.9,2.9,0,0,1-2.906,2.905,2.891,2.891,0,0,1-.948-.16l-2.362,2.363a6.046,6.046,0,0,0,3.311.98,6.089,6.089,0,0,0,6.09-6.088A6.089,6.089,0,0,0,4946.676-1197.81Z" transform="translate(-326.638)" fill="#34054d"/>
      </g>
    </g>
  </g>
</svg>
