<svg xmlns="http://www.w3.org/2000/svg" width="99.96" height="99.96" viewBox="0 0 99.96 99.96">
  <g id="Group_1110140" data-name="Group 1110140" transform="translate(-330.207 -6583)">
    <path id="Path_875802" data-name="Path 875802" d="M49.98,0A49.98,49.98,0,1,1,0,49.98,49.98,49.98,0,0,1,49.98,0Z" transform="translate(330.207 6583)" fill="#f3f9ff"/>
    <g id="Group_1101977" data-name="Group 1101977" transform="translate(-71.93 556.531)">
      <rect id="Rectangle_401104" data-name="Rectangle 401104" width="67.887" height="67.887" transform="translate(418.137 6042.469)" fill="none"/>
      <g id="Group_1102670" data-name="Group 1102670" transform="translate(-3269.05 6021.098)">
        <path id="Path_876793" data-name="Path 876793" d="M3755.9,59.413c0,5.184.014,10.368-.006,15.552a6.09,6.09,0,0,1-4.318,5.7,6.535,6.535,0,0,1-4.159-.544c-.979-.35-1.954-.711-2.92-1.095a1.67,1.67,0,0,1-1-2.274,1.517,1.517,0,0,1,2.15-.727c1.255.472,2.5.965,3.77,1.4a2.8,2.8,0,0,0,3.609-2.559,7.953,7.953,0,0,0,.019-.822c0-9.709-.027-19.419.023-29.128a3.6,3.6,0,0,0-2.776-3.96c-4.929-1.568-9.812-3.279-14.708-4.951-4.482-1.531-8.953-3.092-13.434-4.626q-5.241-1.8-10.5-3.557a2.8,2.8,0,0,0-3.77,2.6c-.054.709-.027,1.425-.027,2.139q0,9.133,0,18.267a6.054,6.054,0,0,1-.07,1.146,1.414,1.414,0,0,1-1.36,1.219,1.5,1.5,0,0,1-1.405-1.274,4.22,4.22,0,0,1-.044-.738c0-6.8-.012-13.6,0-20.406a6.206,6.206,0,0,1,4.007-6.111,4.6,4.6,0,0,1,3.144-.036c5.078,1.728,10.146,3.484,15.227,5.2,6.326,2.142,12.661,4.257,18.99,6.389q2.8.944,5.591,1.921a6.1,6.1,0,0,1,3.956,5.634C3755.911,48.99,3755.9,54.2,3755.9,59.413Z" transform="translate(-8.172 0)" fill="#34054d"/>
        <path id="Path_876794" data-name="Path 876794" d="M3873.963,173.021q0-8.225,0-16.45a3.778,3.778,0,0,1,2.581-3.874,3.169,3.169,0,0,1,3.753,1.6,5.39,5.39,0,0,1,.594,2.269q.057,16.368.024,32.736a3.977,3.977,0,0,1-1.606,3.438,3.4,3.4,0,0,1-5.3-2.616,10.33,10.33,0,0,1-.049-1.314Q3873.96,180.917,3873.963,173.021Z" transform="translate(-149.354 -107.105)" fill="#34054d"/>
        <path id="Path_876795" data-name="Path 876795" d="M3821.17,194.15c0,4.057.022,8.115-.022,12.172a5.5,5.5,0,0,1-.47,2.216,3.12,3.12,0,0,1-3.238,1.934,3.316,3.316,0,0,1-2.912-2.326,4.708,4.708,0,0,1-.315-1.682q-.025-12.337-.005-24.673a3.914,3.914,0,0,1,1.8-3.5,3.3,3.3,0,0,1,4.918,1.987,6.2,6.2,0,0,1,.232,1.781C3821.179,186.09,3821.17,190.12,3821.17,194.15Z" transform="translate(-99.43 -128.168)" fill="#34054d"/>
        <path id="Path_876796" data-name="Path 876796" d="M3761.7,215.573c0,2.8.026,5.593-.008,8.389a3.448,3.448,0,0,1-3.806,3.494,3.6,3.6,0,0,1-3.025-3.125,3.864,3.864,0,0,1-.04-.492c0-5.565-.012-11.13,0-16.7a3.662,3.662,0,0,1,1.7-3.118,2.823,2.823,0,0,1,3.1-.222,3.513,3.513,0,0,1,2.062,3.215C3761.725,209.87,3761.7,212.722,3761.7,215.573Z" transform="translate(-49.818 -149.602)" fill="#34054d"/>
        <path id="Path_876797" data-name="Path 876797" d="M3702.113,235.052c0,1.506,0,3.011,0,4.517a3.764,3.764,0,0,1-1.254,2.847c-1.989,1.822-4.891.77-5.542-2a4.32,4.32,0,0,1-.117-.975c-.008-2.956-.022-5.913,0-8.869a3.719,3.719,0,0,1,2.748-3.732,3.5,3.5,0,0,1,4.143,3.446c.058,1.585.011,3.175.011,4.762Z" transform="translate(0 -169.094)" fill="#34054d"/>
      </g>
    </g>
  </g>
</svg>
