<svg xmlns="http://www.w3.org/2000/svg" xmlns:xlink="http://www.w3.org/1999/xlink" width="98.579" height="98.578" viewBox="0 0 98.579 98.578">
  <defs>
    <clipPath id="clip-path">
      <rect id="Rectangle_401223" data-name="Rectangle 401223" width="98.579" height="98.578" transform="translate(0)" fill="#bfa9fe"/>
    </clipPath>
    <clipPath id="clip-path-2">
      <rect id="Rectangle_401223-2" data-name="Rectangle 401223" width="88.117" height="88.116" fill="#d7c9fe"/>
    </clipPath>
    <clipPath id="clip-path-3">
      <path id="Path_883836" data-name="Path 883836" d="M986.049,385.7c-6.338,0-13.132-4.585-13.132-12.5,0-6.033,6.27-10.489,11.718-10.429,2.818.031,5.263-.773,6.47-2.564,2.6-3.856,7.82-8.136,14.626-8.136,12.976,0,12.29,12.7,17.731,12.7,6.537,0,14.133,2.853,15.22,10.021.615,4.066-2.134,10.9-9.492,10.9H986.049" transform="translate(-972.917 -352.076)" fill="none"/>
    </clipPath>
  </defs>
  <g id="Group_1109538" data-name="Group 1109538" transform="translate(-1104.422 -1615.554)">
    <g id="Group_1102154" data-name="Group 1102154" transform="translate(183.088 1204.548)">
      <g id="Group_1099654" data-name="Group 1099654" transform="translate(921.333 411.006)">
        <g id="Group_1099652" data-name="Group 1099652" transform="translate(0 0)" clip-path="url(#clip-path)">
          <path id="Path_873521" data-name="Path 873521" d="M98.579,76.737a21.9,21.9,0,0,1-21.84,21.84H21.84A21.9,21.9,0,0,1,0,76.737V21.84A21.9,21.9,0,0,1,21.84,0h54.9a21.9,21.9,0,0,1,21.84,21.841Z" transform="translate(0)" fill="#bfa9fe"/>
        </g>
      </g>
      <g id="Group_1099659" data-name="Group 1099659" transform="translate(926.103 416.728)">
        <g id="Group_1099652-2" data-name="Group 1099652" transform="translate(0 0)" clip-path="url(#clip-path-2)">
          <path id="Path_873521-2" data-name="Path 873521" d="M88.117,68.594A19.58,19.58,0,0,1,68.595,88.116H19.523A19.58,19.58,0,0,1,0,68.594V19.522A19.58,19.58,0,0,1,19.523,0H68.595A19.58,19.58,0,0,1,88.117,19.523Z" fill="#d7c9fe"/>
        </g>
      </g>
    </g>
    <g id="Group_1102155" data-name="Group 1102155" transform="translate(1119.738 1625.902)">
      <rect id="Rectangle_401104" data-name="Rectangle 401104" width="68" height="69" transform="translate(0.684 3.652)" fill="none"/>
      <g id="Group_1109805" data-name="Group 1109805" transform="translate(-971.233 -348.424)">
        <path id="Path_883782" data-name="Path 883782" d="M1020.314,422.547h9.754l4.356-4.356V402.843h-14.11v19.7" transform="translate(-1.373 -1.471)" fill="#c5fdff"/>
        <path id="Path_883783" data-name="Path 883783" d="M1030.359,423l4.356-4.356h-4.356V423Z" transform="translate(-1.664 -1.928)" fill="#0099c4"/>
        <path id="Path_883784" data-name="Path 883784" d="M1022.122,405.774h10.62v-.565h-10.62v.565Z" transform="translate(-1.425 -1.539)" fill="#57667f"/>
        <path id="Path_883785" data-name="Path 883785" d="M1022.122,408.184h10.62v-.563h-10.62v.563Z" transform="translate(-1.425 -1.609)" fill="#57667f"/>
        <path id="Path_883786" data-name="Path 883786" d="M1022.122,410.594h10.62v-.562h-10.62v.562Z" transform="translate(-1.425 -1.679)" fill="#57667f"/>
        <path id="Path_883787" data-name="Path 883787" d="M1022.122,413.006h10.62v-.564h-10.62v.564Z" transform="translate(-1.425 -1.749)" fill="#57667f"/>
        <path id="Path_883788" data-name="Path 883788" d="M1022.122,415.415h10.62v-.561h-10.62v.561Z" transform="translate(-1.425 -1.818)" fill="#57667f"/>
        <path id="Path_883789" data-name="Path 883789" d="M1022.122,417.826h5.31v-.562h-5.31v.562Z" transform="translate(-1.425 -1.888)" fill="#57667f"/>
        <path id="Path_883790" data-name="Path 883790" d="M999.557,422.5h14.111V402.8H999.557v19.7" transform="translate(-0.772 -1.469)" fill="#8bb5f3"/>
        <path id="Path_883791" data-name="Path 883791" d="M1001.016,420.96h11.312V404.111h-11.312V420.96Z" transform="translate(-0.814 -1.507)" fill="#fff"/>
        <path id="Path_883792" data-name="Path 883792" d="M1009.576,412.862c-.272,0-2.395,1.228-2.649,1.19s-3.194-5.817-3.5-5.77-2.412,4.145-2.412,4.145v8.652h11.312v-2.108s-2.479-6.11-2.752-6.11Z" transform="translate(-0.814 -1.628)" fill="#0099c4"/>
        <path id="Path_883793" data-name="Path 883793" d="M1008.409,405.8a2.249,2.249,0,1,0,2.249,2.249,2.249,2.249,0,0,0-2.249-2.249Z" transform="translate(-0.963 -1.556)" fill="#ed4313"/>
        <path id="Path_883794" data-name="Path 883794" d="M978.8,422.5h14.111V402.8H978.8v19.7" transform="translate(-0.171 -1.469)" fill="#c5fdff"/>
        <path id="Path_883795" data-name="Path 883795" d="M984.419,415.176c-1.633,0-2.957.885-2.957,1.971s1.323,1.971,2.957,1.971,2.956-.881,2.956-1.971-1.324-1.971-2.956-1.971Z" transform="translate(-0.248 -1.828)" fill="#57667f"/>
        <path id="Path_883796" data-name="Path 883796" d="M986.785,416.907h.744V406.868h-.744v10.039Z" transform="translate(-0.402 -1.587)" fill="#57667f"/>
        <path id="Path_883797" data-name="Path 883797" d="M987.529,406.839a1.642,1.642,0,0,1-.744-.956v.956a3.1,3.1,0,0,0,.372,1.117c.372.78,1.151.78,1.858,1.152s1.079,1.7,1.079,1.7a4.159,4.159,0,0,0-.143-2.462c-.515-.835-1.828-1.173-2.422-1.507Z" transform="translate(-0.402 -1.559)" fill="#57667f"/>
        <path id="Path_883798" data-name="Path 883798" d="M1023.462,364.78c-5.442,0-4.755-12.7-17.731-12.7-6.807,0-12.025,4.28-14.626,8.136-1.208,1.791-3.653,2.595-6.47,2.564-5.448-.06-11.718,4.4-11.718,10.429,0,7.915,6.794,12.5,13.132,12.5h43.141c7.358,0,10.105-6.838,9.491-10.9-1.086-7.168-8.683-10.021-15.219-10.021" transform="translate(0 0)" fill="#065564"/>
        <path id="Path_883799" data-name="Path 883799" d="M994.7,383.831c-.422,0-.7-.45-.7-1.5s.28-1.475.7-1.475.7.427.7,1.475-.281,1.5-.7,1.5m-11.929,0c-.42,0-.7-.45-.7-1.5s.28-1.475.7-1.475.7.427.7,1.475-.281,1.5-.7,1.5m17.95-6.317c-.42,0-.7-.45-.7-1.5s.281-1.476.7-1.476.7.426.7,1.476-.28,1.5-.7,1.5m-17.95,0c-.42,0-.7-.45-.7-1.5a4.121,4.121,0,0,1,.038-.6,9.492,9.492,0,0,0,1.289-.177,3.627,3.627,0,0,1,.07.772c0,1.048-.281,1.5-.7,1.5" transform="translate(-0.265 -0.651)" fill="#72a4ec"/>
        <g id="Group_1109804" data-name="Group 1109804" transform="translate(972.917 352.076)">
          <g id="Group_1109803" data-name="Group 1109803" clip-path="url(#clip-path-3)">
            <path id="Path_883801" data-name="Path 883801" d="M1000.127,357.007a4.174,4.174,0,0,1-.029-.51c0-1.2.431-1.845,1.15-1.845.654,0,1.072.543,1.136,1.562-.149.041-.3.083-.443.127-.027-.936-.3-1.321-.693-1.321-.421,0-.7.426-.7,1.476,0,.117,0,.227.011.33-.145.058-.288.119-.43.18" transform="translate(-973.704 -352.151)" fill="#597496"/>
            <path id="Path_883802" data-name="Path 883802" d="M1007.907,355.584c-.138-.007-.278-.011-.42-.011h-.04v-.292h-.624v-.3a2.079,2.079,0,0,0,.73-.261h.354v.865" transform="translate(-973.899 -352.153)" fill="#6d809a"/>
            <path id="Path_883803" data-name="Path 883803" d="M1006.822,355.289h-.027v-.3l.027,0v.3" transform="translate(-973.898 -352.16)" fill="#597496"/>
            <path id="Path_883804" data-name="Path 883804" d="M994.034,362a1.245,1.245,0,0,1,.505-.711q-.27.35-.505.711" transform="translate(-973.529 -352.343)" fill="#597496"/>
            <path id="Path_883805" data-name="Path 883805" d="M976.453,371.306h-.66v-.383h.758a3.139,3.139,0,0,0-.1.383m.158-.553v-2.465h-.651v-.3a2.125,2.125,0,0,0,.756-.264h.354v2.16a4.108,4.108,0,0,0-.46.867" transform="translate(-973 -352.529)" fill="#597496"/>
            <path id="Path_883806" data-name="Path 883806" d="M988.891,371.35a3.357,3.357,0,0,0,.171-.525,2.044,2.044,0,0,0,.312-1.322c0-1.049-.281-1.475-.7-1.475a.507.507,0,0,0-.368.149,3.671,3.671,0,0,0-.3-.268.941.941,0,0,1,.663-.252c.713,0,1.145.646,1.145,1.847,0,1.075-.347,1.723-.931,1.847" transform="translate(-973.354 -352.527)" fill="#597496"/>
            <path id="Path_883807" data-name="Path 883807" d="M996.117,371.378H994.1V371h.818v-.781a4.13,4.13,0,0,0,.46.132V371h.74v.383" transform="translate(-973.531 -352.601)" fill="#597496"/>
            <path id="Path_883808" data-name="Path 883808" d="M1001.248,371.4c-.719,0-1.15-.669-1.15-1.868q0-.168.012-.32.219-.1.463-.187a4.413,4.413,0,0,0-.026.508c0,1.049.281,1.5.7,1.5s.7-.449.7-1.5a3.284,3.284,0,0,0-.1-.9c.136-.035.275-.07.416-.1a3.246,3.246,0,0,1,.136,1c0,1.2-.432,1.868-1.145,1.868" transform="translate(-973.704 -352.552)" fill="#597496"/>
            <path id="Path_883809" data-name="Path 883809" d="M1008.648,371.314h-1.825v-.383h.624v-2.636h-.624v-.3l.342,0q.368,0,.742.013v2.928h.741v.383" transform="translate(-973.899 -352.537)" fill="#6d809a"/>
            <path id="Path_883810" data-name="Path 883810" d="M1006.817,371.314h-.2v-.383h.2v.383m0-3.019h-.027V368l.023,0h0v.3" transform="translate(-973.893 -352.537)" fill="#597496"/>
            <path id="Path_883811" data-name="Path 883811" d="M976.741,377.874c-.718,0-1.15-.668-1.15-1.868s.432-1.845,1.15-1.845,1.144.644,1.144,1.845-.432,1.868-1.144,1.868m0-3.344c-.422,0-.7.426-.7,1.476s.28,1.5.7,1.5.7-.45.7-1.5-.282-1.476-.7-1.476" transform="translate(-972.995 -352.716)" fill="#597496"/>
            <path id="Path_883812" data-name="Path 883812" d="M989.735,377.808h-2.02v-.381h.819v-2.636h-.651v-.3a2.106,2.106,0,0,0,.758-.265h.353v3.2h.74v.381" transform="translate(-973.346 -352.718)" fill="#597496"/>
            <path id="Path_883813" data-name="Path 883813" d="M996.117,377.808H994.1v-.381h.818v-2.636h-.651v-.3a2.1,2.1,0,0,0,.758-.265h.353v3.2h.74v.381" transform="translate(-973.531 -352.718)" fill="#597496"/>
            <path id="Path_883814" data-name="Path 883814" d="M982.762,377.9c-.718,0-1.149-.668-1.149-1.868a4.075,4.075,0,0,1,.038-.577c.149,0,.3-.008.449-.018a4.087,4.087,0,0,0-.038.6c0,1.048.28,1.5.7,1.5s.7-.45.7-1.5a3.636,3.636,0,0,0-.07-.772c.115-.023.229-.049.345-.078l.077-.019a3.52,3.52,0,0,1,.1.869c0,1.2-.431,1.868-1.145,1.868" transform="translate(-973.169 -352.745)" fill="#597496"/>
            <path id="Path_883815" data-name="Path 883815" d="M1001.248,377.874c-.719,0-1.15-.668-1.15-1.868s.431-1.845,1.15-1.845,1.145.644,1.145,1.845-.432,1.868-1.145,1.868m0-3.344c-.421,0-.7.426-.7,1.476s.281,1.5.7,1.5.7-.45.7-1.5-.28-1.476-.7-1.476" transform="translate(-973.704 -352.716)" fill="#597496"/>
            <path id="Path_883816" data-name="Path 883816" d="M1007.581,377.874a.934.934,0,0,1-.758-.363v-3a.941.941,0,0,1,.758-.352c.713,0,1.144.644,1.144,1.845s-.431,1.868-1.144,1.868m0-3.344c-.422,0-.7.426-.7,1.476s.28,1.5.7,1.5.7-.45.7-1.5-.282-1.476-.7-1.476" transform="translate(-973.899 -352.716)" fill="#6d809a"/>
            <path id="Path_883817" data-name="Path 883817" d="M1006.811,377.522a2.406,2.406,0,0,1-.391-1.505,2.354,2.354,0,0,1,.391-1.492v3" transform="translate(-973.888 -352.726)" fill="#597496"/>
            <path id="Path_883818" data-name="Path 883818" d="M989.735,384.311h-2.02v-.38h.819V381.3h-.651V381a2.088,2.088,0,0,0,.758-.264h.353v3.2h.74v.38" transform="translate(-973.346 -352.906)" fill="#597496"/>
            <path id="Path_883819" data-name="Path 883819" d="M995.047,384.377c-.719,0-1.152-.668-1.152-1.869s.433-1.844,1.152-1.844,1.143.645,1.143,1.844-.432,1.869-1.143,1.869m0-3.344c-.422,0-.7.427-.7,1.475s.28,1.5.7,1.5.7-.45.7-1.5-.281-1.475-.7-1.475" transform="translate(-973.525 -352.904)" fill="#597496"/>
            <path id="Path_883820" data-name="Path 883820" d="M982.762,384.377c-.718,0-1.149-.668-1.149-1.869s.431-1.844,1.149-1.844,1.145.645,1.145,1.844-.431,1.869-1.145,1.869m0-3.344c-.42,0-.7.427-.7,1.475s.28,1.5.7,1.5.7-.45.7-1.5-.281-1.475-.7-1.475" transform="translate(-973.169 -352.904)" fill="#597496"/>
            <path id="Path_883821" data-name="Path 883821" d="M1001.248,384.377c-.719,0-1.15-.668-1.15-1.869s.431-1.844,1.15-1.844,1.145.645,1.145,1.844-.432,1.869-1.145,1.869m0-3.344c-.421,0-.7.427-.7,1.475s.281,1.5.7,1.5.7-.45.7-1.5-.28-1.475-.7-1.475" transform="translate(-973.704 -352.904)" fill="#597496"/>
            <path id="Path_883822" data-name="Path 883822" d="M1008.648,384.311h-1.825v-.38h.624V381.3h-.624v-.3a2.042,2.042,0,0,0,.73-.26h.354v3.2h.741v.38" transform="translate(-973.899 -352.906)" fill="#6d809a"/>
            <path id="Path_883823" data-name="Path 883823" d="M1006.817,384.319h-.2v-.38h.2v.38m0-3.016h-.027V381l.027,0v.3" transform="translate(-973.893 -352.914)" fill="#597496"/>
            <path id="Path_883824" data-name="Path 883824" d="M1014.229,358.3h-.438c-.245-.246-.5-.48-.762-.7v-2.317h-.651v-.3a2.134,2.134,0,0,0,.757-.266h.354v3.2h.74v.381" transform="translate(-974.06 -352.153)" fill="#6d809a"/>
            <path id="Path_883825" data-name="Path 883825" d="M1019.173,364.867c-.718,0-1.15-.667-1.15-1.867s.432-1.846,1.15-1.846,1.144.646,1.144,1.846-.431,1.867-1.144,1.867m0-3.343c-.42,0-.7.426-.7,1.476s.28,1.5.7,1.5.7-.45.7-1.5-.281-1.476-.7-1.476" transform="translate(-974.224 -352.339)" fill="#6d809a"/>
            <path id="Path_883826" data-name="Path 883826" d="M1014.224,371.339H1012.2v-.383h.82v-2.086q.232.077.46.163v1.923h.74v.383" transform="translate(-974.055 -352.563)" fill="#6d809a"/>
            <path id="Path_883827" data-name="Path 883827" d="M1026.123,368.616l-.457-.037c-.118-.384-.326-.552-.587-.552a.6.6,0,0,0-.557.454c-.147-.014-.291-.028-.436-.044a1.033,1.033,0,0,1,.994-.783c.511,0,.878.331,1.045.96" transform="translate(-974.399 -352.527)" fill="#6d809a"/>
            <path id="Path_883828" data-name="Path 883828" d="M1031.794,369.49c-.152-.049-.306-.094-.46-.137v-1.066h-.652v-.3a2.135,2.135,0,0,0,.757-.264h.354v1.764" transform="translate(-974.59 -352.529)" fill="#6d809a"/>
            <path id="Path_883829" data-name="Path 883829" d="M1013.152,377.874c-.718,0-1.15-.668-1.15-1.868s.431-1.845,1.15-1.845,1.144.644,1.144,1.845-.431,1.868-1.144,1.868m0-3.344c-.421,0-.7.426-.7,1.476s.281,1.5.7,1.5.694-.45.694-1.5-.28-1.476-.694-1.476" transform="translate(-974.049 -352.716)" fill="#6d809a"/>
            <path id="Path_883830" data-name="Path 883830" d="M1019.173,377.874c-.718,0-1.15-.668-1.15-1.868s.432-1.845,1.15-1.845a.95.95,0,0,1,.534.152c.125.151.25.3.375.443a2.827,2.827,0,0,1,.235,1.25c0,1.2-.431,1.868-1.144,1.868m0-3.344c-.42,0-.7.426-.7,1.476s.28,1.5.7,1.5.7-.45.7-1.5-.281-1.476-.7-1.476" transform="translate(-974.224 -352.716)" fill="#6d809a"/>
            <path id="Path_883831" data-name="Path 883831" d="M1037.674,377.874a.935.935,0,0,1-.6-.2c.05-.145.094-.3.133-.45a.531.531,0,0,0,.467.283c.416,0,.7-.45.7-1.5s-.281-1.476-.7-1.476a.523.523,0,0,0-.44.234c-.033-.144-.074-.288-.121-.434a.95.95,0,0,1,.561-.169c.714,0,1.145.644,1.145,1.845s-.431,1.868-1.145,1.868" transform="translate(-974.775 -352.716)" fill="#6d809a"/>
            <path id="Path_883832" data-name="Path 883832" d="M1014.224,384.311H1012.2v-.38h.82V381.3h-.651V381a2.076,2.076,0,0,0,.758-.264h.354v3.2h.74v.38" transform="translate(-974.055 -352.906)" fill="#6d809a"/>
            <path id="Path_883833" data-name="Path 883833" d="M1026.146,384.311h-2.019v-.38h.819V381.3h-.651V381a2.089,2.089,0,0,0,.757-.264h.354v3.2h.74v.38" transform="translate(-974.401 -352.906)" fill="#6d809a"/>
            <path id="Path_883834" data-name="Path 883834" d="M1031.457,384.389c-.719,0-1.151-.668-1.151-1.869a2.506,2.506,0,0,1,.33-1.408c.181.012.358.017.531.018-.254.17-.411.606-.411,1.39,0,1.051.28,1.5.7,1.5s.7-.45.7-1.5c0-.806-.165-1.244-.431-1.4.179-.01.354-.025.522-.045a2.437,2.437,0,0,1,.358,1.449c0,1.2-.432,1.869-1.145,1.869" transform="translate(-974.579 -352.916)" fill="#6d809a"/>
            <path id="Path_883835" data-name="Path 883835" d="M1019.173,384.377c-.718,0-1.15-.668-1.15-1.869s.432-1.844,1.15-1.844,1.144.645,1.144,1.844-.431,1.869-1.144,1.869m0-3.344c-.42,0-.7.427-.7,1.475s.28,1.5.7,1.5.7-.45.7-1.5-.281-1.475-.7-1.475" transform="translate(-974.224 -352.904)" fill="#6d809a"/>
          </g>
        </g>
        <path id="Path_883837" data-name="Path 883837" d="M1030.539,380.392h-.052a.53.53,0,0,1,.553-.015q-.244.015-.5.015m-.583-.018c-2.675-.171-6.237-1.559-10.2-6.155a1.106,1.106,0,0,0-.375-.443q-.658-.792-1.33-1.707a10.1,10.1,0,0,0-4.724-3.419v-1.275h-.354a2.132,2.132,0,0,1-.757.264v.3h.651v.551a17.75,17.75,0,0,0-4.961-.842v-.27h-.354a2.081,2.081,0,0,1-.73.259v-3.29a.936.936,0,0,0,.758.362c.713,0,1.144-.667,1.144-1.867s-.431-1.846-1.144-1.846a.942.942,0,0,0-.758.354v-3.022h1.825v-.381h-.741V355.61a8.145,8.145,0,0,1,4.961,2.014v.32h-.82v.381h1.583c3.369,3.37,5.053,8.745,7.709,9.4a16.847,16.847,0,0,0,2.246.364,3.166,3.166,0,0,0-.156,1.064c0,1.2.432,1.868,1.15,1.868s1.146-.669,1.146-1.868a3.491,3.491,0,0,0-.1-.887,26.849,26.849,0,0,1,5.019.735v1.57h-.821v.383h2.021v-.383h-.74v-1.433a8.294,8.294,0,0,1,3.615,2.184,6.589,6.589,0,0,1,1.519,2.469,1.973,1.973,0,0,0-.589,1.676,2.089,2.089,0,0,0,.55,1.664,4.464,4.464,0,0,1-1.373,2.091,7.684,7.684,0,0,1-3.262,1.11.938.938,0,0,0-.787-.4.949.949,0,0,0-.82.436m-.134-3.486v.381h2.021v-.381h-.74v-3.2h-.354a2.1,2.1,0,0,1-.758.265v.3h.652v2.636h-.821m-6.2,0v.381h2.019v-.381h-.74v-3.2h-.354a2.106,2.106,0,0,1-.757.265v.3h.651v2.636h-.819m-4.778-9.581c-.717,0-1.149.646-1.149,1.847s.432,1.868,1.149,1.868,1.144-.669,1.144-1.868-.431-1.847-1.144-1.847M1013,360.993c-.718,0-1.149.646-1.149,1.846s.431,1.867,1.149,1.867,1.144-.667,1.144-1.867-.431-1.846-1.144-1.846m23.329,15.69a2.393,2.393,0,0,1-.233-1.215,2.189,2.189,0,0,1,.26-1.242,5.183,5.183,0,0,1-.027,2.457m-11.753-6.032c-.419,0-.7-.449-.7-1.5a2.908,2.908,0,0,1,.143-1.021c.375.035.757.066,1.145.1a3.231,3.231,0,0,1,.109.923c0,1.049-.281,1.5-.7,1.5m-5.73,0c-.42,0-.7-.449-.7-1.5s.28-1.475.7-1.475.7.426.7,1.475-.281,1.5-.7,1.5M1013,364.336c-.421,0-.7-.45-.7-1.5s.281-1.476.7-1.476.694.426.694,1.476-.28,1.5-.694,1.5m-5.42,0c-.422,0-.7-.45-.7-1.5s.28-1.476.7-1.476.7.426.7,1.476-.282,1.5-.7,1.5m-.134-6.392h-.624v-2.333c.206-.007.415-.011.624-.012v2.345" transform="translate(-0.982 -0.102)" fill="#c5fdff"/>
        <path id="Path_883838" data-name="Path 883838" d="M996.273,370.025a4.346,4.346,0,0,1-.943-.1v-2.549h-.353a2.139,2.139,0,0,1-.759.264v.3h.652v1.856a3.453,3.453,0,0,1-2.378-3.209,8.663,8.663,0,0,1,1.5-4.742,3.25,3.25,0,0,0-.135,1c0,1.2.433,1.867,1.152,1.867s1.143-.667,1.143-1.867-.432-1.846-1.143-1.846a.967.967,0,0,0-.512.136,13.74,13.74,0,0,1,5.413-4.095c.109.878.511,1.358,1.12,1.358.713,0,1.145-.666,1.145-1.867q0-.147-.009-.283a18.425,18.425,0,0,1,4.244-.631v2.333h-.2v.381h.2v3.022a2.357,2.357,0,0,0-.391,1.492,2.406,2.406,0,0,0,.391,1.505v3.29h0a21.165,21.165,0,0,0-4.368.516,1.047,1.047,0,0,0-1.009-.843c-.651,0-1.067.531-1.138,1.526a5.788,5.788,0,0,0-.593.3,6.078,6.078,0,0,1-3.023.894m3.8-5.767v.383h2.021v-.383h-.741v-3.2H1001a2.173,2.173,0,0,1-.757.264v.3h.65v2.637h-.819m.28,4.388c.08-.681.33-.967.675-.967.265,0,.475.174.592.573a12.8,12.8,0,0,0-1.267.394m-5.346-4.31c-.422,0-.7-.45-.7-1.5s.28-1.476.7-1.476.7.426.7,1.476-.281,1.5-.7,1.5m6.021-6.314c-.373,0-.636-.354-.69-1.168.446-.179.907-.342,1.384-.486,0,.051,0,.1,0,.155,0,1.049-.28,1.5-.7,1.5" transform="translate(-0.567 -0.102)" fill="#c5fdff"/>
        <path id="Path_883839" data-name="Path 883839" d="M1001.249,358.411c-.61,0-1.012-.48-1.12-1.358.142-.061.285-.121.43-.18.054.814.318,1.168.69,1.168.416,0,.7-.45.7-1.5,0-.053,0-.1,0-.155.146-.045.294-.086.443-.127q.009.135.009.283c0,1.2-.432,1.867-1.145,1.867" transform="translate(-0.788 -0.121)" fill="#6b91c4"/>
        <path id="Path_883840" data-name="Path 883840" d="M1008.648,358.325h-1.825v-.381h.624V355.6h.04c.142,0,.281,0,.42.011v2.334h.741v.381" transform="translate(-0.982 -0.102)" fill="#7e9cc6"/>
        <path id="Path_883841" data-name="Path 883841" d="M1006.817,358.395h-.2v-.381h.2v.381" transform="translate(-0.976 -0.172)" fill="#6b91c4"/>
        <path id="Path_883842" data-name="Path 883842" d="M995.047,364.867c-.719,0-1.152-.667-1.152-1.867a3.249,3.249,0,0,1,.135-1q.236-.361.5-.711a.967.967,0,0,1,.512-.136c.711,0,1.143.646,1.143,1.846s-.432,1.867-1.143,1.867m0-3.343c-.422,0-.7.426-.7,1.476s.28,1.5.7,1.5.7-.45.7-1.5-.281-1.476-.7-1.476" transform="translate(-0.608 -0.263)" fill="#6b91c4"/>
        <path id="Path_883843" data-name="Path 883843" d="M1002.32,364.8H1000.3v-.383h.819v-2.637h-.65v-.3a2.171,2.171,0,0,0,.757-.264h.353v3.2h.741v.383" transform="translate(-0.793 -0.265)" fill="#6b91c4"/>
        <path id="Path_883844" data-name="Path 883844" d="M1007.581,364.867a.935.935,0,0,1-.758-.362v-3a.942.942,0,0,1,.758-.353c.713,0,1.144.646,1.144,1.846s-.431,1.867-1.144,1.867m0-3.343c-.422,0-.7.426-.7,1.476s.28,1.5.7,1.5.7-.45.7-1.5-.282-1.476-.7-1.476" transform="translate(-0.982 -0.263)" fill="#7e9cc6"/>
        <path id="Path_883845" data-name="Path 883845" d="M1006.811,364.516a2.406,2.406,0,0,1-.391-1.505,2.357,2.357,0,0,1,.391-1.492v3" transform="translate(-0.971 -0.274)" fill="#6b91c4"/>
        <path id="Path_883846" data-name="Path 883846" d="M995.382,370.275a4.121,4.121,0,0,1-.46-.132v-1.856h-.652v-.3a2.138,2.138,0,0,0,.758-.264h.353v2.549" transform="translate(-0.619 -0.453)" fill="#6b91c4"/>
        <path id="Path_883847" data-name="Path 883847" d="M1000.11,369.183c.071-1,.487-1.526,1.138-1.526a1.047,1.047,0,0,1,1.009.843c-.142.032-.281.067-.417.1-.118-.4-.327-.573-.592-.573-.345,0-.6.286-.675.967-.163.061-.318.123-.463.187" transform="translate(-0.788 -0.451)" fill="#6b91c4"/>
        <path id="Path_883848" data-name="Path 883848" d="M1007.907,368q-.373-.013-.742-.013l-.342,0h0a2.08,2.08,0,0,0,.73-.259h.354V368" transform="translate(-0.982 -0.453)" fill="#7e9cc6"/>
        <path id="Path_883849" data-name="Path 883849" d="M1006.819,367.993h0" transform="translate(-0.982 -0.461)" fill="#6b91c4"/>
        <path id="Path_883850" data-name="Path 883850" d="M1013.786,358.385H1012.2V358h.82v-.32c.264.221.518.455.762.7" transform="translate(-1.138 -0.162)" fill="#7e9cc6"/>
        <path id="Path_883851" data-name="Path 883851" d="M1013.152,364.867c-.718,0-1.15-.667-1.15-1.867s.431-1.846,1.15-1.846,1.144.646,1.144,1.846-.431,1.867-1.144,1.867m0-3.343c-.421,0-.7.426-.7,1.476s.281,1.5.7,1.5.694-.45.694-1.5-.28-1.476-.694-1.476" transform="translate(-1.132 -0.263)" fill="#7e9cc6"/>
        <path id="Path_883852" data-name="Path 883852" d="M1013.489,369q-.229-.086-.46-.163v-.551h-.651v-.3a2.132,2.132,0,0,0,.757-.264h.354V369" transform="translate(-1.143 -0.453)" fill="#7e9cc6"/>
        <path id="Path_883853" data-name="Path 883853" d="M1025.074,371.395c-.718,0-1.15-.669-1.15-1.868a3.171,3.171,0,0,1,.156-1.064c.145.016.29.03.436.044a2.909,2.909,0,0,0-.143,1.021c0,1.049.281,1.5.7,1.5s.7-.449.7-1.5a3.231,3.231,0,0,0-.109-.923l.457.037a3.492,3.492,0,0,1,.1.887c0,1.2-.433,1.868-1.146,1.868" transform="translate(-1.477 -0.475)" fill="#7e9cc6"/>
        <path id="Path_883854" data-name="Path 883854" d="M1032.529,371.355h-2.021v-.383h.82V369.4q.232.064.46.137v1.433h.74v.383" transform="translate(-1.668 -0.502)" fill="#7e9cc6"/>
        <path id="Path_883855" data-name="Path 883855" d="M1019.173,371.371c-.718,0-1.15-.669-1.15-1.868s.432-1.847,1.15-1.847,1.144.646,1.144,1.847-.431,1.868-1.144,1.868m0-3.343c-.42,0-.7.426-.7,1.475s.28,1.5.7,1.5.7-.449.7-1.5-.281-1.475-.7-1.475" transform="translate(-1.307 -0.451)" fill="#7e9cc6"/>
        <path id="Path_883856" data-name="Path 883856" d="M1026.146,377.808h-2.019v-.381h.819v-2.636h-.651v-.3a2.106,2.106,0,0,0,.757-.265h.354v3.2h.74v.381" transform="translate(-1.484 -0.642)" fill="#7e9cc6"/>
        <path id="Path_883857" data-name="Path 883857" d="M1032.529,377.808h-2.021v-.381h.82v-2.636h-.651v-.3a2.1,2.1,0,0,0,.757-.265h.354v3.2h.74v.381" transform="translate(-1.668 -0.642)" fill="#7e9cc6"/>
        <path id="Path_883858" data-name="Path 883858" d="M1020.132,374.761c-.124-.144-.249-.292-.375-.443a1.1,1.1,0,0,1,.375.443" transform="translate(-1.357 -0.644)" fill="#7e9cc6"/>
        <path id="Path_883859" data-name="Path 883859" d="M1037.057,377.675a2.089,2.089,0,0,1-.549-1.664,1.973,1.973,0,0,1,.589-1.676c.047.146.088.29.121.434a2.187,2.187,0,0,0-.26,1.242,2.4,2.4,0,0,0,.233,1.215c-.039.154-.084.3-.133.45" transform="translate(-1.842 -0.645)" fill="#7e9cc6"/>
        <path id="Path_883860" data-name="Path 883860" d="M1031.177,381.118c-.173,0-.35-.007-.531-.018a.949.949,0,0,1,.82-.436.938.938,0,0,1,.787.4c-.168.019-.343.035-.522.045a.53.53,0,0,0-.553.015" transform="translate(-1.672 -0.828)" fill="#7e9cc6"/>
        <path id="Path_883861" data-name="Path 883861" d="M982.114,375.422c.089-.619.332-.881.662-.881.293,0,.519.212.627.7a9.491,9.491,0,0,1-1.29.177" transform="translate(-0.266 -0.651)" fill="#82b9f5"/>
        <path id="Path_883862" data-name="Path 883862" d="M981.363,375.215c-2.451,0-4.45-1.047-4.866-2.745a2.754,2.754,0,0,1-.025-1.192h1.358v-.383h-.74v-1.038A7.766,7.766,0,0,1,981.64,367a9.409,9.409,0,0,1,2.222-.274,6.1,6.1,0,0,1,3.816,1.151,2.149,2.149,0,0,0-.488,1.594c0,1.2.433,1.868,1.151,1.868a1.012,1.012,0,0,0,.214-.021,7.072,7.072,0,0,1-4.895,3.6c-.165-.64-.533-.976-1.049-.976-.593,0-.991.439-1.111,1.268h-.138m1.249-7.586c-.718,0-1.149.646-1.149,1.847s.431,1.868,1.149,1.868,1.145-.669,1.145-1.868-.431-1.847-1.145-1.847m5.73,3.344c-.421,0-.7-.449-.7-1.5a1.891,1.891,0,0,1,.333-1.326,2.862,2.862,0,0,1,.755,1.326,2.819,2.819,0,0,1,0,1.322.5.5,0,0,1-.385.176m-5.73,0c-.421,0-.7-.449-.7-1.5s.279-1.475.7-1.475.7.426.7,1.475-.281,1.5-.7,1.5m-5.982-.079h-.06c.019-.057.039-.115.06-.171v.171" transform="translate(-0.101 -0.425)" fill="#c5fdff"/>
        <path id="Path_883863" data-name="Path 883863" d="M977.832,371.371h-1.359a3.179,3.179,0,0,1,.1-.383h.06v-.171a4.1,4.1,0,0,1,.46-.867v1.038h.74v.383" transform="translate(-0.103 -0.518)" fill="#6b91c4"/>
        <path id="Path_883864" data-name="Path 883864" d="M988.663,371.379c-.718,0-1.151-.669-1.151-1.868a2.15,2.15,0,0,1,.487-1.594,3.728,3.728,0,0,1,.3.268,1.89,1.89,0,0,0-.333,1.326c0,1.049.281,1.5.7,1.5a.5.5,0,0,0,.384-.176,3.36,3.36,0,0,1-.171.525,1.016,1.016,0,0,1-.214.021" transform="translate(-0.423 -0.459)" fill="#6b91c4"/>
        <path id="Path_883865" data-name="Path 883865" d="M982.762,371.371c-.718,0-1.149-.669-1.149-1.868s.431-1.847,1.149-1.847,1.145.646,1.145,1.847-.431,1.868-1.145,1.868m0-3.343c-.42,0-.7.426-.7,1.475s.28,1.5.7,1.5.7-.449.7-1.5-.281-1.475-.7-1.475" transform="translate(-0.252 -0.451)" fill="#6b91c4"/>
        <path id="Path_883866" data-name="Path 883866" d="M981.652,375.429c.12-.829.518-1.268,1.111-1.268.516,0,.884.336,1.049.976l-.077.019c-.115.028-.23.054-.345.078-.108-.492-.334-.7-.627-.7-.33,0-.573.262-.662.881-.151.011-.3.017-.449.018" transform="translate(-0.253 -0.64)" fill="#6b91c4"/>
        <path id="Path_883867" data-name="Path 883867" d="M1005.983,402.329h1.631V386.708h-1.631v15.621" transform="translate(-0.958 -1.003)" fill="#57667f"/>
        <path id="Path_883868" data-name="Path 883868" d="M1023.907,393.672H988.489a3.265,3.265,0,0,0-3.261,3.262v5.6h1.63v-5.6a1.632,1.632,0,0,1,1.63-1.63h35.419a1.632,1.632,0,0,1,1.63,1.63v5.6h1.632v-5.6a3.266,3.266,0,0,0-3.262-3.262" transform="translate(-0.357 -1.205)" fill="#57667f"/>
        <path id="Path_883869" data-name="Path 883869" d="M1027.189,402.557h-.825v-5.6h0a1.632,1.632,0,0,0-1.63-1.63h-10.976v-.77h10.3a3.2,3.2,0,0,1,3.135,3.26v4.738" transform="translate(-1.183 -1.231)" fill="#465877"/>
        <path id="Path_883870" data-name="Path 883870" d="M986.883,402.557h-.816v-4.738a3.2,3.2,0,0,1,3.135-3.26h10.285v.77H988.513a1.632,1.632,0,0,0-1.63,1.63v5.6" transform="translate(-0.381 -1.231)" fill="#465877"/>
        <path id="Path_883871" data-name="Path 883871" d="M1006.815,402.329h-.832v-6.364h.832v6.364m0-9.259h-.832v-6.362h.832v6.362" transform="translate(-0.958 -1.003)" fill="#465877"/>
        <path id="Path_883872" data-name="Path 883872" d="M999.888,396.155h13.468V393.26H999.888v2.895" transform="translate(-0.781 -1.193)" fill="#57667f"/>
        <path id="Path_883873" data-name="Path 883873" d="M1013.356,396.2H999.888v-1.446h13.468V396.2" transform="translate(-0.781 -1.236)" fill="#465877"/>
      </g>
    </g>
  </g>
</svg>
