<svg xmlns="http://www.w3.org/2000/svg" width="99.96" height="99.96" viewBox="0 0 99.96 99.96">
  <g id="Group_1110142" data-name="Group 1110142" transform="translate(-1170.207 -6583)">
    <path id="Path_875804" data-name="Path 875804" d="M49.98,0A49.98,49.98,0,1,1,0,49.98,49.98,49.98,0,0,1,49.98,0Z" transform="translate(1170.207 6583)" fill="#f3f9ff"/>
    <g id="Group_1102164" data-name="Group 1102164" transform="translate(768.07 556.531)">
      <rect id="Rectangle_401104" data-name="Rectangle 401104" width="67.887" height="67.887" transform="translate(418.137 6042.469)" fill="none"/>
      <g id="Group_1102669" data-name="Group 1102669" transform="translate(1086.349 6780.178)">
        <path id="Path_876784" data-name="Path 876784" d="M59.5-54.8q0,2.185,0,4.37c0,.326,0,.328-.324.328H56.3c-.317,0-.318,0-.318-.336q0-4.34,0-8.679c0-.491.043-.418-.407-.419q-3.98,0-7.96,0c-.394,0-.332.035-.333-.332,0-.958,0-1.915,0-2.873,0-.271,0-.273.277-.273q4.025,0,8.05,0c.394,0,.374.062.374-.363q0-4.34,0-8.679c0-.4-.032-.354.351-.355q1.436,0,2.873,0c.317,0,.291-.027.291.289q0,4.085,0,8.171c0,.249.006.5,0,.748,0,.14.044.2.188.191.069-.006.14,0,.209,0h7.96c.385,0,.359-.048.359.346q0,1.392,0,2.783c0,.07,0,.14,0,.209,0,.1-.05.142-.147.139-.08,0-.16,0-.239,0H59.9c-.08,0-.16,0-.239,0-.114-.006-.165.044-.158.158,0,.07,0,.14,0,.209Q59.5-56.989,59.5-54.8Z" transform="translate(-692.143 -642.47)" fill="#34054d"/>
        <path id="Path_876785" data-name="Path 876785" d="M-452.954,492.27v3.741c0,.07,0,.14,0,.209-.009.2-.027.231-.222.232-.848,0-1.7,0-2.544,0-.151,0-.222-.06-.215-.213,0-.08,0-.16,0-.239q0-3.756,0-7.512c0-.455.03-.439-.442-.439h-6.942c-.08,0-.16,0-.239,0-.224-.008-.228-.009-.228-.241q0-1.107,0-2.215c0-.254.009-.262.277-.264.439,0,.878,0,1.317,0h5.9c.361,0,.363,0,.363-.356q0-3.771,0-7.542c0-.06,0-.12,0-.18,0-.3.007-.3.3-.3q1.182,0,2.364,0c.309,0,.312,0,.312.323q0,3.8,0,7.6c0,.5-.05.454.444.454q3.471,0,6.942,0c.09,0,.18,0,.269,0,.135,0,.2.046.2.192q-.006,1.182,0,2.364c0,.115-.046.164-.157.162-.09,0-.18,0-.269,0q-3.516,0-7.032,0c-.394,0-.394-.047-.395.386Q-452.954,490.355-452.954,492.27Z" transform="translate(-196.367 -1175.399)" fill="#34054d"/>
        <path id="Path_876786" data-name="Path 876786" d="M641.063-529.662q0-1.915,0-3.83,0-.12,0-.239a.121.121,0,0,1,.13-.131c.07,0,.14,0,.209,0h2.333c.345,0,.347,0,.347.34q0,3.815,0,7.63c0,.514-.038.448.447.449q3.515,0,7.03,0c.381,0,.363-.037.363.348q0,1.017,0,2.035c0,.38.02.363-.354.363q-3.5,0-7,0c-.563,0-.485-.079-.485.494q0,3.755,0,7.51c0,.4.027.375-.372.375h-2.274c-.394,0-.378.031-.378-.369q0-3.785,0-7.57c0-.5.062-.44-.449-.441q-3.441,0-6.881,0c-.08,0-.16,0-.239,0-.225-.007-.23-.008-.231-.24,0-.738,0-1.476,0-2.214,0-.307-.016-.291.3-.291h6.4c.289,0,.578,0,.867,0,.229,0,.235-.006.236-.235,0-.748,0-1.5,0-2.244Z" transform="translate(-1260.586 -194.833)" fill="#34054d"/>
        <path id="Path_876787" data-name="Path 876787" d="M641.293,491.79V487.9c0-.08,0-.159,0-.239,0-.1-.064-.136-.157-.135s-.179,0-.269,0h-7c-.406,0-.365.036-.366-.372q0-.972,0-1.945c0-.289,0-.292.3-.292q3.515,0,7.031,0c.527,0,.463.058.464-.46q0-3.77,0-7.541c0-.367-.05-.38.37-.379.758,0,1.516,0,2.274,0,.367,0,.368,0,.368.384q0,3.785,0,7.57c0,.465-.042.425.412.425q3.531,0,7.061,0c.366,0,.367,0,.367.355q0,.972,0,1.945c0,.309,0,.31-.313.31h-7.121c-.416,0-.407-.039-.407.406q0,3.83,0,7.66c0,.08,0,.16,0,.239-.008.208-.021.229-.22.23q-1.286.005-2.573,0c-.213,0-.218-.013-.218-.291Q641.292,493.78,641.293,491.79Z" transform="translate(-1260.813 -1174.994)" fill="#34054d"/>
        <path id="Path_876788" data-name="Path 876788" d="M-453.2-518.479v3.83c0,.07,0,.14,0,.209-.009.206-.01.211-.228.212-.716,0-1.431,0-2.147,0-.521,0-.521,0-.521-.518q0-3.815,0-7.631c0-.392.038-.358-.349-.358h-7.121c-.4,0-.369.025-.369-.374q0-.987,0-1.975c0-.272,0-.274.284-.274h7.121c.5,0,.433.033.433-.431q0-3.77,0-7.541c0-.07,0-.14,0-.21.007-.225.007-.231.241-.231q1.2,0,2.394,0c.257,0,.261,0,.261.271q0,2.08,0,4.16,0,1.8,0,3.591c0,.08,0,.16,0,.239,0,.117.057.158.167.153.08,0,.16,0,.239,0h7.121c.07,0,.14,0,.209,0,.214.006.219.007.221.216,0,.569,0,1.137,0,1.706,0,.17,0,.339,0,.509,0,.142-.059.2-.2.193-.079,0-.159,0-.239,0h-7.061c-.07,0-.14,0-.209,0-.247,0-.251.005-.252.245,0,.549,0,1.1,0,1.646Z" transform="translate(-196.227 -194.923)" fill="#34054d"/>
        <path id="Path_876789" data-name="Path 876789" d="M1022.165,68.473q0-1.332,0-2.663c0-.278,0-.281.28-.282q1.032,0,2.065,0c.276,0,.278,0,.278.278q0,2.6,0,5.207c0,.432-.058.4.4.4h4.488c.08,0,.159,0,.239,0,.127,0,.179.055.177.18,0,.219,0,.439,0,.658,0,.419,0,.838,0,1.257,0,.287,0,.288-.3.289h-4.7c-.3,0-.3,0-.3.316q0,2.588,0,5.177c0,.419.064.4-.4.4-.633,0-1.265,0-1.9,0-.322,0-.323,0-.323-.333q0-2.559,0-5.117c0-.06,0-.12,0-.18-.006-.257-.006-.261-.271-.261-1.546,0-3.092,0-4.638,0-.426,0-.389.073-.391-.4,0-.549,0-1.1,0-1.646,0-.371-.009-.333.348-.333h4.578c.4,0,.374.034.375-.368Q1022.167,69.759,1022.165,68.473Z" transform="translate(-1632.709 -776.287)" fill="#34054d"/>
        <path id="Path_876790" data-name="Path 876790" d="M185.207,877.271q0,1.272,0,2.544c0,.08,0,.159,0,.239a.128.128,0,0,0,.143.149c.09,0,.179,0,.269,0H190.2c.292,0,.294,0,.294.3q0,.9,0,1.8c0,.276,0,.279-.277.279H185.7c-.492,0-.492,0-.492.491q0,2.469,0,4.938c0,.07,0,.14,0,.21-.005.261-.006.265-.271.266q-1.047,0-2.095,0c-.254,0-.257-.005-.257-.272q0-2.619,0-5.237c0-.419.026-.395-.384-.395h-4.609c-.367,0-.333.028-.334-.343q0-.868,0-1.736c0-.291,0-.295.3-.295,1.472,0,2.944,0,4.416,0,.194,0,.435.087.569-.064.119-.134.039-.364.04-.551q.005-2.409,0-4.819c0-.07,0-.14,0-.21.007-.225.007-.23.24-.231q1.062,0,2.125,0c.254,0,.257.006.258.278Q185.209,875.939,185.207,877.271Z" transform="translate(-818.228 -1560.884)" fill="#34054d"/>
        <path id="Path_876791" data-name="Path 876791" d="M-661.026,88.521q0-1.242,0-2.483c0-.322.047-.33-.321-.329h-4.488c-.4,0-.378.032-.378-.367,0-.449,0-.9,0-1.346,0-.294,0-.3.3-.3,1.476,0,2.952,0,4.428,0,.541,0,.457.058.458-.46,0-1.576,0-3.152,0-4.728,0-.07,0-.14,0-.209.007-.224.007-.229.24-.23q.748,0,1.5,0c.253,0,.256,0,.256.274q0,1.616,0,3.232,0,.913,0,1.825c0,.294,0,.3.293.3q2.274,0,4.548,0c.562,0,.479-.052.484.471q.006.569,0,1.137c0,.208-.012.215-.224.222-.876.028-1.752.05-2.628.082-.766.028-1.531.068-2.3.1-.125,0-.185.047-.176.176.005.069,0,.14,0,.209q0,2.468,0,4.937c0,.355.027.323-.321.325q-.7,0-1.406,0c-.262,0-.265,0-.266-.26Q-661.028,89.808-661.026,88.521Z" transform="translate(0 -788.452)" fill="#34054d"/>
        <path id="Path_876792" data-name="Path 876792" d="M195.074-731.845q0-1.3,0-2.6c0-.256,0-.259.265-.26q.748,0,1.5,0c.226,0,.231.005.231.233q0,1.705,0,3.41,0,.913,0,1.825c0,.294,0,.3.3.3,1.516,0,3.031,0,4.547,0,.557,0,.475-.075.481.468,0,.389,0,.778,0,1.167,0,.248-.005.253-.251.255-.628,0-1.256,0-1.885,0q-1.391,0-2.782,0c-.479,0-.406-.035-.407.422q0,2.483,0,4.966c0,.382.033.359-.351.359-.469,0-.937,0-1.406,0-.229,0-.233-.007-.235-.235,0-.6,0-1.2,0-1.8q0-1.676,0-3.351c0-.07,0-.14,0-.21.007-.119-.057-.159-.164-.156-.08,0-.16,0-.239,0h-4.4l-.239,0a.129.129,0,0,1-.145-.148q0-.793,0-1.585c0-.116.062-.158.17-.155.08,0,.16,0,.239,0h4.338c.07,0,.14,0,.209,0,.224-.007.229-.008.229-.24C195.075-730.07,195.074-730.957,195.074-731.845Z" transform="translate(-830.482)" fill="#34054d"/>
      </g>
    </g>
  </g>
</svg>
