<svg xmlns="http://www.w3.org/2000/svg" xmlns:xlink="http://www.w3.org/1999/xlink" width="98.579" height="98.578" viewBox="0 0 98.579 98.578">
  <defs>
    <clipPath id="clip-path">
      <rect id="Rectangle_401223" data-name="Rectangle 401223" width="98.579" height="98.578" transform="translate(0)" fill="#bfa9fe"/>
    </clipPath>
    <clipPath id="clip-path-2">
      <rect id="Rectangle_401223-2" data-name="Rectangle 401223" width="88.117" height="88.116" fill="#d7c9fe"/>
    </clipPath>
  </defs>
  <g id="Group_1109542" data-name="Group 1109542" transform="translate(-753.296 -1615.097)">
    <g id="Group_1102150" data-name="Group 1102150" transform="translate(-168.037 1204.092)">
      <g id="Group_1099654" data-name="Group 1099654" transform="translate(921.333 411.006)">
        <g id="Group_1099652" data-name="Group 1099652" transform="translate(0 0)" clip-path="url(#clip-path)">
          <path id="Path_873521" data-name="Path 873521" d="M98.579,76.737a21.9,21.9,0,0,1-21.84,21.84H21.84A21.9,21.9,0,0,1,0,76.737V21.84A21.9,21.9,0,0,1,21.84,0h54.9a21.9,21.9,0,0,1,21.84,21.841Z" transform="translate(0)" fill="#bfa9fe"/>
        </g>
      </g>
      <g id="Group_1099659" data-name="Group 1099659" transform="translate(926.103 416.728)">
        <g id="Group_1099652-2" data-name="Group 1099652" transform="translate(0 0)" clip-path="url(#clip-path-2)">
          <path id="Path_873521-2" data-name="Path 873521" d="M88.117,68.594A19.58,19.58,0,0,1,68.595,88.116H19.523A19.58,19.58,0,0,1,0,68.594V19.522A19.58,19.58,0,0,1,19.523,0H68.595A19.58,19.58,0,0,1,88.117,19.523Z" fill="#d7c9fe"/>
        </g>
      </g>
    </g>
    <g id="Group_1102151" data-name="Group 1102151" transform="translate(769.238 1630.901)">
      <rect id="Rectangle_401104" data-name="Rectangle 401104" width="68" height="69" transform="translate(0.058 -0.348)" fill="none"/>
      <g id="_10" data-name="10" transform="translate(-352.127 -126.551)">
        <g id="_5" data-name="5" transform="translate(353.185 139.119)">
          <g id="Group_1109813" data-name="Group 1109813" transform="translate(0 0)">
            <g id="Group_1109812" data-name="Group 1109812">
              <g id="Group_1109809" data-name="Group 1109809" transform="translate(15.345 34.035)">
                <path id="Path_883879" data-name="Path 883879" d="M388,178.155l-5.083-.669-5.082.669-.351,1.991h10.867Z" transform="translate(-370.757 -177.486)" fill="#90a4ae"/>
                <path id="Path_883880" data-name="Path 883880" d="M388.246,180.414H377.379l-1.044,5.928h12.956Z" transform="translate(-370.652 -177.754)" fill="#b0bec5"/>
                <path id="Path_883881" data-name="Path 883881" d="M394.3,188.918l-.618-.943c-.727-.48-4.891-.748-4.891-.748h-.023l-.05-.287H375.762l-.052.287h-.021s-4.165.268-4.893.748l-.618.943c-.253.168.005.452.411.452h23.3C394.295,189.371,394.554,189.087,394.3,188.918Z" transform="translate(-370.078 -178.352)" fill="#cfd8dc"/>
              </g>
              <g id="Group_1109811" data-name="Group 1109811">
                <g id="Group_1109810" data-name="Group 1109810">
                  <path id="Rectangle_404621" data-name="Rectangle 404621" d="M.236,0H54.778a.235.235,0,0,1,.235.235V34.651a.236.236,0,0,1-.236.236H.235A.235.235,0,0,1,0,34.651V.236A.236.236,0,0,1,.236,0Z" fill="#c5fdff"/>
                  <rect id="Rectangle_404622" data-name="Rectangle 404622" width="49.109" height="30.056" transform="translate(2.952 2.415)" fill="#c5fdff"/>
                </g>
              </g>
            </g>
            <path id="Path_883882" data-name="Path 883882" d="M391.738,143.326H357.227v28.719h47.521V143.326Z" transform="translate(-353.556 -140.321)" fill="#2a445d"/>
          </g>
        </g>
        <path id="Path_883883" data-name="Path 883883" d="M357.227,143.8v28.284h47.521v-.2Z" transform="translate(-0.37 -1.246)" fill="#bdbdbd" opacity="0.41" style="mix-blend-mode: overlay;isolation: isolate"/>
        <path id="Path_883884" data-name="Path 883884" d="M401.052,137.231l-.183-2.027-1.525-.12c-.114-.328.472-1.633.288-1.943l.141-.258-1.442-1.434-1.233.878a5.248,5.248,0,0,0-.976-.452l-.124-1.5-2.026-.173-.375,1.453a5.264,5.264,0,0,0-1.051.283l-1.05-1.059-.048.034-1.616,1.136.645,1.352a5.211,5.211,0,0,0-.62.895l-1.487-.135-.521,1.966,1.372.625a5.233,5.233,0,0,0,.1,1.075l-1.237.858.865,1.84,1.468-.406a5.187,5.187,0,0,0,.757.745l-.4,1.467,1.846.856.871-1.266a5.363,5.363,0,0,0,1.046.084l.642,1.392,1.963-.531-.075-.784-.074-.753c.146-.084.291-.174.431-.273s.288-.214.422-.33l1.393.657,1.162-1.669-1.1-1.083a5.186,5.186,0,0,0,.268-1.009Zm-4.759,2.218a3.308,3.308,0,0,1-.425.249,3.241,3.241,0,0,1-3.307-5.553,3.2,3.2,0,0,1,.4-.234,3.241,3.241,0,0,1,3.335,5.538Z" transform="translate(-3.176)" fill="#065564"/>
        <path id="Path_883885" data-name="Path 883885" d="M415.183,136.933l-.365-2-1.53.019a5.219,5.219,0,0,0-.533-.914l.76-1.317-1.566-1.3-1.147.987a5.2,5.2,0,0,0-1.013-.362l-.26-1.482-2.034.011-.242,1.482a5.233,5.233,0,0,0-1.02.378l-1.143-.96-.045.038-1.506,1.278.765,1.288a5.257,5.257,0,0,0-.536.947h-1.493l-.341,2,1.423.5a5.107,5.107,0,0,0,.2,1.061l-1.155.967,1.027,1.755,1.424-.538a5.184,5.184,0,0,0,.822.673l-.265,1.5,1.915.685.752-1.341a5.259,5.259,0,0,0,1.049-.01l.767,1.328,1.907-.707-.146-.773-.142-.744c.138-.1.273-.2.4-.311s.267-.24.39-.367l1.446.528,1.007-1.767-1.195-.978a5.211,5.211,0,0,0,.176-1.03Zm-4.538,2.642a3.243,3.243,0,0,1-4.2-4.944,3.292,3.292,0,0,1,.374-.269,3.241,3.241,0,0,1,3.823,5.213Z" transform="translate(-4.466 -0.033)" fill="#a01f4e"/>
        <path id="Path_883886" data-name="Path 883886" d="M412.678,151.376l-.248-2.759-2.077-.164a7.044,7.044,0,0,0-.61-1.3l1.194-1.693-1.963-1.953-1.678,1.2a7.078,7.078,0,0,0-1.329-.616l-.169-2.042-2.76-.235-.511,1.978a7.113,7.113,0,0,0-1.43.387l-1.431-1.443-.064.046-2.2,1.548.878,1.84a7.073,7.073,0,0,0-.844,1.219l-2.027-.185-.709,2.676,1.869.851a7.043,7.043,0,0,0,.138,1.464l-1.683,1.167,1.177,2.507,2-.553a7.107,7.107,0,0,0,1.031,1.015l-.545,2,2.513,1.165,1.186-1.725a7.254,7.254,0,0,0,1.424.115l.875,1.9,2.673-.723-.1-1.067-.1-1.026c.2-.114.4-.237.587-.371s.391-.292.574-.449l1.895.894,1.583-2.272-1.5-1.474a7.139,7.139,0,0,0,.365-1.375ZM406.2,154.4a4.548,4.548,0,0,1-.579.338,4.413,4.413,0,0,1-4.5-7.561,4.356,4.356,0,0,1,.54-.319A4.413,4.413,0,0,1,406.2,154.4Z" transform="translate(-3.803 -1.063)" fill="#ffc9dd"/>
        <g id="_16" data-name="16" transform="translate(397.261 158.353)">
          <g id="Group_1109821" data-name="Group 1109821">
            <g id="Group_1109819" data-name="Group 1109819">
              <g id="Group_1109815" data-name="Group 1109815">
                <g id="Group_1109814" data-name="Group 1109814">
                  <path id="Path_883887" data-name="Path 883887" d="M401.706,164.256v26.132a2.872,2.872,0,0,0,2.605,3.064h15.209a2.872,2.872,0,0,0,2.605-3.064V164.256a2.872,2.872,0,0,0-2.606-3.064H404.311A2.872,2.872,0,0,0,401.706,164.256Z" transform="translate(-401.706 -161.192)" fill="#6ceaff"/>
                </g>
                <path id="Path_883888" data-name="Path 883888" d="M404.726,165.1h-.318v22.166H419.92V165.1Z" transform="translate(-401.954 -161.55)" fill="#2a445d"/>
              </g>
              <g id="Group_1109816" data-name="Group 1109816" transform="translate(8.727 28.286)">
                <path id="Path_883889" data-name="Path 883889" d="M412.749,192.331a1.436,1.436,0,1,1-1.436,1.436A1.436,1.436,0,0,1,412.749,192.331Z" transform="translate(-411.313 -192.331)" fill="#d8e0e7"/>
              </g>
              <g id="Group_1109817" data-name="Group 1109817" transform="translate(9.119 1.205)">
                <path id="Path_883890" data-name="Path 883890" d="M412.024,163.082a.282.282,0,0,1,0-.564l2.654.014h0a.282.282,0,0,1,0,.564l-2.656-.014Z" transform="translate(-411.745 -162.518)" fill="#929497"/>
              </g>
              <g id="Group_1109818" data-name="Group 1109818" transform="translate(7.832 2.106)">
                <path id="Path_883891" data-name="Path 883891" d="M410.608,164.074a.282.282,0,0,1,0-.564l4.737.024h0a.282.282,0,0,1,0,.564l-4.737-.024Z" transform="translate(-410.328 -163.51)" fill="#929497"/>
              </g>
            </g>
            <g id="Group_1109820" data-name="Group 1109820" transform="translate(5.301 1.364)">
              <path id="Path_883892" data-name="Path 883892" d="M408.227,162.694a.685.685,0,1,1-.685.685A.685.685,0,0,1,408.227,162.694Z" transform="translate(-407.542 -162.694)" fill="#929497"/>
            </g>
          </g>
        </g>
        <g id="Group_1109828" data-name="Group 1109828" transform="translate(364.487 145.889)">
          <path id="Path_883893" data-name="Path 883893" d="M389.345,147.471H365.627v22.588h16.706l7.013-5.525Z" transform="translate(-365.627 -147.471)" fill="#0ec0c0"/>
          <path id="Path_883894" data-name="Path 883894" d="M388.047,148.985H367.216v19.839h14.673l6.158-4.853Z" transform="translate(-365.773 -147.61)" fill="#fff"/>
          <g id="Group_1109827" data-name="Group 1109827" transform="translate(2.581 3.855)">
            <g id="Group_1109826" data-name="Group 1109826">
              <g id="Group_1109822" data-name="Group 1109822" transform="translate(0 7.293)">
                <rect id="Rectangle_404623" data-name="Rectangle 404623" width="17.886" height="2.376" fill="#306b88"/>
              </g>
              <g id="Group_1109823" data-name="Group 1109823">
                <rect id="Rectangle_404624" data-name="Rectangle 404624" width="17.886" height="2.376" fill="#306b88"/>
              </g>
              <g id="Group_1109824" data-name="Group 1109824" transform="translate(0 3.647)">
                <rect id="Rectangle_404625" data-name="Rectangle 404625" width="17.886" height="2.376" fill="#306b88"/>
              </g>
              <g id="Group_1109825" data-name="Group 1109825" transform="translate(0 10.94)">
                <rect id="Rectangle_404626" data-name="Rectangle 404626" width="17.886" height="2.376" fill="#306b88"/>
              </g>
            </g>
          </g>
          <path id="Path_883895" data-name="Path 883895" d="M391.03,166.255l-7.013,5.525v-5.525Z" transform="translate(-367.312 -149.192)" fill="#2dd"/>
        </g>
        <g id="Group_1109835" data-name="Group 1109835" transform="translate(402.188 163.7)">
          <path id="Path_883896" data-name="Path 883896" d="M418.38,167.079H407.13v18.433h7.924L418.38,181Z" transform="translate(-407.13 -167.079)" fill="#0ec0c0"/>
          <path id="Path_883897" data-name="Path 883897" d="M417.764,168.314h-9.88V184.5h6.959l2.921-3.96Z" transform="translate(-407.199 -167.192)" fill="#fff"/>
          <g id="Group_1109834" data-name="Group 1109834" transform="translate(1.223 3.146)">
            <g id="Group_1109833" data-name="Group 1109833">
              <g id="Group_1109829" data-name="Group 1109829" transform="translate(0 5.952)">
                <rect id="Rectangle_404627" data-name="Rectangle 404627" width="8.484" height="1.939" fill="#306b88"/>
              </g>
              <g id="Group_1109830" data-name="Group 1109830">
                <rect id="Rectangle_404628" data-name="Rectangle 404628" width="8.484" height="1.939" fill="#306b88"/>
              </g>
              <g id="Group_1109831" data-name="Group 1109831" transform="translate(0 2.976)">
                <rect id="Rectangle_404629" data-name="Rectangle 404629" width="8.484" height="1.939" fill="#306b88"/>
              </g>
              <g id="Group_1109832" data-name="Group 1109832" transform="translate(0 8.927)">
                <rect id="Rectangle_404630" data-name="Rectangle 404630" width="8.484" height="1.939" fill="#306b88"/>
              </g>
            </g>
          </g>
          <path id="Path_883898" data-name="Path 883898" d="M419.179,182.407l-3.327,4.509v-4.509Z" transform="translate(-407.929 -168.483)" fill="#2dd"/>
        </g>
        <path id="Path_883899" data-name="Path 883899" d="M396.8,180.494l-5.742-3.314v2.445H361.425V168.641a.891.891,0,0,0-1.781,0v11.874a.891.891,0,0,0,.891.891H391.06v2.4Z" transform="translate(-0.592 -3.44)" fill="#a01f4e"/>
      </g>
    </g>
  </g>
</svg>
