<svg xmlns="http://www.w3.org/2000/svg" xmlns:xlink="http://www.w3.org/1999/xlink" width="98.579" height="98.578" viewBox="0 0 98.579 98.578">
  <defs>
    <clipPath id="clip-path">
      <rect id="Rectangle_401223" data-name="Rectangle 401223" width="98.579" height="98.578" transform="translate(0)" fill="#bfa9fe"/>
    </clipPath>
    <clipPath id="clip-path-2">
      <rect id="Rectangle_401223-2" data-name="Rectangle 401223" width="88.117" height="88.116" fill="#d7c9fe"/>
    </clipPath>
  </defs>
  <g id="Group_1109537" data-name="Group 1109537" transform="translate(-753.296 -1615.097)">
    <g id="Group_1102150" data-name="Group 1102150" transform="translate(-168.037 1204.092)">
      <g id="Group_1099654" data-name="Group 1099654" transform="translate(921.333 411.006)">
        <g id="Group_1099652" data-name="Group 1099652" transform="translate(0 0)" clip-path="url(#clip-path)">
          <path id="Path_873521" data-name="Path 873521" d="M98.579,76.737a21.9,21.9,0,0,1-21.84,21.84H21.84A21.9,21.9,0,0,1,0,76.737V21.84A21.9,21.9,0,0,1,21.84,0h54.9a21.9,21.9,0,0,1,21.84,21.841Z" transform="translate(0)" fill="#bfa9fe"/>
        </g>
      </g>
      <g id="Group_1099659" data-name="Group 1099659" transform="translate(926.103 416.728)">
        <g id="Group_1099652-2" data-name="Group 1099652" transform="translate(0 0)" clip-path="url(#clip-path-2)">
          <path id="Path_873521-2" data-name="Path 873521" d="M88.117,68.594A19.58,19.58,0,0,1,68.595,88.116H19.523A19.58,19.58,0,0,1,0,68.594V19.522A19.58,19.58,0,0,1,19.523,0H68.595A19.58,19.58,0,0,1,88.117,19.523Z" fill="#d7c9fe"/>
        </g>
      </g>
    </g>
    <g id="Group_1102151" data-name="Group 1102151" transform="translate(769.238 1630.901)">
      <rect id="Rectangle_401104" data-name="Rectangle 401104" width="68" height="69" transform="translate(-0.238 -0.372)" fill="none"/>
      <g id="Group_1109802" data-name="Group 1109802" transform="translate(-1023.386 -208.376)">
        <path id="Path_883749" data-name="Path 883749" d="M1051.687,267.12h9.761v-3.994h-9.761v3.994" transform="translate(-0.688 -2.154)" fill="#57667f"/>
        <path id="Path_883750" data-name="Path 883750" d="M1055.658,262.814h2.13v-7.676h-2.13v7.676" transform="translate(-0.844 -1.842)" fill="#57667f"/>
        <path id="Path_883751" data-name="Path 883751" d="M1069.047,264.1h-7.2v2.129h7.2a1.066,1.066,0,0,1,1.064,1.066v8.229h2.13v-8.229a3.2,3.2,0,0,0-3.194-3.2" transform="translate(-1.085 -2.192)" fill="#57667f"/>
        <path id="Path_883752" data-name="Path 883752" d="M1040.865,267.291v8.229H1043v-8.229a1.066,1.066,0,0,1,1.065-1.066h7.2V264.1h-7.2a3.2,3.2,0,0,0-3.2,3.2" transform="translate(-0.266 -2.192)" fill="#57667f"/>
        <path id="Path_883753" data-name="Path 883753" d="M1043.031,275.554h-1.287v-7.633a2.96,2.96,0,0,1,2.942-2.971h6.612v1.309h-7.2a1.066,1.066,0,0,0-1.065,1.066v8.229" transform="translate(-0.3 -2.225)" fill="#425270"/>
        <path id="Path_883754" data-name="Path 883754" d="M1071.4,275.554h-1.287v-8.23a1.065,1.065,0,0,0-1.064-1.065h-7.2V264.95h6.61a2.959,2.959,0,0,1,2.942,2.971v7.633" transform="translate(-1.085 -2.225)" fill="#425270"/>
        <path id="Path_883755" data-name="Path 883755" d="M1056.722,262.814h-1.065v-7.676h1.065v7.676" transform="translate(-0.844 -1.842)" fill="#425270"/>
        <path id="Path_883756" data-name="Path 883756" d="M1061.448,267.212h-9.761v-1.731h9.761v1.731" transform="translate(-0.688 -2.246)" fill="#425270"/>
        <path id="Path_883757" data-name="Path 883757" d="M1061.845,266.28h0v0h0" transform="translate(-1.085 -2.246)" fill="#425270"/>
        <path id="Path_883758" data-name="Path 883758" d="M1048.953,268.712c-2.266-.008-9.063,0-9.063,0-.391,0-.427-1.43-1.219-1.43h-2.493c-.622,0-.709.341-.709.64,0,.218-.1,11.186-.1,11.186h14.8s.134,0,.134-.246c0-1.215.149-6.666.16-8.734,0-.646-.07-1-.347-1.218a2.192,2.192,0,0,0-1.169-.2Z" transform="translate(-0.051 -2.317)" fill="#57667f"/>
        <path id="Path_883759" data-name="Path 883759" d="M1050.007,278.9c-.028-1.172-.146-6.509-.221-8.43-.021-.623-.067-.963-.343-1.173a2.252,2.252,0,0,0-1.171-.193c-2.265-.009-9.063,0-9.063,0-.391,0-.427-1.379-1.221-1.379H1035.5c-.621,0-.709.33-.709.617,0,.189.3,8.587.333,10.434.006.353.23.353.23.353h14.8s-.142,0-.146-.228Z" transform="translate(-0.028 -2.334)" fill="#00d5e4"/>
        <path id="Path_883760" data-name="Path 883760" d="M1077.282,268.931c-2.266-.008-9.064,0-9.064,0-.392,0-.427-1.429-1.221-1.429H1064.5c-.621,0-.708.341-.708.64,0,.218-.1,11.187-.1,11.187h14.8s.135,0,.135-.247c0-1.215.148-6.667.159-8.734,0-.647-.07-1-.345-1.218a2.2,2.2,0,0,0-1.17-.2Z" transform="translate(-1.158 -2.325)" fill="#57667f"/>
        <path id="Path_883761" data-name="Path 883761" d="M1078.334,279.117c-.026-1.172-.145-6.508-.218-8.43-.024-.623-.07-.963-.345-1.173a2.264,2.264,0,0,0-1.171-.192c-2.266-.009-9.063,0-9.063,0-.391,0-.428-1.379-1.221-1.379h-2.49c-.624,0-.709.329-.709.616,0,.189.306,8.588.332,10.436,0,.353.229.353.229.353h14.8s-.141,0-.145-.23Z" transform="translate(-1.135 -2.342)" fill="#00d5e4"/>
        <path id="Path_883762" data-name="Path 883762" d="M1061.31,223.178h-9.761v3.994h9.761v-3.994" transform="translate(-0.683 -0.593)" fill="#57667f"/>
        <path id="Path_883763" data-name="Path 883763" d="M1057.649,225.334h-2.129v7.676h2.129v-7.676" transform="translate(-0.838 -0.677)" fill="#57667f"/>
        <path id="Path_883764" data-name="Path 883764" d="M1043.924,225.9h7.2V223.77h-7.2a1.066,1.066,0,0,1-1.064-1.066v-8.229h-2.13V222.7a3.2,3.2,0,0,0,3.194,3.2" transform="translate(-0.26 -0.253)" fill="#57667f"/>
        <path id="Path_883765" data-name="Path 883765" d="M1072.106,222.7v-8.229h-2.131V222.7a1.066,1.066,0,0,1-1.065,1.066h-7.2V225.9h7.2a3.2,3.2,0,0,0,3.2-3.2" transform="translate(-1.08 -0.253)" fill="#57667f"/>
        <path id="Path_883766" data-name="Path 883766" d="M1069.975,214.475h1.287v7.633a2.96,2.96,0,0,1-2.942,2.971h-6.612V223.77h7.2a1.066,1.066,0,0,0,1.065-1.066v-8.229" transform="translate(-1.08 -0.253)" fill="#425270"/>
        <path id="Path_883767" data-name="Path 883767" d="M1041.608,214.475h1.287v8.23a1.065,1.065,0,0,0,1.064,1.065h7.2v1.309h-6.61a2.959,2.959,0,0,1-2.942-2.971v-7.633" transform="translate(-0.295 -0.253)" fill="#425270"/>
        <path id="Path_883768" data-name="Path 883768" d="M1056.628,225.334h1.065v7.676h-1.065v-7.676" transform="translate(-0.882 -0.677)" fill="#425270"/>
        <path id="Path_883769" data-name="Path 883769" d="M1051.549,223.178h9.761v1.731h-9.761v-1.731" transform="translate(-0.683 -0.593)" fill="#425270"/>
        <path id="Path_883770" data-name="Path 883770" d="M1049.549,224.148h0v0h0" transform="translate(-0.605 -0.631)" fill="#425270"/>
        <path id="Path_883771" data-name="Path 883771" d="M1049.036,209.434c-2.266-.008-9.063,0-9.063,0-.391,0-.427-1.43-1.219-1.43h-2.493c-.622,0-.709.341-.709.64,0,.218-.1,11.186-.1,11.186h14.8s.134,0,.134-.246c0-1.215.149-6.666.16-8.734,0-.646-.07-1-.347-1.218a2.192,2.192,0,0,0-1.169-.2Z" transform="translate(-0.054)" fill="#57667f"/>
        <path id="Path_883772" data-name="Path 883772" d="M1050.09,219.62c-.028-1.172-.146-6.509-.221-8.43-.021-.623-.067-.963-.343-1.173a2.253,2.253,0,0,0-1.171-.193c-2.265-.009-9.063,0-9.063,0-.391,0-.428-1.379-1.221-1.379h-2.491c-.621,0-.709.33-.709.617,0,.189.3,8.587.332,10.434.006.353.23.353.23.353h14.8s-.142,0-.146-.228Z" transform="translate(-0.031 -0.017)" fill="#00d5e4"/>
        <path id="Path_883773" data-name="Path 883773" d="M1077.2,209.653c-2.443-.008-9.772,0-9.772,0-.423,0-.461-1.429-1.317-1.429h-2.687c-.669,0-.763.341-.763.64,0,.218-.1,11.187-.1,11.187h15.96s.146,0,.146-.247c0-1.215.16-6.667.171-8.734,0-.647-.075-1-.372-1.218a2.531,2.531,0,0,0-1.261-.2Z" transform="translate(-1.113 -0.009)" fill="#57667f"/>
        <path id="Path_883774" data-name="Path 883774" d="M1078.334,219.839c-.029-1.172-.157-6.508-.235-8.43-.026-.623-.076-.963-.372-1.173a2.615,2.615,0,0,0-1.264-.192c-2.443-.009-9.771,0-9.771,0-.422,0-.461-1.379-1.317-1.379h-2.685c-.673,0-.765.329-.765.616,0,.189.329,8.588.357,10.436.006.353.247.353.247.353h15.96s-.152,0-.156-.23Z" transform="translate(-1.089 -0.026)" fill="#00d5e4"/>
        <path id="Path_883775" data-name="Path 883775" d="M1077.506,230.99c-.713-.566-2.216-.565-3.091-.564h-.22c-6.418-.022-25.675,0-25.675,0-1.109,0-1.212-4.048-3.46-4.048H1038c-1.762,0-2,.966-2,1.811,0,.621-.275,31.689-.275,31.689h41.93s.383,0,.383-.7c0-3.438.421-18.884.449-24.735.008-1.831-.2-2.831-.981-3.453" transform="translate(-0.065 -0.718)" fill="#57667f"/>
        <path id="Path_883776" data-name="Path 883776" d="M1077.178,259.278c-.077-3.32-.414-18.436-.619-23.878-.066-1.763-.2-2.728-.982-3.328a5.9,5.9,0,0,0-3.1-.543h-.215c-6.419-.023-25.676,0-25.676,0-1.107,0-1.21-3.905-3.457-3.905h-7.056c-1.763,0-2.006.932-2.006,1.747,0,.534.859,24.321.937,29.556.013,1,.653,1,.653,1h41.93s-.4,0-.412-.65" transform="translate(0 -0.767)" fill="#6ceaff"/>
        <path id="Path_883777" data-name="Path 883777" d="M1077.59,259.927h-.558c-.887-.265-.424-5.148-1.817-22.45a6.078,6.078,0,0,0-1.6-3.994,5.793,5.793,0,0,0-3.1-.622c-6.42-.022-25.025-.621-25.025-.621-1.107,0-.911-3.428-3.641-3.528-2.025-.074-3.513-.136-4.617-.136-2.034,0-2.758.214-3.1.971l-.05,0c0-.089,0-.158,0-.18h0c0-.815.243-1.747,2.006-1.747h7.056c2.248,0,2.35,3.905,3.457,3.905,0,0,8.559-.011,16.167-.011,3.8,0,7.37,0,9.509.011h.369a5.561,5.561,0,0,1,2.942.544c.783.6.916,1.564.982,3.328.2,5.442.542,20.558.619,23.878.014.65.412.65.412.65" transform="translate(0 -0.767)" fill="#99c7f9"/>
        <path id="Path_883778" data-name="Path 883778" d="M1060.513,237.862a9.247,9.247,0,1,0,4.108,12.415,9.247,9.247,0,0,0-4.108-12.415" transform="translate(-0.51 -1.128)" fill="#4b0d6b"/>
        <path id="Path_883779" data-name="Path 883779" d="M1060.889,237.9l-4.156,8.261,9.116-1.562a9.241,9.241,0,0,0-4.96-6.7" transform="translate(-0.886 -1.168)" fill="#a01f4e"/>
        <path id="Path_883780" data-name="Path 883780" d="M1065.342,250.573l0-.009,0,.009m.008-.015a.156.156,0,0,1,.01-.021.156.156,0,0,0-.01.021m.01-.021a9.211,9.211,0,0,0,.825-5.663h0a9.206,9.206,0,0,1-.825,5.663" transform="translate(-1.222 -1.441)" fill="#99c7f9"/>
        <path id="Path_883781" data-name="Path 883781" d="M1056.733,255.683v-9.248l9.116-1.562a9.211,9.211,0,0,1-.825,5.663h0a.156.156,0,0,0-.01.021l0,.007,0,.009-.009.016h0a9.25,9.25,0,0,1-8.264,5.094" transform="translate(-0.886 -1.441)" fill="#bfa9fe"/>
      </g>
    </g>
  </g>
</svg>
