<svg xmlns="http://www.w3.org/2000/svg" xmlns:xlink="http://www.w3.org/1999/xlink" width="124.605" height="125.948" viewBox="0 0 124.605 125.948">
  <defs>
    <clipPath id="clip-path">
      <rect id="Rectangle_400938" data-name="Rectangle 400938" width="117.278" height="117.278" fill="none"/>
    </clipPath>
    <clipPath id="clip-path-2">
      <path id="Path_873460" data-name="Path 873460" d="M0,1.307A1.349,1.349,0,0,0,1.389,2.613,1.349,1.349,0,0,0,2.778,1.307,1.349,1.349,0,0,0,1.389,0,1.349,1.349,0,0,0,0,1.307" transform="translate(0)" fill="#34054d"/>
    </clipPath>
    <clipPath id="clip-path-3">
      <path id="Path_873466" data-name="Path 873466" d="M0,1.307A1.349,1.349,0,0,0,1.39,2.613,1.349,1.349,0,0,0,2.778,1.307,1.349,1.349,0,0,0,1.39,0,1.349,1.349,0,0,0,0,1.307" fill="#34054d"/>
    </clipPath>
    <clipPath id="clip-path-4">
      <path id="Path_873467" data-name="Path 873467" d="M0,1.306A1.349,1.349,0,0,0,1.389,2.612,1.349,1.349,0,0,0,2.778,1.306,1.349,1.349,0,0,0,1.389,0,1.349,1.349,0,0,0,0,1.306" transform="translate(0 0)" fill="#34054d"/>
    </clipPath>
    <clipPath id="clip-path-5">
      <path id="Path_873468" data-name="Path 873468" d="M0,1.306A1.349,1.349,0,0,0,1.39,2.612,1.349,1.349,0,0,0,2.778,1.306,1.349,1.349,0,0,0,1.39,0,1.349,1.349,0,0,0,0,1.306" transform="translate(0 0)" fill="#34054d"/>
    </clipPath>
    <clipPath id="clip-path-6">
      <path id="Path_873469" data-name="Path 873469" d="M0,1.306A1.349,1.349,0,0,0,1.389,2.612,1.349,1.349,0,0,0,2.777,1.306,1.349,1.349,0,0,0,1.389,0,1.349,1.349,0,0,0,0,1.306" transform="translate(0 0)" fill="#34054d"/>
    </clipPath>
    <clipPath id="clip-path-9">
      <path id="Path_873473" data-name="Path 873473" d="M0,1.306A1.349,1.349,0,0,0,1.39,2.612,1.348,1.348,0,0,0,2.778,1.306,1.349,1.349,0,0,0,1.39,0,1.349,1.349,0,0,0,0,1.306" transform="translate(0 0)" fill="#34054d"/>
    </clipPath>
    <clipPath id="clip-path-22">
      <rect id="Rectangle_401492" data-name="Rectangle 401492" width="63.051" height="63.052" transform="translate(-0.133 -1.251)" fill="#34054d" stroke="#707070" stroke-width="1"/>
    </clipPath>
  </defs>
  <g id="Group_1102327" data-name="Group 1102327" transform="translate(23060.281 3818.28)">
    <g id="Group_1100237" data-name="Group 1100237" transform="translate(-23054.037 -3797.84)">
      <g id="Group_1099505" data-name="Group 1099505" transform="translate(1.808 8.418)">
        <g id="Group_1099504" data-name="Group 1099504" transform="translate(0)" clip-path="url(#clip-path-2)">
          <rect id="Rectangle_401140" data-name="Rectangle 401140" width="2.777" height="2.613" transform="translate(0)" fill="#34054d"/>
        </g>
      </g>
      <g id="Group_1099517" data-name="Group 1099517" transform="translate(37.056 8.418)">
        <g id="Group_1099516" data-name="Group 1099516" transform="translate(0)" clip-path="url(#clip-path-3)">
          <rect id="Rectangle_401146" data-name="Rectangle 401146" width="2.778" height="2.613" transform="translate(0 0)" fill="#34054d"/>
        </g>
      </g>
      <g id="Group_1099519" data-name="Group 1099519" transform="translate(30.194 8.418)">
        <g id="Group_1099518" data-name="Group 1099518" transform="translate(0 0)" clip-path="url(#clip-path-4)">
          <rect id="Rectangle_401147" data-name="Rectangle 401147" width="2.778" height="2.612" transform="translate(0 0)" fill="#34054d"/>
        </g>
      </g>
      <g id="Group_1099521" data-name="Group 1099521" transform="translate(23.332 8.418)">
        <g id="Group_1099520" data-name="Group 1099520" transform="translate(0 0)" clip-path="url(#clip-path-5)">
          <rect id="Rectangle_401148" data-name="Rectangle 401148" width="2.778" height="2.612" transform="translate(0 0)" fill="#34054d"/>
        </g>
      </g>
      <g id="Group_1099523" data-name="Group 1099523" transform="translate(16.47 8.418)">
        <g id="Group_1099522" data-name="Group 1099522" transform="translate(0 0)" clip-path="url(#clip-path-6)">
          <rect id="Rectangle_401149" data-name="Rectangle 401149" width="2.777" height="2.612" transform="translate(0 0)" fill="#34054d"/>
        </g>
      </g>
      <g id="Group_1099525" data-name="Group 1099525" transform="translate(34.311 0)">
        <g id="Group_1099524" data-name="Group 1099524" clip-path="url(#clip-path-4)">
          <rect id="Rectangle_401150" data-name="Rectangle 401150" width="2.778" height="2.612" transform="translate(0 0)" fill="#34054d"/>
        </g>
      </g>
      <g id="Group_1099529" data-name="Group 1099529" transform="translate(27.448 0)">
        <g id="Group_1099528" data-name="Group 1099528" transform="translate(0)" clip-path="url(#clip-path-5)">
          <rect id="Rectangle_401152" data-name="Rectangle 401152" width="2.778" height="2.612" transform="translate(0 0)" fill="#34054d"/>
        </g>
      </g>
      <g id="Group_1099531" data-name="Group 1099531" transform="translate(13.724 0)">
        <g id="Group_1099530" data-name="Group 1099530" transform="translate(0)" clip-path="url(#clip-path-9)">
          <rect id="Rectangle_401153" data-name="Rectangle 401153" width="2.777" height="2.612" transform="translate(0 0)" fill="#34054d"/>
        </g>
      </g>
      <g id="Group_1099533" data-name="Group 1099533" transform="translate(6.862 0)">
        <g id="Group_1099532" data-name="Group 1099532" clip-path="url(#clip-path-4)">
          <rect id="Rectangle_401154" data-name="Rectangle 401154" width="2.778" height="2.612" transform="translate(0 0)" fill="#34054d"/>
        </g>
      </g>
      <g id="Group_1099535" data-name="Group 1099535" transform="translate(0 0)">
        <g id="Group_1099534" data-name="Group 1099534" transform="translate(0)" clip-path="url(#clip-path-5)">
          <rect id="Rectangle_401155" data-name="Rectangle 401155" width="2.778" height="2.612" transform="translate(0 0)" fill="#34054d"/>
        </g>
      </g>
    </g>
    <g id="Group_1100238" data-name="Group 1100238" transform="translate(-22980.652 -3724.455)">
      <g id="Group_1099505-2" data-name="Group 1099505" transform="translate(1.808 8.418)">
        <g id="Group_1099504-2" data-name="Group 1099504" transform="translate(0)" clip-path="url(#clip-path-2)">
          <rect id="Rectangle_401140-2" data-name="Rectangle 401140" width="2.777" height="2.613" transform="translate(0)" fill="#34054d"/>
        </g>
      </g>
      <g id="Group_1099517-2" data-name="Group 1099517" transform="translate(37.056 8.418)">
        <g id="Group_1099516-2" data-name="Group 1099516" transform="translate(0)" clip-path="url(#clip-path-3)">
          <rect id="Rectangle_401146-2" data-name="Rectangle 401146" width="2.778" height="2.613" transform="translate(0 0)" fill="#34054d"/>
        </g>
      </g>
      <g id="Group_1099519-2" data-name="Group 1099519" transform="translate(30.194 8.418)">
        <g id="Group_1099518-2" data-name="Group 1099518" transform="translate(0 0)" clip-path="url(#clip-path-4)">
          <rect id="Rectangle_401147-2" data-name="Rectangle 401147" width="2.778" height="2.612" transform="translate(0 0)" fill="#34054d"/>
        </g>
      </g>
      <g id="Group_1099521-2" data-name="Group 1099521" transform="translate(23.332 8.418)">
        <g id="Group_1099520-2" data-name="Group 1099520" transform="translate(0 0)" clip-path="url(#clip-path-5)">
          <rect id="Rectangle_401148-2" data-name="Rectangle 401148" width="2.778" height="2.612" transform="translate(0 0)" fill="#34054d"/>
        </g>
      </g>
      <g id="Group_1099523-2" data-name="Group 1099523" transform="translate(16.47 8.418)">
        <g id="Group_1099522-2" data-name="Group 1099522" transform="translate(0 0)" clip-path="url(#clip-path-6)">
          <rect id="Rectangle_401149-2" data-name="Rectangle 401149" width="2.777" height="2.612" transform="translate(0 0)" fill="#34054d"/>
        </g>
      </g>
      <g id="Group_1099525-2" data-name="Group 1099525" transform="translate(34.311 0)">
        <g id="Group_1099524-2" data-name="Group 1099524" clip-path="url(#clip-path-4)">
          <rect id="Rectangle_401150-2" data-name="Rectangle 401150" width="2.778" height="2.612" transform="translate(0 0)" fill="#34054d"/>
        </g>
      </g>
      <g id="Group_1099529-2" data-name="Group 1099529" transform="translate(27.448 0)">
        <g id="Group_1099528-2" data-name="Group 1099528" transform="translate(0)" clip-path="url(#clip-path-5)">
          <rect id="Rectangle_401152-2" data-name="Rectangle 401152" width="2.778" height="2.612" transform="translate(0 0)" fill="#34054d"/>
        </g>
      </g>
      <g id="Group_1099531-2" data-name="Group 1099531" transform="translate(13.724 0)">
        <g id="Group_1099530-2" data-name="Group 1099530" transform="translate(0)" clip-path="url(#clip-path-9)">
          <rect id="Rectangle_401153-2" data-name="Rectangle 401153" width="2.777" height="2.612" transform="translate(0 0)" fill="#34054d"/>
        </g>
      </g>
      <g id="Group_1099533-2" data-name="Group 1099533" transform="translate(6.862 0)">
        <g id="Group_1099532-2" data-name="Group 1099532" clip-path="url(#clip-path-4)">
          <rect id="Rectangle_401154-2" data-name="Rectangle 401154" width="2.778" height="2.612" transform="translate(0 0)" fill="#34054d"/>
        </g>
      </g>
      <g id="Group_1099535-2" data-name="Group 1099535" transform="translate(0 0)">
        <g id="Group_1099534-2" data-name="Group 1099534" transform="translate(0)" clip-path="url(#clip-path-5)">
          <rect id="Rectangle_401155-2" data-name="Rectangle 401155" width="2.778" height="2.612" transform="translate(0 0)" fill="#34054d"/>
        </g>
      </g>
    </g>
    <path id="Path_873784" data-name="Path 873784" d="M83.8,18.565A18.62,18.62,0,0,0,65.231,0H18.566A18.62,18.62,0,0,0,0,18.566V65.231A18.62,18.62,0,0,0,18.565,83.8H65.231A18.62,18.62,0,0,0,83.8,65.23Z" transform="translate(-22994.928 -3692.332) rotate(-135)" fill="#4b0d6b"/>
    <path id="Path_873785" data-name="Path 873785" d="M86.438,19.15A19.206,19.206,0,0,0,67.287,0H19.151A19.207,19.207,0,0,0,0,19.151V67.287a19.206,19.206,0,0,0,19.15,19.15H67.287A19.207,19.207,0,0,0,86.437,67.286Z" transform="translate(-22999.16 -3696.04) rotate(-135)" fill="#d7c9fe"/>
    <g id="Mask_Group_1098697" data-name="Mask Group 1098697" transform="translate(-23031.146 -3787.541)" clip-path="url(#clip-path-22)">
      <g id="Group_1110119" data-name="Group 1110119" transform="translate(131.198 -1597.458)">
        <path id="Path_884608" data-name="Path 884608" d="M-115.609,1711.165a9.312,9.312,0,0,1-.1-1.737,2.939,2.939,0,0,1,3.085-2.532c3.055-.009,6.109-.015,9.164.009.506,0,.714-.12.837-.641.516-2.186,1.084-4.361,1.655-6.534.09-.342-.014-.462-.286-.666-.872-.652-1.7-1.367-2.533-2.067-.8-.668-1.593-1.339-2.371-2.03a.427.427,0,0,0-.677,0c-1.409,1.219-2.875,2.375-4.236,3.644a2.422,2.422,0,0,1-4-.858c-.5-1.226-1.132-2.4-1.694-3.6-.393-.84-.045-1.389.877-1.394,1.443-.008,2.886-.008,4.33-.013a1.042,1.042,0,0,0,.183-.058c0-.4,0-.825,0-1.253,0-.6-.015-1.209.005-1.812.011-.332-.114-.437-.438-.433-.7.008-1.412.017-2.113-.035a4.252,4.252,0,0,1-3.951-4.1c-.016-.4,0-.8,0-1.246-.822,0-1.585-.024-2.345.018-.178.01-.372.215-.511.373-.543.617-1.053,1.265-1.6,1.873a.7.7,0,0,0-.145.877,2.484,2.484,0,0,1-1.474,3.32,2.529,2.529,0,0,1-3.27-1.614,2.507,2.507,0,0,1,1.745-3.2,9.2,9.2,0,0,1,1.145-.065.986.986,0,0,0,.582-.227c.608-.672,1.185-1.371,1.763-2.069a2.617,2.617,0,0,1,2.2-1c.615.017,1.231,0,1.873,0V1678.4a3.823,3.823,0,0,0-.391-.041c-1.561,0-3.122,0-4.683-.008a.559.559,0,0,0-.579.35,2.5,2.5,0,0,1-2.849,1.276,2.537,2.537,0,0,1-1.909-2.478,2.562,2.562,0,0,1,1.856-2.424,2.51,2.51,0,0,1,2.9,1.265.567.567,0,0,0,.575.365c1.544-.013,3.088-.017,4.632,0,.381,0,.489-.121.481-.492-.022-1.023-.016-2.048,0-3.071,0-.3-.092-.421-.4-.41-.536.019-1.074,0-1.611.007a2.5,2.5,0,0,1-2.069-.955c-.57-.683-1.159-1.35-1.717-2.042a.7.7,0,0,0-.769-.287,2.506,2.506,0,0,1-2.874-2.176,2.522,2.522,0,0,1,2.343-2.839,2.51,2.51,0,0,1,2.694,2.5,2.37,2.37,0,0,1-.2.972.69.69,0,0,0,.164.882c.552.609,1.042,1.276,1.615,1.863a1.575,1.575,0,0,0,.9.412,19.232,19.232,0,0,0,1.93.019c0-.4-.012-.743,0-1.09a4.3,4.3,0,0,1,4.036-4.136c.2-.013.4-.017.6-.017q6.747,0,13.494,0a4.348,4.348,0,0,1,4.649,4.669c0,1.88.016,3.76-.01,5.639-.006.459.143.562.574.554,1.443-.025,2.887-.012,4.33-.007.664,0,1.041.312,1.034.832s-.385.821-1.049.823c-1.594,0-3.187,0-4.829,0v3.721c.165.01.342.03.518.03,1.376,0,2.753.014,4.129,0a2.671,2.671,0,0,1,2.234,1.047c.538.665,1.114,1.3,1.652,1.966a.712.712,0,0,0,.76.3,2.507,2.507,0,0,1,2.9,2.211,2.534,2.534,0,0,1-2.248,2.786,2.385,2.385,0,0,1-2.293-.986,2.359,2.359,0,0,1-.3-2.517.586.586,0,0,0-.1-.75c-.573-.636-1.086-1.327-1.68-1.94a1.45,1.45,0,0,0-.9-.418c-1.408-.044-2.819,0-4.229-.03-.423-.008-.513.153-.495.528a4.513,4.513,0,0,1-1.421,3.773,4.41,4.41,0,0,1-3.089,1.133c-.537,0-1.076-.02-1.61.016-.138.01-.375.193-.378.3-.029,1.053-.017,2.108-.017,3.216.255.011.465.029.676.029q12.714,0,25.427,0a3.4,3.4,0,0,1,3.52,2.888,4.029,4.029,0,0,1-.113,1.584c-1.028,4.117-2.085,8.226-3.138,12.337a4.117,4.117,0,0,1-4.174,3.25q-22.532,0-45.065,0a3.664,3.664,0,0,1-3.846-3.823q-.009-4.356,0-8.711a7.5,7.5,0,0,1,7.47-7.526c.269,0,.538-.01.806,0a.841.841,0,0,1,.879.84.846.846,0,0,1-.849.825c-.568.037-1.147,0-1.706.088a5.73,5.73,0,0,0-4.925,5.593c-.066,2.5-.019,5-.021,7.5,0,.52-.017,1.042.007,1.561a2.019,2.019,0,0,0,2.05,2c2.954.014,5.908,0,8.862,0A.984.984,0,0,0-115.609,1711.165Zm13.458.015h22.5a2.592,2.592,0,0,0,2.868-2.252c1.014-4,1.994-8,3.07-11.985a1.918,1.918,0,0,0-1.958-2.525c-6.627.054-13.255.024-19.882.024a2.544,2.544,0,0,0-2.935,2.27q-1.779,6.969-3.553,13.939C-102.078,1710.807-102.106,1710.967-102.151,1711.18Zm-14.08-33.683q0,3.575,0,7.149a2.668,2.668,0,0,0,2.886,2.887q6.847.009,13.694,0a2.676,2.676,0,0,0,2.9-2.884q.013-7.124,0-14.248a2.666,2.666,0,0,0-2.894-2.886q-6.847-.009-13.694,0a2.661,2.661,0,0,0-2.89,2.883Q-116.237,1673.947-116.232,1677.5Zm12.989,31.108c-.192-.016-.308-.034-.423-.034q-4.481,0-8.962,0a1.331,1.331,0,0,0-1.475,1.309,1.348,1.348,0,0,0,1.487,1.3q4.2.006,8.408,0c.1,0,.2-.017.324-.029Zm-.04-15.859c0-1.039-.018-2.024.008-3.008.011-.415-.117-.547-.538-.542-1.791.021-3.583.008-5.375.01-.16,0-.32.021-.483.033v3.507Zm-11.49,1.735c.448.937.866,1.827,1.3,2.709.284.576.678.666,1.167.26.852-.707,1.69-1.431,2.532-2.15.287-.245.57-.5.941-.819Zm10.573-.013,3.714,3.128,1-3.128Zm-19.737-6.56a.9.9,0,0,0-.858-.872.881.881,0,0,0-.89.832.882.882,0,0,0,.877.9A.892.892,0,0,0-123.937,1687.908Zm0-20.969a.883.883,0,0,0-.9-.837.873.873,0,0,0-.847.885.872.872,0,0,0,.893.837A.889.889,0,0,0-123.938,1666.938Zm-.981,10.6a.878.878,0,0,0-.859-.876.881.881,0,0,0-.885.85.866.866,0,0,0,.859.869A.862.862,0,0,0-124.918,1677.537Zm40.4,10.337a.866.866,0,0,0-.891-.837.863.863,0,0,0-.835.89.853.853,0,0,0,.886.837A.873.873,0,0,0-84.514,1687.874Z" transform="translate(0 -57.76)" fill="#34054d"/>
        <path id="Path_884609" data-name="Path 884609" d="M246.8,1617.238q1.034-.619,2.069-1.237a4.66,4.66,0,0,1,.528-.292.816.816,0,0,1,1.053.319.778.778,0,0,1-.223,1.074c-1.224.763-2.459,1.511-3.714,2.221a1.14,1.14,0,0,1-1.356-.216,1.2,1.2,0,0,1-.425-1.308,7.9,7.9,0,0,1,.358-1.047c.163-.362.044-.515-.287-.692a8.262,8.262,0,0,1-4.532-5.779,7.616,7.616,0,0,1,2.577-7.487,10.476,10.476,0,0,1,14.108.291,7.786,7.786,0,0,1-.408,11.673,15.759,15.759,0,0,1-2.439,1.578.843.843,0,0,1-1.291-.3c-.223-.467-.009-.917.59-1.191a7.854,7.854,0,0,0,2.676-1.927,6.121,6.121,0,0,0,.076-8.263,8.774,8.774,0,0,0-12.974.17,6.156,6.156,0,0,0,1.083,8.89,12,12,0,0,0,2.07,1.221c.729.365.891.651.627,1.431-.09.265-.177.532-.265.8Z" transform="translate(-331.328)" fill="#34054d"/>
        <path id="Path_884610" data-name="Path 884610" d="M374.631,1679.3a.815.815,0,1,1,.8-.808A.821.821,0,0,1,374.631,1679.3Z" transform="translate(-451.557 -69.662)" fill="#34054d"/>
        <path id="Path_884611" data-name="Path 884611" d="M290.987,1677.674a.814.814,0,0,1-.038,1.628.814.814,0,0,1,.038-1.628Z" transform="translate(-376.34 -69.665)" fill="#34054d"/>
        <path id="Path_884612" data-name="Path 884612" d="M331.8,1677.662a.835.835,0,0,1,.833.832.846.846,0,0,1-.819.8.816.816,0,1,1-.013-1.632Z" transform="translate(-413.054 -69.654)" fill="#34054d"/>
        <path id="Path_884613" data-name="Path 884613" d="M258.038,2018.828a3.122,3.122,0,1,1-3.13-3.134A3.119,3.119,0,0,1,258.038,2018.828Zm-1.664-.018a1.452,1.452,0,1,0-1.474,1.454A1.437,1.437,0,0,0,256.374,2018.81Z" transform="translate(-341.842 -373.642)" fill="#34054d"/>
        <path id="Path_884614" data-name="Path 884614" d="M28.338,1749.344a.825.825,0,0,1-.634.859.772.772,0,0,1-.949-.473c-.207-.475-.391-.963-.554-1.455a.482.482,0,0,0-.55-.375c-1.257.015-2.515.018-3.772,0a.508.508,0,0,0-.574.414c-.133.414-.3.818-.457,1.224-.232.594-.623.81-1.114.624-.509-.192-.667-.6-.442-1.2q.829-2.212,1.674-4.417c.585-1.534,1.179-3.065,1.755-4.6a1.075,1.075,0,0,1,2.1-.017q1.7,4.516,3.4,9.03C28.279,1749.1,28.31,1749.244,28.338,1749.344Zm-4.5-7.306-.136-.005-1.582,4.174h3.29Z" transform="translate(-132.666 -124.891)" fill="#34054d"/>
        <path id="Path_884615" data-name="Path 884615" d="M129.339,1744.647c0,1.524,0,3.049,0,4.573a.9.9,0,0,1-.473.922.826.826,0,0,1-1.18-.791c-.023-.636-.007-1.273-.007-1.909q0-3.543,0-7.086c0-.134,0-.268,0-.4a.837.837,0,0,1,.84-.875.81.81,0,0,1,.81.894C129.346,1741.531,129.339,1743.089,129.339,1744.647Z" transform="translate(-230.225 -124.886)" fill="#34054d"/>
      </g>
    </g>
  </g>
</svg>
