<svg xmlns="http://www.w3.org/2000/svg" xmlns:xlink="http://www.w3.org/1999/xlink" width="124.605" height="125.948" viewBox="0 0 124.605 125.948">
  <defs>
    <clipPath id="clip-path">
      <rect id="Rectangle_400938" data-name="Rectangle 400938" width="117.278" height="117.278" fill="none"/>
    </clipPath>
    <clipPath id="clip-path-2">
      <path id="Path_873460" data-name="Path 873460" d="M0,1.307A1.349,1.349,0,0,0,1.389,2.613,1.349,1.349,0,0,0,2.778,1.307,1.349,1.349,0,0,0,1.389,0,1.349,1.349,0,0,0,0,1.307" transform="translate(0)" fill="#34054d"/>
    </clipPath>
    <clipPath id="clip-path-3">
      <path id="Path_873466" data-name="Path 873466" d="M0,1.307A1.349,1.349,0,0,0,1.39,2.613,1.349,1.349,0,0,0,2.778,1.307,1.349,1.349,0,0,0,1.39,0,1.349,1.349,0,0,0,0,1.307" fill="#34054d"/>
    </clipPath>
    <clipPath id="clip-path-4">
      <path id="Path_873467" data-name="Path 873467" d="M0,1.306A1.349,1.349,0,0,0,1.389,2.612,1.349,1.349,0,0,0,2.778,1.306,1.349,1.349,0,0,0,1.389,0,1.349,1.349,0,0,0,0,1.306" transform="translate(0 0)" fill="#34054d"/>
    </clipPath>
    <clipPath id="clip-path-5">
      <path id="Path_873468" data-name="Path 873468" d="M0,1.306A1.349,1.349,0,0,0,1.39,2.612,1.349,1.349,0,0,0,2.778,1.306,1.349,1.349,0,0,0,1.39,0,1.349,1.349,0,0,0,0,1.306" transform="translate(0 0)" fill="#34054d"/>
    </clipPath>
    <clipPath id="clip-path-6">
      <path id="Path_873469" data-name="Path 873469" d="M0,1.306A1.349,1.349,0,0,0,1.389,2.612,1.349,1.349,0,0,0,2.777,1.306,1.349,1.349,0,0,0,1.389,0,1.349,1.349,0,0,0,0,1.306" transform="translate(0 0)" fill="#34054d"/>
    </clipPath>
    <clipPath id="clip-path-9">
      <path id="Path_873473" data-name="Path 873473" d="M0,1.306A1.349,1.349,0,0,0,1.39,2.612,1.348,1.348,0,0,0,2.778,1.306,1.349,1.349,0,0,0,1.39,0,1.349,1.349,0,0,0,0,1.306" transform="translate(0 0)" fill="#34054d"/>
    </clipPath>
    <clipPath id="clip-path-22">
      <rect id="Rectangle_401492" data-name="Rectangle 401492" width="63.051" height="63.052" transform="translate(-0.133 -0.252)" fill="#34054d" stroke="#707070" stroke-width="1"/>
    </clipPath>
  </defs>
  <g id="Group_1102326" data-name="Group 1102326" transform="translate(23060.281 3818.28)">
    <g id="Group_1100237" data-name="Group 1100237" transform="translate(-23054.037 -3797.84)">
      <g id="Group_1099505" data-name="Group 1099505" transform="translate(1.808 8.418)">
        <g id="Group_1099504" data-name="Group 1099504" transform="translate(0)" clip-path="url(#clip-path-2)">
          <rect id="Rectangle_401140" data-name="Rectangle 401140" width="2.777" height="2.613" transform="translate(0)" fill="#34054d"/>
        </g>
      </g>
      <g id="Group_1099517" data-name="Group 1099517" transform="translate(37.056 8.418)">
        <g id="Group_1099516" data-name="Group 1099516" transform="translate(0)" clip-path="url(#clip-path-3)">
          <rect id="Rectangle_401146" data-name="Rectangle 401146" width="2.778" height="2.613" transform="translate(0 0)" fill="#34054d"/>
        </g>
      </g>
      <g id="Group_1099519" data-name="Group 1099519" transform="translate(30.194 8.418)">
        <g id="Group_1099518" data-name="Group 1099518" transform="translate(0 0)" clip-path="url(#clip-path-4)">
          <rect id="Rectangle_401147" data-name="Rectangle 401147" width="2.778" height="2.612" transform="translate(0 0)" fill="#34054d"/>
        </g>
      </g>
      <g id="Group_1099521" data-name="Group 1099521" transform="translate(23.332 8.418)">
        <g id="Group_1099520" data-name="Group 1099520" transform="translate(0 0)" clip-path="url(#clip-path-5)">
          <rect id="Rectangle_401148" data-name="Rectangle 401148" width="2.778" height="2.612" transform="translate(0 0)" fill="#34054d"/>
        </g>
      </g>
      <g id="Group_1099523" data-name="Group 1099523" transform="translate(16.47 8.418)">
        <g id="Group_1099522" data-name="Group 1099522" transform="translate(0 0)" clip-path="url(#clip-path-6)">
          <rect id="Rectangle_401149" data-name="Rectangle 401149" width="2.777" height="2.612" transform="translate(0 0)" fill="#34054d"/>
        </g>
      </g>
      <g id="Group_1099525" data-name="Group 1099525" transform="translate(34.311 0)">
        <g id="Group_1099524" data-name="Group 1099524" clip-path="url(#clip-path-4)">
          <rect id="Rectangle_401150" data-name="Rectangle 401150" width="2.778" height="2.612" transform="translate(0 0)" fill="#34054d"/>
        </g>
      </g>
      <g id="Group_1099529" data-name="Group 1099529" transform="translate(27.448 0)">
        <g id="Group_1099528" data-name="Group 1099528" transform="translate(0)" clip-path="url(#clip-path-5)">
          <rect id="Rectangle_401152" data-name="Rectangle 401152" width="2.778" height="2.612" transform="translate(0 0)" fill="#34054d"/>
        </g>
      </g>
      <g id="Group_1099531" data-name="Group 1099531" transform="translate(13.724 0)">
        <g id="Group_1099530" data-name="Group 1099530" transform="translate(0)" clip-path="url(#clip-path-9)">
          <rect id="Rectangle_401153" data-name="Rectangle 401153" width="2.777" height="2.612" transform="translate(0 0)" fill="#34054d"/>
        </g>
      </g>
      <g id="Group_1099533" data-name="Group 1099533" transform="translate(6.862 0)">
        <g id="Group_1099532" data-name="Group 1099532" clip-path="url(#clip-path-4)">
          <rect id="Rectangle_401154" data-name="Rectangle 401154" width="2.778" height="2.612" transform="translate(0 0)" fill="#34054d"/>
        </g>
      </g>
      <g id="Group_1099535" data-name="Group 1099535" transform="translate(0 0)">
        <g id="Group_1099534" data-name="Group 1099534" transform="translate(0)" clip-path="url(#clip-path-5)">
          <rect id="Rectangle_401155" data-name="Rectangle 401155" width="2.778" height="2.612" transform="translate(0 0)" fill="#34054d"/>
        </g>
      </g>
    </g>
    <g id="Group_1100238" data-name="Group 1100238" transform="translate(-22980.652 -3724.455)">
      <g id="Group_1099505-2" data-name="Group 1099505" transform="translate(1.808 8.418)">
        <g id="Group_1099504-2" data-name="Group 1099504" transform="translate(0)" clip-path="url(#clip-path-2)">
          <rect id="Rectangle_401140-2" data-name="Rectangle 401140" width="2.777" height="2.613" transform="translate(0)" fill="#34054d"/>
        </g>
      </g>
      <g id="Group_1099517-2" data-name="Group 1099517" transform="translate(37.056 8.418)">
        <g id="Group_1099516-2" data-name="Group 1099516" transform="translate(0)" clip-path="url(#clip-path-3)">
          <rect id="Rectangle_401146-2" data-name="Rectangle 401146" width="2.778" height="2.613" transform="translate(0 0)" fill="#34054d"/>
        </g>
      </g>
      <g id="Group_1099519-2" data-name="Group 1099519" transform="translate(30.194 8.418)">
        <g id="Group_1099518-2" data-name="Group 1099518" transform="translate(0 0)" clip-path="url(#clip-path-4)">
          <rect id="Rectangle_401147-2" data-name="Rectangle 401147" width="2.778" height="2.612" transform="translate(0 0)" fill="#34054d"/>
        </g>
      </g>
      <g id="Group_1099521-2" data-name="Group 1099521" transform="translate(23.332 8.418)">
        <g id="Group_1099520-2" data-name="Group 1099520" transform="translate(0 0)" clip-path="url(#clip-path-5)">
          <rect id="Rectangle_401148-2" data-name="Rectangle 401148" width="2.778" height="2.612" transform="translate(0 0)" fill="#34054d"/>
        </g>
      </g>
      <g id="Group_1099523-2" data-name="Group 1099523" transform="translate(16.47 8.418)">
        <g id="Group_1099522-2" data-name="Group 1099522" transform="translate(0 0)" clip-path="url(#clip-path-6)">
          <rect id="Rectangle_401149-2" data-name="Rectangle 401149" width="2.777" height="2.612" transform="translate(0 0)" fill="#34054d"/>
        </g>
      </g>
      <g id="Group_1099525-2" data-name="Group 1099525" transform="translate(34.311 0)">
        <g id="Group_1099524-2" data-name="Group 1099524" clip-path="url(#clip-path-4)">
          <rect id="Rectangle_401150-2" data-name="Rectangle 401150" width="2.778" height="2.612" transform="translate(0 0)" fill="#34054d"/>
        </g>
      </g>
      <g id="Group_1099529-2" data-name="Group 1099529" transform="translate(27.448 0)">
        <g id="Group_1099528-2" data-name="Group 1099528" transform="translate(0)" clip-path="url(#clip-path-5)">
          <rect id="Rectangle_401152-2" data-name="Rectangle 401152" width="2.778" height="2.612" transform="translate(0 0)" fill="#34054d"/>
        </g>
      </g>
      <g id="Group_1099531-2" data-name="Group 1099531" transform="translate(13.724 0)">
        <g id="Group_1099530-2" data-name="Group 1099530" transform="translate(0)" clip-path="url(#clip-path-9)">
          <rect id="Rectangle_401153-2" data-name="Rectangle 401153" width="2.777" height="2.612" transform="translate(0 0)" fill="#34054d"/>
        </g>
      </g>
      <g id="Group_1099533-2" data-name="Group 1099533" transform="translate(6.862 0)">
        <g id="Group_1099532-2" data-name="Group 1099532" clip-path="url(#clip-path-4)">
          <rect id="Rectangle_401154-2" data-name="Rectangle 401154" width="2.778" height="2.612" transform="translate(0 0)" fill="#34054d"/>
        </g>
      </g>
      <g id="Group_1099535-2" data-name="Group 1099535" transform="translate(0 0)">
        <g id="Group_1099534-2" data-name="Group 1099534" transform="translate(0)" clip-path="url(#clip-path-5)">
          <rect id="Rectangle_401155-2" data-name="Rectangle 401155" width="2.778" height="2.612" transform="translate(0 0)" fill="#34054d"/>
        </g>
      </g>
    </g>
    <path id="Path_873784" data-name="Path 873784" d="M83.8,18.565A18.62,18.62,0,0,0,65.231,0H18.566A18.62,18.62,0,0,0,0,18.566V65.231A18.62,18.62,0,0,0,18.565,83.8H65.231A18.62,18.62,0,0,0,83.8,65.23Z" transform="translate(-22994.928 -3692.332) rotate(-135)" fill="#4b0d6b"/>
    <path id="Path_873785" data-name="Path 873785" d="M86.438,19.15A19.206,19.206,0,0,0,67.287,0H19.151A19.207,19.207,0,0,0,0,19.151V67.287a19.206,19.206,0,0,0,19.15,19.15H67.287A19.207,19.207,0,0,0,86.437,67.286Z" transform="translate(-22999.16 -3696.04) rotate(-135)" fill="#d7c9fe"/>
    <g id="Group_1098697" data-name="Group 1098697" transform="translate(-23031.146 -3787.541)" clip-path="url(#clip-path-22)">
      <g id="Group_1110120" data-name="Group 1110120" transform="translate(534.49 -2698.693)">
        <path id="Path_884616" data-name="Path 884616" d="M-486.217,2726c0,1.222-.009,2.393.014,3.563,0,.123.17.281.3.358a2.7,2.7,0,0,1,.017,4.826c-.14.083-.314.261-.317.4-.025,1.153-.014,2.307-.014,3.539h.595q3.676,0,7.352,0a2.711,2.711,0,0,1,2.922,2.9q.01,7.066,0,14.134a2.707,2.707,0,0,1-2.885,2.888q-8.879.006-17.758,0a2.71,2.71,0,0,1-2.919-2.9c0-1.26,0-2.52,0-3.78v-.565h-.605q-8.1,0-16.2-.009a.773.773,0,0,0-.8.463,2.649,2.649,0,0,1-2.754,1.333,2.769,2.769,0,0,1-2.26-2.271,2.644,2.644,0,0,1,1.349-2.747.738.738,0,0,0,.449-.81c-.028-.428-.007-.859-.007-1.354-.224-.011-.422-.029-.619-.029q-3.65,0-7.3,0a2.729,2.729,0,0,1-2.953-2.927q-.005-7.042,0-14.083a2.726,2.726,0,0,1,2.938-2.942q3.65-.005,7.3,0h.6v-3.62h-.6q-3.65,0-7.3,0a2.708,2.708,0,0,1-2.939-2.93q0-7.042,0-14.083a2.7,2.7,0,0,1,2.9-2.912q8.879,0,17.758,0a2.7,2.7,0,0,1,2.887,2.878c.005,1.847,0,3.693,0,5.54v.593h7.245v-.543c0-1.484.034-2.969-.012-4.452a2.076,2.076,0,0,1,1.173-2.079,12.671,12.671,0,0,1,2.689-1.035,40.421,40.421,0,0,1,11.369-.829,27.763,27.763,0,0,1,7.246,1.083,9.867,9.867,0,0,1,2,.941,1.925,1.925,0,0,1,.922,1.793q-.025,7.844,0,15.687a2.032,2.032,0,0,1-1.114,2,15.1,15.1,0,0,1-2.781,1.082,33.984,33.984,0,0,1-7.179.863Zm-1.823,0c-.255-.013-.427-.014-.6-.031-2.109-.21-4.232-.336-6.321-.669a15.433,15.433,0,0,1-3.478-1.115,2.231,2.231,0,0,1-1.408-2.307c.055-2.639.018-5.28.018-7.92v-.607h-7.245v.588q0,2.744,0,5.488a2.709,2.709,0,0,1-2.93,2.939q-3.676.006-7.351,0h-.559v3.62h.591q3.6,0,7.2,0a2.751,2.751,0,0,1,3.053,3.035c0,.788,0,1.576,0,2.415h4.2q6.342,0,12.683-.01a.779.779,0,0,0,.591-.244,3.225,3.225,0,0,1,1.346-1.32.426.426,0,0,0,.2-.305C-488.035,2728.391-488.04,2727.221-488.04,2726Zm-19.03,7.242v.712q0,4.452,0,8.905a2.762,2.762,0,0,1-3.06,3.082h-7.813c0,.569-.027,1.083.014,1.593a.968.968,0,0,0,.308.508,9.2,9.2,0,0,1,1.09,1.07.85.85,0,0,0,.809.458q8.1-.021,16.205-.009h.605v-.617q0-3.676,0-7.352a2.709,2.709,0,0,1,2.917-2.9q3.676-.006,7.352,0h.6c0-1.23.009-2.4-.013-3.569,0-.122-.18-.249-.293-.357a6.532,6.532,0,0,1-1.091-1.066.858.858,0,0,0-.861-.46q-8.077.015-16.153.007Zm10,14.521c-.01.2-.025.357-.025.51q0,3.676,0,7.352c0,.873.315,1.185,1.186,1.185q8.776,0,17.552,0c.873,0,1.188-.315,1.189-1.182q0-3.7,0-7.4c0-.148-.022-.3-.034-.461Zm-11.836-36.235h-19.872a1.5,1.5,0,0,0-.038.226c0,2.6-.009,5.209,0,7.814,0,.663.39,1,1.115,1q8.849,0,17.7,0c.77,0,1.121-.341,1.123-1.1q.008-3.778,0-7.556C-508.876,2711.8-508.893,2711.679-508.9,2711.529Zm-19.914,23.566v.527q0,3.624,0,7.248c0,.951.287,1.241,1.228,1.241h17.5c.915,0,1.215-.3,1.216-1.2q0-3.65,0-7.3v-.515Zm0-25.437h19.944c0-1.357,0-2.681,0-4,0-1.158-.245-1.407-1.383-1.407-4.606,0-9.211-.038-13.816.022-1.489.02-3.018-.362-4.475.267-.581,1.465-.126,2.992-.267,4.484C-528.835,2709.22-528.819,2709.424-528.819,2709.658Zm51.653,36.258c0-1.466,0-2.88,0-4.293,0-.8-.33-1.129-1.136-1.129q-8.828,0-17.656,0c-.8,0-1.13.327-1.134,1.132-.006,1.277,0,2.554,0,3.832,0,.147.029.294.046.458Zm-51.643-12.711h19.933c0-1.358,0-2.683,0-4.007,0-1.135-.238-1.377-1.352-1.377h-17.24a4.145,4.145,0,0,0-.517.01.822.822,0,0,0-.813.8C-528.827,2730.141-528.808,2731.655-528.808,2733.2ZM-498,2713.6c0,.99.026,1.9-.011,2.814a.735.735,0,0,0,.531.83,21.979,21.979,0,0,0,2.716.821,42.389,42.389,0,0,0,14.823.091,20.69,20.69,0,0,0,3.072-.888c.238-.079.57-.357.582-.56.06-1.008.027-2.022.027-3.1a31.1,31.1,0,0,1-10.86,1.5A30.958,30.958,0,0,1-498,2713.6Zm21.738,5.449a31.863,31.863,0,0,1-10.87,1.5A31.709,31.709,0,0,1-498,2719.047c0,.989.018,1.933-.009,2.875a.655.655,0,0,0,.455.719,17.882,17.882,0,0,0,2.252.739,41.056,41.056,0,0,0,15.48.181,21.57,21.57,0,0,0,3.061-.908c.2-.065.47-.3.477-.471C-476.235,2721.157-476.258,2720.128-476.258,2719.048Zm0-10.757a42.113,42.113,0,0,1-21.717,0,.155.155,0,0,0-.02.083c0,.879.016,1.76-.015,2.638a.685.685,0,0,0,.473.762,17.285,17.285,0,0,0,2.2.728,41.143,41.143,0,0,0,15.529.184,22.01,22.01,0,0,0,3.016-.885.655.655,0,0,0,.54-.665C-476.268,2710.188-476.253,2709.24-476.253,2708.292Zm-21.639-2.3.018.164a4.481,4.481,0,0,0,.728.358,29.125,29.125,0,0,0,2.942.787,43.07,43.07,0,0,0,10.88.42,22.421,22.421,0,0,0,5.934-1.1c.359-.129.694-.322,1.131-.529a6.512,6.512,0,0,0-2.654-1.04,40.462,40.462,0,0,0-13.537-.477,44.775,44.775,0,0,0-4.635,1.008A3.83,3.83,0,0,0-497.893,2705.991Zm-20.064,44.494a.881.881,0,0,0-.857-.911.88.88,0,0,0-.923.844.882.882,0,0,0,.882.938A.883.883,0,0,0-517.956,2750.485Zm30.8-17.252a.889.889,0,0,0,.914-.858.888.888,0,0,0-.847-.924.9.9,0,0,0-.943.883A.9.9,0,0,0-487.154,2733.232Z" transform="translate(0 0)" fill="#34054d"/>
        <path id="Path_884617" data-name="Path 884617" d="M-186.676,3157.477a2.71,2.71,0,0,1,2.706,2.7,2.713,2.713,0,0,1-2.732,2.725,2.71,2.71,0,0,1-2.7-2.75A2.71,2.71,0,0,1-186.676,3157.477Zm.007,1.807a.916.916,0,0,0-.91.875.919.919,0,0,0,.853.932.923.923,0,0,0,.939-.9A.923.923,0,0,0-186.67,3159.284Z" transform="translate(-305.881 -407.911)" fill="#34054d"/>
        <path id="Path_884618" data-name="Path 884618" d="M-110.092,3157.842v1.723H-119.1v-1.723Z" transform="translate(-368.902 -408.239)" fill="#34054d"/>
        <path id="Path_884619" data-name="Path 884619" d="M-113.76,3194.579h-5.352v-1.741h5.352Z" transform="translate(-368.895 -439.611)" fill="#34054d"/>
        <path id="Path_884620" data-name="Path 884620" d="M-47.31,3194.489h-1.733v-1.744h1.733Z" transform="translate(-431.708 -439.527)" fill="#34054d"/>
        <path id="Path_884621" data-name="Path 884621" d="M-384.938,2807.794v5.348h-5.376v-5.348Zm-3.568,1.795v1.75h1.752v-1.75Z" transform="translate(-125.779 -94.442)" fill="#34054d"/>
        <path id="Path_884622" data-name="Path 884622" d="M-495.4,2809.61v-1.723h9v1.723Z" transform="translate(-31.578 -94.525)" fill="#34054d"/>
        <path id="Path_884623" data-name="Path 884623" d="M-489.85,2844.483H-495.2v-1.756h5.353Z" transform="translate(-31.752 -125.757)" fill="#34054d"/>
        <path id="Path_884624" data-name="Path 884624" d="M-423.58,2842.772v1.728h-1.756v-1.728Z" transform="translate(-94.384 -125.798)" fill="#34054d"/>
        <path id="Path_884625" data-name="Path 884625" d="M-495.314,3071.979v-1.745h16.24v1.745Z" transform="translate(-31.653 -329.703)" fill="#34054d"/>
        <path id="Path_884626" data-name="Path 884626" d="M-447.575,3035.17v1.758h-12.609v-1.758Z" transform="translate(-63.145 -298.271)" fill="#34054d"/>
        <path id="Path_884627" data-name="Path 884627" d="M-493.493,3035.147v1.763h-1.739v-1.763Z" transform="translate(-31.726 -298.25)" fill="#34054d"/>
        <path id="Path_884628" data-name="Path 884628" d="M-423.558,2737.8v1.722h-1.75V2737.8Z" transform="translate(-94.409 -31.697)" fill="#34054d"/>
        <path id="Path_884629" data-name="Path 884629" d="M-460.445,2739.569v-1.733h1.742v1.733Z" transform="translate(-62.911 -31.729)" fill="#34054d"/>
        <path id="Path_884630" data-name="Path 884630" d="M-493.567,2739.56h-1.723v-1.742h1.723Z" transform="translate(-31.674 -31.713)" fill="#34054d"/>
        <path id="Path_884631" data-name="Path 884631" d="M-152.387,3089.553h-1.759v-1.74h1.759Z" transform="translate(-337.489 -345.463)" fill="#34054d"/>
        <path id="Path_884632" data-name="Path 884632" d="M-117.387,3089.553h-1.759v-1.74h1.759Z" transform="translate(-368.865 -345.463)" fill="#34054d"/>
        <path id="Path_884633" data-name="Path 884633" d="M-189.1,3087.676h1.749v1.758H-189.1Z" transform="translate(-306.152 -345.339)" fill="#34054d"/>
        <path id="Path_884634" data-name="Path 884634" d="M-458.466,2966.958h-1.714v-1.771h1.714Z" transform="translate(-63.148 -235.536)" fill="#34054d"/>
        <path id="Path_884635" data-name="Path 884635" d="M-423.466,2966.958h-1.714v-1.771h1.714Z" transform="translate(-94.524 -235.536)" fill="#34054d"/>
        <path id="Path_884636" data-name="Path 884636" d="M-493.556,2966.871h-1.738V2965.1h1.738Z" transform="translate(-31.671 -235.455)" fill="#34054d"/>
      </g>
    </g>
  </g>
</svg>
