<svg xmlns="http://www.w3.org/2000/svg" xmlns:xlink="http://www.w3.org/1999/xlink" width="99" height="99" viewBox="0 0 99 99">
  <defs>
    <clipPath id="clip-path">
      <rect id="Rectangle_401223" data-name="Rectangle 401223" width="99" height="99" transform="translate(0)" fill="#a01f4e"/>
    </clipPath>
    <clipPath id="clip-path-2">
      <rect id="Rectangle_401223-2" data-name="Rectangle 401223" width="88.539" height="88.539" fill="#f3f9ff"/>
    </clipPath>
  </defs>
  <g id="Group_1109552" data-name="Group 1109552" transform="translate(-619.921 -5755.871)">
    <g id="Group_1100724" data-name="Group 1100724" transform="translate(619.921 5755.871)">
      <g id="Group_1099654" data-name="Group 1099654" transform="translate(0 0)">
        <g id="Group_1099652" data-name="Group 1099652" clip-path="url(#clip-path)">
          <path id="Path_873521" data-name="Path 873521" d="M99,77.066A22,22,0,0,1,77.066,99H21.934A22,22,0,0,1,0,77.066V21.933A22,22,0,0,1,21.934,0H77.066A22,22,0,0,1,99,21.934Z" transform="translate(0)" fill="#bfa9fe"/>
        </g>
      </g>
      <g id="Group_1099659" data-name="Group 1099659" transform="translate(4.77 5.723)">
        <g id="Group_1099652-2" data-name="Group 1099652" transform="translate(0 0)" clip-path="url(#clip-path-2)">
          <path id="Path_873521-2" data-name="Path 873521" d="M88.539,68.922A19.674,19.674,0,0,1,68.923,88.539H19.616A19.674,19.674,0,0,1,0,68.922V19.616A19.674,19.674,0,0,1,19.616,0H68.923A19.674,19.674,0,0,1,88.539,19.616Z" fill="#f3f9ff"/>
        </g>
      </g>
    </g>
    <g id="Group_1100725" data-name="Group 1100725" transform="translate(636.343 5771.293)">
      <rect id="Rectangle_401104" data-name="Rectangle 401104" width="68" height="69" transform="translate(-0.214 0.105)" fill="none"/>
      <g id="Group_1109851" data-name="Group 1109851" transform="translate(-304.944 352.561)">
        <path id="Path_883927" data-name="Path 883927" d="M383.895-273.081a9.155,9.155,0,0,1,.474,2.1,4.262,4.262,0,0,1-.639,1.5c-.428-.334-1.1-.589-1.24-1.017-.562-1.735-.991-3.515-1.409-5.293-.274-1.166.166-1.722,1.258-1.628,1.822.156,3.64.362,5.457.563.689.076,1.376.289,1.234,1.161-.144.889-.851.95-1.609.84a4.614,4.614,0,0,0-1.974.077c1.6,1.413,3.186,2.841,4.8,4.235,4.008,3.454,8.079,6.824,12.927,9.081,4.885,2.274,9.651,2.261,14.007-1.152a13.541,13.541,0,0,0,5.361-13.455c-.977-6.393-6.459-11.241-12.551-11.175-.2,0-.4.032-.625.051-.163.43-.306.85-.479,1.257a5.163,5.163,0,0,1-5.749,3.105,5.178,5.178,0,0,1-4.174-4.9,5.133,5.133,0,0,1,3.784-5.195,5.051,5.051,0,0,1,5.9,2.532,1.753,1.753,0,0,0,1.739,1.118,15.17,15.17,0,0,1,14.347,15.043,15.845,15.845,0,0,1-12.922,16.153,15.83,15.83,0,0,1-9.805-1.7,54.792,54.792,0,0,1-11.813-8.141c-2.039-1.734-4.04-3.513-6.059-5.272Z" transform="translate(-55.387 -44.103)" fill="#34054d"/>
        <path id="Path_883928" data-name="Path 883928" d="M346.985-264.03c-.034-.211-.019-.313-.062-.352-5.087-4.556-10.075-9.248-16.15-12.518-3.055-1.644-6.262-2.689-9.823-2.1-6.2,1.032-11.159,7.02-11.179,13.546A13.405,13.405,0,0,0,320.8-251.915a15.19,15.19,0,0,0,2.35.016c.166-.431.32-.888.515-1.329a5.19,5.19,0,0,1,5.812-3,5.2,5.2,0,0,1,4.073,4.862,5.129,5.129,0,0,1-3.764,5.21,5.012,5.012,0,0,1-5.9-2.51,1.835,1.835,0,0,0-1.857-1.137,15.335,15.335,0,0,1-14.279-14.9c-.318-7.748,5.435-15.048,12.933-16.3a16.308,16.308,0,0,1,9.918,1.748,54.971,54.971,0,0,1,11.614,8c1.8,1.525,3.553,3.1,5.331,4.652.294.257.608.492,1.175.948-.245-.981-.422-1.638-.57-2.3s-.017-1.351.755-1.36a1.558,1.558,0,0,1,1.171.868c.542,1.7.965,3.438,1.369,5.177.27,1.165-.174,1.707-1.28,1.612-1.822-.157-3.64-.361-5.458-.557-.7-.075-1.358-.279-1.219-1.164.143-.913.835-.955,1.593-.84C345.7-264.119,346.328-264.091,346.985-264.03Z" transform="translate(0 -53.114)" fill="#34054d"/>
        <path id="Path_883929" data-name="Path 883929" d="M399.156-346.574c-.215-.226-.689-.508-.771-.878a1.2,1.2,0,0,1,.522-1.045,7.465,7.465,0,0,1,2.335-.5c.316-.016.9.41.923.676a1.369,1.369,0,0,1-.55,1.143A13.561,13.561,0,0,1,399.156-346.574Z" transform="translate(-68.52 -1.862)" fill="#34054d"/>
        <path id="Path_883930" data-name="Path 883930" d="M454.972-87.919c-.25-.262-.816-.591-.855-.974-.034-.341.442-.883.825-1.08a3.3,3.3,0,0,1,1.746-.371c.45.045.859.49,1.287.758-.273.389-.464.935-.839,1.13A10.049,10.049,0,0,1,454.972-87.919Z" transform="translate(-110.655 -197.368)" fill="#34054d"/>
        <path id="Path_883931" data-name="Path 883931" d="M518.472-318.073c-.276.168-.911.736-1.076.623a13.674,13.674,0,0,1-2.333-2.11,2.06,2.06,0,0,1,.851-1.119C516.5-320.909,518.445-319.061,518.472-318.073Z" transform="translate(-156.721 -23.25)" fill="#34054d"/>
        <path id="Path_883932" data-name="Path 883932" d="M341.5-118.961c-.82-.867-1.6-1.632-2.286-2.475-.107-.131.133-.759.366-.9a1.249,1.249,0,0,1,1.094-.053,7.948,7.948,0,0,1,1.71,1.507,1.324,1.324,0,0,1,.109,1.1C342.4-119.506,341.988-119.344,341.5-118.961Z" transform="translate(-23.778 -173.078)" fill="#34054d"/>
        <path id="Path_883933" data-name="Path 883933" d="M377.925-343.125c.323.272.82.492.846.759a1.534,1.534,0,0,1-.425,1.222,5.629,5.629,0,0,1-1.992.866,1.25,1.25,0,0,1-1.09-.462,1.208,1.208,0,0,1,.178-1.166A19.347,19.347,0,0,1,377.925-343.125Z" transform="translate(-50.991 -6.297)" fill="#34054d"/>
        <path id="Path_883934" data-name="Path 883934" d="M497.83-332.637a.946.946,0,0,1-1.321.935,8.1,8.1,0,0,1-2.053-1.245c-.605-.528-.467-1.18.243-1.574C495.438-334.929,497.808-333.475,497.83-332.637Z" transform="translate(-140.86 -12.748)" fill="#34054d"/>
        <path id="Path_883935" data-name="Path 883935" d="M354.7-328c-.42-.292-.844-.433-.943-.7a1.22,1.22,0,0,1,.1-1.08,9.617,9.617,0,0,1,2.119-1.381,1.194,1.194,0,0,1,1.048.318,1.021,1.021,0,0,1,.088.986C356.377-329.19,355.547-328.633,354.7-328Z" transform="translate(-34.735 -15.316)" fill="#34054d"/>
        <path id="Path_883936" data-name="Path 883936" d="M320.332-293.826c-.907-.188-1.442-.938-1.116-1.573a7.125,7.125,0,0,1,1.329-1.878,1.308,1.308,0,0,1,1.262-.137,1.275,1.275,0,0,1,.269,1.23A21.941,21.941,0,0,1,320.332-293.826Z" transform="translate(-8.61 -40.77)" fill="#34054d"/>
        <path id="Path_883937" data-name="Path 883937" d="M539.721-145.33c-.707.853-1.332,1.681-2.054,2.414-.139.141-.789.021-.968-.184a1.219,1.219,0,0,1-.233-1.075,8.833,8.833,0,0,1,1.395-1.979,1.234,1.234,0,0,1,1.076-.121C539.211-146.178,539.376-145.769,539.721-145.33Z" transform="translate(-172.865 -155.049)" fill="#34054d"/>
        <path id="Path_883938" data-name="Path 883938" d="M501.15-107.587c-.465-.388-.884-.568-.953-.838a1.288,1.288,0,0,1,.227-1.085,7.9,7.9,0,0,1,1.909-1.279,1.273,1.273,0,0,1,1.091.211c.211.166.359.822.234.939C502.885-108.917,502.027-108.286,501.15-107.587Z" transform="translate(-145.464 -181.882)" fill="#34054d"/>
        <path id="Path_883939" data-name="Path 883939" d="M482.308-97.771c-.464.565-.63.921-.908,1.074a6.539,6.539,0,0,1-1.9.782c-.369.067-1.106-.223-1.159-.465a1.519,1.519,0,0,1,.437-1.3,4.463,4.463,0,0,1,1.992-.842C481.186-98.573,481.672-98.1,482.308-97.771Z" transform="translate(-128.951 -191.194)" fill="#34054d"/>
        <path id="Path_883940" data-name="Path 883940" d="M407.22-86.753a7.23,7.23,0,0,1-1.783-.343c-.36-.165-.838-.763-.763-1.021a1.512,1.512,0,0,1,1.047-.864,3.356,3.356,0,0,1,1.779.269c.433.194,1.044.736,1,1.053-.052.412-.668.754-1.041,1.125Z" transform="translate(-73.276 -198.386)" fill="#34054d"/>
        <path id="Path_883941" data-name="Path 883941" d="M449-350.874a6.06,6.06,0,0,1,1.663.318c.393.2.63.7.936,1.073-.412.292-.793.752-1.243.833a2.872,2.872,0,0,1-1.655-.267c-.43-.208-1.036-.747-.993-1.062.057-.413.675-.748,1.051-1.116Z" transform="translate(-105.808 -0.272)" fill="#34054d"/>
        <path id="Path_883942" data-name="Path 883942" d="M362.728-105.453c-.19.774-.611,1.239-1.385.915a7.481,7.481,0,0,1-1.949-1.174,1.313,1.313,0,0,1-.261-1.156c.083-.266.71-.634.907-.545a19.822,19.822,0,0,1,2.465,1.441C362.64-105.883,362.661-105.618,362.728-105.453Z" transform="translate(-38.826 -184.465)" fill="#34054d"/>
        <path id="Path_883943" data-name="Path 883943" d="M474.73-341.761a17.411,17.411,0,0,1-2.41-.982,1.184,1.184,0,0,1-.417-1.082,1.359,1.359,0,0,1,1.084-.661,6.2,6.2,0,0,1,2.141.8,1.278,1.278,0,0,1,.427,1.1C475.493-342.268,475.02-342.031,474.73-341.761Z" transform="translate(-124.077 -5.265)" fill="#34054d"/>
        <path id="Path_883944" data-name="Path 883944" d="M381.884-96.676A18.593,18.593,0,0,1,384.4-95.64a1.194,1.194,0,0,1,.305,1.127,1.228,1.228,0,0,1-1.029.577,6.676,6.676,0,0,1-2.148-.789,1.292,1.292,0,0,1-.451-1.1C381.132-96.142,381.6-96.392,381.884-96.676Z" transform="translate(-55.439 -192.591)" fill="#34054d"/>
        <path id="Path_883945" data-name="Path 883945" d="M425.195-349.4c-.65,0-1.049.119-1.28-.028-.358-.226-.82-.626-.831-.966a1.288,1.288,0,0,1,.813-.929,4.952,4.952,0,0,1,2.045-.058c.378.069.988.567.957.8a1.826,1.826,0,0,1-.839,1.1A1.519,1.519,0,0,1,425.195-349.4Z" transform="translate(-87.197 0)" fill="#34054d"/>
        <path id="Path_883946" data-name="Path 883946" d="M533.124-303.042c.842-.006,2.4,2.074,2.157,2.873a.965.965,0,0,1-1.666.3,9.974,9.974,0,0,1-1.325-1.732A.932.932,0,0,1,533.124-303.042Z" transform="translate(-169.632 -36.597)" fill="#34054d"/>
        <path id="Path_883947" data-name="Path 883947" d="M326.275-139.047c-.232.938-1.155,1.493-1.7.991a7.394,7.394,0,0,1-1.645-2.194c-.321-.668.485-1.486,1.047-1.1A16.445,16.445,0,0,1,326.275-139.047Z" transform="translate(-11.431 -158.746)" fill="#34054d"/>
        <path id="Path_883948" data-name="Path 883948" d="M431.1-84.9c-.323,0-.7.108-.956-.026-.344-.184-.8-.536-.822-.844a1.2,1.2,0,0,1,.648-.973,8.13,8.13,0,0,1,2.517-.078c.278.035.679.621.674.95a1.326,1.326,0,0,1-.742.9,3.925,3.925,0,0,1-1.319.109Z" transform="translate(-91.913 -199.994)" fill="#34054d"/>
        <path id="Path_883949" data-name="Path 883949" d="M338.17-315.232a17.826,17.826,0,0,1-2.532,2.037c-.579.322-1.359-.616-.958-1.191a7,7,0,0,1,2.132-2.033C337.417-316.771,337.924-316.217,338.17-315.232Z" transform="translate(-20.289 -26.404)" fill="#34054d"/>
        <path id="Path_883950" data-name="Path 883950" d="M521.81-128.323c.516.32.914.427,1.005.656a1.369,1.369,0,0,1,.022,1.113,9.309,9.309,0,0,1-1.724,1.684,1.1,1.1,0,0,1-1-.025c-.244-.155-.52-.743-.422-.877C520.326-126.646,521.063-127.448,521.81-128.323Z" transform="translate(-160.206 -168.669)" fill="#34054d"/>
      </g>
    </g>
  </g>
</svg>
