<svg xmlns="http://www.w3.org/2000/svg" xmlns:xlink="http://www.w3.org/1999/xlink" width="99" height="99" viewBox="0 0 99 99">
  <defs>
    <clipPath id="clip-path">
      <rect id="Rectangle_401223" data-name="Rectangle 401223" width="99" height="99" transform="translate(0)" fill="#a01f4e"/>
    </clipPath>
    <clipPath id="clip-path-2">
      <rect id="Rectangle_401223-2" data-name="Rectangle 401223" width="88.539" height="88.539" fill="#f3f9ff"/>
    </clipPath>
  </defs>
  <g id="Group_1109564" data-name="Group 1109564" transform="translate(-619.921 -5755.871)">
    <g id="Group_1100724" data-name="Group 1100724" transform="translate(619.921 5755.871)">
      <g id="Group_1099654" data-name="Group 1099654" transform="translate(0 0)">
        <g id="Group_1099652" data-name="Group 1099652" clip-path="url(#clip-path)">
          <path id="Path_873521" data-name="Path 873521" d="M99,77.066A22,22,0,0,1,77.066,99H21.934A22,22,0,0,1,0,77.066V21.933A22,22,0,0,1,21.934,0H77.066A22,22,0,0,1,99,21.934Z" transform="translate(0)" fill="#bfa9fe"/>
        </g>
      </g>
      <g id="Group_1099659" data-name="Group 1099659" transform="translate(4.77 5.723)">
        <g id="Group_1099652-2" data-name="Group 1099652" transform="translate(0 0)" clip-path="url(#clip-path-2)">
          <path id="Path_873521-2" data-name="Path 873521" d="M88.539,68.922A19.674,19.674,0,0,1,68.923,88.539H19.616A19.674,19.674,0,0,1,0,68.922V19.616A19.674,19.674,0,0,1,19.616,0H68.923A19.674,19.674,0,0,1,88.539,19.616Z" fill="#f3f9ff"/>
        </g>
      </g>
    </g>
    <g id="Group_1100725" data-name="Group 1100725" transform="translate(636.343 5771.293)">
      <rect id="Rectangle_401104" data-name="Rectangle 401104" width="68" height="69" fill="none"/>
      <g id="Group_1109854" data-name="Group 1109854" transform="translate(-2255.583 541.104)">
        <path id="Path_883970" data-name="Path 883970" d="M2288.541-337.311v-4.382h-.716c-5.646,0-11.292.055-16.937-.029a3.527,3.527,0,0,0-3.668,4.411c.356,0,.732,0,1.108,0a3.235,3.235,0,0,1,2.406.977q2.534,2.532,5.063,5.067a3.107,3.107,0,0,1,.937,2.293c0,5.322,0,10.644-.005,15.966a2.012,2.012,0,0,1-2.152,2.177q-8.408.019-16.816,0a2.042,2.042,0,0,1-2.176-2.222q0-11.018,0-22.036a2.078,2.078,0,0,1,2.2-2.217c2.205-.014,4.411,0,6.617,0h.763c0-.317,0-.59,0-.863a5.238,5.238,0,0,1,5.49-5.5q8.559-.01,17.119,0h.817c0-.818-.01-1.58,0-2.341a.835.835,0,0,1,.729-.91,1.7,1.7,0,0,1,1.05.382c.17.132.19.514.2.786.027.663.009,1.327.009,2.082h.765c5.646,0,11.292.076,16.937-.029a5.412,5.412,0,0,1,5.72,5.729c-.011.2.016.394.029.667h1.171a3.2,3.2,0,0,1,2.354.958q2.559,2.549,5.1,5.111a3.125,3.125,0,0,1,.921,2.3q-.006,7.952,0,15.9a2.041,2.041,0,0,1-2.194,2.205q-8.377.017-16.755,0a2.025,2.025,0,0,1-2.2-2.2q-.011-8.317,0-16.634c0-.8.374-1.253,1-1.246s.985.462.986,1.273q.005,8.013,0,16.026c0,.788,0,.789.8.789,5.221,0,10.442-.007,15.662.011.543,0,.724-.128.721-.7q-.035-7.376,0-14.752c0-.536-.141-.7-.679-.678-1.172.041-2.347.021-3.521.01a2.045,2.045,0,0,1-2.2-2.2c-.007-1.354,0-2.709,0-4.117H2304.42c0,.323.014.658,0,.991a.991.991,0,0,1-1,1.062.981.981,0,0,1-.978-1.078c-.01-.263-.006-.526,0-.789a2.088,2.088,0,0,1,2.283-2.251c2.186-.008,4.371,0,6.556,0h.645a3.4,3.4,0,0,0-3.346-4.379q-8.681-.011-17.362,0c-.178,0-.355.018-.579.03v4.351c.378,0,.752,0,1.127,0a3.24,3.24,0,0,1,2.4.983l5.024,5.02a3.264,3.264,0,0,1,.98,2.4q0,7.922,0,15.844a2.055,2.055,0,0,1-2.237,2.23q-8.347.013-16.694,0a2.056,2.056,0,0,1-2.225-2.242q-.009-10.988,0-21.976a2.1,2.1,0,0,1,2.283-2.262c2.185-.008,4.371,0,6.556,0Zm-7.5,2.044a2.432,2.432,0,0,0-.045.3q0,10.828-.011,21.656c0,.424.183.5.549.5q8.038-.011,16.075,0c.405,0,.571-.1.57-.542q-.019-7.522,0-15.044c0-.444-.167-.544-.571-.537-1.193.02-2.386.013-3.579.005a2.07,2.07,0,0,1-2.253-2.272c-.009-1.132,0-2.265,0-3.4,0-.215-.02-.43-.031-.671Zm-23.438.008c-.011.233-.028.431-.028.63q0,10.561-.011,21.123c0,.5.092.706.658.7q7.952-.033,15.9-.007c.409,0,.626-.059.625-.552q-.023-7.526,0-15.053c0-.4-.141-.523-.531-.517-1.234.019-2.468.017-3.7,0a2.057,2.057,0,0,1-2.164-2.182c-.013-1.173,0-2.347,0-3.52v-.628Zm59.672,1.623v2.674h2.676Zm-44.318,2.724-2.6-2.7c0,.783-.015,1.6.019,2.418,0,.1.27.265.418.27C2271.562-330.9,2272.328-330.914,2272.959-330.914Zm20.857-.05h2.516l-2.516-2.54Z" transform="translate(0 -165.177)" fill="#34054d"/>
        <path id="Path_883971" data-name="Path 883971" d="M2467.287-541.1a20.145,20.145,0,0,1,3.12.353,7.128,7.128,0,0,1,5.325,5.576c.336,1.375.611,2.764.936,4.142a1.983,1.983,0,0,1-.232,1.511,6.259,6.259,0,0,1-3.871,3.008,1.8,1.8,0,0,0-.756.447,6.312,6.312,0,0,1-9.127,0,1.8,1.8,0,0,0-.758-.444,6.025,6.025,0,0,1-3.907-3.127,2.133,2.133,0,0,1-.189-1.27q.428-2.264,1-4.5A7.245,7.245,0,0,1,2465.76-541c.5-.02,1.011,0,1.517,0Zm-6.334,11.831c.019-.032.053-.064.054-.1a.914.914,0,0,0-.018-.241,1.9,1.9,0,0,1,.716-2.036c.68-.59,1.269-1.285,1.9-1.94a.924.924,0,0,0-.1-.141c-.667-.619-.782-1.115-.37-1.605.4-.47.964-.429,1.667.07.725.514,1.455,1.025,2.217,1.481a21.8,21.8,0,0,0,5.526,2.3c.843.229,1.073.572,1.006,1.46-.019.251-.044.5-.069.789.766-.406,1.273-1.09,1.164-1.6-.311-1.442-.589-2.894-.983-4.313a5.24,5.24,0,0,0-5.022-3.862c-.889-.025-1.78-.022-2.669-.005a5.324,5.324,0,0,0-5.244,4.219c-.283,1.179-.528,2.366-.785,3.551A1.63,1.63,0,0,0,2460.953-529.273Zm10.5-.381c-1.018-.39-2.015-.724-2.97-1.152s-1.864-.963-2.81-1.417a.628.628,0,0,0-.559.091c-.645.582-1.277,1.181-1.867,1.817a1,1,0,0,0-.225.742,4.3,4.3,0,0,0,4.253,3.449A4.253,4.253,0,0,0,2471.456-529.653Z" transform="translate(-177.663)" fill="#34054d"/>
        <path id="Path_883972" data-name="Path 883972" d="M2448.473-388.11c0-2.1.474-2.779,2.428-3.631a5.736,5.736,0,0,1,4.962-.092,7.942,7.942,0,0,0,6.652-.082,6.265,6.265,0,0,1,6.407,1.253,2.248,2.248,0,0,1,.709,1.622c0,.647.015,1.294,0,1.941a1.012,1.012,0,0,1-1.021,1.111,1,1,0,0,1-.961-1.1,11.382,11.382,0,0,1,.006-1.455.986.986,0,0,0-.621-1.059,4.374,4.374,0,0,0-4.139-.347,9.577,9.577,0,0,1-8.063-.134c-1.584-.714-2.859-.027-4.13.76a.809.809,0,0,0-.227.578c-.031.585,0,1.173-.021,1.758a.972.972,0,0,1-1,1,1,1,0,0,1-.976-.97,1.114,1.114,0,0,1-.006-.121Q2448.472-387.595,2448.473-388.11Z" transform="translate(-169.469 -128.852)" fill="#34054d"/>
        <path id="Path_883973" data-name="Path 883973" d="M2689.5-157.4l4.27-4.311a5.328,5.328,0,0,1,.391-.38.976.976,0,0,1,1.325-.008.958.958,0,0,1,.1,1.364c-.35.416-.757.784-1.142,1.17q-2.013,2.016-4.031,4.029c-.672.667-1.147.663-1.813,0q-1.42-1.409-2.827-2.831a1.056,1.056,0,0,1-.176-1.55c.437-.459,1.03-.416,1.591.146C2687.947-159.013,2688.685-158.241,2689.5-157.4Z" transform="translate(-377.572 -327.342)" fill="#34054d"/>
        <path id="Path_883974" data-name="Path 883974" d="M2488.974-171.362c0-.652,0-1.293,0-1.933,0-.687,0-1.375,0-2.063.007-.794.378-1.267.986-1.275s1,.467,1.01,1.251c.008,1.173.017,2.346,0,3.518-.008.418.119.582.551.557.54-.031,1.083-.008,1.716-.008v-.771q0-3.124,0-6.248a3.545,3.545,0,0,1,.031-.665.922.922,0,0,1,.981-.811.913.913,0,0,1,.945.783,3.319,3.319,0,0,1,.042.664q0,3.215,0,6.43c0,.341,0,.6.434.728a.869.869,0,0,1,.595,1.062.905.905,0,0,1-.861.8,6.025,6.025,0,0,1-.666.024q-4.762,0-9.524,0c-.2,0-.4,0-.606-.017a.92.92,0,0,1-.917-.814.873.873,0,0,1,.6-1.061c.382-.12.443-.332.433-.668-.015-.525-.018-1.052.005-1.577a1,1,0,0,1,1.027-1.04,1,1,0,0,1,.957,1.049c.021.565-.017,1.134.026,1.7a.56.56,0,0,0,.342.411,11.6,11.6,0,0,0,1.393.02C2488.606-171.318,2488.744-171.34,2488.974-171.362Z" transform="translate(-200.391 -312.006)" fill="#34054d"/>
        <path id="Path_883975" data-name="Path 883975" d="M2296.935-176.115a6.313,6.313,0,0,1-6.287-6.355,6.359,6.359,0,0,1,6.385-6.277,6.327,6.327,0,0,1,6.245,6.405A6.288,6.288,0,0,1,2296.935-176.115Zm-3.6-4.124c.146-.133.3-.259.435-.4.788-.784,1.567-1.577,2.36-2.355a1.042,1.042,0,0,1,1.684,0c.807.794,1.6,1.6,2.4,2.4.132.132.278.25.428.383a4.276,4.276,0,0,0-1.02-5.618,4.329,4.329,0,0,0-5.7.354A4.139,4.139,0,0,0,2293.333-180.239Zm1.515,1.531a3.9,3.9,0,0,0,4.2.022l-2.091-2.162Z" transform="translate(-30.807 -304.154)" fill="#34054d"/>
      </g>
    </g>
  </g>
</svg>
