<svg xmlns="http://www.w3.org/2000/svg" xmlns:xlink="http://www.w3.org/1999/xlink" width="99" height="99" viewBox="0 0 99 99">
  <defs>
    <clipPath id="clip-path">
      <rect id="Rectangle_401223" data-name="Rectangle 401223" width="99" height="99" transform="translate(0)" fill="#065564"/>
    </clipPath>
    <clipPath id="clip-path-2">
      <rect id="Rectangle_401223-2" data-name="Rectangle 401223" width="88.539" height="88.539" fill="#f3f9ff"/>
    </clipPath>
  </defs>
  <g id="Group_1109566" data-name="Group 1109566" transform="translate(-619.921 -5755.871)">
    <g id="Group_1100724" data-name="Group 1100724" transform="translate(619.921 5755.871)">
      <g id="Group_1099654" data-name="Group 1099654" transform="translate(0 0)">
        <g id="Group_1099652" data-name="Group 1099652" clip-path="url(#clip-path)">
          <path id="Path_873521" data-name="Path 873521" d="M99,77.066A22,22,0,0,1,77.066,99H21.934A22,22,0,0,1,0,77.066V21.933A22,22,0,0,1,21.934,0H77.066A22,22,0,0,1,99,21.934Z" transform="translate(0)" fill="#bfa9fe"/>
        </g>
      </g>
      <g id="Group_1099659" data-name="Group 1099659" transform="translate(4.77 5.723)">
        <g id="Group_1099652-2" data-name="Group 1099652" transform="translate(0 0)" clip-path="url(#clip-path-2)">
          <path id="Path_873521-2" data-name="Path 873521" d="M88.539,68.922A19.674,19.674,0,0,1,68.923,88.539H19.616A19.674,19.674,0,0,1,0,68.922V19.616A19.674,19.674,0,0,1,19.616,0H68.923A19.674,19.674,0,0,1,88.539,19.616Z" fill="#f3f9ff"/>
        </g>
      </g>
    </g>
    <g id="Group_1100725" data-name="Group 1100725" transform="translate(636.343 5771.293)">
      <rect id="Rectangle_401104" data-name="Rectangle 401104" width="68" height="69" transform="translate(-0.289 0.105)" fill="none"/>
      <g id="Group_1109853" data-name="Group 1109853" transform="translate(-1444.193 650.574)">
        <path id="Path_883963" data-name="Path 883963" d="M1502-384.981l2.363-9.437-9.478,2.357-.09.177c.5.469,1.009.934,1.506,1.409a6.292,6.292,0,0,1,.606.653,1.08,1.08,0,0,1-.122,1.675,25.961,25.961,0,0,1-12.863,6.791c-1.855.37-3.768.458-5.656.648a1,1,0,0,1-1.128-.771.9.9,0,0,1,.407-1.085,1.91,1.91,0,0,1,.9-.214,24.94,24.94,0,0,0,11.774-3.117,23.963,23.963,0,0,0,4.613-3.3c-.538-.47-1.05-.9-1.54-1.35-.407-.376-.8-.773-1.18-1.174a1.065,1.065,0,0,1,.534-1.926c1.9-.488,3.806-.948,5.708-1.423q3.4-.85,6.8-1.7c1.3-.325,1.89.256,1.568,1.542l-3.077,12.278c-.024.1-.043.194-.072.288a1.051,1.051,0,0,1-1.9.509c-.7-.678-1.375-1.372-2.064-2.057-.138-.138-.286-.266-.433-.4-.9.707-1.735,1.43-2.634,2.07-7.6,5.412-16.026,7.354-25.1,5.227-12.128-2.843-19.92-10.511-23.478-22.43a28.257,28.257,0,0,1-1-9.831,2.135,2.135,0,0,1,.088-.585.97.97,0,0,1,1.053-.7.93.93,0,0,1,.922.85,3.441,3.441,0,0,1,0,.71,29.2,29.2,0,0,0,20.685,29.422,28.689,28.689,0,0,0,25.978-4.635c.783-.57,1.506-1.225,2.231-1.871,1.038-.925,1.556-.935,2.507.041.468.48.914.983,1.37,1.476Z" transform="translate(0 -208.457)" fill="#34054d"/>
        <path id="Path_883964" data-name="Path 883964" d="M1473.407-639.209l-2.422,9.656,9.684-2.412c-.661-.631-1.2-1.143-1.739-1.665a4.769,4.769,0,0,1-.555-.618,1.039,1.039,0,0,1,.145-1.537,26.79,26.79,0,0,1,18.5-7.49,1.078,1.078,0,0,1,1.232,1c.02.646-.472,1.064-1.284,1.078a24.8,24.8,0,0,0-15.8,5.832c-.137.114-.27.233-.4.353a1.418,1.418,0,0,0-.125.229c.564.54,1.16,1.109,1.753,1.681.285.275.571.551.842.84a1.069,1.069,0,0,1-.534,1.931c-1.917.5-3.841.971-5.762,1.45q-3.344.834-6.69,1.661c-1.381.343-1.953-.219-1.612-1.58q1.54-6.139,3.073-12.279c.124-.5.275-.965.837-1.125s.935.177,1.288.544c.754.784,1.51,1.564,2.249,2.328,1.208-.923,2.281-1.834,3.442-2.615a30.51,30.51,0,0,1,24.84-4.646,31.137,31.137,0,0,1,23.5,24.442,30.7,30.7,0,0,1,.512,7.812,1.154,1.154,0,0,1-.68,1.151c-.745.3-1.419-.255-1.419-1.141,0-1.405.045-2.816-.055-4.216a27.718,27.718,0,0,0-4.992-14.117,28.282,28.282,0,0,0-19.725-12.351,28.451,28.451,0,0,0-23.923,7.257,6.885,6.885,0,0,1-.63.542,1.21,1.21,0,0,1-1.794-.175C1474.608-637.945,1474.068-638.521,1473.407-639.209Z" transform="translate(-19.069)" fill="#34054d"/>
        <path id="Path_883965" data-name="Path 883965" d="M1604.382-498.62c0-.971.017-1.942-.005-2.913a3.022,3.022,0,0,1,.951-2.288,8.04,8.04,0,0,1,3.741-1.983,28.669,28.669,0,0,1,16,.145,12.02,12.02,0,0,1,3.121,1.654,2.876,2.876,0,0,1,1.185,2.59q-.052,2.823,0,5.647a3.229,3.229,0,0,1-1.166,2.616,9.733,9.733,0,0,1-4.25,2.028,28.047,28.047,0,0,1-15.248-.345,12.083,12.083,0,0,1-3.029-1.585,2.993,2.993,0,0,1-1.31-2.774C1604.417-496.756,1604.381-497.689,1604.382-498.62Zm22.88-.021c-.493.23-.856.433-1.242.575a27.431,27.431,0,0,1-16.317.665c-.786-.191-1.14-.683-.992-1.29.158-.65.709-.908,1.508-.711a27.468,27.468,0,0,0,12.608.16,9.623,9.623,0,0,0,3.823-1.563c.822-.617.839-1.218-.006-1.8a7.955,7.955,0,0,0-1.994-1.028,25.275,25.275,0,0,0-14.072-.441,17.713,17.713,0,0,0-3.286,1.327,1.479,1.479,0,0,0-.835,1.512,40.7,40.7,0,0,1-.017,4.7,2.358,2.358,0,0,0,1.667,2.6c.254.111.506.228.767.319a25.663,25.663,0,0,0,13.666.686,9.982,9.982,0,0,0,3.865-1.462c.35-.245.779-.648.819-1.016A30.786,30.786,0,0,0,1627.262-498.641Z" transform="translate(-138.733 -123.874)" fill="#34054d"/>
        <path id="Path_883966" data-name="Path 883966" d="M1617.507-368.61c-3.907-.061-6.974-.364-9.88-1.569a11.161,11.161,0,0,1-1.818-1,3.65,3.65,0,0,1-1.57-3.836,1,1,0,0,1,1.023-.893.984.984,0,0,1,1.015.829,1.4,1.4,0,0,1,.031.531,1.822,1.822,0,0,0,1.177,1.985,14.369,14.369,0,0,0,4.858,1.5,26.375,26.375,0,0,0,11.309-.578,15.482,15.482,0,0,0,2.655-1.164,1.421,1.421,0,0,0,.819-1.519,2.691,2.691,0,0,1,.023-.711,1.008,1.008,0,0,1,1.036-.876,1.022,1.022,0,0,1,1.011.91,3.759,3.759,0,0,1-1.723,3.945,14.184,14.184,0,0,1-5.793,2.015C1620.038-368.789,1618.373-368.695,1617.507-368.61Z" transform="translate(-138.575 -239.258)" fill="#34054d"/>
        <path id="Path_883967" data-name="Path 883967" d="M1617.5-316.21c-3.822-.091-6.922-.34-9.828-1.6a10.693,10.693,0,0,1-2.351-1.464c-1.107-.88-1.142-2.159-.991-3.431a.934.934,0,0,1,.961-.819.973.973,0,0,1,1.024.74,1.3,1.3,0,0,1,.057.585,1.89,1.89,0,0,0,1.241,2.067,14.777,14.777,0,0,0,4.922,1.489,25.806,25.806,0,0,0,11.637-.75,13.234,13.234,0,0,0,2.248-1.051,1.4,1.4,0,0,0,.771-1.485,2.749,2.749,0,0,1,.006-.593,1.055,1.055,0,0,1,1.046-1.01,1.085,1.085,0,0,1,1.033,1.028,3.84,3.84,0,0,1-2.122,4.091,14.49,14.49,0,0,1-5.27,1.738C1620.2-316.431,1618.5-316.313,1617.5-316.21Z" transform="translate(-138.641 -285.404)" fill="#34054d"/>
        <path id="Path_883968" data-name="Path 883968" d="M1737.805-611.068a1.077,1.077,0,0,1-1.058,1.05,1.055,1.055,0,0,1-1.03-1.013,1.048,1.048,0,0,1,1.054-1.044A1.055,1.055,0,0,1,1737.805-611.068Z" transform="translate(-254.457 -31.183)" fill="#34054d"/>
        <path id="Path_883969" data-name="Path 883969" d="M1667.81-173.585a1.053,1.053,0,0,1-.995,1.046,1.073,1.073,0,0,1-1.093-1.013,1.048,1.048,0,0,1,1.057-1.043A1.049,1.049,0,0,1,1667.81-173.585Z" transform="translate(-192.788 -416.623)" fill="#34054d"/>
      </g>
    </g>
  </g>
</svg>
