<svg xmlns="http://www.w3.org/2000/svg" xmlns:xlink="http://www.w3.org/1999/xlink" width="124.605" height="125.948" viewBox="0 0 124.605 125.948">
  <defs>
    <clipPath id="clip-path">
      <rect id="Rectangle_400938" data-name="Rectangle 400938" width="117.278" height="117.278" fill="none"/>
    </clipPath>
    <clipPath id="clip-path-2">
      <path id="Path_873460" data-name="Path 873460" d="M0,1.307A1.349,1.349,0,0,0,1.389,2.613,1.349,1.349,0,0,0,2.778,1.307,1.349,1.349,0,0,0,1.389,0,1.349,1.349,0,0,0,0,1.307" transform="translate(0)" fill="#34054d"/>
    </clipPath>
    <clipPath id="clip-path-3">
      <path id="Path_873466" data-name="Path 873466" d="M0,1.307A1.349,1.349,0,0,0,1.39,2.613,1.349,1.349,0,0,0,2.778,1.307,1.349,1.349,0,0,0,1.39,0,1.349,1.349,0,0,0,0,1.307" fill="#34054d"/>
    </clipPath>
    <clipPath id="clip-path-4">
      <path id="Path_873467" data-name="Path 873467" d="M0,1.306A1.349,1.349,0,0,0,1.389,2.612,1.349,1.349,0,0,0,2.778,1.306,1.349,1.349,0,0,0,1.389,0,1.349,1.349,0,0,0,0,1.306" transform="translate(0 0)" fill="#34054d"/>
    </clipPath>
    <clipPath id="clip-path-5">
      <path id="Path_873468" data-name="Path 873468" d="M0,1.306A1.349,1.349,0,0,0,1.39,2.612,1.349,1.349,0,0,0,2.778,1.306,1.349,1.349,0,0,0,1.39,0,1.349,1.349,0,0,0,0,1.306" transform="translate(0 0)" fill="#34054d"/>
    </clipPath>
    <clipPath id="clip-path-6">
      <path id="Path_873469" data-name="Path 873469" d="M0,1.306A1.349,1.349,0,0,0,1.389,2.612,1.349,1.349,0,0,0,2.777,1.306,1.349,1.349,0,0,0,1.389,0,1.349,1.349,0,0,0,0,1.306" transform="translate(0 0)" fill="#34054d"/>
    </clipPath>
    <clipPath id="clip-path-9">
      <path id="Path_873473" data-name="Path 873473" d="M0,1.306A1.349,1.349,0,0,0,1.39,2.612,1.348,1.348,0,0,0,2.778,1.306,1.349,1.349,0,0,0,1.39,0,1.349,1.349,0,0,0,0,1.306" transform="translate(0 0)" fill="#34054d"/>
    </clipPath>
    <clipPath id="clip-path-22">
      <rect id="Rectangle_401492" data-name="Rectangle 401492" width="63.051" height="63.052" transform="translate(-0.133 -0.252)" fill="#34054d" stroke="#707070" stroke-width="1"/>
    </clipPath>
  </defs>
  <g id="Group_1102328" data-name="Group 1102328" transform="translate(23060.281 3818.28)">
    <g id="Group_1100237" data-name="Group 1100237" transform="translate(-23054.037 -3797.84)">
      <g id="Group_1099505" data-name="Group 1099505" transform="translate(1.808 8.418)">
        <g id="Group_1099504" data-name="Group 1099504" transform="translate(0)" clip-path="url(#clip-path-2)">
          <rect id="Rectangle_401140" data-name="Rectangle 401140" width="2.777" height="2.613" transform="translate(0)" fill="#34054d"/>
        </g>
      </g>
      <g id="Group_1099517" data-name="Group 1099517" transform="translate(37.056 8.418)">
        <g id="Group_1099516" data-name="Group 1099516" transform="translate(0)" clip-path="url(#clip-path-3)">
          <rect id="Rectangle_401146" data-name="Rectangle 401146" width="2.778" height="2.613" transform="translate(0 0)" fill="#34054d"/>
        </g>
      </g>
      <g id="Group_1099519" data-name="Group 1099519" transform="translate(30.194 8.418)">
        <g id="Group_1099518" data-name="Group 1099518" transform="translate(0 0)" clip-path="url(#clip-path-4)">
          <rect id="Rectangle_401147" data-name="Rectangle 401147" width="2.778" height="2.612" transform="translate(0 0)" fill="#34054d"/>
        </g>
      </g>
      <g id="Group_1099521" data-name="Group 1099521" transform="translate(23.332 8.418)">
        <g id="Group_1099520" data-name="Group 1099520" transform="translate(0 0)" clip-path="url(#clip-path-5)">
          <rect id="Rectangle_401148" data-name="Rectangle 401148" width="2.778" height="2.612" transform="translate(0 0)" fill="#34054d"/>
        </g>
      </g>
      <g id="Group_1099523" data-name="Group 1099523" transform="translate(16.47 8.418)">
        <g id="Group_1099522" data-name="Group 1099522" transform="translate(0 0)" clip-path="url(#clip-path-6)">
          <rect id="Rectangle_401149" data-name="Rectangle 401149" width="2.777" height="2.612" transform="translate(0 0)" fill="#34054d"/>
        </g>
      </g>
      <g id="Group_1099525" data-name="Group 1099525" transform="translate(34.311 0)">
        <g id="Group_1099524" data-name="Group 1099524" clip-path="url(#clip-path-4)">
          <rect id="Rectangle_401150" data-name="Rectangle 401150" width="2.778" height="2.612" transform="translate(0 0)" fill="#34054d"/>
        </g>
      </g>
      <g id="Group_1099529" data-name="Group 1099529" transform="translate(27.448 0)">
        <g id="Group_1099528" data-name="Group 1099528" transform="translate(0)" clip-path="url(#clip-path-5)">
          <rect id="Rectangle_401152" data-name="Rectangle 401152" width="2.778" height="2.612" transform="translate(0 0)" fill="#34054d"/>
        </g>
      </g>
      <g id="Group_1099531" data-name="Group 1099531" transform="translate(13.724 0)">
        <g id="Group_1099530" data-name="Group 1099530" transform="translate(0)" clip-path="url(#clip-path-9)">
          <rect id="Rectangle_401153" data-name="Rectangle 401153" width="2.777" height="2.612" transform="translate(0 0)" fill="#34054d"/>
        </g>
      </g>
      <g id="Group_1099533" data-name="Group 1099533" transform="translate(6.862 0)">
        <g id="Group_1099532" data-name="Group 1099532" clip-path="url(#clip-path-4)">
          <rect id="Rectangle_401154" data-name="Rectangle 401154" width="2.778" height="2.612" transform="translate(0 0)" fill="#34054d"/>
        </g>
      </g>
      <g id="Group_1099535" data-name="Group 1099535" transform="translate(0 0)">
        <g id="Group_1099534" data-name="Group 1099534" transform="translate(0)" clip-path="url(#clip-path-5)">
          <rect id="Rectangle_401155" data-name="Rectangle 401155" width="2.778" height="2.612" transform="translate(0 0)" fill="#34054d"/>
        </g>
      </g>
    </g>
    <g id="Group_1100238" data-name="Group 1100238" transform="translate(-22980.652 -3724.455)">
      <g id="Group_1099505-2" data-name="Group 1099505" transform="translate(1.808 8.418)">
        <g id="Group_1099504-2" data-name="Group 1099504" transform="translate(0)" clip-path="url(#clip-path-2)">
          <rect id="Rectangle_401140-2" data-name="Rectangle 401140" width="2.777" height="2.613" transform="translate(0)" fill="#34054d"/>
        </g>
      </g>
      <g id="Group_1099517-2" data-name="Group 1099517" transform="translate(37.056 8.418)">
        <g id="Group_1099516-2" data-name="Group 1099516" transform="translate(0)" clip-path="url(#clip-path-3)">
          <rect id="Rectangle_401146-2" data-name="Rectangle 401146" width="2.778" height="2.613" transform="translate(0 0)" fill="#34054d"/>
        </g>
      </g>
      <g id="Group_1099519-2" data-name="Group 1099519" transform="translate(30.194 8.418)">
        <g id="Group_1099518-2" data-name="Group 1099518" transform="translate(0 0)" clip-path="url(#clip-path-4)">
          <rect id="Rectangle_401147-2" data-name="Rectangle 401147" width="2.778" height="2.612" transform="translate(0 0)" fill="#34054d"/>
        </g>
      </g>
      <g id="Group_1099521-2" data-name="Group 1099521" transform="translate(23.332 8.418)">
        <g id="Group_1099520-2" data-name="Group 1099520" transform="translate(0 0)" clip-path="url(#clip-path-5)">
          <rect id="Rectangle_401148-2" data-name="Rectangle 401148" width="2.778" height="2.612" transform="translate(0 0)" fill="#34054d"/>
        </g>
      </g>
      <g id="Group_1099523-2" data-name="Group 1099523" transform="translate(16.47 8.418)">
        <g id="Group_1099522-2" data-name="Group 1099522" transform="translate(0 0)" clip-path="url(#clip-path-6)">
          <rect id="Rectangle_401149-2" data-name="Rectangle 401149" width="2.777" height="2.612" transform="translate(0 0)" fill="#34054d"/>
        </g>
      </g>
      <g id="Group_1099525-2" data-name="Group 1099525" transform="translate(34.311 0)">
        <g id="Group_1099524-2" data-name="Group 1099524" clip-path="url(#clip-path-4)">
          <rect id="Rectangle_401150-2" data-name="Rectangle 401150" width="2.778" height="2.612" transform="translate(0 0)" fill="#34054d"/>
        </g>
      </g>
      <g id="Group_1099529-2" data-name="Group 1099529" transform="translate(27.448 0)">
        <g id="Group_1099528-2" data-name="Group 1099528" transform="translate(0)" clip-path="url(#clip-path-5)">
          <rect id="Rectangle_401152-2" data-name="Rectangle 401152" width="2.778" height="2.612" transform="translate(0 0)" fill="#34054d"/>
        </g>
      </g>
      <g id="Group_1099531-2" data-name="Group 1099531" transform="translate(13.724 0)">
        <g id="Group_1099530-2" data-name="Group 1099530" transform="translate(0)" clip-path="url(#clip-path-9)">
          <rect id="Rectangle_401153-2" data-name="Rectangle 401153" width="2.777" height="2.612" transform="translate(0 0)" fill="#34054d"/>
        </g>
      </g>
      <g id="Group_1099533-2" data-name="Group 1099533" transform="translate(6.862 0)">
        <g id="Group_1099532-2" data-name="Group 1099532" clip-path="url(#clip-path-4)">
          <rect id="Rectangle_401154-2" data-name="Rectangle 401154" width="2.778" height="2.612" transform="translate(0 0)" fill="#34054d"/>
        </g>
      </g>
      <g id="Group_1099535-2" data-name="Group 1099535" transform="translate(0 0)">
        <g id="Group_1099534-2" data-name="Group 1099534" transform="translate(0)" clip-path="url(#clip-path-5)">
          <rect id="Rectangle_401155-2" data-name="Rectangle 401155" width="2.778" height="2.612" transform="translate(0 0)" fill="#34054d"/>
        </g>
      </g>
    </g>
    <path id="Path_873784" data-name="Path 873784" d="M83.8,18.565A18.62,18.62,0,0,0,65.231,0H18.566A18.62,18.62,0,0,0,0,18.566V65.231A18.62,18.62,0,0,0,18.565,83.8H65.231A18.62,18.62,0,0,0,83.8,65.23Z" transform="translate(-22994.928 -3692.332) rotate(-135)" fill="#4b0d6b"/>
    <path id="Path_873785" data-name="Path 873785" d="M86.438,19.15A19.206,19.206,0,0,0,67.287,0H19.151A19.207,19.207,0,0,0,0,19.151V67.287a19.206,19.206,0,0,0,19.15,19.15H67.287A19.207,19.207,0,0,0,86.437,67.286Z" transform="translate(-22999.16 -3696.04) rotate(-135)" fill="#d7c9fe"/>
    <g id="Mask_Group_1098697" data-name="Mask Group 1098697" transform="translate(-23031.146 -3787.541)" clip-path="url(#clip-path-22)">
      <g id="Group_1110118" data-name="Group 1110118" transform="translate(723.568 -1028.445)">
        <path id="Path_884592" data-name="Path 884592" d="M-692.4,1059.7H-708.53a2.855,2.855,0,0,1-3.188-3.164c0-1.153,0-2.306,0-3.527-.21-.01-.4-.026-.589-.026-1.767,0-3.534,0-5.3,0a1.886,1.886,0,0,1-2.086-2.076q-.012-7.22.013-14.441a1.5,1.5,0,0,1,.388-.942q1.913-1.987,3.9-3.9a1.59,1.59,0,0,1,.989-.406c3.3-.03,6.6-.021,9.9-.016a1.9,1.9,0,0,1,2.085,2.081q.006,8.789,0,17.578a1.915,1.915,0,0,1-2.106,2.119c-1.749,0-3.5,0-5.247,0h-.615c0,1.426-.051,2.792.02,4.153a1.416,1.416,0,0,0,1.572,1.256c1.028.015,2.056,0,3.083,0,4.237,0,8.475-.007,12.712.011.471,0,.622-.114.612-.6-.031-1.423-.01-2.848-.012-4.272,0-.159-.018-.318-.031-.526-.215-.01-.406-.026-.6-.026-1.749,0-3.5,0-5.247,0a1.9,1.9,0,0,1-2.105-2.111q0-7.193-.008-14.387a1.288,1.288,0,0,1,.411-1c1.313-1.287,2.6-2.606,3.924-3.878a1.516,1.516,0,0,1,.946-.384c3.318-.027,6.635-.021,9.953-.014a1.9,1.9,0,0,1,2.063,2.052q.006,8.843,0,17.686a1.9,1.9,0,0,1-2.027,2.037c-1.767.008-3.534,0-5.3,0h-.614a4.517,4.517,0,0,0-.052.463c0,1.478.01,2.957-.01,4.435-.005.4.115.525.522.524,5.265-.012,10.53-.005,15.8-.011a1.514,1.514,0,0,0,1.7-1.657c.015-1.222,0-2.445,0-3.722-.241-.012-.432-.03-.624-.03-1.749,0-3.5,0-5.247,0a1.928,1.928,0,0,1-2.13-2.1c0-4.8-.009-9.591.014-14.387a1.506,1.506,0,0,1,.379-.948q1.932-2.006,3.944-3.933a1.512,1.512,0,0,1,.941-.392c3.318-.028,6.635-.021,9.953-.015a1.87,1.87,0,0,1,2.055,2.044q.005,8.843,0,17.686a1.88,1.88,0,0,1-2.057,2.046c-1.749.005-3.5,0-5.247,0h-.642c-.011.232-.026.424-.027.615,0,.992,0,1.983,0,2.975a2.842,2.842,0,0,1-3.117,3.128c-5.175,0-10.35.009-15.525-.011-.54,0-.723.121-.7.683.048.989.024,1.983.008,2.974-.006.348.11.511.466.468a.215.215,0,0,1,.054,0,2.413,2.413,0,0,0,2.211-.837,8.925,8.925,0,0,1,11.764-.611,8.991,8.991,0,0,1,2.251,11.536.588.588,0,0,0,.144.9c1.465,1.231,2.936,2.455,4.371,3.719,1.84,1.62,3.657,3.267,5.466,4.922a2.554,2.554,0,0,1,.448,3.257,2.588,2.588,0,0,1-3.085,1.154,2.937,2.937,0,0,1-1.109-.732q-3.664-3.978-7.278-8c-.533-.592-1-1.242-1.5-1.866-.189-.239-.363-.206-.646-.1a2.874,2.874,0,0,0-1.669,1.883c-.768,2-1.621,3.97-2.47,5.938a3.271,3.271,0,0,1-3.245,2.151q-10.738-.017-21.475-.006a5.65,5.65,0,0,1-.7-.031,1.492,1.492,0,0,1-1.361-1.324,4.16,4.16,0,0,1-.037-.646q0-10.844.01-21.688a2.749,2.749,0,0,1,2.133-2.926,2.91,2.91,0,0,1,.643-.066c1.785-.005,3.57-.017,5.355.01a1.688,1.688,0,0,1,.888.3c1.3.91,2.567,1.865,3.865,2.777a1.7,1.7,0,0,0,.835.278c.647.04,1.3.026,1.946,0,.139-.005.39-.145.391-.226C-692.4,1062.3-692.4,1061.023-692.4,1059.7Zm1.288,8.627a2.611,2.611,0,0,0-.281-.038c-2.469,0-4.939-.013-7.408,0a1.866,1.866,0,0,0-1.775,1.278q-3.216,7.674-6.418,15.353c-.322.772-.239.9.572.9q10.76,0,21.521.005a2.04,2.04,0,0,0,2.048-1.374q.74-1.769,1.478-3.54l1.1-2.63a8.987,8.987,0,0,1-7.948-2.217A8.954,8.954,0,0,1-691.117,1068.323Zm-7.956-31.506c0,4.806,0,9.51,0,14.213,0,.457.276.638.7.638h13.252a.644.644,0,0,0,.728-.734q0-8.842,0-17.684c0-.488-.219-.742-.714-.742q-4.625,0-9.249,0c-.3,0-.414.113-.407.414.014.594.006,1.19,0,1.785a1.892,1.892,0,0,1-2.1,2.113C-697.576,1036.82-698.293,1036.817-699.073,1036.817Zm-19.262,0a4.137,4.137,0,0,0-.05.43q0,6.812,0,13.624c0,.653.166.8.864.8q6.462,0,12.924,0c.713,0,.873-.167.875-.906,0-1.261,0-2.523,0-3.785q0-6.785,0-13.57c0-.712-.151-.9-.768-.9-3.046-.005-6.092,0-9.138-.008-.345,0-.484.1-.468.461.026.576.008,1.153.006,1.73a1.889,1.889,0,0,1-2.131,2.123C-716.921,1036.819-717.62,1036.817-718.335,1036.817Zm42.905-4.27c0,.73,0,1.412,0,2.094a1.921,1.921,0,0,1-2.152,2.175c-.577,0-1.154.018-1.731,0-.362-.014-.458.131-.458.474q.013,6.786.008,13.573c0,.617.2.808.812.809q6.517,0,13.034,0c.649,0,.823-.164.824-.781q0-8.814,0-17.628c0-.575-.165-.746-.742-.747q-4.624-.008-9.248,0C-675.17,1032.51-675.257,1032.528-675.429,1032.547Zm-31.757,49.045.125.035c.07-.156.145-.311.211-.469q2.5-5.978,5.007-11.957a3.293,3.293,0,0,1,3.353-2.228c2.4,0,4.793,0,7.19-.007.177,0,.459-.049.512-.161.25-.527.438-1.083.674-1.7-1.674,0-3.276.025-4.877-.018a2.323,2.323,0,0,1-1.184-.386c-1.278-.875-2.509-1.817-3.776-2.708a1.487,1.487,0,0,0-.788-.252c-1.513-.024-3.027-.012-4.541-.011-1.431,0-1.9.472-1.9,1.921q-.005,8.7-.008,17.4Q-707.186,1081.324-707.186,1081.592Zm32.7-5.251c-.291-.287-.561-.548-.825-.814-.754-.76-.787-1.169-.262-2.1a7.4,7.4,0,0,0-.226-8.273,7.285,7.285,0,0,0-7.579-3.294,7.712,7.712,0,0,0-6.469,7.11,7.72,7.72,0,0,0,5.689,7.907,7.658,7.658,0,0,0,6.082-.9,1.349,1.349,0,0,1,1.976.232c.291.289.559.6.791.854Zm1.679,3.695c1.857,2.036,3.807,4.2,5.8,6.323a1.453,1.453,0,0,0,1.035.284,1.168,1.168,0,0,0,1.057-.88,1.274,1.274,0,0,0-.382-1.422c-1.22-1.092-2.433-2.193-3.651-3.288-.894-.8-1.791-1.605-2.592-2.324Zm-25.19-44.536a9.4,9.4,0,0,0,1.385-.021.717.717,0,0,0,.495-.448,9.189,9.189,0,0,0,.024-1.387Zm-17.411-1.809-1.888,1.8a9.369,9.369,0,0,0,1.4-.023.712.712,0,0,0,.467-.475A8.486,8.486,0,0,0-715.4,1033.691Zm38.644-.013-1.83,1.816a8.727,8.727,0,0,0,1.333-.022.714.714,0,0,0,.475-.469A8.534,8.534,0,0,0-676.761,1033.678Zm4.241,44.244c-.735-.8-.893-.8-1.408-.266s-.5.679.3,1.335Z" transform="translate(0 0)" fill="#34054d"/>
        <path id="Path_884593" data-name="Path 884593" d="M-505.695,1127.119c-1.512,0-3.023,0-4.535,0-.574,0-.879-.229-.887-.64s.3-.663.868-.663q4.535-.007,9.07,0c.565,0,.876.257.861.67s-.314.631-.9.633C-502.707,1127.122-504.2,1127.119-505.695,1127.119Z" transform="translate(-186.022 -84.384)" fill="#34054d"/>
        <path id="Path_884594" data-name="Path 884594" d="M-506.8,1190.147c-1.152,0-2.3-.007-3.455,0-.456,0-.79-.136-.832-.635-.035-.417.293-.672.85-.673,2.3,0,4.606,0,6.91,0,.451,0,.791.138.83.64.033.422-.282.663-.848.666C-504.492,1190.15-505.644,1190.147-506.8,1190.147Z" transform="translate(-186.051 -140.595)" fill="#34054d"/>
        <path id="Path_884595" data-name="Path 884595" d="M-476.346,1064.084c-.935,0-1.87,0-2.8,0-.573,0-.869-.236-.863-.658s.3-.639.876-.64c1.906,0,3.812,0,5.717,0,.458,0,.788.135.834.631.039.418-.283.667-.847.671C-474.4,1064.089-475.375,1064.084-476.346,1064.084Z" transform="translate(-213.761 -28.171)" fill="#34054d"/>
        <path id="Path_884596" data-name="Path 884596" d="M-507.944,1158.641c-.775,0-1.55,0-2.325,0-.442,0-.762-.181-.756-.65s.329-.647.768-.647q2.325,0,4.65,0c.438,0,.759.193.757.659s-.332.638-.769.637C-506.394,1158.64-507.169,1158.641-507.944,1158.641Z" transform="translate(-186.104 -112.506)" fill="#34054d"/>
        <path id="Path_884597" data-name="Path 884597" d="M-455.513,1094.417c.594,0,1.188,0,1.781,0,.422,0,.718.177.734.613.017.465-.29.683-.726.687q-1.781.017-3.562,0c-.421,0-.757-.172-.759-.654s.316-.646.752-.646Z" transform="translate(-233.353 -56.385)" fill="#34054d"/>
        <path id="Path_884598" data-name="Path 884598" d="M-508.877,1095.707c-.467,0-.934.007-1.4,0-.433-.009-.753-.2-.748-.666s.322-.64.763-.637q1.373.008,2.746,0c.44,0,.741.165.783.626.036.393-.287.661-.8.677C-507.979,1095.718-508.428,1095.707-508.877,1095.707Z" transform="translate(-186.105 -56.371)" fill="#34054d"/>
        <path id="Path_884599" data-name="Path 884599" d="M-438.972,1158.592c-.3,0-.61.012-.914,0a.585.585,0,0,1-.621-.606.575.575,0,0,1,.565-.66,12.694,12.694,0,0,1,2.039.025c.207.025.485.371.532.609.068.351-.2.6-.578.626-.339.02-.681,0-1.022,0Z" transform="translate(-248.994 -112.462)" fill="#34054d"/>
        <path id="Path_884600" data-name="Path 884600" d="M-682.206,1088.359c-.279-.1-.514-.115-.628-.241-.184-.2-.431-.507-.386-.71s.442-.518.63-.484a16.666,16.666,0,0,1,2.443.655.756.756,0,0,1,.308.655,22.773,22.773,0,0,1-.577,2.244.588.588,0,0,1-.758.437.619.619,0,0,1-.476-.786c.027-.157.063-.312.12-.587-.238.119-.405.191-.562.282q-3.064,1.763-6.127,3.53c-.14.081-.3.225-.429.2-.257-.046-.61-.122-.713-.305s.014-.525.118-.761c.061-.137.282-.209.437-.3q2.991-1.728,5.984-3.454C-682.64,1088.634-682.465,1088.519-682.206,1088.359Z" transform="translate(-27.023 -49.701)" fill="#34054d"/>
        <path id="Path_884601" data-name="Path 884601" d="M-601.432,1124.025c0-1.477,0-2.954,0-4.431,0-.594.217-.871.646-.867s.655.292.656.875q.007,4.458,0,8.916c0,.569-.242.869-.663.869s-.637-.283-.639-.876C-601.435,1127.015-601.432,1125.52-601.432,1124.025Z" transform="translate(-105.475 -78.066)" fill="#34054d"/>
        <path id="Path_884602" data-name="Path 884602" d="M-629.766,1140.239c0,1.169,0,2.338,0,3.506,0,.571-.236.875-.65.875s-.652-.3-.653-.867q-.005-3.533,0-7.067c0-.573.23-.874.645-.878s.655.3.658.87C-629.762,1137.866-629.766,1139.052-629.766,1140.239Z" transform="translate(-79.041 -93.3)" fill="#34054d"/>
        <path id="Path_884603" data-name="Path 884603" d="M-659.241,1156.33c0,.865.005,1.731,0,2.6,0,.572-.239.871-.661.873s-.641-.281-.642-.875c0-1.749,0-3.5,0-5.246,0-.444.112-.8.621-.847.415-.037.678.29.684.849C-659.234,1154.563-659.241,1155.447-659.241,1156.33Z" transform="translate(-52.753 -108.479)" fill="#34054d"/>
        <path id="Path_884604" data-name="Path 884604" d="M-690.179,1172.529q0-.891,0-1.782c0-.44.185-.753.655-.752s.645.339.647.765c.007,1.188,0,2.376,0,3.565,0,.425-.155.75-.634.781-.41.027-.66-.273-.668-.794C-690.186,1173.717-690.179,1173.123-690.179,1172.529Z" transform="translate(-26.326 -123.788)" fill="#34054d"/>
        <path id="Path_884605" data-name="Path 884605" d="M-335.736,1095.761c1.121.9,2.237,1.779,3.341,2.675a2.044,2.044,0,0,1,.585,2.661,2.131,2.131,0,0,1-2.549,1.117,2.619,2.619,0,0,1-1.072-.76c-.8-.927-1.559-1.892-2.3-2.869a.7.7,0,0,0-.943-.272,4.867,4.867,0,0,1-5.716-2.135,4.9,4.9,0,0,1,.82-6.007,4.9,4.9,0,0,1,6.038-.587,4.915,4.915,0,0,1,1.977,5.646C-335.61,1095.4-335.669,1095.567-335.736,1095.761Zm-4.447,1.492a3.562,3.562,0,0,0,3.571-3.568,3.567,3.567,0,0,0-3.576-3.568,3.571,3.571,0,0,0-3.571,3.573A3.564,3.564,0,0,0-340.183,1097.253Zm3.2.2c.891,1.109,1.769,2.224,2.675,3.316a.783.783,0,0,0,1.192-.061.791.791,0,0,0,.014-1.156c-1.094-.9-2.208-1.782-3.334-2.687Z" transform="translate(-334.111 -51.383)" fill="#34054d"/>
        <path id="Path_884606" data-name="Path 884606" d="M-417.651,1333.67a6.244,6.244,0,0,1-6.244,6.219,6.247,6.247,0,0,1-6.2-6.209,6.211,6.211,0,0,1,6.219-6.228A6.2,6.2,0,0,1-417.651,1333.67Zm-6.23-4.919a4.908,4.908,0,0,0-4.91,4.917,4.947,4.947,0,0,0,4.929,4.921,4.944,4.944,0,0,0,4.908-4.94A4.9,4.9,0,0,0-423.882,1328.751Z" transform="translate(-258.283 -264.215)" fill="#34054d"/>
        <path id="Path_884607" data-name="Path 884607" d="M-313.147,1109.768a2.732,2.732,0,0,1,2.5,2.01c.093.423.014.775-.439.9-.425.118-.663-.119-.8-.513a1.246,1.246,0,0,0-1.847-.863c-.4.143-.728.088-.909-.305a.609.609,0,0,1,.381-.874C-313.905,1109.971-313.52,1109.884-313.147,1109.768Z" transform="translate(-361.18 -70.076)" fill="#34054d"/>
      </g>
    </g>
  </g>
</svg>
