<svg xmlns="http://www.w3.org/2000/svg" xmlns:xlink="http://www.w3.org/1999/xlink" width="99" height="99" viewBox="0 0 99 99">
  <defs>
    <clipPath id="clip-path">
      <rect id="Rectangle_401223" data-name="Rectangle 401223" width="99" height="99" transform="translate(0)" fill="#a01f4e"/>
    </clipPath>
    <clipPath id="clip-path-2">
      <rect id="Rectangle_401223-2" data-name="Rectangle 401223" width="88.539" height="88.539" fill="#f3f9ff"/>
    </clipPath>
  </defs>
  <g id="Group_1109553" data-name="Group 1109553" transform="translate(-619.921 -5755.871)">
    <g id="Group_1100724" data-name="Group 1100724" transform="translate(619.921 5755.871)">
      <g id="Group_1099654" data-name="Group 1099654" transform="translate(0 0)">
        <g id="Group_1099652" data-name="Group 1099652" clip-path="url(#clip-path)">
          <path id="Path_873521" data-name="Path 873521" d="M99,77.066A22,22,0,0,1,77.066,99H21.934A22,22,0,0,1,0,77.066V21.933A22,22,0,0,1,21.934,0H77.066A22,22,0,0,1,99,21.934Z" transform="translate(0)" fill="#bfa9fe"/>
        </g>
      </g>
      <g id="Group_1099659" data-name="Group 1099659" transform="translate(4.77 5.723)">
        <g id="Group_1099652-2" data-name="Group 1099652" transform="translate(0 0)" clip-path="url(#clip-path-2)">
          <path id="Path_873521-2" data-name="Path 873521" d="M88.539,68.922A19.674,19.674,0,0,1,68.923,88.539H19.616A19.674,19.674,0,0,1,0,68.922V19.616A19.674,19.674,0,0,1,19.616,0H68.923A19.674,19.674,0,0,1,88.539,19.616Z" fill="#f3f9ff"/>
        </g>
      </g>
    </g>
    <g id="Group_1100725" data-name="Group 1100725" transform="translate(636.343 5771.293)">
      <rect id="Rectangle_401104" data-name="Rectangle 401104" width="68" height="69" transform="translate(-0.214 0.105)" fill="none"/>
      <g id="Group_1109852" data-name="Group 1109852" transform="translate(-857.278 616.945)">
        <path id="Path_883951" data-name="Path 883951" d="M906.44-613.8v5.752a54.358,54.358,0,0,1,5.977,1.805,17,17,0,0,1,10.141,16.64,17.091,17.091,0,0,1-12.089,15.289,1.178,1.178,0,0,0-1.021,1.385c.03,1.2-.142,2.4-.191,3.6a1.888,1.888,0,0,0,.247.669,8.156,8.156,0,0,1,.934,2.447c.109,3.256.067,6.518.037,9.777a4.962,4.962,0,0,1-5.01,5.1q-22.481.035-44.962.008a4.35,4.35,0,0,1-.441-.061v-1.048q0-24.9.027-49.8a2.457,2.457,0,0,1,.637-1.557q4.65-4.757,9.4-9.413a2.063,2.063,0,0,1,1.271-.608q17.188-.049,34.377-.024C905.97-613.837,906.163-613.815,906.44-613.8ZM862.163-601.73v48.335h38.925a17.023,17.023,0,0,1-.662-3.112c-.086-3.224-.1-6.454.012-9.677a8.205,8.205,0,0,1,.917-2.455c.088-.224.284-.445.275-.661-.05-1.234-.228-2.469-.2-3.7.019-.8-.294-1.082-.992-1.3a16.455,16.455,0,0,1-10.671-9.557,49.582,49.582,0,0,1-1.7-5.777c-2.461,0-5.113-.018-7.763.028-.262,0-.614.347-.758.62-.783,1.483-1.548,2.979-2.248,4.5a1.333,1.333,0,0,1-1.436.918c-2.419-.055-4.839-.02-7.259-.02h-4.456a7.333,7.333,0,0,1,3.3-7.058,7.327,7.327,0,0,1-3.293-7.065c4.106,0,8.1-.013,12.1.027a1.245,1.245,0,0,1,.87.6c.837,1.569,1.591,3.181,2.417,4.756.145.276.492.629.751.633,2.651.047,5.3.029,7.935.029,1.4-9.429,6.764-14.8,16.159-16.2v-3.891H872.124v10.02Zm32.315,12.1a11.019,11.019,0,0,0,11.6,10.06,11.131,11.131,0,0,0,10.438-11.613A11.128,11.128,0,0,0,904.9-601.723c-5.451.226-10.546,5.137-10.358,10.006h3.91c.054-.243.09-.436.139-.627a7.084,7.084,0,0,1,7.348-5.345,7.1,7.1,0,0,1,6.539,6.423,7.133,7.133,0,0,1-5.119,7.426c-3.28.929-7.008-.567-8.18-3.793-.71-1.952-1.753-2.216-3.416-2.008A11.006,11.006,0,0,1,894.478-589.634Zm-4.041.043c.316,7.982,7.467,14.359,15.668,14.054a15.167,15.167,0,0,0,14.444-15.691,15.1,15.1,0,0,0-15.707-14.514c-9.3.366-14.4,8.336-14.36,14.017h1.838a13.2,13.2,0,0,1,14.3-11.977,13.107,13.107,0,0,1,11.921,12.777,13.086,13.086,0,0,1-11.671,13.3A13.218,13.218,0,0,1,892.3-589.591ZM908.46-561.2c0-1.578.005-3.157,0-4.735-.006-1.208-.29-1.5-1.462-1.512q-1.561-.014-3.123,0c-1.135.01-1.45.308-1.453,1.418-.009,3.157-.016,6.313,0,9.47a3.029,3.029,0,0,0,3.019,3.213,3.036,3.036,0,0,0,3.015-3.22C908.474-558.114,908.46-559.659,908.46-561.2ZM906.4-589.618h-5.769a4.843,4.843,0,0,0,5.182,3.993,5.061,5.061,0,0,0,4.656-5.143,5.054,5.054,0,0,0-4.9-4.911c-2.457-.065-4.774,1.793-4.926,4.034H906.4ZM877.556-591.7a14.811,14.811,0,0,1-1.041-2.14c-.476-1.581-1.455-1.993-3.053-1.885-2.356.159-4.731.041-7.108.041a4.549,4.549,0,0,0,4.156,3.947C872.8-591.576,875.106-591.7,877.556-591.7Zm0,2.108c-2.446,0-4.754-.123-7.042.036a4.551,4.551,0,0,0-4.157,3.947c2.946,0,5.882.006,8.818-.014a.734.734,0,0,0,.546-.316C876.334-587.114,876.913-588.309,877.552-589.592Zm-7.486-14.221v-6.518c-2.106,2.117-4.065,4.086-6.021,6.058a5.715,5.715,0,0,0-.358.46Zm33.366,30.266c0,1.028-.025,2.025.008,3.019a.976.976,0,0,0,1.194,1.031c.961-.142,2.362.657,2.745-.844a13.256,13.256,0,0,0,.049-3.206Z" transform="translate(0 0)" fill="#34054d"/>
        <path id="Path_883952" data-name="Path 883952" d="M907.18-315.31a9.087,9.087,0,0,1-9.073,9.1,9.086,9.086,0,0,1-9.077-9.1,9.085,9.085,0,0,1,9.022-9.051A9.082,9.082,0,0,1,907.18-315.31Zm-9.046,7.077a7.07,7.07,0,0,0,7.021-7.079,7.069,7.069,0,0,0-7.079-7.02,7.07,7.07,0,0,0-7.02,7.078A7.071,7.071,0,0,0,898.134-308.233Z" transform="translate(-24.931 -249.149)" fill="#34054d"/>
        <path id="Path_883953" data-name="Path 883953" d="M977.79-576.366H961.78v-7.946h16.01ZM963.77-578.4h12v-3.887h-12Z" transform="translate(-87.545 -25.413)" fill="#34054d"/>
        <path id="Path_883954" data-name="Path 883954" d="M913.676-352.826v1.9H889.6v-1.9Z" transform="translate(-25.422 -224.647)" fill="#34054d"/>
        <path id="Path_883955" data-name="Path 883955" d="M938.383-381.752v1.9H918.3v-1.9Z" transform="translate(-50.126 -199.751)" fill="#34054d"/>
        <path id="Path_883956" data-name="Path 883956" d="M1034.082-322.093v-1.9h13.993v1.9Z" transform="translate(-149.773 -249.462)" fill="#34054d"/>
        <path id="Path_883957" data-name="Path 883957" d="M1034.164-295.089h13.988v1.912h-13.988Z" transform="translate(-149.844 -274.339)" fill="#34054d"/>
        <path id="Path_883958" data-name="Path 883958" d="M1048.119-265.965v1.9H1034.09v-1.9Z" transform="translate(-149.78 -299.406)" fill="#34054d"/>
        <path id="Path_883959" data-name="Path 883959" d="M1048.278-235.167h-13.99v-1.913h13.99Z" transform="translate(-149.95 -324.266)" fill="#34054d"/>
        <path id="Path_883960" data-name="Path 883960" d="M1048.116-208.075v1.9h-14.03v-1.9Z" transform="translate(-149.777 -349.23)" fill="#34054d"/>
        <path id="Path_883961" data-name="Path 883961" d="M889.353-379.993v-1.9h1.9v1.9Z" transform="translate(-25.209 -199.628)" fill="#34054d"/>
        <path id="Path_883962" data-name="Path 883962" d="M922.94-278.346l-2.623-2.52,1.5-1.283,1.237,1.107,5.193-5.327,1.347,1.48Z" transform="translate(-51.859 -281.845)" fill="#34054d"/>
      </g>
    </g>
  </g>
</svg>
